<?xml version="1.0" encoding="utf-8"?>
<!-- Generator: Adobe Illustrator 24.2.1, SVG Export Plug-In . SVG Version: 6.00 Build 0)  -->
<svg version="1.1" id="Layer_1" xmlns="http://www.w3.org/2000/svg" xmlns:xlink="http://www.w3.org/1999/xlink" x="0px" y="0px"
	 width="200px" height="76.5px" viewBox="0 0 200 76.5" style="enable-background:new 0 0 200 76.5;" xml:space="preserve">
<style type="text/css">
	.st0{fill:#47278A;}
	.st1{fill:#210058;}
	.st2{fill:#311272;}
	.st3{fill:#6356A3;}
	.st4{fill:#4F3A93;}
	.st5{fill:#6FBA2C;}
	.st6{fill:#5B9B21;}
</style>
<g>
	<polygon class="st0" points="83.8,40.8 69,40.8 82.5,0 97.2,0 	"/>
	<path class="st1" d="M137.4,0h-7.8c-11.3,0-20.4,9.1-20.4,20.4c0,11.3,9.1,20.4,20.4,20.4h7.8c11.3,0,20.4-9.1,20.4-20.4
		C157.8,9.1,148.7,0,137.4,0 M136.5,28.9h-6c-4.7,0-8.5-3.8-8.5-8.5s3.8-8.5,8.5-8.5h6c4.7,0,8.5,3.8,8.5,8.5S141.1,28.9,136.5,28.9
		"/>
	<path class="st1" d="M182.1,11.9h8.3h1h0.9h7.6V0h-9.6h-9.3c-11.3,0-20.4,9.1-20.4,20.4c0,11.3,9.1,20.4,20.4,20.4h9.3h9.6V28.9
		h-1.8h-8.7h-7.4c-4.7,0-8.5-3.8-8.5-8.5C173.6,15.7,177.4,11.9,182.1,11.9"/>
	<path class="st1" d="M21.3,11.9h8.3h1h1.4h7.1V0h-9.5h-9.3C9.1,0,0,9.1,0,20.4c0,11.3,9.1,20.4,20.4,20.4h9.3h9.5V28.9h-1.8h-8.7
		h-7.4c-4.7,0-8.5-3.8-8.5-8.5C12.8,15.7,16.6,11.9,21.3,11.9"/>
	<polygon class="st1" points="95.9,40.8 110.7,40.8 97.2,0 82.5,0 	"/>
	<polygon class="st2" points="82.5,0 97.2,0 89.8,22.4 	"/>
	<polygon class="st3" points="69,40.8 83.8,40.8 70.4,0 55.6,0 	"/>
	<polygon class="st4" points="83.8,40.8 69,40.8 76.4,18.4 	"/>
	<polygon class="st5" points="56.9,40.8 42.2,40.8 55.6,0 70.4,0 	"/>
	<polygon class="st6" points="55.6,0 70.4,0 63,22.4 	"/>
	<polygon class="st1" points="168.8,73.9 163.4,73.9 163.4,52.7 160.4,52.7 160.4,73.9 157.4,73.9 157.4,52.7 154.5,52.7 
		154.5,73.9 146.5,73.9 146.5,76.5 168.8,76.5 171.4,76.5 171.4,73.9 	"/>
	<polygon class="st1" points="152.1,69.4 150.2,57.9 147.2,57.9 149.2,69.4 	"/>
	<polygon class="st1" points="170.7,57.9 167.7,57.9 165.7,69.4 168.7,69.4 	"/>
	<path class="st1" d="M96.4,52.7h-1.7h-7.8h-3v23.8h3h7.8h3V54C97.7,53.3,97.1,52.7,96.4,52.7 M94.7,73.9h-7.8v-8h7.8V73.9z
		 M94.7,63.3h-7.8v-8h7.8V63.3z"/>
	<path class="st1" d="M80.1,52.7h-1.7h-2.6h-3v23.8h3V55.3h2.6v6.3h-1.3v3h1.3v6h-1.3v3h1.3h0.9h0.8c0.7,0,1.3-0.6,1.3-1.3v-7.6v-3
		V54C81.4,53.3,80.8,52.7,80.1,52.7"/>
	<path class="st1" d="M133.2,52.7h-0.4h-1.3h-7.8h-3v23.8h3h7.8h2.6h0.4V54C134.5,53.3,133.9,52.7,133.2,52.7 M131.6,73.9h-7.8v-4.5
		h7.8V73.9z M131.6,66.8h-7.8v-4.5h7.8V66.8z M131.6,59.8h-7.8v-4.5h7.8V59.8z"/>
	<polygon class="st1" points="112.2,59.8 109.6,59.8 109.6,62.4 112.2,62.4 112.2,66.8 109.6,66.8 109.6,69.4 112.2,69.4 
		112.2,73.9 112.2,76.5 115.2,76.5 119.1,76.5 119.1,73.9 115.2,73.9 115.2,69.4 119.1,69.4 119.1,66.8 115.2,66.8 115.2,62.4 
		119.1,62.4 119.1,59.8 115.2,59.8 	"/>
	<polygon class="st1" points="110.8,57.9 119.1,57.9 119.1,55.3 113.4,55.3 116,52.7 112.2,52.7 109.6,55.3 109.6,55.3 109.6,57.9 
		109.6,57.9 	"/>
	<polygon class="st1" points="36,76.5 39.2,76.5 40.4,65.9 37.2,65.9 	"/>
	<rect x="36" y="52.7" class="st1" width="4.5" height="2.6"/>
	<rect x="36" y="59.8" class="st1" width="4.5" height="2.6"/>
	<path class="st1" d="M59.4,59.6v-3v-1.3c0-0.7-0.6-1.3-1.3-1.3h-0.8h-0.9h-6.8l1.3-1.3h-3.8l-4.6,4.6V61l1.5-1.5v0.1l4.5,2.2
		l-6,2.9v3l1.5-0.7v9.6h1.7h1.3h9.3h2.2h0.7v-9.6l1.5,0.7v-3l-6-2.9L59.4,59.6z M46.1,57.5l0.9-0.9h9.4V58l-4.7,2.2L46.1,57.5z
		 M56.4,73.9h-9.3v-5.4h9.3V73.9z M57.4,65.9h-1v0h-9.3v0h-1l5.6-2.7L57.4,65.9z"/>
</g>
</svg>
