<?xml version="1.0" encoding="utf-8"?>
<!-- Generator: Adobe Illustrator 26.0.3, SVG Export Plug-In . SVG Version: 6.00 Build 0)  -->
<svg version="1.1" xmlns="http://www.w3.org/2000/svg" xmlns:xlink="http://www.w3.org/1999/xlink" x="0px" y="0px"
	 viewBox="0 0 289.2 71.7" style="enable-background:new 0 0 289.2 71.7;" xml:space="preserve">
<style type="text/css">
	.st0{fill:#005781;}
	.st1{fill:#FFFFFF;}
	.st2{fill:#FFFFFF;stroke:#FFFFFF;stroke-width:0;stroke-linecap:square;stroke-miterlimit:2;}
</style>
<g id="Laag_2">
	<g>
		<path class="st0" d="M92.9,37.7c-0.7,3.8-3.4,6.1-7.3,6.1c-4.5,0-7.2-2.7-7.2-7.1c0-2.2,0.8-4.3,2.1-5.9c1.5-1.7,3.5-2.6,6-2.6
			c4.1,0,6.4,2.1,6.7,6h-4.4c0-1.5-0.9-2.4-2.3-2.4c-2,0-3.4,2-3.4,5.1c0,2.1,0.8,3.2,2.4,3.2c1.3,0,2.4-0.8,2.9-2.4H92.9z"/>
		<path class="st0" d="M94.6,39h4.4l-0.7,4.4h-4.3L94.6,39z"/>
		<path class="st0" d="M107.9,38.7C107.9,38.7,107.9,38.7,107.9,38.7c0,1.1,0.8,1.7,2.2,1.7c1,0,1.6-0.4,1.6-1.2
			c0-0.9-1-1.1-2.6-1.8c-2.9-1.3-4.5-2.4-4.5-4.7c0-2.8,2.1-4.5,5.9-4.5c3.8,0,6,1.8,6.3,4.8h-4.4c-0.1-1-0.7-1.5-1.9-1.5
			c-0.8,0-1.3,0.5-1.3,1c0,0.8,1.2,1.1,3.6,2.2c2.3,1,3.5,2.4,3.5,4.3c0,2.9-2.2,4.8-6.4,4.8c-4.3,0-6.6-2-6.6-5.1H107.9z"/>
		<path class="st0" d="M121.6,43.5c-2.1,0-3.2-0.9-3.2-2.5c0-0.3,0-0.7,0.1-1.2l0.7-4.9h-1.5l0.4-2.4h1.5l0.5-3.4h4.1l-0.5,3.4h1.7
			l-0.4,2.4h-1.7l-0.6,4.2c0,0.1,0,0.2,0,0.3c0,0.6,0.4,0.8,1.2,0.8c0.2,0,0.3,0,0.5,0l-0.5,3.1C123,43.5,122.2,43.5,121.6,43.5z"/>
		<path class="st0" d="M137.4,40.2c-0.7,2.3-2.8,3.6-5.9,3.6c-3.7,0-5.9-2.1-5.9-5.2c0-4,2.5-6.5,6.4-6.5c3.8,0,5.9,2,5.9,5.7
			c0,0.3,0,0.7-0.1,1.1h-8c0,0.1,0,0.1,0,0.2c0,1.3,0.7,2,1.9,2c0.8,0,1.4-0.3,1.6-0.9H137.4z M133.8,36.7c0-1.3-0.7-2-1.7-2
			c-1.1,0-1.8,0.7-2,2H133.8z"/>
		<path class="st0" d="M140.5,32.5h4.2l-1.6,10.9H139L140.5,32.5z M141.1,28.2h4.2l-0.4,3h-4.3L141.1,28.2z"/>
		<path class="st0" d="M147.1,32.5h3.8l-0.2,1.4c1-1.2,2.2-1.7,3.7-1.7c2.2,0,3.6,1.4,3.6,3.5c0,0.4,0,0.9-0.1,1.4l-0.9,6.3h-4.2
			l0.8-6.2c0-0.3,0.1-0.4,0.1-0.6c0-0.7-0.5-1.2-1.3-1.2c-1.1,0-1.6,0.7-1.9,2.1l-0.8,5.8h-4.2L147.1,32.5z"/>
		<path class="st0" d="M159.4,32.5h4l0.6,6.4l2.6-6.4h3.7l0.7,6.3l2.4-6.3h4.1l-4.7,10.9h-4.3l-0.8-6.6l-2.5,6.6h-4.2L159.4,32.5z"
			/>
		<path class="st0" d="M189.5,40.2c-0.7,2.3-2.8,3.6-5.9,3.6c-3.7,0-5.9-2.1-5.9-5.2c0-4,2.5-6.5,6.4-6.5c3.8,0,5.9,2,5.9,5.7
			c0,0.3,0,0.7-0.1,1.1h-8c0,0.1,0,0.1,0,0.2c0,1.3,0.7,2,1.9,2c0.8,0,1.4-0.3,1.6-0.9H189.5z M185.8,36.7c0-1.3-0.7-2-1.7-2
			c-1.1,0-1.8,0.7-2,2H185.8z"/>
		<path class="st0" d="M195,44.6c0.1,0.5,0.6,0.7,1.3,0.7c1.4,0,1.9-1,2.1-3.3c-0.8,0.8-1.8,1.2-2.9,1.2c-2.7,0-4.3-1.7-4.3-4.7
			c0-3.7,2.2-6.5,5.2-6.5c1.6,0,2.7,0.6,3.5,1.9l0.2-1.5h3.7l-1.3,9.7c-0.3,1.9-0.7,3.3-1.6,4.2c-1,1-2.6,1.5-4.8,1.5
			c-3.3,0-5.1-1.2-5.2-3.2H195z M195.4,38.3c0,1.2,0.6,1.9,1.7,1.9c1.3,0,2.1-1,2.1-2.9c0-1.3-0.6-2-1.8-2
			C196.2,35.3,195.4,36.4,195.4,38.3z"/>
		<path class="st0" d="M222.5,42.3c-1,1-2.4,1.5-4.1,1.5c-3.9,0-6.4-2.8-6.4-6.9c0-2.5,0.7-4.6,2-6.1c1.6-1.8,3.5-2.6,6-2.6
			c4.1,0,6.5,2,6.9,5.5h-4.4c-0.2-1.2-1.1-1.9-2.4-1.9c-2.1,0-3.5,2-3.5,5.2c0,2,0.9,3.1,2.6,3.1c1.1,0,2-0.6,2.6-1.7h-2l0.5-3h6.4
			l-1.2,7.9h-3L222.5,42.3z"/>
		<path class="st0" d="M229.3,32.5h3.9L233,34c0.8-1.3,1.8-1.9,3.1-1.9c0.2,0,0.3,0,0.5,0l-0.6,4.2c-0.4,0-0.7-0.1-1-0.1
			c-1.7,0-2.2,0.9-2.5,2.9l-0.6,4.2h-4.2L229.3,32.5z"/>
		<path class="st0" d="M243.2,32.1c3.6,0,5.8,2.1,5.8,5.3c0,4-2.4,6.5-6.5,6.5c-3.7,0-5.9-2.1-5.9-5.3
			C236.7,34.6,239.2,32.1,243.2,32.1z M241,38.6c0,1.4,0.5,2.1,1.6,2.1c1.3,0,2.1-1.3,2.1-3.5c0-1.5-0.5-2.2-1.6-2.2
			C241.8,35,241,36.3,241,38.6z"/>
		<path class="st0" d="M257.8,41.9c-1,1.2-2.2,1.8-3.7,1.8c-2.3,0-3.6-1.4-3.6-3.7c0-0.3,0-0.6,0.1-1l0.9-6.6h4.2l-0.8,5.8
			c0,0.2-0.1,0.5-0.1,0.8c0,0.8,0.5,1.3,1.4,1.3c1.1,0,1.6-0.6,1.8-2l0.9-5.9h4.2l-1.6,10.9h-3.8L257.8,41.9z"/>
		<path class="st0" d="M265.4,32.5h3.8l-0.2,1.3c0.9-1.1,2-1.7,3.4-1.7c2.7,0,4.3,1.9,4.3,5.1c0,4-2.2,6.6-5.1,6.6
			c-1.5,0-2.7-0.6-3.4-1.7l-0.8,5.5h-4.2L265.4,32.5z M268.7,38.5c0,1.3,0.6,2,1.6,2c1.3,0,2.1-1.2,2.1-3.3c0-1.3-0.6-1.9-1.6-1.9
			C269.6,35.2,268.7,36.4,268.7,38.5z"/>
	</g>
</g>
<g id="Laag_3">
	<g>
		<path d="M34.5,7.7c0.7,1.2,1.7,2.1,2.9,2.8c0.2,0.1,0.1,0.3,0,0.4c-1,0.3-1.1,1.3-1.6,2.1c0.1,0.5,0.7,0.6,1,1l0.8,1.5H49V58H6.7
			V15.5h7.9c0.5-0.6,0.8-1.3,1.1-2c1.3-0.7,1.2-3.6,3.3-2.5c3.2-2.8,7.2-3.8,11.5-4.1C31.7,6.6,33.5,6.6,34.5,7.7z"/>
		<path class="st1" d="M34.3,8.1c0.3,1,1.1,1.8,2,2.2c-0.5,0-1.2-0.1-1.6,0.3c-0.1,0.8,1.2,1.1,0.7,2c-0.9,0-1.5-1.3-2.6-0.7
			c-0.5,0.3-0.9,0.7-1.5,0.7c-0.1-0.4,0.2-1.1-0.3-1.3c-0.6-0.1-1,0.6-1.6,0.6c-0.2-0.3,0.2-0.7-0.3-0.9c-1.4,0-3.1,1.1-4.2-0.2
			c-0.6,0.3-0.5,2-1.7,1.2c-0.5,0.4-0.1,1.4-0.3,1.9c-0.3,0.8-1.1,1.5-1.8,2l-0.6-0.6c-0.5,0.2-0.5,0.8-1,1.1
			c-0.2-0.2,0.1-0.6-0.3-0.7c-1,0.2-1.5,1.9-2.6,1.5c0-0.2,0.4-0.5,0-0.6l-1,0.1c0.3-1.3,1.9-2,2.6-3.2c0.2-0.3,0.5-0.6,0.4-1
			c-0.5,0-1.1,0.4-1.3,0.9c-0.7,0.3-1.2,1.1-1.4,1.9l-1.1,1.4c0.2,0.4,0.7,0.3,0.7,0.7c0.3,1.5,0,3-1.3,4c-0.2,0.3-0.2,0.7-0.6,0.7
			c-0.2-0.7-0.3-1.5-0.7-2.2c0.3-2,1.4-3.7,2.5-5.4c-0.1-1.3,1.2-2,1.6-3.1c0.5,0,1,0.3,1.4,0.6c0.3-0.4,0.6-0.8,0.9-1.3
			c2.8-1.8,5.9-3.1,9.3-3.2c0.5,0.3,0.6,1.2,1.3,1.4c0.6,0,1.2-0.5,1.5-0.9c-0.4-0.4-1.3,0.1-1.4-0.6c0.9-0.6,2.1-0.1,3,0L34.3,8.1z
			"/>
		<path class="st1" d="M35.1,13c2.1,0.9,2.2,3.2,3.3,4.8c0.7,1.8,1.3,4.1,0.6,6c-0.2,0.1-0.6,0.3-0.8,0.1c-0.4-0.8-1.6-0.9-1.9-1.9
			c-0.4-2.2,0.6-4.8-0.8-6.7c-1.4,0.7-1.8-1.9-3-0.3h-0.1c-0.1-0.5,0.8-0.9,0.2-1.2c0.1-0.2,0.3-0.3,0.2-0.6
			c-0.1-0.1-0.4-0.1-0.2-0.3c0.1-0.1,0.2-0.2,0.3-0.3c0-0.2-0.2-0.4,0.1-0.5C33.8,12.1,34.5,12.6,35.1,13z"/>
		<path class="st1" d="M29.6,13.6c0.3,1,0.3,2.2-0.1,3.1c-0.8-0.8-0.4-2.3-1.7-2.6c-1-0.7-2.1,0.1-3,0.5c-1.1,1.6-0.6,3.6-0.4,5.4
			c-0.2,0-0.6-0.2-0.7-0.5c0.3-1.2-0.4-2.3-0.4-3.5c0.6-1.4,0.8-3.4,2.6-3.8C27.3,12.2,28.7,12.5,29.6,13.6z"/>
		<path class="st1" d="M27.9,14.7c0.5,0.4,0.4,1.1,0.5,1.7c-0.4-0.6-1.1-0.3-1.6-0.1l-0.2,0.2c0.1,0.3-0.2,0.7,0.1,1
			c0.1,0.2,0.4,0.3,0.3,0.5c-0.3,0.5-0.8-0.2-1,0.4l0.5,0.2L26.1,19c0.2,0.4,0.5,0,0.9,0.1c-0.1,0.1-0.1,0.2-0.2,0.2l0.4,0.4
			c-0.2,0.4-0.7,0-1-0.1c-0.7-0.2-0.4-1.3-1.3-1.3c-0.2-0.2-0.2-0.4-0.3-0.6c0.3-0.4,0.9-0.2,1.3-0.4c0,0.1,0.2,0.2,0.2,0.3
			c0.3-0.3,0-0.6,0-0.9c-0.3-0.5-0.8,0-1.2-0.1c-0.1,0.1-0.1,0.3-0.3,0.2l0.1-1.4C25.7,14.8,26.8,13.7,27.9,14.7z"/>
		<path class="st1" d="M35.5,16.7c0.3,1.1,0.5,2.3,0.2,3.4c-0.8,0.1-1,1.1-1.3,1.7c-0.5-0.6,0.4-1.3,0.4-2c-0.6-1.3-2.7-0.4-2.5-2.2
			c0.4-0.4,0.9-0.3,1.3-0.4C34.3,17.1,35.2,14.8,35.5,16.7z"/>
		<path class="st1" d="M48.3,52.2h-4.9v-5l-4.9-0.1V42l-5.2,0v-5.3l-1.9,0.1l-0.1-4.6c-0.6-0.3-0.9,0.2-1.5,0.4
			c-0.7,0.5-1.8,0.2-2.5-0.2C27.3,32,27.6,32,27.7,32c1.4,0,3.3,0,4-1.5c0.2-0.6-0.4-0.9-0.2-1.4c0.3-0.5,1.1-1,0.7-1.6L32,27.3
			c-0.7,0.5-1.4,1-2.2,1.1c0.7-1.3,2.4-0.7,3-2.2c0.5-0.5,1.1-1.4,1.9-1.6c0.9,0.6,1.9-0.1,2.7,0.3c0.4-0.6,1.3-0.1,1.8-0.6
			c1.3-2.7-0.2-5.6-1-8h10.1V52.2z"/>
		<path class="st1" d="M14.1,16.3c-0.4,1.5-1.6,3.1-0.9,4.9c0.4,0.4,0.1,1.2,0.9,1.3c1.1-0.2,2.1,0.9,3.2,0.2c1-0.2,2-0.3,2.8,0.3
			c0.4,0.7,0.3,1.5,0.2,2.3c-1,0.5-0.5,1.6-1.3,2.1c0.1,0.9,1.1,0.4,1.6,0.7c0.3,0.2,0.7,0.2,0.7,0.6c-0.8,0.1-1.6-0.2-2.3-0.5
			c-0.9,0-0.4,1.1-1,1.5c-0.1,0.3,0.1,0.5,0.3,0.7c0.8,0,1.3-0.7,2-0.9c0.9-0.2,1.8,0,2.6,0.1c0.2,0.9,1.3,1.6,1.9,2.3
			c0.2,1.3,1.4,2.1,2.2,3c-2.4,0.1-1.4-3.1-3.5-3.4c-0.5,0.5,0.5,0.8,0.6,1.3c0.1,0.4,0.3,0.7,0.3,1.2c-0.6-1-1.4-2-1.8-3.1
			c-0.3-0.2-0.7-0.5-1.1-0.2c1.1,1.5,1.6,3.3,2.5,4.9c0.1,2-1.9,3.5-1,5.5c-0.2,0.6-0.1,1.5-0.8,1.7c-1.2,0.4-0.6-1.1-1.2-1.5
			c-1.8-1.8-0.7-4.9-2.2-6.9c-0.1-1.3,0.7-2.5,0-3.7c-0.6,0.2-0.3,1.1-0.6,1.5c-0.2,1.6-0.7,3.2-0.4,4.8h-0.9L16.8,42h-4.7l0,10.2
			l-4.8,0V16.3H14.1z"/>
		<path class="st1" d="M28.9,17c0,0.4-0.2,0.8-0.6,1c-0.4,0.2-0.8,0-0.9-0.4c-0.2-0.5,0.4-0.7,0.7-1C28.3,16.8,28.9,16.4,28.9,17z"
			/>
		<path class="st1" d="M30.9,19.1c-0.2,0.2-0.2,1-0.7,0.6c-0.3-0.6-0.1-1.3,0.1-1.9C30.6,18.2,31.1,18.7,30.9,19.1z"/>
		<path class="st1" d="M19.2,18.9c0.6,0.3,1.1,0,1.7,0.2c1,1.2,1.6,2.5,2.3,3.8c0.6,0.6,1.4,1.1,2.2,1c0.1-0.8-0.8-1.3-0.8-2.1
			c0.7,0.2,1.1,1.3,2,0.9c0.8-0.4,1.5-1.2,2-1.9c0.1,1.3-1.2,2.4-2.2,3.1c0,0.2,0.1,0.4,0.3,0.5c1.5,0.1,2.4-1.5,3.4-2.4
			c0.1,0.4-0.3,0.6-0.4,1c0.2,0.4,0.2,0.8-0.3,0.9c-0.5,0.5-1.8,0.5-1.5,1.4c0.5,0.3,1.2,0,1.7-0.3c1.2-0.5,1.9-1.8,2.8-2.6
			c-0.1,1.2-0.9,2.2-1.7,3.2c-1.1,0.3-2.1,0.9-3.3,1c-0.8-1.5-3.2,0.1-3.8-1.8c-0.8-1.4-1-3.3-2.5-4.3c-0.4-0.4-0.6-1.2-1.3-1.2
			c-0.7,0.8,0.7,1.5,0.4,2.4c-1.5-0.4-0.9-2.5-2.5-2.7c-0.5,0.5,0.5,1,0.3,1.7L18,20.6c-0.4-0.6-0.4-1.6-1.2-2
			c-0.1-0.2-0.1-0.5,0.1-0.6C17.6,18.3,18.7,17.9,19.2,18.9z"/>
		<path class="st1" d="M16.9,21.2c-0.1,0.1-0.2,0.2-0.3,0.1c-0.4-0.5,0-1,0.1-1.5C17.1,20.1,17.2,20.8,16.9,21.2z"/>
		<path class="st1" d="M26.9,20.9c-0.5,0.3-0.8-0.4-1.1-0.7V20C26.3,20.2,27,20.4,26.9,20.9z"/>
		<path class="st1" d="M36.3,24.1c-0.3-0.1-0.5-0.4-0.7-0.6l0.1-1.1h0.1L36.3,24.1z"/>
		<path class="st1" d="M25.4,28c0.4,0.3,1,0.4,1.2,0.8c-0.4,0.4-0.8,0.2-1.2,0.1c-2-1-2.6-3.1-3.3-4.8C22.8,25.5,23.6,27.4,25.4,28z
			"/>
		<path class="st1" d="M22.6,27.3c0.3,0.6,0.8,1.2,0.6,1.8h-0.1c-0.2-1.3-1.6-1.8-2.6-2.3c-0.1-0.2-0.3-0.5-0.1-0.7
			C21.3,25.7,22.1,26.6,22.6,27.3z"/>
		<path class="st1" d="M26.8,30.7c0,0.2-0.1,0.5-0.3,0.4c-0.6-0.1-1.2-0.4-1.5-1.1l0.1-0.1C25.6,30.2,26.3,30.1,26.8,30.7z"/>
		<path class="st1" d="M30.1,36.8C30,37,29.9,37.3,30,37.5c1.1,0.1,0.5,1.5,0.5,2.2c0,0.2-0.2,0.4-0.1,0.7c0.1,0.3,0.5,0.2,0.7,0.1
			l0.1-0.1c0,1-0.8,2-0.9,3c0.5,0.1,0.5,0.8,0.4,1.2c-0.2,0.3-0.3,0.9-0.8,0.7c-1.5-0.2-0.2-1.6-0.7-2.5c-1-2,0.9-4.1-0.4-6
			c-0.1-0.3-0.4-0.5-0.4-0.9c0.5-0.1,0.6,0.9,1.1,0.5c-0.2-0.8-1-1.4-1.1-2.1C29.1,34.9,30.4,35.7,30.1,36.8z"/>
		<path class="st1" d="M24.9,39c0.8,1.7,1.1,3.6,2,5.3c0.4,3.2,0.6,6.3-0.2,9.4c0.1,0.1,0.2,0.1,0.3,0.1l0.5-0.5
			c0.2,0.7,0.2,1.6-0.2,2.2c-0.5,0.1-1,0.3-1.2,0.8c-0.1,0.3,0.1,0.6,0.4,0.6c0.5,0,0.6-0.3,1-0.6c0.1,0.2,0.2,0.3,0.1,0.5
			c-0.8,1-2.4,0.4-3.6,0.6c-0.1-1.1,1.9-0.5,1-1.7c-0.4-1.3-1.3-2.6-0.9-4.1c-0.4-2.9-0.5-6,0.1-8.9c-0.2-0.4,0.1-1-0.2-1.3
			c0.2-1.8,1.2-3.4,1.8-5.1h0.2L24.9,39z"/>
		<path class="st1" d="M32.5,42h-0.3c0.2-0.8,0.1-1.8-0.4-2.5c0.4-0.6,0-1.4,0.2-2h0.5V42z"/>
		<path class="st1" d="M18.1,37.6c1.2,1.7-0.8,2.9-0.1,4.7c0.6,0.9,1.7,1.7,1.8,2.8c1.2,0,1.4,1.3,1.8,2.1c0,1.2,0.6,2.4-0.1,3.4
			c-0.1,1.1,0.6,2,0.9,2.9c-0.3,0.8-1.5,0.2-2.2,0.5c-0.3,0.2-0.7,0.5-1,0.8c0.6,0.5,1.6,0,2.3,0.2c0.5,0.2,1.1,0.4,0.8,1
			c-0.9,0.6-2.1,0.3-3.1,0.8c-0.1-0.4-0.1-0.8,0.3-1.1l-0.2-0.2c-0.5,0.3-1.1,0.3-1.5,0.9c-0.3,0.5,0.4,0.5,0.7,0.8l-11.2,0v-4.1
			l0.2-0.1h5.2l0-10.3l4.7,0l0.1-5.2L18.1,37.6z"/>
		<path class="st1" d="M19.7,42.2l1.1,1.1c-0.5-0.1-0.9-0.5-1.4-0.7c-0.4-0.4-0.7-1-0.7-1.5c0.1-0.1,0.1-0.2,0.2-0.1L19.7,42.2z"/>
		<path class="st1" d="M32.5,47h-0.4c0.1-1.4-0.2-2.9,0.1-4.1h0.3V47z"/>
		<path d="M19.1,44.8c0.1,1.2-0.1,2.5-0.4,3.5c0.4,1.3,1.2,2.6,1,4c-0.3,1.1-0.8,2.1-1.5,3.1c-0.4,0.1-0.4-0.3-0.4-0.5
			c-0.1-1.9,0.9-3.5,0.4-5.4c-0.6-1.7-0.1-3.7-0.2-5.5C18.2,42.1,18.8,44.5,19.1,44.8z"/>
		<path class="st1" d="M37.8,52.3l-5.5,0c-0.8-1.2-0.1-2.9-0.3-4.4h5.9V52.3z"/>
		<path class="st1" d="M31.9,53h10.8v4.2l-11.3,0.1c0.4-0.4,0.8-0.9,1.2-1.4c-0.1-0.4,0-0.8-0.4-1.1c-0.5,0-0.4,0.6-0.5,0.9
			c-0.4,0.1-0.7-0.4-1.1-0.6c0-0.4,0.2-0.7,0.5-0.9c-0.1-1.1-0.6-2.2-0.4-3.3C31.2,51.8,31.9,53,31.9,53z"/>
		<path class="st1" d="M30.6,56.4c-0.6,0.4-1.4-0.2-2.2,0c-0.2-0.2-0.1-0.6-0.1-0.9C29.3,55.2,30.2,55.7,30.6,56.4z"/>
		<path class="st2" d="M23.6,55.9c0,0.1,0.1,0.2-0.1,0.3c-0.1,0.1-0.2-0.1-0.2-0.1C23.2,55.8,23.5,55.7,23.6,55.9z"/>
		<g>
			<g>
				<path d="M18.6,59.2h0.7l1.7,4.4h-0.7l-0.5-1.3H18l-0.5,1.3h-0.6L18.6,59.2z M18.2,61.8h1.5l-0.7-2.1h0L18.2,61.8z"/>
				<path d="M28,63.7h-0.5v-3.2h-1.1v-0.4c0.6,0,1.1-0.2,1.3-0.8H28V63.7z"/>
				<path d="M30.5,59.3c1,0,1.3,0.6,1.3,1.1c0,0.4-0.2,0.8-0.6,0.9c0.5,0.2,0.8,0.6,0.8,1.1c0,0.9-0.6,1.3-1.5,1.3
					c-0.8,0-1.5-0.4-1.5-1.3c0-0.5,0.3-0.9,0.8-1.1c-0.4-0.1-0.6-0.5-0.6-0.9C29.2,59.7,29.8,59.3,30.5,59.3z M30.6,63.3
					c0.5,0,0.9-0.4,0.9-0.9c0-0.5-0.4-0.8-0.9-0.8c-0.5,0-0.9,0.3-0.9,0.8C29.6,62.9,30,63.3,30.6,63.3z M30.6,61.1
					c0.4,0,0.7-0.3,0.7-0.7c0-0.4-0.3-0.7-0.7-0.7c-0.4,0-0.8,0.2-0.8,0.7C29.8,60.9,30.1,61.1,30.6,61.1z"/>
				<path d="M34.9,62.2h0.6v0.5h-0.6v1h-0.5v-1h-1.9v-0.5l2-2.9h0.4V62.2z M34.4,62.2V60h0l-1.5,2.2H34.4z"/>
				<path d="M38.6,59.8c-0.9,0.9-1.6,2.5-1.7,3.9h-0.6c0.1-1.5,0.8-2.8,1.7-3.8h-2.3v-0.5h2.8V59.8z"/>
			</g>
			<path d="M21.7,59.2c0.7,0,1.1,0.5,1.1,1.2c0,0.7-0.4,1.2-1.1,1.2c-0.7,0-1.1-0.5-1.1-1.2C20.6,59.7,21,59.2,21.7,59.2z
				 M21.7,61.2c0.4,0,0.7-0.3,0.7-0.8c0-0.5-0.3-0.8-0.7-0.8c-0.4,0-0.7,0.3-0.7,0.8C21,60.9,21.3,61.2,21.7,61.2z"/>
		</g>
		<g>
			<path class="st1" d="M47.6,53.5c0.4,0.4,0.7,1,0.7,1.6c0,0.6-0.2,1.2-0.7,1.6c-0.5,0.4-1.1,0.7-1.7,0.7c-0.6,0-1.2-0.2-1.6-0.7
				c-0.4-0.4-0.7-1-0.7-1.6c0-0.6,0.3-1.2,0.7-1.7c0.4-0.4,1-0.7,1.6-0.7C46.6,52.8,47.1,53.1,47.6,53.5z M47.4,53.7
				c-0.4-0.4-0.9-0.6-1.4-0.6c-0.5,0-1,0.2-1.4,0.6c-0.4,0.4-0.6,0.9-0.6,1.5c0,0.5,0.2,1,0.6,1.4c0.4,0.4,0.9,0.6,1.4,0.6
				c0.6,0,1.1-0.2,1.5-0.6c0.4-0.4,0.6-0.9,0.6-1.4C48,54.6,47.8,54.1,47.4,53.7z M47.1,54.5c0,0.4-0.2,0.6-0.6,0.7l0.6,1.2h-0.6
				L46,55.3h-0.5v1.1H45v-2.7h1C46.7,53.8,47.1,54,47.1,54.5z M45.5,54.1V55h0.4c0.5,0,0.7-0.1,0.7-0.4c0-0.3-0.2-0.5-0.7-0.5H45.5z
				"/>
		</g>
	</g>
</g>
</svg>
