<svg width="527" height="8" viewBox="0 0 527 8" fill="none" xmlns="http://www.w3.org/2000/svg">
<path d="M0.646447 3.64645C0.451184 3.84171 0.451184 4.15829 0.646447 4.35355L3.82843 7.53553C4.02369 7.7308 4.34027 7.7308 4.53553 7.53553C4.7308 7.34027 4.7308 7.02369 4.53553 6.82843L1.70711 4L4.53553 1.17157C4.7308 0.976311 4.7308 0.659728 4.53553 0.464466C4.34027 0.269204 4.02369 0.269204 3.82843 0.464466L0.646447 3.64645ZM526.354 4.35355C526.549 4.15829 526.549 3.84171 526.354 3.64645L523.172 0.464466C522.976 0.269204 522.66 0.269204 522.464 0.464466C522.269 0.659728 522.269 0.976311 522.464 1.17157L525.293 4L522.464 6.82843C522.269 7.02369 522.269 7.34027 522.464 7.53553C522.66 7.7308 522.976 7.7308 523.172 7.53553L526.354 4.35355ZM1 4V4.5H6.96591V4V3.5H1V4ZM18.8977 4V4.5H30.8295V4V3.5H18.8977V4ZM42.7614 4V4.5H54.6932V4V3.5H42.7614V4ZM66.625 4V4.5H78.5568V4V3.5H66.625V4ZM90.4886 4V4.5H102.42V4V3.5H90.4886V4ZM114.352 4V4.5H126.284V4V3.5H114.352V4ZM138.216 4V4.5H150.148V4V3.5H138.216V4ZM162.08 4V4.5H174.011V4V3.5H162.08V4ZM185.943 4V4.5H197.875V4V3.5H185.943V4ZM209.807 4V4.5H221.739V4V3.5H209.807V4ZM233.67 4V4.5H245.602V4V3.5H233.67V4ZM257.534 4V4.5H269.466V4V3.5H257.534V4ZM281.398 4V4.5H293.33V4V3.5H281.398V4ZM305.261 4V4.5H317.193V4V3.5H305.261V4ZM329.125 4V4.5H341.057V4V3.5H329.125V4ZM352.989 4V4.5H364.921V4V3.5H352.989V4ZM376.852 4V4.5H388.784V4V3.5H376.852V4ZM400.716 4V4.5H412.648V4V3.5H400.716V4ZM424.58 4V4.5H436.511V4V3.5H424.58V4ZM448.443 4V4.5H460.375V4V3.5H448.443V4ZM472.307 4V4.5H484.239V4V3.5H472.307V4ZM496.171 4V4.5H508.102V4V3.5H496.171V4ZM520.034 4V4.5H526V4V3.5H520.034V4Z" fill="white"/>
</svg>
