<svg width="774" height="693" viewBox="0 0 774 693" fill="none" xmlns="http://www.w3.org/2000/svg">
<path fill-rule="evenodd" clip-rule="evenodd" d="M771.826 36.0976C769.978 35.379 769.568 34.0445 769.516 32.3508C769.516 31.6836 769.311 31.0163 769.26 30.4004C767.771 28.8093 765.667 27.8341 765.256 25.7297C767.617 23.3688 767.617 23.3688 767.977 21.8803C768.131 21.2644 768.233 20.4945 768.028 19.9299C767.207 18.0309 766.232 16.2345 765.102 14.0788C761.972 13.1549 758.533 12.1797 755.145 11.1532C753.195 12.4364 751.244 13.6682 749.448 14.9513C749.089 15.2079 749.089 15.8752 748.986 16.2345C750.577 18.2362 752.066 20.0839 754.016 22.4962C752.271 22.5989 751.244 22.6502 750.423 22.6502C748.319 20.1866 746.522 17.7742 744.367 15.7212C743.289 14.6947 741.441 13.5655 740.158 13.7195C737.13 14.1301 734.563 12.693 731.689 12.7443C728.764 12.7443 725.889 12.385 723.015 11.8718C720.962 11.5125 718.601 12.385 716.548 11.9744C714.495 11.5638 712.75 10.1267 710.492 9.76742C706.334 9.20283 702.228 8.53561 697.968 8.43296C695.145 8.38163 692.579 8.79224 689.961 9.7161C687.754 10.486 685.445 10.9992 683.135 11.4099C681.185 11.7691 679.183 11.9231 676.925 12.2311C677.592 14.9513 678.208 17.1583 680.825 18.7494C682.776 19.9299 684.264 21.7777 685.804 23.4714C686.779 24.4979 686.574 25.6784 685.393 26.6536C684.623 27.2695 683.597 27.6288 682.416 28.296C680.723 25.8837 678.516 24.6519 675.59 24.2413C673.383 23.9334 672.665 22.2909 673.075 19.9813C673.178 19.468 673.434 19.0061 673.383 18.4928C673.28 17.107 671.946 16.1318 670.303 16.1318C668.969 16.1318 668.199 16.953 668.302 18.5955C668.404 20.1866 668.507 21.675 667.532 23.3175C662.297 25.1652 655.984 24.0873 651.056 27.8854C650.646 29.3739 650.235 30.965 649.825 32.3508C647.31 32.9667 647.002 29.9385 644.743 30.4004C642.998 30.7597 641.15 30.4517 639.149 30.4517C638.687 29.3226 638.225 28.45 637.917 27.4748C636.634 23.2148 633.041 21.1617 629.243 19.4167C627.241 18.4928 624.983 18.4415 622.827 19.2114C618.772 20.7512 614.615 22.137 611.073 24.7546C609.944 25.6271 608.661 26.3457 607.378 26.9616C606.403 27.4235 604.863 27.4748 604.453 26.397C603.426 23.5741 600.603 23.5741 598.601 22.4449C596.6 23.5228 596.6 23.1635 594.649 23.0608C592.288 22.9582 590.44 21.5724 588.182 21.4697C587.977 21.4697 587.823 20.9564 587.618 20.5972C588.08 19.7759 588.541 18.9034 589.106 17.8769C588.49 17.3123 588.08 16.6964 587.515 16.3885C583.717 14.5921 579.97 14.9513 576.737 17.3636C575.299 18.4415 574.016 18.9547 572.271 18.8008L572.374 18.9034C570.269 17.261 567.857 17.8769 565.547 17.9796C560.979 18.1849 556.463 18.4415 551.895 18.7494C551.689 18.7494 551.536 19.2114 551.33 19.4167C552.254 20.1352 553.178 20.8538 554.256 21.675C552.819 22.7529 551.69 23.5227 550.663 24.4466C549.893 25.1652 550.355 26.551 551.433 26.9616C552.049 27.1669 552.767 27.0642 553.537 27.1155C553.999 29.9385 556.309 31.4782 557.9 33.4286C557.643 33.8906 557.489 34.2499 557.284 34.5065C556.514 35.3277 555.693 34.8658 554.769 34.7631C554.153 34.6605 553.229 34.9171 552.921 35.3277C552.613 35.7383 552.767 36.6622 553.127 37.1241C553.589 37.7913 554.769 38.3559 553.64 39.1258C553.075 39.4851 551.895 39.3311 551.125 39.0745C550.355 38.7665 549.739 38.0993 549.123 37.586C543.221 36.4055 543.221 36.4055 540.449 40.5116C538.088 40.8709 535.573 41.3328 533.11 40.0497C532.648 39.793 531.878 40.0497 531.005 40.101C531.364 43.6938 534.187 46.3627 533.52 50.1095C532.494 50.1609 531.364 50.4688 530.441 50.1609C528.747 49.5963 527.002 48.8777 525.616 47.8512C523.306 46.0548 520.791 44.823 518.02 43.7965C516.891 43.3858 516.018 42.462 514.786 41.5381C516.121 40.9735 517.044 40.6143 517.866 40.255C517.763 37.2781 515.813 36.3542 513.093 36.1489C513.144 32.7101 510.783 30.8623 508.37 29.3739C506.163 27.9881 503.392 26.4996 500.672 27.5261C498.772 28.2447 497.335 28.2447 495.539 27.6802C492.716 26.8589 490.15 27.1669 488.148 30.0411C488.815 31.119 489.585 32.2995 490.201 33.48C490.56 34.1985 490.612 35.0197 490.868 35.7896C488.713 36.6108 486.916 37.432 485.017 38.048C483.837 38.4072 482.4 38.9205 481.322 38.6639C479.525 38.2019 477.832 38.3559 476.035 38.5099C473.418 38.7152 473.007 38.3046 471.929 35.4817C471.775 35.0197 471.416 34.6604 471.057 34.0445C467.618 34.6091 464.179 35.0711 460.843 35.7383C458.687 36.2002 456.685 37.1241 455.71 39.2285C455.608 39.3824 455.197 39.4338 454.94 39.4851C454.376 38.8179 453.811 38.1506 453.452 37.74C452.836 37.74 452.579 37.6887 452.477 37.74C450.321 39.4851 448.165 40.255 445.65 38.1506C444.316 37.0214 442.622 37.1754 440.98 37.5347C440.158 38.5612 439.543 39.6391 440.723 40.7682C441.698 40.6143 442.622 40.5116 443.803 40.3576C441.339 45.2336 438.927 47.5946 434.41 49.9556C432.665 50.8281 436.052 52.2139 433.897 53.0351C433.64 52.8298 433.178 52.6245 433.127 52.4192C432.665 49.1343 432.922 46.0035 435.334 43.2832C435.796 42.7699 436.155 42.1027 436.258 41.4868C436.668 37.0214 437.951 32.7614 439.645 28.604C440.415 26.705 440.826 24.6519 441.339 22.6502C441.75 21.0591 441.339 19.622 440.569 18.1335C439.85 16.7991 438.516 16.9017 437.335 16.4911C436.925 16.3371 436.617 15.8239 436.206 15.3619C437.079 14.9513 437.797 14.5407 438.824 14.0275C437.027 12.4364 435.385 10.9992 433.743 9.61345C433.127 10.0754 432.665 10.3833 431.998 10.8452C429.534 7.30376 425.274 6.58522 421.527 4.73749C418.858 6.02064 416.292 7.20112 413.828 8.38161C413.726 9.81874 413.88 11.0506 413.469 12.1284C413.212 12.7443 412.083 13.2063 411.262 13.3089C410.851 13.3602 409.979 12.539 409.876 12.0258C409.62 10.6913 409.722 9.3055 409.568 7.9197C409.363 6.22595 408.336 5.50738 406.591 5.76401C404.487 6.07196 402.331 6.43122 400.278 6.73918C400.124 6.32857 400.022 6.17461 400.022 6.02064C400.638 1.45264 400.638 1.40131 396.275 0.374793C395.762 0.272141 395.197 0.169471 394.684 0.0668191C392.836 -0.18981 391.809 0.272135 391.142 1.81191C390.732 2.7871 390.475 3.76229 390.218 4.7888C390.013 5.61002 389.756 6.48257 389.705 7.30378C389.654 8.3303 389.705 9.35682 389.808 10.3833C389.91 11.4099 389.962 12.4877 390.424 13.4115C390.886 14.2841 391.861 14.9513 392.528 15.7725C393.041 16.4398 393.247 17.3123 393.709 18.0309C394.222 18.8008 395.813 18.0309 396.172 19.2114C393.76 20.3406 390.834 19.0574 388.884 21.1618C389.962 22.137 390.886 23.0095 391.809 23.882C391.861 23.882 391.963 23.882 392.015 23.882L391.912 23.9847C391.861 23.9334 391.861 23.9334 391.809 23.882C389.859 23.728 388.011 23.5741 386.831 25.7297C385.753 27.6801 383.546 28.1934 381.134 28.6553C381.134 27.2695 381.134 25.9864 381.134 24.8059C379.081 24.2926 378.721 25.4731 378.465 26.7049C373.64 28.0394 373.64 28.0394 371.587 30.1438C371.998 30.811 372.408 31.5296 372.819 32.2481C371.484 33.8392 369.637 34.7631 367.84 35.379C365.582 36.1489 364.401 37.894 362.862 39.2798C361.579 40.4603 360.757 42.0514 359.782 43.4885C359.526 43.8478 359.372 44.4637 359.526 44.8743C360.398 47.5433 358.55 48.4671 355.779 49.2883C356.908 50.1609 357.626 50.6741 358.294 51.1874H358.191C358.602 51.9573 358.961 52.7272 359.372 53.4971C361.835 54.7289 364.863 55.2935 366.762 57.9624C365.89 59.0916 365.069 60.1694 364.247 61.2472C364.145 61.3499 363.837 61.2986 363.58 61.3499C363.683 60.3234 363.786 59.3995 363.888 58.4243C363.17 58.3217 362.708 58.1677 362.451 58.2703C357.678 60.426 352.853 62.4277 347.772 63.8135C346.027 64.2755 345.411 66.0206 346.232 67.6117C347.259 69.6134 348.593 71.4611 349.568 73.4628C350.338 75.0026 351.313 75.9778 353.212 76.1317C354.65 76.2344 356.241 76.0291 357.165 77.4149C358.345 79.1086 360.09 79.8785 362.04 80.4944C363.272 80.8537 364.504 81.5723 364.658 82.9068C364.966 85.5757 366.608 87.68 367.943 89.8871C366.455 90.7596 365.12 91.5295 363.837 92.2994C362.913 89.5791 361.425 87.0128 362.708 83.9333C363.17 82.8041 361.681 81.6749 360.141 82.1369C357.164 83.0607 355.009 82.1882 352.597 80.4944C350.133 78.8007 347.31 77.3122 344.025 77.5689C342.537 77.6715 341.664 78.3901 341.613 80.0838C342.075 80.3918 342.793 80.6998 343.204 81.213C343.563 81.6749 343.871 82.4962 343.717 83.0094C343.461 83.9846 342.485 84.2412 341.51 83.9333C340.638 83.6766 339.868 83.1634 338.995 82.9581C338.533 82.8554 337.712 83.0094 337.558 83.3174C337.25 83.8306 337.045 84.6518 337.301 85.1651C338.225 87.2695 340.124 88.142 342.331 88.8092C343.82 89.2198 345.668 88.6039 347.156 90.5543C343.409 90.4003 340.073 91.2216 336.634 89.7844C335.3 87.3208 333.503 84.9598 333.144 81.8802C332.939 80.2891 332.323 78.6981 330.116 76.953C330.68 78.852 331.091 79.7759 331.194 80.7511C331.245 81.7263 331.348 83.0094 330.783 83.728C328.833 86.2429 329.192 88.8606 329.449 90.2977C331.296 92.4021 332.169 93.8391 333.401 94.763C335.3 96.2001 336.121 97.8426 336.018 100.101C335.916 104.053 337.712 107.338 340.073 110.366C341.818 110.52 343.255 110.417 344.384 109.34C345.77 108.005 347.259 108.056 348.901 108.724C349.928 109.134 350.851 109.75 351.929 109.955C354.085 110.417 355.265 111.906 356.703 113.24C358.242 114.677 356.446 116.217 357.165 117.603C357.165 117.603 357.216 117.603 357.216 117.654V117.706C357.216 117.654 357.165 117.654 357.165 117.603C356.343 116.987 355.419 116.474 354.752 115.755C353.058 114.01 351.467 112.162 349.979 110.469C347.721 110.828 346.283 111.957 344.949 113.086C343.512 114.318 343.255 115.858 344.641 117.141C347.002 119.399 347.669 121.709 346.181 124.583C345.822 125.302 346.181 126.277 346.027 127.098C345.873 128.125 345.668 129.151 345.206 130.075C344.179 132.026 342.999 133.873 341.869 135.875C338.328 135.362 334.53 135.978 331.348 133.822C332.271 133.771 333.247 133.719 333.657 132.693C334.325 132.898 335.043 132.949 335.659 133.257C336.891 133.925 338.02 133.565 338.379 132.539C339.919 128.227 342.28 123.967 340.381 119.091C339.97 118.014 340.022 116.731 339.868 115.447C336.172 113.805 334.581 110.777 333.452 107.389C332.477 104.618 331.296 101.846 330.526 99.0231C329.962 96.9187 329.038 94.8657 327.242 93.7878C324.624 92.1967 324.419 90.041 324.265 87.5774C324.059 84.4978 324.059 81.367 322.366 78.8007C318.465 76.645 314.718 77.2096 310.817 78.2874C310.099 80.8537 310.458 83.42 310.663 85.9863C310.92 88.9632 310.971 91.6835 308.97 94.3524C307.738 95.9948 307.584 98.2532 309.585 99.9983C311.587 101.743 312.408 104.053 312.152 106.517C311.946 108.621 312.922 110.007 314.769 110.52C316.874 111.085 318.208 112.316 319.645 113.6C320.672 114.523 322.006 115.191 323.187 115.961C323.597 117.449 323.854 118.937 322.366 120.683C318.978 117.808 314.975 116.217 310.971 114.729C309.637 114.216 307.994 114.113 306.917 113.292C302.041 109.648 296.6 110.725 291.262 111.239C289.26 114.831 293.469 116.115 293.931 118.681C293.674 120.734 290.8 121.042 290.698 123.249C290.646 123.762 289.209 123.608 288.85 123.095C288.131 121.966 288.798 120.169 286.848 119.656C286.54 119.707 286.13 119.707 285.822 119.861C282.896 121.145 280.484 123.454 276.891 123.249C276.121 123.198 275.094 124.327 274.427 125.097C273.195 126.431 271.758 126.79 269.911 126.123C269.757 125.148 269.705 124.121 269.397 123.198C269.089 122.12 267.55 121.76 266.78 122.633C265.291 124.429 263.341 125.302 261.031 125.867C259.389 126.226 258.208 127.304 257.028 128.484C254.923 130.64 252.665 132.59 250.201 134.9C250.201 134.849 250.099 135.156 249.996 135.516C249.893 135.824 249.893 136.183 249.791 136.542C248.816 140.186 245.326 141.264 242.451 138.647C241.425 137.723 240.039 137.004 240.142 134.951C241.168 133.976 242.4 132.795 243.632 131.666C241.733 127.92 238.961 126.328 234.701 127.406C234.393 127.458 234.085 127.458 233.726 127.509C234.906 130.178 236.036 132.847 235.522 135.824C235.317 137.056 235.779 138.082 236.805 139.057C238.961 141.008 238.653 143.266 237.319 145.678C234.958 145.268 232.853 144.908 230.595 144.498C228.285 147.423 224.538 149.066 223.358 153.121C224.025 154.096 224.949 155.225 225.462 156.457C225.719 157.124 225.462 158.099 225.154 158.818C224.744 159.69 223.717 159.844 222.793 159.485C220.432 158.51 218.123 157.483 215.813 156.508C215.043 156.2 214.171 155.995 213.042 155.584C212.58 156.713 211.81 157.74 212.015 158.561C212.169 159.434 213.093 160.357 213.965 160.871C214.838 161.435 216.07 161.487 216.994 162C217.507 162.308 217.917 163.078 217.969 163.642C218.071 164.669 217.096 165.439 216.275 165.336C214.684 165.182 213.093 164.669 211.656 164.053C210.065 163.386 208.576 162.411 206.831 161.435C206.318 160.203 205.907 158.715 205.137 157.329C204.367 155.892 203.854 154.558 204.008 152.915C204.213 150.554 202.828 149.271 200.518 148.296C198.106 147.321 196.001 145.73 194.77 143.112C195.488 143.112 195.847 143.009 196.155 143.112C201.288 145.37 206.626 146.961 212.169 148.039C214.735 148.553 217.199 148.45 219.765 147.783C223.409 146.859 225.154 144.395 226.078 141.264C226.489 139.878 226.232 138.595 225.308 137.363C223.512 134.797 220.843 133.257 218.071 132.026C215.249 130.742 212.528 129.408 210.065 127.663C205.651 124.532 200.775 123.146 195.18 123.813C193.846 123.967 192.409 123.506 191.074 123.352C191.074 122.325 191.228 121.606 191.023 121.042C190.869 120.683 190.253 120.272 189.791 120.169C189.175 120.067 188.2 120.067 187.841 120.426C186.198 122.017 184.299 120.631 182.605 120.991C180.552 121.401 179.526 120.375 178.602 118.681C180.912 118.373 183.324 118.168 184.145 115.396C181.887 113.651 179.166 113.035 176.498 112.47C175.625 113.497 175.009 114.216 173.777 115.601C173.675 113.856 173.726 112.881 173.521 112.009C173.418 111.444 173.11 110.674 172.648 110.417C171.673 109.904 170.852 110.52 170.39 111.29C169.928 112.009 169.928 112.932 169.569 113.702C169.312 114.216 168.799 114.677 168.388 115.191C167.669 114.421 167.259 113.959 166.592 113.24C165.616 114.883 164.744 116.32 163.769 117.962C162.537 115.755 164.333 114.267 164.539 112.47C162.691 112.008 161.1 112.06 159.971 113.908C159.457 114.78 158.585 115.447 157.969 116.269C157.25 117.192 156.686 118.168 156.172 118.835C153.965 118.63 152.272 117.038 150.219 118.424C150.681 119.348 151.091 120.067 151.451 120.785C147.344 122.53 147.344 122.53 143.136 122.633C142.982 122.633 142.879 122.684 142.725 122.684C142.161 123.095 141.647 123.506 141.083 123.865C140.826 123.967 140.569 124.121 140.313 124.224C140.569 124.173 140.877 124.121 141.134 124.07C140.364 125.507 139.389 125.969 137.644 125.148C136.412 124.583 135.129 125.969 135.642 127.15C135.847 127.612 136.258 127.971 136.617 128.279C137.746 129.203 137.541 130.075 136.566 130.845C135.796 131.461 134.924 131.974 134.102 132.539C134.77 133.206 135.437 133.822 136.104 134.489C132.973 135.926 130.458 137.723 129.483 141.11C129.226 142.034 129.021 142.907 128.764 143.779C128.559 144.549 126.917 144.806 126.25 145.576C125.377 146.653 124.607 147.885 124.196 149.168C123.221 152.248 122.451 155.379 121.579 158.51C121.425 158.972 121.476 159.793 121.22 159.896C118.859 160.768 118.602 163.488 116.498 164.618C114.855 165.49 113.777 166.876 113.213 168.57C112.597 170.469 111.262 171.752 109.62 172.932C108.491 173.754 107.413 174.729 106.335 175.601L106.438 175.653C105.36 175.755 104.282 175.858 103.05 175.961C103.102 176.628 103.204 177.244 103.256 177.86C101.767 178.783 100.279 179.707 98.7902 180.631C95.5567 182.582 95.1461 183.711 96.4292 187.765C97.5071 187.765 98.5849 187.817 99.6627 187.765C100.792 187.714 102.024 186.739 103.461 188.433C100.741 188.587 98.4822 188.741 96.0186 188.895C95.9673 191.204 96.6345 192.795 98.7389 193.668L98.6362 193.719C99.9707 196.286 97.4557 197.62 96.2752 199.262C96.8398 199.673 97.0964 199.93 97.4044 200.084C99.3034 200.854 99.714 201.623 98.6362 202.855C98.0716 203.471 96.9938 203.676 97.6097 205.216C98.6362 205.883 99.9707 206.756 101.305 207.629C103.974 209.425 106.489 208.501 108.953 207.269C109.723 206.91 110.185 206.037 110.852 205.473C112.032 204.446 113.161 203.317 114.445 202.393C116.292 201.11 116.344 201.162 117.216 198.236C118.345 200.494 119.526 202.445 120.193 204.754C121.271 208.296 121.989 212.094 124.402 215.173C125.274 216.251 126.044 217.381 126.917 218.612C126.506 219.382 126.096 220.152 125.685 220.922C126.763 221.949 127.789 223.026 128.867 224.053C130.356 224.156 131.844 224.309 132.563 222.616C133.076 221.333 134.205 220.563 135.488 220.511C138.465 220.46 140.415 218.715 142.52 217.226C141.493 215.789 140.877 214.25 141.083 212.505C141.339 210.605 141.853 208.758 141.75 206.91C141.647 204.857 142.571 203.42 144.265 202.701C147.704 201.264 148.32 198.595 148.32 195.054C147.19 193.925 146.061 192.18 144.368 191.307C142.007 190.075 141.442 188.381 141.545 186.174C141.596 184.789 141.955 183.403 141.853 182.068C141.699 179.656 142.52 177.654 144.162 175.909C145.651 174.369 147.139 172.932 148.73 171.495C150.065 170.315 151.604 169.34 152.785 168.056C154.325 166.363 155.351 164.464 154.889 161.949C154.633 160.46 154.787 158.818 155.3 157.381C155.865 155.789 156.84 153.993 158.893 153.788C161.202 153.582 163.666 153.736 165.976 154.096C168.491 154.506 169.722 156.097 169.261 158.15C167.259 160.717 165.565 162.924 163.82 165.131C161.972 167.492 160.484 170.161 158.225 172.06C156.121 173.856 155.505 175.601 156.224 177.911C157.302 181.401 157.918 184.943 157.815 188.587C157.815 188.895 158.02 189.254 158.123 189.459C160.997 190.999 163.82 192.539 167.156 194.335C169.671 193.463 172.648 192.179 175.83 191.461C179.166 190.691 182.657 190.486 185.941 190.075C187.481 191.204 188.867 192.231 190.509 193.411C188.816 194.438 187.173 195.054 186.198 196.183C184.504 198.133 182.759 198.339 180.398 197.569C176.908 196.388 173.521 197.415 170.287 198.647C168.029 199.519 167.721 200.546 168.08 202.753C168.439 204.806 169.569 206.191 171.776 206.91C171.776 208.655 171.878 210.195 171.724 211.735C171.622 213.018 170.903 213.993 168.491 213.89C168.029 213.377 167.361 212.351 166.438 211.478C164.898 210.092 162.742 210.195 161.767 211.889C160.279 214.455 158.893 217.124 159.868 220.255C160.433 222.051 160.997 223.899 160.381 225.747C159.047 226.465 157.353 226.876 156.686 227.902C155.813 229.185 154.941 230.007 153.401 230.212C151.399 230.417 150.424 229.288 149.551 227.851C149.397 227.646 148.936 227.594 148.422 227.389C142.622 228.21 138.26 232.214 132.511 234.831C131.331 233.599 130.099 232.368 128.456 230.674C126.301 231.341 123.581 232.162 121.117 232.932C119.218 232.008 117.473 231.136 115.779 230.315C115.214 229.237 114.393 228.21 114.085 227.081C113.88 226.209 114.239 225.182 114.342 224.258C114.291 224.258 114.291 224.258 114.239 224.258C114.291 224.258 114.291 224.207 114.342 224.207C116.087 222.924 116.96 221.127 117.575 219.074C116.241 217.688 116.087 216.046 116.652 214.25C116.908 213.377 116.754 212.505 115.368 212.197C114.906 212.505 114.291 212.864 113.726 213.274C113.315 213.582 112.956 213.993 112.494 214.301C111.878 214.712 111.16 214.917 110.646 215.379C110.287 215.635 109.928 216.251 110.031 216.611C110.236 217.38 110.031 217.791 109.62 218.407C108.439 220.511 108.491 222.821 109.415 225.182C110.338 227.594 111.314 230.007 111.365 232.624C111.416 234.215 109.877 236.166 108.491 235.704C105.771 234.831 103.974 236.73 101.716 237.09C96.7371 237.86 93.3496 240.374 92.4771 245.302C92.2205 246.79 91.4506 247.817 90.0648 248.535C89.1409 249.049 88.3197 249.87 87.3445 250.28C85.5994 251.102 84.4189 252.128 83.957 254.027C83.7517 254.9 82.8791 256.029 82.0066 256.337C80.1075 257.055 78.3625 257.671 77.1306 259.365C76.874 259.776 75.7448 259.827 75.0776 259.724C73.6918 259.468 72.3574 258.954 70.6636 258.441C70.6636 260.084 70.6636 261.572 70.6636 263.266C69.1751 263.368 67.6867 263.882 66.7115 263.42C63.9913 262.239 61.7842 263.368 59.1666 264.138C59.3206 265.319 59.4746 266.294 59.5772 267.321C61.3736 267.988 63.0674 268.706 64.8124 269.22C66.5062 269.733 67.892 270.708 68.3539 272.197C69.0212 274.404 70.8689 275.533 72.46 276.867C73.2812 280.768 72.4087 284.515 71.9981 288.261C71.9467 288.775 71.6901 289.237 71.4335 289.699C70.8689 290.93 69.7397 291.752 68.4053 291.546C63.5806 290.725 58.602 291.546 53.7774 290.469C51.0058 289.853 47.9776 289.647 45.1034 289.853C43.4609 289.955 41.9211 291.29 40.33 292.111C39.8681 292.368 39.4575 292.727 39.2522 292.829C39.6628 294.883 40.0734 296.525 40.2787 298.219C40.9973 303.146 40.5353 307.868 37.9691 312.333C37.5584 313.052 37.3018 314.284 37.6611 314.797C39.7141 317.261 39.5088 320.289 40.1247 323.42C41.6132 323.574 43.1016 324.087 44.4361 323.882C47.4643 323.368 49.4147 324.344 50.5439 327.012C50.5952 327.166 50.7492 327.32 50.8518 327.474C52.135 329.066 53.2128 329.322 55.0605 328.142C57.8834 326.345 60.8604 325.37 64.3506 325.678C65.9417 325.832 67.738 325.575 69.1238 324.959C70.7149 324.241 72.2547 323.163 73.3839 321.88C74.975 320.032 76.2068 317.928 77.5926 315.875C77.6952 315.772 77.5926 315.516 77.5926 315.362C77.0793 314.232 76.6174 313.155 76.0015 311.769C78.6191 308.381 80.5182 304.429 85.3942 302.992C87.8578 302.273 89.2949 300.477 89.3975 297.962C89.4489 296.782 89.5515 295.55 89.8082 294.369C90.3727 292.008 92.0151 290.879 94.5814 291.29C97.2504 291.752 99.868 292.419 102.64 293.035C105.411 291.187 108.439 289.288 111.365 287.286C112.494 286.516 113.675 286.362 115.009 286.722C117.062 287.235 118.448 288.415 119.628 290.109C123.478 295.806 127.635 301.247 134.975 303.351C135.488 303.505 135.796 304.018 136.309 304.224C138.67 305.302 140.159 307.406 142.263 308.638C144.265 309.818 144.727 311.512 145.394 313.257C146.215 315.31 145.343 316.901 143.906 318.544C141.801 318.903 139.594 319.16 137.49 319.673C135.437 320.135 133.179 318.954 130.818 320.597C133.897 323.625 137.439 324.959 140.98 325.986C141.391 325.627 141.596 325.524 141.647 325.421C142.212 323.112 141.237 319.827 145.702 320.135C145.959 320.135 146.318 319.724 146.472 319.468C147.498 317.671 148.576 315.875 149.449 313.976C149.654 313.462 149.243 312.641 148.987 312.025C148.73 311.409 148.217 310.845 148.063 310.178C147.755 308.279 149.551 306.79 151.451 307.355C152.426 307.663 153.298 308.125 154.581 308.638C154.53 307.817 154.633 307.149 154.376 306.893C151.091 303.659 145.959 302.992 142.982 299.297C142.828 299.091 142.314 299.091 141.955 299.091C139.081 298.835 137.285 297.038 136.053 294.883C134.41 292.06 132.357 289.75 129.534 288.005C128.2 287.184 127.635 285.952 127.738 284.463C127.841 283.437 127.943 282.41 128.046 281.538C129.38 280.306 130.715 279.536 132.409 279.844C133.076 281.23 133.64 282.359 134.154 283.488C135.54 283.026 136.515 282.667 137.695 282.308C138.568 283.54 139.594 284.566 140.107 285.849C141.185 288.672 143.392 290.109 146.215 291.29C151.245 293.343 156.019 295.909 159.149 300.528C159.201 300.99 159.252 301.504 159.252 302.017C159.047 305.199 159.56 308.125 162.178 310.486C163.358 311.512 164.231 312.898 165.206 314.13C166.335 315.669 167.413 317.261 168.542 318.852C167.721 320.956 169.928 321.88 170.544 323.42C171.416 325.575 173.264 325.883 175.266 325.575C176.138 323.779 176.857 322.239 177.575 320.699C179.936 320.186 179.936 318.441 179.834 316.491C178.448 315.875 177.011 315.259 176.087 314.848C175.317 312.949 174.701 311.512 174.137 310.126C173.88 309.51 173.521 308.843 173.469 308.176C173.418 307.765 173.88 307.303 174.085 306.79C175.163 307.303 176.087 307.714 177.062 308.176C177.627 307.817 178.191 307.611 178.499 307.201C179.372 305.918 179.936 304.378 181.989 304.327C183.632 304.275 185.274 304.07 186.865 304.224C188.456 304.378 189.38 305.558 189.534 307.047C189.637 308.227 189.534 309.459 189.534 310.537C193.332 313.36 193.178 314.386 191.177 317.877C192.203 319.262 193.281 320.597 194.256 321.983C195.488 323.779 196.925 325.267 199.338 325.575C200.826 325.781 202.006 326.397 203.187 327.269C205.291 328.809 207.344 328.501 209.551 326.602C210.065 326.14 210.321 325.473 210.475 325.319C213.555 325.165 215.505 326.089 217.199 327.526C218.585 328.706 220.124 328.655 221.818 328.45C224.385 328.193 225.976 326.499 227.772 325.062C229.671 325.37 231.416 325.627 233.11 325.883C233.213 327.782 233.007 329.579 233.469 331.17C234.136 333.531 233.623 335.687 232.956 337.791C231.827 341.23 230.492 344.617 229.107 348.005C228.696 348.929 228.029 349.853 227.259 350.571C226.643 351.136 225.719 351.7 224.949 351.752C222.588 351.803 220.073 352.06 217.866 351.392C214.273 350.314 210.989 350.468 207.806 352.111C206.267 352.932 204.778 353.035 203.084 352.624C198.824 351.7 194.462 351.033 190.202 350.058C186.865 349.288 183.529 348.313 180.244 347.338C179.577 347.132 178.91 346.773 178.345 346.311C175.112 343.745 171.519 344.155 167.926 345.284C165.154 346.157 163.923 348.21 164.333 350.93C164.436 351.598 164.795 352.265 164.898 352.932C165.103 354.728 163.871 355.806 162.537 356.73C161.356 357.551 160.073 357.243 158.944 356.576C158.02 356.012 157.199 355.293 156.275 354.78C153.914 353.394 151.502 352.111 148.628 352.162C146.215 352.214 144.829 350.982 144.214 348.98C143.7 347.286 142.571 346.311 140.826 345.952C138.516 345.438 136.155 344.463 133.897 344.669C129.021 345.131 125.685 342.256 121.836 340.409C120.809 339.947 120.655 338.561 121.374 337.688C121.835 337.175 122.4 336.713 122.913 336.2C124.658 334.66 125.018 332.761 123.375 331.17C121.733 329.579 123.119 327.936 122.759 326.448C122.143 326.089 121.579 325.883 121.271 325.524C119.628 323.625 117.729 323.317 115.42 324.446C113.418 325.473 111.314 325.627 109.004 325.319C107.259 325.062 105.257 324.703 103.666 325.216C100.946 326.14 98.3282 325.883 95.6079 325.678C94.1708 325.575 92.7337 325.986 91.2966 326.14C90.0135 326.294 88.7816 326.756 87.4985 326.653C84.7782 326.499 82.4685 327.423 80.1589 328.552C78.6704 329.271 77.2846 329.989 75.7962 330.657C71.5361 332.453 67.7381 333.172 63.0674 333.069C61.425 333.069 59.6799 333.531 58.1401 333.12C56.4977 332.71 55.0605 331.581 53.2128 330.605C52.5969 331.837 51.9297 332.864 51.6217 333.941C50.6465 337.124 48.9014 339.587 45.5652 340.819C44.898 341.076 44.3334 341.589 43.7175 341.948C40.8946 343.539 37.815 344.874 37.6097 348.621C37.6097 349.031 36.9939 349.493 36.6859 349.904C35.6594 351.238 35.0435 352.675 35.5054 354.267C36.5832 358.013 34.4275 360.734 31.9639 362.992C30.0648 364.737 27.5499 366.174 25.0349 366.995C22.7252 367.765 21.2368 368.946 20.0563 370.742C19.4917 371.615 18.9785 372.795 18.1573 373.154C15.3857 374.386 14.3592 376.799 13.0247 379.006C12.2035 380.34 11.4849 381.828 10.407 382.958C7.07085 386.345 5.78771 390.759 3.22142 394.557C1.88694 396.456 1.83567 398.817 4.29931 400.562C4.91522 400.973 5.42843 402.154 5.27445 402.821C4.55589 405.336 5.68509 407.594 5.8904 409.955C6.04438 411.495 5.94172 413.035 5.63377 414.523C5.22316 416.525 4.60725 418.578 3.83736 420.477C3.01615 422.53 1.83566 424.429 0.757812 426.482C2.14361 428.638 4.19666 430.691 2.75953 433.514C3.27279 435.515 3.68336 437.928 5.99302 438.595C9.27788 439.519 10.407 442.29 12.4601 444.241C13.076 444.857 13.4866 445.729 14.2052 446.088C17.0794 447.628 18.7218 449.784 19.5944 452.864C20.3643 455.686 21.75 458.663 24.7783 459.946C28.679 461.64 31.6559 464.412 35.0434 466.721C37.4044 468.313 40.0221 469.647 42.5884 470.93C43.9229 471.597 45.36 471.751 46.7971 470.982C50.3899 469.031 54.342 468.621 58.3967 468.364C61.3736 468.159 64.1966 468.056 67.0195 469.082C67.9947 469.442 69.2265 469.75 70.2017 469.493C72.6653 468.877 75.2316 468.261 77.3873 467.029C81.596 464.668 86.2153 463.745 90.886 462.975C95.8646 462.102 98.6875 463.745 100.997 468.21C101.305 468.826 101.562 469.493 101.87 470.109C102.588 471.443 103.769 472.265 105.36 472.265C107.208 472.265 109.004 472.111 110.852 471.905C112.853 471.649 114.804 471.289 117.062 470.93C117.729 471.7 118.294 472.778 119.167 473.24C121.066 474.164 121.476 475.858 121.887 477.5C122.4 479.399 121.938 481.247 121.117 483.043C120.706 484.018 119.885 484.993 119.936 485.866C120.296 489.305 118.756 492.23 117.524 494.797C118.807 499.775 121.784 503.214 125.48 506.191C126.044 506.653 126.557 507.115 127.122 507.577C129.483 509.373 130.869 511.734 131.895 514.403C132.717 516.508 133.846 518.458 134.616 520.562C135.437 522.821 136.669 525.233 136.463 527.44C136.155 530.519 136.771 533.188 138.003 535.96C139.697 539.604 139.389 542.94 135.95 545.815C133.486 547.919 131.69 550.485 131.639 553.873C131.587 555.002 130.92 556.182 130.356 557.26C128.508 560.699 128.867 564.343 129.072 567.936C129.124 568.757 129.534 569.681 130.048 570.297C134.872 575.481 135.95 582.513 139.851 588.158C140.056 588.415 140.107 588.826 140.159 589.134C140.775 593.548 141.339 598.013 142.058 602.427C142.828 607.252 144.008 611.871 147.652 615.669C149.089 617.158 150.167 619.057 150.989 620.956C152.374 624.138 153.452 627.474 154.684 630.708C155.351 632.401 155.711 633.941 154.787 635.686C154.427 636.353 154.53 637.329 154.735 638.098C155.095 639.587 155.659 641.024 156.172 642.41C157.456 643.231 158.585 644.104 159.868 644.822C160.638 645.233 161.818 645.797 162.383 645.541C165.257 644.206 168.593 644.771 171.365 643.539C174.188 642.307 177.165 642.205 179.936 642.666C182.657 643.128 184.915 642.718 187.327 641.845C188.148 641.537 189.021 641.075 189.894 641.024C192.819 640.87 195.18 639.638 197.387 638.047C202.366 634.454 206.934 630.554 210.475 625.626C212.528 622.752 214.479 619.878 217.507 617.722C218.585 616.952 219.457 615.618 220.022 614.386C221.459 611.05 222.793 607.611 221.51 603.967C222.999 602.119 224.744 600.939 226.9 600.271C227.926 599.963 229.055 599.758 230.082 599.399C232.648 598.475 234.085 596.884 234.496 594.061C234.958 590.571 234.855 587.235 233.777 583.847C233.367 582.513 233.007 581.178 232.648 579.844C232.34 578.56 232.597 577.38 233.777 576.61C239.782 572.709 244.299 566.909 251.536 564.651C252.357 564.395 253.127 563.779 253.846 563.265C258.26 560.289 261.236 556.644 260.107 551.101C259.953 550.434 260.056 549.715 260.107 549.048C260.261 544.788 260.467 540.477 260.621 536.217C254.821 531.957 255.385 526.106 255.95 520.1C255.129 518.92 254.256 517.637 253.23 516.2C254.256 514.095 255.18 512.042 256.258 510.092C257.182 508.398 258.362 506.858 259.183 505.165C260.056 503.419 261.185 502.034 262.982 500.905C264.624 499.878 266.061 498.441 267.242 496.901C271.142 492.025 276.121 488.176 280.689 483.967C281.356 483.351 282.126 482.889 282.896 482.427C291.467 477.705 297.267 470.828 301.322 462.41C302.656 459.587 303.94 456.764 305.89 454.198C308.713 450.605 309.637 446.345 309.38 441.931C309.329 441.161 308.867 440.443 308.456 439.313C304.504 441.367 300.552 441.777 296.6 442.444C291.416 443.368 286.13 443.728 281.202 445.781C279.714 446.396 278.277 445.986 277.199 444.908C275.659 443.42 274.171 441.931 272.682 440.443C273.606 437.312 273.606 437.312 271.758 435.464C270.988 434.745 270.321 433.924 269.551 433.154C266.472 430.023 263.751 426.533 259.132 425.045C256.874 424.326 255.385 422.376 254.718 420.015C254.359 418.681 253.897 417.346 253.486 416.012C252.768 413.805 251.587 411.905 249.432 410.622C246.249 408.723 244.607 406.106 244.71 402.461C244.761 401.127 244.042 399.793 243.837 398.407C243.324 395.122 241.784 392.504 238.448 391.067C236.703 390.349 235.779 389.014 235.984 387.372C236.241 385.062 234.958 383.42 233.828 381.675C232.237 379.16 230.184 376.799 229.107 374.078C227.515 369.972 225.565 366.174 222.434 362.889C222.024 362.479 221.356 361.811 222.691 361.144C223.204 361.811 223.717 362.479 224.282 363.095C225.206 364.172 226.181 365.199 227.207 366.174C227.875 366.79 228.645 367.047 229.671 366.636C232.34 365.61 232.905 365.558 234.136 367.252C237.832 372.179 241.989 376.799 244.196 382.752C249.586 384.703 251.639 388.86 251.947 394.095C252.152 397.483 253.692 399.998 256.823 401.692C259.44 403.129 261.288 405.079 262.314 407.902C262.879 409.493 264.162 410.828 265.24 412.213C266.215 413.445 267.293 414.626 268.422 415.806C269.808 417.295 270.629 419.091 270.526 421.042C270.27 425.353 272.374 429.1 273.503 433C274.171 435.259 275.556 435.515 278.277 435.31C280.946 435.105 282.177 432.692 284.538 432.333C286.848 431.974 289.414 432.59 291.467 431.255C294.342 429.459 298.14 429.408 300.706 426.995C301.271 426.431 302.4 426.379 303.272 426.123C305.377 425.455 307.481 424.891 309.534 424.121C311.023 423.556 312.768 422.992 313.332 421.401C314.153 419.091 316.001 418.372 318.26 417.859C320.723 417.295 323.135 416.525 325.804 415.755C326.728 414.112 327.447 411.957 330.116 411.803C330.578 411.752 331.245 411.341 331.399 410.982C332.528 408.569 334.684 407.44 337.712 406.876C336.429 403.385 337.969 401.332 340.689 399.177C342.947 397.432 345.154 394.968 344.898 391.683C343.82 390.503 342.537 389.425 341.664 388.142C340.484 386.294 338.893 385.678 336.737 385.473C331.964 385.011 330.064 383.214 329.038 378.8C328.73 377.466 328.473 376.183 328.165 374.643C325.189 376.439 323.341 378.749 321.544 381.11C320.056 383.112 318.26 384.087 315.591 383.933C314 383.83 312.357 384.241 310.766 384.395C309.38 384.549 308.148 383.984 307.635 382.804C307.276 382.034 307.173 381.161 307.019 380.34C306.711 378.698 306.403 377.055 305.993 374.694C304.658 376.234 303.837 377.158 302.656 378.544C301.681 376.901 300.706 375.823 300.398 374.54C299.782 372.025 298.345 370.075 296.343 368.484C294.29 366.893 293.11 364.788 291.673 362.787C290.133 360.58 289.517 358.424 291.878 355.96C293.931 355.96 296.292 355.96 298.55 355.96C300.86 359.348 303.067 362.53 305.223 365.712C308.046 366.533 310.561 367.663 312.973 369.356C316.463 371.769 320.723 373.36 325.137 370.486C325.702 370.126 326.472 369.921 327.19 369.767C328.576 369.356 329.757 369.716 330.475 370.947C331.45 372.59 332.323 374.284 333.247 375.926C338.328 376.593 343.255 377.004 348.08 377.979C351.416 378.646 354.598 378.544 357.883 378.236C362.194 377.876 366.557 377.568 370.92 377.261C371.998 377.209 373.076 377.312 374.513 377.415C376.206 379.519 377.952 381.623 380.261 384.395C381.801 384.549 383.751 385.627 385.342 387.474C386.061 388.347 387.498 388.706 388.576 389.271C389.294 389.63 390.475 389.271 390.834 390.708C389.962 391.272 388.987 391.888 387.806 392.607C389.346 394.095 390.732 395.481 392.117 396.764C392.631 397.226 393.195 397.688 393.863 397.996C394.632 398.355 395.659 398.971 396.377 398.766C397.917 398.304 399.406 397.534 400.74 396.713C401.921 395.994 402.023 394.763 401.921 393.479C401.869 392.658 401.972 391.734 403.306 391.683C403.563 392.864 403.82 394.044 404.025 395.225C405 400.306 405.257 405.49 406.899 410.417C408.542 415.139 409.414 420.169 412.442 424.378C414.136 426.687 415.214 429.254 416.035 431.871C416.959 434.694 418.037 437.414 420.347 439.57C421.219 440.391 421.784 441.572 422.297 442.65C423.17 444.703 423.991 446.858 424.658 448.963C425.325 450.964 426.095 452.915 427.84 454.301C429.226 455.43 431.125 455.327 432.1 453.839C433.794 451.221 436.925 449.733 438.105 446.653C438.413 445.832 439.594 445.267 440.364 444.6C439.902 441.315 439.85 438.236 441.339 435.31C441.75 434.489 441.749 433.206 441.39 432.333C440.21 429.459 441.082 426.482 440.774 423.608C440.723 422.941 441.39 421.914 442.006 421.452C443.751 420.272 445.65 419.348 447.498 418.321C448.114 417.962 449.089 417.603 449.192 417.141C449.756 414.626 452.22 413.805 453.811 412.213C455.915 410.058 458.43 408.313 460.021 405.695C460.894 404.258 461.972 403.077 464.025 402.513C466.54 401.794 468.131 399.741 468.388 397.021C468.439 396.354 468.696 395.687 468.85 395.173C472.853 392.966 472.853 392.761 475.009 393.018C479.577 393.531 483.221 392.196 485.684 388.604C488.507 388.347 489.534 389.989 489.944 391.94C490.92 396.61 493.794 399.639 498.311 401.486C498.773 401.692 499.132 402.154 499.491 402.461C499.337 403.539 499.234 404.515 499.081 405.9C501.698 405.9 502.571 407.645 503.289 409.442C504.059 411.341 504.521 413.24 504.008 415.498C503.187 418.988 505.599 420.631 509.14 419.348C509.962 419.04 510.783 418.526 511.553 418.065C513.041 417.141 514.478 416.166 515.915 415.242C518.379 416.935 519.303 419.296 520.021 421.863C520.791 424.686 521.766 427.509 522.998 430.177C524.897 434.386 526.334 438.595 525.051 443.214C524.846 444.035 524.949 444.908 524.897 445.729C524.846 447.064 524.795 448.449 524.692 449.784C524.589 450.964 524.487 452.145 524.384 453.325C528.234 455.84 530.287 459.587 533.007 462.821C533.571 463.488 533.879 464.361 534.085 465.182C534.598 467.183 534.906 469.236 535.471 471.238C535.778 472.367 536.343 473.445 536.908 474.472C537.575 475.652 538.396 476.833 539.269 477.91C542.04 481.247 545.428 483.71 549.842 484.839C550.971 485.147 552.1 484.07 551.69 482.992C551.279 481.863 550.971 480.528 550.15 479.707C548.353 477.859 547.84 475.652 548.148 473.445C548.764 469.134 546.198 466.619 543.118 464.309C541.27 462.923 539.217 461.846 537.216 460.614C535.83 459.741 534.187 458.869 534.187 457.175C534.239 453.993 531.878 452.042 530.03 450.195C527.874 448.09 527.669 446.14 528.285 443.625C529.311 439.775 530.287 435.926 531.313 432.077C531.365 431.82 531.775 431.615 532.34 431.101C532.956 431.409 533.982 431.666 534.239 432.23C534.957 433.822 536.035 434.54 537.883 434.899C540.603 435.413 543.067 436.747 544.247 439.313C545.376 441.726 547.737 442.65 549.842 443.933C551.228 444.754 552.665 445.421 553.845 445.986C554.615 448.039 552.973 450.143 555.231 451.837C557.438 450.759 559.183 449.014 560.826 447.269C562.057 445.935 563.392 445.113 565.188 444.497C570.577 442.598 574.016 437.671 573.246 432.846C572.733 429.613 571.604 426.482 570.526 423.351C569.602 420.631 567.857 418.219 565.342 416.833C561.031 414.523 558.413 410.879 555.385 407.491C553.691 405.592 553.742 403.385 554.718 401.692C556.565 398.458 558.259 394.865 562.673 393.736C563.7 393.479 564.675 392.915 565.701 392.453C567.293 392.915 568.832 393.377 570.321 393.787C570.783 394.865 571.091 395.892 571.604 396.764C572.066 397.534 572.887 397.996 573.914 397.329C574.068 396.354 574.222 395.379 574.375 394.557C578.892 392.094 584.692 392.094 587.72 387.269C590.081 388.552 592.186 387.012 594.495 386.704C597.472 386.294 600.244 385.678 601.681 382.701C601.886 382.29 602.553 382.085 602.964 381.777C608.251 377.774 611.946 372.949 611.946 366.174C613.742 365.148 614.923 363.659 615.488 361.76C615.744 360.939 615.796 359.912 616.36 359.348C618.618 357.192 618.259 354.626 618.003 352.06C618.362 351.906 618.772 351.752 619.132 351.598C618.721 351.444 618.362 351.29 617.951 351.136C618.31 350.212 618.618 349.442 617.797 348.364C616.771 346.927 614.923 347.645 613.435 346.824C614.923 345.387 616.155 344.258 617.489 342.975C616.463 341.692 615.59 340.665 614.769 339.639C614.718 339.69 614.718 339.69 614.666 339.741L614.769 339.639C615.333 339.074 615.898 338.51 616.514 337.894C615.898 337.124 615.539 336.354 614.974 336.097C612.357 334.814 610.868 332.504 609.893 330.195C608.507 326.91 606.249 324.754 602.964 323.266C602.502 323.06 602.245 322.496 601.835 322.034C601.886 320.853 601.63 319.57 602.143 318.492C602.913 316.799 604.042 315.208 605.222 313.719C607.275 311.153 610.509 310.332 613.229 309.254C613.64 307.406 613.178 306.482 611.535 306.277C610.098 306.123 608.353 306.431 607.275 305.815C604.504 304.224 602.861 305.302 601.27 307.303C600.962 307.714 600.552 308.073 600.141 308.433C599.269 309.1 597.575 309.151 597.164 308.279C596.138 306.02 593.879 305.199 592.032 303.967C591.313 303.454 590.594 302.838 590.03 302.171C588.644 300.528 589.465 298.373 591.672 297.911C592.545 297.705 593.417 297.603 594.136 297.449C595.008 295.652 595.316 293.599 596.548 292.675C598.55 291.187 599.525 289.237 600.757 287.338C601.783 285.798 603.221 285.387 605.017 286.311C605.89 286.773 606.505 287.646 607.224 288.313C606.608 289.699 605.838 290.776 605.684 291.906C605.53 293.035 606.044 294.215 606.198 295.396C606.3 296.371 606.198 297.295 606.198 298.835C607.327 297.808 608.045 297.244 608.61 296.628C613.229 291.752 616.103 291.187 622.724 294.061C622.724 295.447 622.622 296.987 622.776 298.475C622.878 299.81 622.16 301.144 623.135 302.479C624.418 304.275 626.112 303.197 627.652 303.403C629.705 303.659 632.015 305.712 632.168 307.406C631.758 308.073 631.347 308.792 630.885 309.562C632.99 311.769 633.811 314.232 633.298 317.209C632.99 318.903 633.144 320.699 635.659 321.726C637.609 320.597 639.816 319.622 642.485 319.519C644.589 319.416 646.591 317.004 646.129 315.002C645.411 311.82 644.179 308.741 643.152 305.61C639.559 302.222 637.66 297.449 632.99 294.883C630.937 293.753 630.834 291.752 632.374 290.007C633.195 289.083 634.273 288.415 635.094 287.492C637.198 285.028 639.149 282.564 637.455 279.074C636.685 277.534 637.352 275.943 638.43 274.711C640.432 272.299 642.639 270.041 644.949 267.526C645.872 268.039 646.745 268.552 647.617 269.117C649.414 270.297 651.159 269.99 652.699 268.86C653.674 268.142 654.649 267.218 655.265 266.243C656.292 264.652 657.164 262.907 657.934 261.161C659.884 256.901 661.783 252.59 663.682 248.279C664.093 247.355 664.196 246.277 664.401 245.302C665.171 241.042 665.53 236.679 666.813 232.573C668.251 228.056 667.429 223.899 665.53 220.049C663.58 216.149 662.759 212.248 662.707 208.091C662.707 205.524 662.913 202.855 660.757 200.802C660.86 198.955 658.961 197.723 658.858 196.08C658.704 193.822 657.369 192.693 655.573 191.718C654.598 191.204 653.469 190.896 652.699 190.178C650.44 188.022 647.977 187.868 645.154 189.049C644.692 190.434 645.051 192.231 643.306 193.052C642.844 193.257 642.331 193.36 641.818 193.463C641.253 192.693 640.791 192.026 640.329 191.41C639.2 191.564 638.174 191.718 637.404 191.872C636.326 189.87 635.453 188.227 634.581 186.585C633.708 186.688 633.195 186.79 632.682 186.842C631.963 186.944 631.245 187.15 630.526 187.098C628.73 187.047 627.754 185.866 628.37 184.327C628.781 183.351 629.243 182.428 629.807 181.504C631.86 178.014 633.862 174.523 633.965 170.366C633.965 169.545 634.273 168.57 634.786 167.902C638.328 162.975 637.25 156.816 639.816 151.683C639.97 151.375 639.867 151.016 639.867 150.657C639.97 146.448 640.329 145.884 644.025 144.549C645.564 143.985 647.104 143.369 648.644 142.958C650.03 142.65 651.621 142.188 652.904 142.547C655.214 143.266 654.906 139.981 656.908 140.597C657.061 140.648 657.267 140.546 657.472 140.546C659.782 140.289 662.091 139.981 664.247 139.724C666.198 135.054 666.198 135.054 671.022 135.464C672.305 135.567 673.588 135.464 674.82 135.721C675.795 135.926 676.719 136.491 677.592 136.902C676.925 139.673 676.925 139.673 678.618 140.751C681.903 139.93 683.648 136.44 687.395 136.286C688.114 136.234 688.781 134.951 689.859 133.822C688.062 133.206 686.779 132.744 685.599 132.334C684.623 130.588 684.059 128.895 684.726 127.201C686.266 123.198 686.574 119.194 686.009 114.985C685.701 112.881 686.831 111.393 688.986 110.571C692.271 109.288 695.556 108.313 699.303 108.467C699.662 110.366 699.97 112.163 700.329 114.164C701.972 114.883 703.563 115.601 705.462 116.423C706.95 112.368 706.283 108.159 708.952 105.182C707.823 102.308 705.718 100.101 706.232 96.7134C707.155 96.3541 708.233 95.6869 709.362 95.4816C710.081 95.3789 710.954 95.9949 712.339 96.4568C710.492 98.1506 710.543 99.793 711.518 101.435C713.828 105.182 714.906 109.34 715.727 114.01C711.929 116.063 711.98 119.656 712.237 123.352C712.288 124.019 712.339 124.789 712.083 125.405C710.44 129.562 710.8 133.873 710.851 138.185C710.851 139.365 710.748 140.648 710.235 141.675C709.208 143.625 707.823 145.37 706.437 147.423C708.028 149.066 708.079 151.221 707.104 153.121C705.616 156.046 706.129 158.869 707.207 161.641C708.541 165.028 709.876 168.467 711.518 171.7C713.109 174.78 715.06 177.757 717.01 180.683C718.858 183.454 720.5 186.482 722.861 188.792C724.863 190.742 725.889 193.001 727.07 195.31C727.481 196.08 727.686 196.953 728.096 197.723C728.815 199.108 729.944 199.776 731.689 199.365C734.358 196.132 735.025 192.693 733.332 188.741C732.818 187.56 732.972 186.072 732.818 184.943C734.153 183.813 735.179 182.941 736.309 181.966C735.641 180.734 734.974 179.707 734.512 178.578C733.691 176.576 734.102 174.523 734.615 172.47C735.077 170.623 736.822 170.315 738.259 169.647C738.875 169.391 739.285 168.775 739.645 168.364C739.388 166.209 737.643 165.285 736.565 163.95C734.41 161.333 733.64 158.458 734.717 155.276C735.898 155.071 736.925 154.866 737.9 154.66C738.618 151.94 735.59 151.119 735.539 149.117C734.512 148.963 733.794 148.912 733.126 148.809C731.689 145.986 731.689 145.986 731.792 143.882C731.792 143.728 731.843 143.523 731.895 143.369C732.048 142.034 731.587 141.008 730.303 140.34C728.712 139.519 728.148 141.11 726.916 141.47C724.298 139.93 723.836 137.415 723.785 134.797C723.734 131.358 723.785 127.868 721.886 124.737C721.629 124.327 721.527 123.762 721.527 123.249C721.424 121.966 721.629 120.58 723.118 120.323C725.581 119.861 726.403 117.962 727.635 116.371C727.891 116.012 728.507 115.961 728.815 115.807C730.149 116.269 729.79 118.373 731.895 117.962C732.1 117.398 732.305 116.73 732.562 116.115C732.87 115.293 733.075 114.472 733.537 113.754C735.539 110.571 738.977 109.853 742.416 111.649C743.905 112.47 745.034 114.113 747.241 113.805C747.292 113.24 747.446 112.727 747.446 112.265C747.549 107.081 748.473 102 750.013 97.124C751.193 93.4286 753.4 89.9384 755.71 86.6535C756.223 85.935 756.736 85.2677 757.301 84.6005C758.43 83.3174 759.816 82.7014 761.612 82.8041C763.049 82.8554 764.435 82.8041 765.77 82.8041C766.745 81.1103 767.053 79.4679 766.026 78.1335C764.281 75.9778 763.049 73.3601 759.97 72.4363C758.635 72.0257 757.404 71.2558 756.942 71.0505C755.915 69.4081 755.556 67.8169 754.683 67.5603C753.143 67.0984 752.014 66.6878 751.706 65.0454C751.655 64.6861 750.834 64.1215 750.526 64.1728C747.549 64.8401 745.804 62.8897 744.059 61.3499C742.776 61.7092 741.749 62.1198 740.723 62.2738C740.363 62.3251 739.85 61.7605 739.593 61.3499C739.439 61.1446 739.593 60.5287 739.747 60.4774C740.979 59.9641 741.852 59.1429 742.16 57.8597L742.108 57.8084C742.724 58.373 743.289 59.1429 744.059 59.5535C747.549 61.2986 750.731 59.4508 750.885 55.7554C750.936 54.7289 750.68 53.651 750.885 52.6758C751.706 48.6724 750.064 46.0035 746.317 44.3097C744.777 43.5911 743.648 42.5646 743.135 40.8196C743.597 39.9983 744.008 39.0745 744.572 38.202C744.726 37.9453 745.137 37.894 745.855 37.586C746.625 40.409 748.627 41.7948 752.168 41.9487C753.041 39.6904 753.657 36.8675 757.506 36.8675C758.943 37.9966 760.637 39.2798 762.69 40.8709C764.846 38.8692 767.515 39.1771 770.286 39.3311C771.21 39.3824 772.237 38.6639 773.109 38.3046C773.212 37.9453 773.212 36.6108 771.826 36.0976Z" fill="#678FC0" fill-opacity="0.8"/>
<path fill-rule="evenodd" clip-rule="evenodd" d="M563.34 504.909C562.313 503.267 561.441 501.881 560.722 500.649C558.515 500.239 558.464 501.625 558.053 502.702C556.873 502.856 555.59 502.6 555.333 501.471C554.615 498.699 552.459 497.364 549.79 496.389C549.995 494.952 550.201 493.823 550.355 492.643C550.611 490.795 547.942 491.205 547.737 489.717C547.737 489.563 547.686 489.358 547.686 489.204C547.326 486.894 545.376 488.331 544.247 487.921C543.015 486.637 541.988 485.098 540.551 484.122C536.907 481.659 533.109 479.349 529.876 476.372C528.849 475.448 527.412 474.884 526.231 474.063C525.256 473.395 516.582 468.519 515.504 468.211C514.991 468.057 514.529 467.698 513.965 467.647C513.451 467.595 512.681 467.647 512.476 467.903C512.168 468.417 511.911 469.238 512.117 469.751C512.835 471.804 514.632 473.241 516.479 474.268C519.559 476.013 521.509 478.631 523.716 481.197C526.18 484.122 529.106 486.791 530.081 490.589C530.132 490.743 530.286 490.897 530.389 491C533.674 493.515 535.008 497.159 536.343 500.701C537.061 502.548 538.088 504.037 539.473 505.474C543.682 509.785 548.148 513.789 553.588 517.382C554.307 517.382 555.385 517.484 556.462 517.33C557.489 517.176 558.515 516.714 559.542 516.406C560.107 512.711 560.671 509.169 561.236 505.628C561.903 505.474 562.519 505.217 563.34 504.909Z" fill="#678FC0" fill-opacity="0.8"/>
<path fill-rule="evenodd" clip-rule="evenodd" d="M596.854 530.57C598.24 529.646 599.574 530.108 601.011 530.365C601.73 530.519 602.397 530.057 601.987 528.773C598.651 528.773 595.982 526.31 592.44 526.258C591.927 526.258 591.465 525.129 590.952 524.462C588.847 523.487 586.794 522.409 584.639 521.536C583.458 521.075 582.329 521.229 581.097 522.05C578.223 523.897 574.835 523.538 572.423 521.742C569.6 519.586 566.572 519.227 563.287 519.073C561.08 518.97 559.848 519.791 559.797 522.306C561.234 523.282 562.62 524.821 564.416 525.335C570.267 527.08 576.478 526.977 582.431 528.773C586.64 530.057 591.465 528.876 595.776 530.621C596.084 530.775 596.597 530.724 596.854 530.57Z" fill="#678FC0" fill-opacity="0.8"/>
<path fill-rule="evenodd" clip-rule="evenodd" d="M579.2 500.596C579.354 502.239 580.124 503.83 580.586 505.472C582.177 505.626 583.409 505.78 584.641 505.934C585.36 506.037 586.335 505.986 586.694 506.396C588.131 508.193 589.825 507.885 591.57 507.217C592.853 506.755 593.982 507.115 595.265 507.32C597.575 507.679 598.91 509.373 600.501 510.502C602.502 509.835 604.248 509.322 605.582 508.86C606.301 506.755 607.276 505.01 607.378 503.214C607.532 501.007 608.354 499.313 609.739 497.619C610.612 496.542 611.177 495.258 611.741 493.975C613.64 489.767 613.589 489.767 617.849 488.175C616.925 487.252 616.104 486.43 615.283 485.558C614.821 485.045 614.051 484.326 614.153 483.915C614.821 481.965 613.435 480.682 612.665 479.142C611.741 477.397 612.46 475.703 613.435 474.266C614.051 473.342 616.104 473.753 615.95 472.008C615.796 470.16 618.567 470.879 618.619 469.236C618.413 468.98 618.259 468.569 618.003 468.466C615.642 467.234 613.23 466.259 611.998 463.59C611.228 461.897 608.713 461.999 607.378 463.488C606.916 464.001 606.455 464.617 606.249 465.233C605.479 467.799 603.118 469.339 601.014 470.16C598.191 471.238 596.651 473.086 595.009 475.139C593.264 477.346 591.621 479.553 588.388 480.22C586.797 480.528 585.719 481.914 584.949 483.402C584.487 484.275 583.923 485.147 583.255 486.122C580.997 485.609 578.893 485.147 576.994 484.737C575.094 485.866 574.222 487.457 574.325 489.202C574.478 492.282 575.197 495.412 577.404 497.773C578.533 498.646 579.098 499.313 579.2 500.596Z" fill="#678FC0" fill-opacity="0.8"/>
<path fill-rule="evenodd" clip-rule="evenodd" d="M760.071 606.84C757.813 604.428 756.222 601.964 756.735 598.68C754.938 597.653 753.399 596.832 752.372 596.216C751.038 592.674 750.37 589.338 748.625 586.618C747.393 584.719 744.724 583.641 742.671 582.153C742.363 581.947 742.056 581.793 741.696 581.639C739.797 580.818 739.13 579.33 738.976 577.482C738.771 574.248 738.771 570.964 736.666 568.089C736.204 567.474 736.41 566.396 736.358 565.574C736.256 564.189 736.256 562.803 736.153 561.417C735.896 558.851 734.665 557.722 731.739 557.106C731.226 557.003 730.764 556.798 730.507 556.746C729.07 552.076 727.736 547.662 726.299 543.248C726.145 542.786 725.426 542.426 724.656 541.811C723.835 543.607 723.014 544.993 722.603 546.43C721.628 549.92 720.345 553.41 720.191 556.952C719.986 561.93 718.292 566.396 716.444 570.861C715.212 573.838 711.568 574.608 709.258 572.298C706.333 569.373 702.535 567.679 699.096 565.523C696.427 563.881 694.271 561.982 692.321 559.518C694.117 556.592 693.655 552.794 697.351 550.844C698.223 550.382 698.48 548.791 699.147 547.508C698.172 547.148 697.299 546.533 696.991 546.738C695.76 547.508 694.528 547.097 693.296 547.046C689.549 546.892 686.264 545.403 682.826 544.428C682.056 544.223 681.132 544.223 680.311 544.12C679.9 546.019 678.668 547.046 676.615 547.097C674.562 547.148 672.406 547.097 671.021 548.586C668.044 551.768 663.886 554.437 664.605 559.775C662.193 559.621 660.037 559.467 657.933 559.313C657.933 559.364 657.984 559.364 657.984 559.415L657.881 559.313C656.547 557.773 655.879 555.669 653.672 554.95C649.207 556.233 649.207 556.233 641.56 562.649C641.252 563.983 640.944 565.266 640.687 566.396C639.353 566.601 638.326 566.755 637.556 566.858C637.043 568.346 638.48 570.04 636.273 570.604C635.247 569.578 634.323 568.654 633.604 567.987C630.627 569.013 629.447 570.656 629.601 573.273C629.652 574.146 628.933 575.172 628.369 575.994C627.702 577.02 626.829 577.893 626.162 578.919C624.673 581.075 622.62 582.204 619.9 582.615C616.872 583.128 613.895 583.898 610.918 584.668C609.378 585.078 607.89 586.207 606.35 586.259C603.014 586.31 600.55 588.004 597.727 589.133C594.904 590.262 592.954 592.674 589.926 593.444C589.464 593.547 589.002 594.574 589.002 595.189C589.002 597.653 588.232 599.86 587.154 602.118C586.128 604.171 586.538 606.532 587.257 608.688C587.565 609.663 588.129 610.587 588.386 611.614C588.797 613.153 587.873 613.821 586.436 614.129C586.436 614.077 586.436 614.077 586.436 614.026C586.333 614.847 585.974 615.72 586.128 616.541C587.308 624.035 589.361 631.374 589.361 639.022C589.361 639.689 589.772 640.356 589.823 641.023C589.977 644.873 589.413 648.568 586.487 651.597C584.28 653.906 584.331 654.419 586.59 656.729C587.103 657.242 587.513 657.807 588.078 658.269C590.798 660.527 594.032 660.887 597.317 659.86C599.524 659.193 601.833 658.32 603.681 656.934C607.377 654.214 611.329 654.112 615.64 654.727C617.282 654.933 618.925 655.138 620.567 654.933C621.748 654.779 623.288 654.317 623.903 653.496C625.803 650.929 628.318 649.544 631.397 648.722C632.218 648.466 632.937 647.747 633.758 647.388C634.733 646.977 635.862 646.413 636.838 646.567C640.841 647.183 644.434 646.002 648.027 644.565C652.081 642.974 656.341 643.744 660.499 643.846C660.858 643.846 661.32 644 661.474 644.206C663.065 646.156 665.529 646.31 667.736 647.029C670.199 647.85 672.612 648.774 672.406 651.904C672.406 652.212 672.612 652.572 672.868 652.828C675.178 655.189 675.229 658.115 675.281 661.092C675.281 661.656 675.691 662.221 676.051 663.247C678.206 661.246 679.746 659.141 681.85 658.012C684.211 656.78 685.033 653.906 688.42 653.085C688.009 654.522 687.907 655.549 687.496 656.421C686.983 657.499 686.11 658.423 685.494 659.501C684.981 660.425 684.571 661.4 684.365 662.426C684.109 663.504 682.415 663.966 682.826 665.249C686.213 666.019 685.751 662.529 687.599 661.759C689.703 663.863 687.753 666.07 687.958 668.175C688.779 668.226 689.447 668.277 690.216 668.329C691.192 671.254 692.013 674.077 691.243 677.362C690.473 680.801 692.372 684.035 695.862 685.42C699.096 686.703 701.919 688.449 704.947 690.553C706.795 689.321 708.642 688.192 710.336 686.96C711.003 686.447 711.363 685.472 712.543 685.985C714.442 687.627 713.467 690.861 716.136 692.041C718.548 691.733 720.345 690.553 721.987 689.167C724.4 687.063 727.222 686.19 730.456 686.036C734.613 685.882 735.127 685.215 736.358 681.366C737.488 677.927 738.001 674.18 740.567 671.357C743.339 668.277 745.186 664.736 747.137 661.194C748.523 658.731 750.216 656.524 752.526 654.779C755.708 652.315 757.556 649.03 758.942 645.489C760.379 641.588 761.559 637.585 763.356 633.838C764.485 631.477 764.947 629.27 764.331 626.858C763.818 624.753 763.818 622.803 764.382 620.75C765.768 615.309 763.664 610.741 760.071 606.84Z" fill="#678FC0" fill-opacity="0.8"/>
<path fill-rule="evenodd" clip-rule="evenodd" d="M703.666 499.673C701.51 502.29 697.712 503.06 695.916 506.088C695.608 506.602 694.786 506.858 693.965 507.371C692.271 505.934 690.68 504.549 689.141 503.214C689.141 501.828 689.243 500.596 689.089 499.416C688.935 498.287 688.525 497.158 688.268 496.182C680.415 493.565 679.337 493.719 675.898 498.03C676.72 498.646 677.849 499.159 678.311 499.98C679.44 501.982 681.134 502.547 683.341 502.393C684.059 502.342 684.778 502.239 685.548 502.188C686.369 502.136 687.036 502.341 686.779 503.368C684.778 503.933 682.725 504.548 680.672 505.113C681.596 506.909 682.417 508.552 683.443 510.502C684.726 509.63 685.702 508.963 686.933 508.09C688.987 509.27 691.091 510.708 693.4 511.631C695.915 512.658 698.687 513.069 701.305 513.89C702.485 514.249 703.666 514.916 704.692 515.584C705.411 516.045 706.181 516.661 706.591 517.38C707.669 519.536 708.593 521.743 709.619 524.052C708.439 524.874 707.361 525.489 706.489 526.311C705.873 526.875 705.308 527.696 706.232 528.928C707.464 528.826 708.85 528.723 710.287 528.518C712.802 528.158 715.009 528.364 716.548 530.673C717.267 531.751 718.242 532.47 719.628 532.624C721.989 532.932 724.299 533.342 726.66 533.496C727.481 533.548 728.713 533.137 729.072 532.572C729.534 531.854 729.329 530.725 729.431 529.801C730.355 528.98 731.228 528.107 732.203 527.337C733.897 526.003 735.796 525.541 737.797 526.567C740.364 527.85 743.187 528.672 744.572 531.495C745.137 532.726 746.523 533.548 747.344 534.728C748.832 536.781 750.885 537.602 753.452 537.705C755.864 537.808 758.174 538.116 760.329 539.245C760.637 539.399 761.151 539.142 762.229 538.988C759.252 536.319 756.172 534.317 754.324 531.597C752.425 528.672 748.627 527.132 747.806 523.282C748.422 522.872 749.038 522.513 749.5 522.051C750.68 520.921 750.526 519.844 749.038 519.228C746.882 518.304 744.675 517.431 742.673 516.61C740.877 512.761 740.928 512.709 737.541 510.656C736.463 509.989 735.334 509.424 734.153 509.014C728.559 506.961 722.913 504.908 717.267 502.957C713.828 501.777 710.338 500.802 706.848 499.673C705.667 499.262 704.333 498.851 703.666 499.673Z" fill="#678FC0" fill-opacity="0.8"/>
<path fill-rule="evenodd" clip-rule="evenodd" d="M661.321 317.928C657.522 321.161 655.521 325.729 652.236 329.322C651.774 329.784 651.825 331.119 652.185 331.632C652.441 332.042 653.724 331.786 654.854 331.888C654.854 333.12 655.008 334.301 654.802 335.43C654.494 337.278 655.316 338.817 656.137 340.357C656.599 341.178 658.344 341.538 659.011 340.871C659.883 340.049 660.91 339.279 660.91 337.894C660.91 336.354 660.756 334.763 661.115 333.274C661.731 330.759 660.653 328.963 658.908 327.372C658.395 326.91 657.676 326.653 658.241 325.575C660.859 325.473 662.501 322.65 665.427 322.804C668.455 322.958 670.251 319.622 673.382 320.238C673.793 321.88 673.998 323.42 674.563 324.857C675.025 326.037 676 326.859 677.54 326.551C680.311 322.855 680.516 322.445 681.081 319.468C682.518 319.519 684.007 319.878 685.392 319.622C686.522 319.416 687.651 317.774 688.421 317.979C690.833 318.544 690.114 316.08 691.398 315.67C691.86 315.516 692.321 315.259 692.578 315.156C693.297 315.823 693.964 316.85 694.528 316.799C695.196 316.747 696.068 315.926 696.428 315.259C696.992 314.181 697.043 313.001 696.53 311.769C695.966 310.332 695.401 308.792 695.504 307.303C695.658 304.275 695.144 301.504 693.502 298.27C696.787 295.344 696.171 291.803 695.452 288.518C694.682 285.131 692.578 282.256 689.704 279.998C688.369 280.152 687.138 280.306 686.06 280.409C684.212 282.462 685.084 284.72 685.854 286.414C688.78 292.676 686.316 298.219 683.904 303.762C683.185 305.404 681.389 306.431 679.541 306.482C678.617 306.482 677.694 305.404 676.616 304.686C676.924 308.279 675.127 311.307 674.357 314.438C672.356 314.643 670.713 314.694 669.122 314.951C667.48 315.208 665.837 315.464 664.349 316.029C663.322 316.439 662.193 317.158 661.321 317.928Z" fill="#678FC0" fill-opacity="0.8"/>
<path fill-rule="evenodd" clip-rule="evenodd" d="M690.114 255.413C689.293 254.745 688.523 253.975 687.753 253.257C686.573 252.179 685.29 251.255 683.801 250.947C682.569 251.563 682.621 252.436 683.134 253.206C684.622 255.515 684.828 258.082 684.879 260.648C684.879 261.982 685.033 263.317 685.084 264.651L682.313 266.499C680.517 269.219 680.157 271.786 682.826 274.249C683.391 274.814 683.596 275.738 684.161 276.816C685.444 275.789 686.419 274.916 687.497 274.044C686.06 272.863 684.879 271.94 683.647 270.913C684.315 270.554 684.622 270.348 684.93 270.194C687.702 268.603 690.32 268.398 692.886 270.656C693.553 271.221 694.836 271.221 695.914 271.478C696.222 270.759 696.53 270.297 696.582 269.784C696.889 267.269 698.224 265.729 700.944 265.165C701.868 264.959 702.689 264.087 703.818 263.368C702.638 261.777 701.663 260.391 700.688 259.057C695.093 258.697 693.451 258.184 690.114 255.413Z" fill="#678FC0" fill-opacity="0.8"/>
<path d="M208.538 338.291L209.002 337.405L208.538 338.291ZM274.001 436L274.623 435.217L274.001 436ZM341.501 420.499L342.009 421.361L341.501 420.499ZM382.001 401.5L381.872 402.492L382.001 401.5ZM440.501 462L439.939 461.173L440.501 462ZM446.391 430.005C445.842 430.066 445.447 430.561 445.507 431.11L446.5 440.055C446.561 440.604 447.056 440.999 447.604 440.938C448.153 440.877 448.549 440.383 448.488 439.834L447.606 431.883L455.557 431C456.106 430.939 456.501 430.445 456.44 429.896C456.379 429.347 455.885 428.952 455.336 429.013L446.391 430.005ZM410.001 445.5L409.073 445.874L410.001 445.5ZM190.501 311.5L189.805 310.782C189.273 311.299 188.756 311.803 188.255 312.294L188.956 313.008L189.657 313.721C190.154 313.233 190.668 312.732 191.198 312.218L190.501 311.5ZM185.982 315.975L185.27 315.273C184.21 316.349 183.24 317.357 182.355 318.302L183.085 318.986L183.815 319.669C184.686 318.738 185.645 317.742 186.694 316.676L185.982 315.975ZM180.26 322.129L179.5 321.479C178.427 322.735 177.546 323.856 176.847 324.858L177.668 325.43L178.488 326.002C179.139 325.069 179.976 324.001 181.02 322.778L180.26 322.129ZM175.778 329.15L174.801 328.936C174.579 329.952 174.684 330.895 175.223 331.687C175.739 332.445 176.556 332.919 177.446 333.24L177.785 332.299L178.124 331.358C177.422 331.105 177.056 330.825 176.877 330.562C176.721 330.333 176.618 329.988 176.755 329.364L175.778 329.15ZM181.913 333.06L181.816 334.056C183.098 334.18 184.53 334.27 186.049 334.367L186.113 333.369L186.177 332.371C184.646 332.273 183.251 332.185 182.009 332.065L181.913 333.06ZM190.309 333.671L190.224 334.667C191.562 334.782 192.945 334.925 194.354 335.118L194.49 334.127L194.625 333.136C193.174 332.938 191.756 332.791 190.394 332.674L190.309 333.671ZM198.635 334.841L198.428 335.819C199.754 336.1 201.085 336.44 202.407 336.853L202.706 335.899L203.004 334.945C201.615 334.51 200.222 334.155 198.843 333.863L198.635 334.841ZM206.643 337.376L206.237 338.29C206.855 338.565 207.468 338.86 208.074 339.177L208.538 338.291L209.002 337.405C208.356 337.067 207.705 336.754 207.049 336.462L206.643 337.376ZM208.538 338.291L208.074 339.177C208.436 339.367 208.88 339.69 209.407 340.173L210.082 339.435L210.757 338.697C210.161 338.151 209.573 337.705 209.002 337.405L208.538 338.291ZM212.725 342.352L211.944 342.976C212.674 343.89 213.455 344.94 214.285 346.114L215.101 345.537L215.918 344.96C215.073 343.762 214.267 342.679 213.506 341.727L212.725 342.352ZM217.303 348.769L216.469 349.32C217.153 350.356 217.861 351.455 218.59 352.608L219.435 352.074L220.28 351.54C219.545 350.377 218.83 349.267 218.138 348.218L217.303 348.769ZM221.516 355.419L220.664 355.941C221.329 357.026 222.009 358.147 222.702 359.301L223.559 358.787L224.417 358.272C223.721 357.113 223.038 355.986 222.368 354.896L221.516 355.419ZM225.575 362.17L224.715 362.679C225.37 363.787 226.035 364.918 226.709 366.07L227.572 365.565L228.435 365.06C227.76 363.906 227.093 362.772 226.436 361.661L225.575 362.17ZM229.556 368.969L228.692 369.471C229.343 370.593 230.002 371.73 230.667 372.879L231.532 372.379L232.398 371.878C231.733 370.728 231.074 369.59 230.421 368.467L229.556 368.969ZM233.504 375.792L232.638 376.292C233.28 377.405 233.955 378.575 234.606 379.704L235.473 379.204L236.339 378.704C235.669 377.543 235.031 376.438 234.37 375.292L233.504 375.792ZM237.44 382.61L236.574 383.11C237.229 384.243 237.887 385.38 238.548 386.518L239.413 386.016L240.278 385.514C239.618 384.377 238.96 383.241 238.305 382.109L237.44 382.61ZM241.394 389.421L240.531 389.925C241.193 391.06 241.858 392.194 242.523 393.326L243.385 392.819L244.247 392.312C243.583 391.182 242.919 390.05 242.258 388.916L241.394 389.421ZM245.387 396.208L244.528 396.718C245.201 397.852 245.874 398.98 246.547 400.1L247.404 399.586L248.262 399.071C247.59 397.953 246.919 396.828 246.247 395.697L245.387 396.208ZM249.444 402.957L248.59 403.478C249.28 404.611 249.97 405.733 250.657 406.842L251.507 406.316L252.357 405.789C251.673 404.684 250.986 403.566 250.298 402.437L249.444 402.957ZM253.597 409.656L252.752 410.19C253.465 411.317 254.174 412.427 254.88 413.517L255.72 412.973L256.559 412.43C255.857 411.346 255.151 410.243 254.442 409.121L253.597 409.656ZM257.882 416.264L257.05 416.819C257.796 417.937 258.536 419.029 259.27 420.091L260.093 419.523L260.915 418.954C260.188 417.902 259.454 416.819 258.714 415.71L257.882 416.264ZM262.365 422.74L261.554 423.326C262.352 424.43 263.142 425.493 263.92 426.511L264.714 425.903L265.509 425.295C264.742 424.294 263.964 423.245 263.175 422.154L262.365 422.74ZM267.164 428.989L266.393 429.626C267.28 430.699 268.152 431.703 269.006 432.629L269.741 431.951L270.476 431.274C269.65 430.378 268.802 429.402 267.935 428.352L267.164 428.989ZM272.523 434.737L271.849 435.477C272.366 435.947 272.876 436.383 273.379 436.783L274.001 436L274.623 435.217C274.159 434.849 273.684 434.442 273.196 433.998L272.523 434.737ZM274.001 436L273.379 436.783C273.947 437.235 274.519 437.663 275.092 438.067L275.668 437.25L276.245 436.433C275.703 436.051 275.163 435.646 274.623 435.217L274.001 436ZM279.198 439.426L278.729 440.31C280.024 440.997 281.328 441.574 282.638 442.049L282.979 441.109L283.319 440.169C282.098 439.726 280.88 439.187 279.666 438.543L279.198 439.426ZM286.965 442.232L286.765 443.211C288.18 443.5 289.599 443.68 291.018 443.762L291.076 442.764L291.134 441.766C289.806 441.689 288.483 441.52 287.164 441.252L286.965 442.232ZM295.22 442.729L295.292 443.726C296.702 443.624 298.11 443.436 299.513 443.173L299.329 442.19L299.145 441.207C297.81 441.457 296.477 441.635 295.147 441.731L295.22 442.729ZM303.362 441.231L303.638 442.192C304.981 441.807 306.318 441.362 307.649 440.868L307.301 439.93L306.952 438.993C305.665 439.472 304.376 439.9 303.087 440.269L303.362 441.231ZM311.142 438.36L311.547 439.274C312.818 438.71 314.082 438.108 315.337 437.475L314.887 436.582L314.437 435.689C313.208 436.309 311.973 436.897 310.736 437.446L311.142 438.36ZM318.553 434.642L319.037 435.517C320.255 434.843 321.463 434.148 322.661 433.44L322.152 432.579L321.644 431.718C320.459 432.419 319.267 433.104 318.069 433.767L318.553 434.642ZM325.7 430.43L326.226 431.28C327.413 430.545 328.588 429.804 329.75 429.066L329.213 428.222L328.677 427.378C327.519 428.114 326.351 428.85 325.173 429.579L325.7 430.43ZM332.709 425.987L333.248 426.828C334.429 426.072 335.592 425.327 336.739 424.601L336.204 423.756L335.67 422.911C334.517 423.64 333.349 424.388 332.169 425.145L332.709 425.987ZM339.724 421.565L340.244 422.42C340.838 422.058 341.427 421.704 342.009 421.361L341.501 420.499L340.993 419.638C340.401 419.987 339.805 420.345 339.204 420.711L339.724 421.565ZM341.501 420.499L342.009 421.361C342.589 421.019 343.151 420.679 343.696 420.342L343.17 419.491L342.644 418.641C342.11 418.971 341.56 419.303 340.993 419.638L341.501 420.499ZM346.431 417.373L346.995 418.199C348.137 417.42 349.197 416.656 350.188 415.911L349.587 415.112L348.986 414.313C348.018 415.04 346.983 415.786 345.868 416.547L346.431 417.373ZM352.642 412.708L353.277 413.481C354.35 412.601 355.336 411.755 356.26 410.953L355.605 410.198L354.949 409.442C354.032 410.239 353.061 411.071 352.008 411.935L352.642 412.708ZM358.538 407.649L359.188 408.409C360.216 407.53 361.187 406.733 362.157 406.022L361.566 405.216L360.975 404.409C359.946 405.163 358.932 405.996 357.888 406.889L358.538 407.649ZM364.859 403.163L365.311 404.055C366.37 403.519 367.493 403.079 368.739 402.746L368.481 401.78L368.222 400.814C366.838 401.184 365.586 401.675 364.408 402.271L364.859 403.163ZM372.303 401.121L372.392 402.117C373.534 402.014 374.782 401.978 376.159 402.014L376.186 401.015L376.212 400.015C374.768 399.977 373.443 400.015 372.213 400.125L372.303 401.121ZM380.069 401.275L379.968 402.27C380.58 402.332 381.215 402.406 381.872 402.492L382.001 401.5L382.13 400.508C381.456 400.421 380.803 400.345 380.171 400.28L380.069 401.275ZM382.001 401.5L381.872 402.492C382.483 402.571 383.077 402.689 383.654 402.842L383.91 401.875L384.167 400.908C383.505 400.733 382.827 400.599 382.13 400.508L382.001 401.5ZM387.499 403.341L387.009 404.213C388.051 404.799 389.044 405.517 389.993 406.353L390.654 405.602L391.315 404.852C390.273 403.934 389.167 403.132 387.989 402.47L387.499 403.341ZM393.348 408.398L392.579 409.038C393.357 409.974 394.103 410.992 394.82 412.081L395.655 411.531L396.49 410.98C395.738 409.839 394.949 408.76 394.117 407.759L393.348 408.398ZM397.657 414.863L396.781 415.346C397.383 416.439 397.964 417.578 398.528 418.755L399.43 418.323L400.332 417.891C399.754 416.685 399.156 415.511 398.533 414.381L397.657 414.863ZM401.034 421.866L400.115 422.261C400.617 423.429 401.107 424.622 401.586 425.831L402.516 425.463L403.445 425.094C402.96 423.871 402.464 422.66 401.953 421.471L401.034 421.866ZM403.913 429.093L402.976 429.444C403.429 430.653 403.875 431.868 404.318 433.085L405.258 432.743L406.197 432.401C405.754 431.181 405.305 429.959 404.849 428.742L403.913 429.093ZM406.581 436.401L405.641 436.741C406.085 437.971 406.529 439.194 406.975 440.401L407.913 440.055L408.851 439.709C408.408 438.508 407.966 437.29 407.521 436.061L406.581 436.401ZM409.287 443.693L408.354 444.055C408.592 444.668 408.832 445.275 409.073 445.874L410.001 445.5L410.928 445.126C410.69 444.536 410.454 443.937 410.219 443.331L409.287 443.693ZM410.001 445.5L409.073 445.874C409.32 446.487 409.589 447.084 409.878 447.665L410.774 447.219L411.669 446.774C411.403 446.24 411.156 445.69 410.928 445.126L410.001 445.5ZM412.704 450.449L411.887 451.026C412.648 452.104 413.48 453.11 414.365 454.047L415.092 453.36L415.818 452.673C414.995 451.802 414.224 450.869 413.521 449.873L412.704 450.449ZM417.853 455.918L417.222 456.694C418.24 457.522 419.298 458.276 420.378 458.958L420.912 458.112L421.446 457.267C420.43 456.625 419.437 455.917 418.484 455.142L417.853 455.918ZM424.206 459.94L423.77 460.84C424.965 461.419 426.166 461.916 427.349 462.333L427.682 461.39L428.014 460.447C426.9 460.054 425.769 459.586 424.641 459.04L424.206 459.94ZM431.299 462.428L431.083 463.405C432.448 463.706 433.757 463.893 434.97 463.964L435.028 462.966L435.087 461.968C433.992 461.903 432.788 461.733 431.514 461.452L431.299 462.428ZM438.769 462.715L439.003 463.688C439.774 463.502 440.479 463.223 441.062 462.827L440.501 462L439.939 461.173C439.608 461.397 439.144 461.597 438.535 461.743L438.769 462.715ZM440.501 462L441.062 462.827C441.715 462.384 442.334 461.924 442.918 461.448L442.287 460.673L441.656 459.897C441.117 460.336 440.545 460.762 439.939 461.173L440.501 462ZM445.449 457.567L446.215 458.21C447.245 456.983 448.108 455.698 448.822 454.383L447.943 453.906L447.064 453.429C446.413 454.629 445.625 455.802 444.683 456.924L445.449 457.567ZM449.656 449.817L450.612 450.11C451.077 448.592 451.375 447.07 451.533 445.58L450.539 445.474L449.545 445.369C449.399 446.738 449.125 448.134 448.699 449.524L449.656 449.817ZM450.593 441.041L451.589 440.959C451.456 439.33 451.164 437.79 450.751 436.395L449.792 436.679L448.833 436.962C449.206 438.221 449.473 439.626 449.596 441.123L450.593 441.041ZM447.97 432.647L448.799 432.088C448.299 431.347 447.739 430.709 447.126 430.219L446.501 430.999L445.877 431.78C446.297 432.117 446.727 432.593 447.141 433.207L447.97 432.647Z" fill="#F9F9F9"/>
<path d="M360.921 398.522L315.3 421.451C313.715 422.247 310.565 425.492 308.38 429.046L308.262 429.25L315.681 444.013L315.915 444.04C320.071 444.407 324.554 443.815 326.14 443.018L371.76 420.09C374.549 418.689 386.263 407.167 383.103 400.882C379.944 394.596 363.71 397.121 360.921 398.522Z" fill="#7FA3C9"/>
<path d="M361.181 399.04L315.56 421.968C314.034 422.735 310.943 425.878 308.728 429.519L315.8 443.59C320.044 443.986 324.439 443.366 325.936 442.613L371.557 419.685C374.463 418.224 385.737 406.78 382.868 401.071C379.998 395.361 364.087 397.579 361.181 399.04Z" fill="#95C6FF"/>
<path d="M327.036 439.029L337.428 433.806C336.3 431.195 335.026 428.44 333.664 425.73C332.302 423.019 330.851 420.353 329.429 417.89L319.037 423.113L327.036 439.029Z" fill="white"/>
<path d="M327.035 417.36L326.183 417.788L327.43 420.268L324.523 421.728L323.277 419.249L316.672 422.568L326.091 441.311L332.696 437.991L331.45 435.511L334.356 434.05L335.603 436.53L336.454 436.102C335.094 433.03 333.588 429.814 331.965 426.584C330.342 423.355 328.689 420.285 327.035 417.36Z" fill="white"/>
<path d="M333.049 414.986L332.672 414.236L330.734 415.21L331.111 415.96L333.049 414.986Z" fill="black"/>
<path d="M357.998 402.443L357.621 401.693L355.684 402.667L356.06 403.417L357.998 402.443Z" fill="black"/>
<path d="M345.521 408.718L345.145 407.969L343.207 408.943L343.584 409.692L345.521 408.718Z" fill="black"/>
<path d="M342.291 433.386L341.914 432.637L339.976 433.611L340.353 434.36L342.291 433.386Z" fill="black"/>
<path d="M367.244 420.845L366.867 420.096L364.93 421.069L365.306 421.819L367.244 420.845Z" fill="black"/>
<path d="M354.771 427.115L354.395 426.365L352.457 427.339L352.834 428.089L354.771 427.115Z" fill="black"/>
<path d="M329.893 435.713L323.43 422.854L322.784 423.178L329.247 436.038L329.893 435.713Z" fill="#557CA9"/>
<path d="M330.203 427.47C330.58 428.22 330.576 429.016 330.194 429.208C329.813 429.4 329.171 428.928 328.794 428.178C328.417 427.428 328.422 426.632 328.803 426.44C329.185 426.248 329.827 426.72 330.203 427.47Z" fill="black"/>
<path d="M330.991 422.086L329.773 419.664L329.451 419.826L330.668 422.248L330.991 422.086Z" fill="black"/>
<path d="M336.233 432.522L335.016 430.1L334.693 430.262L335.91 432.684L336.233 432.522Z" fill="black"/>
<path d="M320.724 437.287L316.695 429.271L312.615 431.322L316.643 439.338L320.724 437.287Z" fill="white"/>
<path d="M312.121 424.927L312.613 425.907L315.931 424.24L314.945 422.279C314.181 422.88 313.152 423.759 312.121 424.927Z" fill="white"/>
<path d="M321.453 443.495C323.005 443.365 324.324 443.063 325.263 442.808L324.277 440.848L320.96 442.515L321.453 443.495Z" fill="white"/>
<path d="M311.287 433.362L310.156 431.113L309.657 431.364L310.788 433.613L311.287 433.362Z" fill="black"/>
<path d="M315.341 441.435L314.211 439.186L313.712 439.436L314.842 441.685L315.341 441.435Z" fill="black"/>
<path d="M314.977 427.533C315.151 427.879 315.12 428.184 314.973 428.258L312.948 429.276C312.772 429.364 312.509 429.135 312.364 428.846C312.19 428.5 312.221 428.196 312.368 428.122L314.394 427.104C314.541 426.958 314.803 427.187 314.977 427.533Z" fill="white"/>
<path d="M321.09 439.701C321.264 440.047 321.233 440.352 321.087 440.425L319.061 441.444C318.885 441.532 318.623 441.303 318.478 441.014C318.304 440.668 318.335 440.364 318.481 440.29L320.507 439.272C320.654 439.126 320.917 439.355 321.09 439.701Z" fill="white"/>
<path d="M331.708 441.591L330.505 442.196C330.064 442.417 329.364 441.902 328.93 441.037C328.495 440.172 328.499 439.303 328.94 439.082L330.143 438.477C330.437 438.33 331.901 438.244 332.423 439.282C332.974 440.377 332.002 441.444 331.708 441.591Z" fill="#557CA9"/>
<path d="M331.708 441.591L330.505 442.196C330.064 442.417 329.364 441.902 328.93 441.037C328.495 440.172 328.499 439.303 328.94 439.082L330.143 438.477C330.437 438.33 331.901 438.244 332.423 439.282C332.974 440.377 332.002 441.444 331.708 441.591ZM329.288 439.774C329.053 439.892 329.05 440.399 329.282 440.86C329.514 441.322 329.922 441.622 330.157 441.504L331.361 440.899C331.742 440.707 332.186 439.762 332.042 439.473C331.897 439.185 330.873 438.977 330.491 439.169L329.288 439.774Z" fill="white"/>
<path d="M329.611 439.681L329.234 438.932L329.117 438.991L329.494 439.74L329.611 439.681Z" fill="#557CA9"/>
<path d="M330.83 442.105L330.453 441.355L330.336 441.414L330.712 442.164L330.83 442.105Z" fill="#557CA9"/>
<path d="M331.746 440.488C331.717 440.503 331.687 440.59 331.658 440.605L332.034 441.355C332.064 441.34 332.094 441.253 332.123 441.238L331.746 440.488Z" fill="#557CA9"/>
<path d="M330.904 439.106C330.933 439.091 331.021 439.119 331.05 439.104L330.674 438.355C330.644 438.369 330.556 438.341 330.527 438.356L330.904 439.106Z" fill="#557CA9"/>
<path d="M321.369 421.005L320.165 421.61C319.725 421.831 319.025 421.316 318.59 420.451C318.155 419.586 318.16 418.717 318.6 418.496L319.804 417.891C320.097 417.744 321.562 417.658 322.083 418.696C322.605 419.734 321.662 420.858 321.369 421.005Z" fill="#557CA9"/>
<path d="M321.365 421.005L320.161 421.61C319.721 421.831 319.021 421.316 318.586 420.451C318.151 419.586 318.156 418.717 318.596 418.496L319.8 417.891C320.093 417.744 321.558 417.658 322.079 418.696C322.601 419.734 321.658 420.858 321.365 421.005ZM318.944 419.188C318.709 419.306 318.706 419.813 318.938 420.274C319.17 420.736 319.578 421.036 319.813 420.918L321.017 420.313C321.399 420.121 321.843 419.176 321.698 418.888C321.553 418.599 320.529 418.391 320.147 418.583L318.944 419.188Z" fill="white"/>
<path d="M319.24 419.037L318.863 418.287L318.746 418.346L319.123 419.096L319.24 419.037Z" fill="#557CA9"/>
<path d="M320.455 421.459L320.078 420.709L319.961 420.768L320.337 421.518L320.455 421.459Z" fill="#557CA9"/>
<path d="M321.371 419.848C321.342 419.862 321.312 419.95 321.283 419.964L321.659 420.714C321.689 420.699 321.719 420.612 321.748 420.597L321.371 419.848Z" fill="#557CA9"/>
<path d="M320.533 418.465C320.562 418.45 320.65 418.478 320.679 418.464L320.302 417.714C320.273 417.729 320.185 417.701 320.156 417.715L320.533 418.465Z" fill="#557CA9"/>
<path d="M365.462 397.901L374.998 416.874C379.265 412.779 384.984 405.282 382.868 401.072C380.723 396.804 371.294 396.92 365.462 397.901Z" fill="white"/>
<path d="M373.715 403.428L373.223 402.447L372.371 402.875L372.864 403.855L373.715 403.428Z" fill="#4F91D3"/>
<path d="M374.891 402.838L374.398 401.857L373.547 402.285L374.04 403.266L374.891 402.838Z" fill="#4F91D3"/>
<path d="M375.981 407.922L375.488 406.941L374.637 407.369L375.13 408.35L375.981 407.922Z" fill="#4F91D3"/>
<path d="M377.153 407.332L376.66 406.352L375.809 406.779L376.302 407.76L377.153 407.332Z" fill="#4F91D3"/>
<path d="M373.08 408.156L371.312 404.639L370.52 405.037L372.288 408.555L373.08 408.156Z" fill="black"/>
<path d="M379.546 398.409L382.994 405.272C383.442 403.674 383.479 402.211 382.87 401C382.232 399.804 381.065 398.946 379.546 398.409Z" fill="white"/>
<path d="M365.33 401.947L365.095 402.065L364.109 400.104L364.344 399.986L365.33 401.947ZM365.741 401.741L365.506 401.859L364.52 399.898L364.755 399.78L365.741 401.741ZM366.152 401.534L365.917 401.652L364.931 399.691L365.166 399.573L366.152 401.534ZM366.563 401.327L366.328 401.445L365.342 399.485L365.577 399.367L366.563 401.327ZM366.974 401.121L366.739 401.239L365.753 399.278L365.988 399.16L366.974 401.121Z" fill="white"/>
<path d="M372.632 416.476L372.398 416.594L371.412 414.633L371.647 414.515L372.632 416.476ZM373.043 416.269L372.809 416.387L371.823 414.426L372.058 414.308L373.043 416.269ZM373.454 416.062L373.22 416.18L372.234 414.22L372.469 414.102L373.454 416.062ZM373.865 415.856L373.631 415.974L372.645 414.013L372.88 413.895L373.865 415.856ZM373.085 413.792L373.32 413.674L374.306 415.635L374.071 415.753L373.085 413.792Z" fill="white"/>
<path d="M320.8 422.08C320.858 422.195 320.858 422.268 320.799 422.297C320.74 422.327 320.682 422.284 320.624 422.169L319.551 420.035C319.493 419.92 319.494 419.847 319.553 419.818C319.611 419.788 319.67 419.831 319.728 419.946L320.8 422.08Z" fill="black"/>
<path d="M322.152 421.4C322.209 421.516 322.209 421.588 322.15 421.618C322.092 421.647 322.033 421.604 321.975 421.489L320.903 419.355C320.845 419.24 320.845 419.168 320.904 419.138C320.963 419.109 321.021 419.151 321.079 419.267L322.152 421.4Z" fill="black"/>
<path d="M330.015 440.414C330.073 440.529 330.072 440.602 330.014 440.631C329.955 440.661 329.897 440.618 329.839 440.503L328.766 438.369C328.708 438.254 328.709 438.181 328.767 438.152C328.826 438.122 328.884 438.165 328.942 438.28L330.015 440.414Z" fill="black"/>
<path d="M331.366 439.736C331.424 439.852 331.424 439.924 331.365 439.954C331.307 439.983 331.248 439.94 331.19 439.825L330.118 437.691C330.06 437.576 330.06 437.503 330.119 437.474C330.178 437.444 330.236 437.487 330.294 437.603L331.366 439.736Z" fill="black"/>
</svg>
