<svg width="785" height="693" viewBox="0 0 785 693" fill="none" xmlns="http://www.w3.org/2000/svg">
<path fill-rule="evenodd" clip-rule="evenodd" d="M782.826 36.0976C780.978 35.379 780.568 34.0445 780.516 32.3508C780.516 31.6836 780.311 31.0163 780.26 30.4004C778.771 28.8093 776.667 27.8341 776.256 25.7297C778.617 23.3688 778.617 23.3688 778.977 21.8803C779.131 21.2644 779.233 20.4945 779.028 19.9299C778.207 18.0309 777.232 16.2345 776.102 14.0788C772.972 13.1549 769.533 12.1797 766.145 11.1532C764.195 12.4364 762.244 13.6682 760.448 14.9513C760.089 15.2079 760.089 15.8752 759.986 16.2345C761.577 18.2362 763.066 20.0839 765.016 22.4962C763.271 22.5989 762.244 22.6502 761.423 22.6502C759.319 20.1866 757.522 17.7742 755.367 15.7212C754.289 14.6947 752.441 13.5655 751.158 13.7195C748.13 14.1301 745.563 12.693 742.689 12.7443C739.764 12.7443 736.889 12.385 734.015 11.8718C731.962 11.5125 729.601 12.385 727.548 11.9744C725.495 11.5638 723.75 10.1267 721.492 9.76742C717.334 9.20283 713.228 8.53561 708.968 8.43296C706.145 8.38163 703.579 8.79224 700.961 9.7161C698.754 10.486 696.445 10.9992 694.135 11.4099C692.185 11.7691 690.183 11.9231 687.925 12.2311C688.592 14.9513 689.208 17.1583 691.825 18.7494C693.776 19.9299 695.264 21.7777 696.804 23.4714C697.779 24.4979 697.574 25.6784 696.393 26.6536C695.623 27.2695 694.597 27.6288 693.416 28.296C691.723 25.8837 689.516 24.6519 686.59 24.2413C684.383 23.9334 683.665 22.2909 684.075 19.9813C684.178 19.468 684.434 19.0061 684.383 18.4928C684.28 17.107 682.946 16.1318 681.303 16.1318C679.969 16.1318 679.199 16.953 679.302 18.5955C679.404 20.1866 679.507 21.675 678.532 23.3175C673.297 25.1652 666.984 24.0873 662.056 27.8854C661.646 29.3739 661.235 30.965 660.825 32.3508C658.31 32.9667 658.002 29.9385 655.743 30.4004C653.998 30.7597 652.15 30.4517 650.149 30.4517C649.687 29.3226 649.225 28.45 648.917 27.4748C647.634 23.2148 644.041 21.1617 640.243 19.4167C638.241 18.4928 635.983 18.4415 633.827 19.2114C629.772 20.7512 625.615 22.137 622.073 24.7546C620.944 25.6271 619.661 26.3457 618.378 26.9616C617.403 27.4235 615.863 27.4748 615.453 26.397C614.426 23.5741 611.603 23.5741 609.601 22.4449C607.6 23.5228 607.6 23.1635 605.649 23.0608C603.288 22.9582 601.44 21.5724 599.182 21.4697C598.977 21.4697 598.823 20.9564 598.618 20.5972C599.08 19.7759 599.541 18.9034 600.106 17.8769C599.49 17.3123 599.08 16.6964 598.515 16.3885C594.717 14.5921 590.97 14.9513 587.737 17.3636C586.299 18.4415 585.016 18.9547 583.271 18.8008L583.374 18.9034C581.269 17.261 578.857 17.8769 576.547 17.9796C571.979 18.1849 567.463 18.4415 562.895 18.7494C562.689 18.7494 562.536 19.2114 562.33 19.4167C563.254 20.1352 564.178 20.8538 565.256 21.675C563.819 22.7529 562.69 23.5227 561.663 24.4466C560.893 25.1652 561.355 26.551 562.433 26.9616C563.049 27.1669 563.767 27.0642 564.537 27.1155C564.999 29.9385 567.309 31.4782 568.9 33.4286C568.643 33.8906 568.489 34.2499 568.284 34.5065C567.514 35.3277 566.693 34.8658 565.769 34.7631C565.153 34.6605 564.229 34.9171 563.921 35.3277C563.613 35.7383 563.767 36.6622 564.127 37.1241C564.589 37.7913 565.769 38.3559 564.64 39.1258C564.075 39.4851 562.895 39.3311 562.125 39.0745C561.355 38.7665 560.739 38.0993 560.123 37.586C554.221 36.4055 554.221 36.4055 551.449 40.5116C549.088 40.8709 546.573 41.3328 544.11 40.0497C543.648 39.793 542.878 40.0497 542.005 40.101C542.364 43.6938 545.187 46.3627 544.52 50.1095C543.494 50.1609 542.364 50.4688 541.441 50.1609C539.747 49.5963 538.002 48.8777 536.616 47.8512C534.306 46.0548 531.791 44.823 529.02 43.7965C527.891 43.3858 527.018 42.462 525.786 41.5381C527.121 40.9735 528.044 40.6143 528.866 40.255C528.763 37.2781 526.813 36.3542 524.093 36.1489C524.144 32.7101 521.783 30.8623 519.37 29.3739C517.163 27.9881 514.392 26.4996 511.672 27.5261C509.772 28.2447 508.335 28.2447 506.539 27.6802C503.716 26.8589 501.15 27.1669 499.148 30.0411C499.815 31.119 500.585 32.2995 501.201 33.48C501.56 34.1985 501.612 35.0197 501.868 35.7896C499.713 36.6108 497.916 37.432 496.017 38.048C494.837 38.4072 493.4 38.9205 492.322 38.6639C490.525 38.2019 488.832 38.3559 487.035 38.5099C484.418 38.7152 484.007 38.3046 482.929 35.4817C482.775 35.0197 482.416 34.6604 482.057 34.0445C478.618 34.6091 475.179 35.0711 471.843 35.7383C469.687 36.2002 467.685 37.1241 466.71 39.2285C466.608 39.3824 466.197 39.4338 465.94 39.4851C465.376 38.8179 464.811 38.1506 464.452 37.74C463.836 37.74 463.579 37.6887 463.477 37.74C461.321 39.4851 459.165 40.255 456.65 38.1506C455.316 37.0214 453.622 37.1754 451.98 37.5347C451.158 38.5612 450.543 39.6391 451.723 40.7682C452.698 40.6143 453.622 40.5116 454.803 40.3576C452.339 45.2336 449.927 47.5946 445.41 49.9556C443.665 50.8281 447.052 52.2139 444.897 53.0351C444.64 52.8298 444.178 52.6245 444.127 52.4192C443.665 49.1343 443.922 46.0035 446.334 43.2832C446.796 42.7699 447.155 42.1027 447.258 41.4868C447.668 37.0214 448.951 32.7614 450.645 28.604C451.415 26.705 451.826 24.6519 452.339 22.6502C452.75 21.0591 452.339 19.622 451.569 18.1335C450.85 16.7991 449.516 16.9017 448.335 16.4911C447.925 16.3371 447.617 15.8239 447.206 15.3619C448.079 14.9513 448.797 14.5407 449.824 14.0275C448.027 12.4364 446.385 10.9992 444.743 9.61345C444.127 10.0754 443.665 10.3833 442.998 10.8452C440.534 7.30376 436.274 6.58522 432.527 4.73749C429.858 6.02064 427.292 7.20112 424.828 8.38161C424.726 9.81874 424.88 11.0506 424.469 12.1284C424.212 12.7443 423.083 13.2063 422.262 13.3089C421.851 13.3602 420.979 12.539 420.876 12.0258C420.62 10.6913 420.722 9.3055 420.568 7.9197C420.363 6.22595 419.336 5.50738 417.591 5.76401C415.487 6.07196 413.331 6.43122 411.278 6.73918C411.124 6.32857 411.022 6.17461 411.022 6.02064C411.638 1.45264 411.638 1.40131 407.275 0.374793C406.762 0.272141 406.197 0.169471 405.684 0.0668191C403.836 -0.18981 402.809 0.272135 402.142 1.81191C401.732 2.7871 401.475 3.76229 401.218 4.7888C401.013 5.61002 400.756 6.48257 400.705 7.30378C400.654 8.3303 400.705 9.35682 400.808 10.3833C400.91 11.4099 400.962 12.4877 401.424 13.4115C401.886 14.2841 402.861 14.9513 403.528 15.7725C404.041 16.4398 404.247 17.3123 404.709 18.0309C405.222 18.8008 406.813 18.0309 407.172 19.2114C404.76 20.3406 401.834 19.0574 399.884 21.1618C400.962 22.137 401.886 23.0095 402.809 23.882C402.861 23.882 402.963 23.882 403.015 23.882L402.912 23.9847C402.861 23.9334 402.861 23.9334 402.809 23.882C400.859 23.728 399.011 23.5741 397.831 25.7297C396.753 27.6801 394.546 28.1934 392.134 28.6553C392.134 27.2695 392.134 25.9864 392.134 24.8059C390.081 24.2926 389.721 25.4731 389.465 26.7049C384.64 28.0394 384.64 28.0394 382.587 30.1438C382.998 30.811 383.408 31.5296 383.819 32.2481C382.484 33.8392 380.637 34.7631 378.84 35.379C376.582 36.1489 375.401 37.894 373.862 39.2798C372.579 40.4603 371.757 42.0514 370.782 43.4885C370.526 43.8478 370.372 44.4637 370.526 44.8743C371.398 47.5433 369.55 48.4671 366.779 49.2883C367.908 50.1609 368.626 50.6741 369.294 51.1874H369.191C369.602 51.9573 369.961 52.7272 370.372 53.4971C372.835 54.7289 375.863 55.2935 377.762 57.9624C376.89 59.0916 376.069 60.1694 375.247 61.2472C375.145 61.3499 374.837 61.2986 374.58 61.3499C374.683 60.3234 374.786 59.3995 374.888 58.4243C374.17 58.3217 373.708 58.1677 373.451 58.2703C368.678 60.426 363.853 62.4277 358.772 63.8135C357.027 64.2755 356.411 66.0206 357.232 67.6117C358.259 69.6134 359.593 71.4611 360.568 73.4628C361.338 75.0026 362.313 75.9778 364.212 76.1317C365.65 76.2344 367.241 76.0291 368.165 77.4149C369.345 79.1086 371.09 79.8785 373.04 80.4944C374.272 80.8537 375.504 81.5723 375.658 82.9068C375.966 85.5757 377.608 87.68 378.943 89.8871C377.455 90.7596 376.12 91.5295 374.837 92.2994C373.913 89.5791 372.425 87.0128 373.708 83.9333C374.17 82.8041 372.681 81.6749 371.141 82.1369C368.164 83.0607 366.009 82.1882 363.597 80.4944C361.133 78.8007 358.31 77.3122 355.025 77.5689C353.537 77.6715 352.664 78.3901 352.613 80.0838C353.075 80.3918 353.793 80.6998 354.204 81.213C354.563 81.6749 354.871 82.4962 354.717 83.0094C354.461 83.9846 353.485 84.2412 352.51 83.9333C351.638 83.6766 350.868 83.1634 349.995 82.9581C349.533 82.8554 348.712 83.0094 348.558 83.3174C348.25 83.8306 348.045 84.6518 348.301 85.1651C349.225 87.2695 351.124 88.142 353.331 88.8092C354.82 89.2198 356.668 88.6039 358.156 90.5543C354.409 90.4003 351.073 91.2216 347.634 89.7844C346.3 87.3208 344.503 84.9598 344.144 81.8802C343.939 80.2891 343.323 78.6981 341.116 76.953C341.68 78.852 342.091 79.7759 342.194 80.7511C342.245 81.7263 342.348 83.0094 341.783 83.728C339.833 86.2429 340.192 88.8606 340.449 90.2977C342.296 92.4021 343.169 93.8391 344.401 94.763C346.3 96.2001 347.121 97.8426 347.018 100.101C346.916 104.053 348.712 107.338 351.073 110.366C352.818 110.52 354.255 110.417 355.384 109.34C356.77 108.005 358.259 108.056 359.901 108.724C360.928 109.134 361.851 109.75 362.929 109.955C365.085 110.417 366.265 111.906 367.703 113.24C369.242 114.677 367.446 116.217 368.165 117.603C368.165 117.603 368.216 117.603 368.216 117.654V117.706C368.216 117.654 368.165 117.654 368.165 117.603C367.343 116.987 366.419 116.474 365.752 115.755C364.058 114.01 362.467 112.162 360.979 110.469C358.721 110.828 357.283 111.957 355.949 113.086C354.512 114.318 354.255 115.858 355.641 117.141C358.002 119.399 358.669 121.709 357.181 124.583C356.822 125.302 357.181 126.277 357.027 127.098C356.873 128.125 356.668 129.151 356.206 130.075C355.179 132.026 353.999 133.873 352.869 135.875C349.328 135.362 345.53 135.978 342.348 133.822C343.271 133.771 344.247 133.719 344.657 132.693C345.325 132.898 346.043 132.949 346.659 133.257C347.891 133.925 349.02 133.565 349.379 132.539C350.919 128.227 353.28 123.967 351.381 119.091C350.97 118.014 351.022 116.731 350.868 115.447C347.172 113.805 345.581 110.777 344.452 107.389C343.477 104.618 342.296 101.846 341.526 99.0231C340.962 96.9187 340.038 94.8657 338.242 93.7878C335.624 92.1967 335.419 90.041 335.265 87.5774C335.059 84.4978 335.059 81.367 333.366 78.8007C329.465 76.645 325.718 77.2096 321.817 78.2874C321.099 80.8537 321.458 83.42 321.663 85.9863C321.92 88.9632 321.971 91.6835 319.97 94.3524C318.738 95.9948 318.584 98.2532 320.585 99.9983C322.587 101.743 323.408 104.053 323.152 106.517C322.946 108.621 323.922 110.007 325.769 110.52C327.874 111.085 329.208 112.316 330.645 113.6C331.672 114.523 333.006 115.191 334.187 115.961C334.597 117.449 334.854 118.937 333.366 120.683C329.978 117.808 325.975 116.217 321.971 114.729C320.637 114.216 318.994 114.113 317.917 113.292C313.041 109.648 307.6 110.725 302.262 111.239C300.26 114.831 304.469 116.115 304.931 118.681C304.674 120.734 301.8 121.042 301.698 123.249C301.646 123.762 300.209 123.608 299.85 123.095C299.131 121.966 299.798 120.169 297.848 119.656C297.54 119.707 297.13 119.707 296.822 119.861C293.896 121.145 291.484 123.454 287.891 123.249C287.121 123.198 286.094 124.327 285.427 125.097C284.195 126.431 282.758 126.79 280.911 126.123C280.757 125.148 280.705 124.121 280.397 123.198C280.089 122.12 278.55 121.76 277.78 122.633C276.291 124.429 274.341 125.302 272.031 125.867C270.389 126.226 269.208 127.304 268.028 128.484C265.923 130.64 263.665 132.59 261.201 134.9C261.201 134.849 261.099 135.156 260.996 135.516C260.893 135.824 260.893 136.183 260.791 136.542C259.816 140.186 256.326 141.264 253.451 138.647C252.425 137.723 251.039 137.004 251.142 134.951C252.168 133.976 253.4 132.795 254.632 131.666C252.733 127.92 249.961 126.328 245.701 127.406C245.393 127.458 245.085 127.458 244.726 127.509C245.906 130.178 247.036 132.847 246.522 135.824C246.317 137.056 246.779 138.082 247.805 139.057C249.961 141.008 249.653 143.266 248.319 145.678C245.958 145.268 243.853 144.908 241.595 144.498C239.285 147.423 235.538 149.066 234.358 153.121C235.025 154.096 235.949 155.225 236.462 156.457C236.719 157.124 236.462 158.099 236.154 158.818C235.744 159.69 234.717 159.844 233.793 159.485C231.432 158.51 229.123 157.483 226.813 156.508C226.043 156.2 225.171 155.995 224.042 155.584C223.58 156.713 222.81 157.74 223.015 158.561C223.169 159.434 224.093 160.357 224.965 160.871C225.838 161.435 227.07 161.487 227.994 162C228.507 162.308 228.917 163.078 228.969 163.642C229.071 164.669 228.096 165.439 227.275 165.336C225.684 165.182 224.093 164.669 222.656 164.053C221.065 163.386 219.576 162.411 217.831 161.435C217.318 160.203 216.907 158.715 216.137 157.329C215.367 155.892 214.854 154.558 215.008 152.915C215.213 150.554 213.828 149.271 211.518 148.296C209.106 147.321 207.001 145.73 205.77 143.112C206.488 143.112 206.847 143.009 207.155 143.112C212.288 145.37 217.626 146.961 223.169 148.039C225.735 148.553 228.199 148.45 230.765 147.783C234.409 146.859 236.154 144.395 237.078 141.264C237.489 139.878 237.232 138.595 236.308 137.363C234.512 134.797 231.843 133.257 229.071 132.026C226.249 130.742 223.528 129.408 221.065 127.663C216.651 124.532 211.775 123.146 206.18 123.813C204.846 123.967 203.409 123.506 202.074 123.352C202.074 122.325 202.228 121.606 202.023 121.042C201.869 120.683 201.253 120.272 200.791 120.169C200.175 120.067 199.2 120.067 198.841 120.426C197.198 122.017 195.299 120.631 193.605 120.991C191.552 121.401 190.526 120.375 189.602 118.681C191.912 118.373 194.324 118.168 195.145 115.396C192.887 113.651 190.166 113.035 187.498 112.47C186.625 113.497 186.009 114.216 184.777 115.601C184.675 113.856 184.726 112.881 184.521 112.009C184.418 111.444 184.11 110.674 183.648 110.417C182.673 109.904 181.852 110.52 181.39 111.29C180.928 112.009 180.928 112.932 180.569 113.702C180.312 114.216 179.799 114.677 179.388 115.191C178.669 114.421 178.259 113.959 177.592 113.24C176.616 114.883 175.744 116.32 174.769 117.962C173.537 115.755 175.333 114.267 175.539 112.47C173.691 112.008 172.1 112.06 170.971 113.908C170.457 114.78 169.585 115.447 168.969 116.269C168.25 117.192 167.686 118.168 167.172 118.835C164.965 118.63 163.272 117.038 161.219 118.424C161.681 119.348 162.091 120.067 162.451 120.785C158.344 122.53 158.344 122.53 154.136 122.633C153.982 122.633 153.879 122.684 153.725 122.684C153.161 123.095 152.647 123.506 152.083 123.865C151.826 123.967 151.569 124.121 151.313 124.224C151.569 124.173 151.877 124.121 152.134 124.07C151.364 125.507 150.389 125.969 148.644 125.148C147.412 124.583 146.129 125.969 146.642 127.15C146.847 127.612 147.258 127.971 147.617 128.279C148.746 129.203 148.541 130.075 147.566 130.845C146.796 131.461 145.924 131.974 145.102 132.539C145.77 133.206 146.437 133.822 147.104 134.489C143.973 135.926 141.458 137.723 140.483 141.11C140.226 142.034 140.021 142.907 139.764 143.779C139.559 144.549 137.917 144.806 137.25 145.576C136.377 146.653 135.607 147.885 135.196 149.168C134.221 152.248 133.451 155.379 132.579 158.51C132.425 158.972 132.476 159.793 132.22 159.896C129.859 160.768 129.602 163.488 127.498 164.618C125.855 165.49 124.777 166.876 124.213 168.57C123.597 170.469 122.262 171.752 120.62 172.932C119.491 173.754 118.413 174.729 117.335 175.601L117.438 175.653C116.36 175.755 115.282 175.858 114.05 175.961C114.102 176.628 114.204 177.244 114.256 177.86C112.767 178.783 111.279 179.707 109.79 180.631C106.557 182.582 106.146 183.711 107.429 187.765C108.507 187.765 109.585 187.817 110.663 187.765C111.792 187.714 113.024 186.739 114.461 188.433C111.741 188.587 109.482 188.741 107.019 188.895C106.967 191.204 107.635 192.795 109.739 193.668L109.636 193.719C110.971 196.286 108.456 197.62 107.275 199.262C107.84 199.673 108.096 199.93 108.404 200.084C110.303 200.854 110.714 201.623 109.636 202.855C109.072 203.471 107.994 203.676 108.61 205.216C109.636 205.883 110.971 206.756 112.305 207.629C114.974 209.425 117.489 208.501 119.953 207.269C120.723 206.91 121.185 206.037 121.852 205.473C123.032 204.446 124.161 203.317 125.445 202.393C127.292 201.11 127.344 201.162 128.216 198.236C129.345 200.494 130.526 202.445 131.193 204.754C132.271 208.296 132.989 212.094 135.402 215.173C136.274 216.251 137.044 217.381 137.917 218.612C137.506 219.382 137.096 220.152 136.685 220.922C137.763 221.949 138.789 223.026 139.867 224.053C141.356 224.156 142.844 224.309 143.563 222.616C144.076 221.333 145.205 220.563 146.488 220.511C149.465 220.46 151.415 218.715 153.52 217.226C152.493 215.789 151.877 214.25 152.083 212.505C152.339 210.605 152.853 208.758 152.75 206.91C152.647 204.857 153.571 203.42 155.265 202.701C158.704 201.264 159.32 198.595 159.32 195.054C158.19 193.925 157.061 192.18 155.368 191.307C153.007 190.075 152.442 188.381 152.545 186.174C152.596 184.789 152.955 183.403 152.853 182.068C152.699 179.656 153.52 177.654 155.162 175.909C156.651 174.369 158.139 172.932 159.73 171.495C161.065 170.315 162.604 169.34 163.785 168.056C165.325 166.363 166.351 164.464 165.889 161.949C165.633 160.46 165.787 158.818 166.3 157.381C166.865 155.789 167.84 153.993 169.893 153.788C172.202 153.582 174.666 153.736 176.976 154.096C179.491 154.506 180.722 156.097 180.261 158.15C178.259 160.717 176.565 162.924 174.82 165.131C172.972 167.492 171.484 170.161 169.225 172.06C167.121 173.856 166.505 175.601 167.224 177.911C168.302 181.401 168.918 184.943 168.815 188.587C168.815 188.895 169.02 189.254 169.123 189.459C171.997 190.999 174.82 192.539 178.156 194.335C180.671 193.463 183.648 192.179 186.83 191.461C190.166 190.691 193.657 190.486 196.941 190.075C198.481 191.204 199.867 192.231 201.509 193.411C199.816 194.438 198.173 195.054 197.198 196.183C195.504 198.133 193.759 198.339 191.398 197.569C187.908 196.388 184.521 197.415 181.287 198.647C179.029 199.519 178.721 200.546 179.08 202.753C179.439 204.806 180.569 206.191 182.776 206.91C182.776 208.655 182.878 210.195 182.724 211.735C182.622 213.018 181.903 213.993 179.491 213.89C179.029 213.377 178.361 212.351 177.438 211.478C175.898 210.092 173.742 210.195 172.767 211.889C171.279 214.455 169.893 217.124 170.868 220.255C171.433 222.051 171.997 223.899 171.381 225.747C170.047 226.465 168.353 226.876 167.686 227.902C166.813 229.185 165.941 230.007 164.401 230.212C162.399 230.417 161.424 229.288 160.551 227.851C160.397 227.646 159.936 227.594 159.422 227.389C153.622 228.21 149.26 232.214 143.511 234.831C142.331 233.599 141.099 232.368 139.456 230.674C137.301 231.341 134.581 232.162 132.117 232.932C130.218 232.008 128.473 231.136 126.779 230.315C126.214 229.237 125.393 228.21 125.085 227.081C124.88 226.209 125.239 225.182 125.342 224.258C125.291 224.258 125.291 224.258 125.239 224.258C125.291 224.258 125.291 224.207 125.342 224.207C127.087 222.924 127.96 221.127 128.575 219.074C127.241 217.688 127.087 216.046 127.652 214.25C127.908 213.377 127.754 212.505 126.368 212.197C125.906 212.505 125.291 212.864 124.726 213.274C124.315 213.582 123.956 213.993 123.494 214.301C122.878 214.712 122.16 214.917 121.646 215.379C121.287 215.635 120.928 216.251 121.031 216.611C121.236 217.38 121.031 217.791 120.62 218.407C119.439 220.511 119.491 222.821 120.415 225.182C121.338 227.594 122.314 230.007 122.365 232.624C122.416 234.215 120.877 236.166 119.491 235.704C116.771 234.831 114.974 236.73 112.716 237.09C107.737 237.86 104.35 240.374 103.477 245.302C103.22 246.79 102.451 247.817 101.065 248.535C100.141 249.049 99.3197 249.87 98.3445 250.28C96.5994 251.102 95.4189 252.128 94.957 254.027C94.7517 254.9 93.8791 256.029 93.0066 256.337C91.1075 257.055 89.3625 257.671 88.1306 259.365C87.874 259.776 86.7448 259.827 86.0776 259.724C84.6918 259.468 83.3574 258.954 81.6636 258.441C81.6636 260.084 81.6636 261.572 81.6636 263.266C80.1751 263.368 78.6867 263.882 77.7115 263.42C74.9913 262.239 72.7842 263.368 70.1666 264.138C70.3206 265.319 70.4746 266.294 70.5772 267.321C72.3736 267.988 74.0674 268.706 75.8124 269.22C77.5062 269.733 78.892 270.708 79.3539 272.197C80.0212 274.404 81.8689 275.533 83.46 276.867C84.2812 280.768 83.4087 284.515 82.9981 288.261C82.9467 288.775 82.6901 289.237 82.4335 289.699C81.8689 290.93 80.7397 291.752 79.4053 291.546C74.5806 290.725 69.602 291.546 64.7774 290.469C62.0058 289.853 58.9776 289.647 56.1034 289.853C54.4609 289.955 52.9211 291.29 51.33 292.111C50.8681 292.368 50.4575 292.727 50.2522 292.829C50.6628 294.883 51.0734 296.525 51.2787 298.219C51.9973 303.146 51.5353 307.868 48.9691 312.333C48.5584 313.052 48.3018 314.284 48.6611 314.797C50.7141 317.261 50.5088 320.289 51.1247 323.42C52.6132 323.574 54.1016 324.087 55.4361 323.882C58.4643 323.368 60.4147 324.344 61.5439 327.012C61.5952 327.166 61.7492 327.32 61.8518 327.474C63.135 329.066 64.2128 329.322 66.0605 328.142C68.8834 326.345 71.8604 325.37 75.3506 325.678C76.9417 325.832 78.738 325.575 80.1238 324.959C81.7149 324.241 83.2547 323.163 84.3839 321.88C85.975 320.032 87.2068 317.928 88.5926 315.875C88.6952 315.772 88.5926 315.516 88.5926 315.362C88.0793 314.232 87.6174 313.155 87.0015 311.769C89.6191 308.381 91.5182 304.429 96.3942 302.992C98.8578 302.273 100.295 300.477 100.398 297.962C100.449 296.782 100.552 295.55 100.808 294.369C101.373 292.008 103.015 290.879 105.581 291.29C108.25 291.752 110.868 292.419 113.64 293.035C116.411 291.187 119.439 289.288 122.365 287.286C123.494 286.516 124.675 286.362 126.009 286.722C128.062 287.235 129.448 288.415 130.628 290.109C134.478 295.806 138.635 301.247 145.975 303.351C146.488 303.505 146.796 304.018 147.309 304.224C149.67 305.302 151.159 307.406 153.263 308.638C155.265 309.818 155.727 311.512 156.394 313.257C157.215 315.31 156.343 316.901 154.906 318.544C152.801 318.903 150.594 319.16 148.49 319.673C146.437 320.135 144.179 318.954 141.818 320.597C144.897 323.625 148.439 324.959 151.98 325.986C152.391 325.627 152.596 325.524 152.647 325.421C153.212 323.112 152.237 319.827 156.702 320.135C156.959 320.135 157.318 319.724 157.472 319.468C158.498 317.671 159.576 315.875 160.449 313.976C160.654 313.462 160.243 312.641 159.987 312.025C159.73 311.409 159.217 310.845 159.063 310.178C158.755 308.279 160.551 306.79 162.451 307.355C163.426 307.663 164.298 308.125 165.581 308.638C165.53 307.817 165.633 307.149 165.376 306.893C162.091 303.659 156.959 302.992 153.982 299.297C153.828 299.091 153.314 299.091 152.955 299.091C150.081 298.835 148.285 297.038 147.053 294.883C145.41 292.06 143.357 289.75 140.534 288.005C139.2 287.184 138.635 285.952 138.738 284.463C138.841 283.437 138.943 282.41 139.046 281.538C140.38 280.306 141.715 279.536 143.409 279.844C144.076 281.23 144.64 282.359 145.154 283.488C146.54 283.026 147.515 282.667 148.695 282.308C149.568 283.54 150.594 284.566 151.107 285.849C152.185 288.672 154.392 290.109 157.215 291.29C162.245 293.343 167.019 295.909 170.149 300.528C170.201 300.99 170.252 301.504 170.252 302.017C170.047 305.199 170.56 308.125 173.178 310.486C174.358 311.512 175.231 312.898 176.206 314.13C177.335 315.669 178.413 317.261 179.542 318.852C178.721 320.956 180.928 321.88 181.544 323.42C182.416 325.575 184.264 325.883 186.266 325.575C187.138 323.779 187.857 322.239 188.575 320.699C190.936 320.186 190.936 318.441 190.834 316.491C189.448 315.875 188.011 315.259 187.087 314.848C186.317 312.949 185.701 311.512 185.137 310.126C184.88 309.51 184.521 308.843 184.469 308.176C184.418 307.765 184.88 307.303 185.085 306.79C186.163 307.303 187.087 307.714 188.062 308.176C188.627 307.817 189.191 307.611 189.499 307.201C190.372 305.918 190.936 304.378 192.989 304.327C194.632 304.275 196.274 304.07 197.865 304.224C199.456 304.378 200.38 305.558 200.534 307.047C200.637 308.227 200.534 309.459 200.534 310.537C204.332 313.36 204.178 314.386 202.177 317.877C203.203 319.262 204.281 320.597 205.256 321.983C206.488 323.779 207.925 325.267 210.338 325.575C211.826 325.781 213.006 326.397 214.187 327.269C216.291 328.809 218.344 328.501 220.551 326.602C221.065 326.14 221.321 325.473 221.475 325.319C224.555 325.165 226.505 326.089 228.199 327.526C229.585 328.706 231.124 328.655 232.818 328.45C235.385 328.193 236.976 326.499 238.772 325.062C240.671 325.37 242.416 325.627 244.11 325.883C244.213 327.782 244.007 329.579 244.469 331.17C245.136 333.531 244.623 335.687 243.956 337.791C242.827 341.23 241.492 344.617 240.107 348.005C239.696 348.929 239.029 349.853 238.259 350.571C237.643 351.136 236.719 351.7 235.949 351.752C233.588 351.803 231.073 352.06 228.866 351.392C225.273 350.314 221.989 350.468 218.806 352.111C217.267 352.932 215.778 353.035 214.084 352.624C209.824 351.7 205.462 351.033 201.202 350.058C197.865 349.288 194.529 348.313 191.244 347.338C190.577 347.132 189.91 346.773 189.345 346.311C186.112 343.745 182.519 344.155 178.926 345.284C176.154 346.157 174.923 348.21 175.333 350.93C175.436 351.598 175.795 352.265 175.898 352.932C176.103 354.728 174.871 355.806 173.537 356.73C172.356 357.551 171.073 357.243 169.944 356.576C169.02 356.012 168.199 355.293 167.275 354.78C164.914 353.394 162.502 352.111 159.628 352.162C157.215 352.214 155.829 350.982 155.214 348.98C154.7 347.286 153.571 346.311 151.826 345.952C149.516 345.438 147.155 344.463 144.897 344.669C140.021 345.131 136.685 342.256 132.836 340.409C131.809 339.947 131.655 338.561 132.374 337.688C132.835 337.175 133.4 336.713 133.913 336.2C135.658 334.66 136.018 332.761 134.375 331.17C132.733 329.579 134.119 327.936 133.759 326.448C133.143 326.089 132.579 325.883 132.271 325.524C130.628 323.625 128.729 323.317 126.42 324.446C124.418 325.473 122.314 325.627 120.004 325.319C118.259 325.062 116.257 324.703 114.666 325.216C111.946 326.14 109.328 325.883 106.608 325.678C105.171 325.575 103.734 325.986 102.297 326.14C101.013 326.294 99.7816 326.756 98.4985 326.653C95.7782 326.499 93.4685 327.423 91.1589 328.552C89.6704 329.271 88.2846 329.989 86.7962 330.657C82.5361 332.453 78.7381 333.172 74.0674 333.069C72.425 333.069 70.6799 333.531 69.1401 333.12C67.4977 332.71 66.0605 331.581 64.2128 330.605C63.5969 331.837 62.9297 332.864 62.6217 333.941C61.6465 337.124 59.9014 339.587 56.5652 340.819C55.898 341.076 55.3334 341.589 54.7175 341.948C51.8946 343.539 48.815 344.874 48.6097 348.621C48.6097 349.031 47.9939 349.493 47.6859 349.904C46.6594 351.238 46.0435 352.675 46.5054 354.267C47.5832 358.013 45.4275 360.734 42.9639 362.992C41.0648 364.737 38.5499 366.174 36.0349 366.995C33.7252 367.765 32.2368 368.946 31.0563 370.742C30.4917 371.615 29.9785 372.795 29.1573 373.154C26.3857 374.386 25.3592 376.799 24.0247 379.006C23.2035 380.34 22.4849 381.828 21.407 382.958C18.0709 386.345 16.7877 390.759 14.2214 394.557C12.8869 396.456 12.8357 398.817 15.2993 400.562C15.9152 400.973 16.4284 402.154 16.2744 402.821C15.5559 405.336 16.6851 407.594 16.8904 409.955C17.0444 411.495 16.9417 413.035 16.6338 414.523C16.2232 416.525 15.6073 418.578 14.8374 420.477C14.0161 422.53 12.8357 424.429 11.7578 426.482C13.1436 428.638 15.1967 430.691 13.7595 433.514C14.2728 435.515 14.6834 437.928 16.993 438.595C20.2779 439.519 21.407 442.29 23.4601 444.241C24.076 444.857 24.4866 445.729 25.2052 446.088C28.0794 447.628 29.7218 449.784 30.5944 452.864C31.3643 455.686 32.75 458.663 35.7783 459.946C39.679 461.64 42.6559 464.412 46.0434 466.721C48.4044 468.313 51.0221 469.647 53.5884 470.93C54.9229 471.597 56.36 471.751 57.7971 470.982C61.3899 469.031 65.342 468.621 69.3967 468.364C72.3736 468.159 75.1966 468.056 78.0195 469.082C78.9947 469.442 80.2265 469.75 81.2017 469.493C83.6653 468.877 86.2316 468.261 88.3873 467.029C92.596 464.668 97.2153 463.745 101.886 462.975C106.865 462.102 109.688 463.745 111.997 468.21C112.305 468.826 112.562 469.493 112.87 470.109C113.588 471.443 114.769 472.265 116.36 472.265C118.208 472.265 120.004 472.111 121.852 471.905C123.853 471.649 125.804 471.289 128.062 470.93C128.729 471.7 129.294 472.778 130.167 473.24C132.066 474.164 132.476 475.858 132.887 477.5C133.4 479.399 132.938 481.247 132.117 483.043C131.706 484.018 130.885 484.993 130.936 485.866C131.296 489.305 129.756 492.23 128.524 494.797C129.807 499.775 132.784 503.214 136.48 506.191C137.044 506.653 137.557 507.115 138.122 507.577C140.483 509.373 141.869 511.734 142.895 514.403C143.717 516.508 144.846 518.458 145.616 520.562C146.437 522.821 147.669 525.233 147.463 527.44C147.155 530.519 147.771 533.188 149.003 535.96C150.697 539.604 150.389 542.94 146.95 545.815C144.486 547.919 142.69 550.485 142.639 553.873C142.587 555.002 141.92 556.182 141.356 557.26C139.508 560.699 139.867 564.343 140.072 567.936C140.124 568.757 140.534 569.681 141.048 570.297C145.872 575.481 146.95 582.513 150.851 588.158C151.056 588.415 151.107 588.826 151.159 589.134C151.775 593.548 152.339 598.013 153.058 602.427C153.828 607.252 155.008 611.871 158.652 615.669C160.089 617.158 161.167 619.057 161.989 620.956C163.374 624.138 164.452 627.474 165.684 630.708C166.351 632.401 166.711 633.941 165.787 635.686C165.427 636.353 165.53 637.329 165.735 638.098C166.095 639.587 166.659 641.024 167.172 642.41C168.456 643.231 169.585 644.104 170.868 644.822C171.638 645.233 172.818 645.797 173.383 645.541C176.257 644.206 179.593 644.771 182.365 643.539C185.188 642.307 188.165 642.205 190.936 642.666C193.657 643.128 195.915 642.718 198.327 641.845C199.148 641.537 200.021 641.075 200.894 641.024C203.819 640.87 206.18 639.638 208.387 638.047C213.366 634.454 217.934 630.554 221.475 625.626C223.528 622.752 225.479 619.878 228.507 617.722C229.585 616.952 230.457 615.618 231.022 614.386C232.459 611.05 233.793 607.611 232.51 603.967C233.999 602.119 235.744 600.939 237.9 600.271C238.926 599.963 240.055 599.758 241.082 599.399C243.648 598.475 245.085 596.884 245.496 594.061C245.958 590.571 245.855 587.235 244.777 583.847C244.367 582.513 244.007 581.178 243.648 579.844C243.34 578.56 243.597 577.38 244.777 576.61C250.782 572.709 255.299 566.909 262.536 564.651C263.357 564.395 264.127 563.779 264.846 563.265C269.26 560.289 272.236 556.644 271.107 551.101C270.953 550.434 271.056 549.715 271.107 549.048C271.261 544.788 271.467 540.477 271.621 536.217C265.821 531.957 266.385 526.106 266.95 520.1C266.129 518.92 265.256 517.637 264.23 516.2C265.256 514.095 266.18 512.042 267.258 510.092C268.182 508.398 269.362 506.858 270.183 505.165C271.056 503.419 272.185 502.034 273.982 500.905C275.624 499.878 277.061 498.441 278.242 496.901C282.142 492.025 287.121 488.176 291.689 483.967C292.356 483.351 293.126 482.889 293.896 482.427C302.467 477.705 308.267 470.828 312.322 462.41C313.656 459.587 314.94 456.764 316.89 454.198C319.713 450.605 320.637 446.345 320.38 441.931C320.329 441.161 319.867 440.443 319.456 439.313C315.504 441.367 311.552 441.777 307.6 442.444C302.416 443.368 297.13 443.728 292.202 445.781C290.714 446.396 289.277 445.986 288.199 444.908C286.659 443.42 285.171 441.931 283.682 440.443C284.606 437.312 284.606 437.312 282.758 435.464C281.988 434.745 281.321 433.924 280.551 433.154C277.472 430.023 274.751 426.533 270.132 425.045C267.874 424.326 266.385 422.376 265.718 420.015C265.359 418.681 264.897 417.346 264.486 416.012C263.768 413.805 262.587 411.905 260.432 410.622C257.249 408.723 255.607 406.106 255.71 402.461C255.761 401.127 255.042 399.793 254.837 398.407C254.324 395.122 252.784 392.504 249.448 391.067C247.703 390.349 246.779 389.014 246.984 387.372C247.241 385.062 245.958 383.42 244.828 381.675C243.237 379.16 241.184 376.799 240.107 374.078C238.515 369.972 236.565 366.174 233.434 362.889C233.024 362.479 232.356 361.811 233.691 361.144C234.204 361.811 234.717 362.479 235.282 363.095C236.206 364.172 237.181 365.199 238.207 366.174C238.875 366.79 239.645 367.047 240.671 366.636C243.34 365.61 243.905 365.558 245.136 367.252C248.832 372.179 252.989 376.799 255.196 382.752C260.586 384.703 262.639 388.86 262.947 394.095C263.152 397.483 264.692 399.998 267.823 401.692C270.44 403.129 272.288 405.079 273.314 407.902C273.879 409.493 275.162 410.828 276.24 412.213C277.215 413.445 278.293 414.626 279.422 415.806C280.808 417.295 281.629 419.091 281.526 421.042C281.27 425.353 283.374 429.1 284.503 433C285.171 435.259 286.556 435.515 289.277 435.31C291.946 435.105 293.177 432.692 295.538 432.333C297.848 431.974 300.414 432.59 302.467 431.255C305.342 429.459 309.14 429.408 311.706 426.995C312.271 426.431 313.4 426.379 314.272 426.123C316.377 425.455 318.481 424.891 320.534 424.121C322.023 423.556 323.768 422.992 324.332 421.401C325.153 419.091 327.001 418.372 329.26 417.859C331.723 417.295 334.135 416.525 336.804 415.755C337.728 414.112 338.447 411.957 341.116 411.803C341.578 411.752 342.245 411.341 342.399 410.982C343.528 408.569 345.684 407.44 348.712 406.876C347.429 403.385 348.969 401.332 351.689 399.177C353.947 397.432 356.154 394.968 355.898 391.683C354.82 390.503 353.537 389.425 352.664 388.142C351.484 386.294 349.893 385.678 347.737 385.473C342.964 385.011 341.064 383.214 340.038 378.8C339.73 377.466 339.473 376.183 339.165 374.643C336.189 376.439 334.341 378.749 332.544 381.11C331.056 383.112 329.26 384.087 326.591 383.933C325 383.83 323.357 384.241 321.766 384.395C320.38 384.549 319.148 383.984 318.635 382.804C318.276 382.034 318.173 381.161 318.019 380.34C317.711 378.698 317.403 377.055 316.993 374.694C315.658 376.234 314.837 377.158 313.656 378.544C312.681 376.901 311.706 375.823 311.398 374.54C310.782 372.025 309.345 370.075 307.343 368.484C305.29 366.893 304.11 364.788 302.673 362.787C301.133 360.58 300.517 358.424 302.878 355.96C304.931 355.96 307.292 355.96 309.55 355.96C311.86 359.348 314.067 362.53 316.223 365.712C319.046 366.533 321.561 367.663 323.973 369.356C327.463 371.769 331.723 373.36 336.137 370.486C336.702 370.126 337.472 369.921 338.19 369.767C339.576 369.356 340.757 369.716 341.475 370.947C342.45 372.59 343.323 374.284 344.247 375.926C349.328 376.593 354.255 377.004 359.08 377.979C362.416 378.646 365.598 378.544 368.883 378.236C373.194 377.876 377.557 377.568 381.92 377.261C382.998 377.209 384.076 377.312 385.513 377.415C387.206 379.519 388.952 381.623 391.261 384.395C392.801 384.549 394.751 385.627 396.342 387.474C397.061 388.347 398.498 388.706 399.576 389.271C400.294 389.63 401.475 389.271 401.834 390.708C400.962 391.272 399.987 391.888 398.806 392.607C400.346 394.095 401.732 395.481 403.117 396.764C403.631 397.226 404.195 397.688 404.863 397.996C405.632 398.355 406.659 398.971 407.377 398.766C408.917 398.304 410.406 397.534 411.74 396.713C412.921 395.994 413.023 394.763 412.921 393.479C412.869 392.658 412.972 391.734 414.306 391.683C414.563 392.864 414.82 394.044 415.025 395.225C416 400.306 416.257 405.49 417.899 410.417C419.542 415.139 420.414 420.169 423.442 424.378C425.136 426.687 426.214 429.254 427.035 431.871C427.959 434.694 429.037 437.414 431.347 439.57C432.219 440.391 432.784 441.572 433.297 442.65C434.17 444.703 434.991 446.858 435.658 448.963C436.325 450.964 437.095 452.915 438.84 454.301C440.226 455.43 442.125 455.327 443.1 453.839C444.794 451.221 447.925 449.733 449.105 446.653C449.413 445.832 450.594 445.267 451.364 444.6C450.902 441.315 450.85 438.236 452.339 435.31C452.75 434.489 452.749 433.206 452.39 432.333C451.21 429.459 452.082 426.482 451.774 423.608C451.723 422.941 452.39 421.914 453.006 421.452C454.751 420.272 456.65 419.348 458.498 418.321C459.114 417.962 460.089 417.603 460.192 417.141C460.756 414.626 463.22 413.805 464.811 412.213C466.915 410.058 469.43 408.313 471.021 405.695C471.894 404.258 472.972 403.077 475.025 402.513C477.54 401.794 479.131 399.741 479.388 397.021C479.439 396.354 479.696 395.687 479.85 395.173C483.853 392.966 483.853 392.761 486.009 393.018C490.577 393.531 494.221 392.196 496.684 388.604C499.507 388.347 500.534 389.989 500.944 391.94C501.92 396.61 504.794 399.639 509.311 401.486C509.773 401.692 510.132 402.154 510.491 402.461C510.337 403.539 510.234 404.515 510.081 405.9C512.698 405.9 513.571 407.645 514.289 409.442C515.059 411.341 515.521 413.24 515.008 415.498C514.187 418.988 516.599 420.631 520.14 419.348C520.962 419.04 521.783 418.526 522.553 418.065C524.041 417.141 525.478 416.166 526.915 415.242C529.379 416.935 530.303 419.296 531.021 421.863C531.791 424.686 532.766 427.509 533.998 430.177C535.897 434.386 537.334 438.595 536.051 443.214C535.846 444.035 535.949 444.908 535.897 445.729C535.846 447.064 535.795 448.449 535.692 449.784C535.589 450.964 535.487 452.145 535.384 453.325C539.234 455.84 541.287 459.587 544.007 462.821C544.571 463.488 544.879 464.361 545.085 465.182C545.598 467.183 545.906 469.236 546.471 471.238C546.778 472.367 547.343 473.445 547.908 474.472C548.575 475.652 549.396 476.833 550.269 477.91C553.04 481.247 556.428 483.71 560.842 484.839C561.971 485.147 563.1 484.07 562.69 482.992C562.279 481.863 561.971 480.528 561.15 479.707C559.353 477.859 558.84 475.652 559.148 473.445C559.764 469.134 557.198 466.619 554.118 464.309C552.27 462.923 550.217 461.846 548.216 460.614C546.83 459.741 545.187 458.869 545.187 457.175C545.239 453.993 542.878 452.042 541.03 450.195C538.874 448.09 538.669 446.14 539.285 443.625C540.311 439.775 541.287 435.926 542.313 432.077C542.365 431.82 542.775 431.615 543.34 431.101C543.956 431.409 544.982 431.666 545.239 432.23C545.957 433.822 547.035 434.54 548.883 434.899C551.603 435.413 554.067 436.747 555.247 439.313C556.376 441.726 558.737 442.65 560.842 443.933C562.228 444.754 563.665 445.421 564.845 445.986C565.615 448.039 563.973 450.143 566.231 451.837C568.438 450.759 570.183 449.014 571.826 447.269C573.057 445.935 574.392 445.113 576.188 444.497C581.577 442.598 585.016 437.671 584.246 432.846C583.733 429.613 582.604 426.482 581.526 423.351C580.602 420.631 578.857 418.219 576.342 416.833C572.031 414.523 569.413 410.879 566.385 407.491C564.691 405.592 564.742 403.385 565.718 401.692C567.565 398.458 569.259 394.865 573.673 393.736C574.7 393.479 575.675 392.915 576.701 392.453C578.293 392.915 579.832 393.377 581.321 393.787C581.783 394.865 582.091 395.892 582.604 396.764C583.066 397.534 583.887 397.996 584.914 397.329C585.068 396.354 585.222 395.379 585.375 394.557C589.892 392.094 595.692 392.094 598.72 387.269C601.081 388.552 603.186 387.012 605.495 386.704C608.472 386.294 611.244 385.678 612.681 382.701C612.886 382.29 613.553 382.085 613.964 381.777C619.251 377.774 622.946 372.949 622.946 366.174C624.742 365.148 625.923 363.659 626.488 361.76C626.744 360.939 626.796 359.912 627.36 359.348C629.618 357.192 629.259 354.626 629.003 352.06C629.362 351.906 629.772 351.752 630.132 351.598C629.721 351.444 629.362 351.29 628.951 351.136C629.31 350.212 629.618 349.442 628.797 348.364C627.771 346.927 625.923 347.645 624.435 346.824C625.923 345.387 627.155 344.258 628.489 342.975C627.463 341.692 626.59 340.665 625.769 339.639C625.718 339.69 625.718 339.69 625.666 339.741L625.769 339.639C626.333 339.074 626.898 338.51 627.514 337.894C626.898 337.124 626.539 336.354 625.974 336.097C623.357 334.814 621.868 332.504 620.893 330.195C619.507 326.91 617.249 324.754 613.964 323.266C613.502 323.06 613.245 322.496 612.835 322.034C612.886 320.853 612.63 319.57 613.143 318.492C613.913 316.799 615.042 315.208 616.222 313.719C618.275 311.153 621.509 310.332 624.229 309.254C624.64 307.406 624.178 306.482 622.535 306.277C621.098 306.123 619.353 306.431 618.275 305.815C615.504 304.224 613.861 305.302 612.27 307.303C611.962 307.714 611.552 308.073 611.141 308.433C610.269 309.1 608.575 309.151 608.164 308.279C607.138 306.02 604.879 305.199 603.032 303.967C602.313 303.454 601.594 302.838 601.03 302.171C599.644 300.528 600.465 298.373 602.672 297.911C603.545 297.705 604.417 297.603 605.136 297.449C606.008 295.652 606.316 293.599 607.548 292.675C609.55 291.187 610.525 289.237 611.757 287.338C612.783 285.798 614.221 285.387 616.017 286.311C616.89 286.773 617.505 287.646 618.224 288.313C617.608 289.699 616.838 290.776 616.684 291.906C616.53 293.035 617.044 294.215 617.198 295.396C617.3 296.371 617.198 297.295 617.198 298.835C618.327 297.808 619.045 297.244 619.61 296.628C624.229 291.752 627.103 291.187 633.724 294.061C633.724 295.447 633.622 296.987 633.776 298.475C633.878 299.81 633.16 301.144 634.135 302.479C635.418 304.275 637.112 303.197 638.652 303.403C640.705 303.659 643.015 305.712 643.168 307.406C642.758 308.073 642.347 308.792 641.885 309.562C643.99 311.769 644.811 314.232 644.298 317.209C643.99 318.903 644.144 320.699 646.659 321.726C648.609 320.597 650.816 319.622 653.485 319.519C655.589 319.416 657.591 317.004 657.129 315.002C656.411 311.82 655.179 308.741 654.152 305.61C650.559 302.222 648.66 297.449 643.99 294.883C641.937 293.753 641.834 291.752 643.374 290.007C644.195 289.083 645.273 288.415 646.094 287.492C648.198 285.028 650.149 282.564 648.455 279.074C647.685 277.534 648.352 275.943 649.43 274.711C651.432 272.299 653.639 270.041 655.949 267.526C656.872 268.039 657.745 268.552 658.617 269.117C660.414 270.297 662.159 269.99 663.699 268.86C664.674 268.142 665.649 267.218 666.265 266.243C667.292 264.652 668.164 262.907 668.934 261.161C670.884 256.901 672.783 252.59 674.682 248.279C675.093 247.355 675.196 246.277 675.401 245.302C676.171 241.042 676.53 236.679 677.813 232.573C679.251 228.056 678.429 223.899 676.53 220.049C674.58 216.149 673.759 212.248 673.707 208.091C673.707 205.524 673.913 202.855 671.757 200.802C671.86 198.955 669.961 197.723 669.858 196.08C669.704 193.822 668.369 192.693 666.573 191.718C665.598 191.204 664.469 190.896 663.699 190.178C661.44 188.022 658.977 187.868 656.154 189.049C655.692 190.434 656.051 192.231 654.306 193.052C653.844 193.257 653.331 193.36 652.818 193.463C652.253 192.693 651.791 192.026 651.329 191.41C650.2 191.564 649.174 191.718 648.404 191.872C647.326 189.87 646.453 188.227 645.581 186.585C644.708 186.688 644.195 186.79 643.682 186.842C642.963 186.944 642.245 187.15 641.526 187.098C639.73 187.047 638.754 185.866 639.37 184.327C639.781 183.351 640.243 182.428 640.807 181.504C642.86 178.014 644.862 174.523 644.965 170.366C644.965 169.545 645.273 168.57 645.786 167.902C649.328 162.975 648.25 156.816 650.816 151.683C650.97 151.375 650.867 151.016 650.867 150.657C650.97 146.448 651.329 145.884 655.025 144.549C656.564 143.985 658.104 143.369 659.644 142.958C661.03 142.65 662.621 142.188 663.904 142.547C666.214 143.266 665.906 139.981 667.908 140.597C668.061 140.648 668.267 140.546 668.472 140.546C670.782 140.289 673.091 139.981 675.247 139.724C677.198 135.054 677.198 135.054 682.022 135.464C683.305 135.567 684.588 135.464 685.82 135.721C686.795 135.926 687.719 136.491 688.592 136.902C687.925 139.673 687.925 139.673 689.618 140.751C692.903 139.93 694.648 136.44 698.395 136.286C699.114 136.234 699.781 134.951 700.859 133.822C699.062 133.206 697.779 132.744 696.599 132.334C695.623 130.588 695.059 128.895 695.726 127.201C697.266 123.198 697.574 119.194 697.009 114.985C696.701 112.881 697.831 111.393 699.986 110.571C703.271 109.288 706.556 108.313 710.303 108.467C710.662 110.366 710.97 112.163 711.329 114.164C712.972 114.883 714.563 115.601 716.462 116.423C717.95 112.368 717.283 108.159 719.952 105.182C718.823 102.308 716.718 100.101 717.232 96.7134C718.155 96.3541 719.233 95.6869 720.362 95.4816C721.081 95.3789 721.954 95.9949 723.339 96.4568C721.492 98.1506 721.543 99.793 722.518 101.435C724.828 105.182 725.906 109.34 726.727 114.01C722.929 116.063 722.98 119.656 723.237 123.352C723.288 124.019 723.339 124.789 723.083 125.405C721.44 129.562 721.8 133.873 721.851 138.185C721.851 139.365 721.748 140.648 721.235 141.675C720.208 143.625 718.823 145.37 717.437 147.423C719.028 149.066 719.079 151.221 718.104 153.121C716.616 156.046 717.129 158.869 718.207 161.641C719.541 165.028 720.876 168.467 722.518 171.7C724.109 174.78 726.06 177.757 728.01 180.683C729.858 183.454 731.5 186.482 733.861 188.792C735.863 190.742 736.889 193.001 738.07 195.31C738.481 196.08 738.686 196.953 739.096 197.723C739.815 199.108 740.944 199.776 742.689 199.365C745.358 196.132 746.025 192.693 744.332 188.741C743.818 187.56 743.972 186.072 743.818 184.943C745.153 183.813 746.179 182.941 747.309 181.966C746.641 180.734 745.974 179.707 745.512 178.578C744.691 176.576 745.102 174.523 745.615 172.47C746.077 170.623 747.822 170.315 749.259 169.647C749.875 169.391 750.285 168.775 750.645 168.364C750.388 166.209 748.643 165.285 747.565 163.95C745.41 161.333 744.64 158.458 745.717 155.276C746.898 155.071 747.925 154.866 748.9 154.66C749.618 151.94 746.59 151.119 746.539 149.117C745.512 148.963 744.794 148.912 744.126 148.809C742.689 145.986 742.689 145.986 742.792 143.882C742.792 143.728 742.843 143.523 742.895 143.369C743.048 142.034 742.587 141.008 741.303 140.34C739.712 139.519 739.148 141.11 737.916 141.47C735.298 139.93 734.836 137.415 734.785 134.797C734.734 131.358 734.785 127.868 732.886 124.737C732.629 124.327 732.527 123.762 732.527 123.249C732.424 121.966 732.629 120.58 734.118 120.323C736.581 119.861 737.403 117.962 738.635 116.371C738.891 116.012 739.507 115.961 739.815 115.807C741.149 116.269 740.79 118.373 742.895 117.962C743.1 117.398 743.305 116.73 743.562 116.115C743.87 115.293 744.075 114.472 744.537 113.754C746.539 110.571 749.977 109.853 753.416 111.649C754.905 112.47 756.034 114.113 758.241 113.805C758.292 113.24 758.446 112.727 758.446 112.265C758.549 107.081 759.473 102 761.013 97.124C762.193 93.4286 764.4 89.9384 766.71 86.6535C767.223 85.935 767.736 85.2677 768.301 84.6005C769.43 83.3174 770.816 82.7014 772.612 82.8041C774.049 82.8554 775.435 82.8041 776.77 82.8041C777.745 81.1103 778.053 79.4679 777.026 78.1335C775.281 75.9778 774.049 73.3601 770.97 72.4363C769.635 72.0257 768.404 71.2558 767.942 71.0505C766.915 69.4081 766.556 67.8169 765.683 67.5603C764.143 67.0984 763.014 66.6878 762.706 65.0454C762.655 64.6861 761.834 64.1215 761.526 64.1728C758.549 64.8401 756.804 62.8897 755.059 61.3499C753.776 61.7092 752.749 62.1198 751.723 62.2738C751.363 62.3251 750.85 61.7605 750.593 61.3499C750.439 61.1446 750.593 60.5287 750.747 60.4774C751.979 59.9641 752.852 59.1429 753.16 57.8597L753.108 57.8084C753.724 58.373 754.289 59.1429 755.059 59.5535C758.549 61.2986 761.731 59.4508 761.885 55.7554C761.936 54.7289 761.68 53.651 761.885 52.6758C762.706 48.6724 761.064 46.0035 757.317 44.3097C755.777 43.5911 754.648 42.5646 754.135 40.8196C754.597 39.9983 755.008 39.0745 755.572 38.202C755.726 37.9453 756.137 37.894 756.855 37.586C757.625 40.409 759.627 41.7948 763.168 41.9487C764.041 39.6904 764.657 36.8675 768.506 36.8675C769.943 37.9966 771.637 39.2798 773.69 40.8709C775.846 38.8692 778.515 39.1771 781.286 39.3311C782.21 39.3824 783.237 38.6639 784.109 38.3046C784.212 37.9453 784.212 36.6108 782.826 36.0976Z" fill="#678FC0" fill-opacity="0.8"/>
<path fill-rule="evenodd" clip-rule="evenodd" d="M574.34 504.909C573.313 503.267 572.441 501.881 571.722 500.649C569.515 500.239 569.464 501.625 569.053 502.702C567.873 502.856 566.59 502.6 566.333 501.471C565.615 498.699 563.459 497.364 560.79 496.389C560.995 494.952 561.201 493.823 561.355 492.643C561.611 490.795 558.942 491.205 558.737 489.717C558.737 489.563 558.686 489.358 558.686 489.204C558.326 486.894 556.376 488.331 555.247 487.921C554.015 486.637 552.988 485.098 551.551 484.122C547.907 481.659 544.109 479.349 540.876 476.372C539.849 475.448 538.412 474.884 537.231 474.063C536.256 473.395 527.582 468.519 526.504 468.211C525.991 468.057 525.529 467.698 524.965 467.647C524.451 467.595 523.681 467.647 523.476 467.903C523.168 468.417 522.911 469.238 523.117 469.751C523.835 471.804 525.632 473.241 527.479 474.268C530.559 476.013 532.509 478.631 534.716 481.197C537.18 484.122 540.106 486.791 541.081 490.589C541.132 490.743 541.286 490.897 541.389 491C544.674 493.515 546.008 497.159 547.343 500.701C548.061 502.548 549.088 504.037 550.473 505.474C554.682 509.785 559.148 513.789 564.588 517.382C565.307 517.382 566.385 517.484 567.462 517.33C568.489 517.176 569.515 516.714 570.542 516.406C571.107 512.711 571.671 509.169 572.236 505.628C572.903 505.474 573.519 505.217 574.34 504.909Z" fill="#678FC0" fill-opacity="0.8"/>
<path fill-rule="evenodd" clip-rule="evenodd" d="M607.854 530.57C609.24 529.646 610.574 530.108 612.011 530.365C612.73 530.519 613.397 530.057 612.987 528.773C609.651 528.773 606.982 526.31 603.44 526.258C602.927 526.258 602.465 525.129 601.952 524.462C599.847 523.487 597.794 522.409 595.639 521.536C594.458 521.075 593.329 521.229 592.097 522.05C589.223 523.897 585.835 523.538 583.423 521.742C580.6 519.586 577.572 519.227 574.287 519.073C572.08 518.97 570.848 519.791 570.797 522.306C572.234 523.282 573.62 524.821 575.416 525.335C581.267 527.08 587.478 526.977 593.431 528.773C597.64 530.057 602.465 528.876 606.776 530.621C607.084 530.775 607.597 530.724 607.854 530.57Z" fill="#678FC0" fill-opacity="0.8"/>
<path fill-rule="evenodd" clip-rule="evenodd" d="M590.2 500.596C590.354 502.239 591.124 503.83 591.586 505.472C593.177 505.626 594.409 505.78 595.641 505.934C596.36 506.037 597.335 505.986 597.694 506.396C599.131 508.193 600.825 507.885 602.57 507.217C603.853 506.755 604.982 507.115 606.265 507.32C608.575 507.679 609.91 509.373 611.501 510.502C613.502 509.835 615.248 509.322 616.582 508.86C617.301 506.755 618.276 505.01 618.378 503.214C618.532 501.007 619.354 499.313 620.739 497.619C621.612 496.542 622.177 495.258 622.741 493.975C624.64 489.767 624.589 489.767 628.849 488.175C627.925 487.252 627.104 486.43 626.283 485.558C625.821 485.045 625.051 484.326 625.153 483.915C625.821 481.965 624.435 480.682 623.665 479.142C622.741 477.397 623.46 475.703 624.435 474.266C625.051 473.342 627.104 473.753 626.95 472.008C626.796 470.16 629.567 470.879 629.619 469.236C629.413 468.98 629.259 468.569 629.003 468.466C626.642 467.234 624.23 466.259 622.998 463.59C622.228 461.897 619.713 461.999 618.378 463.488C617.916 464.001 617.455 464.617 617.249 465.233C616.479 467.799 614.118 469.339 612.014 470.16C609.191 471.238 607.651 473.086 606.009 475.139C604.264 477.346 602.621 479.553 599.388 480.22C597.797 480.528 596.719 481.914 595.949 483.402C595.487 484.275 594.923 485.147 594.255 486.122C591.997 485.609 589.893 485.147 587.994 484.737C586.094 485.866 585.222 487.457 585.325 489.202C585.478 492.282 586.197 495.412 588.404 497.773C589.533 498.646 590.098 499.313 590.2 500.596Z" fill="#678FC0" fill-opacity="0.8"/>
<path fill-rule="evenodd" clip-rule="evenodd" d="M771.071 606.84C768.813 604.428 767.222 601.964 767.735 598.68C765.938 597.653 764.399 596.832 763.372 596.216C762.038 592.674 761.37 589.338 759.625 586.618C758.393 584.719 755.724 583.641 753.671 582.153C753.363 581.947 753.056 581.793 752.696 581.639C750.797 580.818 750.13 579.33 749.976 577.482C749.771 574.248 749.771 570.964 747.666 568.089C747.204 567.474 747.41 566.396 747.358 565.574C747.256 564.189 747.256 562.803 747.153 561.417C746.896 558.851 745.665 557.722 742.739 557.106C742.226 557.003 741.764 556.798 741.507 556.746C740.07 552.076 738.736 547.662 737.299 543.248C737.145 542.786 736.426 542.426 735.656 541.811C734.835 543.607 734.014 544.993 733.603 546.43C732.628 549.92 731.345 553.41 731.191 556.952C730.986 561.93 729.292 566.396 727.444 570.861C726.212 573.838 722.568 574.608 720.258 572.298C717.333 569.373 713.535 567.679 710.096 565.523C707.427 563.881 705.271 561.982 703.321 559.518C705.117 556.592 704.655 552.794 708.351 550.844C709.223 550.382 709.48 548.791 710.147 547.508C709.172 547.148 708.299 546.533 707.991 546.738C706.76 547.508 705.528 547.097 704.296 547.046C700.549 546.892 697.264 545.403 693.826 544.428C693.056 544.223 692.132 544.223 691.311 544.12C690.9 546.019 689.668 547.046 687.615 547.097C685.562 547.148 683.406 547.097 682.021 548.586C679.044 551.768 674.886 554.437 675.605 559.775C673.193 559.621 671.037 559.467 668.933 559.313C668.933 559.364 668.984 559.364 668.984 559.415L668.881 559.313C667.547 557.773 666.879 555.669 664.672 554.95C660.207 556.233 660.207 556.233 652.56 562.649C652.252 563.983 651.944 565.266 651.687 566.396C650.353 566.601 649.326 566.755 648.556 566.858C648.043 568.346 649.48 570.04 647.273 570.604C646.247 569.578 645.323 568.654 644.604 567.987C641.627 569.013 640.447 570.656 640.601 573.273C640.652 574.146 639.933 575.172 639.369 575.994C638.702 577.02 637.829 577.893 637.162 578.919C635.673 581.075 633.62 582.204 630.9 582.615C627.872 583.128 624.895 583.898 621.918 584.668C620.378 585.078 618.89 586.207 617.35 586.259C614.014 586.31 611.55 588.004 608.727 589.133C605.904 590.262 603.954 592.674 600.926 593.444C600.464 593.547 600.002 594.574 600.002 595.189C600.002 597.653 599.232 599.86 598.154 602.118C597.128 604.171 597.538 606.532 598.257 608.688C598.565 609.663 599.129 610.587 599.386 611.614C599.797 613.153 598.873 613.821 597.436 614.129C597.436 614.077 597.436 614.077 597.436 614.026C597.333 614.847 596.974 615.72 597.128 616.541C598.308 624.035 600.361 631.374 600.361 639.022C600.361 639.689 600.772 640.356 600.823 641.023C600.977 644.873 600.413 648.568 597.487 651.597C595.28 653.906 595.331 654.419 597.59 656.729C598.103 657.242 598.513 657.807 599.078 658.269C601.798 660.527 605.032 660.887 608.317 659.86C610.524 659.193 612.833 658.32 614.681 656.934C618.377 654.214 622.329 654.112 626.64 654.727C628.282 654.933 629.925 655.138 631.567 654.933C632.748 654.779 634.288 654.317 634.903 653.496C636.803 650.929 639.318 649.544 642.397 648.722C643.218 648.466 643.937 647.747 644.758 647.388C645.733 646.977 646.862 646.413 647.838 646.567C651.841 647.183 655.434 646.002 659.027 644.565C663.081 642.974 667.341 643.744 671.499 643.846C671.858 643.846 672.32 644 672.474 644.206C674.065 646.156 676.529 646.31 678.736 647.029C681.199 647.85 683.612 648.774 683.406 651.904C683.406 652.212 683.612 652.572 683.868 652.828C686.178 655.189 686.229 658.115 686.281 661.092C686.281 661.656 686.691 662.221 687.051 663.247C689.206 661.246 690.746 659.141 692.85 658.012C695.211 656.78 696.033 653.906 699.42 653.085C699.009 654.522 698.907 655.549 698.496 656.421C697.983 657.499 697.11 658.423 696.494 659.501C695.981 660.425 695.571 661.4 695.365 662.426C695.109 663.504 693.415 663.966 693.826 665.249C697.213 666.019 696.751 662.529 698.599 661.759C700.703 663.863 698.753 666.07 698.958 668.175C699.779 668.226 700.447 668.277 701.216 668.329C702.192 671.254 703.013 674.077 702.243 677.362C701.473 680.801 703.372 684.035 706.862 685.42C710.096 686.703 712.919 688.449 715.947 690.553C717.795 689.321 719.642 688.192 721.336 686.96C722.003 686.447 722.363 685.472 723.543 685.985C725.442 687.627 724.467 690.861 727.136 692.041C729.548 691.733 731.345 690.553 732.987 689.167C735.4 687.063 738.222 686.19 741.456 686.036C745.613 685.882 746.127 685.215 747.358 681.366C748.488 677.927 749.001 674.18 751.567 671.357C754.339 668.277 756.186 664.736 758.137 661.194C759.523 658.731 761.216 656.524 763.526 654.779C766.708 652.315 768.556 649.03 769.942 645.489C771.379 641.588 772.559 637.585 774.356 633.838C775.485 631.477 775.947 629.27 775.331 626.858C774.818 624.753 774.818 622.803 775.382 620.75C776.768 615.309 774.664 610.741 771.071 606.84Z" fill="#678FC0" fill-opacity="0.8"/>
<path fill-rule="evenodd" clip-rule="evenodd" d="M714.666 499.673C712.51 502.29 708.712 503.06 706.916 506.088C706.608 506.602 705.786 506.858 704.965 507.371C703.271 505.934 701.68 504.549 700.141 503.214C700.141 501.828 700.243 500.596 700.089 499.416C699.935 498.287 699.525 497.158 699.268 496.182C691.415 493.565 690.337 493.719 686.898 498.03C687.72 498.646 688.849 499.159 689.311 499.98C690.44 501.982 692.134 502.547 694.341 502.393C695.059 502.342 695.778 502.239 696.548 502.188C697.369 502.136 698.036 502.341 697.779 503.368C695.778 503.933 693.725 504.548 691.672 505.113C692.596 506.909 693.417 508.552 694.443 510.502C695.726 509.63 696.702 508.963 697.933 508.09C699.987 509.27 702.091 510.708 704.4 511.631C706.915 512.658 709.687 513.069 712.305 513.89C713.485 514.249 714.666 514.916 715.692 515.584C716.411 516.045 717.181 516.661 717.591 517.38C718.669 519.536 719.593 521.743 720.619 524.052C719.439 524.874 718.361 525.489 717.489 526.311C716.873 526.875 716.308 527.696 717.232 528.928C718.464 528.826 719.85 528.723 721.287 528.518C723.802 528.158 726.009 528.364 727.548 530.673C728.267 531.751 729.242 532.47 730.628 532.624C732.989 532.932 735.299 533.342 737.66 533.496C738.481 533.548 739.713 533.137 740.072 532.572C740.534 531.854 740.329 530.725 740.431 529.801C741.355 528.98 742.228 528.107 743.203 527.337C744.897 526.003 746.796 525.541 748.797 526.567C751.364 527.85 754.187 528.672 755.572 531.495C756.137 532.726 757.523 533.548 758.344 534.728C759.832 536.781 761.885 537.602 764.452 537.705C766.864 537.808 769.174 538.116 771.329 539.245C771.637 539.399 772.151 539.142 773.229 538.988C770.252 536.319 767.172 534.317 765.324 531.597C763.425 528.672 759.627 527.132 758.806 523.282C759.422 522.872 760.038 522.513 760.5 522.051C761.68 520.921 761.526 519.844 760.038 519.228C757.882 518.304 755.675 517.431 753.673 516.61C751.877 512.761 751.928 512.709 748.541 510.656C747.463 509.989 746.334 509.424 745.153 509.014C739.559 506.961 733.913 504.908 728.267 502.957C724.828 501.777 721.338 500.802 717.848 499.673C716.667 499.262 715.333 498.851 714.666 499.673Z" fill="#678FC0" fill-opacity="0.8"/>
<path fill-rule="evenodd" clip-rule="evenodd" d="M672.321 317.928C668.522 321.161 666.521 325.729 663.236 329.322C662.774 329.784 662.825 331.119 663.185 331.632C663.441 332.042 664.724 331.786 665.854 331.888C665.854 333.12 666.008 334.301 665.802 335.43C665.494 337.278 666.316 338.817 667.137 340.357C667.599 341.178 669.344 341.538 670.011 340.871C670.883 340.049 671.91 339.279 671.91 337.894C671.91 336.354 671.756 334.763 672.115 333.274C672.731 330.759 671.653 328.963 669.908 327.372C669.395 326.91 668.676 326.653 669.241 325.575C671.859 325.473 673.501 322.65 676.427 322.804C679.455 322.958 681.251 319.622 684.382 320.238C684.793 321.88 684.998 323.42 685.563 324.857C686.025 326.037 687 326.859 688.54 326.551C691.311 322.855 691.516 322.445 692.081 319.468C693.518 319.519 695.007 319.878 696.392 319.622C697.522 319.416 698.651 317.774 699.421 317.979C701.833 318.544 701.114 316.08 702.398 315.67C702.86 315.516 703.321 315.259 703.578 315.156C704.297 315.823 704.964 316.85 705.528 316.799C706.196 316.747 707.068 315.926 707.428 315.259C707.992 314.181 708.043 313.001 707.53 311.769C706.966 310.332 706.401 308.792 706.504 307.303C706.658 304.275 706.144 301.504 704.502 298.27C707.787 295.344 707.171 291.803 706.452 288.518C705.682 285.131 703.578 282.256 700.704 279.998C699.369 280.152 698.138 280.306 697.06 280.409C695.212 282.462 696.084 284.72 696.854 286.414C699.78 292.676 697.316 298.219 694.904 303.762C694.185 305.404 692.389 306.431 690.541 306.482C689.617 306.482 688.694 305.404 687.616 304.686C687.924 308.279 686.127 311.307 685.357 314.438C683.356 314.643 681.713 314.694 680.122 314.951C678.48 315.208 676.837 315.464 675.349 316.029C674.322 316.439 673.193 317.158 672.321 317.928Z" fill="#678FC0" fill-opacity="0.8"/>
<path fill-rule="evenodd" clip-rule="evenodd" d="M701.114 255.413C700.293 254.745 699.523 253.975 698.753 253.257C697.573 252.179 696.29 251.255 694.801 250.947C693.569 251.563 693.621 252.436 694.134 253.206C695.622 255.515 695.828 258.082 695.879 260.648C695.879 261.982 696.033 263.317 696.084 264.651L693.313 266.499C691.517 269.219 691.157 271.786 693.826 274.249C694.391 274.814 694.596 275.738 695.161 276.816C696.444 275.789 697.419 274.916 698.497 274.044C697.06 272.863 695.879 271.94 694.647 270.913C695.315 270.554 695.622 270.348 695.93 270.194C698.702 268.603 701.32 268.398 703.886 270.656C704.553 271.221 705.836 271.221 706.914 271.478C707.222 270.759 707.53 270.297 707.582 269.784C707.889 267.269 709.224 265.729 711.944 265.165C712.868 264.959 713.689 264.087 714.818 263.368C713.638 261.777 712.663 260.391 711.688 259.057C706.093 258.697 704.451 258.184 701.114 255.413Z" fill="#678FC0" fill-opacity="0.8"/>
<path d="M109.037 189.291C86.7033 185.625 82.792 174.161 52.5008 194.499C17.5001 217.999 -8.4994 348 33.0008 341.499C39.6193 340.463 48.6562 339.71 62.5006 333.791C80.8377 325.952 104.733 314.713 111 316.708C122 320.208 142.501 338.291 167.501 338.291C190.501 338.291 197.907 326.961 219.537 338.291C230.037 343.791 266.5 420.5 286 436C308.5 438.5 330.5 424.5 330.5 424.5C330.5 424.5 348.185 414.663 354 408C367.293 392.768 356.546 381.703 345 379C340 369 330.723 370.178 330.5 382" stroke="#F9F9F9" stroke-width="2" stroke-dasharray="4 4"/>
<path d="M26.3996 311.128L29.1454 260.143C29.2408 258.371 27.9882 254.027 25.9878 250.365L25.8695 250.161L9.37079 249.273L9.23129 249.463C6.84922 252.888 5.13721 257.073 5.0418 258.845L2.29596 309.83C2.1281 312.946 6.31398 328.834 13.3388 329.212C20.3637 329.591 26.2317 314.244 26.3996 311.128Z" fill="#7FA3C9"/>
<path d="M25.8212 311.097L28.567 260.112C28.6589 258.406 27.4654 254.163 25.4041 250.433L9.67877 249.586C7.22872 253.073 5.58468 257.196 5.49457 258.87L2.74873 309.854C2.5738 313.102 6.91155 328.57 13.2919 328.914C19.6723 329.257 25.6462 314.345 25.8212 311.097Z" fill="#95C6FF"/>
<path d="M8.05899 261.605L7.43349 273.219C10.2604 273.536 13.2841 273.797 16.3132 273.96C19.3423 274.124 22.3766 274.188 25.2212 274.177L25.8467 262.563L8.05899 261.605Z" fill="white"/>
<path d="M26.8696 272.359L26.9208 271.407L24.1496 271.258L24.3245 268.01L27.0958 268.159L27.4933 260.777L6.54771 259.649L6.15014 267.031L8.9214 267.18L8.74647 270.428L5.97521 270.279L5.92397 271.231C9.26644 271.575 12.8058 271.864 16.4149 272.059C20.024 272.253 23.5095 272.342 26.8696 272.359Z" fill="white"/>
<path d="M25.9473 278.758L26.7852 278.803L26.9018 276.637L26.0639 276.592L25.9473 278.758Z" fill="black"/>
<path d="M24.4473 306.644L25.2852 306.689L25.4018 304.524L24.5639 304.479L24.4473 306.644Z" fill="black"/>
<path d="M25.1934 292.699L26.0312 292.744L26.1479 290.579L25.31 290.534L25.1934 292.699Z" fill="black"/>
<path d="M5.38092 277.65L6.21875 277.695L6.33537 275.53L5.49754 275.485L5.38092 277.65Z" fill="black"/>
<path d="M3.88092 305.537L4.71875 305.582L4.83537 303.417L3.99754 303.372L3.88092 305.537Z" fill="black"/>
<path d="M4.63092 291.596L5.46875 291.641L5.58537 289.475L4.74754 289.43L4.63092 291.596Z" fill="black"/>
<path d="M9.51869 265.732L23.8906 266.506L23.9295 265.784L9.55757 265.01L9.51869 265.732Z" fill="#557CA9"/>
<path d="M16.5197 270.091C15.6818 270.045 14.9923 269.646 15.0153 269.22C15.0383 268.793 15.7666 268.471 16.6045 268.516C17.4423 268.561 18.1318 268.96 18.1088 269.386C18.0858 269.813 17.3575 270.136 16.5197 270.091Z" fill="black"/>
<path d="M20.801 273.448L23.5078 273.594L23.5272 273.233L20.8204 273.087L20.801 273.448Z" fill="black"/>
<path d="M9.13693 272.819L11.8438 272.965L11.8632 272.604L9.15637 272.458L9.13693 272.819Z" fill="black"/>
<path d="M12.7058 256.988L21.6641 257.471L21.9097 252.91L12.9514 252.428L12.7058 256.988Z" fill="white"/>
<path d="M27.7056 255.659L26.61 255.6L26.4103 259.308L28.6016 259.426C28.4595 258.464 28.2079 257.134 27.7056 255.659Z" fill="white"/>
<path d="M6.95561 254.542C6.29783 255.955 5.90492 257.25 5.66033 258.191L7.85156 258.309L8.05123 254.601L6.95561 254.542Z" fill="white"/>
<path d="M20.799 250.744L23.3125 250.879L23.3425 250.321L20.8291 250.186L20.799 250.744Z" fill="black"/>
<path d="M11.7795 250.257L14.293 250.393L14.323 249.835L11.8095 249.699L11.7795 250.257Z" fill="black"/>
<path d="M24.027 256.842C23.6403 256.821 23.3913 256.643 23.4001 256.479L23.5221 254.215C23.5327 254.018 23.862 253.904 24.1842 253.922C24.5709 253.943 24.8199 254.121 24.811 254.285L24.6891 256.548C24.743 256.749 24.4136 256.863 24.027 256.842Z" fill="white"/>
<path d="M10.4293 256.109C10.0426 256.089 9.79365 255.911 9.80249 255.747L9.92441 253.483C9.93501 253.286 10.2643 253.172 10.5866 253.189C10.9732 253.21 11.2222 253.388 11.2134 253.552L11.0914 255.816C11.1453 256.016 10.816 256.13 10.4293 256.109Z" fill="white"/>
<path d="M3.52008 264.389L3.59252 263.044C3.61903 262.552 4.4136 262.2 5.38033 262.252C6.34705 262.304 7.09922 262.739 7.07272 263.232L7.00027 264.577C6.9826 264.905 6.33013 266.219 5.17006 266.156C3.94554 266.09 3.50241 264.717 3.52008 264.389Z" fill="#557CA9"/>
<path d="M3.52008 264.389L3.59252 263.044C3.61903 262.552 4.4136 262.2 5.38033 262.252C6.34705 262.304 7.09922 262.739 7.07272 263.232L7.00027 264.577C6.9826 264.905 6.33013 266.219 5.17006 266.156C3.94554 266.09 3.50241 264.717 3.52008 264.389ZM6.29934 263.19C6.31348 262.927 5.87471 262.674 5.35912 262.646C4.84354 262.618 4.38003 262.823 4.3659 263.086L4.29345 264.431C4.27048 264.857 4.87079 265.712 5.19303 265.73C5.51527 265.747 6.20393 264.962 6.2269 264.535L6.29934 263.19Z" fill="white"/>
<path d="M6.21686 263.513L7.05469 263.559L7.06176 263.427L6.22393 263.382L6.21686 263.513Z" fill="#557CA9"/>
<path d="M3.50983 263.367L4.34766 263.412L4.35472 263.281L3.5169 263.236L3.50983 263.367Z" fill="#557CA9"/>
<path d="M4.45703 264.967C4.4588 264.934 4.39788 264.865 4.39965 264.832L3.56182 264.787C3.56005 264.82 3.62097 264.889 3.6192 264.922L4.45703 264.967Z" fill="#557CA9"/>
<path d="M6.07549 264.923C6.07372 264.956 6.00574 265.018 6.00397 265.051L6.8418 265.096C6.84356 265.063 6.91155 265.001 6.91332 264.968L6.07549 264.923Z" fill="#557CA9"/>
<path d="M26.5201 265.63L26.5925 264.284C26.619 263.792 27.4136 263.44 28.3803 263.492C29.347 263.544 30.0992 263.98 30.0727 264.472L30.0003 265.817C29.9826 266.145 29.3301 267.459 28.1701 267.397C27.01 267.334 26.5024 265.958 26.5201 265.63Z" fill="#557CA9"/>
<path d="M26.524 265.626L26.5964 264.281C26.6229 263.788 27.4175 263.436 28.3842 263.488C29.3509 263.54 30.1031 263.976 30.0766 264.468L30.0042 265.813C29.9865 266.141 29.334 267.455 28.174 267.393C27.0139 267.33 26.5063 265.954 26.524 265.626ZM29.3032 264.426C29.3174 264.164 28.8786 263.91 28.363 263.882C27.8474 263.854 27.3839 264.06 27.3698 264.322L27.2974 265.667C27.2744 266.094 27.8747 266.949 28.1969 266.966C28.5192 266.983 29.2078 266.198 29.2308 265.771L29.3032 264.426Z" fill="white"/>
<path d="M29.2872 264.76L30.125 264.805L30.1321 264.673L29.2942 264.628L29.2872 264.76Z" fill="#557CA9"/>
<path d="M26.5801 264.613L27.418 264.658L27.425 264.527L26.5872 264.482L26.5801 264.613Z" fill="#557CA9"/>
<path d="M27.5234 266.207C27.5252 266.174 27.4643 266.105 27.4661 266.072L26.6282 266.027C26.6265 266.06 26.6874 266.129 26.6856 266.162L27.5234 266.207Z" fill="#557CA9"/>
<path d="M29.1419 266.163C29.1401 266.196 29.0721 266.258 29.0704 266.291L29.9082 266.336C29.91 266.304 29.978 266.241 29.9797 266.209L29.1419 266.163Z" fill="#557CA9"/>
<path d="M24.6856 315.377L3.48213 314.235C4.91832 319.972 8.58713 328.658 13.2918 328.912C18.061 329.169 22.6416 320.926 24.6856 315.377Z" fill="white"/>
<path d="M15.7872 319.798L16.8828 319.857L16.9341 318.906L15.8384 318.847L15.7872 319.798Z" fill="#4F91D3"/>
<path d="M15.7169 321.113L16.8125 321.172L16.8637 320.22L15.7681 320.161L15.7169 321.113Z" fill="#4F91D3"/>
<path d="M10.7638 319.533L11.8594 319.592L11.9106 318.64L10.815 318.581L10.7638 319.533Z" fill="#4F91D3"/>
<path d="M10.6934 320.845L11.7891 320.904L11.8403 319.953L10.7447 319.894L10.6934 320.845Z" fill="#4F91D3"/>
<path d="M11.9984 316.9L15.9297 317.111L15.9774 316.225L12.0461 316.014L11.9984 316.9Z" fill="black"/>
<path d="M17.2495 327.35L9.58019 326.937C10.7446 328.118 11.9965 328.877 13.3499 328.95C14.7051 328.99 16.0294 328.403 17.2495 327.35Z" fill="white"/>
<path d="M21.2397 313.252L21.2539 312.989L23.4451 313.107L23.431 313.37L21.2397 313.252ZM21.215 313.711L21.2291 313.449L23.4204 313.567L23.4062 313.829L21.215 313.711ZM21.1903 314.17L21.2044 313.908L23.3956 314.026L23.3815 314.288L21.1903 314.17ZM21.1655 314.63L21.1797 314.367L23.3709 314.485L23.3568 314.748L21.1655 314.63ZM21.1408 315.089L21.1549 314.827L23.3462 314.945L23.332 315.207L21.1408 315.089Z" fill="white"/>
<path d="M5.00323 312.377L5.01737 312.115L7.2086 312.233L7.19447 312.495L5.00323 312.377ZM4.9785 312.836L4.99263 312.574L7.18386 312.692L7.16973 312.954L4.9785 312.836ZM4.95376 313.296L4.9679 313.033L7.15913 313.151L7.14499 313.414L4.95376 313.296ZM4.92902 313.755L4.94316 313.493L7.13439 313.611L7.12025 313.873L4.92902 313.755ZM7.10789 314.103L7.09375 314.365L4.90252 314.247L4.91665 313.985L7.10789 314.103Z" fill="white"/>
<path d="M25.8713 264.607C25.7424 264.6 25.6797 264.564 25.6832 264.498C25.6868 264.433 25.753 264.403 25.8819 264.41L28.2665 264.539C28.3954 264.546 28.4581 264.582 28.4545 264.648C28.451 264.713 28.3848 264.743 28.2559 264.736L25.8713 264.607Z" fill="black"/>
<path d="M25.7893 266.117C25.6604 266.11 25.5977 266.074 25.6012 266.008C25.6048 265.943 25.671 265.913 25.7999 265.92L28.1844 266.049C28.3133 266.056 28.376 266.092 28.3725 266.157C28.369 266.223 28.3027 266.252 28.1738 266.245L25.7893 266.117Z" fill="black"/>
<path d="M5.38301 263.504C5.25412 263.497 5.19143 263.461 5.19497 263.395C5.1985 263.329 5.26472 263.3 5.39361 263.307L7.77819 263.435C7.90709 263.442 7.96977 263.479 7.96624 263.544C7.9627 263.61 7.89649 263.639 7.76759 263.632L5.38301 263.504Z" fill="black"/>
<path d="M5.29708 265.014C5.16818 265.007 5.1055 264.97 5.10903 264.905C5.11256 264.839 5.17878 264.81 5.30768 264.817L7.69226 264.945C7.82115 264.952 7.88383 264.988 7.8803 265.054C7.87677 265.12 7.81055 265.149 7.68165 265.142L5.29708 265.014Z" fill="black"/>
</svg>
