<svg width="773" height="693" viewBox="0 0 773 693" fill="none" xmlns="http://www.w3.org/2000/svg">
<path fill-rule="evenodd" clip-rule="evenodd" d="M771.068 36.0976C769.221 35.379 768.81 34.0445 768.759 32.3508C768.759 31.6836 768.553 31.0163 768.502 30.4004C767.013 28.8093 764.909 27.8341 764.498 25.7297C766.859 23.3688 766.86 23.3688 767.219 21.8803C767.373 21.2644 767.475 20.4945 767.27 19.9299C766.449 18.0309 765.474 16.2345 764.345 14.0788C761.214 13.1549 757.775 12.1797 754.387 11.1532C752.437 12.4364 750.487 13.6682 748.69 14.9513C748.331 15.2079 748.331 15.8752 748.228 16.2345C749.819 18.2362 751.308 20.0839 753.258 22.4962C751.513 22.5989 750.487 22.6502 749.665 22.6502C747.561 20.1866 745.765 17.7742 743.609 15.7212C742.531 14.6947 740.683 13.5655 739.4 13.7195C736.372 14.1301 733.806 12.693 730.931 12.7443C728.006 12.7443 725.132 12.385 722.257 11.8718C720.204 11.5125 717.843 12.385 715.79 11.9744C713.737 11.5638 711.992 10.1267 709.734 9.76742C705.576 9.20283 701.47 8.53561 697.21 8.43296C694.387 8.38163 691.821 8.79224 689.203 9.7161C686.996 10.486 684.687 10.9992 682.377 11.4099C680.427 11.7691 678.425 11.9231 676.167 12.2311C676.834 14.9513 677.45 17.1583 680.067 18.7494C682.018 19.9299 683.506 21.7777 685.046 23.4714C686.021 24.4979 685.816 25.6784 684.636 26.6536C683.866 27.2695 682.839 27.6288 681.659 28.296C679.965 25.8837 677.758 24.6519 674.832 24.2413C672.625 23.9334 671.907 22.2909 672.317 19.9813C672.42 19.468 672.677 19.0061 672.625 18.4928C672.523 17.107 671.188 16.1318 669.546 16.1318C668.211 16.1318 667.441 16.953 667.544 18.5955C667.647 20.1866 667.749 21.675 666.774 23.3175C661.539 25.1652 655.226 24.0873 650.298 27.8854C649.888 29.3739 649.477 30.965 649.067 32.3508C646.552 32.9667 646.244 29.9385 643.985 30.4004C642.24 30.7597 640.393 30.4517 638.391 30.4517C637.929 29.3226 637.467 28.45 637.159 27.4748C635.876 23.2148 632.283 21.1617 628.485 19.4167C626.483 18.4928 624.225 18.4415 622.069 19.2114C618.015 20.7512 613.857 22.137 610.316 24.7546C609.187 25.6271 607.903 26.3457 606.62 26.9616C605.645 27.4235 604.105 27.4748 603.695 26.397C602.668 23.5741 599.845 23.5741 597.843 22.4449C595.842 23.5228 595.842 23.1635 593.891 23.0608C591.53 22.9582 589.683 21.5724 587.424 21.4697C587.219 21.4697 587.065 20.9564 586.86 20.5972C587.322 19.7759 587.784 18.9034 588.348 17.8769C587.732 17.3123 587.322 16.6964 586.757 16.3885C582.959 14.5921 579.212 14.9513 575.979 17.3636C574.542 18.4415 573.258 18.9547 571.513 18.8008L571.616 18.9034C569.512 17.261 567.099 17.8769 564.79 17.9796C560.222 18.1849 555.705 18.4415 551.137 18.7494C550.932 18.7494 550.778 19.2114 550.572 19.4167C551.496 20.1352 552.42 20.8538 553.498 21.675C552.061 22.7529 550.932 23.5227 549.905 24.4466C549.135 25.1652 549.597 26.551 550.675 26.9616C551.291 27.1669 552.009 27.0642 552.779 27.1155C553.241 29.9385 555.551 31.4782 557.142 33.4286C556.885 33.8906 556.731 34.2499 556.526 34.5065C555.756 35.3277 554.935 34.8658 554.011 34.7631C553.395 34.6605 552.471 34.9171 552.163 35.3277C551.856 35.7383 552.01 36.6622 552.369 37.1241C552.831 37.7913 554.011 38.3559 552.882 39.1258C552.318 39.4851 551.137 39.3311 550.367 39.0745C549.597 38.7665 548.981 38.0993 548.365 37.586C542.463 36.4055 542.463 36.4055 539.691 40.5116C537.33 40.8709 534.815 41.3328 532.352 40.0497C531.89 39.793 531.12 40.0497 530.247 40.101C530.607 43.6938 533.43 46.3627 532.762 50.1095C531.736 50.1609 530.607 50.4688 529.683 50.1609C527.989 49.5963 526.244 48.8777 524.858 47.8512C522.548 46.0548 520.033 44.823 517.262 43.7965C516.133 43.3858 515.26 42.462 514.028 41.5381C515.363 40.9735 516.287 40.6143 517.108 40.255C517.005 37.2781 515.055 36.3542 512.335 36.1489C512.386 32.7101 510.025 30.8623 507.613 29.3739C505.406 27.9881 502.634 26.4996 499.914 27.5261C498.015 28.2447 496.578 28.2447 494.781 27.6802C491.958 26.8589 489.392 27.1669 487.39 30.0411C488.058 31.119 488.827 32.2995 489.443 33.48C489.803 34.1985 489.854 35.0197 490.111 35.7896C487.955 36.6108 486.158 37.432 484.259 38.048C483.079 38.4072 481.642 38.9205 480.564 38.6639C478.768 38.2019 477.074 38.3559 475.277 38.5099C472.66 38.7152 472.249 38.3046 471.171 35.4817C471.017 35.0197 470.658 34.6605 470.299 34.0445C466.86 34.6091 463.421 35.0711 460.085 35.7383C457.929 36.2002 455.928 37.1241 454.952 39.2285C454.85 39.3824 454.439 39.4338 454.182 39.4851C453.618 38.8179 453.053 38.1506 452.694 37.74C452.078 37.74 451.821 37.6887 451.719 37.74C449.563 39.4851 447.407 40.255 444.892 38.1506C443.558 37.0214 441.864 37.1754 440.222 37.5347C439.401 38.5612 438.785 39.6391 439.965 40.7682C440.94 40.6143 441.864 40.5116 443.045 40.3576C440.581 45.2336 438.169 47.5946 433.652 49.9556C431.907 50.8281 435.295 52.2139 433.139 53.0351C432.882 52.8298 432.42 52.6245 432.369 52.4192C431.907 49.1343 432.164 46.0035 434.576 43.2832C435.038 42.7699 435.397 42.1027 435.5 41.4868C435.91 37.0214 437.194 32.7614 438.887 28.604C439.657 26.705 440.068 24.6519 440.581 22.6502C440.992 21.0591 440.581 19.622 439.811 18.1335C439.093 16.7991 437.758 16.9017 436.578 16.4911C436.167 16.3371 435.859 15.8239 435.449 15.3619C436.321 14.9513 437.04 14.5407 438.066 14.0275C436.27 12.4364 434.627 10.9992 432.985 9.61345C432.369 10.0754 431.907 10.3833 431.24 10.8452C428.776 7.30376 424.516 6.58522 420.769 4.73749C418.1 6.02064 415.534 7.20112 413.07 8.38161C412.968 9.81874 413.122 11.0506 412.711 12.1284C412.455 12.7443 411.325 13.2063 410.504 13.3089C410.094 13.3602 409.221 12.539 409.118 12.0258C408.862 10.6913 408.964 9.3055 408.81 7.9197C408.605 6.22595 407.579 5.50738 405.834 5.76401C403.729 6.07196 401.573 6.43122 399.52 6.73918C399.366 6.32857 399.264 6.17461 399.264 6.02064C399.88 1.45264 399.88 1.40131 395.517 0.374793C395.004 0.272141 394.439 0.169471 393.926 0.0668191C392.078 -0.18981 391.052 0.272135 390.384 1.81191C389.974 2.7871 389.717 3.76229 389.461 4.7888C389.255 5.61002 388.999 6.48257 388.947 7.30378C388.896 8.3303 388.947 9.35682 389.05 10.3833C389.153 11.4099 389.204 12.4877 389.666 13.4115C390.128 14.2841 391.103 14.9513 391.77 15.7725C392.283 16.4398 392.489 17.3123 392.951 18.0309C393.464 18.8008 395.055 18.0309 395.414 19.2114C393.002 20.3406 390.076 19.0574 388.126 21.1618C389.204 22.137 390.128 23.0095 391.052 23.882C391.103 23.882 391.206 23.882 391.257 23.882L391.154 23.9847C391.103 23.9334 391.103 23.9334 391.052 23.882C389.101 23.728 387.254 23.5741 386.073 25.7297C384.995 27.6801 382.788 28.1934 380.376 28.6553C380.376 27.2695 380.376 25.9864 380.376 24.8059C378.323 24.2926 377.964 25.4731 377.707 26.7049C372.882 28.0394 372.882 28.0394 370.829 30.1438C371.24 30.811 371.651 31.5296 372.061 32.2481C370.727 33.8392 368.879 34.7631 367.082 35.379C364.824 36.1489 363.644 37.894 362.104 39.2798C360.821 40.4603 360 42.0514 359.024 43.4885C358.768 43.8478 358.614 44.4637 358.768 44.8743C359.64 47.5433 357.792 48.4671 355.021 49.2883C356.15 50.1609 356.869 50.6741 357.536 51.1874H357.433C357.844 51.9573 358.203 52.7272 358.614 53.4971C361.077 54.7289 364.106 55.2935 366.005 57.9624C365.132 59.0916 364.311 60.1694 363.49 61.2472C363.387 61.3499 363.079 61.2986 362.822 61.3499C362.925 60.3234 363.028 59.3995 363.13 58.4243C362.412 58.3217 361.95 58.1677 361.693 58.2703C356.92 60.426 352.095 62.4277 347.014 63.8135C345.269 64.2755 344.653 66.0206 345.474 67.6117C346.501 69.6134 347.835 71.4611 348.81 73.4628C349.58 75.0026 350.556 75.9778 352.455 76.1317C353.892 76.2344 355.483 76.0291 356.407 77.4149C357.587 79.1086 359.332 79.8785 361.283 80.4944C362.515 80.8537 363.746 81.5723 363.9 82.9068C364.208 85.5757 365.851 87.68 367.185 89.8871C365.697 90.7596 364.362 91.5295 363.079 92.2994C362.155 89.5791 360.667 87.0128 361.95 83.9333C362.412 82.8041 360.923 81.6749 359.384 82.1369C356.407 83.0607 354.251 82.1882 351.839 80.4944C349.375 78.8007 346.552 77.3122 343.267 77.5689C341.779 77.6715 340.906 78.3901 340.855 80.0838C341.317 80.3918 342.035 80.6998 342.446 81.213C342.805 81.6749 343.113 82.4962 342.959 83.0094C342.703 83.9846 341.728 84.2412 340.752 83.9333C339.88 83.6766 339.11 83.1634 338.237 82.9581C337.775 82.8554 336.954 83.0094 336.8 83.3174C336.492 83.8306 336.287 84.6518 336.544 85.1651C337.467 87.2695 339.367 88.142 341.574 88.8092C343.062 89.2198 344.91 88.6039 346.398 90.5543C342.651 90.4003 339.315 91.2216 335.876 89.7844C334.542 87.3208 332.745 84.9598 332.386 81.8802C332.181 80.2891 331.565 78.698 329.358 76.953C329.923 78.852 330.333 79.7759 330.436 80.7511C330.487 81.7263 330.59 83.0094 330.025 83.728C328.075 86.2429 328.434 88.8606 328.691 90.2977C330.538 92.4021 331.411 93.8392 332.643 94.763C334.542 96.2001 335.363 97.8426 335.26 100.101C335.158 104.053 336.954 107.338 339.315 110.366C341.06 110.52 342.497 110.417 343.627 109.34C345.012 108.005 346.501 108.056 348.143 108.724C349.17 109.134 350.094 109.75 351.171 109.955C353.327 110.417 354.508 111.906 355.945 113.24C357.485 114.677 355.688 116.217 356.407 117.603C356.407 117.603 356.458 117.603 356.458 117.654V117.706C356.458 117.654 356.407 117.654 356.407 117.603C355.586 116.987 354.662 116.474 353.994 115.755C352.301 114.01 350.71 112.162 349.221 110.469C346.963 110.828 345.526 111.957 344.191 113.086C342.754 114.318 342.497 115.858 343.883 117.141C346.244 119.399 346.911 121.709 345.423 124.583C345.064 125.302 345.423 126.277 345.269 127.098C345.115 128.125 344.91 129.151 344.448 130.075C343.421 132.026 342.241 133.873 341.112 135.875C337.57 135.362 333.772 135.978 330.59 133.822C331.514 133.771 332.489 133.719 332.899 132.693C333.567 132.898 334.285 132.949 334.901 133.257C336.133 133.925 337.262 133.565 337.621 132.539C339.161 128.227 341.522 123.967 339.623 119.091C339.213 118.014 339.264 116.731 339.11 115.447C335.414 113.805 333.823 110.777 332.694 107.389C331.719 104.618 330.538 101.846 329.769 99.0231C329.204 96.9187 328.28 94.8657 326.484 93.7878C323.866 92.1967 323.661 90.041 323.507 87.5774C323.302 84.4978 323.302 81.367 321.608 78.8007C317.707 76.645 313.96 77.2096 310.059 78.2874C309.341 80.8537 309.7 83.42 309.905 85.9863C310.162 88.9632 310.213 91.6835 308.212 94.3524C306.98 95.9948 306.826 98.2532 308.828 99.9983C310.829 101.743 311.651 104.053 311.394 106.517C311.189 108.621 312.164 110.007 314.012 110.52C316.116 111.085 317.45 112.316 318.887 113.6C319.914 114.523 321.248 115.191 322.429 115.961C322.84 117.449 323.096 118.937 321.608 120.683C318.22 117.808 314.217 116.217 310.213 114.729C308.879 114.216 307.237 114.113 306.159 113.292C301.283 109.648 295.842 110.725 290.504 111.239C288.503 114.831 292.711 116.115 293.173 118.681C292.917 120.734 290.042 121.042 289.94 123.249C289.888 123.762 288.451 123.608 288.092 123.095C287.373 121.966 288.041 120.169 286.09 119.656C285.782 119.707 285.372 119.707 285.064 119.861C282.138 121.145 279.726 123.454 276.133 123.249C275.363 123.198 274.337 124.327 273.669 125.097C272.438 126.431 271.001 126.79 269.153 126.123C268.999 125.148 268.947 124.121 268.64 123.198C268.332 122.12 266.792 121.76 266.022 122.633C264.533 124.429 262.583 125.302 260.273 125.867C258.631 126.226 257.45 127.304 256.27 128.484C254.166 130.64 251.907 132.59 249.444 134.9C249.444 134.849 249.341 135.156 249.238 135.516C249.136 135.824 249.136 136.183 249.033 136.542C248.058 140.186 244.568 141.264 241.693 138.647C240.667 137.723 239.281 137.004 239.384 134.951C240.41 133.976 241.642 132.795 242.874 131.666C240.975 127.92 238.203 126.328 233.943 127.406C233.635 127.458 233.327 127.458 232.968 127.509C234.149 130.178 235.278 132.847 234.764 135.824C234.559 137.056 235.021 138.082 236.048 139.057C238.203 141.008 237.895 143.266 236.561 145.678C234.2 145.268 232.095 144.908 229.837 144.498C227.527 147.423 223.781 149.066 222.6 153.121C223.267 154.096 224.191 155.225 224.705 156.457C224.961 157.124 224.705 158.099 224.397 158.818C223.986 159.69 222.959 159.844 222.036 159.485C219.675 158.51 217.365 157.483 215.055 156.508C214.285 156.2 213.413 155.995 212.284 155.584C211.822 156.713 211.052 157.74 211.257 158.561C211.411 159.434 212.335 160.357 213.208 160.871C214.08 161.435 215.312 161.487 216.236 162C216.749 162.308 217.16 163.078 217.211 163.642C217.314 164.669 216.338 165.439 215.517 165.336C213.926 165.182 212.335 164.669 210.898 164.053C209.307 163.386 207.818 162.411 206.073 161.435C205.56 160.203 205.149 158.715 204.38 157.329C203.61 155.892 203.096 154.558 203.25 152.915C203.456 150.554 202.07 149.271 199.76 148.296C197.348 147.321 195.244 145.73 194.012 143.112C194.73 143.112 195.09 143.009 195.397 143.112C200.53 145.37 205.868 146.961 211.411 148.039C213.977 148.553 216.441 148.45 219.007 147.783C222.652 146.859 224.397 144.395 225.32 141.264C225.731 139.878 225.474 138.595 224.551 137.363C222.754 134.797 220.085 133.257 217.314 132.026C214.491 130.742 211.77 129.408 209.307 127.663C204.893 124.532 200.017 123.146 194.422 123.813C193.088 123.967 191.651 123.505 190.316 123.352C190.316 122.325 190.47 121.606 190.265 121.042C190.111 120.683 189.495 120.272 189.033 120.169C188.417 120.067 187.442 120.067 187.083 120.426C185.44 122.017 183.541 120.631 181.847 120.991C179.794 121.401 178.768 120.375 177.844 118.681C180.154 118.373 182.566 118.168 183.387 115.396C181.129 113.651 178.409 113.035 175.74 112.47C174.867 113.497 174.251 114.216 173.019 115.601C172.917 113.856 172.968 112.881 172.763 112.009C172.66 111.444 172.352 110.674 171.89 110.417C170.915 109.904 170.094 110.52 169.632 111.29C169.17 112.009 169.17 112.932 168.811 113.702C168.554 114.216 168.041 114.677 167.63 115.191C166.912 114.421 166.501 113.959 165.834 113.24C164.859 114.883 163.986 116.32 163.011 117.962C161.779 115.755 163.575 114.267 163.781 112.47C161.933 112.009 160.342 112.06 159.213 113.908C158.7 114.78 157.827 115.447 157.211 116.269C156.492 117.192 155.928 118.168 155.415 118.835C153.208 118.63 151.514 117.038 149.461 118.424C149.923 119.348 150.333 120.067 150.693 120.785C146.587 122.53 146.587 122.53 142.378 122.633C142.224 122.633 142.121 122.684 141.967 122.684C141.403 123.095 140.889 123.505 140.325 123.865C140.068 123.967 139.812 124.121 139.555 124.224C139.812 124.173 140.12 124.121 140.376 124.07C139.606 125.507 138.631 125.969 136.886 125.148C135.654 124.583 134.371 125.969 134.884 127.15C135.09 127.612 135.5 127.971 135.86 128.279C136.989 129.203 136.783 130.075 135.808 130.845C135.038 131.461 134.166 131.974 133.345 132.539C134.012 133.206 134.679 133.822 135.346 134.489C132.215 135.926 129.7 137.723 128.725 141.11C128.469 142.034 128.263 142.907 128.007 143.779C127.801 144.549 126.159 144.806 125.492 145.576C124.619 146.653 123.849 147.885 123.439 149.168C122.463 152.248 121.694 155.379 120.821 158.51C120.667 158.972 120.718 159.793 120.462 159.896C118.101 160.768 117.844 163.488 115.74 164.618C114.097 165.49 113.02 166.876 112.455 168.57C111.839 170.469 110.505 171.752 108.862 172.932C107.733 173.754 106.655 174.729 105.577 175.601L105.68 175.653C104.602 175.755 103.524 175.858 102.292 175.961C102.344 176.628 102.446 177.244 102.498 177.86C101.009 178.783 99.5208 179.707 98.0324 180.631C94.7988 182.582 94.3883 183.711 95.6714 187.765C96.7492 187.765 97.827 187.817 98.9049 187.765C100.034 187.714 101.266 186.739 102.703 188.433C99.9827 188.587 97.7244 188.741 95.2608 188.895C95.2094 191.204 95.8767 192.795 97.9811 193.668L97.8784 193.719C99.2128 196.286 96.6979 197.62 95.5174 199.262C96.082 199.673 96.3386 199.93 96.6465 200.084C98.5456 200.854 98.9562 201.623 97.8784 202.855C97.3138 203.471 96.2359 203.676 96.8519 205.216C97.8784 205.883 99.2129 206.756 100.547 207.629C103.216 209.425 105.731 208.501 108.195 207.269C108.965 206.91 109.427 206.037 110.094 205.473C111.274 204.446 112.404 203.317 113.687 202.393C115.534 201.11 115.586 201.162 116.458 198.236C117.588 200.494 118.768 202.445 119.435 204.754C120.513 208.296 121.232 212.094 123.644 215.173C124.517 216.251 125.286 217.381 126.159 218.612C125.748 219.382 125.338 220.152 124.927 220.922C126.005 221.949 127.031 223.026 128.109 224.053C129.598 224.156 131.086 224.309 131.805 222.616C132.318 221.333 133.447 220.563 134.73 220.511C137.707 220.46 139.658 218.715 141.762 217.226C140.735 215.789 140.12 214.25 140.325 212.505C140.582 210.605 141.095 208.758 140.992 206.91C140.889 204.857 141.813 203.42 143.507 202.701C146.946 201.264 147.562 198.595 147.562 195.054C146.433 193.925 145.303 192.18 143.61 191.307C141.249 190.075 140.684 188.381 140.787 186.174C140.838 184.789 141.197 183.403 141.095 182.068C140.941 179.656 141.762 177.654 143.404 175.909C144.893 174.369 146.381 172.932 147.972 171.495C149.307 170.315 150.847 169.34 152.027 168.056C153.567 166.363 154.593 164.464 154.131 161.949C153.875 160.46 154.029 158.818 154.542 157.381C155.107 155.789 156.082 153.993 158.135 153.788C160.445 153.582 162.908 153.736 165.218 154.096C167.733 154.506 168.965 156.097 168.503 158.15C166.501 160.717 164.807 162.924 163.062 165.131C161.214 167.492 159.726 170.161 157.468 172.06C155.363 173.856 154.747 175.601 155.466 177.911C156.544 181.401 157.16 184.943 157.057 188.587C157.057 188.895 157.262 189.254 157.365 189.459C160.239 190.999 163.062 192.539 166.398 194.335C168.913 193.463 171.89 192.179 175.072 191.461C178.409 190.691 181.899 190.486 185.184 190.075C186.723 191.204 188.109 192.231 189.752 193.411C188.058 194.438 186.415 195.054 185.44 196.183C183.747 198.133 182.001 198.339 179.64 197.569C176.15 196.388 172.763 197.415 169.529 198.647C167.271 199.519 166.963 200.546 167.322 202.753C167.682 204.806 168.811 206.191 171.018 206.91C171.018 208.655 171.12 210.195 170.966 211.735C170.864 213.018 170.145 213.993 167.733 213.89C167.271 213.377 166.604 212.351 165.68 211.478C164.14 210.092 161.984 210.195 161.009 211.889C159.521 214.455 158.135 217.124 159.11 220.255C159.675 222.051 160.239 223.899 159.623 225.747C158.289 226.465 156.595 226.876 155.928 227.902C155.055 229.185 154.183 230.007 152.643 230.212C150.641 230.417 149.666 229.288 148.794 227.851C148.64 227.646 148.178 227.594 147.664 227.389C141.865 228.21 137.502 232.214 131.753 234.831C130.573 233.599 129.341 232.368 127.699 230.674C125.543 231.341 122.823 232.162 120.359 232.932C118.46 232.008 116.715 231.136 115.021 230.315C114.457 229.237 113.635 228.21 113.327 227.081C113.122 226.209 113.481 225.182 113.584 224.258C113.533 224.258 113.533 224.258 113.481 224.258C113.533 224.258 113.533 224.207 113.584 224.207C115.329 222.924 116.202 221.127 116.818 219.074C115.483 217.688 115.329 216.046 115.894 214.25C116.15 213.377 115.996 212.505 114.611 212.197C114.149 212.505 113.533 212.864 112.968 213.274C112.558 213.582 112.198 213.993 111.736 214.301C111.12 214.712 110.402 214.917 109.889 215.379C109.529 215.635 109.17 216.251 109.273 216.611C109.478 217.38 109.273 217.791 108.862 218.407C107.682 220.511 107.733 222.821 108.657 225.182C109.581 227.594 110.556 230.007 110.607 232.624C110.659 234.215 109.119 236.166 107.733 235.704C105.013 234.831 103.216 236.73 100.958 237.09C95.9793 237.86 92.5918 240.374 91.7193 245.302C91.4626 246.79 90.6928 247.817 89.307 248.535C88.3831 249.049 87.5619 249.87 86.5867 250.28C84.8416 251.102 83.6611 252.128 83.1992 254.027C82.9939 254.9 82.1213 256.029 81.2488 256.337C79.3497 257.055 77.6047 257.671 76.3728 259.365C76.1162 259.776 74.987 259.827 74.3198 259.724C72.934 259.468 71.5995 258.954 69.9058 258.441C69.9058 260.084 69.9058 261.572 69.9058 263.266C68.4173 263.368 66.9289 263.882 65.9537 263.42C63.2334 262.239 61.0264 263.368 58.4088 264.138C58.5628 265.319 58.7168 266.294 58.8194 267.321C60.6158 267.988 62.3095 268.706 64.0546 269.22C65.7484 269.733 67.1342 270.708 67.5961 272.197C68.2634 274.404 70.1111 275.533 71.7022 276.867C72.5234 280.768 71.6509 284.515 71.2402 288.261C71.1889 288.775 70.9323 289.237 70.6757 289.699C70.1111 290.93 68.9819 291.752 67.6474 291.546C62.8228 290.725 57.8442 291.546 53.0196 290.469C50.248 289.853 47.2198 289.647 44.3455 289.853C42.7031 289.955 41.1633 291.29 39.5722 292.111C39.1103 292.368 38.6997 292.727 38.4944 292.829C38.905 294.883 39.3156 296.525 39.5209 298.219C40.2395 303.146 39.7775 307.868 37.2112 312.333C36.8006 313.052 36.544 314.284 36.9033 314.797C38.9563 317.261 38.751 320.289 39.3669 323.42C40.8554 323.574 42.3438 324.087 43.6783 323.882C46.7065 323.368 48.6569 324.344 49.7861 327.012C49.8374 327.166 49.9914 327.32 50.094 327.474C51.3772 329.066 52.455 329.322 54.3027 328.142C57.1256 326.345 60.1026 325.37 63.5927 325.678C65.1838 325.832 66.9802 325.575 68.366 324.959C69.9571 324.241 71.4969 323.163 72.6261 321.88C74.2172 320.032 75.449 317.928 76.8348 315.875C76.9374 315.772 76.8348 315.516 76.8348 315.362C76.3215 314.232 75.8596 313.155 75.2437 311.769C77.8613 308.381 79.7604 304.429 84.6363 302.992C87.1 302.273 88.5371 300.477 88.6397 297.962C88.691 296.782 88.7937 295.55 89.0504 294.369C89.6149 292.008 91.2573 290.879 93.8236 291.29C96.4926 291.752 99.1102 292.419 101.882 293.035C104.653 291.187 107.682 289.288 110.607 287.286C111.736 286.516 112.917 286.362 114.251 286.722C116.304 287.235 117.69 288.415 118.871 290.109C122.72 295.806 126.878 301.247 134.217 303.351C134.73 303.505 135.038 304.019 135.552 304.224C137.913 305.302 139.401 307.406 141.505 308.638C143.507 309.818 143.969 311.512 144.636 313.257C145.457 315.31 144.585 316.901 143.148 318.544C141.043 318.903 138.836 319.16 136.732 319.673C134.679 320.135 132.421 318.954 130.06 320.597C133.139 323.625 136.681 324.959 140.222 325.986C140.633 325.627 140.838 325.524 140.889 325.421C141.454 323.112 140.479 319.827 144.944 320.135C145.201 320.135 145.56 319.724 145.714 319.468C146.741 317.671 147.818 315.875 148.691 313.976C148.896 313.462 148.486 312.641 148.229 312.025C147.972 311.409 147.459 310.845 147.305 310.178C146.997 308.279 148.794 306.79 150.693 307.355C151.668 307.663 152.54 308.125 153.824 308.638C153.772 307.817 153.875 307.149 153.618 306.893C150.333 303.659 145.201 302.992 142.224 299.297C142.07 299.091 141.557 299.091 141.197 299.091C138.323 298.835 136.527 297.038 135.295 294.883C133.653 292.06 131.599 289.75 128.777 288.005C127.442 287.184 126.878 285.952 126.98 284.463C127.083 283.437 127.185 282.41 127.288 281.538C128.623 280.306 129.957 279.536 131.651 279.844C132.318 281.23 132.883 282.359 133.396 283.488C134.782 283.026 135.757 282.667 136.937 282.308C137.81 283.54 138.836 284.566 139.35 285.849C140.428 288.672 142.635 290.109 145.457 291.29C150.487 293.343 155.261 295.909 158.392 300.528C158.443 300.99 158.494 301.504 158.494 302.017C158.289 305.199 158.802 308.125 161.42 310.486C162.6 311.512 163.473 312.898 164.448 314.13C165.577 315.669 166.655 317.261 167.784 318.852C166.963 320.956 169.17 321.88 169.786 323.42C170.658 325.575 172.506 325.883 174.508 325.575C175.38 323.779 176.099 322.239 176.818 320.699C179.179 320.186 179.179 318.441 179.076 316.491C177.69 315.875 176.253 315.259 175.329 314.848C174.559 312.949 173.943 311.512 173.379 310.126C173.122 309.51 172.763 308.843 172.711 308.176C172.66 307.765 173.122 307.303 173.327 306.79C174.405 307.303 175.329 307.714 176.304 308.176C176.869 307.817 177.433 307.611 177.741 307.201C178.614 305.918 179.179 304.378 181.232 304.326C182.874 304.275 184.516 304.07 186.108 304.224C187.699 304.378 188.622 305.558 188.776 307.047C188.879 308.227 188.776 309.459 188.776 310.537C192.575 313.36 192.421 314.386 190.419 317.877C191.445 319.262 192.523 320.597 193.498 321.983C194.73 323.779 196.167 325.267 198.58 325.575C200.068 325.781 201.249 326.397 202.429 327.269C204.534 328.809 206.587 328.501 208.794 326.602C209.307 326.14 209.563 325.473 209.717 325.319C212.797 325.165 214.747 326.089 216.441 327.526C217.827 328.706 219.367 328.655 221.06 328.45C223.627 328.193 225.218 326.499 227.014 325.062C228.913 325.37 230.658 325.627 232.352 325.883C232.455 327.782 232.249 329.579 232.711 331.17C233.379 333.531 232.865 335.687 232.198 337.791C231.069 341.23 229.735 344.617 228.349 348.005C227.938 348.929 227.271 349.853 226.501 350.571C225.885 351.136 224.961 351.7 224.191 351.752C221.83 351.803 219.315 352.06 217.108 351.392C213.516 350.314 210.231 350.468 207.048 352.111C205.509 352.932 204.02 353.035 202.326 352.624C198.066 351.7 193.704 351.033 189.444 350.058C186.108 349.288 182.771 348.313 179.486 347.338C178.819 347.132 178.152 346.773 177.587 346.311C174.354 343.745 170.761 344.155 167.168 345.284C164.397 346.157 163.165 348.21 163.575 350.93C163.678 351.598 164.037 352.265 164.14 352.932C164.345 354.728 163.114 355.806 161.779 356.73C160.599 357.551 159.315 357.243 158.186 356.576C157.262 356.012 156.441 355.293 155.517 354.78C153.156 353.394 150.744 352.111 147.87 352.162C145.457 352.213 144.072 350.982 143.456 348.98C142.942 347.286 141.813 346.311 140.068 345.952C137.759 345.438 135.398 344.463 133.139 344.669C128.263 345.131 124.927 342.256 121.078 340.409C120.051 339.947 119.897 338.561 120.616 337.688C121.078 337.175 121.642 336.713 122.156 336.2C123.901 334.66 124.26 332.761 122.617 331.17C120.975 329.579 122.361 327.936 122.002 326.448C121.386 326.089 120.821 325.883 120.513 325.524C118.871 323.625 116.972 323.317 114.662 324.446C112.66 325.473 110.556 325.627 108.246 325.319C106.501 325.062 104.499 324.703 102.908 325.216C100.188 326.14 97.5704 325.883 94.8501 325.678C93.413 325.575 91.9759 325.986 90.5388 326.14C89.2557 326.294 88.0238 326.756 86.7407 326.653C84.0204 326.499 81.7107 327.423 79.4011 328.552C77.9126 329.271 76.5268 329.989 75.0384 330.657C70.7783 332.453 66.9802 333.172 62.3096 333.069C60.6672 333.069 58.922 333.531 57.3823 333.12C55.7398 332.71 54.3027 331.58 52.455 330.605C51.8391 331.837 51.1719 332.864 50.8639 333.941C49.8887 337.124 48.1436 339.587 44.8074 340.819C44.1402 341.076 43.5756 341.589 42.9597 341.948C40.1368 343.539 37.0572 344.874 36.8519 348.621C36.8519 349.031 36.2361 349.493 35.9281 349.904C34.9016 351.238 34.2856 352.675 34.7476 354.267C35.8254 358.013 33.6697 360.734 31.2061 362.992C29.307 364.737 26.7921 366.174 24.2771 366.995C21.9674 367.765 20.479 368.946 19.2985 370.742C18.7339 371.615 18.2207 372.795 17.3995 373.154C14.6279 374.386 13.6014 376.799 12.2669 379.006C11.4457 380.34 10.7271 381.829 9.64922 382.958C6.31304 386.345 5.0299 390.759 2.4636 394.557C1.12913 396.456 1.07786 398.817 3.5415 400.562C4.15741 400.973 4.67061 402.154 4.51664 402.821C3.79808 405.336 4.92728 407.594 5.13259 409.955C5.28656 411.495 5.18391 413.035 4.87596 414.523C4.46535 416.525 3.84944 418.578 3.07955 420.477C2.25834 422.53 1.07784 424.429 0 426.482C1.3858 428.638 3.43884 430.691 2.00172 433.514C2.51498 435.515 2.92555 437.928 5.23521 438.595C8.52007 439.519 9.64922 442.29 11.7023 444.241C12.3182 444.857 12.7288 445.729 13.4473 446.088C16.3216 447.628 17.964 449.784 18.8366 452.864C19.6065 455.686 20.9922 458.663 24.0205 459.946C27.9212 461.64 30.8981 464.412 34.2856 466.722C36.6466 468.313 39.2643 469.647 41.8306 470.93C43.165 471.597 44.6021 471.751 46.0393 470.982C49.6321 469.031 53.5842 468.621 57.6389 468.364C60.6158 468.159 63.4387 468.056 66.2617 469.082C67.2369 469.442 68.4686 469.75 69.4438 469.493C71.9075 468.877 74.4738 468.261 76.6295 467.029C80.8382 464.668 85.4575 463.745 90.1282 462.975C95.1068 462.102 97.9297 463.745 100.239 468.21C100.547 468.826 100.804 469.493 101.112 470.109C101.83 471.443 103.011 472.265 104.602 472.265C106.45 472.265 108.246 472.111 110.094 471.905C112.096 471.649 114.046 471.289 116.304 470.93C116.972 471.7 117.536 472.778 118.409 473.24C120.308 474.164 120.718 475.858 121.129 477.5C121.642 479.399 121.18 481.247 120.359 483.043C119.949 484.018 119.127 484.993 119.179 485.866C119.538 489.305 117.998 492.23 116.766 494.797C118.049 499.775 121.026 503.214 124.722 506.191C125.286 506.653 125.8 507.115 126.364 507.577C128.725 509.373 130.111 511.734 131.138 514.403C131.959 516.508 133.088 518.458 133.858 520.562C134.679 522.821 135.911 525.233 135.706 527.44C135.398 530.519 136.014 533.188 137.245 535.96C138.939 539.604 138.631 542.94 135.192 545.815C132.729 547.919 130.932 550.485 130.881 553.873C130.83 555.002 130.162 556.182 129.598 557.26C127.75 560.699 128.109 564.343 128.315 567.936C128.366 568.757 128.777 569.681 129.29 570.297C134.114 575.481 135.192 582.513 139.093 588.158C139.298 588.415 139.35 588.826 139.401 589.134C140.017 593.548 140.581 598.013 141.3 602.427C142.07 607.252 143.25 611.871 146.895 615.669C148.332 617.158 149.41 619.057 150.231 620.956C151.617 624.138 152.694 627.474 153.926 630.708C154.593 632.401 154.953 633.941 154.029 635.686C153.67 636.353 153.772 637.329 153.978 638.098C154.337 639.587 154.901 641.024 155.415 642.41C156.698 643.231 157.827 644.104 159.11 644.822C159.88 645.233 161.061 645.797 161.625 645.541C164.499 644.206 167.836 644.771 170.607 643.539C173.43 642.307 176.407 642.205 179.179 642.666C181.899 643.128 184.157 642.718 186.569 641.845C187.391 641.537 188.263 641.075 189.136 641.024C192.061 640.87 194.422 639.638 196.629 638.047C201.608 634.454 206.176 630.554 209.717 625.626C211.77 622.752 213.721 619.878 216.749 617.722C217.827 616.952 218.699 615.618 219.264 614.386C220.701 611.05 222.036 607.611 220.752 603.967C222.241 602.119 223.986 600.939 226.142 600.271C227.168 599.963 228.297 599.758 229.324 599.399C231.89 598.475 233.327 596.884 233.738 594.061C234.2 590.571 234.097 587.235 233.019 583.847C232.609 582.513 232.249 581.178 231.89 579.844C231.582 578.56 231.839 577.38 233.019 576.61C239.024 572.709 243.541 566.909 250.778 564.651C251.599 564.395 252.369 563.779 253.088 563.265C257.502 560.288 260.479 556.644 259.349 551.101C259.196 550.434 259.298 549.715 259.349 549.048C259.503 544.788 259.709 540.477 259.863 536.217C254.063 531.957 254.628 526.106 255.192 520.1C254.371 518.92 253.498 517.637 252.472 516.2C253.498 514.095 254.422 512.042 255.5 510.092C256.424 508.398 257.604 506.858 258.426 505.165C259.298 503.419 260.427 502.034 262.224 500.905C263.866 499.878 265.303 498.441 266.484 496.901C270.385 492.025 275.363 488.176 279.931 483.967C280.598 483.351 281.368 482.889 282.138 482.427C290.71 477.705 296.509 470.828 300.564 462.41C301.899 459.587 303.182 456.764 305.132 454.198C307.955 450.605 308.879 446.345 308.622 441.931C308.571 441.161 308.109 440.443 307.698 439.313C303.746 441.367 299.794 441.777 295.842 442.444C290.658 443.368 285.372 443.727 280.444 445.781C278.956 446.396 277.519 445.986 276.441 444.908C274.901 443.42 273.413 441.931 271.924 440.443C272.848 437.312 272.848 437.312 271 435.464C270.231 434.745 269.563 433.924 268.793 433.154C265.714 430.024 262.994 426.533 258.374 425.045C256.116 424.326 254.628 422.376 253.96 420.015C253.601 418.681 253.139 417.346 252.729 416.012C252.01 413.805 250.829 411.905 248.674 410.622C245.492 408.723 243.849 406.106 243.952 402.461C244.003 401.127 243.285 399.793 243.079 398.407C242.566 395.122 241.026 392.504 237.69 391.067C235.945 390.349 235.021 389.014 235.226 387.372C235.483 385.062 234.2 383.42 233.071 381.675C231.48 379.16 229.427 376.799 228.349 374.078C226.758 369.972 224.807 366.174 221.676 362.889C221.266 362.479 220.599 361.811 221.933 361.144C222.446 361.811 222.959 362.479 223.524 363.095C224.448 364.172 225.423 365.199 226.45 366.174C227.117 366.79 227.887 367.047 228.913 366.636C231.582 365.61 232.147 365.558 233.379 367.252C237.074 372.179 241.231 376.799 243.438 382.752C248.828 384.703 250.881 388.86 251.189 394.095C251.394 397.483 252.934 399.998 256.065 401.692C258.682 403.129 260.53 405.079 261.557 407.902C262.121 409.493 263.404 410.828 264.482 412.213C265.457 413.445 266.535 414.626 267.664 415.806C269.05 417.295 269.871 419.091 269.769 421.041C269.512 425.353 271.616 429.1 272.746 433C273.413 435.259 274.799 435.515 277.519 435.31C280.188 435.105 281.42 432.692 283.781 432.333C286.09 431.974 288.657 432.59 290.71 431.255C293.584 429.459 297.382 429.408 299.948 426.995C300.513 426.431 301.642 426.379 302.515 426.123C304.619 425.455 306.723 424.891 308.776 424.121C310.265 423.556 312.01 422.992 312.574 421.401C313.396 419.091 315.243 418.373 317.502 417.859C319.965 417.295 322.378 416.525 325.047 415.755C325.97 414.112 326.689 411.957 329.358 411.803C329.82 411.752 330.487 411.341 330.641 410.982C331.77 408.569 333.926 407.44 336.954 406.876C335.671 403.385 337.211 401.332 339.931 399.177C342.189 397.432 344.396 394.968 344.14 391.683C343.062 390.503 341.779 389.425 340.906 388.142C339.726 386.294 338.135 385.678 335.979 385.473C331.206 385.011 329.307 383.214 328.28 378.8C327.972 377.466 327.716 376.183 327.408 374.643C324.431 376.439 322.583 378.749 320.787 381.11C319.298 383.112 317.502 384.087 314.833 383.933C313.242 383.83 311.599 384.241 310.008 384.395C308.622 384.549 307.391 383.984 306.877 382.804C306.518 382.034 306.415 381.161 306.261 380.34C305.953 378.698 305.645 377.055 305.235 374.694C303.9 376.234 303.079 377.158 301.899 378.544C300.923 376.901 299.948 375.823 299.64 374.54C299.024 372.025 297.587 370.075 295.586 368.484C293.533 366.893 292.352 364.788 290.915 362.787C289.375 360.58 288.759 358.424 291.12 355.96C293.173 355.96 295.534 355.96 297.793 355.96C300.102 359.348 302.309 362.53 304.465 365.712C307.288 366.533 309.803 367.663 312.215 369.356C315.705 371.769 319.965 373.36 324.379 370.486C324.944 370.126 325.714 369.921 326.432 369.767C327.818 369.356 328.999 369.716 329.717 370.947C330.692 372.59 331.565 374.284 332.489 375.926C337.57 376.593 342.497 377.004 347.322 377.979C350.658 378.646 353.84 378.544 357.125 378.236C361.437 377.876 365.799 377.568 370.162 377.261C371.24 377.209 372.318 377.312 373.755 377.415C375.449 379.519 377.194 381.623 379.503 384.395C381.043 384.549 382.993 385.627 384.585 387.474C385.303 388.347 386.74 388.706 387.818 389.271C388.537 389.63 389.717 389.271 390.076 390.708C389.204 391.272 388.229 391.888 387.048 392.607C388.588 394.095 389.974 395.481 391.36 396.764C391.873 397.226 392.437 397.688 393.105 397.996C393.875 398.355 394.901 398.971 395.62 398.766C397.159 398.304 398.648 397.534 399.982 396.713C401.163 395.994 401.265 394.763 401.163 393.479C401.112 392.658 401.214 391.734 402.549 391.683C402.805 392.864 403.062 394.044 403.267 395.225C404.242 400.306 404.499 405.49 406.141 410.417C407.784 415.139 408.656 420.169 411.685 424.378C413.378 426.687 414.456 429.254 415.277 431.871C416.201 434.694 417.279 437.414 419.589 439.57C420.461 440.391 421.026 441.572 421.539 442.65C422.412 444.703 423.233 446.858 423.9 448.963C424.567 450.964 425.337 452.915 427.082 454.301C428.468 455.43 430.367 455.327 431.342 453.839C433.036 451.221 436.167 449.733 437.348 446.653C437.656 445.832 438.836 445.267 439.606 444.6C439.144 441.315 439.093 438.236 440.581 435.31C440.992 434.489 440.992 433.206 440.632 432.333C439.452 429.459 440.324 426.482 440.016 423.608C439.965 422.941 440.632 421.914 441.248 421.452C442.993 420.272 444.892 419.348 446.74 418.321C447.356 417.962 448.331 417.603 448.434 417.141C448.999 414.626 451.462 413.805 453.053 412.213C455.158 410.058 457.673 408.313 459.264 405.695C460.136 404.258 461.214 403.077 463.267 402.513C465.782 401.794 467.373 399.741 467.63 397.021C467.681 396.354 467.938 395.687 468.092 395.173C472.095 392.966 472.095 392.761 474.251 393.018C478.819 393.531 482.463 392.196 484.927 388.604C487.75 388.347 488.776 389.989 489.187 391.94C490.162 396.61 493.036 399.639 497.553 401.486C498.015 401.692 498.374 402.154 498.733 402.461C498.579 403.539 498.477 404.515 498.323 405.9C500.94 405.9 501.813 407.645 502.531 409.442C503.301 411.341 503.763 413.24 503.25 415.498C502.429 418.988 504.841 420.631 508.382 419.348C509.204 419.04 510.025 418.527 510.795 418.065C512.283 417.141 513.72 416.166 515.158 415.242C517.621 416.935 518.545 419.296 519.264 421.863C520.034 424.686 521.009 427.509 522.24 430.177C524.14 434.386 525.577 438.595 524.294 443.214C524.088 444.035 524.191 444.908 524.14 445.729C524.088 447.064 524.037 448.449 523.934 449.784C523.832 450.964 523.729 452.145 523.626 453.325C527.476 455.84 529.529 459.587 532.249 462.821C532.814 463.488 533.122 464.361 533.327 465.182C533.84 467.183 534.148 469.236 534.713 471.238C535.021 472.367 535.585 473.445 536.15 474.472C536.817 475.652 537.638 476.833 538.511 477.91C541.282 481.247 544.67 483.71 549.084 484.839C550.213 485.147 551.342 484.07 550.932 482.992C550.521 481.863 550.213 480.528 549.392 479.707C547.596 477.859 547.082 475.652 547.39 473.445C548.006 469.134 545.44 466.619 542.36 464.309C540.513 462.923 538.46 461.846 536.458 460.614C535.072 459.741 533.43 458.869 533.43 457.175C533.481 453.993 531.12 452.042 529.272 450.195C527.117 448.09 526.911 446.14 527.527 443.625C528.554 439.775 529.529 435.926 530.555 432.077C530.607 431.82 531.017 431.615 531.582 431.101C532.198 431.409 533.224 431.666 533.481 432.23C534.199 433.822 535.277 434.54 537.125 434.899C539.845 435.413 542.309 436.747 543.489 439.313C544.619 441.726 546.98 442.65 549.084 443.933C550.47 444.754 551.907 445.421 553.087 445.986C553.857 448.039 552.215 450.143 554.473 451.837C556.68 450.759 558.425 449.014 560.068 447.269C561.3 445.935 562.634 445.113 564.43 444.497C569.82 442.598 573.258 437.671 572.489 432.846C571.975 429.613 570.846 426.482 569.768 423.351C568.844 420.631 567.099 418.219 564.584 416.833C560.273 414.523 557.655 410.879 554.627 407.491C552.933 405.592 552.985 403.385 553.96 401.692C555.808 398.458 557.501 394.865 561.915 393.736C562.942 393.479 563.917 392.915 564.944 392.453C566.535 392.915 568.075 393.377 569.563 393.787C570.025 394.865 570.333 395.892 570.846 396.764C571.308 397.534 572.129 397.996 573.156 397.329C573.31 396.354 573.464 395.379 573.618 394.557C578.134 392.094 583.934 392.094 586.962 387.269C589.323 388.552 591.428 387.012 593.737 386.704C596.714 386.294 599.486 385.678 600.923 382.701C601.128 382.29 601.796 382.085 602.206 381.777C607.493 377.774 611.188 372.949 611.188 366.174C612.985 365.148 614.165 363.659 614.73 361.76C614.986 360.939 615.038 359.912 615.602 359.348C617.861 357.192 617.501 354.626 617.245 352.06C617.604 351.906 618.015 351.752 618.374 351.598C617.963 351.444 617.604 351.29 617.193 351.136C617.553 350.212 617.861 349.442 617.039 348.364C616.013 346.927 614.165 347.645 612.677 346.824C614.165 345.387 615.397 344.258 616.731 342.975C615.705 341.692 614.832 340.665 614.011 339.639C613.96 339.69 613.96 339.69 613.908 339.741L614.011 339.639C614.576 339.074 615.14 338.51 615.756 337.894C615.14 337.124 614.781 336.354 614.217 336.097C611.599 334.814 610.11 332.504 609.135 330.195C607.749 326.91 605.491 324.754 602.206 323.266C601.744 323.06 601.488 322.496 601.077 322.034C601.128 320.853 600.872 319.57 601.385 318.492C602.155 316.799 603.284 315.208 604.465 313.719C606.518 311.153 609.751 310.332 612.471 309.254C612.882 307.406 612.42 306.482 610.778 306.277C609.34 306.123 607.595 306.431 606.518 305.815C603.746 304.224 602.104 305.302 600.512 307.303C600.204 307.714 599.794 308.073 599.383 308.433C598.511 309.1 596.817 309.151 596.406 308.279C595.38 306.02 593.121 305.199 591.274 303.967C590.555 303.454 589.837 302.838 589.272 302.171C587.886 300.528 588.707 298.373 590.914 297.911C591.787 297.705 592.66 297.603 593.378 297.449C594.251 295.652 594.559 293.599 595.79 292.675C597.792 291.187 598.767 289.237 599.999 287.338C601.026 285.798 602.463 285.387 604.259 286.311C605.132 286.773 605.748 287.646 606.466 288.313C605.85 289.699 605.08 290.776 604.926 291.906C604.772 293.035 605.286 294.215 605.44 295.396C605.542 296.371 605.44 297.295 605.44 298.835C606.569 297.808 607.287 297.244 607.852 296.628C612.471 291.752 615.346 291.187 621.967 294.061C621.967 295.447 621.864 296.987 622.018 298.475C622.121 299.81 621.402 301.144 622.377 302.479C623.66 304.275 625.354 303.197 626.894 303.403C628.947 303.659 631.257 305.712 631.411 307.406C631 308.073 630.589 308.792 630.128 309.562C632.232 311.769 633.053 314.232 632.54 317.209C632.232 318.903 632.386 320.699 634.901 321.726C636.851 320.597 639.058 319.622 641.727 319.519C643.831 319.416 645.833 317.004 645.371 315.002C644.653 311.82 643.421 308.741 642.394 305.61C638.802 302.222 636.902 297.449 632.232 294.883C630.179 293.753 630.076 291.752 631.616 290.007C632.437 289.083 633.515 288.415 634.336 287.492C636.441 285.028 638.391 282.564 636.697 279.074C635.927 277.534 636.595 275.943 637.672 274.711C639.674 272.299 641.881 270.041 644.191 267.526C645.115 268.039 645.987 268.552 646.86 269.117C648.656 270.297 650.401 269.99 651.941 268.86C652.916 268.142 653.891 267.218 654.507 266.243C655.534 264.652 656.406 262.907 657.176 261.161C659.127 256.901 661.026 252.59 662.925 248.279C663.335 247.355 663.438 246.277 663.643 245.302C664.413 241.042 664.772 236.679 666.056 232.573C667.493 228.056 666.672 223.899 664.772 220.049C662.822 216.149 662.001 212.248 661.95 208.091C661.95 205.524 662.155 202.855 659.999 200.802C660.102 198.955 658.203 197.723 658.1 196.08C657.946 193.822 656.612 192.693 654.815 191.718C653.84 191.204 652.711 190.896 651.941 190.178C649.683 188.022 647.219 187.868 644.396 189.049C643.934 190.434 644.293 192.231 642.548 193.052C642.086 193.257 641.573 193.36 641.06 193.463C640.495 192.693 640.033 192.026 639.571 191.41C638.442 191.564 637.416 191.718 636.646 191.872C635.568 189.87 634.695 188.227 633.823 186.585C632.95 186.688 632.437 186.79 631.924 186.842C631.205 186.944 630.487 187.15 629.768 187.098C627.972 187.047 626.997 185.866 627.612 184.327C628.023 183.351 628.485 182.428 629.05 181.504C631.103 178.014 633.104 174.523 633.207 170.366C633.207 169.545 633.515 168.57 634.028 167.902C637.57 162.975 636.492 156.816 639.058 151.683C639.212 151.375 639.11 151.016 639.11 150.657C639.212 146.448 639.571 145.884 643.267 144.549C644.807 143.985 646.346 143.369 647.886 142.958C649.272 142.65 650.863 142.188 652.146 142.547C654.456 143.266 654.148 139.981 656.15 140.597C656.304 140.648 656.509 140.546 656.714 140.546C659.024 140.289 661.334 139.981 663.489 139.724C665.44 135.054 665.44 135.054 670.264 135.464C671.547 135.567 672.831 135.464 674.062 135.721C675.038 135.926 675.962 136.491 676.834 136.902C676.167 139.673 676.167 139.673 677.861 140.751C681.145 139.93 682.89 136.44 686.637 136.286C687.356 136.234 688.023 134.951 689.101 133.822C687.304 133.206 686.021 132.744 684.841 132.334C683.866 130.588 683.301 128.895 683.968 127.201C685.508 123.198 685.816 119.194 685.251 114.985C684.943 112.881 686.073 111.393 688.228 110.571C691.513 109.288 694.798 108.313 698.545 108.467C698.904 110.366 699.212 112.163 699.571 114.164C701.214 114.883 702.805 115.601 704.704 116.423C706.192 112.368 705.525 108.159 708.194 105.182C707.065 102.308 704.961 100.101 705.474 96.7134C706.398 96.3541 707.476 95.6869 708.605 95.4816C709.323 95.3789 710.196 95.9949 711.582 96.4568C709.734 98.1505 709.785 99.7929 710.76 101.435C713.07 105.182 714.148 109.34 714.969 114.01C711.171 116.063 711.222 119.656 711.479 123.352C711.53 124.019 711.582 124.789 711.325 125.405C709.683 129.562 710.042 133.873 710.093 138.185C710.093 139.365 709.99 140.648 709.477 141.675C708.451 143.625 707.065 145.37 705.679 147.423C707.27 149.066 707.322 151.221 706.346 153.121C704.858 156.046 705.371 158.869 706.449 161.641C707.784 165.028 709.118 168.467 710.76 171.7C712.351 174.78 714.302 177.757 716.252 180.683C718.1 183.454 719.742 186.482 722.103 188.792C724.105 190.742 725.132 193.001 726.312 195.31C726.723 196.08 726.928 196.953 727.339 197.723C728.057 199.108 729.186 199.776 730.931 199.365C733.6 196.132 734.268 192.693 732.574 188.741C732.061 187.56 732.215 186.072 732.061 184.943C733.395 183.813 734.422 182.941 735.551 181.966C734.884 180.734 734.216 179.707 733.754 178.578C732.933 176.576 733.344 174.523 733.857 172.47C734.319 170.623 736.064 170.315 737.501 169.647C738.117 169.391 738.528 168.775 738.887 168.364C738.63 166.209 736.885 165.285 735.807 163.95C733.652 161.333 732.882 158.458 733.96 155.276C735.14 155.071 736.167 154.866 737.142 154.66C737.86 151.94 734.832 151.119 734.781 149.117C733.754 148.963 733.036 148.912 732.369 148.809C730.931 145.986 730.931 145.986 731.034 143.882C731.034 143.728 731.085 143.523 731.137 143.369C731.291 142.034 730.829 141.008 729.546 140.34C727.955 139.519 727.39 141.11 726.158 141.47C723.54 139.93 723.079 137.415 723.027 134.797C722.976 131.358 723.027 127.868 721.128 124.737C720.872 124.327 720.769 123.762 720.769 123.249C720.666 121.966 720.872 120.58 722.36 120.323C724.824 119.861 725.645 117.962 726.877 116.371C727.133 116.012 727.749 115.961 728.057 115.807C729.392 116.269 729.032 118.373 731.137 117.962C731.342 117.398 731.547 116.73 731.804 116.115C732.112 115.293 732.317 114.472 732.779 113.754C734.781 110.571 738.22 109.853 741.658 111.649C743.147 112.47 744.276 114.113 746.483 113.805C746.535 113.24 746.688 112.727 746.688 112.265C746.791 107.081 747.715 102 749.255 97.124C750.435 93.4286 752.642 89.9384 754.952 86.6535C755.465 85.935 755.978 85.2677 756.543 84.6005C757.672 83.3174 759.058 82.7014 760.854 82.8041C762.292 82.8554 763.677 82.8041 765.012 82.8041C765.987 81.1103 766.295 79.4679 765.268 78.1335C763.523 75.9778 762.292 73.3601 759.212 72.4363C757.878 72.0257 756.646 71.2558 756.184 71.0505C755.157 69.4081 754.798 67.8169 753.925 67.5603C752.386 67.0984 751.256 66.6878 750.949 65.0454C750.897 64.6861 750.076 64.1215 749.768 64.1728C746.791 64.8401 745.046 62.8897 743.301 61.3499C742.018 61.7092 740.991 62.1198 739.965 62.2738C739.606 62.3251 739.092 61.7605 738.836 61.3499C738.682 61.1446 738.836 60.5287 738.99 60.4774C740.221 59.9641 741.094 59.1429 741.402 57.8597L741.351 57.8084C741.967 58.373 742.531 59.1429 743.301 59.5535C746.791 61.2986 749.973 59.4508 750.127 55.7554C750.179 54.7289 749.922 53.651 750.127 52.6758C750.948 48.6724 749.306 46.0035 745.559 44.3097C744.02 43.5911 742.89 42.5646 742.377 40.8196C742.839 39.9983 743.25 39.0745 743.814 38.202C743.968 37.9453 744.379 37.894 745.097 37.586C745.867 40.409 747.869 41.7948 751.41 41.9487C752.283 39.6904 752.899 36.8675 756.748 36.8675C758.185 37.9966 759.879 39.2798 761.932 40.8709C764.088 38.8692 766.757 39.1771 769.528 39.3311C770.452 39.3824 771.479 38.6639 772.351 38.3046C772.454 37.9453 772.454 36.6108 771.068 36.0976Z" fill="#678FC0" fill-opacity="0.8"/>
<path fill-rule="evenodd" clip-rule="evenodd" d="M562.582 504.909C561.556 503.267 560.683 501.881 559.965 500.649C557.757 500.239 557.706 501.625 557.296 502.702C556.115 502.856 554.832 502.6 554.575 501.471C553.857 498.699 551.701 497.364 549.032 496.389C549.238 494.952 549.443 493.823 549.597 492.643C549.853 490.795 547.184 491.205 546.979 489.717C546.979 489.563 546.928 489.358 546.928 489.204C546.569 486.894 544.618 488.331 543.489 487.921C542.257 486.637 541.231 485.098 539.794 484.122C536.149 481.659 532.351 479.349 529.118 476.372C528.091 475.448 526.654 474.884 525.474 474.063C524.498 473.395 515.824 468.519 514.746 468.211C514.233 468.057 513.771 467.698 513.207 467.647C512.693 467.595 511.924 467.647 511.718 467.903C511.41 468.417 511.154 469.238 511.359 469.751C512.078 471.804 513.874 473.241 515.722 474.268C518.801 476.013 520.752 478.631 522.959 481.197C525.422 484.122 528.348 486.791 529.323 490.589C529.374 490.743 529.528 490.897 529.631 491C532.916 493.515 534.25 497.159 535.585 500.701C536.303 502.548 537.33 504.037 538.716 505.474C542.924 509.785 547.39 513.789 552.83 517.382C553.549 517.382 554.627 517.484 555.705 517.33C556.731 517.176 557.758 516.714 558.784 516.406C559.349 512.711 559.913 509.169 560.478 505.628C561.145 505.474 561.761 505.217 562.582 504.909Z" fill="#678FC0" fill-opacity="0.8"/>
<path fill-rule="evenodd" clip-rule="evenodd" d="M596.096 530.568C597.482 529.644 598.816 530.106 600.254 530.363C600.972 530.517 601.639 530.055 601.229 528.771C597.893 528.771 595.224 526.308 591.682 526.257C591.169 526.257 590.707 525.127 590.194 524.46C588.089 523.485 586.036 522.407 583.881 521.535C582.7 521.073 581.571 521.227 580.339 522.048C577.465 523.896 574.077 523.536 571.665 521.74C568.842 519.584 565.814 519.225 562.529 519.071C560.322 518.968 559.09 519.789 559.039 522.304C560.476 523.28 561.862 524.819 563.658 525.333C569.51 527.078 575.72 526.975 581.674 528.771C585.882 530.055 590.707 528.874 595.018 530.619C595.326 530.773 595.84 530.722 596.096 530.568Z" fill="#678FC0" fill-opacity="0.8"/>
<path fill-rule="evenodd" clip-rule="evenodd" d="M578.443 500.594C578.597 502.237 579.367 503.828 579.829 505.47C581.42 505.624 582.651 505.778 583.883 505.932C584.602 506.035 585.577 505.984 585.936 506.394C587.373 508.191 589.067 507.883 590.812 507.215C592.095 506.753 593.225 507.113 594.508 507.318C596.817 507.677 598.152 509.371 599.743 510.5C601.745 509.833 603.49 509.32 604.824 508.858C605.543 506.753 606.518 505.008 606.621 503.212C606.775 501.005 607.596 499.311 608.982 497.617C609.854 496.54 610.419 495.256 610.983 493.973C612.882 489.765 612.831 489.765 617.091 488.173C616.167 487.25 615.346 486.428 614.525 485.556C614.063 485.043 613.293 484.324 613.396 483.913C614.063 481.963 612.677 480.68 611.907 479.14C610.983 477.395 611.702 475.701 612.677 474.264C613.293 473.34 615.346 473.751 615.192 472.006C615.038 470.158 617.81 470.877 617.861 469.234C617.656 468.978 617.502 468.567 617.245 468.464C614.884 467.233 612.472 466.257 611.24 463.588C610.47 461.895 607.955 461.997 606.621 463.486C606.159 463.999 605.697 464.615 605.491 465.231C604.722 467.797 602.36 469.337 600.256 470.158C597.433 471.236 595.893 473.084 594.251 475.137C592.506 477.344 590.864 479.551 587.63 480.218C586.039 480.526 584.961 481.912 584.191 483.4C583.729 484.273 583.165 485.145 582.497 486.12C580.239 485.607 578.135 485.145 576.236 484.735C574.337 485.864 573.464 487.455 573.567 489.2C573.721 492.28 574.439 495.41 576.646 497.771C577.775 498.644 578.34 499.311 578.443 500.594Z" fill="#678FC0" fill-opacity="0.8"/>
<path fill-rule="evenodd" clip-rule="evenodd" d="M759.313 606.842C757.055 604.43 755.464 601.966 755.977 598.682C754.181 597.655 752.641 596.834 751.614 596.218C750.28 592.676 749.613 589.34 747.867 586.62C746.636 584.721 743.967 583.643 741.914 582.155C741.606 581.949 741.298 581.795 740.938 581.641C739.039 580.82 738.372 579.332 738.218 577.484C738.013 574.25 738.013 570.966 735.909 568.091C735.447 567.475 735.652 566.398 735.601 565.576C735.498 564.191 735.498 562.805 735.395 561.419C735.139 558.853 733.907 557.724 730.981 557.108C730.468 557.005 730.006 556.8 729.749 556.748C728.312 552.078 726.978 547.664 725.541 543.25C725.387 542.788 724.668 542.428 723.898 541.812C723.077 543.609 722.256 544.995 721.845 546.432C720.87 549.922 719.587 553.412 719.433 556.954C719.228 561.932 717.534 566.398 715.686 570.863C714.454 573.84 710.81 574.61 708.501 572.3C705.575 569.374 701.777 567.681 698.338 565.525C695.669 563.883 693.513 561.984 691.563 559.52C693.359 556.594 692.898 552.796 696.593 550.846C697.466 550.384 697.722 548.793 698.389 547.51C697.414 547.15 696.542 546.534 696.234 546.74C695.002 547.51 693.77 547.099 692.538 547.048C688.791 546.894 685.507 545.405 682.068 544.43C681.298 544.225 680.374 544.225 679.553 544.122C679.142 546.021 677.91 547.048 675.857 547.099C673.804 547.15 671.649 547.099 670.263 548.588C667.286 551.77 663.129 554.439 663.847 559.777C661.435 559.623 659.279 559.469 657.175 559.315C657.175 559.366 657.226 559.366 657.226 559.417L657.123 559.315C655.789 557.775 655.122 555.67 652.915 554.952C648.449 556.235 648.449 556.235 640.802 562.651C640.494 563.985 640.186 565.268 639.929 566.398C638.595 566.603 637.568 566.757 636.798 566.86C636.285 568.348 637.722 570.042 635.515 570.606C634.489 569.58 633.565 568.656 632.846 567.989C629.869 569.015 628.689 570.658 628.843 573.275C628.894 574.148 628.176 575.174 627.611 575.996C626.944 577.022 626.071 577.895 625.404 578.921C623.915 581.077 621.862 582.206 619.142 582.617C616.114 583.13 613.137 583.9 610.16 584.67C608.62 585.08 607.132 586.209 605.592 586.261C602.256 586.312 599.792 588.006 596.969 589.135C594.147 590.264 592.196 592.676 589.168 593.446C588.706 593.549 588.244 594.575 588.244 595.191C588.244 597.655 587.474 599.862 586.396 602.12C585.37 604.173 585.78 606.534 586.499 608.69C586.807 609.665 587.372 610.589 587.628 611.616C588.039 613.155 587.115 613.823 585.678 614.131C585.678 614.079 585.678 614.079 585.678 614.028C585.575 614.849 585.216 615.722 585.37 616.543C586.55 624.037 588.603 631.376 588.603 639.024C588.603 639.691 589.014 640.358 589.065 641.025C589.219 644.875 588.655 648.57 585.729 651.599C583.522 653.908 583.573 654.421 585.832 656.731C586.345 657.244 586.756 657.809 587.32 658.271C590.04 660.529 593.274 660.888 596.559 659.862C598.766 659.195 601.076 658.322 602.923 656.936C606.619 654.216 610.571 654.113 614.882 654.729C616.525 654.935 618.167 655.14 619.809 654.935C620.99 654.781 622.53 654.319 623.146 653.498C625.045 650.931 627.56 649.545 630.639 648.724C631.46 648.468 632.179 647.749 633 647.39C633.975 646.979 635.105 646.415 636.08 646.569C640.083 647.184 643.676 646.004 647.269 644.567C651.324 642.976 655.584 643.746 659.741 643.848C660.1 643.848 660.562 644.002 660.716 644.208C662.307 646.158 664.771 646.312 666.978 647.03C669.442 647.852 671.854 648.776 671.649 651.906C671.649 652.214 671.854 652.574 672.11 652.83C674.42 655.191 674.472 658.117 674.523 661.094C674.523 661.658 674.933 662.223 675.293 663.249C677.448 661.248 678.988 659.143 681.092 658.014C683.453 656.782 684.275 653.908 687.662 653.087C687.252 654.524 687.149 655.551 686.738 656.423C686.225 657.501 685.353 658.425 684.737 659.503C684.223 660.427 683.813 661.402 683.608 662.428C683.351 663.506 681.657 663.968 682.068 665.251C685.455 666.021 684.993 662.531 686.841 661.761C688.945 663.865 686.995 666.072 687.2 668.177C688.022 668.228 688.689 668.279 689.459 668.331C690.434 671.256 691.255 674.079 690.485 677.364C689.715 680.803 691.614 684.036 695.104 685.422C698.338 686.705 701.161 688.45 704.189 690.555C706.037 689.323 707.885 688.194 709.578 686.962C710.246 686.449 710.605 685.474 711.785 685.987C713.684 687.629 712.709 690.863 715.378 692.043C717.791 691.735 719.587 690.555 721.229 689.169C723.642 687.065 726.465 686.192 729.698 686.038C733.856 685.884 734.369 685.217 735.601 681.368C736.73 677.929 737.243 674.182 739.809 671.359C742.581 668.279 744.429 664.738 746.379 661.196C747.765 658.733 749.459 656.526 751.768 654.781C754.95 652.317 756.798 649.032 758.184 645.491C759.621 641.59 760.802 637.587 762.598 633.84C763.727 631.479 764.189 629.272 763.573 626.859C763.06 624.755 763.06 622.805 763.624 620.752C765.01 615.311 762.906 610.743 759.313 606.842Z" fill="#678FC0" fill-opacity="0.8"/>
<path fill-rule="evenodd" clip-rule="evenodd" d="M702.908 499.673C700.752 502.29 696.954 503.06 695.158 506.088C694.85 506.602 694.029 506.858 693.207 507.371C691.514 505.934 689.922 504.549 688.383 503.214C688.383 501.828 688.485 500.596 688.331 499.416C688.177 498.287 687.767 497.158 687.51 496.182C679.657 493.565 678.579 493.719 675.141 498.03C675.962 498.646 677.091 499.159 677.553 499.98C678.682 501.982 680.376 502.547 682.583 502.393C683.301 502.342 684.02 502.239 684.79 502.188C685.611 502.136 686.278 502.341 686.022 503.368C684.02 503.933 681.967 504.548 679.914 505.113C680.838 506.909 681.659 508.552 682.686 510.502C683.969 509.63 684.944 508.963 686.176 508.09C688.229 509.27 690.333 510.708 692.643 511.631C695.158 512.658 697.929 513.069 700.547 513.89C701.727 514.249 702.908 514.916 703.934 515.584C704.653 516.045 705.423 516.661 705.834 517.38C706.911 519.536 707.835 521.743 708.862 524.052C707.681 524.874 706.603 525.489 705.731 526.311C705.115 526.875 704.55 527.696 705.474 528.928C706.706 528.826 708.092 528.723 709.529 528.518C712.044 528.158 714.251 528.364 715.791 530.673C716.509 531.751 717.484 532.47 718.87 532.624C721.231 532.932 723.541 533.342 725.902 533.496C726.723 533.548 727.955 533.137 728.314 532.572C728.776 531.854 728.571 530.725 728.674 529.801C729.597 528.98 730.47 528.107 731.445 527.337C733.139 526.003 735.038 525.541 737.04 526.567C739.606 527.85 742.429 528.672 743.815 531.495C744.379 532.726 745.765 533.548 746.586 534.728C748.075 536.781 750.128 537.602 752.694 537.705C755.106 537.808 757.416 538.116 759.572 539.245C759.88 539.399 760.393 539.142 761.471 538.988C758.494 536.319 755.414 534.317 753.567 531.597C751.668 528.672 747.869 527.132 747.048 523.282C747.664 522.872 748.28 522.513 748.742 522.051C749.922 520.921 749.768 519.844 748.28 519.228C746.124 518.304 743.917 517.431 741.915 516.61C740.119 512.761 740.17 512.709 736.783 510.656C735.705 509.989 734.576 509.424 733.395 509.014C727.801 506.961 722.155 504.908 716.509 502.957C713.07 501.777 709.58 500.802 706.09 499.673C704.91 499.262 703.575 498.851 702.908 499.673Z" fill="#678FC0" fill-opacity="0.8"/>
<path fill-rule="evenodd" clip-rule="evenodd" d="M660.563 317.93C656.765 321.163 654.763 325.731 651.478 329.324C651.016 329.786 651.068 331.121 651.427 331.634C651.683 332.044 652.967 331.788 654.096 331.89C654.096 333.122 654.25 334.303 654.044 335.432C653.736 337.28 654.558 338.819 655.379 340.359C655.841 341.18 657.586 341.54 658.253 340.872C659.126 340.051 660.152 339.281 660.152 337.896C660.152 336.356 659.998 334.765 660.358 333.276C660.973 330.761 659.896 328.965 658.15 327.374C657.637 326.912 656.919 326.655 657.483 325.577C660.101 325.475 661.743 322.652 664.669 322.806C667.697 322.96 669.493 319.624 672.624 320.239C673.035 321.882 673.24 323.422 673.805 324.859C674.267 326.039 675.242 326.86 676.782 326.553C679.553 322.857 679.759 322.446 680.323 319.47C681.76 319.521 683.249 319.88 684.635 319.624C685.764 319.418 686.893 317.776 687.663 317.981C690.075 318.546 689.357 316.082 690.64 315.671C691.102 315.517 691.564 315.261 691.82 315.158C692.539 315.825 693.206 316.852 693.771 316.801C694.438 316.749 695.31 315.928 695.67 315.261C696.234 314.183 696.286 313.003 695.772 311.771C695.208 310.334 694.643 308.794 694.746 307.305C694.9 304.277 694.387 301.506 692.744 298.272C696.029 295.346 695.413 291.805 694.694 288.52C693.925 285.133 691.82 282.258 688.946 280C687.612 280.154 686.38 280.308 685.302 280.411C683.454 282.464 684.327 284.722 685.097 286.416C688.022 292.677 685.558 298.221 683.146 303.764C682.428 305.406 680.631 306.433 678.783 306.484C677.86 306.484 676.936 305.406 675.858 304.688C676.166 308.281 674.369 311.309 673.6 314.44C671.598 314.645 669.955 314.696 668.364 314.953C666.722 315.21 665.08 315.466 663.591 316.031C662.565 316.441 661.435 317.16 660.563 317.93Z" fill="#678FC0" fill-opacity="0.8"/>
<path fill-rule="evenodd" clip-rule="evenodd" d="M689.357 255.411C688.535 254.743 687.765 253.974 686.996 253.255C685.815 252.177 684.532 251.253 683.043 250.945C681.812 251.561 681.863 252.434 682.376 253.204C683.865 255.513 684.07 258.08 684.121 260.646C684.121 261.98 684.275 263.315 684.327 264.649L681.555 266.497C679.759 269.217 679.399 271.784 682.068 274.247C682.633 274.812 682.838 275.736 683.403 276.814C684.686 275.787 685.661 274.914 686.739 274.042C685.302 272.861 684.121 271.938 682.889 270.911C683.557 270.552 683.865 270.346 684.173 270.193C686.944 268.601 689.562 268.396 692.128 270.654C692.795 271.219 694.079 271.219 695.156 271.476C695.464 270.757 695.772 270.295 695.824 269.782C696.132 267.267 697.466 265.727 700.186 265.163C701.11 264.957 701.931 264.085 703.061 263.366C701.88 261.775 700.905 260.389 699.93 259.055C694.335 258.695 692.693 258.182 689.357 255.411Z" fill="#678FC0" fill-opacity="0.8"/>
<path d="M317.242 555L317.081 554.527L317.242 555ZM422.242 538L422.572 538.376L422.242 538ZM497.242 464.5L497.426 464.965L497.242 464.5ZM547.952 485.407C548.176 485.567 548.489 485.515 548.649 485.29C548.81 485.066 548.758 484.753 548.533 484.593L548.242 485L547.952 485.407ZM219.242 615V615.5C219.863 615.5 220.575 615.383 221.362 615.172L221.232 614.689L221.103 614.206C220.366 614.404 219.745 614.5 219.242 614.5V615ZM225.083 613.231L225.291 613.686C226.438 613.161 227.686 612.532 229.023 611.811L228.786 611.371L228.549 610.931C227.226 611.644 225.997 612.263 224.875 612.777L225.083 613.231ZM232.356 609.355L232.609 609.787C233.744 609.121 234.927 608.407 236.152 607.651L235.889 607.225L235.626 606.8C234.407 607.553 233.231 608.263 232.103 608.924L232.356 609.355ZM239.383 605.027L239.653 605.448C240.781 604.726 241.938 603.976 243.119 603.201L242.845 602.783L242.57 602.365C241.392 603.138 240.239 603.886 239.114 604.605L239.383 605.027ZM246.28 600.507L246.558 600.923C247.68 600.173 248.821 599.405 249.977 598.622L249.696 598.208L249.416 597.794C248.261 598.576 247.123 599.343 246.002 600.092L246.28 600.507ZM253.099 595.89L253.382 596.303C254.503 595.535 255.635 594.757 256.777 593.97L256.493 593.558L256.21 593.146C255.069 593.933 253.937 594.711 252.817 595.477L253.099 595.89ZM259.882 591.216L260.167 591.627C261.289 590.849 262.418 590.065 263.552 589.277L263.267 588.866L262.982 588.456C261.848 589.243 260.719 590.027 259.597 590.805L259.882 591.216ZM266.651 586.513L266.936 586.924C268.062 586.14 269.191 585.355 270.319 584.571L270.034 584.16L269.749 583.75C268.62 584.534 267.491 585.32 266.365 586.103L266.651 586.513ZM273.419 581.81L273.704 582.221C274.835 581.437 275.964 580.655 277.09 579.878L276.806 579.467L276.522 579.055C275.395 579.833 274.265 580.615 273.134 581.399L273.419 581.81ZM280.197 577.133L280.479 577.545C281.62 576.763 282.754 575.988 283.88 575.222L283.599 574.808L283.318 574.395C282.19 575.162 281.055 575.937 279.914 576.72L280.197 577.133ZM287.013 572.499L287.292 572.914C288.446 572.138 289.589 571.374 290.717 570.626L290.441 570.209L290.165 569.793C289.034 570.542 287.89 571.307 286.734 572.084L287.013 572.499ZM293.886 567.947L294.158 568.366C295.331 567.602 296.486 566.86 297.619 566.14L297.351 565.718L297.083 565.296C295.946 566.018 294.789 566.762 293.613 567.527L293.886 567.947ZM300.841 563.535L301.103 563.961C302.305 563.221 303.476 562.515 304.613 561.845L304.36 561.414L304.106 560.984C302.963 561.657 301.786 562.367 300.579 563.109L300.841 563.535ZM307.951 559.362L308.193 559.799C309.465 559.097 310.679 558.455 311.829 557.881L311.606 557.433L311.383 556.986C310.218 557.567 308.991 558.216 307.709 558.924L307.951 559.362ZM315.329 555.724L315.519 556.186C316.182 555.913 316.81 555.675 317.403 555.473L317.242 555L317.081 554.527C316.465 554.736 315.817 554.982 315.139 555.261L315.329 555.724ZM317.242 555L317.403 555.473C318 555.27 318.611 555.087 319.237 554.923L319.11 554.439L318.983 553.956C318.336 554.126 317.701 554.315 317.081 554.527L317.242 555ZM322.939 553.678L323.009 554.173C324.252 553.996 325.539 553.872 326.868 553.794L326.838 553.295L326.809 552.796C325.456 552.875 324.141 553.002 322.868 553.183L322.939 553.678ZM330.739 553.185L330.739 553.685C332.006 553.684 333.304 553.713 334.631 553.766L334.65 553.266L334.67 552.767C333.332 552.714 332.021 552.684 330.738 552.685L330.739 553.185ZM338.563 553.477L338.53 553.976C339.803 554.061 341.099 554.16 342.415 554.268L342.456 553.77L342.497 553.272C341.177 553.163 339.876 553.063 338.596 552.979L338.563 553.477ZM346.351 554.108L346.307 554.606C347.592 554.721 348.887 554.84 350.204 554.958L350.249 554.46L350.293 553.962C348.982 553.844 347.678 553.725 346.396 553.61L346.351 554.108ZM354.148 554.802L354.106 555.3C355.396 555.408 356.699 555.512 358.012 555.607L358.048 555.108L358.084 554.61C356.775 554.515 355.477 554.412 354.19 554.303L354.148 554.802ZM361.949 555.36L361.921 555.859C363.218 555.931 364.524 555.991 365.838 556.036L365.855 555.536L365.872 555.037C364.566 554.992 363.267 554.932 361.977 554.86L361.949 555.36ZM369.765 555.62L369.761 556.12C371.063 556.13 372.372 556.122 373.687 556.092L373.675 555.593L373.664 555.093C372.361 555.122 371.062 555.13 369.769 555.12L369.765 555.62ZM377.583 555.436L377.612 555.936C378.915 555.86 380.221 555.76 381.531 555.632L381.482 555.135L381.433 554.637C380.138 554.764 378.844 554.863 377.554 554.937L377.583 555.436ZM385.365 554.672L385.435 555.167C386.728 554.984 388.022 554.77 389.317 554.524L389.223 554.033L389.13 553.541C387.851 553.785 386.573 553.996 385.295 554.177L385.365 554.672ZM393.045 553.205L393.163 553.69C394.431 553.381 395.698 553.038 396.963 552.656L396.818 552.177L396.674 551.699C395.427 552.075 394.177 552.414 392.927 552.719L393.045 553.205ZM400.529 550.944L400.7 551.414C401.923 550.968 403.144 550.485 404.361 549.96L404.163 549.501L403.965 549.042C402.766 549.559 401.563 550.035 400.358 550.474L400.529 550.944ZM407.706 547.848L407.93 548.295C409.09 547.712 410.245 547.089 411.395 546.424L411.145 545.991L410.894 545.558C409.761 546.214 408.623 546.827 407.481 547.401L407.706 547.848ZM414.468 543.937L414.743 544.354C415.823 543.643 416.898 542.892 417.967 542.098L417.668 541.697L417.37 541.295C416.317 542.078 415.258 542.818 414.193 543.519L414.468 543.937ZM420.739 539.283L421.059 539.667C421.565 539.247 422.069 538.816 422.572 538.376L422.242 538L421.913 537.624C421.417 538.059 420.919 538.483 420.42 538.898L420.739 539.283ZM422.242 538L422.572 538.376C423.085 537.926 423.595 537.476 424.101 537.025L423.769 536.652L423.436 536.278C422.932 536.727 422.424 537.176 421.913 537.624L422.242 538ZM426.78 533.934L427.118 534.303C428.123 533.382 429.116 532.461 430.095 531.54L429.753 531.176L429.41 530.811C428.434 531.73 427.445 532.648 426.442 533.565L426.78 533.934ZM432.689 528.378L433.036 528.738C434.018 527.79 434.986 526.844 435.941 525.898L435.589 525.543L435.237 525.188C434.285 526.13 433.32 527.074 432.342 528.018L432.689 528.378ZM438.455 522.673L438.811 523.025C439.769 522.053 440.715 521.084 441.648 520.118L441.288 519.771L440.928 519.424C439.998 520.387 439.055 521.353 438.099 522.322L438.455 522.673ZM444.091 516.839L444.454 517.182C445.393 516.19 446.319 515.202 447.232 514.219L446.865 513.879L446.499 513.539C445.588 514.519 444.664 515.505 443.728 516.495L444.091 516.839ZM449.614 510.894L449.983 511.232C450.906 510.222 451.815 509.219 452.712 508.223L452.34 507.888L451.969 507.554C451.074 508.548 450.166 509.549 449.245 510.557L449.614 510.894ZM455.047 504.864L455.421 505.197C456.331 504.174 457.229 503.16 458.114 502.157L457.739 501.826L457.364 501.495C456.48 502.497 455.583 503.51 454.674 504.532L455.047 504.864ZM460.418 498.778L460.794 499.108C461.698 498.077 462.589 497.06 463.468 496.056L463.092 495.727L462.716 495.398C461.837 496.401 460.946 497.418 460.043 498.449L460.418 498.778ZM465.764 492.678L466.14 493.008C467.045 491.977 467.936 490.965 468.816 489.971L468.441 489.639L468.067 489.308C467.186 490.303 466.294 491.317 465.388 492.348L465.764 492.678ZM471.146 486.606L471.518 486.94C472.439 485.915 473.347 484.914 474.243 483.939L473.875 483.6L473.507 483.262C472.608 484.24 471.697 485.244 470.774 486.271L471.146 486.606ZM476.639 480.641L477.001 480.986C477.955 479.982 478.896 479.013 479.825 478.079L479.471 477.727L479.117 477.374C478.181 478.313 477.235 479.289 476.276 480.297L476.639 480.641ZM482.373 474.9L482.716 475.264C483.727 474.311 484.726 473.407 485.714 472.556L485.388 472.177L485.062 471.798C484.061 472.661 483.051 473.574 482.03 474.536L482.373 474.9ZM488.531 469.622L488.834 470.02C489.939 469.179 491.032 468.411 492.117 467.721L491.849 467.299L491.581 466.877C490.469 467.584 489.353 468.368 488.228 469.224L488.531 469.622ZM495.386 465.315L495.604 465.765C496.213 465.471 496.82 465.204 497.426 464.965L497.242 464.5L497.059 464.035C496.429 464.284 495.799 464.561 495.169 464.865L495.386 465.315ZM497.242 464.5L497.426 464.965C498.079 464.707 498.711 464.465 499.331 464.244L499.163 463.773L498.995 463.302C498.36 463.529 497.717 463.775 497.059 464.035L497.242 464.5ZM503.116 462.679L503.203 463.172C504.463 462.948 505.758 462.86 507.169 462.957L507.203 462.458L507.237 461.959C505.74 461.857 504.363 461.95 503.029 462.187L503.116 462.679ZM511.241 463.162L511.11 463.645C512.284 463.962 513.55 464.391 514.936 464.952L515.124 464.489L515.311 464.025C513.894 463.451 512.589 463.008 511.371 462.68L511.241 463.162ZM518.861 466.178L518.64 466.626C519.771 467.185 520.973 467.816 522.254 468.526L522.497 468.089L522.739 467.652C521.446 466.935 520.23 466.296 519.082 465.729L518.861 466.178ZM526.049 470.139L525.792 470.568C526.903 471.231 528.066 471.946 529.287 472.715L529.554 472.291L529.82 471.868C528.593 471.096 527.423 470.377 526.305 469.709L526.049 470.139ZM533.004 474.507L532.73 474.925C533.832 475.645 534.975 476.404 536.163 477.204L536.443 476.789L536.722 476.374C535.53 475.572 534.383 474.811 533.277 474.088L533.004 474.507ZM539.823 479.089L539.54 479.501C540.627 480.249 541.748 481.027 542.905 481.837L543.192 481.427L543.478 481.017C542.319 480.206 541.196 479.426 540.106 478.677L539.823 479.089ZM546.547 483.792L546.257 484.2C546.814 484.596 547.379 484.998 547.952 485.407L548.242 485L548.533 484.593C547.96 484.183 547.394 483.781 546.836 483.385L546.547 483.792Z" fill="#F9F9F9"/>
<circle cx="219.242" cy="614" r="6" fill="white"/>
<circle cx="219.242" cy="614" r="3" fill="#95C6FF"/>
<circle cx="548.242" cy="485" r="6" fill="white"/>
<circle cx="548.242" cy="485" r="3" fill="#95C6FF"/>
<path d="M321.698 554.315L315.168 560.311L312.958 552.837L321.698 554.315Z" fill="#F9F9F9"/>
<path d="M419.455 539.619L415.367 547.485L410.735 541.216L419.455 539.619Z" fill="#F9F9F9"/>
<path d="M481.07 475.614L479.618 484.359L473.273 479.832L481.07 475.614Z" fill="#F9F9F9"/>
<path d="M239.606 621H234.677V606.455H239.705C241.149 606.455 242.39 606.746 243.427 607.328C244.469 607.906 245.269 608.737 245.827 609.821C246.386 610.905 246.665 612.203 246.665 613.713C246.665 615.228 246.384 616.53 245.82 617.619C245.262 618.708 244.454 619.544 243.398 620.126C242.347 620.709 241.083 621 239.606 621ZM237.312 618.72H239.478C240.491 618.72 241.336 618.536 242.013 618.166C242.691 617.792 243.2 617.236 243.54 616.497C243.881 615.754 244.052 614.826 244.052 613.713C244.052 612.6 243.881 611.677 243.54 610.943C243.2 610.205 242.695 609.653 242.028 609.288C241.365 608.919 240.541 608.734 239.556 608.734H237.312V618.72ZM256.009 616.412V610.091H258.58V621H256.087V619.061H255.973C255.727 619.672 255.322 620.171 254.759 620.56C254.2 620.948 253.511 621.142 252.692 621.142C251.977 621.142 251.345 620.983 250.795 620.666C250.251 620.344 249.825 619.878 249.517 619.267C249.209 618.652 249.055 617.908 249.055 617.037V610.091H251.626V616.639C251.626 617.33 251.816 617.88 252.195 618.287C252.573 618.694 253.071 618.898 253.686 618.898C254.065 618.898 254.432 618.805 254.787 618.621C255.142 618.436 255.433 618.161 255.661 617.797C255.893 617.428 256.009 616.966 256.009 616.412ZM261.223 621V610.091H263.716V611.909H263.83C264.029 611.279 264.37 610.794 264.853 610.453C265.34 610.107 265.897 609.935 266.522 609.935C266.664 609.935 266.822 609.942 266.998 609.956C267.177 609.965 267.327 609.982 267.445 610.006V612.371C267.336 612.333 267.163 612.3 266.926 612.271C266.694 612.238 266.47 612.222 266.252 612.222C265.783 612.222 265.362 612.323 264.988 612.527C264.618 612.726 264.327 613.003 264.114 613.358C263.901 613.713 263.794 614.123 263.794 614.587V621H261.223ZM269.267 621V606.455H271.838V611.895H271.944C272.077 611.63 272.264 611.348 272.505 611.05C272.747 610.747 273.074 610.489 273.485 610.276C273.897 610.058 274.423 609.949 275.062 609.949C275.905 609.949 276.665 610.164 277.342 610.595C278.024 611.021 278.564 611.653 278.961 612.491C279.364 613.325 279.565 614.348 279.565 615.56C279.565 616.758 279.368 617.776 278.975 618.614C278.583 619.452 278.047 620.091 277.37 620.531C276.693 620.972 275.926 621.192 275.069 621.192C274.444 621.192 273.926 621.088 273.514 620.879C273.102 620.671 272.77 620.42 272.52 620.126C272.273 619.828 272.082 619.546 271.944 619.281H271.795V621H269.267ZM271.788 615.545C271.788 616.251 271.887 616.869 272.086 617.399C272.29 617.929 272.581 618.344 272.96 618.642C273.343 618.936 273.807 619.082 274.352 619.082C274.92 619.082 275.396 618.931 275.779 618.628C276.163 618.32 276.452 617.901 276.646 617.371C276.845 616.836 276.944 616.227 276.944 615.545C276.944 614.868 276.847 614.267 276.653 613.741C276.459 613.216 276.17 612.804 275.787 612.506C275.403 612.207 274.925 612.058 274.352 612.058C273.803 612.058 273.336 612.203 272.953 612.491C272.569 612.78 272.278 613.185 272.079 613.706C271.885 614.227 271.788 614.84 271.788 615.545ZM284.89 621.22C284.199 621.22 283.576 621.097 283.022 620.851C282.473 620.6 282.037 620.231 281.715 619.743C281.398 619.255 281.239 618.654 281.239 617.939C281.239 617.323 281.353 616.814 281.58 616.412C281.808 616.009 282.118 615.688 282.511 615.446C282.904 615.205 283.346 615.022 283.839 614.899C284.336 614.771 284.85 614.679 285.38 614.622C286.019 614.556 286.538 614.497 286.935 614.445C287.333 614.388 287.622 614.303 287.802 614.189C287.987 614.071 288.079 613.888 288.079 613.642V613.599C288.079 613.064 287.92 612.65 287.603 612.357C287.286 612.063 286.829 611.916 286.232 611.916C285.603 611.916 285.103 612.054 284.734 612.328C284.369 612.603 284.123 612.927 283.995 613.301L281.594 612.96C281.784 612.297 282.096 611.743 282.532 611.298C282.968 610.848 283.5 610.512 284.13 610.29C284.76 610.062 285.456 609.949 286.218 609.949C286.744 609.949 287.267 610.01 287.788 610.134C288.308 610.257 288.784 610.46 289.215 610.744C289.646 611.024 289.992 611.405 290.252 611.888C290.517 612.371 290.65 612.974 290.65 613.699V621H288.178V619.501H288.093C287.937 619.804 287.717 620.089 287.433 620.354C287.153 620.614 286.8 620.825 286.374 620.986C285.953 621.142 285.458 621.22 284.89 621.22ZM285.558 619.331C286.074 619.331 286.521 619.229 286.9 619.026C287.279 618.817 287.57 618.543 287.773 618.202C287.982 617.861 288.086 617.489 288.086 617.087V615.801C288.005 615.867 287.868 615.929 287.674 615.986C287.485 616.043 287.272 616.092 287.035 616.135C286.798 616.178 286.564 616.215 286.332 616.249C286.1 616.282 285.898 616.31 285.728 616.334C285.344 616.386 285.001 616.471 284.698 616.589C284.395 616.708 284.156 616.874 283.981 617.087C283.806 617.295 283.718 617.565 283.718 617.896C283.718 618.37 283.891 618.727 284.237 618.969C284.582 619.21 285.022 619.331 285.558 619.331ZM295.806 614.608V621H293.235V610.091H295.692V611.945H295.82C296.071 611.334 296.471 610.848 297.021 610.489C297.575 610.129 298.259 609.949 299.073 609.949C299.826 609.949 300.482 610.11 301.04 610.432C301.604 610.754 302.04 611.22 302.347 611.831C302.66 612.442 302.814 613.183 302.809 614.054V621H300.238V614.452C300.238 613.723 300.049 613.152 299.67 612.74C299.296 612.328 298.777 612.122 298.114 612.122C297.665 612.122 297.264 612.222 296.914 612.42C296.568 612.615 296.296 612.896 296.097 613.266C295.903 613.635 295.806 614.082 295.806 614.608Z" fill="#EAEEF0"/>
<path d="M568.582 481.453C568.515 480.833 568.236 480.35 567.744 480.004C567.256 479.659 566.621 479.486 565.84 479.486C565.291 479.486 564.82 479.569 564.427 479.734C564.034 479.9 563.733 480.125 563.525 480.409C563.317 480.693 563.21 481.018 563.205 481.382C563.205 481.685 563.274 481.948 563.411 482.17C563.553 482.393 563.745 482.582 563.987 482.739C564.228 482.89 564.496 483.018 564.789 483.122C565.083 483.226 565.379 483.314 565.677 483.385L567.04 483.726C567.59 483.854 568.118 484.027 568.624 484.244C569.136 484.462 569.593 484.737 569.995 485.068C570.402 485.4 570.724 485.8 570.961 486.268C571.198 486.737 571.316 487.286 571.316 487.916C571.316 488.768 571.098 489.519 570.663 490.168C570.227 490.812 569.597 491.316 568.773 491.68C567.954 492.04 566.962 492.22 565.798 492.22C564.666 492.22 563.683 492.045 562.85 491.695C562.022 491.344 561.373 490.833 560.904 490.161C560.44 489.488 560.189 488.669 560.151 487.703H562.744C562.781 488.21 562.938 488.631 563.212 488.967C563.487 489.304 563.844 489.554 564.285 489.72C564.73 489.886 565.227 489.969 565.776 489.969C566.349 489.969 566.851 489.884 567.282 489.713C567.718 489.538 568.058 489.296 568.305 488.989C568.551 488.676 568.676 488.312 568.681 487.895C568.676 487.516 568.565 487.204 568.347 486.957C568.129 486.706 567.824 486.498 567.431 486.332C567.043 486.162 566.588 486.01 566.067 485.878L564.413 485.452C563.215 485.144 562.268 484.678 561.572 484.053C560.88 483.423 560.535 482.587 560.535 481.545C560.535 480.688 560.767 479.938 561.231 479.294C561.7 478.65 562.336 478.151 563.141 477.795C563.946 477.436 564.858 477.256 565.876 477.256C566.908 477.256 567.812 477.436 568.589 477.795C569.37 478.151 569.983 478.645 570.428 479.28C570.873 479.91 571.103 480.634 571.117 481.453H568.582ZM573.551 492V481.091H576.123V492H573.551ZM574.844 479.543C574.437 479.543 574.087 479.408 573.793 479.138C573.499 478.863 573.353 478.534 573.353 478.151C573.353 477.762 573.499 477.433 573.793 477.163C574.087 476.889 574.437 476.751 574.844 476.751C575.256 476.751 575.606 476.889 575.895 477.163C576.189 477.433 576.336 477.762 576.336 478.151C576.336 478.534 576.189 478.863 575.895 479.138C575.606 479.408 575.256 479.543 574.844 479.543ZM581.337 485.608V492H578.766V481.091H581.224V482.945H581.352C581.603 482.334 582.003 481.848 582.552 481.489C583.106 481.129 583.79 480.949 584.604 480.949C585.357 480.949 586.013 481.11 586.572 481.432C587.135 481.754 587.571 482.22 587.879 482.831C588.191 483.442 588.345 484.183 588.34 485.054V492H585.769V485.452C585.769 484.723 585.58 484.152 585.201 483.74C584.827 483.328 584.308 483.122 583.646 483.122C583.196 483.122 582.796 483.222 582.445 483.42C582.1 483.615 581.827 483.896 581.629 484.266C581.434 484.635 581.337 485.082 581.337 485.608ZM595.698 496.318C594.775 496.318 593.982 496.193 593.319 495.942C592.656 495.696 592.123 495.364 591.721 494.947C591.318 494.531 591.039 494.069 590.883 493.562L593.198 493.001C593.302 493.214 593.454 493.425 593.653 493.634C593.852 493.847 594.119 494.022 594.455 494.159C594.796 494.301 595.225 494.372 595.741 494.372C596.47 494.372 597.074 494.195 597.552 493.839C598.03 493.489 598.269 492.911 598.269 492.107V490.04H598.141C598.009 490.305 597.815 490.577 597.559 490.857C597.308 491.136 596.974 491.37 596.558 491.56C596.146 491.749 595.627 491.844 595.002 491.844C594.164 491.844 593.404 491.647 592.722 491.254C592.045 490.857 591.505 490.265 591.103 489.479C590.705 488.688 590.506 487.698 590.506 486.51C590.506 485.312 590.705 484.301 591.103 483.477C591.505 482.649 592.048 482.021 592.729 481.595C593.411 481.164 594.171 480.949 595.009 480.949C595.648 480.949 596.174 481.058 596.586 481.276C597.003 481.489 597.334 481.747 597.58 482.05C597.826 482.348 598.013 482.63 598.141 482.895H598.283V481.091H600.819V492.178C600.819 493.11 600.596 493.882 600.151 494.493C599.706 495.104 599.098 495.561 598.326 495.864C597.554 496.167 596.678 496.318 595.698 496.318ZM595.719 489.827C596.264 489.827 596.728 489.694 597.112 489.429C597.495 489.164 597.786 488.783 597.985 488.286C598.184 487.788 598.283 487.192 598.283 486.496C598.283 485.809 598.184 485.208 597.985 484.692C597.791 484.176 597.502 483.776 597.119 483.491C596.74 483.203 596.273 483.058 595.719 483.058C595.147 483.058 594.668 483.207 594.285 483.506C593.901 483.804 593.612 484.214 593.418 484.734C593.224 485.25 593.127 485.838 593.127 486.496C593.127 487.163 593.224 487.748 593.418 488.25C593.617 488.747 593.908 489.135 594.292 489.415C594.68 489.689 595.156 489.827 595.719 489.827ZM606.593 492.22C605.902 492.22 605.279 492.097 604.725 491.851C604.176 491.6 603.74 491.231 603.418 490.743C603.101 490.255 602.942 489.654 602.942 488.939C602.942 488.323 603.056 487.814 603.283 487.412C603.511 487.009 603.821 486.688 604.214 486.446C604.607 486.205 605.049 486.022 605.542 485.899C606.039 485.771 606.553 485.679 607.083 485.622C607.722 485.556 608.241 485.497 608.638 485.445C609.036 485.388 609.325 485.303 609.505 485.189C609.69 485.071 609.782 484.888 609.782 484.642V484.599C609.782 484.064 609.623 483.65 609.306 483.357C608.989 483.063 608.532 482.916 607.935 482.916C607.306 482.916 606.806 483.054 606.437 483.328C606.072 483.603 605.826 483.927 605.698 484.301L603.298 483.96C603.487 483.297 603.799 482.743 604.235 482.298C604.671 481.848 605.203 481.512 605.833 481.29C606.463 481.062 607.159 480.949 607.921 480.949C608.447 480.949 608.97 481.01 609.491 481.134C610.012 481.257 610.487 481.46 610.918 481.744C611.349 482.024 611.695 482.405 611.955 482.888C612.22 483.371 612.353 483.974 612.353 484.699V492H609.881V490.501H609.796C609.64 490.804 609.42 491.089 609.136 491.354C608.856 491.614 608.504 491.825 608.077 491.986C607.656 492.142 607.161 492.22 606.593 492.22ZM607.261 490.331C607.777 490.331 608.224 490.229 608.603 490.026C608.982 489.817 609.273 489.543 609.477 489.202C609.685 488.861 609.789 488.489 609.789 488.087V486.801C609.709 486.867 609.571 486.929 609.377 486.986C609.188 487.043 608.975 487.092 608.738 487.135C608.501 487.178 608.267 487.215 608.035 487.249C607.803 487.282 607.602 487.31 607.431 487.334C607.048 487.386 606.704 487.471 606.401 487.589C606.098 487.708 605.859 487.874 605.684 488.087C605.509 488.295 605.421 488.565 605.421 488.896C605.421 489.37 605.594 489.727 605.94 489.969C606.285 490.21 606.726 490.331 607.261 490.331ZM614.938 496.091V481.091H617.467V482.895H617.616C617.748 482.63 617.935 482.348 618.177 482.05C618.418 481.747 618.745 481.489 619.157 481.276C619.569 481.058 620.094 480.949 620.734 480.949C621.576 480.949 622.336 481.164 623.013 481.595C623.695 482.021 624.235 482.653 624.633 483.491C625.035 484.325 625.237 485.348 625.237 486.56C625.237 487.758 625.04 488.776 624.647 489.614C624.254 490.452 623.719 491.091 623.042 491.531C622.365 491.972 621.598 492.192 620.741 492.192C620.116 492.192 619.597 492.088 619.185 491.879C618.773 491.671 618.442 491.42 618.191 491.126C617.945 490.828 617.753 490.546 617.616 490.281H617.509V496.091H614.938ZM617.46 486.545C617.46 487.251 617.559 487.869 617.758 488.399C617.961 488.929 618.253 489.344 618.631 489.642C619.015 489.936 619.479 490.082 620.023 490.082C620.592 490.082 621.067 489.931 621.451 489.628C621.835 489.32 622.123 488.901 622.317 488.371C622.516 487.836 622.616 487.227 622.616 486.545C622.616 485.868 622.519 485.267 622.325 484.741C622.13 484.216 621.842 483.804 621.458 483.506C621.075 483.207 620.596 483.058 620.023 483.058C619.474 483.058 619.008 483.203 618.624 483.491C618.241 483.78 617.95 484.185 617.751 484.706C617.557 485.227 617.46 485.84 617.46 486.545ZM632.197 492.213C631.131 492.213 630.208 491.979 629.427 491.51C628.646 491.041 628.04 490.385 627.609 489.543C627.183 488.7 626.969 487.715 626.969 486.588C626.969 485.461 627.183 484.474 627.609 483.626C628.04 482.779 628.646 482.121 629.427 481.652C630.208 481.183 631.131 480.949 632.197 480.949C633.262 480.949 634.185 481.183 634.967 481.652C635.748 482.121 636.352 482.779 636.778 483.626C637.209 484.474 637.424 485.461 637.424 486.588C637.424 487.715 637.209 488.7 636.778 489.543C636.352 490.385 635.748 491.041 634.967 491.51C634.185 491.979 633.262 492.213 632.197 492.213ZM632.211 490.153C632.789 490.153 633.272 489.995 633.66 489.678C634.048 489.356 634.337 488.925 634.526 488.385C634.72 487.845 634.817 487.244 634.817 486.581C634.817 485.913 634.72 485.31 634.526 484.77C634.337 484.225 634.048 483.792 633.66 483.47C633.272 483.148 632.789 482.987 632.211 482.987C631.619 482.987 631.127 483.148 630.734 483.47C630.345 483.792 630.054 484.225 629.86 484.77C629.671 485.31 629.576 485.913 629.576 486.581C629.576 487.244 629.671 487.845 629.86 488.385C630.054 488.925 630.345 489.356 630.734 489.678C631.127 489.995 631.619 490.153 632.211 490.153ZM639.606 492V481.091H642.099V482.909H642.213C642.412 482.279 642.752 481.794 643.235 481.453C643.723 481.107 644.279 480.935 644.904 480.935C645.047 480.935 645.205 480.942 645.38 480.956C645.56 480.965 645.709 480.982 645.828 481.006V483.371C645.719 483.333 645.546 483.3 645.309 483.271C645.077 483.238 644.852 483.222 644.635 483.222C644.166 483.222 643.744 483.323 643.37 483.527C643.001 483.726 642.71 484.003 642.497 484.358C642.284 484.713 642.177 485.123 642.177 485.587V492H639.606ZM651.916 492.213C650.822 492.213 649.878 491.986 649.082 491.531C648.292 491.072 647.683 490.423 647.257 489.585C646.831 488.742 646.618 487.75 646.618 486.609C646.618 485.487 646.831 484.502 647.257 483.655C647.688 482.803 648.289 482.14 649.061 481.666C649.833 481.188 650.74 480.949 651.781 480.949C652.454 480.949 653.088 481.058 653.685 481.276C654.286 481.489 654.816 481.82 655.276 482.27C655.74 482.72 656.104 483.293 656.369 483.989C656.634 484.68 656.767 485.504 656.767 486.46V487.249H647.825V485.516H654.303C654.298 485.023 654.191 484.585 653.983 484.202C653.775 483.813 653.483 483.508 653.109 483.286C652.74 483.063 652.309 482.952 651.817 482.952C651.291 482.952 650.83 483.08 650.432 483.335C650.034 483.586 649.724 483.918 649.501 484.33C649.284 484.737 649.172 485.184 649.168 485.672V487.185C649.168 487.819 649.284 488.364 649.516 488.818C649.748 489.268 650.072 489.614 650.489 489.855C650.905 490.092 651.393 490.21 651.952 490.21C652.326 490.21 652.664 490.158 652.967 490.054C653.27 489.945 653.533 489.786 653.756 489.578C653.978 489.37 654.146 489.112 654.26 488.804L656.661 489.074C656.509 489.708 656.22 490.262 655.794 490.736C655.373 491.205 654.833 491.569 654.175 491.83C653.517 492.085 652.764 492.213 651.916 492.213Z" fill="#EAEEF0"/>
</svg>
