<svg width="774" height="693" viewBox="0 0 774 693" fill="none" xmlns="http://www.w3.org/2000/svg">
<path fill-rule="evenodd" clip-rule="evenodd" d="M771.826 36.0976C769.978 35.379 769.568 34.0445 769.516 32.3508C769.516 31.6836 769.311 31.0163 769.26 30.4004C767.771 28.8093 765.667 27.8341 765.256 25.7297C767.617 23.3688 767.617 23.3688 767.977 21.8803C768.131 21.2644 768.233 20.4945 768.028 19.9299C767.207 18.0309 766.232 16.2345 765.102 14.0788C761.972 13.1549 758.533 12.1797 755.145 11.1532C753.195 12.4364 751.244 13.6682 749.448 14.9513C749.089 15.2079 749.089 15.8752 748.986 16.2345C750.577 18.2362 752.066 20.0839 754.016 22.4962C752.271 22.5989 751.244 22.6502 750.423 22.6502C748.319 20.1866 746.522 17.7742 744.367 15.7212C743.289 14.6947 741.441 13.5655 740.158 13.7195C737.13 14.1301 734.564 12.693 731.689 12.7443C728.764 12.7443 725.889 12.385 723.015 11.8718C720.962 11.5125 718.601 12.385 716.548 11.9744C714.495 11.5638 712.75 10.1267 710.492 9.76742C706.334 9.20283 702.228 8.53561 697.968 8.43296C695.145 8.38163 692.579 8.79224 689.961 9.7161C687.754 10.486 685.445 10.9992 683.135 11.4099C681.185 11.7691 679.183 11.9231 676.925 12.2311C677.592 14.9513 678.208 17.1583 680.825 18.7494C682.776 19.9299 684.264 21.7777 685.804 23.4714C686.779 24.4979 686.574 25.6784 685.393 26.6536C684.623 27.2695 683.597 27.6288 682.416 28.296C680.723 25.8837 678.516 24.6519 675.59 24.2413C673.383 23.9334 672.665 22.2909 673.075 19.9813C673.178 19.468 673.434 19.0061 673.383 18.4928C673.28 17.107 671.946 16.1318 670.303 16.1318C668.969 16.1318 668.199 16.953 668.302 18.5955C668.404 20.1866 668.507 21.675 667.532 23.3175C662.297 25.1652 655.984 24.0873 651.056 27.8854C650.646 29.3739 650.235 30.965 649.825 32.3508C647.31 32.9667 647.002 29.9385 644.743 30.4004C642.998 30.7597 641.15 30.4517 639.149 30.4517C638.687 29.3226 638.225 28.45 637.917 27.4748C636.634 23.2148 633.041 21.1617 629.243 19.4167C627.241 18.4928 624.983 18.4415 622.827 19.2114C618.772 20.7512 614.615 22.137 611.074 24.7546C609.944 25.6271 608.661 26.3457 607.378 26.9616C606.403 27.4235 604.863 27.4748 604.453 26.397C603.426 23.5741 600.603 23.5741 598.601 22.4449C596.6 23.5228 596.6 23.1635 594.649 23.0608C592.288 22.9582 590.44 21.5724 588.182 21.4697C587.977 21.4697 587.823 20.9564 587.618 20.5972C588.08 19.7759 588.541 18.9034 589.106 17.8769C588.49 17.3123 588.08 16.6964 587.515 16.3885C583.717 14.5921 579.97 14.9513 576.737 17.3636C575.299 18.4415 574.016 18.9547 572.271 18.8008L572.374 18.9034C570.27 17.261 567.857 17.8769 565.547 17.9796C560.979 18.1849 556.463 18.4415 551.895 18.7494C551.689 18.7494 551.536 19.2114 551.33 19.4167C552.254 20.1352 553.178 20.8538 554.256 21.675C552.819 22.7529 551.69 23.5227 550.663 24.4466C549.893 25.1652 550.355 26.551 551.433 26.9616C552.049 27.1669 552.767 27.0642 553.537 27.1155C553.999 29.9385 556.309 31.4782 557.9 33.4286C557.643 33.8906 557.489 34.2499 557.284 34.5065C556.514 35.3277 555.693 34.8658 554.769 34.7631C554.153 34.6605 553.229 34.9171 552.921 35.3277C552.613 35.7383 552.767 36.6622 553.127 37.1241C553.589 37.7913 554.769 38.3559 553.64 39.1258C553.075 39.4851 551.895 39.3311 551.125 39.0745C550.355 38.7665 549.739 38.0993 549.123 37.586C543.221 36.4055 543.221 36.4055 540.449 40.5116C538.088 40.8709 535.573 41.3328 533.11 40.0497C532.648 39.793 531.878 40.0497 531.005 40.101C531.364 43.6938 534.187 46.3627 533.52 50.1095C532.494 50.1609 531.364 50.4688 530.441 50.1609C528.747 49.5963 527.002 48.8777 525.616 47.8512C523.306 46.0548 520.791 44.823 518.02 43.7965C516.891 43.3858 516.018 42.462 514.786 41.5381C516.121 40.9735 517.044 40.6143 517.866 40.255C517.763 37.2781 515.813 36.3542 513.093 36.1489C513.144 32.7101 510.783 30.8623 508.37 29.3739C506.163 27.9881 503.392 26.4996 500.672 27.5261C498.772 28.2447 497.335 28.2447 495.539 27.6802C492.716 26.8589 490.15 27.1669 488.148 30.0411C488.815 31.119 489.585 32.2995 490.201 33.48C490.56 34.1985 490.612 35.0197 490.868 35.7896C488.713 36.6108 486.916 37.432 485.017 38.048C483.837 38.4072 482.4 38.9205 481.322 38.6639C479.525 38.2019 477.832 38.3559 476.035 38.5099C473.418 38.7152 473.007 38.3046 471.929 35.4817C471.775 35.0197 471.416 34.6605 471.057 34.0445C467.618 34.6091 464.179 35.0711 460.843 35.7383C458.687 36.2002 456.685 37.1241 455.71 39.2285C455.608 39.3824 455.197 39.4338 454.94 39.4851C454.376 38.8179 453.811 38.1506 453.452 37.74C452.836 37.74 452.579 37.6887 452.477 37.74C450.321 39.4851 448.165 40.255 445.65 38.1506C444.316 37.0214 442.622 37.1754 440.98 37.5347C440.158 38.5612 439.543 39.6391 440.723 40.7682C441.698 40.6143 442.622 40.5116 443.803 40.3576C441.339 45.2336 438.927 47.5946 434.41 49.9556C432.665 50.8281 436.052 52.2139 433.897 53.0351C433.64 52.8298 433.178 52.6245 433.127 52.4192C432.665 49.1343 432.922 46.0035 435.334 43.2832C435.796 42.7699 436.155 42.1027 436.258 41.4868C436.668 37.0214 437.951 32.7614 439.645 28.604C440.415 26.705 440.826 24.6519 441.339 22.6502C441.75 21.0591 441.339 19.622 440.569 18.1335C439.85 16.7991 438.516 16.9017 437.335 16.4911C436.925 16.3371 436.617 15.8239 436.206 15.3619C437.079 14.9513 437.797 14.5407 438.824 14.0275C437.027 12.4364 435.385 10.9992 433.743 9.61345C433.127 10.0754 432.665 10.3833 431.998 10.8452C429.534 7.30376 425.274 6.58522 421.527 4.73749C418.858 6.02064 416.292 7.20112 413.828 8.38161C413.726 9.81874 413.88 11.0506 413.469 12.1284C413.212 12.7443 412.083 13.2063 411.262 13.3089C410.851 13.3602 409.979 12.539 409.876 12.0258C409.62 10.6913 409.722 9.3055 409.568 7.9197C409.363 6.22595 408.336 5.50738 406.591 5.76401C404.487 6.07196 402.331 6.43122 400.278 6.73918C400.124 6.32857 400.022 6.17461 400.022 6.02064C400.638 1.45264 400.638 1.40131 396.275 0.374793C395.762 0.272141 395.197 0.169471 394.684 0.0668191C392.836 -0.18981 391.809 0.272135 391.142 1.81191C390.732 2.7871 390.475 3.76229 390.218 4.7888C390.013 5.61002 389.756 6.48257 389.705 7.30378C389.654 8.3303 389.705 9.35682 389.808 10.3833C389.91 11.4099 389.962 12.4877 390.424 13.4115C390.886 14.2841 391.861 14.9513 392.528 15.7725C393.041 16.4398 393.247 17.3123 393.709 18.0309C394.222 18.8008 395.813 18.0309 396.172 19.2114C393.76 20.3406 390.834 19.0574 388.884 21.1618C389.962 22.137 390.886 23.0095 391.809 23.882C391.861 23.882 391.963 23.882 392.015 23.882L391.912 23.9847C391.861 23.9334 391.861 23.9334 391.809 23.882C389.859 23.728 388.011 23.5741 386.831 25.7297C385.753 27.6801 383.546 28.1934 381.134 28.6553C381.134 27.2695 381.134 25.9864 381.134 24.8059C379.081 24.2926 378.721 25.4731 378.465 26.7049C373.64 28.0394 373.64 28.0394 371.587 30.1438C371.998 30.811 372.408 31.5296 372.819 32.2481C371.484 33.8392 369.637 34.7631 367.84 35.379C365.582 36.1489 364.401 37.894 362.862 39.2798C361.579 40.4603 360.757 42.0514 359.782 43.4885C359.526 43.8478 359.372 44.4637 359.526 44.8743C360.398 47.5433 358.55 48.4671 355.779 49.2883C356.908 50.1609 357.626 50.6741 358.294 51.1874H358.191C358.602 51.9573 358.961 52.7272 359.372 53.4971C361.835 54.7289 364.863 55.2935 366.762 57.9624C365.89 59.0916 365.069 60.1694 364.247 61.2472C364.145 61.3499 363.837 61.2986 363.58 61.3499C363.683 60.3234 363.786 59.3995 363.888 58.4243C363.17 58.3217 362.708 58.1677 362.451 58.2703C357.678 60.426 352.853 62.4277 347.772 63.8135C346.027 64.2755 345.411 66.0206 346.232 67.6117C347.259 69.6134 348.593 71.4611 349.568 73.4628C350.338 75.0026 351.313 75.9778 353.212 76.1317C354.65 76.2344 356.241 76.0291 357.165 77.4149C358.345 79.1086 360.09 79.8785 362.04 80.4944C363.272 80.8537 364.504 81.5723 364.658 82.9068C364.966 85.5757 366.608 87.68 367.943 89.8871C366.455 90.7596 365.12 91.5295 363.837 92.2994C362.913 89.5791 361.425 87.0128 362.708 83.9333C363.17 82.8041 361.681 81.6749 360.141 82.1369C357.165 83.0607 355.009 82.1882 352.597 80.4944C350.133 78.8007 347.31 77.3122 344.025 77.5689C342.537 77.6715 341.664 78.3901 341.613 80.0838C342.075 80.3918 342.793 80.6998 343.204 81.213C343.563 81.6749 343.871 82.4962 343.717 83.0094C343.46 83.9846 342.485 84.2412 341.51 83.9333C340.638 83.6766 339.868 83.1634 338.995 82.9581C338.533 82.8554 337.712 83.0094 337.558 83.3174C337.25 83.8306 337.045 84.6518 337.301 85.1651C338.225 87.2695 340.124 88.142 342.331 88.8092C343.82 89.2198 345.668 88.6039 347.156 90.5543C343.409 90.4003 340.073 91.2216 336.634 89.7844C335.3 87.3208 333.503 84.9598 333.144 81.8802C332.939 80.2891 332.323 78.698 330.116 76.953C330.68 78.852 331.091 79.7759 331.194 80.7511C331.245 81.7263 331.348 83.0094 330.783 83.728C328.833 86.2429 329.192 88.8606 329.449 90.2977C331.296 92.4021 332.169 93.8392 333.401 94.763C335.3 96.2001 336.121 97.8426 336.018 100.101C335.916 104.053 337.712 107.338 340.073 110.366C341.818 110.52 343.255 110.417 344.384 109.34C345.77 108.005 347.259 108.056 348.901 108.724C349.928 109.134 350.851 109.75 351.929 109.955C354.085 110.417 355.265 111.906 356.703 113.24C358.242 114.677 356.446 116.217 357.165 117.603C357.165 117.603 357.216 117.603 357.216 117.654V117.706C357.216 117.654 357.165 117.654 357.165 117.603C356.343 116.987 355.419 116.474 354.752 115.755C353.058 114.01 351.467 112.162 349.979 110.469C347.721 110.828 346.283 111.957 344.949 113.086C343.512 114.318 343.255 115.858 344.641 117.141C347.002 119.399 347.669 121.709 346.181 124.583C345.822 125.302 346.181 126.277 346.027 127.098C345.873 128.125 345.668 129.151 345.206 130.075C344.179 132.026 342.999 133.873 341.869 135.875C338.328 135.362 334.53 135.978 331.348 133.822C332.271 133.771 333.247 133.719 333.657 132.693C334.325 132.898 335.043 132.949 335.659 133.257C336.891 133.925 338.02 133.565 338.379 132.539C339.919 128.227 342.28 123.967 340.381 119.091C339.97 118.014 340.022 116.731 339.868 115.447C336.172 113.805 334.581 110.777 333.452 107.389C332.477 104.618 331.296 101.846 330.526 99.0231C329.962 96.9187 329.038 94.8657 327.242 93.7878C324.624 92.1967 324.419 90.041 324.265 87.5774C324.059 84.4978 324.059 81.367 322.366 78.8007C318.465 76.645 314.718 77.2096 310.817 78.2874C310.099 80.8537 310.458 83.42 310.663 85.9863C310.92 88.9632 310.971 91.6835 308.97 94.3524C307.738 95.9948 307.584 98.2532 309.585 99.9983C311.587 101.743 312.408 104.053 312.152 106.517C311.946 108.621 312.922 110.007 314.769 110.52C316.874 111.085 318.208 112.316 319.645 113.6C320.672 114.523 322.006 115.191 323.187 115.961C323.597 117.449 323.854 118.937 322.366 120.683C318.978 117.808 314.975 116.217 310.971 114.729C309.637 114.216 307.994 114.113 306.917 113.292C302.041 109.648 296.6 110.725 291.262 111.239C289.26 114.831 293.469 116.115 293.931 118.681C293.674 120.734 290.8 121.042 290.698 123.249C290.646 123.762 289.209 123.608 288.85 123.095C288.131 121.966 288.799 120.169 286.848 119.656C286.54 119.707 286.13 119.707 285.822 119.861C282.896 121.145 280.484 123.454 276.891 123.249C276.121 123.198 275.094 124.327 274.427 125.097C273.195 126.431 271.758 126.79 269.911 126.123C269.757 125.148 269.705 124.121 269.397 123.198C269.089 122.12 267.55 121.76 266.78 122.633C265.291 124.429 263.341 125.302 261.031 125.867C259.389 126.226 258.208 127.304 257.028 128.484C254.923 130.64 252.665 132.59 250.201 134.9C250.201 134.849 250.099 135.156 249.996 135.516C249.893 135.824 249.893 136.183 249.791 136.542C248.816 140.186 245.326 141.264 242.451 138.647C241.425 137.723 240.039 137.004 240.142 134.951C241.168 133.976 242.4 132.795 243.632 131.666C241.733 127.92 238.961 126.328 234.701 127.406C234.393 127.458 234.085 127.458 233.726 127.509C234.906 130.178 236.036 132.847 235.522 135.824C235.317 137.056 235.779 138.082 236.805 139.057C238.961 141.008 238.653 143.266 237.319 145.678C234.958 145.268 232.853 144.908 230.595 144.498C228.285 147.423 224.539 149.066 223.358 153.121C224.025 154.096 224.949 155.225 225.462 156.457C225.719 157.124 225.462 158.099 225.154 158.818C224.744 159.69 223.717 159.844 222.793 159.485C220.432 158.51 218.123 157.483 215.813 156.508C215.043 156.2 214.171 155.995 213.042 155.584C212.58 156.713 211.81 157.74 212.015 158.561C212.169 159.434 213.093 160.357 213.965 160.871C214.838 161.435 216.07 161.487 216.994 162C217.507 162.308 217.917 163.078 217.969 163.642C218.071 164.669 217.096 165.439 216.275 165.336C214.684 165.182 213.093 164.669 211.656 164.053C210.065 163.386 208.576 162.411 206.831 161.435C206.318 160.203 205.907 158.715 205.137 157.329C204.367 155.892 203.854 154.558 204.008 152.915C204.213 150.554 202.828 149.271 200.518 148.296C198.106 147.321 196.001 145.73 194.77 143.112C195.488 143.112 195.847 143.009 196.155 143.112C201.288 145.37 206.626 146.961 212.169 148.039C214.735 148.553 217.199 148.45 219.765 147.783C223.409 146.859 225.154 144.395 226.078 141.264C226.489 139.878 226.232 138.595 225.308 137.363C223.512 134.797 220.843 133.257 218.071 132.026C215.249 130.742 212.528 129.408 210.065 127.663C205.651 124.532 200.775 123.146 195.18 123.813C193.846 123.967 192.409 123.505 191.074 123.352C191.074 122.325 191.228 121.606 191.023 121.042C190.869 120.683 190.253 120.272 189.791 120.169C189.175 120.067 188.2 120.067 187.841 120.426C186.198 122.017 184.299 120.631 182.605 120.991C180.552 121.401 179.526 120.375 178.602 118.681C180.912 118.373 183.324 118.168 184.145 115.396C181.887 113.651 179.166 113.035 176.498 112.47C175.625 113.497 175.009 114.216 173.777 115.601C173.675 113.856 173.726 112.881 173.521 112.009C173.418 111.444 173.11 110.674 172.648 110.417C171.673 109.904 170.852 110.52 170.39 111.29C169.928 112.009 169.928 112.932 169.569 113.702C169.312 114.216 168.799 114.677 168.388 115.191C167.669 114.421 167.259 113.959 166.592 113.24C165.616 114.883 164.744 116.32 163.769 117.962C162.537 115.755 164.333 114.267 164.539 112.47C162.691 112.009 161.1 112.06 159.971 113.908C159.457 114.78 158.585 115.447 157.969 116.269C157.25 117.192 156.686 118.168 156.172 118.835C153.965 118.63 152.272 117.038 150.219 118.424C150.681 119.348 151.091 120.067 151.451 120.785C147.344 122.53 147.344 122.53 143.136 122.633C142.982 122.633 142.879 122.684 142.725 122.684C142.161 123.095 141.647 123.505 141.083 123.865C140.826 123.967 140.569 124.121 140.313 124.224C140.569 124.173 140.877 124.121 141.134 124.07C140.364 125.507 139.389 125.969 137.644 125.148C136.412 124.583 135.129 125.969 135.642 127.15C135.847 127.612 136.258 127.971 136.617 128.279C137.746 129.203 137.541 130.075 136.566 130.845C135.796 131.461 134.924 131.974 134.102 132.539C134.77 133.206 135.437 133.822 136.104 134.489C132.973 135.926 130.458 137.723 129.483 141.11C129.226 142.034 129.021 142.907 128.764 143.779C128.559 144.549 126.917 144.806 126.25 145.576C125.377 146.653 124.607 147.885 124.196 149.168C123.221 152.248 122.451 155.379 121.579 158.51C121.425 158.972 121.476 159.793 121.22 159.896C118.859 160.768 118.602 163.488 116.498 164.618C114.855 165.49 113.777 166.876 113.213 168.57C112.597 170.469 111.262 171.752 109.62 172.932C108.491 173.754 107.413 174.729 106.335 175.601L106.438 175.653C105.36 175.755 104.282 175.858 103.05 175.961C103.102 176.628 103.204 177.244 103.256 177.86C101.767 178.783 100.279 179.707 98.7902 180.631C95.5567 182.582 95.1461 183.711 96.4292 187.765C97.5071 187.765 98.5849 187.817 99.6627 187.765C100.792 187.714 102.024 186.739 103.461 188.433C100.741 188.587 98.4822 188.741 96.0186 188.895C95.9673 191.204 96.6345 192.795 98.7389 193.668L98.6362 193.719C99.9707 196.286 97.4557 197.62 96.2752 199.262C96.8398 199.673 97.0964 199.93 97.4044 200.084C99.3034 200.854 99.714 201.623 98.6362 202.855C98.0716 203.471 96.9938 203.676 97.6097 205.216C98.6362 205.883 99.9707 206.756 101.305 207.629C103.974 209.425 106.489 208.501 108.953 207.269C109.723 206.91 110.185 206.037 110.852 205.473C112.032 204.446 113.161 203.317 114.445 202.393C116.292 201.11 116.344 201.162 117.216 198.236C118.345 200.494 119.526 202.445 120.193 204.754C121.271 208.296 121.989 212.094 124.402 215.173C125.274 216.251 126.044 217.381 126.917 218.612C126.506 219.382 126.096 220.152 125.685 220.922C126.763 221.949 127.789 223.026 128.867 224.053C130.356 224.156 131.844 224.309 132.563 222.616C133.076 221.333 134.205 220.563 135.488 220.511C138.465 220.46 140.415 218.715 142.52 217.226C141.493 215.789 140.877 214.25 141.083 212.505C141.339 210.605 141.853 208.758 141.75 206.91C141.647 204.857 142.571 203.42 144.265 202.701C147.704 201.264 148.32 198.595 148.32 195.054C147.19 193.925 146.061 192.18 144.368 191.307C142.007 190.075 141.442 188.381 141.545 186.174C141.596 184.789 141.955 183.403 141.853 182.068C141.699 179.656 142.52 177.654 144.162 175.909C145.651 174.369 147.139 172.932 148.73 171.495C150.065 170.315 151.604 169.34 152.785 168.056C154.325 166.363 155.351 164.464 154.889 161.949C154.633 160.46 154.787 158.818 155.3 157.381C155.865 155.789 156.84 153.993 158.893 153.788C161.202 153.582 163.666 153.736 165.976 154.096C168.491 154.506 169.722 156.097 169.261 158.15C167.259 160.717 165.565 162.924 163.82 165.131C161.972 167.492 160.484 170.161 158.225 172.06C156.121 173.856 155.505 175.601 156.224 177.911C157.302 181.401 157.918 184.943 157.815 188.587C157.815 188.895 158.02 189.254 158.123 189.459C160.997 190.999 163.82 192.539 167.156 194.335C169.671 193.463 172.648 192.179 175.83 191.461C179.166 190.691 182.657 190.486 185.941 190.075C187.481 191.204 188.867 192.231 190.509 193.411C188.816 194.438 187.173 195.054 186.198 196.183C184.504 198.133 182.759 198.339 180.398 197.569C176.908 196.388 173.521 197.415 170.287 198.647C168.029 199.519 167.721 200.546 168.08 202.753C168.439 204.806 169.569 206.191 171.776 206.91C171.776 208.655 171.878 210.195 171.724 211.735C171.622 213.018 170.903 213.993 168.491 213.89C168.029 213.377 167.361 212.351 166.438 211.478C164.898 210.092 162.742 210.195 161.767 211.889C160.279 214.455 158.893 217.124 159.868 220.255C160.433 222.051 160.997 223.899 160.381 225.747C159.047 226.465 157.353 226.876 156.686 227.902C155.813 229.185 154.941 230.007 153.401 230.212C151.399 230.417 150.424 229.288 149.551 227.851C149.397 227.646 148.936 227.594 148.422 227.389C142.622 228.21 138.26 232.214 132.511 234.831C131.331 233.599 130.099 232.368 128.456 230.674C126.301 231.341 123.581 232.162 121.117 232.932C119.218 232.008 117.473 231.136 115.779 230.315C115.214 229.237 114.393 228.21 114.085 227.081C113.88 226.209 114.239 225.182 114.342 224.258C114.291 224.258 114.291 224.258 114.239 224.258C114.291 224.258 114.291 224.207 114.342 224.207C116.087 222.924 116.96 221.127 117.575 219.074C116.241 217.688 116.087 216.046 116.652 214.25C116.908 213.377 116.754 212.505 115.368 212.197C114.906 212.505 114.291 212.864 113.726 213.274C113.315 213.582 112.956 213.993 112.494 214.301C111.878 214.712 111.16 214.917 110.646 215.379C110.287 215.635 109.928 216.251 110.031 216.611C110.236 217.38 110.031 217.791 109.62 218.407C108.439 220.511 108.491 222.821 109.415 225.182C110.338 227.594 111.314 230.007 111.365 232.624C111.416 234.215 109.877 236.166 108.491 235.704C105.771 234.831 103.974 236.73 101.716 237.09C96.7371 237.86 93.3496 240.374 92.4771 245.302C92.2205 246.79 91.4506 247.817 90.0648 248.535C89.1409 249.049 88.3197 249.87 87.3445 250.28C85.5994 251.102 84.4189 252.128 83.957 254.027C83.7517 254.9 82.8791 256.029 82.0066 256.337C80.1075 257.055 78.3625 257.671 77.1306 259.365C76.874 259.776 75.7448 259.827 75.0776 259.724C73.6918 259.468 72.3574 258.954 70.6636 258.441C70.6636 260.084 70.6636 261.572 70.6636 263.266C69.1751 263.368 67.6867 263.882 66.7115 263.42C63.9913 262.239 61.7842 263.368 59.1666 264.138C59.3206 265.319 59.4746 266.294 59.5772 267.321C61.3736 267.988 63.0674 268.706 64.8124 269.22C66.5062 269.733 67.892 270.708 68.3539 272.197C69.0212 274.404 70.8689 275.533 72.46 276.867C73.2812 280.768 72.4087 284.515 71.9981 288.261C71.9467 288.775 71.6901 289.237 71.4335 289.699C70.8689 290.93 69.7397 291.752 68.4052 291.546C63.5806 290.725 58.602 291.546 53.7774 290.469C51.0058 289.853 47.9776 289.647 45.1034 289.853C43.4609 289.955 41.9211 291.29 40.33 292.111C39.8681 292.368 39.4575 292.727 39.2522 292.829C39.6628 294.883 40.0734 296.525 40.2787 298.219C40.9973 303.146 40.5353 307.868 37.9691 312.333C37.5584 313.052 37.3018 314.284 37.6611 314.797C39.7141 317.261 39.5088 320.289 40.1247 323.42C41.6132 323.574 43.1016 324.087 44.4361 323.882C47.4643 323.368 49.4147 324.344 50.5439 327.012C50.5952 327.166 50.7492 327.32 50.8518 327.474C52.135 329.066 53.2128 329.322 55.0605 328.142C57.8834 326.345 60.8604 325.37 64.3506 325.678C65.9417 325.832 67.738 325.575 69.1238 324.959C70.7149 324.241 72.2547 323.163 73.3839 321.88C74.975 320.032 76.2068 317.928 77.5926 315.875C77.6952 315.772 77.5926 315.516 77.5926 315.362C77.0793 314.232 76.6174 313.155 76.0015 311.769C78.6191 308.381 80.5182 304.429 85.3942 302.992C87.8578 302.273 89.2949 300.477 89.3975 297.962C89.4489 296.782 89.5515 295.55 89.8082 294.369C90.3727 292.008 92.0151 290.879 94.5814 291.29C97.2504 291.752 99.868 292.419 102.64 293.035C105.411 291.187 108.439 289.288 111.365 287.286C112.494 286.516 113.675 286.362 115.009 286.722C117.062 287.235 118.448 288.415 119.628 290.109C123.478 295.806 127.635 301.247 134.975 303.351C135.488 303.505 135.796 304.019 136.309 304.224C138.67 305.302 140.159 307.406 142.263 308.638C144.265 309.818 144.727 311.512 145.394 313.257C146.215 315.31 145.343 316.901 143.906 318.544C141.801 318.903 139.594 319.16 137.49 319.673C135.437 320.135 133.179 318.954 130.818 320.597C133.897 323.625 137.439 324.959 140.98 325.986C141.391 325.627 141.596 325.524 141.647 325.421C142.212 323.112 141.237 319.827 145.702 320.135C145.959 320.135 146.318 319.724 146.472 319.468C147.498 317.671 148.576 315.875 149.449 313.976C149.654 313.462 149.243 312.641 148.987 312.025C148.73 311.409 148.217 310.845 148.063 310.178C147.755 308.279 149.551 306.79 151.451 307.355C152.426 307.663 153.298 308.125 154.581 308.638C154.53 307.817 154.633 307.149 154.376 306.893C151.091 303.659 145.959 302.992 142.982 299.297C142.828 299.091 142.314 299.091 141.955 299.091C139.081 298.835 137.285 297.038 136.053 294.883C134.41 292.06 132.357 289.75 129.534 288.005C128.2 287.184 127.635 285.952 127.738 284.463C127.841 283.437 127.943 282.41 128.046 281.538C129.38 280.306 130.715 279.536 132.409 279.844C133.076 281.23 133.64 282.359 134.154 283.488C135.54 283.026 136.515 282.667 137.695 282.308C138.568 283.54 139.594 284.566 140.107 285.849C141.185 288.672 143.392 290.109 146.215 291.29C151.245 293.343 156.019 295.909 159.149 300.528C159.201 300.99 159.252 301.504 159.252 302.017C159.047 305.199 159.56 308.125 162.178 310.486C163.358 311.512 164.231 312.898 165.206 314.13C166.335 315.669 167.413 317.261 168.542 318.852C167.721 320.956 169.928 321.88 170.544 323.42C171.416 325.575 173.264 325.883 175.266 325.575C176.138 323.779 176.857 322.239 177.575 320.699C179.936 320.186 179.936 318.441 179.834 316.491C178.448 315.875 177.011 315.259 176.087 314.848C175.317 312.949 174.701 311.512 174.137 310.126C173.88 309.51 173.521 308.843 173.469 308.176C173.418 307.765 173.88 307.303 174.085 306.79C175.163 307.303 176.087 307.714 177.062 308.176C177.627 307.817 178.191 307.611 178.499 307.201C179.372 305.918 179.936 304.378 181.989 304.326C183.632 304.275 185.274 304.07 186.865 304.224C188.456 304.378 189.38 305.558 189.534 307.047C189.637 308.227 189.534 309.459 189.534 310.537C193.332 313.36 193.178 314.386 191.177 317.877C192.203 319.262 193.281 320.597 194.256 321.983C195.488 323.779 196.925 325.267 199.338 325.575C200.826 325.781 202.006 326.397 203.187 327.269C205.291 328.809 207.344 328.501 209.551 326.602C210.065 326.14 210.321 325.473 210.475 325.319C213.555 325.165 215.505 326.089 217.199 327.526C218.585 328.706 220.124 328.655 221.818 328.45C224.385 328.193 225.976 326.499 227.772 325.062C229.671 325.37 231.416 325.627 233.11 325.883C233.213 327.782 233.007 329.579 233.469 331.17C234.136 333.531 233.623 335.687 232.956 337.791C231.827 341.23 230.492 344.617 229.107 348.005C228.696 348.929 228.029 349.853 227.259 350.571C226.643 351.136 225.719 351.7 224.949 351.752C222.588 351.803 220.073 352.06 217.866 351.392C214.273 350.314 210.989 350.468 207.806 352.111C206.267 352.932 204.778 353.035 203.084 352.624C198.824 351.7 194.462 351.033 190.202 350.058C186.865 349.288 183.529 348.313 180.244 347.338C179.577 347.132 178.91 346.773 178.345 346.311C175.112 343.745 171.519 344.155 167.926 345.284C165.154 346.157 163.923 348.21 164.333 350.93C164.436 351.598 164.795 352.265 164.898 352.932C165.103 354.728 163.871 355.806 162.537 356.73C161.356 357.551 160.073 357.243 158.944 356.576C158.02 356.012 157.199 355.293 156.275 354.78C153.914 353.394 151.502 352.111 148.628 352.162C146.215 352.213 144.829 350.982 144.214 348.98C143.7 347.286 142.571 346.311 140.826 345.952C138.516 345.438 136.155 344.463 133.897 344.669C129.021 345.131 125.685 342.256 121.836 340.409C120.809 339.947 120.655 338.561 121.374 337.688C121.835 337.175 122.4 336.713 122.913 336.2C124.658 334.66 125.018 332.761 123.375 331.17C121.733 329.579 123.119 327.936 122.759 326.448C122.143 326.089 121.579 325.883 121.271 325.524C119.628 323.625 117.729 323.317 115.42 324.446C113.418 325.473 111.314 325.627 109.004 325.319C107.259 325.062 105.257 324.703 103.666 325.216C100.946 326.14 98.3282 325.883 95.6079 325.678C94.1708 325.575 92.7338 325.986 91.2966 326.14C90.0135 326.294 88.7816 326.756 87.4985 326.653C84.7782 326.499 82.4685 327.423 80.1589 328.552C78.6704 329.271 77.2846 329.989 75.7962 330.657C71.5361 332.453 67.7381 333.172 63.0674 333.069C61.425 333.069 59.6799 333.531 58.1401 333.12C56.4976 332.71 55.0605 331.58 53.2128 330.605C52.5969 331.837 51.9297 332.864 51.6217 333.941C50.6465 337.124 48.9014 339.587 45.5652 340.819C44.898 341.076 44.3334 341.589 43.7175 341.948C40.8946 343.539 37.815 344.874 37.6097 348.621C37.6097 349.031 36.9939 349.493 36.6859 349.904C35.6594 351.238 35.0435 352.675 35.5054 354.267C36.5832 358.013 34.4275 360.734 31.9639 362.992C30.0648 364.737 27.5499 366.174 25.0349 366.995C22.7252 367.765 21.2368 368.946 20.0563 370.742C19.4917 371.615 18.9785 372.795 18.1573 373.154C15.3857 374.386 14.3592 376.799 13.0247 379.006C12.2035 380.34 11.4849 381.829 10.407 382.958C7.07085 386.345 5.78771 390.759 3.22142 394.557C1.88694 396.456 1.83567 398.817 4.29931 400.562C4.91522 400.973 5.42843 402.154 5.27445 402.821C4.55589 405.336 5.68509 407.594 5.8904 409.955C6.04438 411.495 5.94172 413.035 5.63377 414.523C5.22316 416.525 4.60725 418.578 3.83736 420.477C3.01615 422.53 1.83566 424.429 0.757812 426.482C2.14361 428.638 4.19666 430.691 2.75953 433.514C3.27279 435.515 3.68336 437.928 5.99302 438.595C9.27788 439.519 10.407 442.29 12.4601 444.241C13.076 444.857 13.4866 445.729 14.2052 446.088C17.0794 447.628 18.7218 449.784 19.5944 452.864C20.3643 455.686 21.75 458.663 24.7783 459.946C28.679 461.64 31.6559 464.412 35.0434 466.722C37.4044 468.313 40.0221 469.647 42.5884 470.93C43.9229 471.597 45.36 471.751 46.7971 470.982C50.3899 469.031 54.342 468.621 58.3967 468.364C61.3736 468.159 64.1966 468.056 67.0195 469.082C67.9947 469.442 69.2265 469.75 70.2017 469.493C72.6653 468.877 75.2316 468.261 77.3873 467.029C81.596 464.668 86.2153 463.745 90.886 462.975C95.8646 462.102 98.6875 463.745 100.997 468.21C101.305 468.826 101.562 469.493 101.87 470.109C102.588 471.443 103.769 472.265 105.36 472.265C107.208 472.265 109.004 472.111 110.852 471.905C112.853 471.649 114.804 471.289 117.062 470.93C117.729 471.7 118.294 472.778 119.167 473.24C121.066 474.164 121.476 475.858 121.887 477.5C122.4 479.399 121.938 481.247 121.117 483.043C120.706 484.018 119.885 484.993 119.936 485.866C120.296 489.305 118.756 492.23 117.524 494.797C118.807 499.775 121.784 503.214 125.48 506.191C126.044 506.653 126.557 507.115 127.122 507.577C129.483 509.373 130.869 511.734 131.895 514.403C132.717 516.508 133.846 518.458 134.616 520.562C135.437 522.821 136.669 525.233 136.463 527.44C136.155 530.519 136.771 533.188 138.003 535.96C139.697 539.604 139.389 542.94 135.95 545.815C133.486 547.919 131.69 550.485 131.639 553.873C131.587 555.002 130.92 556.182 130.356 557.26C128.508 560.699 128.867 564.343 129.072 567.936C129.124 568.757 129.534 569.681 130.048 570.297C134.872 575.481 135.95 582.513 139.851 588.158C140.056 588.415 140.107 588.826 140.159 589.134C140.775 593.548 141.339 598.013 142.058 602.427C142.828 607.252 144.008 611.871 147.652 615.669C149.089 617.158 150.167 619.057 150.989 620.956C152.374 624.138 153.452 627.474 154.684 630.708C155.351 632.401 155.711 633.941 154.787 635.686C154.427 636.353 154.53 637.329 154.735 638.098C155.095 639.587 155.659 641.024 156.172 642.41C157.456 643.231 158.585 644.104 159.868 644.822C160.638 645.233 161.818 645.797 162.383 645.541C165.257 644.206 168.593 644.771 171.365 643.539C174.188 642.307 177.165 642.205 179.936 642.666C182.657 643.128 184.915 642.718 187.327 641.845C188.148 641.537 189.021 641.075 189.894 641.024C192.819 640.87 195.18 639.638 197.387 638.047C202.366 634.454 206.934 630.554 210.475 625.626C212.528 622.752 214.479 619.878 217.507 617.722C218.585 616.952 219.457 615.618 220.022 614.386C221.459 611.05 222.793 607.611 221.51 603.967C222.999 602.119 224.744 600.939 226.9 600.271C227.926 599.963 229.055 599.758 230.082 599.399C232.648 598.475 234.085 596.884 234.496 594.061C234.958 590.571 234.855 587.235 233.777 583.847C233.367 582.513 233.007 581.178 232.648 579.844C232.34 578.56 232.597 577.38 233.777 576.61C239.782 572.709 244.299 566.909 251.536 564.651C252.357 564.395 253.127 563.779 253.846 563.265C258.26 560.288 261.236 556.644 260.107 551.101C259.953 550.434 260.056 549.715 260.107 549.048C260.261 544.788 260.467 540.477 260.621 536.217C254.821 531.957 255.385 526.106 255.95 520.1C255.129 518.92 254.256 517.637 253.23 516.2C254.256 514.095 255.18 512.042 256.258 510.092C257.182 508.398 258.362 506.858 259.183 505.165C260.056 503.419 261.185 502.034 262.982 500.905C264.624 499.878 266.061 498.441 267.242 496.901C271.142 492.025 276.121 488.176 280.689 483.967C281.356 483.351 282.126 482.889 282.896 482.427C291.467 477.705 297.267 470.828 301.322 462.41C302.656 459.587 303.94 456.764 305.89 454.198C308.713 450.605 309.637 446.345 309.38 441.931C309.329 441.161 308.867 440.443 308.456 439.313C304.504 441.367 300.552 441.777 296.6 442.444C291.416 443.368 286.13 443.727 281.202 445.781C279.714 446.396 278.277 445.986 277.199 444.908C275.659 443.42 274.171 441.931 272.682 440.443C273.606 437.312 273.606 437.312 271.758 435.464C270.988 434.745 270.321 433.924 269.551 433.154C266.472 430.024 263.751 426.533 259.132 425.045C256.874 424.326 255.385 422.376 254.718 420.015C254.359 418.681 253.897 417.346 253.486 416.012C252.768 413.805 251.587 411.905 249.432 410.622C246.249 408.723 244.607 406.106 244.71 402.461C244.761 401.127 244.042 399.793 243.837 398.407C243.324 395.122 241.784 392.504 238.448 391.067C236.703 390.349 235.779 389.014 235.984 387.372C236.241 385.062 234.958 383.42 233.828 381.675C232.237 379.16 230.184 376.799 229.107 374.078C227.515 369.972 225.565 366.174 222.434 362.889C222.024 362.479 221.356 361.811 222.691 361.144C223.204 361.811 223.717 362.479 224.282 363.095C225.206 364.172 226.181 365.199 227.207 366.174C227.875 366.79 228.645 367.047 229.671 366.636C232.34 365.61 232.905 365.558 234.136 367.252C237.832 372.179 241.989 376.799 244.196 382.752C249.586 384.703 251.639 388.86 251.947 394.095C252.152 397.483 253.692 399.998 256.822 401.692C259.44 403.129 261.288 405.079 262.314 407.902C262.879 409.493 264.162 410.828 265.24 412.213C266.215 413.445 267.293 414.626 268.422 415.806C269.808 417.295 270.629 419.091 270.526 421.041C270.27 425.353 272.374 429.1 273.503 433C274.171 435.259 275.556 435.515 278.277 435.31C280.946 435.105 282.177 432.692 284.538 432.333C286.848 431.974 289.414 432.59 291.467 431.255C294.342 429.459 298.14 429.408 300.706 426.995C301.271 426.431 302.4 426.379 303.272 426.123C305.377 425.455 307.481 424.891 309.534 424.121C311.023 423.556 312.768 422.992 313.332 421.401C314.153 419.091 316.001 418.373 318.26 417.859C320.723 417.295 323.135 416.525 325.804 415.755C326.728 414.112 327.447 411.957 330.116 411.803C330.578 411.752 331.245 411.341 331.399 410.982C332.528 408.569 334.684 407.44 337.712 406.876C336.429 403.385 337.969 401.332 340.689 399.177C342.947 397.432 345.154 394.968 344.898 391.683C343.82 390.503 342.537 389.425 341.664 388.142C340.484 386.294 338.893 385.678 336.737 385.473C331.964 385.011 330.064 383.214 329.038 378.8C328.73 377.466 328.473 376.183 328.165 374.643C325.189 376.439 323.341 378.749 321.544 381.11C320.056 383.112 318.26 384.087 315.591 383.933C313.999 383.83 312.357 384.241 310.766 384.395C309.38 384.549 308.148 383.984 307.635 382.804C307.276 382.034 307.173 381.161 307.019 380.34C306.711 378.698 306.403 377.055 305.993 374.694C304.658 376.234 303.837 377.158 302.656 378.544C301.681 376.901 300.706 375.823 300.398 374.54C299.782 372.025 298.345 370.075 296.343 368.484C294.29 366.893 293.11 364.788 291.673 362.787C290.133 360.58 289.517 358.424 291.878 355.96C293.931 355.96 296.292 355.96 298.55 355.96C300.86 359.348 303.067 362.53 305.223 365.712C308.046 366.533 310.561 367.663 312.973 369.356C316.463 371.769 320.723 373.36 325.137 370.486C325.702 370.126 326.472 369.921 327.19 369.767C328.576 369.356 329.757 369.716 330.475 370.947C331.45 372.59 332.323 374.284 333.247 375.926C338.328 376.593 343.255 377.004 348.08 377.979C351.416 378.646 354.598 378.544 357.883 378.236C362.194 377.876 366.557 377.568 370.92 377.261C371.998 377.209 373.076 377.312 374.513 377.415C376.206 379.519 377.952 381.623 380.261 384.395C381.801 384.549 383.751 385.627 385.342 387.474C386.061 388.347 387.498 388.706 388.576 389.271C389.294 389.63 390.475 389.271 390.834 390.708C389.962 391.272 388.987 391.888 387.806 392.607C389.346 394.095 390.732 395.481 392.117 396.764C392.631 397.226 393.195 397.688 393.863 397.996C394.632 398.355 395.659 398.971 396.377 398.766C397.917 398.304 399.406 397.534 400.74 396.713C401.921 395.994 402.023 394.763 401.921 393.479C401.869 392.658 401.972 391.734 403.306 391.683C403.563 392.864 403.82 394.044 404.025 395.225C405 400.306 405.257 405.49 406.899 410.417C408.542 415.139 409.414 420.169 412.442 424.378C414.136 426.687 415.214 429.254 416.035 431.871C416.959 434.694 418.037 437.414 420.347 439.57C421.219 440.391 421.784 441.572 422.297 442.65C423.17 444.703 423.991 446.858 424.658 448.963C425.325 450.964 426.095 452.915 427.84 454.301C429.226 455.43 431.125 455.327 432.1 453.839C433.794 451.221 436.925 449.733 438.105 446.653C438.413 445.832 439.594 445.267 440.364 444.6C439.902 441.315 439.85 438.236 441.339 435.31C441.75 434.489 441.749 433.206 441.39 432.333C440.21 429.459 441.082 426.482 440.774 423.608C440.723 422.941 441.39 421.914 442.006 421.452C443.751 420.272 445.65 419.348 447.498 418.321C448.114 417.962 449.089 417.603 449.192 417.141C449.756 414.626 452.22 413.805 453.811 412.213C455.916 410.058 458.43 408.313 460.021 405.695C460.894 404.258 461.972 403.077 464.025 402.513C466.54 401.794 468.131 399.741 468.388 397.021C468.439 396.354 468.696 395.687 468.85 395.173C472.853 392.966 472.853 392.761 475.009 393.018C479.577 393.531 483.221 392.196 485.684 388.604C488.507 388.347 489.534 389.989 489.944 391.94C490.92 396.61 493.794 399.639 498.311 401.486C498.773 401.692 499.132 402.154 499.491 402.461C499.337 403.539 499.234 404.515 499.081 405.9C501.698 405.9 502.571 407.645 503.289 409.442C504.059 411.341 504.521 413.24 504.008 415.498C503.187 418.988 505.599 420.631 509.14 419.348C509.962 419.04 510.783 418.527 511.553 418.065C513.041 417.141 514.478 416.166 515.915 415.242C518.379 416.935 519.303 419.296 520.021 421.863C520.791 424.686 521.766 427.509 522.998 430.177C524.897 434.386 526.334 438.595 525.051 443.214C524.846 444.035 524.949 444.908 524.897 445.729C524.846 447.064 524.795 448.449 524.692 449.784C524.589 450.964 524.487 452.145 524.384 453.325C528.234 455.84 530.287 459.587 533.007 462.821C533.571 463.488 533.879 464.361 534.085 465.182C534.598 467.183 534.906 469.236 535.47 471.238C535.778 472.367 536.343 473.445 536.908 474.472C537.575 475.652 538.396 476.833 539.269 477.91C542.04 481.247 545.428 483.71 549.842 484.839C550.971 485.147 552.1 484.07 551.69 482.992C551.279 481.863 550.971 480.528 550.15 479.707C548.353 477.859 547.84 475.652 548.148 473.445C548.764 469.134 546.198 466.619 543.118 464.309C541.27 462.923 539.217 461.846 537.216 460.614C535.83 459.741 534.187 458.869 534.187 457.175C534.239 453.993 531.878 452.042 530.03 450.195C527.874 448.09 527.669 446.14 528.285 443.625C529.311 439.775 530.287 435.926 531.313 432.077C531.365 431.82 531.775 431.615 532.34 431.101C532.956 431.409 533.982 431.666 534.239 432.23C534.957 433.822 536.035 434.54 537.883 434.899C540.603 435.413 543.067 436.747 544.247 439.313C545.376 441.726 547.737 442.65 549.842 443.933C551.228 444.754 552.665 445.421 553.845 445.986C554.615 448.039 552.973 450.143 555.231 451.837C557.438 450.759 559.183 449.014 560.826 447.269C562.057 445.935 563.392 445.113 565.188 444.497C570.577 442.598 574.016 437.671 573.246 432.846C572.733 429.613 571.604 426.482 570.526 423.351C569.602 420.631 567.857 418.219 565.342 416.833C561.031 414.523 558.413 410.879 555.385 407.491C553.691 405.592 553.743 403.385 554.718 401.692C556.565 398.458 558.259 394.865 562.673 393.736C563.7 393.479 564.675 392.915 565.701 392.453C567.293 392.915 568.832 393.377 570.321 393.787C570.783 394.865 571.091 395.892 571.604 396.764C572.066 397.534 572.887 397.996 573.914 397.329C574.068 396.354 574.222 395.379 574.376 394.557C578.892 392.094 584.692 392.094 587.72 387.269C590.081 388.552 592.186 387.012 594.495 386.704C597.472 386.294 600.244 385.678 601.681 382.701C601.886 382.29 602.553 382.085 602.964 381.777C608.251 377.774 611.946 372.949 611.946 366.174C613.742 365.148 614.923 363.659 615.488 361.76C615.744 360.939 615.796 359.912 616.36 359.348C618.618 357.192 618.259 354.626 618.002 352.06C618.362 351.906 618.772 351.752 619.132 351.598C618.721 351.444 618.362 351.29 617.951 351.136C618.31 350.212 618.618 349.442 617.797 348.364C616.771 346.927 614.923 347.645 613.435 346.824C614.923 345.387 616.155 344.258 617.489 342.975C616.463 341.692 615.59 340.665 614.769 339.639C614.718 339.69 614.718 339.69 614.666 339.741L614.769 339.639C615.334 339.074 615.898 338.51 616.514 337.894C615.898 337.124 615.539 336.354 614.974 336.097C612.357 334.814 610.868 332.504 609.893 330.195C608.507 326.91 606.249 324.754 602.964 323.266C602.502 323.06 602.245 322.496 601.835 322.034C601.886 320.853 601.63 319.57 602.143 318.492C602.913 316.799 604.042 315.208 605.222 313.719C607.275 311.153 610.509 310.332 613.229 309.254C613.64 307.406 613.178 306.482 611.535 306.277C610.098 306.123 608.353 306.431 607.275 305.815C604.504 304.224 602.861 305.302 601.27 307.303C600.962 307.714 600.552 308.073 600.141 308.433C599.269 309.1 597.575 309.151 597.164 308.279C596.138 306.02 593.879 305.199 592.032 303.967C591.313 303.454 590.594 302.838 590.03 302.171C588.644 300.528 589.465 298.373 591.672 297.911C592.545 297.705 593.417 297.603 594.136 297.449C595.009 295.652 595.316 293.599 596.548 292.675C598.55 291.187 599.525 289.237 600.757 287.338C601.783 285.798 603.221 285.387 605.017 286.311C605.89 286.773 606.506 287.646 607.224 288.313C606.608 289.699 605.838 290.776 605.684 291.906C605.53 293.035 606.044 294.215 606.198 295.396C606.3 296.371 606.198 297.295 606.198 298.835C607.327 297.808 608.045 297.244 608.61 296.628C613.229 291.752 616.103 291.187 622.724 294.061C622.724 295.447 622.622 296.987 622.776 298.475C622.878 299.81 622.16 301.144 623.135 302.479C624.418 304.275 626.112 303.197 627.652 303.403C629.705 303.659 632.014 305.712 632.168 307.406C631.758 308.073 631.347 308.792 630.885 309.562C632.99 311.769 633.811 314.232 633.298 317.209C632.99 318.903 633.144 320.699 635.659 321.726C637.609 320.597 639.816 319.622 642.485 319.519C644.589 319.416 646.591 317.004 646.129 315.002C645.411 311.82 644.179 308.741 643.152 305.61C639.559 302.222 637.66 297.449 632.99 294.883C630.937 293.753 630.834 291.752 632.374 290.007C633.195 289.083 634.273 288.415 635.094 287.492C637.198 285.028 639.149 282.564 637.455 279.074C636.685 277.534 637.352 275.943 638.43 274.711C640.432 272.299 642.639 270.041 644.949 267.526C645.872 268.039 646.745 268.552 647.617 269.117C649.414 270.297 651.159 269.99 652.699 268.86C653.674 268.142 654.649 267.218 655.265 266.243C656.292 264.652 657.164 262.907 657.934 261.161C659.884 256.901 661.783 252.59 663.683 248.279C664.093 247.355 664.196 246.277 664.401 245.302C665.171 241.042 665.53 236.679 666.813 232.573C668.251 228.056 667.429 223.899 665.53 220.049C663.58 216.149 662.759 212.248 662.707 208.091C662.707 205.524 662.913 202.855 660.757 200.802C660.86 198.955 658.961 197.723 658.858 196.08C658.704 193.822 657.369 192.693 655.573 191.718C654.598 191.204 653.469 190.896 652.699 190.178C650.44 188.022 647.977 187.868 645.154 189.049C644.692 190.434 645.051 192.231 643.306 193.052C642.844 193.257 642.331 193.36 641.818 193.463C641.253 192.693 640.791 192.026 640.329 191.41C639.2 191.564 638.174 191.718 637.404 191.872C636.326 189.87 635.453 188.227 634.581 186.585C633.708 186.688 633.195 186.79 632.682 186.842C631.963 186.944 631.245 187.15 630.526 187.098C628.73 187.047 627.754 185.866 628.37 184.327C628.781 183.351 629.243 182.428 629.807 181.504C631.86 178.014 633.862 174.523 633.965 170.366C633.965 169.545 634.273 168.57 634.786 167.902C638.328 162.975 637.25 156.816 639.816 151.683C639.97 151.375 639.867 151.016 639.867 150.657C639.97 146.448 640.329 145.884 644.025 144.549C645.564 143.985 647.104 143.369 648.644 142.958C650.03 142.65 651.621 142.188 652.904 142.547C655.214 143.266 654.906 139.981 656.908 140.597C657.061 140.648 657.267 140.546 657.472 140.546C659.782 140.289 662.091 139.981 664.247 139.724C666.198 135.054 666.197 135.054 671.022 135.464C672.305 135.567 673.588 135.464 674.82 135.721C675.795 135.926 676.719 136.491 677.592 136.902C676.925 139.673 676.925 139.673 678.618 140.751C681.903 139.93 683.648 136.44 687.395 136.286C688.114 136.234 688.781 134.951 689.859 133.822C688.062 133.206 686.779 132.744 685.599 132.334C684.623 130.588 684.059 128.895 684.726 127.201C686.266 123.198 686.574 119.194 686.009 114.985C685.701 112.881 686.83 111.393 688.986 110.571C692.271 109.288 695.556 108.313 699.303 108.467C699.662 110.366 699.97 112.163 700.329 114.164C701.972 114.883 703.563 115.601 705.462 116.423C706.95 112.368 706.283 108.159 708.952 105.182C707.823 102.308 705.718 100.101 706.232 96.7134C707.155 96.3541 708.233 95.6869 709.363 95.4816C710.081 95.3789 710.954 95.9949 712.339 96.4568C710.492 98.1505 710.543 99.7929 711.518 101.435C713.828 105.182 714.906 109.34 715.727 114.01C711.929 116.063 711.98 119.656 712.237 123.352C712.288 124.019 712.339 124.789 712.083 125.405C710.44 129.562 710.8 133.873 710.851 138.185C710.851 139.365 710.748 140.648 710.235 141.675C709.209 143.625 707.823 145.37 706.437 147.423C708.028 149.066 708.079 151.221 707.104 153.121C705.616 156.046 706.129 158.869 707.207 161.641C708.541 165.028 709.876 168.467 711.518 171.7C713.109 174.78 715.06 177.757 717.01 180.683C718.858 183.454 720.5 186.482 722.861 188.792C724.863 190.742 725.889 193.001 727.07 195.31C727.481 196.08 727.686 196.953 728.096 197.723C728.815 199.108 729.944 199.776 731.689 199.365C734.358 196.132 735.025 192.693 733.332 188.741C732.818 187.56 732.972 186.072 732.818 184.943C734.153 183.813 735.179 182.941 736.309 181.966C735.641 180.734 734.974 179.707 734.512 178.578C733.691 176.576 734.102 174.523 734.615 172.47C735.077 170.623 736.822 170.315 738.259 169.647C738.875 169.391 739.285 168.775 739.645 168.364C739.388 166.209 737.643 165.285 736.565 163.95C734.41 161.333 733.64 158.458 734.717 155.276C735.898 155.071 736.925 154.866 737.9 154.66C738.618 151.94 735.59 151.119 735.539 149.117C734.512 148.963 733.794 148.912 733.126 148.809C731.689 145.986 731.689 145.986 731.792 143.882C731.792 143.728 731.843 143.523 731.895 143.369C732.048 142.034 731.587 141.008 730.303 140.34C728.712 139.519 728.148 141.11 726.916 141.47C724.298 139.93 723.836 137.415 723.785 134.797C723.734 131.358 723.785 127.868 721.886 124.737C721.629 124.327 721.527 123.762 721.527 123.249C721.424 121.966 721.629 120.58 723.118 120.323C725.582 119.861 726.403 117.962 727.635 116.371C727.891 116.012 728.507 115.961 728.815 115.807C730.149 116.269 729.79 118.373 731.895 117.962C732.1 117.398 732.305 116.73 732.562 116.115C732.87 115.293 733.075 114.472 733.537 113.754C735.539 110.571 738.977 109.853 742.416 111.649C743.905 112.47 745.034 114.113 747.241 113.805C747.292 113.24 747.446 112.727 747.446 112.265C747.549 107.081 748.473 102 750.013 97.124C751.193 93.4286 753.4 89.9384 755.71 86.6535C756.223 85.935 756.736 85.2677 757.301 84.6005C758.43 83.3174 759.816 82.7014 761.612 82.8041C763.049 82.8554 764.435 82.8041 765.77 82.8041C766.745 81.1103 767.053 79.4679 766.026 78.1335C764.281 75.9778 763.049 73.3601 759.97 72.4363C758.635 72.0257 757.403 71.2558 756.942 71.0505C755.915 69.4081 755.556 67.8169 754.683 67.5603C753.143 67.0984 752.014 66.6878 751.706 65.0454C751.655 64.6861 750.834 64.1215 750.526 64.1728C747.549 64.8401 745.804 62.8897 744.059 61.3499C742.776 61.7092 741.749 62.1198 740.723 62.2738C740.363 62.3251 739.85 61.7605 739.593 61.3499C739.439 61.1446 739.593 60.5287 739.747 60.4774C740.979 59.9641 741.852 59.1429 742.16 57.8597L742.108 57.8084C742.724 58.373 743.289 59.1429 744.059 59.5535C747.549 61.2986 750.731 59.4508 750.885 55.7554C750.936 54.7289 750.68 53.651 750.885 52.6758C751.706 48.6724 750.064 46.0035 746.317 44.3097C744.777 43.5911 743.648 42.5646 743.135 40.8196C743.597 39.9983 744.008 39.0745 744.572 38.202C744.726 37.9453 745.137 37.894 745.855 37.586C746.625 40.409 748.627 41.7948 752.168 41.9487C753.041 39.6904 753.657 36.8675 757.506 36.8675C758.943 37.9966 760.637 39.2798 762.69 40.8709C764.846 38.8692 767.515 39.1771 770.286 39.3311C771.21 39.3824 772.237 38.6639 773.109 38.3046C773.212 37.9453 773.212 36.6108 771.826 36.0976Z" fill="#678FC0" fill-opacity="0.8"/>
<path fill-rule="evenodd" clip-rule="evenodd" d="M563.34 504.909C562.313 503.267 561.441 501.881 560.722 500.649C558.515 500.239 558.464 501.625 558.053 502.702C556.873 502.856 555.59 502.6 555.333 501.471C554.615 498.699 552.459 497.364 549.79 496.389C549.995 494.952 550.201 493.823 550.355 492.643C550.611 490.795 547.942 491.205 547.737 489.717C547.737 489.563 547.686 489.358 547.686 489.204C547.326 486.894 545.376 488.331 544.247 487.921C543.015 486.637 541.988 485.098 540.551 484.122C536.907 481.659 533.109 479.349 529.876 476.372C528.849 475.448 527.412 474.884 526.231 474.063C525.256 473.395 516.582 468.519 515.504 468.211C514.991 468.057 514.529 467.698 513.965 467.647C513.451 467.595 512.681 467.647 512.476 467.903C512.168 468.417 511.911 469.238 512.117 469.751C512.835 471.804 514.632 473.241 516.479 474.268C519.559 476.013 521.509 478.631 523.716 481.197C526.18 484.122 529.106 486.791 530.081 490.589C530.132 490.743 530.286 490.897 530.389 491C533.674 493.515 535.008 497.159 536.343 500.701C537.061 502.548 538.088 504.037 539.473 505.474C543.682 509.785 548.148 513.789 553.588 517.382C554.307 517.382 555.385 517.484 556.462 517.33C557.489 517.176 558.515 516.714 559.542 516.406C560.107 512.711 560.671 509.169 561.236 505.628C561.903 505.474 562.519 505.217 563.34 504.909Z" fill="#678FC0" fill-opacity="0.8"/>
<path fill-rule="evenodd" clip-rule="evenodd" d="M596.856 530.57C598.242 529.646 599.576 530.108 601.013 530.365C601.732 530.519 602.399 530.057 601.989 528.773C598.652 528.773 595.983 526.31 592.442 526.258C591.929 526.258 591.467 525.129 590.954 524.462C588.849 523.487 586.796 522.409 584.64 521.536C583.46 521.075 582.331 521.229 581.099 522.05C578.225 523.897 574.837 523.538 572.425 521.742C569.602 519.586 566.574 519.227 563.289 519.073C561.082 518.97 559.85 519.791 559.799 522.306C561.236 523.282 562.622 524.821 564.418 525.335C570.269 527.08 576.48 526.977 582.433 528.773C586.642 530.057 591.467 528.876 595.778 530.621C596.086 530.775 596.599 530.724 596.856 530.57Z" fill="#678FC0" fill-opacity="0.8"/>
<path fill-rule="evenodd" clip-rule="evenodd" d="M579.2 500.596C579.354 502.239 580.124 503.83 580.586 505.472C582.177 505.626 583.409 505.78 584.641 505.934C585.36 506.037 586.335 505.986 586.694 506.396C588.131 508.193 589.825 507.885 591.57 507.217C592.853 506.755 593.982 507.115 595.265 507.32C597.575 507.679 598.91 509.373 600.501 510.502C602.502 509.835 604.248 509.322 605.582 508.86C606.301 506.755 607.276 505.01 607.378 503.214C607.532 501.007 608.354 499.313 609.739 497.619C610.612 496.542 611.177 495.258 611.741 493.975C613.64 489.767 613.589 489.767 617.849 488.175C616.925 487.252 616.104 486.43 615.283 485.558C614.821 485.045 614.051 484.326 614.153 483.915C614.821 481.965 613.435 480.682 612.665 479.142C611.741 477.397 612.46 475.703 613.435 474.266C614.051 473.342 616.104 473.753 615.95 472.008C615.796 470.16 618.567 470.879 618.619 469.236C618.413 468.98 618.259 468.569 618.003 468.466C615.642 467.234 613.23 466.259 611.998 463.59C611.228 461.897 608.713 461.999 607.378 463.488C606.916 464.001 606.455 464.617 606.249 465.233C605.479 467.799 603.118 469.339 601.014 470.16C598.191 471.238 596.651 473.086 595.009 475.139C593.264 477.346 591.621 479.553 588.388 480.22C586.797 480.528 585.719 481.914 584.949 483.402C584.487 484.275 583.923 485.147 583.255 486.122C580.997 485.609 578.893 485.147 576.994 484.737C575.094 485.866 574.222 487.457 574.325 489.202C574.478 492.282 575.197 495.412 577.404 497.773C578.533 498.646 579.098 499.313 579.2 500.596Z" fill="#678FC0" fill-opacity="0.8"/>
<path fill-rule="evenodd" clip-rule="evenodd" d="M760.071 606.84C757.813 604.428 756.222 601.964 756.735 598.68C754.938 597.653 753.399 596.832 752.372 596.216C751.038 592.674 750.37 589.338 748.625 586.618C747.393 584.719 744.724 583.641 742.671 582.153C742.363 581.947 742.056 581.793 741.696 581.639C739.797 580.818 739.13 579.33 738.976 577.482C738.771 574.248 738.771 570.964 736.666 568.089C736.204 567.474 736.41 566.396 736.358 565.574C736.256 564.189 736.256 562.803 736.153 561.417C735.896 558.851 734.665 557.722 731.739 557.106C731.226 557.003 730.764 556.798 730.507 556.746C729.07 552.076 727.736 547.662 726.299 543.248C726.145 542.786 725.426 542.426 724.656 541.811C723.835 543.607 723.014 544.993 722.603 546.43C721.628 549.92 720.345 553.41 720.191 556.952C719.986 561.93 718.292 566.396 716.444 570.861C715.212 573.838 711.568 574.608 709.258 572.298C706.333 569.373 702.535 567.679 699.096 565.523C696.427 563.881 694.271 561.982 692.321 559.518C694.117 556.592 693.655 552.794 697.351 550.844C698.223 550.382 698.48 548.791 699.147 547.508C698.172 547.148 697.299 546.533 696.991 546.738C695.76 547.508 694.528 547.097 693.296 547.046C689.549 546.892 686.264 545.403 682.826 544.428C682.056 544.223 681.132 544.223 680.311 544.12C679.9 546.019 678.668 547.046 676.615 547.097C674.562 547.148 672.406 547.097 671.021 548.586C668.044 551.768 663.886 554.437 664.605 559.775C662.193 559.621 660.037 559.467 657.933 559.313C657.933 559.364 657.984 559.364 657.984 559.415L657.881 559.313C656.547 557.773 655.879 555.669 653.672 554.95C649.207 556.233 649.207 556.233 641.56 562.649C641.252 563.983 640.944 565.266 640.687 566.396C639.353 566.601 638.326 566.755 637.556 566.858C637.043 568.346 638.48 570.04 636.273 570.604C635.247 569.578 634.323 568.654 633.604 567.987C630.627 569.013 629.447 570.656 629.601 573.273C629.652 574.146 628.933 575.172 628.369 575.994C627.702 577.02 626.829 577.893 626.162 578.919C624.673 581.075 622.62 582.204 619.9 582.615C616.872 583.128 613.895 583.898 610.918 584.668C609.378 585.078 607.89 586.207 606.35 586.259C603.014 586.31 600.55 588.004 597.727 589.133C594.904 590.262 592.954 592.674 589.926 593.444C589.464 593.547 589.002 594.574 589.002 595.189C589.002 597.653 588.232 599.86 587.154 602.118C586.128 604.171 586.538 606.532 587.257 608.688C587.565 609.663 588.129 610.587 588.386 611.614C588.797 613.153 587.873 613.821 586.436 614.129C586.436 614.077 586.436 614.077 586.436 614.026C586.333 614.847 585.974 615.72 586.128 616.541C587.308 624.035 589.361 631.374 589.361 639.022C589.361 639.689 589.772 640.356 589.823 641.023C589.977 644.873 589.413 648.568 586.487 651.597C584.28 653.906 584.331 654.419 586.59 656.729C587.103 657.242 587.513 657.807 588.078 658.269C590.798 660.527 594.032 660.887 597.317 659.86C599.524 659.193 601.833 658.32 603.681 656.934C607.377 654.214 611.329 654.112 615.64 654.727C617.282 654.933 618.925 655.138 620.567 654.933C621.748 654.779 623.288 654.317 623.903 653.496C625.803 650.929 628.318 649.544 631.397 648.722C632.218 648.466 632.937 647.747 633.758 647.388C634.733 646.977 635.862 646.413 636.838 646.567C640.841 647.183 644.434 646.002 648.027 644.565C652.081 642.974 656.341 643.744 660.499 643.846C660.858 643.846 661.32 644 661.474 644.206C663.065 646.156 665.529 646.31 667.736 647.029C670.199 647.85 672.612 648.774 672.406 651.904C672.406 652.212 672.612 652.572 672.868 652.828C675.178 655.189 675.229 658.115 675.281 661.092C675.281 661.656 675.691 662.221 676.051 663.247C678.206 661.246 679.746 659.141 681.85 658.012C684.211 656.78 685.033 653.906 688.42 653.085C688.009 654.522 687.907 655.549 687.496 656.421C686.983 657.499 686.11 658.423 685.494 659.501C684.981 660.425 684.571 661.4 684.365 662.426C684.109 663.504 682.415 663.966 682.826 665.249C686.213 666.019 685.751 662.529 687.599 661.759C689.703 663.863 687.753 666.07 687.958 668.175C688.779 668.226 689.447 668.277 690.216 668.329C691.192 671.254 692.013 674.077 691.243 677.362C690.473 680.801 692.372 684.035 695.862 685.42C699.096 686.703 701.919 688.449 704.947 690.553C706.795 689.321 708.642 688.192 710.336 686.96C711.003 686.447 711.363 685.472 712.543 685.985C714.442 687.627 713.467 690.861 716.136 692.041C718.548 691.733 720.345 690.553 721.987 689.167C724.4 687.063 727.222 686.19 730.456 686.036C734.613 685.882 735.127 685.215 736.358 681.366C737.488 677.927 738.001 674.18 740.567 671.357C743.339 668.277 745.186 664.736 747.137 661.194C748.523 658.731 750.216 656.524 752.526 654.779C755.708 652.315 757.556 649.03 758.942 645.489C760.379 641.588 761.559 637.585 763.356 633.838C764.485 631.477 764.947 629.27 764.331 626.858C763.818 624.753 763.818 622.803 764.382 620.75C765.768 615.309 763.664 610.741 760.071 606.84Z" fill="#678FC0" fill-opacity="0.8"/>
<path fill-rule="evenodd" clip-rule="evenodd" d="M703.666 499.673C701.51 502.29 697.712 503.06 695.916 506.088C695.608 506.602 694.786 506.858 693.965 507.371C692.271 505.934 690.68 504.549 689.141 503.214C689.141 501.828 689.243 500.596 689.089 499.416C688.935 498.287 688.525 497.158 688.268 496.182C680.415 493.565 679.337 493.719 675.898 498.03C676.72 498.646 677.849 499.159 678.311 499.98C679.44 501.982 681.134 502.547 683.341 502.393C684.059 502.342 684.778 502.239 685.548 502.188C686.369 502.136 687.036 502.341 686.779 503.368C684.778 503.933 682.725 504.548 680.672 505.113C681.596 506.909 682.417 508.552 683.443 510.502C684.726 509.63 685.702 508.963 686.933 508.09C688.987 509.27 691.091 510.708 693.4 511.631C695.915 512.658 698.687 513.069 701.305 513.89C702.485 514.249 703.666 514.916 704.692 515.584C705.411 516.045 706.181 516.661 706.591 517.38C707.669 519.536 708.593 521.743 709.62 524.052C708.439 524.874 707.361 525.489 706.489 526.311C705.873 526.875 705.308 527.696 706.232 528.928C707.464 528.826 708.85 528.723 710.287 528.518C712.802 528.158 715.009 528.364 716.548 530.673C717.267 531.751 718.242 532.47 719.628 532.624C721.989 532.932 724.299 533.342 726.66 533.496C727.481 533.548 728.713 533.137 729.072 532.572C729.534 531.854 729.329 530.725 729.431 529.801C730.355 528.98 731.228 528.107 732.203 527.337C733.897 526.003 735.796 525.541 737.797 526.567C740.364 527.85 743.187 528.672 744.572 531.495C745.137 532.726 746.523 533.548 747.344 534.728C748.832 536.781 750.885 537.602 753.452 537.705C755.864 537.808 758.174 538.116 760.329 539.245C760.637 539.399 761.151 539.142 762.229 538.988C759.252 536.319 756.172 534.317 754.324 531.597C752.425 528.672 748.627 527.132 747.806 523.282C748.422 522.872 749.038 522.513 749.5 522.051C750.68 520.921 750.526 519.844 749.038 519.228C746.882 518.304 744.675 517.431 742.673 516.61C740.877 512.761 740.928 512.709 737.541 510.656C736.463 509.989 735.334 509.424 734.153 509.014C728.559 506.961 722.913 504.908 717.267 502.957C713.828 501.777 710.338 500.802 706.848 499.673C705.667 499.262 704.333 498.851 703.666 499.673Z" fill="#678FC0" fill-opacity="0.8"/>
<path fill-rule="evenodd" clip-rule="evenodd" d="M661.321 317.928C657.522 321.161 655.521 325.729 652.236 329.322C651.774 329.784 651.825 331.119 652.185 331.632C652.441 332.042 653.724 331.786 654.854 331.888C654.854 333.12 655.008 334.301 654.802 335.43C654.494 337.278 655.316 338.817 656.137 340.357C656.599 341.178 658.344 341.538 659.011 340.871C659.883 340.049 660.91 339.279 660.91 337.894C660.91 336.354 660.756 334.763 661.115 333.274C661.731 330.759 660.653 328.963 658.908 327.372C658.395 326.91 657.676 326.653 658.241 325.575C660.859 325.473 662.501 322.65 665.427 322.804C668.455 322.958 670.251 319.622 673.382 320.238C673.793 321.88 673.998 323.42 674.563 324.857C675.025 326.037 676 326.859 677.54 326.551C680.311 322.855 680.516 322.445 681.081 319.468C682.518 319.519 684.007 319.878 685.392 319.622C686.522 319.416 687.651 317.774 688.421 317.979C690.833 318.544 690.114 316.08 691.398 315.67C691.86 315.516 692.321 315.259 692.578 315.156C693.297 315.823 693.964 316.85 694.529 316.799C695.196 316.747 696.068 315.926 696.428 315.259C696.992 314.181 697.043 313.001 696.53 311.769C695.966 310.332 695.401 308.792 695.504 307.303C695.658 304.275 695.144 301.504 693.502 298.27C696.787 295.344 696.171 291.803 695.452 288.518C694.682 285.131 692.578 282.256 689.704 279.998C688.369 280.152 687.138 280.306 686.06 280.409C684.212 282.462 685.084 284.72 685.854 286.414C688.78 292.676 686.316 298.219 683.904 303.762C683.185 305.404 681.389 306.431 679.541 306.482C678.617 306.482 677.694 305.404 676.616 304.686C676.924 308.279 675.127 311.307 674.357 314.438C672.356 314.643 670.713 314.694 669.122 314.951C667.48 315.208 665.837 315.464 664.349 316.029C663.322 316.439 662.193 317.158 661.321 317.928Z" fill="#678FC0" fill-opacity="0.8"/>
<path fill-rule="evenodd" clip-rule="evenodd" d="M690.114 255.413C689.293 254.745 688.523 253.975 687.753 253.257C686.573 252.179 685.29 251.255 683.801 250.947C682.569 251.563 682.621 252.436 683.134 253.206C684.622 255.515 684.828 258.082 684.879 260.648C684.879 261.982 685.033 263.317 685.084 264.651L682.313 266.499C680.517 269.219 680.157 271.786 682.826 274.249C683.391 274.814 683.596 275.738 684.161 276.816C685.444 275.789 686.419 274.916 687.497 274.044C686.06 272.863 684.879 271.94 683.647 270.913C684.315 270.554 684.622 270.348 684.93 270.194C687.702 268.603 690.32 268.398 692.886 270.656C693.553 271.221 694.836 271.221 695.914 271.478C696.222 270.759 696.53 270.297 696.582 269.784C696.889 267.269 698.224 265.729 700.944 265.165C701.868 264.959 702.689 264.087 703.818 263.368C702.638 261.777 701.663 260.391 700.688 259.057C695.093 258.697 693.451 258.184 690.114 255.413Z" fill="#678FC0" fill-opacity="0.8"/>
<path d="M98.9284 185.354C99.377 185.032 99.4796 184.407 99.1575 183.958L93.9087 176.647C93.5866 176.199 92.9618 176.096 92.5131 176.418C92.0645 176.74 91.9619 177.365 92.284 177.814L96.9497 184.312L90.4511 188.978C90.0025 189.3 89.8999 189.925 90.222 190.374C90.5441 190.822 91.1689 190.925 91.6175 190.603L98.9284 185.354ZM41.8094 189.749L42.3669 190.579L42.3669 190.579L41.8094 189.749ZM22.3094 336.749L22.4641 337.737L22.3094 336.749ZM100.309 311.958L100.612 311.005L100.309 311.958ZM208.846 333.541L209.31 332.656L209.31 332.656L208.846 333.541ZM271.809 433.749L272.431 432.967L271.809 433.749ZM319.5 462.5L320.364 463.004L319.5 462.5ZM285 496.5L284.498 495.635L285 496.5ZM51.8092 329.041L51.4161 328.122L51.8092 329.041ZM98.3452 184.541L98.5072 183.555C97.8835 183.452 97.2744 183.344 96.6788 183.23L96.4911 184.212L96.3033 185.194C96.9156 185.311 97.5419 185.423 98.1832 185.528L98.3452 184.541ZM92.8177 183.412L93.0546 182.441C91.8042 182.136 90.613 181.812 89.468 181.481L89.1902 182.442L88.9123 183.403C90.0793 183.74 91.2982 184.071 92.5808 184.384L92.8177 183.412ZM85.5945 181.345L85.8966 180.392C84.6715 180.003 83.4701 179.614 82.3101 179.252L82.012 180.206L81.714 181.161C82.8722 181.522 84.0462 181.903 85.2925 182.298L85.5945 181.345ZM78.4068 179.156L78.6601 178.189C77.4121 177.862 76.1646 177.584 74.8946 177.379L74.7352 178.366L74.5757 179.353C75.7682 179.546 76.9516 179.809 78.1536 180.124L78.4068 179.156ZM71.0003 178.009L71.0265 177.009C69.7715 176.976 68.4796 177.03 67.1301 177.188L67.2469 178.182L67.3636 179.175C68.6166 179.027 69.813 178.978 70.9741 179.009L71.0003 178.009ZM63.5574 178.861L63.317 177.89C62.1378 178.182 60.9119 178.552 59.6287 179.009L59.9642 179.951L60.2996 180.893C61.5251 180.457 62.6875 180.106 63.7978 179.831L63.5574 178.861ZM56.4717 181.353L56.0662 180.439C54.9686 180.926 53.8293 181.471 52.6429 182.081L53.0996 182.97L53.5564 183.86C54.712 183.267 55.8171 182.737 56.8773 182.267L56.4717 181.353ZM49.7811 184.771L49.2857 183.903C48.2395 184.499 47.1581 185.142 46.0385 185.832L46.5632 186.683L47.0879 187.534C48.1895 186.855 49.2514 186.225 50.2765 185.64L49.7811 184.771ZM43.3987 188.695L42.8511 187.859C42.3261 188.202 41.7931 188.555 41.252 188.919L41.8094 189.749L42.3669 190.579C42.9017 190.22 43.4281 189.871 43.9463 189.532L43.3987 188.695ZM41.8094 189.749L41.252 188.919C40.6967 189.292 40.1448 189.69 39.5966 190.111L40.2064 190.904L40.8162 191.696C41.3322 191.299 41.8491 190.927 42.3669 190.579L41.8094 189.749ZM37.156 193.535L36.465 192.812C35.5026 193.732 34.5518 194.724 33.6135 195.783L34.3618 196.446L35.1101 197.11C36.0152 196.089 36.9279 195.137 37.8469 194.258L37.156 193.535ZM31.7828 199.563L30.9925 198.951C30.1757 200.004 29.3691 201.107 28.5734 202.256L29.3955 202.825L30.2175 203.395C30.9943 202.273 31.7798 201.199 32.5731 200.176L31.7828 199.563ZM27.1902 206.17L26.3435 205.638C25.635 206.765 24.936 207.928 24.2472 209.124L25.1136 209.623L25.9801 210.122C26.6568 208.948 27.3426 207.807 28.0368 206.703L27.1902 206.17ZM23.1519 213.168L22.2691 212.698C21.6434 213.874 21.0269 215.076 20.4203 216.303L21.3167 216.746L22.2131 217.189C22.8113 215.98 23.4187 214.795 24.0347 213.637L23.1519 213.168ZM19.5821 220.377L18.6742 219.958C18.111 221.178 17.5573 222.419 17.0135 223.677L17.9315 224.074L18.8495 224.471C19.387 223.227 19.934 222.001 20.49 220.797L19.5821 220.377ZM16.3794 227.783L15.4527 227.407C14.9489 228.65 14.4546 229.908 13.9703 231.179L14.9048 231.535L15.8393 231.891C16.3186 230.632 16.8078 229.388 17.3062 228.158L16.3794 227.783ZM13.5039 235.327L12.5625 234.99C12.1107 236.252 11.6688 237.524 11.2371 238.806L12.1848 239.125L13.1325 239.444C13.5602 238.174 13.998 236.914 14.4454 235.664L13.5039 235.327ZM10.932 242.963L9.9786 242.661C9.57282 243.944 9.1774 245.235 8.79274 246.531L9.75143 246.816L10.7101 247.1C11.0914 245.815 11.4833 244.536 11.8855 243.265L10.932 242.963ZM8.63852 250.691L7.67498 250.424C7.31406 251.724 6.96415 253.028 6.62562 254.335L7.59368 254.585L8.56173 254.836C8.89735 253.541 9.24426 252.248 9.60206 250.959L8.63852 250.691ZM6.61632 258.498L5.64406 258.264C5.32796 259.578 5.02367 260.894 4.73157 262.208L5.70777 262.425L6.68397 262.642C6.97354 261.339 7.2752 260.035 7.58858 258.732L6.61632 258.498ZM4.86822 266.369L3.88832 266.17C3.61779 267.498 3.36013 268.825 3.11574 270.149L4.09911 270.33L5.08249 270.512C5.32465 269.201 5.57999 267.886 5.84812 266.569L4.86822 266.369ZM3.40607 274.29L2.41945 274.127C2.19712 275.472 1.98909 276.812 1.79579 278.144L2.78543 278.288L3.77507 278.431C3.96645 277.112 4.17245 275.785 4.39268 274.453L3.40607 274.29ZM2.24829 282.279L1.25588 282.156C1.08843 283.507 0.936946 284.849 0.801906 286.18L1.7968 286.281L2.79169 286.382C2.9252 285.066 3.07501 283.739 3.2407 282.402L2.24829 282.279ZM1.43615 290.31L0.439121 290.233C0.334031 291.593 0.247305 292.94 0.179482 294.27L1.17818 294.321L2.17689 294.371C2.24379 293.059 2.32939 291.73 2.43318 290.387L1.43615 290.31ZM1.03039 298.349L0.0306291 298.327C0.00041806 299.709 -0.00759669 301.07 0.00726571 302.408L1.0072 302.397L2.00714 302.386C1.99254 301.071 2.0004 299.732 2.03015 298.371L1.03039 298.349ZM1.12586 306.42L0.127051 306.469C0.194266 307.846 0.288522 309.193 0.410704 310.507L1.40641 310.414L2.40211 310.321C2.28281 309.039 2.19055 307.721 2.12467 306.372L1.12586 306.42ZM1.8854 314.435L0.896065 314.581C1.10154 315.976 1.34374 317.326 1.62406 318.626L2.60159 318.416L3.57912 318.205C3.30887 316.952 3.07433 315.645 2.87473 314.289L1.8854 314.435ZM3.61093 322.322L2.65473 322.615C3.07433 323.986 3.54751 325.285 4.07695 326.504L4.99421 326.106L5.91148 325.707C5.41514 324.564 4.96725 323.336 4.56713 322.029L3.61093 322.322ZM6.86143 329.668L6.01662 330.203C6.79895 331.438 7.66795 332.55 8.62901 333.523L9.34018 332.82L10.0514 332.117C9.20267 331.258 8.42106 330.261 7.70624 329.133L6.86143 329.668ZM12.5166 335.263L12.0276 336.135C13.2687 336.831 14.6109 337.339 16.0544 337.645L16.2616 336.667L16.4689 335.689C15.2222 335.424 14.0701 334.987 13.0057 334.39L12.5166 335.263ZM20.2495 336.964L20.2986 337.963C21.0031 337.928 21.7249 337.853 22.4641 337.737L22.3094 336.749L22.1546 335.761C21.4818 335.867 20.8306 335.934 20.2005 335.965L20.2495 336.964ZM22.3094 336.749L22.4641 337.737C23.0679 337.643 23.6933 337.55 24.3444 337.456L24.2004 336.466L24.0565 335.477C23.4034 335.572 22.7694 335.665 22.1546 335.761L22.3094 336.749ZM27.9828 335.906L28.1372 336.894C29.333 336.707 30.5987 336.495 31.9409 336.24L31.754 335.257L31.5672 334.275C30.252 334.525 29.0087 334.733 27.8284 334.918L27.9828 335.906ZM35.4943 334.467L35.7215 335.441C36.9165 335.162 38.1646 334.845 39.4699 334.481L39.2011 333.518L38.9324 332.555C37.6559 332.911 36.4355 333.221 35.2671 333.493L35.4943 334.467ZM42.8601 332.414L43.1685 333.365C44.3432 332.985 45.5596 332.565 46.82 332.102L46.4752 331.164L46.1303 330.225C44.8941 330.679 43.702 331.09 42.5518 331.463L42.8601 332.414ZM50.0405 329.78L50.4184 330.706C51.0042 330.467 51.5988 330.219 52.2023 329.961L51.8092 329.041L51.4161 328.122C50.8226 328.376 50.2382 328.62 49.6627 328.855L50.0405 329.78ZM51.8092 329.041L52.2023 329.961C52.8571 329.681 53.5188 329.397 54.1864 329.109L53.7907 328.191L53.3949 327.272C52.7288 327.559 52.0688 327.843 51.4161 328.122L51.8092 329.041ZM57.7511 326.475L58.1498 327.392C59.4577 326.823 60.7804 326.247 62.109 325.668L61.7098 324.752L61.3107 323.835C59.981 324.414 58.6597 324.989 57.3523 325.558L57.7511 326.475ZM65.6703 323.032L66.0674 323.949C67.3907 323.377 68.7135 322.807 70.0288 322.245L69.6359 321.325L69.2431 320.406C67.9241 320.969 66.5984 321.54 65.2731 322.114L65.6703 323.032ZM73.6111 319.644L73.9968 320.567C75.3435 320.003 76.674 319.455 77.9804 318.926L77.6052 317.999L77.23 317.072C75.9154 317.604 74.5777 318.156 73.2253 318.721L73.6111 319.644ZM81.6206 316.41L81.9803 317.343C83.3645 316.809 84.7078 316.308 85.9996 315.846L85.6632 314.904L85.3267 313.963C84.0167 314.431 82.6576 314.938 81.2608 315.477L81.6206 316.41ZM89.7553 313.526L90.0539 314.48C91.5293 314.019 92.8968 313.637 94.1366 313.348L93.9096 312.374L93.6827 311.4C92.3826 311.703 90.9658 312.099 89.4568 312.572L89.7553 313.526ZM98.175 311.729L98.2049 312.729C98.9887 312.705 99.582 312.776 100.006 312.91L100.309 311.958L100.612 311.005C99.8939 310.776 99.0529 310.703 98.145 310.73L98.175 311.729ZM100.309 311.958L100.006 312.91C100.545 313.082 101.114 313.292 101.714 313.539L102.094 312.614L102.475 311.69C101.834 311.426 101.213 311.196 100.612 311.005L100.309 311.958ZM105.555 314.237L105.098 315.127C106.154 315.669 107.268 316.274 108.439 316.928L108.926 316.055L109.414 315.182C108.232 314.522 107.096 313.904 106.012 313.348L105.555 314.237ZM112.248 317.939L111.751 318.807C112.821 319.42 113.93 320.057 115.073 320.706L115.567 319.837L116.061 318.968C114.922 318.32 113.818 317.686 112.745 317.071L112.248 317.939ZM118.903 321.708L118.42 322.583C119.52 323.19 120.649 323.8 121.805 324.407L122.27 323.521L122.734 322.636C121.593 322.037 120.476 321.433 119.386 320.832L118.903 321.708ZM125.679 325.255L125.238 326.152C126.379 326.712 127.542 327.262 128.728 327.796L129.139 326.884L129.55 325.973C128.386 325.448 127.242 324.908 126.119 324.357L125.679 325.255ZM132.654 328.388L132.279 329.315C133.465 329.795 134.67 330.254 135.894 330.687L136.228 329.744L136.561 328.801C135.367 328.379 134.189 327.931 133.029 327.461L132.654 328.388ZM139.862 330.93L139.576 331.888C140.808 332.256 142.057 332.593 143.323 332.895L143.555 331.922L143.787 330.949C142.559 330.656 141.346 330.329 140.148 329.972L139.862 330.93ZM147.299 332.696L147.127 333.681C148.395 333.903 149.678 334.086 150.976 334.225L151.083 333.231L151.189 332.237C149.937 332.102 148.697 331.926 147.471 331.711L147.299 332.696ZM154.896 333.506L154.86 334.506C155.506 334.529 156.156 334.541 156.809 334.541V333.541V332.541C156.181 332.541 155.555 332.53 154.933 332.507L154.896 333.506ZM156.809 333.541V334.541C157.467 334.541 158.113 334.532 158.747 334.515L158.719 333.515L158.692 332.515C158.076 332.532 157.449 332.541 156.809 332.541V333.541ZM162.528 333.302L162.612 334.299C163.944 334.186 165.222 334.039 166.453 333.867L166.314 332.876L166.175 331.886C164.978 332.054 163.737 332.197 162.444 332.306L162.528 333.302ZM170.073 332.252L170.26 333.235C171.564 332.987 172.816 332.718 174.028 332.443L173.807 331.468L173.586 330.492C172.389 330.764 171.16 331.027 169.886 331.27L170.073 332.252ZM177.515 330.593L177.748 331.565C179.011 331.262 180.235 330.97 181.443 330.705L181.229 329.728L181.014 328.751C179.785 329.021 178.543 329.318 177.281 329.621L177.515 330.593ZM184.97 329.006L185.128 329.994C186.356 329.797 187.58 329.651 188.82 329.571L188.756 328.573L188.693 327.576C187.379 327.659 186.091 327.814 184.812 328.019L184.97 329.006ZM192.563 328.553L192.508 329.551C193.694 329.616 194.911 329.755 196.175 329.982L196.352 328.998L196.529 328.014C195.183 327.772 193.884 327.624 192.618 327.554L192.563 328.553ZM200.051 329.881L199.767 330.84C200.893 331.173 202.06 331.578 203.278 332.063L203.648 331.134L204.018 330.205C202.747 329.698 201.522 329.274 200.335 328.922L200.051 329.881ZM207.137 332.679L206.7 333.578C207.25 333.845 207.811 334.128 208.382 334.427L208.846 333.541L209.31 332.656C208.721 332.347 208.143 332.055 207.573 331.779L207.137 332.679ZM208.846 333.541L208.382 334.427C208.739 334.614 209.178 334.941 209.698 335.435L210.387 334.71L211.076 333.985C210.483 333.422 209.892 332.961 209.31 332.656L208.846 333.541ZM212.974 337.711L212.176 338.313C212.884 339.252 213.64 340.332 214.439 341.541L215.273 340.989L216.107 340.438C215.292 339.204 214.512 338.089 213.773 337.108L212.974 337.711ZM217.384 344.309L216.532 344.833C217.186 345.898 217.863 347.026 218.558 348.212L219.421 347.706L220.283 347.2C219.582 346.004 218.899 344.864 218.235 343.786L217.384 344.309ZM221.403 351.141L220.534 351.636C221.166 352.749 221.813 353.901 222.471 355.085L223.345 354.6L224.219 354.114C223.558 352.925 222.909 351.767 222.272 350.647L221.403 351.141ZM225.258 358.073L224.381 358.553C225.002 359.69 225.633 360.851 226.272 362.034L227.152 361.558L228.031 361.083C227.391 359.898 226.759 358.734 226.136 357.594L225.258 358.073ZM229.032 365.051L228.15 365.524C228.768 366.675 229.391 367.842 230.021 369.021L230.903 368.55L231.785 368.079C231.155 366.899 230.531 365.731 229.913 364.579L229.032 365.051ZM232.77 372.052L231.888 372.522C232.505 373.681 233.127 374.848 233.752 376.023L234.635 375.552L235.517 375.082C234.892 373.908 234.27 372.741 233.653 371.582L232.77 372.052ZM236.499 379.047L235.617 379.518C236.238 380.68 236.862 381.846 237.488 383.014L238.369 382.541L239.251 382.069C238.625 380.902 238.001 379.737 237.381 378.575L236.499 379.047ZM240.249 386.033L239.369 386.509C239.998 387.673 240.629 388.837 241.261 389.998L242.139 389.519L243.018 389.041C242.387 387.882 241.757 386.721 241.129 385.558L240.249 386.033ZM244.043 392.995L243.167 393.477C243.807 394.641 244.448 395.798 245.09 396.948L245.963 396.461L246.836 395.973C246.197 394.827 245.557 393.673 244.919 392.513L244.043 392.995ZM247.907 399.919L247.037 400.413C247.696 401.575 248.354 402.726 249.012 403.864L249.878 403.364L250.743 402.864C250.089 401.731 249.434 400.584 248.777 399.426L247.907 399.919ZM251.878 406.79L251.017 407.298C251.7 408.455 252.381 409.593 253.059 410.711L253.914 410.192L254.769 409.674C254.095 408.563 253.418 407.431 252.739 406.281L251.878 406.79ZM255.994 413.567L255.146 414.098C255.865 415.245 256.58 416.365 257.29 417.454L258.128 416.908L258.965 416.362C258.263 415.284 257.554 414.174 256.841 413.036L255.994 413.567ZM260.329 420.206L259.504 420.771C260.28 421.904 261.048 422.995 261.809 424.037L262.617 423.448L263.425 422.859C262.677 421.834 261.92 420.76 261.154 419.641L260.329 420.206ZM265.015 426.608L264.232 427.23C265.105 428.33 265.966 429.358 266.812 430.304L267.558 429.637L268.303 428.971C267.487 428.058 266.651 427.061 265.799 425.987L265.015 426.608ZM270.325 432.472L269.647 433.207C270.165 433.686 270.679 434.128 271.187 434.532L271.809 433.749L272.431 432.967C271.966 432.597 271.49 432.187 271.003 431.737L270.325 432.472ZM271.809 433.749L271.187 434.532C271.72 434.956 272.258 435.351 272.802 435.719L273.363 434.891L273.923 434.063C273.422 433.724 272.925 433.359 272.431 432.967L271.809 433.749ZM276.688 436.772L276.268 437.68C277.501 438.25 278.751 438.702 280.012 439.05L280.278 438.086L280.544 437.122C279.385 436.802 278.238 436.388 277.108 435.865L276.688 436.772ZM284.033 438.814L283.917 439.807C285.234 439.961 286.554 440.02 287.87 440L287.855 439L287.839 438.001C286.603 438.019 285.372 437.964 284.149 437.821L284.033 438.814ZM291.673 438.729L291.795 439.721C293.093 439.561 294.382 439.339 295.655 439.07L295.449 438.092L295.242 437.113C294.018 437.372 292.785 437.584 291.55 437.737L291.673 438.729ZM299.166 437.176L299.435 438.139C300.695 437.787 301.934 437.403 303.144 437.004L302.831 436.054L302.517 435.104C301.33 435.496 300.121 435.87 298.897 436.212L299.166 437.176ZM306.451 434.797L306.791 435.737C308.033 435.288 309.24 434.839 310.392 434.413L310.046 433.475L309.699 432.537C308.54 432.965 307.345 433.411 306.112 433.856L306.451 434.797ZM313.65 432.178L313.974 433.124C315.274 432.678 316.472 432.305 317.561 432.036L317.321 431.065L317.082 430.094C315.912 430.383 314.652 430.777 313.326 431.232L313.65 432.178ZM321.106 430.596L321.043 431.594C322.23 431.669 322.967 432.078 323.433 432.873L324.296 432.368L325.159 431.863C324.273 430.349 322.834 429.702 321.168 429.598L321.106 430.596ZM325.087 436.086L324.087 436.093C324.092 436.639 324.065 437.242 324.004 437.909L325 438L325.996 438.091C326.061 437.369 326.092 436.699 326.087 436.078L325.087 436.086ZM325 438L324.004 437.909C323.929 438.734 323.891 439.48 323.882 440.159L324.882 440.173L325.882 440.186C325.89 439.561 325.925 438.868 325.996 438.091L325 438ZM325.283 444.475L324.303 444.673C324.632 446.303 324.927 447.219 324.766 448.646L325.76 448.758L326.753 448.87C326.959 447.046 326.556 445.727 326.263 444.277L325.283 444.475ZM324.541 452.898L323.619 452.511C323.172 453.577 322.574 454.835 321.782 456.352L322.668 456.815L323.555 457.278C324.364 455.728 324.989 454.417 325.464 453.285L324.541 452.898ZM320.588 460.612L319.719 460.118C319.379 460.714 319.019 461.34 318.636 461.996L319.5 462.5L320.364 463.004C320.75 462.342 321.114 461.71 321.457 461.106L320.588 460.612ZM319.5 462.5L318.636 461.996C318.293 462.585 317.947 463.165 317.599 463.735L318.453 464.255L319.307 464.776C319.661 464.195 320.014 463.604 320.364 463.004L319.5 462.5ZM316.256 467.703L315.424 467.148C314.659 468.294 313.888 469.4 313.109 470.466L313.917 471.055L314.725 471.645C315.52 470.556 316.308 469.427 317.088 468.257L316.256 467.703ZM311.435 474.3L310.655 473.675C309.795 474.749 308.929 475.779 308.058 476.768L308.808 477.429L309.559 478.09C310.45 477.077 311.336 476.023 312.216 474.925L311.435 474.3ZM306.036 480.431L305.318 479.736C304.361 480.723 303.401 481.665 302.439 482.567L303.123 483.297L303.807 484.026C304.792 483.103 305.775 482.138 306.754 481.127L306.036 480.431ZM300.077 486.018L299.429 485.256C298.382 486.146 297.336 486.993 296.292 487.8L296.904 488.591L297.516 489.382C298.583 488.557 299.654 487.69 300.725 486.779L300.077 486.018ZM293.617 491.019L293.041 490.202C291.916 490.995 290.797 491.747 289.687 492.466L290.23 493.305L290.773 494.145C291.904 493.413 293.045 492.646 294.193 491.836L293.617 491.019ZM286.759 495.464L286.245 494.606C285.659 494.957 285.077 495.3 284.498 495.635L285 496.5L285.502 497.365C286.088 497.025 286.678 496.678 287.273 496.322L286.759 495.464ZM285 496.5L284.498 495.635C283.923 495.969 283.362 496.309 282.817 496.654L283.353 497.499L283.889 498.343C284.411 498.012 284.948 497.686 285.502 497.365L285 496.5ZM280.239 499.663L279.633 498.867C278.572 499.675 277.582 500.508 276.656 501.362L277.335 502.097L278.013 502.832C278.891 502.021 279.834 501.229 280.845 500.458L280.239 499.663ZM274.688 504.802L273.938 504.14C273.055 505.141 272.248 506.165 271.512 507.207L272.329 507.784L273.146 508.361C273.841 507.378 274.603 506.41 275.438 505.463L274.688 504.802ZM270.311 511L269.437 510.516C268.797 511.671 268.232 512.841 267.735 514.019L268.656 514.408L269.577 514.797C270.048 513.681 270.582 512.576 271.186 511.485L270.311 511ZM267.357 517.98L266.401 517.685C266.015 518.938 265.693 520.194 265.428 521.446L266.407 521.653L267.385 521.86C267.638 520.663 267.945 519.466 268.313 518.275L267.357 517.98ZM265.773 525.398L264.781 525.27C264.613 526.566 264.497 527.851 264.421 529.117L265.419 529.177L266.418 529.237C266.491 528.012 266.603 526.772 266.764 525.526L265.773 525.398ZM265.304 532.977L264.304 532.974C264.3 534.284 264.33 535.565 264.382 536.809L265.381 536.767L266.38 536.726C266.33 535.507 266.3 534.255 266.304 532.98L265.304 532.977ZM265.601 540.565L264.604 540.637C264.7 541.971 264.806 543.245 264.903 544.437L265.9 544.356L266.896 544.275C266.799 543.077 266.694 541.815 266.599 540.494L265.601 540.565ZM266.17 548.141L265.171 548.192C265.246 549.648 265.253 550.866 265.147 551.836L266.141 551.944L267.135 552.053C267.259 550.921 267.245 549.575 267.168 548.089L266.17 548.141ZM264.382 555.048L264.086 554.093C263.825 554.173 263.405 554.196 262.743 554.03L262.5 555L262.257 555.97C263.126 556.187 263.945 556.23 264.677 556.003L264.382 555.048Z" fill="#F9F9F9"/>
</svg>
