<svg width="773" height="693" viewBox="0 0 773 693" fill="none" xmlns="http://www.w3.org/2000/svg">
<path fill-rule="evenodd" clip-rule="evenodd" d="M771.068 36.0976C769.221 35.379 768.81 34.0445 768.759 32.3508C768.759 31.6836 768.553 31.0163 768.502 30.4004C767.013 28.8093 764.909 27.8341 764.498 25.7297C766.859 23.3688 766.86 23.3688 767.219 21.8803C767.373 21.2644 767.475 20.4945 767.27 19.9299C766.449 18.0309 765.474 16.2345 764.345 14.0788C761.214 13.1549 757.775 12.1797 754.387 11.1532C752.437 12.4364 750.487 13.6682 748.69 14.9513C748.331 15.2079 748.331 15.8752 748.228 16.2345C749.819 18.2362 751.308 20.0839 753.258 22.4962C751.513 22.5989 750.487 22.6502 749.665 22.6502C747.561 20.1866 745.765 17.7742 743.609 15.7212C742.531 14.6947 740.683 13.5655 739.4 13.7195C736.372 14.1301 733.806 12.693 730.931 12.7443C728.006 12.7443 725.132 12.385 722.257 11.8718C720.204 11.5125 717.843 12.385 715.79 11.9744C713.737 11.5638 711.992 10.1267 709.734 9.76742C705.576 9.20283 701.47 8.53561 697.21 8.43296C694.387 8.38163 691.821 8.79224 689.203 9.7161C686.996 10.486 684.687 10.9992 682.377 11.4099C680.427 11.7691 678.425 11.9231 676.167 12.2311C676.834 14.9513 677.45 17.1583 680.067 18.7494C682.018 19.9299 683.506 21.7777 685.046 23.4714C686.021 24.4979 685.816 25.6784 684.636 26.6536C683.866 27.2695 682.839 27.6288 681.659 28.296C679.965 25.8837 677.758 24.6519 674.832 24.2413C672.625 23.9334 671.907 22.2909 672.317 19.9813C672.42 19.468 672.677 19.0061 672.625 18.4928C672.523 17.107 671.188 16.1318 669.546 16.1318C668.211 16.1318 667.441 16.953 667.544 18.5955C667.647 20.1866 667.749 21.675 666.774 23.3175C661.539 25.1652 655.226 24.0873 650.298 27.8854C649.888 29.3739 649.477 30.965 649.067 32.3508C646.552 32.9667 646.244 29.9385 643.985 30.4004C642.24 30.7597 640.393 30.4517 638.391 30.4517C637.929 29.3226 637.467 28.45 637.159 27.4748C635.876 23.2148 632.283 21.1617 628.485 19.4167C626.483 18.4928 624.225 18.4415 622.069 19.2114C618.015 20.7512 613.857 22.137 610.316 24.7546C609.187 25.6271 607.903 26.3457 606.62 26.9616C605.645 27.4235 604.105 27.4748 603.695 26.397C602.668 23.5741 599.845 23.5741 597.843 22.4449C595.842 23.5228 595.842 23.1635 593.891 23.0608C591.53 22.9582 589.683 21.5724 587.424 21.4697C587.219 21.4697 587.065 20.9564 586.86 20.5972C587.322 19.7759 587.784 18.9034 588.348 17.8769C587.732 17.3123 587.322 16.6964 586.757 16.3885C582.959 14.5921 579.212 14.9513 575.979 17.3636C574.542 18.4415 573.258 18.9547 571.513 18.8008L571.616 18.9034C569.512 17.261 567.099 17.8769 564.79 17.9796C560.222 18.1849 555.705 18.4415 551.137 18.7494C550.932 18.7494 550.778 19.2114 550.572 19.4167C551.496 20.1352 552.42 20.8538 553.498 21.675C552.061 22.7529 550.932 23.5227 549.905 24.4466C549.135 25.1652 549.597 26.551 550.675 26.9616C551.291 27.1669 552.009 27.0642 552.779 27.1155C553.241 29.9385 555.551 31.4782 557.142 33.4286C556.885 33.8906 556.731 34.2499 556.526 34.5065C555.756 35.3277 554.935 34.8658 554.011 34.7631C553.395 34.6605 552.471 34.9171 552.163 35.3277C551.856 35.7383 552.01 36.6622 552.369 37.1241C552.831 37.7913 554.011 38.3559 552.882 39.1258C552.318 39.4851 551.137 39.3311 550.367 39.0745C549.597 38.7665 548.981 38.0993 548.365 37.586C542.463 36.4055 542.463 36.4055 539.691 40.5116C537.33 40.8709 534.815 41.3328 532.352 40.0497C531.89 39.793 531.12 40.0497 530.247 40.101C530.607 43.6938 533.43 46.3627 532.762 50.1095C531.736 50.1609 530.607 50.4688 529.683 50.1609C527.989 49.5963 526.244 48.8777 524.858 47.8512C522.548 46.0548 520.033 44.823 517.262 43.7965C516.133 43.3858 515.26 42.462 514.028 41.5381C515.363 40.9735 516.287 40.6143 517.108 40.255C517.005 37.2781 515.055 36.3542 512.335 36.1489C512.386 32.7101 510.025 30.8623 507.613 29.3739C505.406 27.9881 502.634 26.4996 499.914 27.5261C498.015 28.2447 496.578 28.2447 494.781 27.6802C491.958 26.8589 489.392 27.1669 487.39 30.0411C488.058 31.119 488.827 32.2995 489.443 33.48C489.803 34.1985 489.854 35.0197 490.111 35.7896C487.955 36.6108 486.158 37.432 484.259 38.048C483.079 38.4072 481.642 38.9205 480.564 38.6639C478.768 38.2019 477.074 38.3559 475.277 38.5099C472.66 38.7152 472.249 38.3046 471.171 35.4817C471.017 35.0197 470.658 34.6605 470.299 34.0445C466.86 34.6091 463.421 35.0711 460.085 35.7383C457.929 36.2002 455.928 37.1241 454.952 39.2285C454.85 39.3824 454.439 39.4338 454.182 39.4851C453.618 38.8179 453.053 38.1506 452.694 37.74C452.078 37.74 451.821 37.6887 451.719 37.74C449.563 39.4851 447.407 40.255 444.892 38.1506C443.558 37.0214 441.864 37.1754 440.222 37.5347C439.401 38.5612 438.785 39.6391 439.965 40.7682C440.94 40.6143 441.864 40.5116 443.045 40.3576C440.581 45.2336 438.169 47.5946 433.652 49.9556C431.907 50.8281 435.295 52.2139 433.139 53.0351C432.882 52.8298 432.42 52.6245 432.369 52.4192C431.907 49.1343 432.164 46.0035 434.576 43.2832C435.038 42.7699 435.397 42.1027 435.5 41.4868C435.91 37.0214 437.194 32.7614 438.887 28.604C439.657 26.705 440.068 24.6519 440.581 22.6502C440.992 21.0591 440.581 19.622 439.811 18.1335C439.093 16.7991 437.758 16.9017 436.578 16.4911C436.167 16.3371 435.859 15.8239 435.449 15.3619C436.321 14.9513 437.04 14.5407 438.066 14.0275C436.27 12.4364 434.627 10.9992 432.985 9.61345C432.369 10.0754 431.907 10.3833 431.24 10.8452C428.776 7.30376 424.516 6.58522 420.769 4.73749C418.1 6.02064 415.534 7.20112 413.07 8.38161C412.968 9.81874 413.122 11.0506 412.711 12.1284C412.455 12.7443 411.325 13.2063 410.504 13.3089C410.094 13.3602 409.221 12.539 409.118 12.0258C408.862 10.6913 408.964 9.3055 408.81 7.9197C408.605 6.22595 407.579 5.50738 405.834 5.76401C403.729 6.07196 401.573 6.43122 399.52 6.73918C399.366 6.32857 399.264 6.17461 399.264 6.02064C399.88 1.45264 399.88 1.40131 395.517 0.374793C395.004 0.272141 394.439 0.169471 393.926 0.0668191C392.078 -0.18981 391.052 0.272135 390.384 1.81191C389.974 2.7871 389.717 3.76229 389.461 4.7888C389.255 5.61002 388.999 6.48257 388.947 7.30378C388.896 8.3303 388.947 9.35682 389.05 10.3833C389.153 11.4099 389.204 12.4877 389.666 13.4115C390.128 14.2841 391.103 14.9513 391.77 15.7725C392.283 16.4398 392.489 17.3123 392.951 18.0309C393.464 18.8008 395.055 18.0309 395.414 19.2114C393.002 20.3406 390.076 19.0574 388.126 21.1618C389.204 22.137 390.128 23.0095 391.052 23.882C391.103 23.882 391.206 23.882 391.257 23.882L391.154 23.9847C391.103 23.9334 391.103 23.9334 391.052 23.882C389.101 23.728 387.254 23.5741 386.073 25.7297C384.995 27.6801 382.788 28.1934 380.376 28.6553C380.376 27.2695 380.376 25.9864 380.376 24.8059C378.323 24.2926 377.964 25.4731 377.707 26.7049C372.882 28.0394 372.882 28.0394 370.829 30.1438C371.24 30.811 371.651 31.5296 372.061 32.2481C370.727 33.8392 368.879 34.7631 367.082 35.379C364.824 36.1489 363.644 37.894 362.104 39.2798C360.821 40.4603 360 42.0514 359.024 43.4885C358.768 43.8478 358.614 44.4637 358.768 44.8743C359.64 47.5433 357.792 48.4671 355.021 49.2883C356.15 50.1609 356.869 50.6741 357.536 51.1874H357.433C357.844 51.9573 358.203 52.7272 358.614 53.4971C361.077 54.7289 364.106 55.2935 366.005 57.9624C365.132 59.0916 364.311 60.1694 363.49 61.2472C363.387 61.3499 363.079 61.2986 362.822 61.3499C362.925 60.3234 363.028 59.3995 363.13 58.4243C362.412 58.3217 361.95 58.1677 361.693 58.2703C356.92 60.426 352.095 62.4277 347.014 63.8135C345.269 64.2755 344.653 66.0206 345.474 67.6117C346.501 69.6134 347.835 71.4611 348.81 73.4628C349.58 75.0026 350.556 75.9778 352.455 76.1317C353.892 76.2344 355.483 76.0291 356.407 77.4149C357.587 79.1086 359.332 79.8785 361.283 80.4944C362.515 80.8537 363.746 81.5723 363.9 82.9068C364.208 85.5757 365.851 87.68 367.185 89.8871C365.697 90.7596 364.362 91.5295 363.079 92.2994C362.155 89.5791 360.667 87.0128 361.95 83.9333C362.412 82.8041 360.923 81.6749 359.384 82.1369C356.407 83.0607 354.251 82.1882 351.839 80.4944C349.375 78.8007 346.552 77.3122 343.267 77.5689C341.779 77.6715 340.906 78.3901 340.855 80.0838C341.317 80.3918 342.035 80.6998 342.446 81.213C342.805 81.6749 343.113 82.4962 342.959 83.0094C342.703 83.9846 341.728 84.2412 340.752 83.9333C339.88 83.6766 339.11 83.1634 338.237 82.9581C337.775 82.8554 336.954 83.0094 336.8 83.3174C336.492 83.8306 336.287 84.6518 336.544 85.1651C337.467 87.2695 339.367 88.142 341.574 88.8092C343.062 89.2198 344.91 88.6039 346.398 90.5543C342.651 90.4003 339.315 91.2216 335.876 89.7844C334.542 87.3208 332.745 84.9598 332.386 81.8802C332.181 80.2891 331.565 78.698 329.358 76.953C329.923 78.852 330.333 79.7759 330.436 80.7511C330.487 81.7263 330.59 83.0094 330.025 83.728C328.075 86.2429 328.434 88.8606 328.691 90.2977C330.538 92.4021 331.411 93.8392 332.643 94.763C334.542 96.2001 335.363 97.8426 335.26 100.101C335.158 104.053 336.954 107.338 339.315 110.366C341.06 110.52 342.497 110.417 343.627 109.34C345.012 108.005 346.501 108.056 348.143 108.724C349.17 109.134 350.094 109.75 351.171 109.955C353.327 110.417 354.508 111.906 355.945 113.24C357.485 114.677 355.688 116.217 356.407 117.603C356.407 117.603 356.458 117.603 356.458 117.654V117.706C356.458 117.654 356.407 117.654 356.407 117.603C355.586 116.987 354.662 116.474 353.994 115.755C352.301 114.01 350.71 112.162 349.221 110.469C346.963 110.828 345.526 111.957 344.191 113.086C342.754 114.318 342.497 115.858 343.883 117.141C346.244 119.399 346.911 121.709 345.423 124.583C345.064 125.302 345.423 126.277 345.269 127.098C345.115 128.125 344.91 129.151 344.448 130.075C343.421 132.026 342.241 133.873 341.112 135.875C337.57 135.362 333.772 135.978 330.59 133.822C331.514 133.771 332.489 133.719 332.899 132.693C333.567 132.898 334.285 132.949 334.901 133.257C336.133 133.925 337.262 133.565 337.621 132.539C339.161 128.227 341.522 123.967 339.623 119.091C339.213 118.014 339.264 116.731 339.11 115.447C335.414 113.805 333.823 110.777 332.694 107.389C331.719 104.618 330.538 101.846 329.769 99.0231C329.204 96.9187 328.28 94.8657 326.484 93.7878C323.866 92.1967 323.661 90.041 323.507 87.5774C323.302 84.4978 323.302 81.367 321.608 78.8007C317.707 76.645 313.96 77.2096 310.059 78.2874C309.341 80.8537 309.7 83.42 309.905 85.9863C310.162 88.9632 310.213 91.6835 308.212 94.3524C306.98 95.9948 306.826 98.2532 308.828 99.9983C310.829 101.743 311.651 104.053 311.394 106.517C311.189 108.621 312.164 110.007 314.012 110.52C316.116 111.085 317.45 112.316 318.887 113.6C319.914 114.523 321.248 115.191 322.429 115.961C322.84 117.449 323.096 118.937 321.608 120.683C318.22 117.808 314.217 116.217 310.213 114.729C308.879 114.216 307.237 114.113 306.159 113.292C301.283 109.648 295.842 110.725 290.504 111.239C288.503 114.831 292.711 116.115 293.173 118.681C292.917 120.734 290.042 121.042 289.94 123.249C289.888 123.762 288.451 123.608 288.092 123.095C287.373 121.966 288.041 120.169 286.09 119.656C285.782 119.707 285.372 119.707 285.064 119.861C282.138 121.145 279.726 123.454 276.133 123.249C275.363 123.198 274.337 124.327 273.669 125.097C272.438 126.431 271.001 126.79 269.153 126.123C268.999 125.148 268.947 124.121 268.64 123.198C268.332 122.12 266.792 121.76 266.022 122.633C264.533 124.429 262.583 125.302 260.273 125.867C258.631 126.226 257.45 127.304 256.27 128.484C254.166 130.64 251.907 132.59 249.444 134.9C249.444 134.849 249.341 135.156 249.238 135.516C249.136 135.824 249.136 136.183 249.033 136.542C248.058 140.186 244.568 141.264 241.693 138.647C240.667 137.723 239.281 137.004 239.384 134.951C240.41 133.976 241.642 132.795 242.874 131.666C240.975 127.92 238.203 126.328 233.943 127.406C233.635 127.458 233.327 127.458 232.968 127.509C234.149 130.178 235.278 132.847 234.764 135.824C234.559 137.056 235.021 138.082 236.048 139.057C238.203 141.008 237.895 143.266 236.561 145.678C234.2 145.268 232.095 144.908 229.837 144.498C227.527 147.423 223.781 149.066 222.6 153.121C223.267 154.096 224.191 155.225 224.705 156.457C224.961 157.124 224.705 158.099 224.397 158.818C223.986 159.69 222.959 159.844 222.036 159.485C219.675 158.51 217.365 157.483 215.055 156.508C214.285 156.2 213.413 155.995 212.284 155.584C211.822 156.713 211.052 157.74 211.257 158.561C211.411 159.434 212.335 160.357 213.208 160.871C214.08 161.435 215.312 161.487 216.236 162C216.749 162.308 217.16 163.078 217.211 163.642C217.314 164.669 216.338 165.439 215.517 165.336C213.926 165.182 212.335 164.669 210.898 164.053C209.307 163.386 207.818 162.411 206.073 161.435C205.56 160.203 205.149 158.715 204.38 157.329C203.61 155.892 203.096 154.558 203.25 152.915C203.456 150.554 202.07 149.271 199.76 148.296C197.348 147.321 195.244 145.73 194.012 143.112C194.73 143.112 195.09 143.009 195.397 143.112C200.53 145.37 205.868 146.961 211.411 148.039C213.977 148.553 216.441 148.45 219.007 147.783C222.652 146.859 224.397 144.395 225.32 141.264C225.731 139.878 225.474 138.595 224.551 137.363C222.754 134.797 220.085 133.257 217.314 132.026C214.491 130.742 211.77 129.408 209.307 127.663C204.893 124.532 200.017 123.146 194.422 123.813C193.088 123.967 191.651 123.505 190.316 123.352C190.316 122.325 190.47 121.606 190.265 121.042C190.111 120.683 189.495 120.272 189.033 120.169C188.417 120.067 187.442 120.067 187.083 120.426C185.44 122.017 183.541 120.631 181.847 120.991C179.794 121.401 178.768 120.375 177.844 118.681C180.154 118.373 182.566 118.168 183.387 115.396C181.129 113.651 178.409 113.035 175.74 112.47C174.867 113.497 174.251 114.216 173.019 115.601C172.917 113.856 172.968 112.881 172.763 112.009C172.66 111.444 172.352 110.674 171.89 110.417C170.915 109.904 170.094 110.52 169.632 111.29C169.17 112.009 169.17 112.932 168.811 113.702C168.554 114.216 168.041 114.677 167.63 115.191C166.912 114.421 166.501 113.959 165.834 113.24C164.859 114.883 163.986 116.32 163.011 117.962C161.779 115.755 163.575 114.267 163.781 112.47C161.933 112.009 160.342 112.06 159.213 113.908C158.7 114.78 157.827 115.447 157.211 116.269C156.492 117.192 155.928 118.168 155.415 118.835C153.208 118.63 151.514 117.038 149.461 118.424C149.923 119.348 150.333 120.067 150.693 120.785C146.587 122.53 146.587 122.53 142.378 122.633C142.224 122.633 142.121 122.684 141.967 122.684C141.403 123.095 140.889 123.505 140.325 123.865C140.068 123.967 139.812 124.121 139.555 124.224C139.812 124.173 140.12 124.121 140.376 124.07C139.606 125.507 138.631 125.969 136.886 125.148C135.654 124.583 134.371 125.969 134.884 127.15C135.09 127.612 135.5 127.971 135.86 128.279C136.989 129.203 136.783 130.075 135.808 130.845C135.038 131.461 134.166 131.974 133.345 132.539C134.012 133.206 134.679 133.822 135.346 134.489C132.215 135.926 129.7 137.723 128.725 141.11C128.469 142.034 128.263 142.907 128.007 143.779C127.801 144.549 126.159 144.806 125.492 145.576C124.619 146.653 123.849 147.885 123.439 149.168C122.463 152.248 121.694 155.379 120.821 158.51C120.667 158.972 120.718 159.793 120.462 159.896C118.101 160.768 117.844 163.488 115.74 164.618C114.097 165.49 113.02 166.876 112.455 168.57C111.839 170.469 110.505 171.752 108.862 172.932C107.733 173.754 106.655 174.729 105.577 175.601L105.68 175.653C104.602 175.755 103.524 175.858 102.292 175.961C102.344 176.628 102.446 177.244 102.498 177.86C101.009 178.783 99.5208 179.707 98.0324 180.631C94.7988 182.582 94.3883 183.711 95.6714 187.765C96.7492 187.765 97.827 187.817 98.9049 187.765C100.034 187.714 101.266 186.739 102.703 188.433C99.9827 188.587 97.7244 188.741 95.2608 188.895C95.2094 191.204 95.8767 192.795 97.9811 193.668L97.8784 193.719C99.2128 196.286 96.6979 197.62 95.5174 199.262C96.082 199.673 96.3386 199.93 96.6465 200.084C98.5456 200.854 98.9562 201.623 97.8784 202.855C97.3138 203.471 96.2359 203.676 96.8519 205.216C97.8784 205.883 99.2129 206.756 100.547 207.629C103.216 209.425 105.731 208.501 108.195 207.269C108.965 206.91 109.427 206.037 110.094 205.473C111.274 204.446 112.404 203.317 113.687 202.393C115.534 201.11 115.586 201.162 116.458 198.236C117.588 200.494 118.768 202.445 119.435 204.754C120.513 208.296 121.232 212.094 123.644 215.173C124.517 216.251 125.286 217.381 126.159 218.612C125.748 219.382 125.338 220.152 124.927 220.922C126.005 221.949 127.031 223.026 128.109 224.053C129.598 224.156 131.086 224.309 131.805 222.616C132.318 221.333 133.447 220.563 134.73 220.511C137.707 220.46 139.658 218.715 141.762 217.226C140.735 215.789 140.12 214.25 140.325 212.505C140.582 210.605 141.095 208.758 140.992 206.91C140.889 204.857 141.813 203.42 143.507 202.701C146.946 201.264 147.562 198.595 147.562 195.054C146.433 193.925 145.303 192.18 143.61 191.307C141.249 190.075 140.684 188.381 140.787 186.174C140.838 184.789 141.197 183.403 141.095 182.068C140.941 179.656 141.762 177.654 143.404 175.909C144.893 174.369 146.381 172.932 147.972 171.495C149.307 170.315 150.847 169.34 152.027 168.056C153.567 166.363 154.593 164.464 154.131 161.949C153.875 160.46 154.029 158.818 154.542 157.381C155.107 155.789 156.082 153.993 158.135 153.788C160.445 153.582 162.908 153.736 165.218 154.096C167.733 154.506 168.965 156.097 168.503 158.15C166.501 160.717 164.807 162.924 163.062 165.131C161.214 167.492 159.726 170.161 157.468 172.06C155.363 173.856 154.747 175.601 155.466 177.911C156.544 181.401 157.16 184.943 157.057 188.587C157.057 188.895 157.262 189.254 157.365 189.459C160.239 190.999 163.062 192.539 166.398 194.335C168.913 193.463 171.89 192.179 175.072 191.461C178.409 190.691 181.899 190.486 185.184 190.075C186.723 191.204 188.109 192.231 189.752 193.411C188.058 194.438 186.415 195.054 185.44 196.183C183.747 198.133 182.001 198.339 179.64 197.569C176.15 196.388 172.763 197.415 169.529 198.647C167.271 199.519 166.963 200.546 167.322 202.753C167.682 204.806 168.811 206.191 171.018 206.91C171.018 208.655 171.12 210.195 170.966 211.735C170.864 213.018 170.145 213.993 167.733 213.89C167.271 213.377 166.604 212.351 165.68 211.478C164.14 210.092 161.984 210.195 161.009 211.889C159.521 214.455 158.135 217.124 159.11 220.255C159.675 222.051 160.239 223.899 159.623 225.747C158.289 226.465 156.595 226.876 155.928 227.902C155.055 229.185 154.183 230.007 152.643 230.212C150.641 230.417 149.666 229.288 148.794 227.851C148.64 227.646 148.178 227.594 147.664 227.389C141.865 228.21 137.502 232.214 131.753 234.831C130.573 233.599 129.341 232.368 127.699 230.674C125.543 231.341 122.823 232.162 120.359 232.932C118.46 232.008 116.715 231.136 115.021 230.315C114.457 229.237 113.635 228.21 113.327 227.081C113.122 226.209 113.481 225.182 113.584 224.258C113.533 224.258 113.533 224.258 113.481 224.258C113.533 224.258 113.533 224.207 113.584 224.207C115.329 222.924 116.202 221.127 116.818 219.074C115.483 217.688 115.329 216.046 115.894 214.25C116.15 213.377 115.996 212.505 114.611 212.197C114.149 212.505 113.533 212.864 112.968 213.274C112.558 213.582 112.198 213.993 111.736 214.301C111.12 214.712 110.402 214.917 109.889 215.379C109.529 215.635 109.17 216.251 109.273 216.611C109.478 217.38 109.273 217.791 108.862 218.407C107.682 220.511 107.733 222.821 108.657 225.182C109.581 227.594 110.556 230.007 110.607 232.624C110.659 234.215 109.119 236.166 107.733 235.704C105.013 234.831 103.216 236.73 100.958 237.09C95.9793 237.86 92.5918 240.374 91.7193 245.302C91.4626 246.79 90.6928 247.817 89.307 248.535C88.3831 249.049 87.5619 249.87 86.5867 250.28C84.8416 251.102 83.6611 252.128 83.1992 254.027C82.9939 254.9 82.1213 256.029 81.2488 256.337C79.3497 257.055 77.6047 257.671 76.3728 259.365C76.1162 259.776 74.987 259.827 74.3198 259.724C72.934 259.468 71.5995 258.954 69.9058 258.441C69.9058 260.084 69.9058 261.572 69.9058 263.266C68.4173 263.368 66.9289 263.882 65.9537 263.42C63.2334 262.239 61.0264 263.368 58.4088 264.138C58.5628 265.319 58.7168 266.294 58.8194 267.321C60.6158 267.988 62.3095 268.706 64.0546 269.22C65.7484 269.733 67.1342 270.708 67.5961 272.197C68.2634 274.404 70.1111 275.533 71.7022 276.867C72.5234 280.768 71.6509 284.515 71.2402 288.261C71.1889 288.775 70.9323 289.237 70.6757 289.699C70.1111 290.93 68.9819 291.752 67.6474 291.546C62.8228 290.725 57.8442 291.546 53.0196 290.469C50.248 289.853 47.2198 289.647 44.3455 289.853C42.7031 289.955 41.1633 291.29 39.5722 292.111C39.1103 292.368 38.6997 292.727 38.4944 292.829C38.905 294.883 39.3156 296.525 39.5209 298.219C40.2395 303.146 39.7775 307.868 37.2112 312.333C36.8006 313.052 36.544 314.284 36.9033 314.797C38.9563 317.261 38.751 320.289 39.3669 323.42C40.8554 323.574 42.3438 324.087 43.6783 323.882C46.7065 323.368 48.6569 324.344 49.7861 327.012C49.8374 327.166 49.9914 327.32 50.094 327.474C51.3772 329.066 52.455 329.322 54.3027 328.142C57.1256 326.345 60.1026 325.37 63.5927 325.678C65.1838 325.832 66.9802 325.575 68.366 324.959C69.9571 324.241 71.4969 323.163 72.6261 321.88C74.2172 320.032 75.449 317.928 76.8348 315.875C76.9374 315.772 76.8348 315.516 76.8348 315.362C76.3215 314.232 75.8596 313.155 75.2437 311.769C77.8613 308.381 79.7604 304.429 84.6363 302.992C87.1 302.273 88.5371 300.477 88.6397 297.962C88.691 296.782 88.7937 295.55 89.0504 294.369C89.6149 292.008 91.2573 290.879 93.8236 291.29C96.4926 291.752 99.1102 292.419 101.882 293.035C104.653 291.187 107.682 289.288 110.607 287.286C111.736 286.516 112.917 286.362 114.251 286.722C116.304 287.235 117.69 288.415 118.871 290.109C122.72 295.806 126.878 301.247 134.217 303.351C134.73 303.505 135.038 304.019 135.552 304.224C137.913 305.302 139.401 307.406 141.505 308.638C143.507 309.818 143.969 311.512 144.636 313.257C145.457 315.31 144.585 316.901 143.148 318.544C141.043 318.903 138.836 319.16 136.732 319.673C134.679 320.135 132.421 318.954 130.06 320.597C133.139 323.625 136.681 324.959 140.222 325.986C140.633 325.627 140.838 325.524 140.889 325.421C141.454 323.112 140.479 319.827 144.944 320.135C145.201 320.135 145.56 319.724 145.714 319.468C146.741 317.671 147.818 315.875 148.691 313.976C148.896 313.462 148.486 312.641 148.229 312.025C147.972 311.409 147.459 310.845 147.305 310.178C146.997 308.279 148.794 306.79 150.693 307.355C151.668 307.663 152.54 308.125 153.824 308.638C153.772 307.817 153.875 307.149 153.618 306.893C150.333 303.659 145.201 302.992 142.224 299.297C142.07 299.091 141.557 299.091 141.197 299.091C138.323 298.835 136.527 297.038 135.295 294.883C133.653 292.06 131.599 289.75 128.777 288.005C127.442 287.184 126.878 285.952 126.98 284.463C127.083 283.437 127.185 282.41 127.288 281.538C128.623 280.306 129.957 279.536 131.651 279.844C132.318 281.23 132.883 282.359 133.396 283.488C134.782 283.026 135.757 282.667 136.937 282.308C137.81 283.54 138.836 284.566 139.35 285.849C140.428 288.672 142.635 290.109 145.457 291.29C150.487 293.343 155.261 295.909 158.392 300.528C158.443 300.99 158.494 301.504 158.494 302.017C158.289 305.199 158.802 308.125 161.42 310.486C162.6 311.512 163.473 312.898 164.448 314.13C165.577 315.669 166.655 317.261 167.784 318.852C166.963 320.956 169.17 321.88 169.786 323.42C170.658 325.575 172.506 325.883 174.508 325.575C175.38 323.779 176.099 322.239 176.818 320.699C179.179 320.186 179.179 318.441 179.076 316.491C177.69 315.875 176.253 315.259 175.329 314.848C174.559 312.949 173.943 311.512 173.379 310.126C173.122 309.51 172.763 308.843 172.711 308.176C172.66 307.765 173.122 307.303 173.327 306.79C174.405 307.303 175.329 307.714 176.304 308.176C176.869 307.817 177.433 307.611 177.741 307.201C178.614 305.918 179.179 304.378 181.232 304.326C182.874 304.275 184.516 304.07 186.108 304.224C187.699 304.378 188.622 305.558 188.776 307.047C188.879 308.227 188.776 309.459 188.776 310.537C192.575 313.36 192.421 314.386 190.419 317.877C191.445 319.262 192.523 320.597 193.498 321.983C194.73 323.779 196.167 325.267 198.58 325.575C200.068 325.781 201.249 326.397 202.429 327.269C204.534 328.809 206.587 328.501 208.794 326.602C209.307 326.14 209.563 325.473 209.717 325.319C212.797 325.165 214.747 326.089 216.441 327.526C217.827 328.706 219.367 328.655 221.06 328.45C223.627 328.193 225.218 326.499 227.014 325.062C228.913 325.37 230.658 325.627 232.352 325.883C232.455 327.782 232.249 329.579 232.711 331.17C233.379 333.531 232.865 335.687 232.198 337.791C231.069 341.23 229.735 344.617 228.349 348.005C227.938 348.929 227.271 349.853 226.501 350.571C225.885 351.136 224.961 351.7 224.191 351.752C221.83 351.803 219.315 352.06 217.108 351.392C213.516 350.314 210.231 350.468 207.048 352.111C205.509 352.932 204.02 353.035 202.326 352.624C198.066 351.7 193.704 351.033 189.444 350.058C186.108 349.288 182.771 348.313 179.486 347.338C178.819 347.132 178.152 346.773 177.587 346.311C174.354 343.745 170.761 344.155 167.168 345.284C164.397 346.157 163.165 348.21 163.575 350.93C163.678 351.598 164.037 352.265 164.14 352.932C164.345 354.728 163.114 355.806 161.779 356.73C160.599 357.551 159.315 357.243 158.186 356.576C157.262 356.012 156.441 355.293 155.517 354.78C153.156 353.394 150.744 352.111 147.87 352.162C145.457 352.213 144.072 350.982 143.456 348.98C142.942 347.286 141.813 346.311 140.068 345.952C137.759 345.438 135.398 344.463 133.139 344.669C128.263 345.131 124.927 342.256 121.078 340.409C120.051 339.947 119.897 338.561 120.616 337.688C121.078 337.175 121.642 336.713 122.156 336.2C123.901 334.66 124.26 332.761 122.617 331.17C120.975 329.579 122.361 327.936 122.002 326.448C121.386 326.089 120.821 325.883 120.513 325.524C118.871 323.625 116.972 323.317 114.662 324.446C112.66 325.473 110.556 325.627 108.246 325.319C106.501 325.062 104.499 324.703 102.908 325.216C100.188 326.14 97.5704 325.883 94.8501 325.678C93.413 325.575 91.9759 325.986 90.5388 326.14C89.2557 326.294 88.0238 326.756 86.7407 326.653C84.0204 326.499 81.7107 327.423 79.4011 328.552C77.9126 329.271 76.5268 329.989 75.0384 330.657C70.7783 332.453 66.9802 333.172 62.3096 333.069C60.6672 333.069 58.922 333.531 57.3823 333.12C55.7398 332.71 54.3027 331.58 52.455 330.605C51.8391 331.837 51.1719 332.864 50.8639 333.941C49.8887 337.124 48.1436 339.587 44.8074 340.819C44.1402 341.076 43.5756 341.589 42.9597 341.948C40.1368 343.539 37.0572 344.874 36.8519 348.621C36.8519 349.031 36.2361 349.493 35.9281 349.904C34.9016 351.238 34.2856 352.675 34.7476 354.267C35.8254 358.013 33.6697 360.734 31.2061 362.992C29.307 364.737 26.7921 366.174 24.2771 366.995C21.9674 367.765 20.479 368.946 19.2985 370.742C18.7339 371.615 18.2207 372.795 17.3995 373.154C14.6279 374.386 13.6014 376.799 12.2669 379.006C11.4457 380.34 10.7271 381.829 9.64922 382.958C6.31304 386.345 5.0299 390.759 2.4636 394.557C1.12913 396.456 1.07786 398.817 3.5415 400.562C4.15741 400.973 4.67061 402.154 4.51664 402.821C3.79808 405.336 4.92728 407.594 5.13259 409.955C5.28656 411.495 5.18391 413.035 4.87596 414.523C4.46535 416.525 3.84944 418.578 3.07955 420.477C2.25834 422.53 1.07784 424.429 0 426.482C1.3858 428.638 3.43884 430.691 2.00172 433.514C2.51498 435.515 2.92555 437.928 5.23521 438.595C8.52007 439.519 9.64922 442.29 11.7023 444.241C12.3182 444.857 12.7288 445.729 13.4473 446.088C16.3216 447.628 17.964 449.784 18.8366 452.864C19.6065 455.686 20.9922 458.663 24.0205 459.946C27.9212 461.64 30.8981 464.412 34.2856 466.722C36.6466 468.313 39.2643 469.647 41.8306 470.93C43.165 471.597 44.6021 471.751 46.0393 470.982C49.6321 469.031 53.5842 468.621 57.6389 468.364C60.6158 468.159 63.4387 468.056 66.2617 469.082C67.2369 469.442 68.4686 469.75 69.4438 469.493C71.9075 468.877 74.4738 468.261 76.6295 467.029C80.8382 464.668 85.4575 463.745 90.1282 462.975C95.1068 462.102 97.9297 463.745 100.239 468.21C100.547 468.826 100.804 469.493 101.112 470.109C101.83 471.443 103.011 472.265 104.602 472.265C106.45 472.265 108.246 472.111 110.094 471.905C112.096 471.649 114.046 471.289 116.304 470.93C116.972 471.7 117.536 472.778 118.409 473.24C120.308 474.164 120.718 475.858 121.129 477.5C121.642 479.399 121.18 481.247 120.359 483.043C119.949 484.018 119.127 484.993 119.179 485.866C119.538 489.305 117.998 492.23 116.766 494.797C118.049 499.775 121.026 503.214 124.722 506.191C125.286 506.653 125.8 507.115 126.364 507.577C128.725 509.373 130.111 511.734 131.138 514.403C131.959 516.508 133.088 518.458 133.858 520.562C134.679 522.821 135.911 525.233 135.706 527.44C135.398 530.519 136.014 533.188 137.245 535.96C138.939 539.604 138.631 542.94 135.192 545.815C132.729 547.919 130.932 550.485 130.881 553.873C130.83 555.002 130.162 556.182 129.598 557.26C127.75 560.699 128.109 564.343 128.315 567.936C128.366 568.757 128.777 569.681 129.29 570.297C134.114 575.481 135.192 582.513 139.093 588.158C139.298 588.415 139.35 588.826 139.401 589.134C140.017 593.548 140.581 598.013 141.3 602.427C142.07 607.252 143.25 611.871 146.895 615.669C148.332 617.158 149.41 619.057 150.231 620.956C151.617 624.138 152.694 627.474 153.926 630.708C154.593 632.401 154.953 633.941 154.029 635.686C153.67 636.353 153.772 637.329 153.978 638.098C154.337 639.587 154.901 641.024 155.415 642.41C156.698 643.231 157.827 644.104 159.11 644.822C159.88 645.233 161.061 645.797 161.625 645.541C164.499 644.206 167.836 644.771 170.607 643.539C173.43 642.307 176.407 642.205 179.179 642.666C181.899 643.128 184.157 642.718 186.569 641.845C187.391 641.537 188.263 641.075 189.136 641.024C192.061 640.87 194.422 639.638 196.629 638.047C201.608 634.454 206.176 630.554 209.717 625.626C211.77 622.752 213.721 619.878 216.749 617.722C217.827 616.952 218.699 615.618 219.264 614.386C220.701 611.05 222.036 607.611 220.752 603.967C222.241 602.119 223.986 600.939 226.142 600.271C227.168 599.963 228.297 599.758 229.324 599.399C231.89 598.475 233.327 596.884 233.738 594.061C234.2 590.571 234.097 587.235 233.019 583.847C232.609 582.513 232.249 581.178 231.89 579.844C231.582 578.56 231.839 577.38 233.019 576.61C239.024 572.709 243.541 566.909 250.778 564.651C251.599 564.395 252.369 563.779 253.088 563.265C257.502 560.288 260.479 556.644 259.349 551.101C259.196 550.434 259.298 549.715 259.349 549.048C259.503 544.788 259.709 540.477 259.863 536.217C254.063 531.957 254.628 526.106 255.192 520.1C254.371 518.92 253.498 517.637 252.472 516.2C253.498 514.095 254.422 512.042 255.5 510.092C256.424 508.398 257.604 506.858 258.426 505.165C259.298 503.419 260.427 502.034 262.224 500.905C263.866 499.878 265.303 498.441 266.484 496.901C270.385 492.025 275.363 488.176 279.931 483.967C280.598 483.351 281.368 482.889 282.138 482.427C290.71 477.705 296.509 470.828 300.564 462.41C301.899 459.587 303.182 456.764 305.132 454.198C307.955 450.605 308.879 446.345 308.622 441.931C308.571 441.161 308.109 440.443 307.698 439.313C303.746 441.367 299.794 441.777 295.842 442.444C290.658 443.368 285.372 443.727 280.444 445.781C278.956 446.396 277.519 445.986 276.441 444.908C274.901 443.42 273.413 441.931 271.924 440.443C272.848 437.312 272.848 437.312 271 435.464C270.231 434.745 269.563 433.924 268.793 433.154C265.714 430.024 262.994 426.533 258.374 425.045C256.116 424.326 254.628 422.376 253.96 420.015C253.601 418.681 253.139 417.346 252.729 416.012C252.01 413.805 250.829 411.905 248.674 410.622C245.492 408.723 243.849 406.106 243.952 402.461C244.003 401.127 243.285 399.793 243.079 398.407C242.566 395.122 241.026 392.504 237.69 391.067C235.945 390.349 235.021 389.014 235.226 387.372C235.483 385.062 234.2 383.42 233.071 381.675C231.48 379.16 229.427 376.799 228.349 374.078C226.758 369.972 224.807 366.174 221.676 362.889C221.266 362.479 220.599 361.811 221.933 361.144C222.446 361.811 222.959 362.479 223.524 363.095C224.448 364.172 225.423 365.199 226.45 366.174C227.117 366.79 227.887 367.047 228.913 366.636C231.582 365.61 232.147 365.558 233.379 367.252C237.074 372.179 241.231 376.799 243.438 382.752C248.828 384.703 250.881 388.86 251.189 394.095C251.394 397.483 252.934 399.998 256.065 401.692C258.682 403.129 260.53 405.079 261.557 407.902C262.121 409.493 263.404 410.828 264.482 412.213C265.457 413.445 266.535 414.626 267.664 415.806C269.05 417.295 269.871 419.091 269.769 421.041C269.512 425.353 271.616 429.1 272.746 433C273.413 435.259 274.799 435.515 277.519 435.31C280.188 435.105 281.42 432.692 283.781 432.333C286.09 431.974 288.657 432.59 290.71 431.255C293.584 429.459 297.382 429.408 299.948 426.995C300.513 426.431 301.642 426.379 302.515 426.123C304.619 425.455 306.723 424.891 308.776 424.121C310.265 423.556 312.01 422.992 312.574 421.401C313.396 419.091 315.243 418.373 317.502 417.859C319.965 417.295 322.378 416.525 325.047 415.755C325.97 414.112 326.689 411.957 329.358 411.803C329.82 411.752 330.487 411.341 330.641 410.982C331.77 408.569 333.926 407.44 336.954 406.876C335.671 403.385 337.211 401.332 339.931 399.177C342.189 397.432 344.396 394.968 344.14 391.683C343.062 390.503 341.779 389.425 340.906 388.142C339.726 386.294 338.135 385.678 335.979 385.473C331.206 385.011 329.307 383.214 328.28 378.8C327.972 377.466 327.716 376.183 327.408 374.643C324.431 376.439 322.583 378.749 320.787 381.11C319.298 383.112 317.502 384.087 314.833 383.933C313.242 383.83 311.599 384.241 310.008 384.395C308.622 384.549 307.391 383.984 306.877 382.804C306.518 382.034 306.415 381.161 306.261 380.34C305.953 378.698 305.645 377.055 305.235 374.694C303.9 376.234 303.079 377.158 301.899 378.544C300.923 376.901 299.948 375.823 299.64 374.54C299.024 372.025 297.587 370.075 295.586 368.484C293.533 366.893 292.352 364.788 290.915 362.787C289.375 360.58 288.759 358.424 291.12 355.96C293.173 355.96 295.534 355.96 297.793 355.96C300.102 359.348 302.309 362.53 304.465 365.712C307.288 366.533 309.803 367.663 312.215 369.356C315.705 371.769 319.965 373.36 324.379 370.486C324.944 370.126 325.714 369.921 326.432 369.767C327.818 369.356 328.999 369.716 329.717 370.947C330.692 372.59 331.565 374.284 332.489 375.926C337.57 376.593 342.497 377.004 347.322 377.979C350.658 378.646 353.84 378.544 357.125 378.236C361.437 377.876 365.799 377.568 370.162 377.261C371.24 377.209 372.318 377.312 373.755 377.415C375.449 379.519 377.194 381.623 379.503 384.395C381.043 384.549 382.993 385.627 384.585 387.474C385.303 388.347 386.74 388.706 387.818 389.271C388.537 389.63 389.717 389.271 390.076 390.708C389.204 391.272 388.229 391.888 387.048 392.607C388.588 394.095 389.974 395.481 391.36 396.764C391.873 397.226 392.437 397.688 393.105 397.996C393.875 398.355 394.901 398.971 395.62 398.766C397.159 398.304 398.648 397.534 399.982 396.713C401.163 395.994 401.265 394.763 401.163 393.479C401.112 392.658 401.214 391.734 402.549 391.683C402.805 392.864 403.062 394.044 403.267 395.225C404.242 400.306 404.499 405.49 406.141 410.417C407.784 415.139 408.656 420.169 411.685 424.378C413.378 426.687 414.456 429.254 415.277 431.871C416.201 434.694 417.279 437.414 419.589 439.57C420.461 440.391 421.026 441.572 421.539 442.65C422.412 444.703 423.233 446.858 423.9 448.963C424.567 450.964 425.337 452.915 427.082 454.301C428.468 455.43 430.367 455.327 431.342 453.839C433.036 451.221 436.167 449.733 437.348 446.653C437.656 445.832 438.836 445.267 439.606 444.6C439.144 441.315 439.093 438.236 440.581 435.31C440.992 434.489 440.992 433.206 440.632 432.333C439.452 429.459 440.324 426.482 440.016 423.608C439.965 422.941 440.632 421.914 441.248 421.452C442.993 420.272 444.892 419.348 446.74 418.321C447.356 417.962 448.331 417.603 448.434 417.141C448.999 414.626 451.462 413.805 453.053 412.213C455.158 410.058 457.673 408.313 459.264 405.695C460.136 404.258 461.214 403.077 463.267 402.513C465.782 401.794 467.373 399.741 467.63 397.021C467.681 396.354 467.938 395.687 468.092 395.173C472.095 392.966 472.095 392.761 474.251 393.018C478.819 393.531 482.463 392.196 484.927 388.604C487.75 388.347 488.776 389.989 489.187 391.94C490.162 396.61 493.036 399.639 497.553 401.486C498.015 401.692 498.374 402.154 498.733 402.461C498.579 403.539 498.477 404.515 498.323 405.9C500.94 405.9 501.813 407.645 502.531 409.442C503.301 411.341 503.763 413.24 503.25 415.498C502.429 418.988 504.841 420.631 508.382 419.348C509.204 419.04 510.025 418.527 510.795 418.065C512.283 417.141 513.72 416.166 515.158 415.242C517.621 416.935 518.545 419.296 519.264 421.863C520.034 424.686 521.009 427.509 522.24 430.177C524.14 434.386 525.577 438.595 524.294 443.214C524.088 444.035 524.191 444.908 524.14 445.729C524.088 447.064 524.037 448.449 523.934 449.784C523.832 450.964 523.729 452.145 523.626 453.325C527.476 455.84 529.529 459.587 532.249 462.821C532.814 463.488 533.122 464.361 533.327 465.182C533.84 467.183 534.148 469.236 534.713 471.238C535.021 472.367 535.585 473.445 536.15 474.472C536.817 475.652 537.638 476.833 538.511 477.91C541.282 481.247 544.67 483.71 549.084 484.839C550.213 485.147 551.342 484.07 550.932 482.992C550.521 481.863 550.213 480.528 549.392 479.707C547.596 477.859 547.082 475.652 547.39 473.445C548.006 469.134 545.44 466.619 542.36 464.309C540.513 462.923 538.46 461.846 536.458 460.614C535.072 459.741 533.43 458.869 533.43 457.175C533.481 453.993 531.12 452.042 529.272 450.195C527.117 448.09 526.911 446.14 527.527 443.625C528.554 439.775 529.529 435.926 530.555 432.077C530.607 431.82 531.017 431.615 531.582 431.101C532.198 431.409 533.224 431.666 533.481 432.23C534.199 433.822 535.277 434.54 537.125 434.899C539.845 435.413 542.309 436.747 543.489 439.313C544.619 441.726 546.98 442.65 549.084 443.933C550.47 444.754 551.907 445.421 553.087 445.986C553.857 448.039 552.215 450.143 554.473 451.837C556.68 450.759 558.425 449.014 560.068 447.269C561.3 445.935 562.634 445.113 564.43 444.497C569.82 442.598 573.258 437.671 572.489 432.846C571.975 429.613 570.846 426.482 569.768 423.351C568.844 420.631 567.099 418.219 564.584 416.833C560.273 414.523 557.655 410.879 554.627 407.491C552.933 405.592 552.985 403.385 553.96 401.692C555.808 398.458 557.501 394.865 561.915 393.736C562.942 393.479 563.917 392.915 564.944 392.453C566.535 392.915 568.075 393.377 569.563 393.787C570.025 394.865 570.333 395.892 570.846 396.764C571.308 397.534 572.129 397.996 573.156 397.329C573.31 396.354 573.464 395.379 573.618 394.557C578.134 392.094 583.934 392.094 586.962 387.269C589.323 388.552 591.428 387.012 593.737 386.704C596.714 386.294 599.486 385.678 600.923 382.701C601.128 382.29 601.796 382.085 602.206 381.777C607.493 377.774 611.188 372.949 611.188 366.174C612.985 365.148 614.165 363.659 614.73 361.76C614.986 360.939 615.038 359.912 615.602 359.348C617.861 357.192 617.501 354.626 617.245 352.06C617.604 351.906 618.015 351.752 618.374 351.598C617.963 351.444 617.604 351.29 617.193 351.136C617.553 350.212 617.861 349.442 617.039 348.364C616.013 346.927 614.165 347.645 612.677 346.824C614.165 345.387 615.397 344.258 616.731 342.975C615.705 341.692 614.832 340.665 614.011 339.639C613.96 339.69 613.96 339.69 613.908 339.741L614.011 339.639C614.576 339.074 615.14 338.51 615.756 337.894C615.14 337.124 614.781 336.354 614.217 336.097C611.599 334.814 610.11 332.504 609.135 330.195C607.749 326.91 605.491 324.754 602.206 323.266C601.744 323.06 601.488 322.496 601.077 322.034C601.128 320.853 600.872 319.57 601.385 318.492C602.155 316.799 603.284 315.208 604.465 313.719C606.518 311.153 609.751 310.332 612.471 309.254C612.882 307.406 612.42 306.482 610.778 306.277C609.34 306.123 607.595 306.431 606.518 305.815C603.746 304.224 602.104 305.302 600.512 307.303C600.204 307.714 599.794 308.073 599.383 308.433C598.511 309.1 596.817 309.151 596.406 308.279C595.38 306.02 593.121 305.199 591.274 303.967C590.555 303.454 589.837 302.838 589.272 302.171C587.886 300.528 588.707 298.373 590.914 297.911C591.787 297.705 592.66 297.603 593.378 297.449C594.251 295.652 594.559 293.599 595.79 292.675C597.792 291.187 598.767 289.237 599.999 287.338C601.026 285.798 602.463 285.387 604.259 286.311C605.132 286.773 605.748 287.646 606.466 288.313C605.85 289.699 605.08 290.776 604.926 291.906C604.772 293.035 605.286 294.215 605.44 295.396C605.542 296.371 605.44 297.295 605.44 298.835C606.569 297.808 607.287 297.244 607.852 296.628C612.471 291.752 615.346 291.187 621.967 294.061C621.967 295.447 621.864 296.987 622.018 298.475C622.121 299.81 621.402 301.144 622.377 302.479C623.66 304.275 625.354 303.197 626.894 303.403C628.947 303.659 631.257 305.712 631.411 307.406C631 308.073 630.589 308.792 630.128 309.562C632.232 311.769 633.053 314.232 632.54 317.209C632.232 318.903 632.386 320.699 634.901 321.726C636.851 320.597 639.058 319.622 641.727 319.519C643.831 319.416 645.833 317.004 645.371 315.002C644.653 311.82 643.421 308.741 642.394 305.61C638.802 302.222 636.902 297.449 632.232 294.883C630.179 293.753 630.076 291.752 631.616 290.007C632.437 289.083 633.515 288.415 634.336 287.492C636.441 285.028 638.391 282.564 636.697 279.074C635.927 277.534 636.595 275.943 637.672 274.711C639.674 272.299 641.881 270.041 644.191 267.526C645.115 268.039 645.987 268.552 646.86 269.117C648.656 270.297 650.401 269.99 651.941 268.86C652.916 268.142 653.891 267.218 654.507 266.243C655.534 264.652 656.406 262.907 657.176 261.161C659.127 256.901 661.026 252.59 662.925 248.279C663.335 247.355 663.438 246.277 663.643 245.302C664.413 241.042 664.772 236.679 666.056 232.573C667.493 228.056 666.672 223.899 664.772 220.049C662.822 216.149 662.001 212.248 661.95 208.091C661.95 205.524 662.155 202.855 659.999 200.802C660.102 198.955 658.203 197.723 658.1 196.08C657.946 193.822 656.612 192.693 654.815 191.718C653.84 191.204 652.711 190.896 651.941 190.178C649.683 188.022 647.219 187.868 644.396 189.049C643.934 190.434 644.293 192.231 642.548 193.052C642.086 193.257 641.573 193.36 641.06 193.463C640.495 192.693 640.033 192.026 639.571 191.41C638.442 191.564 637.416 191.718 636.646 191.872C635.568 189.87 634.695 188.227 633.823 186.585C632.95 186.688 632.437 186.79 631.924 186.842C631.205 186.944 630.487 187.15 629.768 187.098C627.972 187.047 626.997 185.866 627.612 184.327C628.023 183.351 628.485 182.428 629.05 181.504C631.103 178.014 633.104 174.523 633.207 170.366C633.207 169.545 633.515 168.57 634.028 167.902C637.57 162.975 636.492 156.816 639.058 151.683C639.212 151.375 639.11 151.016 639.11 150.657C639.212 146.448 639.571 145.884 643.267 144.549C644.807 143.985 646.346 143.369 647.886 142.958C649.272 142.65 650.863 142.188 652.146 142.547C654.456 143.266 654.148 139.981 656.15 140.597C656.304 140.648 656.509 140.546 656.714 140.546C659.024 140.289 661.334 139.981 663.489 139.724C665.44 135.054 665.44 135.054 670.264 135.464C671.547 135.567 672.831 135.464 674.062 135.721C675.038 135.926 675.962 136.491 676.834 136.902C676.167 139.673 676.167 139.673 677.861 140.751C681.145 139.93 682.89 136.44 686.637 136.286C687.356 136.234 688.023 134.951 689.101 133.822C687.304 133.206 686.021 132.744 684.841 132.334C683.866 130.588 683.301 128.895 683.968 127.201C685.508 123.198 685.816 119.194 685.251 114.985C684.943 112.881 686.073 111.393 688.228 110.571C691.513 109.288 694.798 108.313 698.545 108.467C698.904 110.366 699.212 112.163 699.571 114.164C701.214 114.883 702.805 115.601 704.704 116.423C706.192 112.368 705.525 108.159 708.194 105.182C707.065 102.308 704.961 100.101 705.474 96.7134C706.398 96.3541 707.476 95.6869 708.605 95.4816C709.323 95.3789 710.196 95.9949 711.582 96.4568C709.734 98.1505 709.785 99.7929 710.76 101.435C713.07 105.182 714.148 109.34 714.969 114.01C711.171 116.063 711.222 119.656 711.479 123.352C711.53 124.019 711.582 124.789 711.325 125.405C709.683 129.562 710.042 133.873 710.093 138.185C710.093 139.365 709.99 140.648 709.477 141.675C708.451 143.625 707.065 145.37 705.679 147.423C707.27 149.066 707.322 151.221 706.346 153.121C704.858 156.046 705.371 158.869 706.449 161.641C707.784 165.028 709.118 168.467 710.76 171.7C712.351 174.78 714.302 177.757 716.252 180.683C718.1 183.454 719.742 186.482 722.103 188.792C724.105 190.742 725.132 193.001 726.312 195.31C726.723 196.08 726.928 196.953 727.339 197.723C728.057 199.108 729.186 199.776 730.931 199.365C733.6 196.132 734.268 192.693 732.574 188.741C732.061 187.56 732.215 186.072 732.061 184.943C733.395 183.813 734.422 182.941 735.551 181.966C734.884 180.734 734.216 179.707 733.754 178.578C732.933 176.576 733.344 174.523 733.857 172.47C734.319 170.623 736.064 170.315 737.501 169.647C738.117 169.391 738.528 168.775 738.887 168.364C738.63 166.209 736.885 165.285 735.807 163.95C733.652 161.333 732.882 158.458 733.96 155.276C735.14 155.071 736.167 154.866 737.142 154.66C737.86 151.94 734.832 151.119 734.781 149.117C733.754 148.963 733.036 148.912 732.369 148.809C730.931 145.986 730.931 145.986 731.034 143.882C731.034 143.728 731.085 143.523 731.137 143.369C731.291 142.034 730.829 141.008 729.546 140.34C727.955 139.519 727.39 141.11 726.158 141.47C723.54 139.93 723.079 137.415 723.027 134.797C722.976 131.358 723.027 127.868 721.128 124.737C720.872 124.327 720.769 123.762 720.769 123.249C720.666 121.966 720.872 120.58 722.36 120.323C724.824 119.861 725.645 117.962 726.877 116.371C727.133 116.012 727.749 115.961 728.057 115.807C729.392 116.269 729.032 118.373 731.137 117.962C731.342 117.398 731.547 116.73 731.804 116.115C732.112 115.293 732.317 114.472 732.779 113.754C734.781 110.571 738.22 109.853 741.658 111.649C743.147 112.47 744.276 114.113 746.483 113.805C746.535 113.24 746.688 112.727 746.688 112.265C746.791 107.081 747.715 102 749.255 97.124C750.435 93.4286 752.642 89.9384 754.952 86.6535C755.465 85.935 755.978 85.2677 756.543 84.6005C757.672 83.3174 759.058 82.7014 760.854 82.8041C762.292 82.8554 763.677 82.8041 765.012 82.8041C765.987 81.1103 766.295 79.4679 765.268 78.1335C763.523 75.9778 762.292 73.3601 759.212 72.4363C757.878 72.0257 756.646 71.2558 756.184 71.0505C755.157 69.4081 754.798 67.8169 753.925 67.5603C752.386 67.0984 751.256 66.6878 750.949 65.0454C750.897 64.6861 750.076 64.1215 749.768 64.1728C746.791 64.8401 745.046 62.8897 743.301 61.3499C742.018 61.7092 740.991 62.1198 739.965 62.2738C739.606 62.3251 739.092 61.7605 738.836 61.3499C738.682 61.1446 738.836 60.5287 738.99 60.4774C740.221 59.9641 741.094 59.1429 741.402 57.8597L741.351 57.8084C741.967 58.373 742.531 59.1429 743.301 59.5535C746.791 61.2986 749.973 59.4508 750.127 55.7554C750.179 54.7289 749.922 53.651 750.127 52.6758C750.948 48.6724 749.306 46.0035 745.559 44.3097C744.02 43.5911 742.89 42.5646 742.377 40.8196C742.839 39.9983 743.25 39.0745 743.814 38.202C743.968 37.9453 744.379 37.894 745.097 37.586C745.867 40.409 747.869 41.7948 751.41 41.9487C752.283 39.6904 752.899 36.8675 756.748 36.8675C758.185 37.9966 759.879 39.2798 761.932 40.8709C764.088 38.8692 766.757 39.1771 769.528 39.3311C770.452 39.3824 771.479 38.6639 772.351 38.3046C772.454 37.9453 772.454 36.6108 771.068 36.0976Z" fill="#678FC0" fill-opacity="0.8"/>
<path fill-rule="evenodd" clip-rule="evenodd" d="M562.582 504.909C561.556 503.267 560.683 501.881 559.965 500.649C557.757 500.239 557.706 501.625 557.296 502.702C556.115 502.856 554.832 502.6 554.575 501.471C553.857 498.699 551.701 497.364 549.032 496.389C549.238 494.952 549.443 493.823 549.597 492.643C549.853 490.795 547.184 491.205 546.979 489.717C546.979 489.563 546.928 489.358 546.928 489.204C546.569 486.894 544.618 488.331 543.489 487.921C542.257 486.637 541.231 485.098 539.794 484.122C536.149 481.659 532.351 479.349 529.118 476.372C528.091 475.448 526.654 474.884 525.474 474.063C524.498 473.395 515.824 468.519 514.746 468.211C514.233 468.057 513.771 467.698 513.207 467.647C512.693 467.595 511.924 467.647 511.718 467.903C511.41 468.417 511.154 469.238 511.359 469.751C512.078 471.804 513.874 473.241 515.722 474.268C518.801 476.013 520.752 478.631 522.959 481.197C525.422 484.122 528.348 486.791 529.323 490.589C529.374 490.743 529.528 490.897 529.631 491C532.916 493.515 534.25 497.159 535.585 500.701C536.303 502.548 537.33 504.037 538.716 505.474C542.924 509.785 547.39 513.789 552.83 517.382C553.549 517.382 554.627 517.484 555.705 517.33C556.731 517.176 557.758 516.714 558.784 516.406C559.349 512.711 559.913 509.169 560.478 505.628C561.145 505.474 561.761 505.217 562.582 504.909Z" fill="#678FC0" fill-opacity="0.8"/>
<path fill-rule="evenodd" clip-rule="evenodd" d="M596.096 530.568C597.482 529.644 598.816 530.106 600.254 530.363C600.972 530.517 601.639 530.055 601.229 528.771C597.893 528.771 595.224 526.308 591.682 526.257C591.169 526.257 590.707 525.127 590.194 524.46C588.089 523.485 586.036 522.407 583.881 521.535C582.7 521.073 581.571 521.227 580.339 522.048C577.465 523.896 574.077 523.536 571.665 521.74C568.842 519.584 565.814 519.225 562.529 519.071C560.322 518.968 559.09 519.789 559.039 522.304C560.476 523.28 561.862 524.819 563.658 525.333C569.51 527.078 575.72 526.975 581.674 528.771C585.882 530.055 590.707 528.874 595.018 530.619C595.326 530.773 595.84 530.722 596.096 530.568Z" fill="#678FC0" fill-opacity="0.8"/>
<path fill-rule="evenodd" clip-rule="evenodd" d="M578.443 500.594C578.597 502.237 579.367 503.828 579.829 505.47C581.42 505.624 582.651 505.778 583.883 505.932C584.602 506.035 585.577 505.984 585.936 506.394C587.373 508.191 589.067 507.883 590.812 507.215C592.095 506.753 593.225 507.113 594.508 507.318C596.817 507.677 598.152 509.371 599.743 510.5C601.745 509.833 603.49 509.32 604.824 508.858C605.543 506.753 606.518 505.008 606.621 503.212C606.775 501.005 607.596 499.311 608.982 497.617C609.854 496.54 610.419 495.256 610.983 493.973C612.882 489.765 612.831 489.765 617.091 488.173C616.167 487.25 615.346 486.428 614.525 485.556C614.063 485.043 613.293 484.324 613.396 483.913C614.063 481.963 612.677 480.68 611.907 479.14C610.983 477.395 611.702 475.701 612.677 474.264C613.293 473.34 615.346 473.751 615.192 472.006C615.038 470.158 617.81 470.877 617.861 469.234C617.656 468.978 617.502 468.567 617.245 468.464C614.884 467.233 612.472 466.257 611.24 463.588C610.47 461.895 607.955 461.997 606.621 463.486C606.159 463.999 605.697 464.615 605.491 465.231C604.722 467.797 602.36 469.337 600.256 470.158C597.433 471.236 595.893 473.084 594.251 475.137C592.506 477.344 590.864 479.551 587.63 480.218C586.039 480.526 584.961 481.912 584.191 483.4C583.729 484.273 583.165 485.145 582.497 486.12C580.239 485.607 578.135 485.145 576.236 484.735C574.337 485.864 573.464 487.455 573.567 489.2C573.721 492.28 574.439 495.41 576.646 497.771C577.775 498.644 578.34 499.311 578.443 500.594Z" fill="#678FC0" fill-opacity="0.8"/>
<path fill-rule="evenodd" clip-rule="evenodd" d="M759.313 606.842C757.055 604.43 755.464 601.966 755.977 598.682C754.181 597.655 752.641 596.834 751.614 596.218C750.28 592.676 749.613 589.34 747.867 586.62C746.636 584.721 743.967 583.643 741.914 582.155C741.606 581.949 741.298 581.795 740.938 581.641C739.039 580.82 738.372 579.332 738.218 577.484C738.013 574.25 738.013 570.966 735.909 568.091C735.447 567.475 735.652 566.398 735.601 565.576C735.498 564.191 735.498 562.805 735.395 561.419C735.139 558.853 733.907 557.724 730.981 557.108C730.468 557.005 730.006 556.8 729.749 556.748C728.312 552.078 726.978 547.664 725.541 543.25C725.387 542.788 724.668 542.428 723.898 541.812C723.077 543.609 722.256 544.995 721.845 546.432C720.87 549.922 719.587 553.412 719.433 556.954C719.228 561.932 717.534 566.398 715.686 570.863C714.454 573.84 710.81 574.61 708.501 572.3C705.575 569.374 701.777 567.681 698.338 565.525C695.669 563.883 693.513 561.984 691.563 559.52C693.359 556.594 692.898 552.796 696.593 550.846C697.466 550.384 697.722 548.793 698.389 547.51C697.414 547.15 696.542 546.534 696.234 546.74C695.002 547.51 693.77 547.099 692.538 547.048C688.791 546.894 685.507 545.405 682.068 544.43C681.298 544.225 680.374 544.225 679.553 544.122C679.142 546.021 677.91 547.048 675.857 547.099C673.804 547.15 671.649 547.099 670.263 548.588C667.286 551.77 663.129 554.439 663.847 559.777C661.435 559.623 659.279 559.469 657.175 559.315C657.175 559.366 657.226 559.366 657.226 559.417L657.123 559.315C655.789 557.775 655.122 555.67 652.915 554.952C648.449 556.235 648.449 556.235 640.802 562.651C640.494 563.985 640.186 565.268 639.929 566.398C638.595 566.603 637.568 566.757 636.798 566.86C636.285 568.348 637.722 570.042 635.515 570.606C634.489 569.58 633.565 568.656 632.846 567.989C629.869 569.015 628.689 570.658 628.843 573.275C628.894 574.148 628.176 575.174 627.611 575.996C626.944 577.022 626.071 577.895 625.404 578.921C623.915 581.077 621.862 582.206 619.142 582.617C616.114 583.13 613.137 583.9 610.16 584.67C608.62 585.08 607.132 586.209 605.592 586.261C602.256 586.312 599.792 588.006 596.969 589.135C594.147 590.264 592.196 592.676 589.168 593.446C588.706 593.549 588.244 594.575 588.244 595.191C588.244 597.655 587.474 599.862 586.396 602.12C585.37 604.173 585.78 606.534 586.499 608.69C586.807 609.665 587.372 610.589 587.628 611.616C588.039 613.155 587.115 613.823 585.678 614.131C585.678 614.079 585.678 614.079 585.678 614.028C585.575 614.849 585.216 615.722 585.37 616.543C586.55 624.037 588.603 631.376 588.603 639.024C588.603 639.691 589.014 640.358 589.065 641.025C589.219 644.875 588.655 648.57 585.729 651.599C583.522 653.908 583.573 654.421 585.832 656.731C586.345 657.244 586.756 657.809 587.32 658.271C590.04 660.529 593.274 660.888 596.559 659.862C598.766 659.195 601.076 658.322 602.923 656.936C606.619 654.216 610.571 654.113 614.882 654.729C616.525 654.935 618.167 655.14 619.809 654.935C620.99 654.781 622.53 654.319 623.146 653.498C625.045 650.931 627.56 649.545 630.639 648.724C631.46 648.468 632.179 647.749 633 647.39C633.975 646.979 635.105 646.415 636.08 646.569C640.083 647.184 643.676 646.004 647.269 644.567C651.324 642.976 655.584 643.746 659.741 643.848C660.1 643.848 660.562 644.002 660.716 644.208C662.307 646.158 664.771 646.312 666.978 647.03C669.442 647.852 671.854 648.776 671.649 651.906C671.649 652.214 671.854 652.574 672.11 652.83C674.42 655.191 674.472 658.117 674.523 661.094C674.523 661.658 674.933 662.223 675.293 663.249C677.448 661.248 678.988 659.143 681.092 658.014C683.453 656.782 684.275 653.908 687.662 653.087C687.252 654.524 687.149 655.551 686.738 656.423C686.225 657.501 685.353 658.425 684.737 659.503C684.223 660.427 683.813 661.402 683.608 662.428C683.351 663.506 681.657 663.968 682.068 665.251C685.455 666.021 684.993 662.531 686.841 661.761C688.945 663.865 686.995 666.072 687.2 668.177C688.022 668.228 688.689 668.279 689.459 668.331C690.434 671.256 691.255 674.079 690.485 677.364C689.715 680.803 691.614 684.036 695.104 685.422C698.338 686.705 701.161 688.45 704.189 690.555C706.037 689.323 707.885 688.194 709.578 686.962C710.246 686.449 710.605 685.474 711.785 685.987C713.684 687.629 712.709 690.863 715.378 692.043C717.791 691.735 719.587 690.555 721.229 689.169C723.642 687.065 726.465 686.192 729.698 686.038C733.856 685.884 734.369 685.217 735.601 681.368C736.73 677.929 737.243 674.182 739.809 671.359C742.581 668.279 744.429 664.738 746.379 661.196C747.765 658.733 749.459 656.526 751.768 654.781C754.95 652.317 756.798 649.032 758.184 645.491C759.621 641.59 760.802 637.587 762.598 633.84C763.727 631.479 764.189 629.272 763.573 626.859C763.06 624.755 763.06 622.805 763.624 620.752C765.01 615.311 762.906 610.743 759.313 606.842Z" fill="#678FC0" fill-opacity="0.8"/>
<path fill-rule="evenodd" clip-rule="evenodd" d="M702.908 499.673C700.752 502.29 696.954 503.06 695.158 506.088C694.85 506.602 694.029 506.858 693.207 507.371C691.514 505.934 689.922 504.549 688.383 503.214C688.383 501.828 688.485 500.596 688.331 499.416C688.177 498.287 687.767 497.158 687.51 496.182C679.657 493.565 678.579 493.719 675.141 498.03C675.962 498.646 677.091 499.159 677.553 499.98C678.682 501.982 680.376 502.547 682.583 502.393C683.301 502.342 684.02 502.239 684.79 502.188C685.611 502.136 686.278 502.341 686.022 503.368C684.02 503.933 681.967 504.548 679.914 505.113C680.838 506.909 681.659 508.552 682.686 510.502C683.969 509.63 684.944 508.963 686.176 508.09C688.229 509.27 690.333 510.708 692.643 511.631C695.158 512.658 697.929 513.069 700.547 513.89C701.727 514.249 702.908 514.916 703.934 515.584C704.653 516.045 705.423 516.661 705.834 517.38C706.911 519.536 707.835 521.743 708.862 524.052C707.681 524.874 706.603 525.489 705.731 526.311C705.115 526.875 704.55 527.696 705.474 528.928C706.706 528.826 708.092 528.723 709.529 528.518C712.044 528.158 714.251 528.364 715.791 530.673C716.509 531.751 717.484 532.47 718.87 532.624C721.231 532.932 723.541 533.342 725.902 533.496C726.723 533.548 727.955 533.137 728.314 532.572C728.776 531.854 728.571 530.725 728.674 529.801C729.597 528.98 730.47 528.107 731.445 527.337C733.139 526.003 735.038 525.541 737.04 526.567C739.606 527.85 742.429 528.672 743.815 531.495C744.379 532.726 745.765 533.548 746.586 534.728C748.075 536.781 750.128 537.602 752.694 537.705C755.106 537.808 757.416 538.116 759.572 539.245C759.88 539.399 760.393 539.142 761.471 538.988C758.494 536.319 755.414 534.317 753.567 531.597C751.668 528.672 747.869 527.132 747.048 523.282C747.664 522.872 748.28 522.513 748.742 522.051C749.922 520.921 749.768 519.844 748.28 519.228C746.124 518.304 743.917 517.431 741.915 516.61C740.119 512.761 740.17 512.709 736.783 510.656C735.705 509.989 734.576 509.424 733.395 509.014C727.801 506.961 722.155 504.908 716.509 502.957C713.07 501.777 709.58 500.802 706.09 499.673C704.91 499.262 703.575 498.851 702.908 499.673Z" fill="#678FC0" fill-opacity="0.8"/>
<path fill-rule="evenodd" clip-rule="evenodd" d="M660.563 317.93C656.765 321.163 654.763 325.731 651.478 329.324C651.016 329.786 651.068 331.121 651.427 331.634C651.683 332.044 652.967 331.788 654.096 331.89C654.096 333.122 654.25 334.303 654.044 335.432C653.736 337.28 654.558 338.819 655.379 340.359C655.841 341.18 657.586 341.54 658.253 340.872C659.126 340.051 660.152 339.281 660.152 337.896C660.152 336.356 659.998 334.765 660.358 333.276C660.973 330.761 659.896 328.965 658.15 327.374C657.637 326.912 656.919 326.655 657.483 325.577C660.101 325.475 661.743 322.652 664.669 322.806C667.697 322.96 669.493 319.624 672.624 320.239C673.035 321.882 673.24 323.422 673.805 324.859C674.267 326.039 675.242 326.86 676.782 326.553C679.553 322.857 679.759 322.446 680.323 319.47C681.76 319.521 683.249 319.88 684.635 319.624C685.764 319.418 686.893 317.776 687.663 317.981C690.075 318.546 689.357 316.082 690.64 315.671C691.102 315.517 691.564 315.261 691.82 315.158C692.539 315.825 693.206 316.852 693.771 316.801C694.438 316.749 695.31 315.928 695.67 315.261C696.234 314.183 696.286 313.003 695.772 311.771C695.208 310.334 694.643 308.794 694.746 307.305C694.9 304.277 694.387 301.506 692.744 298.272C696.029 295.346 695.413 291.805 694.694 288.52C693.925 285.133 691.82 282.258 688.946 280C687.612 280.154 686.38 280.308 685.302 280.411C683.454 282.464 684.327 284.722 685.097 286.416C688.022 292.677 685.558 298.221 683.146 303.764C682.428 305.406 680.631 306.433 678.783 306.484C677.86 306.484 676.936 305.406 675.858 304.688C676.166 308.281 674.369 311.309 673.6 314.44C671.598 314.645 669.955 314.696 668.364 314.953C666.722 315.21 665.08 315.466 663.591 316.031C662.565 316.441 661.435 317.16 660.563 317.93Z" fill="#678FC0" fill-opacity="0.8"/>
<path fill-rule="evenodd" clip-rule="evenodd" d="M689.357 255.411C688.535 254.743 687.765 253.974 686.996 253.255C685.815 252.177 684.532 251.253 683.043 250.945C681.812 251.561 681.863 252.434 682.376 253.204C683.865 255.513 684.07 258.08 684.121 260.646C684.121 261.98 684.275 263.315 684.327 264.649L681.555 266.497C679.759 269.217 679.399 271.784 682.068 274.247C682.633 274.812 682.838 275.736 683.403 276.814C684.686 275.787 685.661 274.914 686.739 274.042C685.302 272.861 684.121 271.938 682.889 270.911C683.557 270.552 683.865 270.346 684.173 270.193C686.944 268.601 689.562 268.396 692.128 270.654C692.795 271.219 694.079 271.219 695.156 271.476C695.464 270.757 695.772 270.295 695.824 269.782C696.132 267.267 697.466 265.727 700.186 265.163C701.11 264.957 701.931 264.085 703.061 263.366C701.88 261.775 700.905 260.389 699.93 259.055C694.335 258.695 692.693 258.182 689.357 255.411Z" fill="#678FC0" fill-opacity="0.8"/>
<path d="M87.241 245.5C64.9076 241.833 43.2406 258 35.2405 268C8.90411 300.92 29.7405 330.5 42.2406 333C48.8098 334.314 64.8964 330.418 78.7408 324.5C97.0778 316.661 103.973 311.006 110.24 313C121.24 316.5 130.742 338.291 155.742 338.291C178.742 338.291 186.148 326.961 207.778 338.291C218.278 343.791 265.74 430.038 273.24 436C280.74 441.961 303.74 430.5 310.74 430.5C317.74 430.5 361.74 412 412.24 423.5" stroke="#F9F9F9" stroke-dasharray="4 4"/>
<path d="M120.276 320.259L111.666 318.147L116.662 312.164L120.276 320.259Z" fill="#F9F9F9"/>
<path d="M237.718 380.529L230.511 375.367L237.372 371.671L237.718 380.529Z" fill="#F9F9F9"/>
<path d="M315.169 430.487L307.525 434.976L306.934 427.205L315.169 430.487Z" fill="#F9F9F9"/>
<circle cx="88.2422" cy="245" r="6" fill="white"/>
<circle cx="88.2422" cy="245" r="3" fill="#95C6FF"/>
<circle cx="412.242" cy="422" r="6" fill="white"/>
<circle cx="412.242" cy="422" r="3" fill="#95C6FF"/>
<path d="M101.677 252V237.455H107.131C108.249 237.455 109.186 237.649 109.944 238.037C110.706 238.425 111.281 238.97 111.67 239.67C112.063 240.366 112.259 241.179 112.259 242.107C112.259 243.039 112.06 243.849 111.663 244.536C111.27 245.217 110.69 245.745 109.923 246.119C109.156 246.489 108.213 246.673 107.096 246.673H103.211V244.486H106.741C107.394 244.486 107.929 244.396 108.346 244.216C108.763 244.031 109.07 243.764 109.269 243.413C109.473 243.058 109.575 242.623 109.575 242.107C109.575 241.59 109.473 241.15 109.269 240.786C109.066 240.416 108.755 240.137 108.339 239.947C107.922 239.753 107.385 239.656 106.727 239.656H104.312V252H101.677ZM109.191 245.409L112.792 252H109.852L106.315 245.409H109.191ZM119.173 252.213C118.108 252.213 117.185 251.979 116.403 251.51C115.622 251.041 115.016 250.385 114.585 249.543C114.159 248.7 113.946 247.715 113.946 246.588C113.946 245.461 114.159 244.474 114.585 243.626C115.016 242.779 115.622 242.121 116.403 241.652C117.185 241.183 118.108 240.949 119.173 240.949C120.239 240.949 121.162 241.183 121.943 241.652C122.724 242.121 123.328 242.779 123.754 243.626C124.185 244.474 124.401 245.461 124.401 246.588C124.401 247.715 124.185 248.7 123.754 249.543C123.328 250.385 122.724 251.041 121.943 251.51C121.162 251.979 120.239 252.213 119.173 252.213ZM119.188 250.153C119.765 250.153 120.248 249.995 120.636 249.678C121.025 249.356 121.313 248.925 121.503 248.385C121.697 247.845 121.794 247.244 121.794 246.581C121.794 245.913 121.697 245.31 121.503 244.77C121.313 244.225 121.025 243.792 120.636 243.47C120.248 243.148 119.765 242.987 119.188 242.987C118.596 242.987 118.103 243.148 117.71 243.47C117.322 243.792 117.031 244.225 116.837 244.77C116.647 245.31 116.553 245.913 116.553 246.581C116.553 247.244 116.647 247.845 116.837 248.385C117.031 248.925 117.322 249.356 117.71 249.678C118.103 249.995 118.596 250.153 119.188 250.153ZM132.03 241.091V243.08H125.759V241.091H132.03ZM127.307 238.477H129.878V248.719C129.878 249.064 129.93 249.33 130.034 249.514C130.143 249.694 130.285 249.817 130.461 249.884C130.636 249.95 130.83 249.983 131.043 249.983C131.204 249.983 131.351 249.971 131.483 249.947C131.621 249.924 131.725 249.902 131.796 249.884L132.229 251.893C132.092 251.941 131.895 251.993 131.64 252.05C131.389 252.107 131.081 252.14 130.716 252.149C130.072 252.168 129.492 252.071 128.976 251.858C128.46 251.64 128.051 251.304 127.748 250.849C127.449 250.395 127.302 249.827 127.307 249.145V238.477ZM139.628 241.091V243.08H133.357V241.091H139.628ZM134.905 238.477H137.476V248.719C137.476 249.064 137.528 249.33 137.632 249.514C137.741 249.694 137.883 249.817 138.058 249.884C138.233 249.95 138.428 249.983 138.641 249.983C138.802 249.983 138.948 249.971 139.081 249.947C139.218 249.924 139.322 249.902 139.393 249.884L139.827 251.893C139.689 251.941 139.493 251.993 139.237 252.05C138.986 252.107 138.679 252.14 138.314 252.149C137.67 252.168 137.09 252.071 136.574 251.858C136.058 251.64 135.648 251.304 135.345 250.849C135.047 250.395 134.9 249.827 134.905 249.145V238.477ZM146.49 252.213C145.397 252.213 144.452 251.986 143.657 251.531C142.866 251.072 142.257 250.423 141.831 249.585C141.405 248.742 141.192 247.75 141.192 246.609C141.192 245.487 141.405 244.502 141.831 243.655C142.262 242.803 142.864 242.14 143.635 241.666C144.407 241.188 145.314 240.949 146.355 240.949C147.028 240.949 147.662 241.058 148.259 241.276C148.86 241.489 149.391 241.82 149.85 242.27C150.314 242.72 150.678 243.293 150.944 243.989C151.209 244.68 151.341 245.504 151.341 246.46V247.249H142.4V245.516H148.877C148.872 245.023 148.766 244.585 148.557 244.202C148.349 243.813 148.058 243.508 147.684 243.286C147.314 243.063 146.883 242.952 146.391 242.952C145.865 242.952 145.404 243.08 145.006 243.335C144.608 243.586 144.298 243.918 144.076 244.33C143.858 244.737 143.747 245.184 143.742 245.672V247.185C143.742 247.819 143.858 248.364 144.09 248.818C144.322 249.268 144.646 249.614 145.063 249.855C145.48 250.092 145.967 250.21 146.526 250.21C146.9 250.21 147.239 250.158 147.542 250.054C147.845 249.945 148.107 249.786 148.33 249.578C148.552 249.37 148.721 249.112 148.834 248.804L151.235 249.074C151.083 249.708 150.794 250.262 150.368 250.736C149.947 251.205 149.407 251.569 148.749 251.83C148.091 252.085 147.338 252.213 146.49 252.213ZM153.516 252V241.091H156.009V242.909H156.123C156.322 242.279 156.663 241.794 157.146 241.453C157.633 241.107 158.19 240.935 158.815 240.935C158.957 240.935 159.115 240.942 159.29 240.956C159.47 240.965 159.62 240.982 159.738 241.006V243.371C159.629 243.333 159.456 243.3 159.219 243.271C158.987 243.238 158.763 243.222 158.545 243.222C158.076 243.222 157.655 243.323 157.281 243.527C156.911 243.726 156.62 244.003 156.407 244.358C156.194 244.713 156.087 245.123 156.087 245.587V252H153.516ZM165.045 252.192C164.188 252.192 163.421 251.972 162.744 251.531C162.067 251.091 161.532 250.452 161.139 249.614C160.746 248.776 160.549 247.758 160.549 246.56C160.549 245.348 160.748 244.325 161.146 243.491C161.548 242.653 162.091 242.021 162.772 241.595C163.454 241.164 164.214 240.949 165.052 240.949C165.691 240.949 166.217 241.058 166.629 241.276C167.041 241.489 167.368 241.747 167.609 242.05C167.85 242.348 168.038 242.63 168.17 242.895H168.277V237.455H170.855V252H168.326V250.281H168.17C168.038 250.546 167.846 250.828 167.595 251.126C167.344 251.42 167.012 251.671 166.6 251.879C166.189 252.088 165.67 252.192 165.045 252.192ZM165.762 250.082C166.307 250.082 166.771 249.936 167.154 249.642C167.538 249.344 167.829 248.929 168.028 248.399C168.227 247.869 168.326 247.251 168.326 246.545C168.326 245.84 168.227 245.227 168.028 244.706C167.834 244.185 167.545 243.78 167.162 243.491C166.783 243.203 166.316 243.058 165.762 243.058C165.19 243.058 164.711 243.207 164.328 243.506C163.944 243.804 163.655 244.216 163.461 244.741C163.267 245.267 163.17 245.868 163.17 246.545C163.17 247.227 163.267 247.836 163.461 248.371C163.66 248.901 163.951 249.32 164.335 249.628C164.723 249.931 165.199 250.082 165.762 250.082ZM176.734 252.22C176.042 252.22 175.42 252.097 174.866 251.851C174.317 251.6 173.881 251.231 173.559 250.743C173.242 250.255 173.083 249.654 173.083 248.939C173.083 248.323 173.197 247.814 173.424 247.412C173.651 247.009 173.961 246.688 174.354 246.446C174.747 246.205 175.19 246.022 175.683 245.899C176.18 245.771 176.693 245.679 177.224 245.622C177.863 245.556 178.381 245.497 178.779 245.445C179.177 245.388 179.466 245.303 179.646 245.189C179.83 245.071 179.923 244.888 179.923 244.642V244.599C179.923 244.064 179.764 243.65 179.447 243.357C179.129 243.063 178.673 242.916 178.076 242.916C177.446 242.916 176.947 243.054 176.577 243.328C176.213 243.603 175.967 243.927 175.839 244.301L173.438 243.96C173.628 243.297 173.94 242.743 174.376 242.298C174.811 241.848 175.344 241.512 175.974 241.29C176.603 241.062 177.299 240.949 178.062 240.949C178.587 240.949 179.111 241.01 179.631 241.134C180.152 241.257 180.628 241.46 181.059 241.744C181.49 242.024 181.835 242.405 182.096 242.888C182.361 243.371 182.494 243.974 182.494 244.699V252H180.022V250.501H179.937C179.781 250.804 179.56 251.089 179.276 251.354C178.997 251.614 178.644 251.825 178.218 251.986C177.797 252.142 177.302 252.22 176.734 252.22ZM177.401 250.331C177.917 250.331 178.365 250.229 178.744 250.026C179.122 249.817 179.414 249.543 179.617 249.202C179.826 248.861 179.93 248.489 179.93 248.087V246.801C179.849 246.867 179.712 246.929 179.518 246.986C179.328 247.043 179.115 247.092 178.879 247.135C178.642 247.178 178.407 247.215 178.175 247.249C177.943 247.282 177.742 247.31 177.572 247.334C177.188 247.386 176.845 247.471 176.542 247.589C176.239 247.708 176 247.874 175.825 248.087C175.649 248.295 175.562 248.565 175.562 248.896C175.562 249.37 175.735 249.727 176.08 249.969C176.426 250.21 176.866 250.331 177.401 250.331ZM185.079 252V241.091H187.536V242.945H187.664C187.891 242.32 188.268 241.832 188.793 241.482C189.319 241.126 189.946 240.949 190.675 240.949C191.414 240.949 192.037 241.129 192.543 241.489C193.055 241.844 193.415 242.329 193.623 242.945H193.737C193.978 242.339 194.385 241.856 194.958 241.496C195.536 241.131 196.22 240.949 197.011 240.949C198.014 240.949 198.834 241.266 199.468 241.901C200.103 242.535 200.42 243.461 200.42 244.678V252H197.842V245.075C197.842 244.398 197.662 243.903 197.302 243.591C196.942 243.274 196.502 243.115 195.981 243.115C195.361 243.115 194.875 243.309 194.525 243.697C194.179 244.081 194.006 244.58 194.006 245.196V252H191.485V244.969C191.485 244.405 191.315 243.955 190.974 243.619C190.638 243.283 190.197 243.115 189.653 243.115C189.283 243.115 188.947 243.21 188.644 243.399C188.341 243.584 188.1 243.847 187.92 244.188C187.74 244.524 187.65 244.917 187.65 245.366V252H185.079Z" fill="#EAEEF0"/>
<path d="M426.677 410.455H429.901L434.219 420.994H434.39L438.708 410.455H441.933V425H439.404V415.007H439.269L435.249 424.957H433.36L429.34 414.986H429.205V425H426.677V410.455ZM449.447 425.213C448.381 425.213 447.458 424.979 446.677 424.51C445.896 424.041 445.29 423.385 444.859 422.543C444.433 421.7 444.219 420.715 444.219 419.588C444.219 418.461 444.433 417.474 444.859 416.626C445.29 415.779 445.896 415.121 446.677 414.652C447.458 414.183 448.381 413.949 449.447 413.949C450.512 413.949 451.435 414.183 452.217 414.652C452.998 415.121 453.602 415.779 454.028 416.626C454.459 417.474 454.674 418.461 454.674 419.588C454.674 420.715 454.459 421.7 454.028 422.543C453.602 423.385 452.998 424.041 452.217 424.51C451.435 424.979 450.512 425.213 449.447 425.213ZM449.461 423.153C450.039 423.153 450.522 422.995 450.91 422.678C451.298 422.356 451.587 421.925 451.776 421.385C451.97 420.845 452.067 420.244 452.067 419.581C452.067 418.913 451.97 418.31 451.776 417.77C451.587 417.225 451.298 416.792 450.91 416.47C450.522 416.148 450.039 415.987 449.461 415.987C448.869 415.987 448.377 416.148 447.984 416.47C447.595 416.792 447.304 417.225 447.11 417.77C446.921 418.31 446.826 418.913 446.826 419.581C446.826 420.244 446.921 420.845 447.11 421.385C447.304 421.925 447.595 422.356 447.984 422.678C448.377 422.995 448.869 423.153 449.461 423.153ZM456.856 425V414.091H459.349V415.909H459.463C459.662 415.279 460.002 414.794 460.485 414.453C460.973 414.107 461.529 413.935 462.154 413.935C462.297 413.935 462.455 413.942 462.63 413.956C462.81 413.965 462.959 413.982 463.078 414.006V416.371C462.969 416.333 462.796 416.3 462.559 416.271C462.327 416.238 462.102 416.222 461.885 416.222C461.416 416.222 460.994 416.323 460.62 416.527C460.251 416.726 459.96 417.003 459.747 417.358C459.534 417.713 459.427 418.123 459.427 418.587V425H456.856ZM464.786 425V414.091H467.243V415.945H467.371C467.598 415.32 467.975 414.832 468.5 414.482C469.026 414.126 469.653 413.949 470.382 413.949C471.121 413.949 471.744 414.129 472.25 414.489C472.762 414.844 473.122 415.329 473.33 415.945H473.444C473.685 415.339 474.092 414.856 474.665 414.496C475.243 414.131 475.927 413.949 476.718 413.949C477.721 413.949 478.541 414.266 479.175 414.901C479.81 415.535 480.127 416.461 480.127 417.678V425H477.549V418.075C477.549 417.398 477.369 416.903 477.009 416.591C476.649 416.274 476.209 416.115 475.688 416.115C475.068 416.115 474.582 416.309 474.232 416.697C473.886 417.081 473.713 417.58 473.713 418.196V425H471.192V417.969C471.192 417.405 471.022 416.955 470.681 416.619C470.345 416.283 469.904 416.115 469.36 416.115C468.99 416.115 468.654 416.21 468.351 416.399C468.048 416.584 467.807 416.847 467.627 417.188C467.447 417.524 467.357 417.917 467.357 418.366V425H464.786ZM489.688 420.412V414.091H492.259V425H489.766V423.061H489.653C489.406 423.672 489.002 424.171 488.438 424.56C487.879 424.948 487.191 425.142 486.371 425.142C485.656 425.142 485.024 424.983 484.475 424.666C483.931 424.344 483.504 423.878 483.197 423.267C482.889 422.652 482.735 421.908 482.735 421.037V414.091H485.306V420.639C485.306 421.33 485.496 421.88 485.874 422.287C486.253 422.694 486.75 422.898 487.366 422.898C487.745 422.898 488.112 422.805 488.467 422.621C488.822 422.436 489.113 422.161 489.34 421.797C489.572 421.428 489.688 420.966 489.688 420.412ZM499.647 429.318C498.724 429.318 497.931 429.193 497.268 428.942C496.605 428.696 496.073 428.364 495.67 427.947C495.268 427.531 494.988 427.069 494.832 426.562L497.147 426.001C497.252 426.214 497.403 426.425 497.602 426.634C497.801 426.847 498.068 427.022 498.404 427.159C498.745 427.301 499.174 427.372 499.69 427.372C500.419 427.372 501.023 427.195 501.501 426.839C501.979 426.489 502.218 425.911 502.218 425.107V423.04H502.091C501.958 423.305 501.764 423.577 501.508 423.857C501.257 424.136 500.923 424.37 500.507 424.56C500.095 424.749 499.576 424.844 498.951 424.844C498.113 424.844 497.353 424.647 496.672 424.254C495.994 423.857 495.455 423.265 495.052 422.479C494.654 421.688 494.456 420.698 494.456 419.51C494.456 418.312 494.654 417.301 495.052 416.477C495.455 415.649 495.997 415.021 496.679 414.595C497.36 414.164 498.12 413.949 498.958 413.949C499.598 413.949 500.123 414.058 500.535 414.276C500.952 414.489 501.283 414.747 501.529 415.05C501.776 415.348 501.963 415.63 502.091 415.895H502.233V414.091H504.768V425.178C504.768 426.11 504.546 426.882 504.1 427.493C503.655 428.104 503.047 428.561 502.275 428.864C501.503 429.167 500.627 429.318 499.647 429.318ZM499.669 422.827C500.213 422.827 500.677 422.694 501.061 422.429C501.444 422.164 501.735 421.783 501.934 421.286C502.133 420.788 502.233 420.192 502.233 419.496C502.233 418.809 502.133 418.208 501.934 417.692C501.74 417.176 501.451 416.776 501.068 416.491C500.689 416.203 500.223 416.058 499.669 416.058C499.096 416.058 498.618 416.207 498.234 416.506C497.85 416.804 497.562 417.214 497.368 417.734C497.173 418.25 497.076 418.838 497.076 419.496C497.076 420.163 497.173 420.748 497.368 421.25C497.566 421.747 497.858 422.135 498.241 422.415C498.629 422.689 499.105 422.827 499.669 422.827ZM510.542 425.22C509.851 425.22 509.228 425.097 508.674 424.851C508.125 424.6 507.69 424.231 507.368 423.743C507.05 423.255 506.892 422.654 506.892 421.939C506.892 421.323 507.005 420.814 507.233 420.412C507.46 420.009 507.77 419.688 508.163 419.446C508.556 419.205 508.999 419.022 509.491 418.899C509.988 418.771 510.502 418.679 511.032 418.622C511.672 418.556 512.19 418.497 512.588 418.445C512.985 418.388 513.274 418.303 513.454 418.189C513.639 418.071 513.731 417.888 513.731 417.642V417.599C513.731 417.064 513.573 416.65 513.255 416.357C512.938 416.063 512.481 415.916 511.885 415.916C511.255 415.916 510.755 416.054 510.386 416.328C510.021 416.603 509.775 416.927 509.647 417.301L507.247 416.96C507.436 416.297 507.749 415.743 508.184 415.298C508.62 414.848 509.153 414.512 509.782 414.29C510.412 414.062 511.108 413.949 511.87 413.949C512.396 413.949 512.919 414.01 513.44 414.134C513.961 414.257 514.437 414.46 514.868 414.744C515.298 415.024 515.644 415.405 515.904 415.888C516.17 416.371 516.302 416.974 516.302 417.699V425H513.831V423.501H513.745C513.589 423.804 513.369 424.089 513.085 424.354C512.806 424.614 512.453 424.825 512.027 424.986C511.605 425.142 511.11 425.22 510.542 425.22ZM511.21 423.331C511.726 423.331 512.173 423.229 512.552 423.026C512.931 422.817 513.222 422.543 513.426 422.202C513.634 421.861 513.738 421.489 513.738 421.087V419.801C513.658 419.867 513.52 419.929 513.326 419.986C513.137 420.043 512.924 420.092 512.687 420.135C512.45 420.178 512.216 420.215 511.984 420.249C511.752 420.282 511.551 420.31 511.38 420.334C510.997 420.386 510.654 420.471 510.35 420.589C510.047 420.708 509.808 420.874 509.633 421.087C509.458 421.295 509.37 421.565 509.37 421.896C509.37 422.37 509.543 422.727 509.889 422.969C510.234 423.21 510.675 423.331 511.21 423.331ZM523.646 425.213C522.581 425.213 521.657 424.979 520.876 424.51C520.095 424.041 519.489 423.385 519.058 422.543C518.632 421.7 518.419 420.715 518.419 419.588C518.419 418.461 518.632 417.474 519.058 416.626C519.489 415.779 520.095 415.121 520.876 414.652C521.657 414.183 522.581 413.949 523.646 413.949C524.711 413.949 525.635 414.183 526.416 414.652C527.197 415.121 527.801 415.779 528.227 416.626C528.658 417.474 528.873 418.461 528.873 419.588C528.873 420.715 528.658 421.7 528.227 422.543C527.801 423.385 527.197 424.041 526.416 424.51C525.635 424.979 524.711 425.213 523.646 425.213ZM523.66 423.153C524.238 423.153 524.721 422.995 525.109 422.678C525.497 422.356 525.786 421.925 525.975 421.385C526.17 420.845 526.267 420.244 526.267 419.581C526.267 418.913 526.17 418.31 525.975 417.77C525.786 417.225 525.497 416.792 525.109 416.47C524.721 416.148 524.238 415.987 523.66 415.987C523.068 415.987 522.576 416.148 522.183 416.47C521.795 416.792 521.503 417.225 521.309 417.77C521.12 418.31 521.025 418.913 521.025 419.581C521.025 420.244 521.12 420.845 521.309 421.385C521.503 421.925 521.795 422.356 522.183 422.678C522.576 422.995 523.068 423.153 523.66 423.153Z" fill="#EAEEF0"/>
</svg>
