<svg width="784" height="693" viewBox="0 0 784 693" fill="none" xmlns="http://www.w3.org/2000/svg">
<path fill-rule="evenodd" clip-rule="evenodd" d="M781.826 36.0976C779.978 35.379 779.568 34.0445 779.516 32.3508C779.516 31.6836 779.311 31.0163 779.26 30.4004C777.771 28.8093 775.667 27.8341 775.256 25.7297C777.617 23.3688 777.617 23.3688 777.977 21.8803C778.131 21.2644 778.233 20.4945 778.028 19.9299C777.207 18.0309 776.232 16.2345 775.102 14.0788C771.972 13.1549 768.533 12.1797 765.145 11.1532C763.195 12.4364 761.244 13.6682 759.448 14.9513C759.089 15.2079 759.089 15.8752 758.986 16.2345C760.577 18.2362 762.066 20.0839 764.016 22.4962C762.271 22.5989 761.244 22.6502 760.423 22.6502C758.319 20.1866 756.522 17.7742 754.367 15.7212C753.289 14.6947 751.441 13.5655 750.158 13.7195C747.13 14.1301 744.564 12.693 741.689 12.7443C738.764 12.7443 735.889 12.385 733.015 11.8718C730.962 11.5125 728.601 12.385 726.548 11.9744C724.495 11.5638 722.75 10.1267 720.492 9.76742C716.334 9.20283 712.228 8.53561 707.968 8.43296C705.145 8.38163 702.579 8.79224 699.961 9.7161C697.754 10.486 695.445 10.9992 693.135 11.4099C691.185 11.7691 689.183 11.9231 686.925 12.2311C687.592 14.9513 688.208 17.1583 690.825 18.7494C692.776 19.9299 694.264 21.7777 695.804 23.4714C696.779 24.4979 696.574 25.6784 695.393 26.6536C694.623 27.2695 693.597 27.6288 692.416 28.296C690.723 25.8837 688.516 24.6519 685.59 24.2413C683.383 23.9334 682.665 22.2909 683.075 19.9813C683.178 19.468 683.434 19.0061 683.383 18.4928C683.28 17.107 681.946 16.1318 680.303 16.1318C678.969 16.1318 678.199 16.953 678.302 18.5955C678.404 20.1866 678.507 21.675 677.532 23.3175C672.297 25.1652 665.984 24.0873 661.056 27.8854C660.646 29.3739 660.235 30.965 659.825 32.3508C657.31 32.9667 657.002 29.9385 654.743 30.4004C652.998 30.7597 651.15 30.4517 649.149 30.4517C648.687 29.3226 648.225 28.45 647.917 27.4748C646.634 23.2148 643.041 21.1617 639.243 19.4167C637.241 18.4928 634.983 18.4415 632.827 19.2114C628.772 20.7512 624.615 22.137 621.074 24.7546C619.944 25.6271 618.661 26.3457 617.378 26.9616C616.403 27.4235 614.863 27.4748 614.453 26.397C613.426 23.5741 610.603 23.5741 608.601 22.4449C606.6 23.5228 606.6 23.1635 604.649 23.0608C602.288 22.9582 600.44 21.5724 598.182 21.4697C597.977 21.4697 597.823 20.9564 597.618 20.5972C598.08 19.7759 598.541 18.9034 599.106 17.8769C598.49 17.3123 598.08 16.6964 597.515 16.3885C593.717 14.5921 589.97 14.9513 586.737 17.3636C585.299 18.4415 584.016 18.9547 582.271 18.8008L582.374 18.9034C580.27 17.261 577.857 17.8769 575.547 17.9796C570.979 18.1849 566.463 18.4415 561.895 18.7494C561.689 18.7494 561.536 19.2114 561.33 19.4167C562.254 20.1352 563.178 20.8538 564.256 21.675C562.819 22.7529 561.69 23.5227 560.663 24.4466C559.893 25.1652 560.355 26.551 561.433 26.9616C562.049 27.1669 562.767 27.0642 563.537 27.1155C563.999 29.9385 566.309 31.4782 567.9 33.4286C567.643 33.8906 567.489 34.2499 567.284 34.5065C566.514 35.3277 565.693 34.8658 564.769 34.7631C564.153 34.6605 563.229 34.9171 562.921 35.3277C562.613 35.7383 562.767 36.6622 563.127 37.1241C563.589 37.7913 564.769 38.3559 563.64 39.1258C563.075 39.4851 561.895 39.3311 561.125 39.0745C560.355 38.7665 559.739 38.0993 559.123 37.586C553.221 36.4055 553.221 36.4055 550.449 40.5116C548.088 40.8709 545.573 41.3328 543.11 40.0497C542.648 39.793 541.878 40.0497 541.005 40.101C541.364 43.6938 544.187 46.3627 543.52 50.1095C542.494 50.1609 541.364 50.4688 540.441 50.1609C538.747 49.5963 537.002 48.8777 535.616 47.8512C533.306 46.0548 530.791 44.823 528.02 43.7965C526.891 43.3858 526.018 42.462 524.786 41.5381C526.121 40.9735 527.044 40.6143 527.866 40.255C527.763 37.2781 525.813 36.3542 523.093 36.1489C523.144 32.7101 520.783 30.8623 518.37 29.3739C516.163 27.9881 513.392 26.4996 510.672 27.5261C508.772 28.2447 507.335 28.2447 505.539 27.6802C502.716 26.8589 500.15 27.1669 498.148 30.0411C498.815 31.119 499.585 32.2995 500.201 33.48C500.56 34.1985 500.612 35.0197 500.868 35.7896C498.713 36.6108 496.916 37.432 495.017 38.048C493.837 38.4072 492.4 38.9205 491.322 38.6639C489.525 38.2019 487.832 38.3559 486.035 38.5099C483.418 38.7152 483.007 38.3046 481.929 35.4817C481.775 35.0197 481.416 34.6605 481.057 34.0445C477.618 34.6091 474.179 35.0711 470.843 35.7383C468.687 36.2002 466.685 37.1241 465.71 39.2285C465.608 39.3824 465.197 39.4338 464.94 39.4851C464.376 38.8179 463.811 38.1506 463.452 37.74C462.836 37.74 462.579 37.6887 462.477 37.74C460.321 39.4851 458.165 40.255 455.65 38.1506C454.316 37.0214 452.622 37.1754 450.98 37.5347C450.158 38.5612 449.543 39.6391 450.723 40.7682C451.698 40.6143 452.622 40.5116 453.803 40.3576C451.339 45.2336 448.927 47.5946 444.41 49.9556C442.665 50.8281 446.052 52.2139 443.897 53.0351C443.64 52.8298 443.178 52.6245 443.127 52.4192C442.665 49.1343 442.922 46.0035 445.334 43.2832C445.796 42.7699 446.155 42.1027 446.258 41.4868C446.668 37.0214 447.951 32.7614 449.645 28.604C450.415 26.705 450.826 24.6519 451.339 22.6502C451.75 21.0591 451.339 19.622 450.569 18.1335C449.85 16.7991 448.516 16.9017 447.335 16.4911C446.925 16.3371 446.617 15.8239 446.206 15.3619C447.079 14.9513 447.797 14.5407 448.824 14.0275C447.027 12.4364 445.385 10.9992 443.743 9.61345C443.127 10.0754 442.665 10.3833 441.998 10.8452C439.534 7.30376 435.274 6.58522 431.527 4.73749C428.858 6.02064 426.292 7.20112 423.828 8.38161C423.726 9.81874 423.88 11.0506 423.469 12.1284C423.212 12.7443 422.083 13.2063 421.262 13.3089C420.851 13.3602 419.979 12.539 419.876 12.0258C419.62 10.6913 419.722 9.3055 419.568 7.9197C419.363 6.22595 418.336 5.50738 416.591 5.76401C414.487 6.07196 412.331 6.43122 410.278 6.73918C410.124 6.32857 410.022 6.17461 410.022 6.02064C410.638 1.45264 410.638 1.40131 406.275 0.374793C405.762 0.272141 405.197 0.169471 404.684 0.0668191C402.836 -0.18981 401.809 0.272135 401.142 1.81191C400.732 2.7871 400.475 3.76229 400.218 4.7888C400.013 5.61002 399.756 6.48257 399.705 7.30378C399.654 8.3303 399.705 9.35682 399.808 10.3833C399.91 11.4099 399.962 12.4877 400.424 13.4115C400.886 14.2841 401.861 14.9513 402.528 15.7725C403.041 16.4398 403.247 17.3123 403.709 18.0309C404.222 18.8008 405.813 18.0309 406.172 19.2114C403.76 20.3406 400.834 19.0574 398.884 21.1618C399.962 22.137 400.886 23.0095 401.809 23.882C401.861 23.882 401.963 23.882 402.015 23.882L401.912 23.9847C401.861 23.9334 401.861 23.9334 401.809 23.882C399.859 23.728 398.011 23.5741 396.831 25.7297C395.753 27.6801 393.546 28.1934 391.134 28.6553C391.134 27.2695 391.134 25.9864 391.134 24.8059C389.081 24.2926 388.721 25.4731 388.465 26.7049C383.64 28.0394 383.64 28.0394 381.587 30.1438C381.998 30.811 382.408 31.5296 382.819 32.2481C381.484 33.8392 379.637 34.7631 377.84 35.379C375.582 36.1489 374.401 37.894 372.862 39.2798C371.579 40.4603 370.757 42.0514 369.782 43.4885C369.526 43.8478 369.372 44.4637 369.526 44.8743C370.398 47.5433 368.55 48.4671 365.779 49.2883C366.908 50.1609 367.626 50.6741 368.294 51.1874H368.191C368.602 51.9573 368.961 52.7272 369.372 53.4971C371.835 54.7289 374.863 55.2935 376.762 57.9624C375.89 59.0916 375.069 60.1694 374.247 61.2472C374.145 61.3499 373.837 61.2986 373.58 61.3499C373.683 60.3234 373.786 59.3995 373.888 58.4243C373.17 58.3217 372.708 58.1677 372.451 58.2703C367.678 60.426 362.853 62.4277 357.772 63.8135C356.027 64.2755 355.411 66.0206 356.232 67.6117C357.259 69.6134 358.593 71.4611 359.568 73.4628C360.338 75.0026 361.313 75.9778 363.212 76.1317C364.65 76.2344 366.241 76.0291 367.165 77.4149C368.345 79.1086 370.09 79.8785 372.04 80.4944C373.272 80.8537 374.504 81.5723 374.658 82.9068C374.966 85.5757 376.608 87.68 377.943 89.8871C376.455 90.7596 375.12 91.5295 373.837 92.2994C372.913 89.5791 371.425 87.0128 372.708 83.9333C373.17 82.8041 371.681 81.6749 370.141 82.1369C367.165 83.0607 365.009 82.1882 362.597 80.4944C360.133 78.8007 357.31 77.3122 354.025 77.5689C352.537 77.6715 351.664 78.3901 351.613 80.0838C352.075 80.3918 352.793 80.6998 353.204 81.213C353.563 81.6749 353.871 82.4962 353.717 83.0094C353.46 83.9846 352.485 84.2412 351.51 83.9333C350.638 83.6766 349.868 83.1634 348.995 82.9581C348.533 82.8554 347.712 83.0094 347.558 83.3174C347.25 83.8306 347.045 84.6518 347.301 85.1651C348.225 87.2695 350.124 88.142 352.331 88.8092C353.82 89.2198 355.668 88.6039 357.156 90.5543C353.409 90.4003 350.073 91.2216 346.634 89.7844C345.3 87.3208 343.503 84.9598 343.144 81.8802C342.939 80.2891 342.323 78.698 340.116 76.953C340.68 78.852 341.091 79.7759 341.194 80.7511C341.245 81.7263 341.348 83.0094 340.783 83.728C338.833 86.2429 339.192 88.8606 339.449 90.2977C341.296 92.4021 342.169 93.8392 343.401 94.763C345.3 96.2001 346.121 97.8426 346.018 100.101C345.916 104.053 347.712 107.338 350.073 110.366C351.818 110.52 353.255 110.417 354.384 109.34C355.77 108.005 357.259 108.056 358.901 108.724C359.928 109.134 360.851 109.75 361.929 109.955C364.085 110.417 365.265 111.906 366.703 113.24C368.242 114.677 366.446 116.217 367.165 117.603C367.165 117.603 367.216 117.603 367.216 117.654V117.706C367.216 117.654 367.165 117.654 367.165 117.603C366.343 116.987 365.419 116.474 364.752 115.755C363.058 114.01 361.467 112.162 359.979 110.469C357.721 110.828 356.283 111.957 354.949 113.086C353.512 114.318 353.255 115.858 354.641 117.141C357.002 119.399 357.669 121.709 356.181 124.583C355.822 125.302 356.181 126.277 356.027 127.098C355.873 128.125 355.668 129.151 355.206 130.075C354.179 132.026 352.999 133.873 351.869 135.875C348.328 135.362 344.53 135.978 341.348 133.822C342.271 133.771 343.247 133.719 343.657 132.693C344.325 132.898 345.043 132.949 345.659 133.257C346.891 133.925 348.02 133.565 348.379 132.539C349.919 128.227 352.28 123.967 350.381 119.091C349.97 118.014 350.022 116.731 349.868 115.447C346.172 113.805 344.581 110.777 343.452 107.389C342.477 104.618 341.296 101.846 340.526 99.0231C339.962 96.9187 339.038 94.8657 337.242 93.7878C334.624 92.1967 334.419 90.041 334.265 87.5774C334.059 84.4978 334.059 81.367 332.366 78.8007C328.465 76.645 324.718 77.2096 320.817 78.2874C320.099 80.8537 320.458 83.42 320.663 85.9863C320.92 88.9632 320.971 91.6835 318.97 94.3524C317.738 95.9948 317.584 98.2532 319.585 99.9983C321.587 101.743 322.408 104.053 322.152 106.517C321.946 108.621 322.922 110.007 324.769 110.52C326.874 111.085 328.208 112.316 329.645 113.6C330.672 114.523 332.006 115.191 333.187 115.961C333.597 117.449 333.854 118.937 332.366 120.683C328.978 117.808 324.975 116.217 320.971 114.729C319.637 114.216 317.994 114.113 316.917 113.292C312.041 109.648 306.6 110.725 301.262 111.239C299.26 114.831 303.469 116.115 303.931 118.681C303.674 120.734 300.8 121.042 300.698 123.249C300.646 123.762 299.209 123.608 298.85 123.095C298.131 121.966 298.799 120.169 296.848 119.656C296.54 119.707 296.13 119.707 295.822 119.861C292.896 121.145 290.484 123.454 286.891 123.249C286.121 123.198 285.094 124.327 284.427 125.097C283.195 126.431 281.758 126.79 279.911 126.123C279.757 125.148 279.705 124.121 279.397 123.198C279.089 122.12 277.55 121.76 276.78 122.633C275.291 124.429 273.341 125.302 271.031 125.867C269.389 126.226 268.208 127.304 267.028 128.484C264.923 130.64 262.665 132.59 260.201 134.9C260.201 134.849 260.099 135.156 259.996 135.516C259.893 135.824 259.893 136.183 259.791 136.542C258.816 140.186 255.326 141.264 252.451 138.647C251.425 137.723 250.039 137.004 250.142 134.951C251.168 133.976 252.4 132.795 253.632 131.666C251.733 127.92 248.961 126.328 244.701 127.406C244.393 127.458 244.085 127.458 243.726 127.509C244.906 130.178 246.036 132.847 245.522 135.824C245.317 137.056 245.779 138.082 246.805 139.057C248.961 141.008 248.653 143.266 247.319 145.678C244.958 145.268 242.853 144.908 240.595 144.498C238.285 147.423 234.539 149.066 233.358 153.121C234.025 154.096 234.949 155.225 235.462 156.457C235.719 157.124 235.462 158.099 235.154 158.818C234.744 159.69 233.717 159.844 232.793 159.485C230.432 158.51 228.123 157.483 225.813 156.508C225.043 156.2 224.171 155.995 223.042 155.584C222.58 156.713 221.81 157.74 222.015 158.561C222.169 159.434 223.093 160.357 223.965 160.871C224.838 161.435 226.07 161.487 226.994 162C227.507 162.308 227.917 163.078 227.969 163.642C228.071 164.669 227.096 165.439 226.275 165.336C224.684 165.182 223.093 164.669 221.656 164.053C220.065 163.386 218.576 162.411 216.831 161.435C216.318 160.203 215.907 158.715 215.137 157.329C214.367 155.892 213.854 154.558 214.008 152.915C214.213 150.554 212.828 149.271 210.518 148.296C208.106 147.321 206.001 145.73 204.77 143.112C205.488 143.112 205.847 143.009 206.155 143.112C211.288 145.37 216.626 146.961 222.169 148.039C224.735 148.553 227.199 148.45 229.765 147.783C233.409 146.859 235.154 144.395 236.078 141.264C236.489 139.878 236.232 138.595 235.308 137.363C233.512 134.797 230.843 133.257 228.071 132.026C225.249 130.742 222.528 129.408 220.065 127.663C215.651 124.532 210.775 123.146 205.18 123.813C203.846 123.967 202.409 123.505 201.074 123.352C201.074 122.325 201.228 121.606 201.023 121.042C200.869 120.683 200.253 120.272 199.791 120.169C199.175 120.067 198.2 120.067 197.841 120.426C196.198 122.017 194.299 120.631 192.605 120.991C190.552 121.401 189.526 120.375 188.602 118.681C190.912 118.373 193.324 118.168 194.145 115.396C191.887 113.651 189.166 113.035 186.498 112.47C185.625 113.497 185.009 114.216 183.777 115.601C183.675 113.856 183.726 112.881 183.521 112.009C183.418 111.444 183.11 110.674 182.648 110.417C181.673 109.904 180.852 110.52 180.39 111.29C179.928 112.009 179.928 112.932 179.569 113.702C179.312 114.216 178.799 114.677 178.388 115.191C177.669 114.421 177.259 113.959 176.592 113.24C175.616 114.883 174.744 116.32 173.769 117.962C172.537 115.755 174.333 114.267 174.539 112.47C172.691 112.009 171.1 112.06 169.971 113.908C169.457 114.78 168.585 115.447 167.969 116.269C167.25 117.192 166.686 118.168 166.172 118.835C163.965 118.63 162.272 117.038 160.219 118.424C160.681 119.348 161.091 120.067 161.451 120.785C157.344 122.53 157.344 122.53 153.136 122.633C152.982 122.633 152.879 122.684 152.725 122.684C152.161 123.095 151.647 123.505 151.083 123.865C150.826 123.967 150.569 124.121 150.313 124.224C150.569 124.173 150.877 124.121 151.134 124.07C150.364 125.507 149.389 125.969 147.644 125.148C146.412 124.583 145.129 125.969 145.642 127.15C145.847 127.612 146.258 127.971 146.617 128.279C147.746 129.203 147.541 130.075 146.566 130.845C145.796 131.461 144.924 131.974 144.102 132.539C144.77 133.206 145.437 133.822 146.104 134.489C142.973 135.926 140.458 137.723 139.483 141.11C139.226 142.034 139.021 142.907 138.764 143.779C138.559 144.549 136.917 144.806 136.25 145.576C135.377 146.653 134.607 147.885 134.196 149.168C133.221 152.248 132.451 155.379 131.579 158.51C131.425 158.972 131.476 159.793 131.22 159.896C128.859 160.768 128.602 163.488 126.498 164.618C124.855 165.49 123.777 166.876 123.213 168.57C122.597 170.469 121.262 171.752 119.62 172.932C118.491 173.754 117.413 174.729 116.335 175.601L116.438 175.653C115.36 175.755 114.282 175.858 113.05 175.961C113.102 176.628 113.204 177.244 113.256 177.86C111.767 178.783 110.279 179.707 108.79 180.631C105.557 182.582 105.146 183.711 106.429 187.765C107.507 187.765 108.585 187.817 109.663 187.765C110.792 187.714 112.024 186.739 113.461 188.433C110.741 188.587 108.482 188.741 106.019 188.895C105.967 191.204 106.635 192.795 108.739 193.668L108.636 193.719C109.971 196.286 107.456 197.62 106.275 199.262C106.84 199.673 107.096 199.93 107.404 200.084C109.303 200.854 109.714 201.623 108.636 202.855C108.072 203.471 106.994 203.676 107.61 205.216C108.636 205.883 109.971 206.756 111.305 207.629C113.974 209.425 116.489 208.501 118.953 207.269C119.723 206.91 120.185 206.037 120.852 205.473C122.032 204.446 123.161 203.317 124.445 202.393C126.292 201.11 126.344 201.162 127.216 198.236C128.345 200.494 129.526 202.445 130.193 204.754C131.271 208.296 131.989 212.094 134.402 215.173C135.274 216.251 136.044 217.381 136.917 218.612C136.506 219.382 136.096 220.152 135.685 220.922C136.763 221.949 137.789 223.026 138.867 224.053C140.356 224.156 141.844 224.309 142.563 222.616C143.076 221.333 144.205 220.563 145.488 220.511C148.465 220.46 150.415 218.715 152.52 217.226C151.493 215.789 150.877 214.25 151.083 212.505C151.339 210.605 151.853 208.758 151.75 206.91C151.647 204.857 152.571 203.42 154.265 202.701C157.704 201.264 158.32 198.595 158.32 195.054C157.19 193.925 156.061 192.18 154.368 191.307C152.007 190.075 151.442 188.381 151.545 186.174C151.596 184.789 151.955 183.403 151.853 182.068C151.699 179.656 152.52 177.654 154.162 175.909C155.651 174.369 157.139 172.932 158.73 171.495C160.065 170.315 161.604 169.34 162.785 168.056C164.325 166.363 165.351 164.464 164.889 161.949C164.633 160.46 164.787 158.818 165.3 157.381C165.865 155.789 166.84 153.993 168.893 153.788C171.202 153.582 173.666 153.736 175.976 154.096C178.491 154.506 179.722 156.097 179.261 158.15C177.259 160.717 175.565 162.924 173.82 165.131C171.972 167.492 170.484 170.161 168.225 172.06C166.121 173.856 165.505 175.601 166.224 177.911C167.302 181.401 167.918 184.943 167.815 188.587C167.815 188.895 168.02 189.254 168.123 189.459C170.997 190.999 173.82 192.539 177.156 194.335C179.671 193.463 182.648 192.179 185.83 191.461C189.166 190.691 192.657 190.486 195.941 190.075C197.481 191.204 198.867 192.231 200.509 193.411C198.816 194.438 197.173 195.054 196.198 196.183C194.504 198.133 192.759 198.339 190.398 197.569C186.908 196.388 183.521 197.415 180.287 198.647C178.029 199.519 177.721 200.546 178.08 202.753C178.439 204.806 179.569 206.191 181.776 206.91C181.776 208.655 181.878 210.195 181.724 211.735C181.622 213.018 180.903 213.993 178.491 213.89C178.029 213.377 177.361 212.351 176.438 211.478C174.898 210.092 172.742 210.195 171.767 211.889C170.279 214.455 168.893 217.124 169.868 220.255C170.433 222.051 170.997 223.899 170.381 225.747C169.047 226.465 167.353 226.876 166.686 227.902C165.813 229.185 164.941 230.007 163.401 230.212C161.399 230.417 160.424 229.288 159.551 227.851C159.397 227.646 158.936 227.594 158.422 227.389C152.622 228.21 148.26 232.214 142.511 234.831C141.331 233.599 140.099 232.368 138.456 230.674C136.301 231.341 133.581 232.162 131.117 232.932C129.218 232.008 127.473 231.136 125.779 230.315C125.214 229.237 124.393 228.21 124.085 227.081C123.88 226.209 124.239 225.182 124.342 224.258C124.291 224.258 124.291 224.258 124.239 224.258C124.291 224.258 124.291 224.207 124.342 224.207C126.087 222.924 126.96 221.127 127.575 219.074C126.241 217.688 126.087 216.046 126.652 214.25C126.908 213.377 126.754 212.505 125.368 212.197C124.906 212.505 124.291 212.864 123.726 213.274C123.315 213.582 122.956 213.993 122.494 214.301C121.878 214.712 121.16 214.917 120.646 215.379C120.287 215.635 119.928 216.251 120.031 216.611C120.236 217.38 120.031 217.791 119.62 218.407C118.439 220.511 118.491 222.821 119.415 225.182C120.338 227.594 121.314 230.007 121.365 232.624C121.416 234.215 119.877 236.166 118.491 235.704C115.771 234.831 113.974 236.73 111.716 237.09C106.737 237.86 103.35 240.374 102.477 245.302C102.22 246.79 101.451 247.817 100.065 248.535C99.1409 249.049 98.3197 249.87 97.3445 250.28C95.5994 251.102 94.4189 252.128 93.957 254.027C93.7517 254.9 92.8791 256.029 92.0066 256.337C90.1075 257.055 88.3625 257.671 87.1306 259.365C86.874 259.776 85.7448 259.827 85.0776 259.724C83.6918 259.468 82.3574 258.954 80.6636 258.441C80.6636 260.084 80.6636 261.572 80.6636 263.266C79.1751 263.368 77.6867 263.882 76.7115 263.42C73.9913 262.239 71.7842 263.368 69.1666 264.138C69.3206 265.319 69.4746 266.294 69.5772 267.321C71.3736 267.988 73.0674 268.706 74.8124 269.22C76.5062 269.733 77.892 270.708 78.3539 272.197C79.0212 274.404 80.8689 275.533 82.46 276.867C83.2812 280.768 82.4087 284.515 81.9981 288.261C81.9467 288.775 81.6901 289.237 81.4335 289.699C80.8689 290.93 79.7397 291.752 78.4052 291.546C73.5806 290.725 68.602 291.546 63.7774 290.469C61.0058 289.853 57.9776 289.647 55.1034 289.853C53.4609 289.955 51.9211 291.29 50.33 292.111C49.8681 292.368 49.4575 292.727 49.2522 292.829C49.6628 294.883 50.0734 296.525 50.2787 298.219C50.9973 303.146 50.5353 307.868 47.9691 312.333C47.5584 313.052 47.3018 314.284 47.6611 314.797C49.7141 317.261 49.5088 320.289 50.1247 323.42C51.6132 323.574 53.1016 324.087 54.4361 323.882C57.4643 323.368 59.4147 324.344 60.5439 327.012C60.5952 327.166 60.7492 327.32 60.8518 327.474C62.135 329.066 63.2128 329.322 65.0605 328.142C67.8834 326.345 70.8604 325.37 74.3506 325.678C75.9417 325.832 77.738 325.575 79.1238 324.959C80.7149 324.241 82.2547 323.163 83.3839 321.88C84.975 320.032 86.2068 317.928 87.5926 315.875C87.6952 315.772 87.5926 315.516 87.5926 315.362C87.0793 314.232 86.6174 313.155 86.0015 311.769C88.6191 308.381 90.5182 304.429 95.3942 302.992C97.8578 302.273 99.2949 300.477 99.3975 297.962C99.4489 296.782 99.5515 295.55 99.8082 294.369C100.373 292.008 102.015 290.879 104.581 291.29C107.25 291.752 109.868 292.419 112.64 293.035C115.411 291.187 118.439 289.288 121.365 287.286C122.494 286.516 123.675 286.362 125.009 286.722C127.062 287.235 128.448 288.415 129.628 290.109C133.478 295.806 137.635 301.247 144.975 303.351C145.488 303.505 145.796 304.019 146.309 304.224C148.67 305.302 150.159 307.406 152.263 308.638C154.265 309.818 154.727 311.512 155.394 313.257C156.215 315.31 155.343 316.901 153.906 318.544C151.801 318.903 149.594 319.16 147.49 319.673C145.437 320.135 143.179 318.954 140.818 320.597C143.897 323.625 147.439 324.959 150.98 325.986C151.391 325.627 151.596 325.524 151.647 325.421C152.212 323.112 151.237 319.827 155.702 320.135C155.959 320.135 156.318 319.724 156.472 319.468C157.498 317.671 158.576 315.875 159.449 313.976C159.654 313.462 159.243 312.641 158.987 312.025C158.73 311.409 158.217 310.845 158.063 310.178C157.755 308.279 159.551 306.79 161.451 307.355C162.426 307.663 163.298 308.125 164.581 308.638C164.53 307.817 164.633 307.149 164.376 306.893C161.091 303.659 155.959 302.992 152.982 299.297C152.828 299.091 152.314 299.091 151.955 299.091C149.081 298.835 147.285 297.038 146.053 294.883C144.41 292.06 142.357 289.75 139.534 288.005C138.2 287.184 137.635 285.952 137.738 284.463C137.841 283.437 137.943 282.41 138.046 281.538C139.38 280.306 140.715 279.536 142.409 279.844C143.076 281.23 143.64 282.359 144.154 283.488C145.54 283.026 146.515 282.667 147.695 282.308C148.568 283.54 149.594 284.566 150.107 285.849C151.185 288.672 153.392 290.109 156.215 291.29C161.245 293.343 166.019 295.909 169.149 300.528C169.201 300.99 169.252 301.504 169.252 302.017C169.047 305.199 169.56 308.125 172.178 310.486C173.358 311.512 174.231 312.898 175.206 314.13C176.335 315.669 177.413 317.261 178.542 318.852C177.721 320.956 179.928 321.88 180.544 323.42C181.416 325.575 183.264 325.883 185.266 325.575C186.138 323.779 186.857 322.239 187.575 320.699C189.936 320.186 189.936 318.441 189.834 316.491C188.448 315.875 187.011 315.259 186.087 314.848C185.317 312.949 184.701 311.512 184.137 310.126C183.88 309.51 183.521 308.843 183.469 308.176C183.418 307.765 183.88 307.303 184.085 306.79C185.163 307.303 186.087 307.714 187.062 308.176C187.627 307.817 188.191 307.611 188.499 307.201C189.372 305.918 189.936 304.378 191.989 304.326C193.632 304.275 195.274 304.07 196.865 304.224C198.456 304.378 199.38 305.558 199.534 307.047C199.637 308.227 199.534 309.459 199.534 310.537C203.332 313.36 203.178 314.386 201.177 317.877C202.203 319.262 203.281 320.597 204.256 321.983C205.488 323.779 206.925 325.267 209.338 325.575C210.826 325.781 212.006 326.397 213.187 327.269C215.291 328.809 217.344 328.501 219.551 326.602C220.065 326.14 220.321 325.473 220.475 325.319C223.555 325.165 225.505 326.089 227.199 327.526C228.585 328.706 230.124 328.655 231.818 328.45C234.385 328.193 235.976 326.499 237.772 325.062C239.671 325.37 241.416 325.627 243.11 325.883C243.213 327.782 243.007 329.579 243.469 331.17C244.136 333.531 243.623 335.687 242.956 337.791C241.827 341.23 240.492 344.617 239.107 348.005C238.696 348.929 238.029 349.853 237.259 350.571C236.643 351.136 235.719 351.7 234.949 351.752C232.588 351.803 230.073 352.06 227.866 351.392C224.273 350.314 220.989 350.468 217.806 352.111C216.267 352.932 214.778 353.035 213.084 352.624C208.824 351.7 204.462 351.033 200.202 350.058C196.865 349.288 193.529 348.313 190.244 347.338C189.577 347.132 188.91 346.773 188.345 346.311C185.112 343.745 181.519 344.155 177.926 345.284C175.154 346.157 173.923 348.21 174.333 350.93C174.436 351.598 174.795 352.265 174.898 352.932C175.103 354.728 173.871 355.806 172.537 356.73C171.356 357.551 170.073 357.243 168.944 356.576C168.02 356.012 167.199 355.293 166.275 354.78C163.914 353.394 161.502 352.111 158.628 352.162C156.215 352.213 154.829 350.982 154.214 348.98C153.7 347.286 152.571 346.311 150.826 345.952C148.516 345.438 146.155 344.463 143.897 344.669C139.021 345.131 135.685 342.256 131.836 340.409C130.809 339.947 130.655 338.561 131.374 337.688C131.835 337.175 132.4 336.713 132.913 336.2C134.658 334.66 135.018 332.761 133.375 331.17C131.733 329.579 133.119 327.936 132.759 326.448C132.143 326.089 131.579 325.883 131.271 325.524C129.628 323.625 127.729 323.317 125.42 324.446C123.418 325.473 121.314 325.627 119.004 325.319C117.259 325.062 115.257 324.703 113.666 325.216C110.946 326.14 108.328 325.883 105.608 325.678C104.171 325.575 102.734 325.986 101.297 326.14C100.013 326.294 98.7816 326.756 97.4985 326.653C94.7782 326.499 92.4685 327.423 90.1589 328.552C88.6704 329.271 87.2846 329.989 85.7962 330.657C81.5361 332.453 77.7381 333.172 73.0674 333.069C71.425 333.069 69.6799 333.531 68.1401 333.12C66.4976 332.71 65.0605 331.58 63.2128 330.605C62.5969 331.837 61.9297 332.864 61.6217 333.941C60.6465 337.124 58.9014 339.587 55.5652 340.819C54.898 341.076 54.3334 341.589 53.7175 341.948C50.8946 343.539 47.815 344.874 47.6097 348.621C47.6097 349.031 46.9939 349.493 46.6859 349.904C45.6594 351.238 45.0435 352.675 45.5054 354.267C46.5832 358.013 44.4275 360.734 41.9639 362.992C40.0648 364.737 37.5499 366.174 35.0349 366.995C32.7252 367.765 31.2368 368.946 30.0563 370.742C29.4917 371.615 28.9785 372.795 28.1573 373.154C25.3857 374.386 24.3592 376.799 23.0247 379.006C22.2035 380.34 21.4849 381.829 20.407 382.958C17.0709 386.345 15.7877 390.759 13.2214 394.557C11.8869 396.456 11.8357 398.817 14.2993 400.562C14.9152 400.973 15.4284 402.154 15.2744 402.821C14.5559 405.336 15.6851 407.594 15.8904 409.955C16.0444 411.495 15.9417 413.035 15.6338 414.523C15.2232 416.525 14.6073 418.578 13.8374 420.477C13.0161 422.53 11.8357 424.429 10.7578 426.482C12.1436 428.638 14.1967 430.691 12.7595 433.514C13.2728 435.515 13.6834 437.928 15.993 438.595C19.2779 439.519 20.407 442.29 22.4601 444.241C23.076 444.857 23.4866 445.729 24.2052 446.088C27.0794 447.628 28.7218 449.784 29.5944 452.864C30.3643 455.686 31.75 458.663 34.7783 459.946C38.679 461.64 41.6559 464.412 45.0434 466.722C47.4044 468.313 50.0221 469.647 52.5884 470.93C53.9229 471.597 55.36 471.751 56.7971 470.982C60.3899 469.031 64.342 468.621 68.3967 468.364C71.3736 468.159 74.1966 468.056 77.0195 469.082C77.9947 469.442 79.2265 469.75 80.2017 469.493C82.6653 468.877 85.2316 468.261 87.3873 467.029C91.596 464.668 96.2153 463.745 100.886 462.975C105.865 462.102 108.687 463.745 110.997 468.21C111.305 468.826 111.562 469.493 111.87 470.109C112.588 471.443 113.769 472.265 115.36 472.265C117.208 472.265 119.004 472.111 120.852 471.905C122.853 471.649 124.804 471.289 127.062 470.93C127.729 471.7 128.294 472.778 129.167 473.24C131.066 474.164 131.476 475.858 131.887 477.5C132.4 479.399 131.938 481.247 131.117 483.043C130.706 484.018 129.885 484.993 129.936 485.866C130.296 489.305 128.756 492.23 127.524 494.797C128.807 499.775 131.784 503.214 135.48 506.191C136.044 506.653 136.557 507.115 137.122 507.577C139.483 509.373 140.869 511.734 141.895 514.403C142.717 516.508 143.846 518.458 144.616 520.562C145.437 522.821 146.669 525.233 146.463 527.44C146.155 530.519 146.771 533.188 148.003 535.96C149.697 539.604 149.389 542.94 145.95 545.815C143.486 547.919 141.69 550.485 141.639 553.873C141.587 555.002 140.92 556.182 140.356 557.26C138.508 560.699 138.867 564.343 139.072 567.936C139.124 568.757 139.534 569.681 140.048 570.297C144.872 575.481 145.95 582.513 149.851 588.158C150.056 588.415 150.107 588.826 150.159 589.134C150.775 593.548 151.339 598.013 152.058 602.427C152.828 607.252 154.008 611.871 157.652 615.669C159.089 617.158 160.167 619.057 160.989 620.956C162.374 624.138 163.452 627.474 164.684 630.708C165.351 632.401 165.711 633.941 164.787 635.686C164.427 636.353 164.53 637.329 164.735 638.098C165.095 639.587 165.659 641.024 166.172 642.41C167.456 643.231 168.585 644.104 169.868 644.822C170.638 645.233 171.818 645.797 172.383 645.541C175.257 644.206 178.593 644.771 181.365 643.539C184.188 642.307 187.165 642.205 189.936 642.666C192.657 643.128 194.915 642.718 197.327 641.845C198.148 641.537 199.021 641.075 199.894 641.024C202.819 640.87 205.18 639.638 207.387 638.047C212.366 634.454 216.934 630.554 220.475 625.626C222.528 622.752 224.479 619.878 227.507 617.722C228.585 616.952 229.457 615.618 230.022 614.386C231.459 611.05 232.793 607.611 231.51 603.967C232.999 602.119 234.744 600.939 236.9 600.271C237.926 599.963 239.055 599.758 240.082 599.399C242.648 598.475 244.085 596.884 244.496 594.061C244.958 590.571 244.855 587.235 243.777 583.847C243.367 582.513 243.007 581.178 242.648 579.844C242.34 578.56 242.597 577.38 243.777 576.61C249.782 572.709 254.299 566.909 261.536 564.651C262.357 564.395 263.127 563.779 263.846 563.265C268.26 560.288 271.236 556.644 270.107 551.101C269.953 550.434 270.056 549.715 270.107 549.048C270.261 544.788 270.467 540.477 270.621 536.217C264.821 531.957 265.385 526.106 265.95 520.1C265.129 518.92 264.256 517.637 263.23 516.2C264.256 514.095 265.18 512.042 266.258 510.092C267.182 508.398 268.362 506.858 269.183 505.165C270.056 503.419 271.185 502.034 272.982 500.905C274.624 499.878 276.061 498.441 277.242 496.901C281.142 492.025 286.121 488.176 290.689 483.967C291.356 483.351 292.126 482.889 292.896 482.427C301.467 477.705 307.267 470.828 311.322 462.41C312.656 459.587 313.94 456.764 315.89 454.198C318.713 450.605 319.637 446.345 319.38 441.931C319.329 441.161 318.867 440.443 318.456 439.313C314.504 441.367 310.552 441.777 306.6 442.444C301.416 443.368 296.13 443.727 291.202 445.781C289.714 446.396 288.277 445.986 287.199 444.908C285.659 443.42 284.171 441.931 282.682 440.443C283.606 437.312 283.606 437.312 281.758 435.464C280.988 434.745 280.321 433.924 279.551 433.154C276.472 430.024 273.751 426.533 269.132 425.045C266.874 424.326 265.385 422.376 264.718 420.015C264.359 418.681 263.897 417.346 263.486 416.012C262.768 413.805 261.587 411.905 259.432 410.622C256.249 408.723 254.607 406.106 254.71 402.461C254.761 401.127 254.042 399.793 253.837 398.407C253.324 395.122 251.784 392.504 248.448 391.067C246.703 390.349 245.779 389.014 245.984 387.372C246.241 385.062 244.958 383.42 243.828 381.675C242.237 379.16 240.184 376.799 239.107 374.078C237.515 369.972 235.565 366.174 232.434 362.889C232.024 362.479 231.356 361.811 232.691 361.144C233.204 361.811 233.717 362.479 234.282 363.095C235.206 364.172 236.181 365.199 237.207 366.174C237.875 366.79 238.645 367.047 239.671 366.636C242.34 365.61 242.905 365.558 244.136 367.252C247.832 372.179 251.989 376.799 254.196 382.752C259.586 384.703 261.639 388.86 261.947 394.095C262.152 397.483 263.692 399.998 266.822 401.692C269.44 403.129 271.288 405.079 272.314 407.902C272.879 409.493 274.162 410.828 275.24 412.213C276.215 413.445 277.293 414.626 278.422 415.806C279.808 417.295 280.629 419.091 280.526 421.041C280.27 425.353 282.374 429.1 283.503 433C284.171 435.259 285.556 435.515 288.277 435.31C290.946 435.105 292.177 432.692 294.538 432.333C296.848 431.974 299.414 432.59 301.467 431.255C304.342 429.459 308.14 429.408 310.706 426.995C311.271 426.431 312.4 426.379 313.272 426.123C315.377 425.455 317.481 424.891 319.534 424.121C321.023 423.556 322.768 422.992 323.332 421.401C324.153 419.091 326.001 418.373 328.26 417.859C330.723 417.295 333.135 416.525 335.804 415.755C336.728 414.112 337.447 411.957 340.116 411.803C340.578 411.752 341.245 411.341 341.399 410.982C342.528 408.569 344.684 407.44 347.712 406.876C346.429 403.385 347.969 401.332 350.689 399.177C352.947 397.432 355.154 394.968 354.898 391.683C353.82 390.503 352.537 389.425 351.664 388.142C350.484 386.294 348.893 385.678 346.737 385.473C341.964 385.011 340.064 383.214 339.038 378.8C338.73 377.466 338.473 376.183 338.165 374.643C335.189 376.439 333.341 378.749 331.544 381.11C330.056 383.112 328.26 384.087 325.591 383.933C323.999 383.83 322.357 384.241 320.766 384.395C319.38 384.549 318.148 383.984 317.635 382.804C317.276 382.034 317.173 381.161 317.019 380.34C316.711 378.698 316.403 377.055 315.993 374.694C314.658 376.234 313.837 377.158 312.656 378.544C311.681 376.901 310.706 375.823 310.398 374.54C309.782 372.025 308.345 370.075 306.343 368.484C304.29 366.893 303.11 364.788 301.673 362.787C300.133 360.58 299.517 358.424 301.878 355.96C303.931 355.96 306.292 355.96 308.55 355.96C310.86 359.348 313.067 362.53 315.223 365.712C318.046 366.533 320.561 367.663 322.973 369.356C326.463 371.769 330.723 373.36 335.137 370.486C335.702 370.126 336.472 369.921 337.19 369.767C338.576 369.356 339.757 369.716 340.475 370.947C341.45 372.59 342.323 374.284 343.247 375.926C348.328 376.593 353.255 377.004 358.08 377.979C361.416 378.646 364.598 378.544 367.883 378.236C372.194 377.876 376.557 377.568 380.92 377.261C381.998 377.209 383.076 377.312 384.513 377.415C386.206 379.519 387.952 381.623 390.261 384.395C391.801 384.549 393.751 385.627 395.342 387.474C396.061 388.347 397.498 388.706 398.576 389.271C399.294 389.63 400.475 389.271 400.834 390.708C399.962 391.272 398.987 391.888 397.806 392.607C399.346 394.095 400.732 395.481 402.117 396.764C402.631 397.226 403.195 397.688 403.863 397.996C404.632 398.355 405.659 398.971 406.377 398.766C407.917 398.304 409.406 397.534 410.74 396.713C411.921 395.994 412.023 394.763 411.921 393.479C411.869 392.658 411.972 391.734 413.306 391.683C413.563 392.864 413.82 394.044 414.025 395.225C415 400.306 415.257 405.49 416.899 410.417C418.542 415.139 419.414 420.169 422.442 424.378C424.136 426.687 425.214 429.254 426.035 431.871C426.959 434.694 428.037 437.414 430.347 439.57C431.219 440.391 431.784 441.572 432.297 442.65C433.17 444.703 433.991 446.858 434.658 448.963C435.325 450.964 436.095 452.915 437.84 454.301C439.226 455.43 441.125 455.327 442.1 453.839C443.794 451.221 446.925 449.733 448.105 446.653C448.413 445.832 449.594 445.267 450.364 444.6C449.902 441.315 449.85 438.236 451.339 435.31C451.75 434.489 451.749 433.206 451.39 432.333C450.21 429.459 451.082 426.482 450.774 423.608C450.723 422.941 451.39 421.914 452.006 421.452C453.751 420.272 455.65 419.348 457.498 418.321C458.114 417.962 459.089 417.603 459.192 417.141C459.756 414.626 462.22 413.805 463.811 412.213C465.916 410.058 468.43 408.313 470.021 405.695C470.894 404.258 471.972 403.077 474.025 402.513C476.54 401.794 478.131 399.741 478.388 397.021C478.439 396.354 478.696 395.687 478.85 395.173C482.853 392.966 482.853 392.761 485.009 393.018C489.577 393.531 493.221 392.196 495.684 388.604C498.507 388.347 499.534 389.989 499.944 391.94C500.92 396.61 503.794 399.639 508.311 401.486C508.773 401.692 509.132 402.154 509.491 402.461C509.337 403.539 509.234 404.515 509.081 405.9C511.698 405.9 512.571 407.645 513.289 409.442C514.059 411.341 514.521 413.24 514.008 415.498C513.187 418.988 515.599 420.631 519.14 419.348C519.962 419.04 520.783 418.527 521.553 418.065C523.041 417.141 524.478 416.166 525.915 415.242C528.379 416.935 529.303 419.296 530.021 421.863C530.791 424.686 531.766 427.509 532.998 430.177C534.897 434.386 536.334 438.595 535.051 443.214C534.846 444.035 534.949 444.908 534.897 445.729C534.846 447.064 534.795 448.449 534.692 449.784C534.589 450.964 534.487 452.145 534.384 453.325C538.234 455.84 540.287 459.587 543.007 462.821C543.571 463.488 543.879 464.361 544.085 465.182C544.598 467.183 544.906 469.236 545.47 471.238C545.778 472.367 546.343 473.445 546.908 474.472C547.575 475.652 548.396 476.833 549.269 477.91C552.04 481.247 555.428 483.71 559.842 484.839C560.971 485.147 562.1 484.07 561.69 482.992C561.279 481.863 560.971 480.528 560.15 479.707C558.353 477.859 557.84 475.652 558.148 473.445C558.764 469.134 556.198 466.619 553.118 464.309C551.27 462.923 549.217 461.846 547.216 460.614C545.83 459.741 544.187 458.869 544.187 457.175C544.239 453.993 541.878 452.042 540.03 450.195C537.874 448.09 537.669 446.14 538.285 443.625C539.311 439.775 540.287 435.926 541.313 432.077C541.365 431.82 541.775 431.615 542.34 431.101C542.956 431.409 543.982 431.666 544.239 432.23C544.957 433.822 546.035 434.54 547.883 434.899C550.603 435.413 553.067 436.747 554.247 439.313C555.376 441.726 557.737 442.65 559.842 443.933C561.228 444.754 562.665 445.421 563.845 445.986C564.615 448.039 562.973 450.143 565.231 451.837C567.438 450.759 569.183 449.014 570.826 447.269C572.057 445.935 573.392 445.113 575.188 444.497C580.577 442.598 584.016 437.671 583.246 432.846C582.733 429.613 581.604 426.482 580.526 423.351C579.602 420.631 577.857 418.219 575.342 416.833C571.031 414.523 568.413 410.879 565.385 407.491C563.691 405.592 563.743 403.385 564.718 401.692C566.565 398.458 568.259 394.865 572.673 393.736C573.7 393.479 574.675 392.915 575.701 392.453C577.293 392.915 578.832 393.377 580.321 393.787C580.783 394.865 581.091 395.892 581.604 396.764C582.066 397.534 582.887 397.996 583.914 397.329C584.068 396.354 584.222 395.379 584.376 394.557C588.892 392.094 594.692 392.094 597.72 387.269C600.081 388.552 602.186 387.012 604.495 386.704C607.472 386.294 610.244 385.678 611.681 382.701C611.886 382.29 612.553 382.085 612.964 381.777C618.251 377.774 621.946 372.949 621.946 366.174C623.742 365.148 624.923 363.659 625.488 361.76C625.744 360.939 625.796 359.912 626.36 359.348C628.618 357.192 628.259 354.626 628.002 352.06C628.362 351.906 628.772 351.752 629.132 351.598C628.721 351.444 628.362 351.29 627.951 351.136C628.31 350.212 628.618 349.442 627.797 348.364C626.771 346.927 624.923 347.645 623.435 346.824C624.923 345.387 626.155 344.258 627.489 342.975C626.463 341.692 625.59 340.665 624.769 339.639C624.718 339.69 624.718 339.69 624.666 339.741L624.769 339.639C625.334 339.074 625.898 338.51 626.514 337.894C625.898 337.124 625.539 336.354 624.974 336.097C622.357 334.814 620.868 332.504 619.893 330.195C618.507 326.91 616.249 324.754 612.964 323.266C612.502 323.06 612.245 322.496 611.835 322.034C611.886 320.853 611.63 319.57 612.143 318.492C612.913 316.799 614.042 315.208 615.222 313.719C617.275 311.153 620.509 310.332 623.229 309.254C623.64 307.406 623.178 306.482 621.535 306.277C620.098 306.123 618.353 306.431 617.275 305.815C614.504 304.224 612.861 305.302 611.27 307.303C610.962 307.714 610.552 308.073 610.141 308.433C609.269 309.1 607.575 309.151 607.164 308.279C606.138 306.02 603.879 305.199 602.032 303.967C601.313 303.454 600.594 302.838 600.03 302.171C598.644 300.528 599.465 298.373 601.672 297.911C602.545 297.705 603.417 297.603 604.136 297.449C605.009 295.652 605.316 293.599 606.548 292.675C608.55 291.187 609.525 289.237 610.757 287.338C611.783 285.798 613.221 285.387 615.017 286.311C615.89 286.773 616.506 287.646 617.224 288.313C616.608 289.699 615.838 290.776 615.684 291.906C615.53 293.035 616.044 294.215 616.198 295.396C616.3 296.371 616.198 297.295 616.198 298.835C617.327 297.808 618.045 297.244 618.61 296.628C623.229 291.752 626.103 291.187 632.724 294.061C632.724 295.447 632.622 296.987 632.776 298.475C632.878 299.81 632.16 301.144 633.135 302.479C634.418 304.275 636.112 303.197 637.652 303.403C639.705 303.659 642.014 305.712 642.168 307.406C641.758 308.073 641.347 308.792 640.885 309.562C642.99 311.769 643.811 314.232 643.298 317.209C642.99 318.903 643.144 320.699 645.659 321.726C647.609 320.597 649.816 319.622 652.485 319.519C654.589 319.416 656.591 317.004 656.129 315.002C655.411 311.82 654.179 308.741 653.152 305.61C649.559 302.222 647.66 297.449 642.99 294.883C640.937 293.753 640.834 291.752 642.374 290.007C643.195 289.083 644.273 288.415 645.094 287.492C647.198 285.028 649.149 282.564 647.455 279.074C646.685 277.534 647.352 275.943 648.43 274.711C650.432 272.299 652.639 270.041 654.949 267.526C655.872 268.039 656.745 268.552 657.617 269.117C659.414 270.297 661.159 269.99 662.699 268.86C663.674 268.142 664.649 267.218 665.265 266.243C666.292 264.652 667.164 262.907 667.934 261.161C669.884 256.901 671.783 252.59 673.683 248.279C674.093 247.355 674.196 246.277 674.401 245.302C675.171 241.042 675.53 236.679 676.813 232.573C678.251 228.056 677.429 223.899 675.53 220.049C673.58 216.149 672.759 212.248 672.707 208.091C672.707 205.524 672.913 202.855 670.757 200.802C670.86 198.955 668.961 197.723 668.858 196.08C668.704 193.822 667.369 192.693 665.573 191.718C664.598 191.204 663.469 190.896 662.699 190.178C660.44 188.022 657.977 187.868 655.154 189.049C654.692 190.434 655.051 192.231 653.306 193.052C652.844 193.257 652.331 193.36 651.818 193.463C651.253 192.693 650.791 192.026 650.329 191.41C649.2 191.564 648.174 191.718 647.404 191.872C646.326 189.87 645.453 188.227 644.581 186.585C643.708 186.688 643.195 186.79 642.682 186.842C641.963 186.944 641.245 187.15 640.526 187.098C638.73 187.047 637.754 185.866 638.37 184.327C638.781 183.351 639.243 182.428 639.807 181.504C641.86 178.014 643.862 174.523 643.965 170.366C643.965 169.545 644.273 168.57 644.786 167.902C648.328 162.975 647.25 156.816 649.816 151.683C649.97 151.375 649.867 151.016 649.867 150.657C649.97 146.448 650.329 145.884 654.025 144.549C655.564 143.985 657.104 143.369 658.644 142.958C660.03 142.65 661.621 142.188 662.904 142.547C665.214 143.266 664.906 139.981 666.908 140.597C667.061 140.648 667.267 140.546 667.472 140.546C669.782 140.289 672.091 139.981 674.247 139.724C676.198 135.054 676.197 135.054 681.022 135.464C682.305 135.567 683.588 135.464 684.82 135.721C685.795 135.926 686.719 136.491 687.592 136.902C686.925 139.673 686.925 139.673 688.618 140.751C691.903 139.93 693.648 136.44 697.395 136.286C698.114 136.234 698.781 134.951 699.859 133.822C698.062 133.206 696.779 132.744 695.599 132.334C694.623 130.588 694.059 128.895 694.726 127.201C696.266 123.198 696.574 119.194 696.009 114.985C695.701 112.881 696.83 111.393 698.986 110.571C702.271 109.288 705.556 108.313 709.303 108.467C709.662 110.366 709.97 112.163 710.329 114.164C711.972 114.883 713.563 115.601 715.462 116.423C716.95 112.368 716.283 108.159 718.952 105.182C717.823 102.308 715.718 100.101 716.232 96.7134C717.155 96.3541 718.233 95.6869 719.363 95.4816C720.081 95.3789 720.954 95.9949 722.339 96.4568C720.492 98.1505 720.543 99.7929 721.518 101.435C723.828 105.182 724.906 109.34 725.727 114.01C721.929 116.063 721.98 119.656 722.237 123.352C722.288 124.019 722.339 124.789 722.083 125.405C720.44 129.562 720.8 133.873 720.851 138.185C720.851 139.365 720.748 140.648 720.235 141.675C719.209 143.625 717.823 145.37 716.437 147.423C718.028 149.066 718.079 151.221 717.104 153.121C715.616 156.046 716.129 158.869 717.207 161.641C718.541 165.028 719.876 168.467 721.518 171.7C723.109 174.78 725.06 177.757 727.01 180.683C728.858 183.454 730.5 186.482 732.861 188.792C734.863 190.742 735.889 193.001 737.07 195.31C737.481 196.08 737.686 196.953 738.096 197.723C738.815 199.108 739.944 199.776 741.689 199.365C744.358 196.132 745.025 192.693 743.332 188.741C742.818 187.56 742.972 186.072 742.818 184.943C744.153 183.813 745.179 182.941 746.309 181.966C745.641 180.734 744.974 179.707 744.512 178.578C743.691 176.576 744.102 174.523 744.615 172.47C745.077 170.623 746.822 170.315 748.259 169.647C748.875 169.391 749.285 168.775 749.645 168.364C749.388 166.209 747.643 165.285 746.565 163.95C744.41 161.333 743.64 158.458 744.717 155.276C745.898 155.071 746.925 154.866 747.9 154.66C748.618 151.94 745.59 151.119 745.539 149.117C744.512 148.963 743.794 148.912 743.126 148.809C741.689 145.986 741.689 145.986 741.792 143.882C741.792 143.728 741.843 143.523 741.895 143.369C742.048 142.034 741.587 141.008 740.303 140.34C738.712 139.519 738.148 141.11 736.916 141.47C734.298 139.93 733.836 137.415 733.785 134.797C733.734 131.358 733.785 127.868 731.886 124.737C731.629 124.327 731.527 123.762 731.527 123.249C731.424 121.966 731.629 120.58 733.118 120.323C735.582 119.861 736.403 117.962 737.635 116.371C737.891 116.012 738.507 115.961 738.815 115.807C740.149 116.269 739.79 118.373 741.895 117.962C742.1 117.398 742.305 116.73 742.562 116.115C742.87 115.293 743.075 114.472 743.537 113.754C745.539 110.571 748.977 109.853 752.416 111.649C753.905 112.47 755.034 114.113 757.241 113.805C757.292 113.24 757.446 112.727 757.446 112.265C757.549 107.081 758.473 102 760.013 97.124C761.193 93.4286 763.4 89.9384 765.71 86.6535C766.223 85.935 766.736 85.2677 767.301 84.6005C768.43 83.3174 769.816 82.7014 771.612 82.8041C773.049 82.8554 774.435 82.8041 775.77 82.8041C776.745 81.1103 777.053 79.4679 776.026 78.1335C774.281 75.9778 773.049 73.3601 769.97 72.4363C768.635 72.0257 767.403 71.2558 766.942 71.0505C765.915 69.4081 765.556 67.8169 764.683 67.5603C763.143 67.0984 762.014 66.6878 761.706 65.0454C761.655 64.6861 760.834 64.1215 760.526 64.1728C757.549 64.8401 755.804 62.8897 754.059 61.3499C752.776 61.7092 751.749 62.1198 750.723 62.2738C750.363 62.3251 749.85 61.7605 749.593 61.3499C749.439 61.1446 749.593 60.5287 749.747 60.4774C750.979 59.9641 751.852 59.1429 752.16 57.8597L752.108 57.8084C752.724 58.373 753.289 59.1429 754.059 59.5535C757.549 61.2986 760.731 59.4508 760.885 55.7554C760.936 54.7289 760.68 53.651 760.885 52.6758C761.706 48.6724 760.064 46.0035 756.317 44.3097C754.777 43.5911 753.648 42.5646 753.135 40.8196C753.597 39.9983 754.008 39.0745 754.572 38.202C754.726 37.9453 755.137 37.894 755.855 37.586C756.625 40.409 758.627 41.7948 762.168 41.9487C763.041 39.6904 763.657 36.8675 767.506 36.8675C768.943 37.9966 770.637 39.2798 772.69 40.8709C774.846 38.8692 777.515 39.1771 780.286 39.3311C781.21 39.3824 782.237 38.6639 783.109 38.3046C783.212 37.9453 783.212 36.6108 781.826 36.0976Z" fill="#678FC0" fill-opacity="0.8"/>
<path fill-rule="evenodd" clip-rule="evenodd" d="M573.34 504.909C572.313 503.267 571.441 501.881 570.722 500.649C568.515 500.239 568.464 501.625 568.053 502.702C566.873 502.856 565.59 502.6 565.333 501.471C564.615 498.699 562.459 497.364 559.79 496.389C559.995 494.952 560.201 493.823 560.355 492.643C560.611 490.795 557.942 491.205 557.737 489.717C557.737 489.563 557.686 489.358 557.686 489.204C557.326 486.894 555.376 488.331 554.247 487.921C553.015 486.637 551.988 485.098 550.551 484.122C546.907 481.659 543.109 479.349 539.876 476.372C538.849 475.448 537.412 474.884 536.231 474.063C535.256 473.395 526.582 468.519 525.504 468.211C524.991 468.057 524.529 467.698 523.965 467.647C523.451 467.595 522.681 467.647 522.476 467.903C522.168 468.417 521.911 469.238 522.117 469.751C522.835 471.804 524.632 473.241 526.479 474.268C529.559 476.013 531.509 478.631 533.716 481.197C536.18 484.122 539.106 486.791 540.081 490.589C540.132 490.743 540.286 490.897 540.389 491C543.674 493.515 545.008 497.159 546.343 500.701C547.061 502.548 548.088 504.037 549.473 505.474C553.682 509.785 558.148 513.789 563.588 517.382C564.307 517.382 565.385 517.484 566.462 517.33C567.489 517.176 568.515 516.714 569.542 516.406C570.107 512.711 570.671 509.169 571.236 505.628C571.903 505.474 572.519 505.217 573.34 504.909Z" fill="#678FC0" fill-opacity="0.8"/>
<path fill-rule="evenodd" clip-rule="evenodd" d="M606.854 530.57C608.24 529.646 609.574 530.108 611.011 530.365C611.73 530.519 612.397 530.057 611.987 528.773C608.651 528.773 605.982 526.31 602.44 526.258C601.927 526.258 601.465 525.129 600.952 524.462C598.847 523.487 596.794 522.409 594.639 521.536C593.458 521.075 592.329 521.229 591.097 522.05C588.223 523.897 584.835 523.538 582.423 521.742C579.6 519.586 576.572 519.227 573.287 519.073C571.08 518.97 569.848 519.791 569.797 522.306C571.234 523.282 572.62 524.821 574.416 525.335C580.267 527.08 586.478 526.977 592.432 528.773C596.64 530.057 601.465 528.876 605.776 530.621C606.084 530.775 606.597 530.724 606.854 530.57Z" fill="#678FC0" fill-opacity="0.8"/>
<path fill-rule="evenodd" clip-rule="evenodd" d="M589.2 500.596C589.354 502.239 590.124 503.83 590.586 505.472C592.177 505.626 593.409 505.78 594.641 505.934C595.36 506.037 596.335 505.986 596.694 506.396C598.131 508.193 599.825 507.885 601.57 507.217C602.853 506.755 603.982 507.115 605.265 507.32C607.575 507.679 608.91 509.373 610.501 510.502C612.502 509.835 614.248 509.322 615.582 508.86C616.301 506.755 617.276 505.01 617.378 503.214C617.532 501.007 618.354 499.313 619.739 497.619C620.612 496.542 621.177 495.258 621.741 493.975C623.64 489.767 623.589 489.767 627.849 488.175C626.925 487.252 626.104 486.43 625.283 485.558C624.821 485.045 624.051 484.326 624.153 483.915C624.821 481.965 623.435 480.682 622.665 479.142C621.741 477.397 622.46 475.703 623.435 474.266C624.051 473.342 626.104 473.753 625.95 472.008C625.796 470.16 628.567 470.879 628.619 469.236C628.413 468.98 628.259 468.569 628.003 468.466C625.642 467.234 623.23 466.259 621.998 463.59C621.228 461.897 618.713 461.999 617.378 463.488C616.916 464.001 616.455 464.617 616.249 465.233C615.479 467.799 613.118 469.339 611.014 470.16C608.191 471.238 606.651 473.086 605.009 475.139C603.264 477.346 601.621 479.553 598.388 480.22C596.797 480.528 595.719 481.914 594.949 483.402C594.487 484.275 593.923 485.147 593.255 486.122C590.997 485.609 588.893 485.147 586.994 484.737C585.094 485.866 584.222 487.457 584.325 489.202C584.478 492.282 585.197 495.412 587.404 497.773C588.533 498.646 589.098 499.313 589.2 500.596Z" fill="#678FC0" fill-opacity="0.8"/>
<path fill-rule="evenodd" clip-rule="evenodd" d="M770.071 606.84C767.813 604.428 766.222 601.964 766.735 598.68C764.938 597.653 763.399 596.832 762.372 596.216C761.038 592.674 760.37 589.338 758.625 586.618C757.393 584.719 754.724 583.641 752.671 582.153C752.363 581.947 752.056 581.793 751.696 581.639C749.797 580.818 749.13 579.33 748.976 577.482C748.771 574.248 748.771 570.964 746.666 568.089C746.204 567.474 746.41 566.396 746.358 565.574C746.256 564.189 746.256 562.803 746.153 561.417C745.896 558.851 744.665 557.722 741.739 557.106C741.226 557.003 740.764 556.798 740.507 556.746C739.07 552.076 737.736 547.662 736.299 543.248C736.145 542.786 735.426 542.426 734.656 541.811C733.835 543.607 733.014 544.993 732.603 546.43C731.628 549.92 730.345 553.41 730.191 556.952C729.986 561.93 728.292 566.396 726.444 570.861C725.212 573.838 721.568 574.608 719.258 572.298C716.333 569.373 712.535 567.679 709.096 565.523C706.427 563.881 704.271 561.982 702.321 559.518C704.117 556.592 703.655 552.794 707.351 550.844C708.223 550.382 708.48 548.791 709.147 547.508C708.172 547.148 707.299 546.533 706.991 546.738C705.76 547.508 704.528 547.097 703.296 547.046C699.549 546.892 696.264 545.403 692.826 544.428C692.056 544.223 691.132 544.223 690.311 544.12C689.9 546.019 688.668 547.046 686.615 547.097C684.562 547.148 682.406 547.097 681.021 548.586C678.044 551.768 673.886 554.437 674.605 559.775C672.193 559.621 670.037 559.467 667.933 559.313C667.933 559.364 667.984 559.364 667.984 559.415L667.881 559.313C666.547 557.773 665.879 555.669 663.672 554.95C659.207 556.233 659.207 556.233 651.56 562.649C651.252 563.983 650.944 565.266 650.687 566.396C649.353 566.601 648.326 566.755 647.556 566.858C647.043 568.346 648.48 570.04 646.273 570.604C645.247 569.578 644.323 568.654 643.604 567.987C640.627 569.013 639.447 570.656 639.601 573.273C639.652 574.146 638.933 575.172 638.369 575.994C637.702 577.02 636.829 577.893 636.162 578.919C634.673 581.075 632.62 582.204 629.9 582.615C626.872 583.128 623.895 583.898 620.918 584.668C619.378 585.078 617.89 586.207 616.35 586.259C613.014 586.31 610.55 588.004 607.727 589.133C604.904 590.262 602.954 592.674 599.926 593.444C599.464 593.547 599.002 594.574 599.002 595.189C599.002 597.653 598.232 599.86 597.154 602.118C596.128 604.171 596.538 606.532 597.257 608.688C597.565 609.663 598.129 610.587 598.386 611.614C598.797 613.153 597.873 613.821 596.436 614.129C596.436 614.077 596.436 614.077 596.436 614.026C596.333 614.847 595.974 615.72 596.128 616.541C597.308 624.035 599.361 631.374 599.361 639.022C599.361 639.689 599.772 640.356 599.823 641.023C599.977 644.873 599.413 648.568 596.487 651.597C594.28 653.906 594.331 654.419 596.59 656.729C597.103 657.242 597.513 657.807 598.078 658.269C600.798 660.527 604.032 660.887 607.317 659.86C609.524 659.193 611.833 658.32 613.681 656.934C617.377 654.214 621.329 654.112 625.64 654.727C627.282 654.933 628.925 655.138 630.567 654.933C631.748 654.779 633.288 654.317 633.903 653.496C635.803 650.929 638.318 649.544 641.397 648.722C642.218 648.466 642.937 647.747 643.758 647.388C644.733 646.977 645.862 646.413 646.838 646.567C650.841 647.183 654.434 646.002 658.027 644.565C662.081 642.974 666.341 643.744 670.499 643.846C670.858 643.846 671.32 644 671.474 644.206C673.065 646.156 675.529 646.31 677.736 647.029C680.199 647.85 682.612 648.774 682.406 651.904C682.406 652.212 682.612 652.572 682.868 652.828C685.178 655.189 685.229 658.115 685.281 661.092C685.281 661.656 685.691 662.221 686.051 663.247C688.206 661.246 689.746 659.141 691.85 658.012C694.211 656.78 695.033 653.906 698.42 653.085C698.009 654.522 697.907 655.549 697.496 656.421C696.983 657.499 696.11 658.423 695.494 659.501C694.981 660.425 694.571 661.4 694.365 662.426C694.109 663.504 692.415 663.966 692.826 665.249C696.213 666.019 695.751 662.529 697.599 661.759C699.703 663.863 697.753 666.07 697.958 668.175C698.779 668.226 699.447 668.277 700.216 668.329C701.192 671.254 702.013 674.077 701.243 677.362C700.473 680.801 702.372 684.035 705.862 685.42C709.096 686.703 711.919 688.449 714.947 690.553C716.795 689.321 718.642 688.192 720.336 686.96C721.003 686.447 721.363 685.472 722.543 685.985C724.442 687.627 723.467 690.861 726.136 692.041C728.548 691.733 730.345 690.553 731.987 689.167C734.4 687.063 737.222 686.19 740.456 686.036C744.613 685.882 745.127 685.215 746.358 681.366C747.488 677.927 748.001 674.18 750.567 671.357C753.339 668.277 755.186 664.736 757.137 661.194C758.523 658.731 760.216 656.524 762.526 654.779C765.708 652.315 767.556 649.03 768.942 645.489C770.379 641.588 771.559 637.585 773.356 633.838C774.485 631.477 774.947 629.27 774.331 626.858C773.818 624.753 773.818 622.803 774.382 620.75C775.768 615.309 773.664 610.741 770.071 606.84Z" fill="#678FC0" fill-opacity="0.8"/>
<path fill-rule="evenodd" clip-rule="evenodd" d="M713.666 499.673C711.51 502.29 707.712 503.06 705.916 506.088C705.608 506.602 704.786 506.858 703.965 507.371C702.271 505.934 700.68 504.549 699.141 503.214C699.141 501.828 699.243 500.596 699.089 499.416C698.935 498.287 698.525 497.158 698.268 496.182C690.415 493.565 689.337 493.719 685.898 498.03C686.72 498.646 687.849 499.159 688.311 499.98C689.44 501.982 691.134 502.547 693.341 502.393C694.059 502.342 694.778 502.239 695.548 502.188C696.369 502.136 697.036 502.341 696.779 503.368C694.778 503.933 692.725 504.548 690.672 505.113C691.596 506.909 692.417 508.552 693.443 510.502C694.726 509.63 695.702 508.963 696.933 508.09C698.987 509.27 701.091 510.708 703.4 511.631C705.915 512.658 708.687 513.069 711.305 513.89C712.485 514.249 713.666 514.916 714.692 515.584C715.411 516.045 716.181 516.661 716.591 517.38C717.669 519.536 718.593 521.743 719.62 524.052C718.439 524.874 717.361 525.489 716.489 526.311C715.873 526.875 715.308 527.696 716.232 528.928C717.464 528.826 718.85 528.723 720.287 528.518C722.802 528.158 725.009 528.364 726.548 530.673C727.267 531.751 728.242 532.47 729.628 532.624C731.989 532.932 734.299 533.342 736.66 533.496C737.481 533.548 738.713 533.137 739.072 532.572C739.534 531.854 739.329 530.725 739.431 529.801C740.355 528.98 741.228 528.107 742.203 527.337C743.897 526.003 745.796 525.541 747.797 526.567C750.364 527.85 753.187 528.672 754.572 531.495C755.137 532.726 756.523 533.548 757.344 534.728C758.832 536.781 760.885 537.602 763.452 537.705C765.864 537.808 768.174 538.116 770.329 539.245C770.637 539.399 771.151 539.142 772.229 538.988C769.252 536.319 766.172 534.317 764.324 531.597C762.425 528.672 758.627 527.132 757.806 523.282C758.422 522.872 759.038 522.513 759.5 522.051C760.68 520.921 760.526 519.844 759.038 519.228C756.882 518.304 754.675 517.431 752.673 516.61C750.877 512.761 750.928 512.709 747.541 510.656C746.463 509.989 745.334 509.424 744.153 509.014C738.559 506.961 732.913 504.908 727.267 502.957C723.828 501.777 720.338 500.802 716.848 499.673C715.667 499.262 714.333 498.851 713.666 499.673Z" fill="#678FC0" fill-opacity="0.8"/>
<path fill-rule="evenodd" clip-rule="evenodd" d="M671.321 317.928C667.522 321.161 665.521 325.729 662.236 329.322C661.774 329.784 661.825 331.119 662.185 331.632C662.441 332.042 663.724 331.786 664.854 331.888C664.854 333.12 665.008 334.301 664.802 335.43C664.494 337.278 665.316 338.817 666.137 340.357C666.599 341.178 668.344 341.538 669.011 340.871C669.883 340.049 670.91 339.279 670.91 337.894C670.91 336.354 670.756 334.763 671.115 333.274C671.731 330.759 670.653 328.963 668.908 327.372C668.395 326.91 667.676 326.653 668.241 325.575C670.859 325.473 672.501 322.65 675.427 322.804C678.455 322.958 680.251 319.622 683.382 320.238C683.793 321.88 683.998 323.42 684.563 324.857C685.025 326.037 686 326.859 687.54 326.551C690.311 322.855 690.516 322.445 691.081 319.468C692.518 319.519 694.007 319.878 695.392 319.622C696.522 319.416 697.651 317.774 698.421 317.979C700.833 318.544 700.114 316.08 701.398 315.67C701.86 315.516 702.321 315.259 702.578 315.156C703.297 315.823 703.964 316.85 704.529 316.799C705.196 316.747 706.068 315.926 706.428 315.259C706.992 314.181 707.043 313.001 706.53 311.769C705.966 310.332 705.401 308.792 705.504 307.303C705.658 304.275 705.144 301.504 703.502 298.27C706.787 295.344 706.171 291.803 705.452 288.518C704.682 285.131 702.578 282.256 699.704 279.998C698.369 280.152 697.138 280.306 696.06 280.409C694.212 282.462 695.084 284.72 695.854 286.414C698.78 292.676 696.316 298.219 693.904 303.762C693.185 305.404 691.389 306.431 689.541 306.482C688.617 306.482 687.694 305.404 686.616 304.686C686.924 308.279 685.127 311.307 684.357 314.438C682.356 314.643 680.713 314.694 679.122 314.951C677.48 315.208 675.837 315.464 674.349 316.029C673.322 316.439 672.193 317.158 671.321 317.928Z" fill="#678FC0" fill-opacity="0.8"/>
<path fill-rule="evenodd" clip-rule="evenodd" d="M700.114 255.413C699.293 254.745 698.523 253.975 697.753 253.257C696.573 252.179 695.29 251.255 693.801 250.947C692.569 251.563 692.621 252.436 693.134 253.206C694.622 255.515 694.828 258.082 694.879 260.648C694.879 261.982 695.033 263.317 695.084 264.651L692.313 266.499C690.517 269.219 690.157 271.786 692.826 274.249C693.391 274.814 693.596 275.738 694.161 276.816C695.444 275.789 696.419 274.916 697.497 274.044C696.06 272.863 694.879 271.94 693.647 270.913C694.315 270.554 694.622 270.348 694.93 270.194C697.702 268.603 700.32 268.398 702.886 270.656C703.553 271.221 704.836 271.221 705.914 271.478C706.222 270.759 706.53 270.297 706.582 269.784C706.889 267.269 708.224 265.729 710.944 265.165C711.868 264.959 712.689 264.087 713.818 263.368C712.638 261.777 711.663 260.391 710.688 259.057C705.093 258.697 703.451 258.184 700.114 255.413Z" fill="#678FC0" fill-opacity="0.8"/>
<path d="M51.5008 194.499L52.0583 195.329L52.0583 195.329L51.5008 194.499ZM32.0008 341.499L32.1555 342.487L32.0008 341.499ZM110 316.708L110.303 315.755L110 316.708ZM218.537 338.291L219.001 337.406L219.001 337.406L218.537 338.291ZM281.501 438.499L282.123 437.717L281.501 438.499ZM351.501 420.499L352.009 421.361L351.501 420.499ZM388.001 405.999L387.872 406.991L388.001 405.999ZM455.986 430.142C455.513 430.426 455.359 431.04 455.643 431.514L460.274 439.231C460.558 439.705 461.172 439.859 461.646 439.574C462.119 439.29 462.273 438.676 461.989 438.202L457.873 431.342L464.733 427.226C465.206 426.942 465.36 426.328 465.076 425.854C464.791 425.381 464.177 425.227 463.704 425.511L455.986 430.142ZM61.5006 333.791L61.1075 332.872L61.5006 333.791ZM108.037 189.291L108.199 188.305C107.575 188.202 106.966 188.094 106.37 187.98L106.182 188.962L105.995 189.944C106.607 190.061 107.233 190.173 107.875 190.278L108.037 189.291ZM102.509 188.162L102.746 187.191C101.496 186.886 100.304 186.562 99.1594 186.231L98.8816 187.192L98.6037 188.153C99.7707 188.49 100.99 188.821 102.272 189.134L102.509 188.162ZM95.2859 186.095L95.588 185.142C94.3629 184.753 93.1615 184.364 92.0015 184.002L91.7034 184.956L91.4054 185.911C92.5636 186.272 93.7376 186.653 94.9839 187.048L95.2859 186.095ZM88.0982 183.906L88.3515 182.939C87.1035 182.612 85.856 182.334 84.586 182.129L84.4266 183.116L84.2671 184.103C85.4596 184.296 86.643 184.559 87.845 184.874L88.0982 183.906ZM80.6917 182.759L80.7179 181.759C79.4629 181.726 78.171 181.78 76.8215 181.938L76.9383 182.932L77.055 183.925C78.308 183.777 79.5044 183.728 80.6655 183.759L80.6917 182.759ZM73.2488 183.611L73.0084 182.64C71.8292 182.932 70.6033 183.302 69.3201 183.759L69.6556 184.701L69.9911 185.643C71.2165 185.207 72.3789 184.856 73.4892 184.581L73.2488 183.611ZM66.1631 186.103L65.7576 185.189C64.66 185.676 63.5207 186.221 62.3343 186.831L62.791 187.72L63.2478 188.61C64.4034 188.017 65.5085 187.487 66.5687 187.017L66.1631 186.103ZM59.4725 189.521L58.9771 188.653C57.9309 189.249 56.8495 189.892 55.7299 190.582L56.2546 191.433L56.7793 192.284C57.8809 191.605 58.9428 190.975 59.9679 190.39L59.4725 189.521ZM53.0901 193.445L52.5425 192.609C52.0175 192.952 51.4845 193.305 50.9434 193.669L51.5008 194.499L52.0583 195.329C52.5931 194.97 53.1195 194.621 53.6377 194.282L53.0901 193.445ZM51.5008 194.499L50.9434 193.669C50.3881 194.042 49.8362 194.44 49.288 194.861L49.8978 195.654L50.5076 196.446C51.0236 196.049 51.5405 195.677 52.0583 195.329L51.5008 194.499ZM46.8474 198.285L46.1564 197.562C45.1941 198.482 44.2432 199.474 43.3049 200.533L44.0532 201.196L44.8015 201.86C45.7066 200.839 46.6193 199.887 47.5383 199.008L46.8474 198.285ZM41.4742 204.313L40.6839 203.701C39.8671 204.754 39.0605 205.857 38.2648 207.006L39.0869 207.575L39.9089 208.145C40.6857 207.023 41.4712 205.949 42.2645 204.926L41.4742 204.313ZM36.8816 210.92L36.0349 210.388C35.3264 211.515 34.6274 212.678 33.9386 213.874L34.805 214.373L35.6715 214.872C36.3482 213.698 37.034 212.557 37.7282 211.453L36.8816 210.92ZM32.8433 217.918L31.9605 217.448C31.3348 218.624 30.7183 219.826 30.1117 221.053L31.0081 221.496L31.9045 221.939C32.5027 220.73 33.1101 219.545 33.7261 218.387L32.8433 217.918ZM29.2735 225.127L28.3656 224.708C27.8024 225.928 27.2487 227.169 26.7049 228.427L27.6229 228.824L28.5409 229.221C29.0784 227.977 29.6254 226.751 30.1815 225.547L29.2735 225.127ZM26.0709 232.533L25.1441 232.157C24.6403 233.4 24.146 234.658 23.6617 235.929L24.5962 236.285L25.5307 236.641C26.0101 235.382 26.4992 234.138 26.9976 232.908L26.0709 232.533ZM23.1953 240.077L22.2539 239.74C21.8021 241.002 21.3602 242.274 20.9285 243.556L21.8762 243.875L22.824 244.194C23.2516 242.924 23.6894 241.664 24.1368 240.414L23.1953 240.077ZM20.6235 247.713L19.67 247.411C19.2642 248.694 18.8688 249.985 18.4841 251.281L19.4428 251.566L20.4015 251.85C20.7828 250.565 21.1747 249.286 21.5769 248.015L20.6235 247.713ZM18.3299 255.441L17.3664 255.174C17.0055 256.474 16.6556 257.778 16.317 259.085L17.2851 259.335L18.2531 259.586C18.5888 258.291 18.9357 256.998 19.2935 255.709L18.3299 255.441ZM16.3077 263.248L15.3355 263.014C15.0194 264.328 14.7151 265.644 14.423 266.958L15.3992 267.175L16.3754 267.392C16.6649 266.089 16.9666 264.785 17.28 263.482L16.3077 263.248ZM14.5596 271.119L13.5797 270.92C13.3092 272.248 13.0515 273.575 12.8071 274.899L13.7905 275.08L14.7739 275.262C15.0161 273.951 15.2714 272.636 15.5395 271.319L14.5596 271.119ZM13.0975 279.04L12.1109 278.877C11.8885 280.222 11.6805 281.562 11.4872 282.894L12.4768 283.038L13.4665 283.181C13.6579 281.862 13.8639 280.535 14.0841 279.203L13.0975 279.04ZM11.9397 287.029L10.9473 286.906C10.7798 288.257 10.6284 289.599 10.4933 290.93L11.4882 291.031L12.4831 291.132C12.6166 289.816 12.7664 288.489 12.9321 287.152L11.9397 287.029ZM11.1276 295.06L10.1305 294.983C10.0254 296.343 9.93871 297.69 9.87089 299.02L10.8696 299.071L11.8683 299.121C11.9352 297.809 12.0208 296.48 12.1246 295.137L11.1276 295.06ZM10.7218 303.099L9.72204 303.077C9.69182 304.459 9.68381 305.82 9.69867 307.158L10.6986 307.147L11.6985 307.136C11.6839 305.821 11.6918 304.482 11.7216 303.121L10.7218 303.099ZM10.8173 311.17L9.81846 311.219C9.88567 312.596 9.97993 313.943 10.1021 315.257L11.0978 315.164L12.0935 315.071C11.9742 313.789 11.882 312.471 11.8161 311.122L10.8173 311.17ZM11.5768 319.185L10.5875 319.331C10.793 320.726 11.0351 322.076 11.3155 323.376L12.293 323.166L13.2705 322.955C13.0003 321.702 12.7657 320.395 12.5661 319.039L11.5768 319.185ZM13.3023 327.072L12.3461 327.365C12.7657 328.736 13.2389 330.035 13.7684 331.254L14.6856 330.856L15.6029 330.457C15.1065 329.314 14.6587 328.086 14.2585 326.779L13.3023 327.072ZM16.5528 334.418L15.708 334.953C16.4904 336.188 17.3594 337.3 18.3204 338.273L19.0316 337.57L19.7428 336.867C18.8941 336.008 18.1125 335.011 17.3976 333.883L16.5528 334.418ZM22.208 340.013L21.719 340.885C22.9601 341.581 24.3023 342.089 25.7458 342.395L25.953 341.417L26.1603 340.439C24.9136 340.174 23.7615 339.737 22.6971 339.14L22.208 340.013ZM29.9409 341.714L29.99 342.713C30.6945 342.678 31.4163 342.603 32.1555 342.487L32.0008 341.499L31.846 340.511C31.1732 340.617 30.522 340.684 29.8919 340.715L29.9409 341.714ZM32.0008 341.499L32.1555 342.487C32.7593 342.393 33.3847 342.3 34.0358 342.206L33.8919 341.216L33.7479 340.227C33.0948 340.322 32.4608 340.415 31.846 340.511L32.0008 341.499ZM37.6742 340.656L37.8286 341.644C39.0244 341.457 40.2902 341.245 41.6323 340.99L41.4455 340.007L41.2586 339.025C39.9434 339.275 38.7001 339.483 37.5198 339.668L37.6742 340.656ZM45.1857 339.217L45.4129 340.191C46.6079 339.912 47.856 339.595 49.1613 339.231L48.8925 338.268L48.6238 337.305C47.3473 337.661 46.1269 337.971 44.9585 338.243L45.1857 339.217ZM52.5515 337.164L52.8599 338.115C54.0346 337.735 55.251 337.315 56.5114 336.852L56.1666 335.914L55.8217 334.975C54.5855 335.429 53.3934 335.84 52.2432 336.213L52.5515 337.164ZM59.7319 334.53L60.1098 335.456C60.6956 335.217 61.2902 334.969 61.8937 334.711L61.5006 333.791L61.1075 332.872C60.5141 333.126 59.9296 333.37 59.3541 333.605L59.7319 334.53ZM61.5006 333.791L61.8937 334.711C62.5485 334.431 63.2102 334.147 63.8779 333.859L63.4821 332.941L63.0863 332.022C62.4202 332.309 61.7603 332.593 61.1075 332.872L61.5006 333.791ZM67.4425 331.225L67.8412 332.142C69.1491 331.573 70.4718 330.997 71.8004 330.418L71.4013 329.502L71.0021 328.585C69.6724 329.164 68.3511 329.739 67.0437 330.308L67.4425 331.225ZM75.3617 327.782L75.7588 328.699C77.0822 328.127 78.4049 327.557 79.7202 326.995L79.3273 326.075L78.9345 325.156C77.6156 325.719 76.2898 326.29 74.9645 326.864L75.3617 327.782ZM83.3025 324.394L83.6882 325.317C85.035 324.753 86.3654 324.205 87.6718 323.676L87.2966 322.749L86.9214 321.822C85.6068 322.354 84.2691 322.906 82.9167 323.471L83.3025 324.394ZM91.312 321.16L91.6717 322.093C93.0559 321.559 94.3992 321.058 95.691 320.596L95.3546 319.654L95.0181 318.713C93.7081 319.181 92.349 319.688 90.9522 320.227L91.312 321.16ZM99.4468 318.276L99.7453 319.23C101.221 318.769 102.588 318.387 103.828 318.098L103.601 317.124L103.374 316.15C102.074 316.453 100.657 316.849 99.1482 317.322L99.4468 318.276ZM107.866 316.479L107.896 317.479C108.68 317.455 109.273 317.526 109.697 317.66L110 316.708L110.303 315.755C109.585 315.526 108.744 315.453 107.836 315.48L107.866 316.479ZM110 316.708L109.697 317.66C110.236 317.832 110.805 318.042 111.405 318.289L111.786 317.364L112.166 316.44C111.526 316.176 110.904 315.946 110.303 315.755L110 316.708ZM115.246 318.987L114.789 319.877C115.846 320.419 116.959 321.024 118.13 321.678L118.618 320.805L119.105 319.932C117.923 319.272 116.787 318.654 115.703 318.098L115.246 318.987ZM121.939 322.689L121.442 323.557C122.512 324.17 123.622 324.807 124.765 325.456L125.259 324.587L125.753 323.718C124.614 323.07 123.509 322.436 122.436 321.821L121.939 322.689ZM128.594 326.458L128.111 327.333C129.212 327.94 130.341 328.55 131.496 329.157L131.961 328.271L132.426 327.386C131.284 326.787 130.168 326.183 129.077 325.582L128.594 326.458ZM135.37 330.005L134.93 330.902C136.07 331.462 137.234 332.012 138.42 332.546L138.83 331.634L139.241 330.723C138.077 330.198 136.933 329.658 135.811 329.107L135.37 330.005ZM142.346 333.138L141.971 334.065C143.156 334.545 144.361 335.004 145.586 335.437L145.919 334.494L146.253 333.551C145.058 333.129 143.88 332.681 142.721 332.211L142.346 333.138ZM149.554 335.68L149.268 336.638C150.499 337.006 151.749 337.343 153.015 337.645L153.247 336.672L153.479 335.699C152.251 335.406 151.037 335.079 149.839 334.722L149.554 335.68ZM156.99 337.446L156.818 338.431C158.086 338.653 159.369 338.836 160.667 338.975L160.774 337.981L160.881 336.987C159.629 336.852 158.389 336.676 157.162 336.461L156.99 337.446ZM164.588 338.256L164.551 339.256C165.198 339.279 165.848 339.291 166.501 339.291V338.291V337.291C165.872 337.291 165.247 337.28 164.624 337.257L164.588 338.256ZM166.501 338.291V339.291C167.159 339.291 167.804 339.282 168.438 339.265L168.411 338.265L168.383 337.265C167.767 337.282 167.14 337.291 166.501 337.291V338.291ZM172.219 338.052L172.303 339.049C173.635 338.936 174.913 338.789 176.144 338.617L176.005 337.626L175.867 336.636C174.669 336.804 173.428 336.947 172.135 337.056L172.219 338.052ZM179.764 337.002L179.951 337.985C181.255 337.737 182.508 337.468 183.72 337.193L183.498 336.218L183.277 335.242C182.081 335.514 180.852 335.777 179.577 336.02L179.764 337.002ZM187.206 335.343L187.44 336.315C188.703 336.012 189.927 335.72 191.135 335.455L190.92 334.478L190.706 333.501C189.476 333.771 188.235 334.068 186.973 334.371L187.206 335.343ZM194.662 333.756L194.819 334.744C196.047 334.547 197.271 334.401 198.511 334.321L198.448 333.323L198.384 332.326C197.07 332.409 195.782 332.564 194.504 332.769L194.662 333.756ZM202.255 333.303L202.199 334.301C203.385 334.366 204.603 334.505 205.866 334.732L206.043 333.748L206.22 332.764C204.875 332.522 203.576 332.374 202.31 332.304L202.255 333.303ZM209.743 334.631L209.459 335.59C210.584 335.923 211.752 336.328 212.969 336.813L213.339 335.884L213.71 334.955C212.439 334.448 211.214 334.024 210.027 333.672L209.743 334.631ZM216.828 337.429L216.392 338.328C216.942 338.595 217.502 338.878 218.073 339.177L218.537 338.291L219.001 337.406C218.413 337.097 217.834 336.805 217.265 336.529L216.828 337.429ZM218.537 338.291L218.073 339.177C218.43 339.364 218.869 339.691 219.389 340.185L220.078 339.46L220.767 338.735C220.174 338.172 219.584 337.711 219.001 337.406L218.537 338.291ZM222.666 342.461L221.867 343.063C222.576 344.002 223.331 345.082 224.13 346.291L224.964 345.739L225.798 345.188C224.983 343.954 224.203 342.839 223.464 341.858L222.666 342.461ZM227.075 349.059L226.223 349.583C226.878 350.648 227.554 351.776 228.25 352.962L229.112 352.456L229.975 351.95C229.273 350.754 228.59 349.614 227.927 348.536L227.075 349.059ZM231.094 355.891L230.225 356.386C230.858 357.499 231.504 358.651 232.162 359.835L233.036 359.35L233.911 358.864C233.25 357.675 232.6 356.517 231.964 355.397L231.094 355.891ZM234.95 362.823L234.072 363.303C234.694 364.44 235.324 365.601 235.963 366.784L236.843 366.308L237.723 365.833C237.083 364.648 236.45 363.484 235.827 362.344L234.95 362.823ZM238.723 369.801L237.842 370.274C238.459 371.425 239.083 372.592 239.712 373.771L240.595 373.3L241.477 372.829C240.847 371.649 240.222 370.481 239.604 369.329L238.723 369.801ZM242.462 376.802L241.579 377.272C242.196 378.431 242.818 379.598 243.444 380.773L244.326 380.302L245.209 379.832C244.583 378.658 243.961 377.491 243.344 376.332L242.462 376.802ZM246.19 383.797L245.308 384.268C245.929 385.43 246.553 386.596 247.18 387.764L248.061 387.291L248.942 386.819C248.316 385.652 247.693 384.487 247.072 383.325L246.19 383.797ZM249.94 390.783L249.061 391.259C249.689 392.423 250.32 393.587 250.953 394.748L251.831 394.269L252.709 393.791C252.078 392.632 251.448 391.471 250.82 390.308L249.94 390.783ZM253.734 397.745L252.858 398.227C253.498 399.391 254.14 400.548 254.781 401.698L255.654 401.211L256.528 400.723C255.888 399.577 255.249 398.423 254.61 397.263L253.734 397.745ZM257.599 404.669L256.729 405.163C257.388 406.325 258.046 407.476 258.703 408.614L259.569 408.114L260.435 407.614C259.781 406.481 259.125 405.334 258.469 404.176L257.599 404.669ZM261.569 411.54L260.708 412.048C261.391 413.205 262.072 414.343 262.75 415.461L263.605 414.942L264.46 414.424C263.786 413.313 263.11 412.181 262.43 411.031L261.569 411.54ZM265.685 418.317L264.838 418.848C265.557 419.995 266.271 421.115 266.981 422.204L267.819 421.658L268.657 421.112C267.954 420.034 267.246 418.924 266.533 417.786L265.685 418.317ZM270.02 424.956L269.195 425.521C269.971 426.654 270.74 427.745 271.5 428.787L272.308 428.198L273.116 427.609C272.369 426.584 271.611 425.51 270.846 424.391L270.02 424.956ZM274.707 431.358L273.923 431.98C274.796 433.08 275.657 434.108 276.504 435.054L277.249 434.387L277.994 433.721C277.178 432.808 276.343 431.811 275.49 430.737L274.707 431.358ZM280.016 437.222L279.338 437.957C279.857 438.436 280.37 438.878 280.878 439.282L281.501 438.499L282.123 437.717C281.658 437.347 281.181 436.937 280.695 436.487L280.016 437.222ZM281.501 438.499L280.878 439.282C281.412 439.706 281.949 440.108 282.489 440.488L283.064 439.67L283.639 438.851C283.132 438.495 282.626 438.117 282.123 437.717L281.501 438.499ZM286.371 441.695L285.905 442.58C287.118 443.218 288.343 443.755 289.579 444.199L289.918 443.258L290.256 442.317C289.108 441.905 287.967 441.405 286.836 440.81L286.371 441.695ZM293.653 444.307L293.452 445.286C294.772 445.557 296.099 445.732 297.431 445.821L297.497 444.823L297.563 443.825C296.318 443.743 295.082 443.579 293.855 443.327L293.653 444.307ZM301.377 444.834L301.435 445.833C302.754 445.757 304.075 445.605 305.395 445.386L305.232 444.4L305.068 443.413C303.813 443.621 302.563 443.765 301.32 443.836L301.377 444.834ZM309.028 443.588L309.28 444.556C310.546 444.227 311.809 443.844 313.069 443.414L312.746 442.467L312.423 441.521C311.206 441.936 309.99 442.305 308.777 442.62L309.028 443.588ZM316.377 441.098L316.758 442.023C317.963 441.528 319.163 440.995 320.358 440.433L319.932 439.528L319.505 438.623C318.338 439.173 317.168 439.692 315.997 440.173L316.377 441.098ZM323.407 437.801L323.869 438.687C325.024 438.085 326.172 437.459 327.311 436.817L326.82 435.946L326.329 435.075C325.206 435.708 324.078 436.323 322.944 436.914L323.407 437.801ZM330.177 433.994L330.69 434.853C331.81 434.183 332.92 433.503 334.019 432.817L333.489 431.969L332.96 431.12C331.87 431.8 330.771 432.474 329.664 433.136L330.177 433.994ZM336.771 429.89L337.312 430.731C338.413 430.024 339.502 429.318 340.576 428.619L340.031 427.781L339.485 426.942C338.413 427.64 337.328 428.344 336.231 429.048L336.771 429.89ZM343.286 425.66L343.831 426.498C344.936 425.78 346.022 425.077 347.089 424.397L346.551 423.554L346.013 422.711C344.94 423.395 343.848 424.102 342.741 424.822L343.286 425.66ZM349.839 421.497L350.36 422.351C350.917 422.011 351.466 421.681 352.009 421.361L351.501 420.499L350.993 419.638C350.44 419.964 349.882 420.299 349.318 420.644L349.839 421.497ZM351.501 420.499L352.009 421.361C352.626 420.997 353.22 420.639 353.792 420.287L353.268 419.436L352.744 418.584C352.183 418.929 351.599 419.28 350.993 419.638L351.501 420.499ZM356.73 417.211L357.288 418.041C358.546 417.196 359.674 416.393 360.699 415.635L360.104 414.831L359.509 414.027C358.507 414.769 357.403 415.554 356.172 416.381L356.73 417.211ZM363.357 412.311L363.984 413.09C364.587 412.604 365.148 412.143 365.675 411.709C366.203 411.275 366.695 410.869 367.167 410.487L366.538 409.71L365.91 408.932C365.429 409.32 364.929 409.733 364.404 410.165C363.877 410.599 363.323 411.054 362.729 411.533L363.357 412.311ZM369.87 407.297L370.383 408.155C371.467 407.507 372.573 407.028 373.891 406.71L373.656 405.738L373.422 404.766C371.888 405.136 370.597 405.698 369.357 406.438L369.87 407.297ZM377.731 405.248L377.759 406.247C378.924 406.215 380.245 406.25 381.773 406.355L381.842 405.357L381.911 404.36C380.336 404.251 378.948 404.214 377.704 404.248L377.731 405.248ZM385.954 405.747L385.839 406.74C386.487 406.816 387.164 406.899 387.872 406.991L388.001 405.999L388.13 405.008C387.414 404.915 386.728 404.83 386.069 404.754L385.954 405.747ZM388.001 405.999L387.872 406.991C388.495 407.072 389.108 407.184 389.71 407.324L389.937 406.35L390.164 405.376C389.498 405.221 388.82 405.098 388.13 405.008L388.001 405.999ZM393.643 407.605L393.234 408.518C394.361 409.023 395.451 409.634 396.508 410.342L397.065 409.512L397.622 408.681C396.479 407.915 395.29 407.247 394.052 406.692L393.643 407.605ZM400.159 411.924L399.493 412.67C400.418 413.495 401.315 414.395 402.186 415.362L402.929 414.692L403.672 414.023C402.757 413.008 401.809 412.056 400.825 411.177L400.159 411.924ZM405.426 417.725L404.629 418.328C405.391 419.334 406.131 420.388 406.85 421.483L407.686 420.934L408.522 420.385C407.78 419.256 407.015 418.166 406.224 417.121L405.426 417.725ZM409.748 424.268L408.885 424.772C409.53 425.877 410.157 427.01 410.769 428.167L411.653 427.7L412.537 427.232C411.913 426.053 411.272 424.895 410.612 423.764L409.748 424.268ZM413.428 431.202L412.529 431.639C413.096 432.803 413.648 433.981 414.188 435.169L415.099 434.755L416.009 434.341C415.462 433.139 414.902 431.945 414.328 430.764L413.428 431.202ZM416.685 438.345L415.766 438.74C416.283 439.941 416.788 441.144 417.284 442.345L418.208 441.963L419.133 441.582C418.634 440.374 418.125 439.161 417.603 437.949L416.685 438.345ZM419.687 445.601L418.759 445.974C419.252 447.2 419.735 448.416 420.211 449.616L421.14 449.248L422.07 448.879C421.594 447.679 421.11 446.459 420.616 445.229L419.687 445.601ZM422.586 452.89L421.657 453.26C422.155 454.508 422.646 455.73 423.132 456.915L424.057 456.536L424.983 456.156C424.5 454.979 424.012 453.764 423.515 452.519L422.586 452.89ZM425.582 460.158L424.664 460.556C425.212 461.817 425.757 463.021 426.301 464.154L427.203 463.721L428.104 463.288C427.573 462.183 427.039 461.003 426.499 459.76L425.582 460.158ZM429.018 467.207L428.15 467.704C428.885 468.987 429.634 470.132 430.407 471.098L431.188 470.474L431.969 469.849C431.28 468.987 430.587 467.935 429.886 466.71L429.018 467.207ZM434.119 473.039L433.677 473.936C434.411 474.298 435.187 474.5 436 474.5V473.5V472.5C435.53 472.5 435.054 472.385 434.56 472.142L434.119 473.039ZM436 473.5V474.5C436.727 474.5 437.443 474.455 438.148 474.369L438.026 473.376L437.905 472.384C437.28 472.46 436.645 472.5 436 472.5V473.5ZM441.96 472.406L442.31 473.343C443.637 472.847 444.907 472.205 446.118 471.443L445.585 470.597L445.053 469.751C443.947 470.446 442.798 471.025 441.61 471.47L441.96 472.406ZM448.819 468.15L449.484 468.896C450.517 467.976 451.494 466.97 452.413 465.897L451.654 465.246L450.894 464.596C450.028 465.606 449.113 466.548 448.154 467.403L448.819 468.15ZM454.113 462.016L454.94 462.578C455.717 461.434 456.438 460.244 457.101 459.026L456.223 458.548L455.344 458.07C454.711 459.234 454.023 460.367 453.285 461.455L454.113 462.016ZM457.999 454.897L458.917 455.294C459.473 454.009 459.966 452.71 460.393 451.416L459.443 451.102L458.493 450.789C458.085 452.027 457.614 453.27 457.082 454.5L457.999 454.897ZM460.531 447.19L461.507 447.41C461.824 446.003 462.057 444.622 462.198 443.29L461.204 443.184L460.209 443.079C460.077 444.327 459.858 445.632 459.556 446.97L460.531 447.19ZM461.327 439.134L462.326 439.078C462.238 437.526 461.984 436.083 461.536 434.816L460.593 435.149L459.65 435.483C460.02 436.53 460.249 437.779 460.329 439.19L461.327 439.134ZM458.33 431.857L458.925 431.053C458.284 430.579 457.555 430.232 456.743 430.029L456.501 430.999L456.258 431.97C456.818 432.11 457.307 432.344 457.736 432.661L458.33 431.857Z" fill="#F9F9F9"/>
<path d="M31.5173 249.818L54.7825 204.368C55.5909 202.788 56.2158 198.31 55.8793 194.151L55.8542 193.917L41.1465 186.388L40.9418 186.505C37.3716 188.664 34.1039 191.789 33.2955 193.369L10.0303 238.819C8.60801 241.597 5.96298 257.813 12.2252 261.018C18.4875 264.224 30.095 252.596 31.5173 249.818Z" fill="#7FA3C9"/>
<path d="M31.0036 249.553L54.2688 204.104C55.0473 202.583 55.6847 198.221 55.3207 193.975L41.3025 186.799C37.6448 188.987 34.4646 192.084 33.7011 193.575L10.4359 239.025C8.95371 241.92 6.61821 257.815 12.306 260.726C17.9937 263.638 29.5215 252.449 31.0036 249.553Z" fill="#95C6FF"/>
<path d="M34.93 197.118L29.6302 207.471C32.0833 208.912 34.7386 210.382 37.4388 211.764C40.1391 213.146 42.8842 214.441 45.487 215.588L50.7867 205.235L34.93 197.118Z" fill="white"/>
<path d="M47.7331 214.6L48.1672 213.752L45.6968 212.487L47.1789 209.592L49.6494 210.856L53.0179 204.276L34.346 194.718L30.9775 201.298L33.4479 202.563L31.9658 205.459L29.4953 204.194L29.0612 205.042C31.9738 206.718 35.0888 208.423 38.3061 210.07C41.5234 211.717 44.6707 213.217 47.7331 214.6Z" fill="white"/>
<path d="M44.2805 220.067L45.0273 220.449L46.0154 218.519L45.2686 218.137L44.2805 220.067Z" fill="black"/>
<path d="M31.5578 244.928L32.3047 245.311L33.2928 243.38L32.5459 242.998L31.5578 244.928Z" fill="black"/>
<path d="M37.9172 232.495L38.6641 232.877L39.6522 230.947L38.9053 230.564L37.9172 232.495Z" fill="black"/>
<path d="M25.9484 210.684L26.6953 211.066L27.6834 209.136L26.9365 208.754L25.9484 210.684Z" fill="black"/>
<path d="M13.2258 235.543L13.9727 235.926L14.9608 233.995L14.2139 233.613L13.2258 235.543Z" fill="black"/>
<path d="M19.5852 223.114L20.332 223.496L21.3201 221.566L20.5733 221.183L19.5852 223.114Z" fill="black"/>
<path d="M34.5828 201.481L47.3945 208.039L47.7239 207.396L34.9121 200.837L34.5828 201.481Z" fill="#557CA9"/>
<path d="M39.2032 208.314C38.4563 207.931 37.989 207.286 38.1836 206.906C38.3783 206.526 39.1749 206.528 39.9218 206.91C40.6687 207.292 41.136 207.937 40.9413 208.318C40.7467 208.698 39.9501 208.696 39.2032 208.314Z" fill="black"/>
<path d="M41.7433 213.122L44.1562 214.357L44.3209 214.036L41.908 212.801L41.7433 213.122Z" fill="black"/>
<path d="M31.3487 207.802L33.7617 209.037L33.9264 208.715L31.5134 207.48L31.3487 207.802Z" fill="black"/>
<path d="M41.0532 194.793L49.0391 198.881L51.1201 194.816L43.1342 190.728L41.0532 194.793Z" fill="white"/>
<path d="M55.2932 199.683L54.3165 199.183L52.6248 202.488L54.5781 203.488C54.8399 202.552 55.1515 201.235 55.2932 199.683Z" fill="white"/>
<path d="M36.7971 190.215C35.6213 191.237 34.7352 192.26 34.1287 193.02L36.082 194.02L37.7738 190.715L36.7971 190.215Z" fill="white"/>
<path d="M50.9859 192.384L53.2266 193.531L53.4811 193.034L51.2404 191.887L50.9859 192.384Z" fill="black"/>
<path d="M42.943 188.267L45.1836 189.414L45.4381 188.917L43.1975 187.77L42.943 188.267Z" fill="black"/>
<path d="M51.4494 199.269C51.1047 199.092 50.9497 198.828 51.0246 198.682L52.0576 196.664C52.1474 196.488 52.4945 196.519 52.7818 196.666C53.1265 196.842 53.2815 197.106 53.2066 197.252L52.1736 199.27C52.1412 199.475 51.7941 199.445 51.4494 199.269Z" fill="white"/>
<path d="M39.3283 193.063C38.9836 192.887 38.8286 192.623 38.9035 192.477L39.9365 190.459C40.0263 190.283 40.3735 190.313 40.6607 190.46C41.0054 190.637 41.1604 190.901 41.0855 191.047L40.0525 193.065C40.0201 193.27 39.673 193.24 39.3283 193.063Z" fill="white"/>
<path d="M29.6455 197.813L30.2593 196.614C30.4839 196.175 31.353 196.177 32.2147 196.618C33.0765 197.059 33.5863 197.763 33.3617 198.202L32.7479 199.401C32.5982 199.693 31.4673 200.628 30.4332 200.099C29.3416 199.54 29.4958 198.105 29.6455 197.813Z" fill="#557CA9"/>
<path d="M29.6455 197.813L30.2593 196.614C30.4839 196.175 31.353 196.177 32.2147 196.618C33.0765 197.059 33.5863 197.763 33.3617 198.202L32.7479 199.401C32.5982 199.693 31.4673 200.628 30.4332 200.099C29.3416 199.54 29.4958 198.105 29.6455 197.813ZM32.6723 197.849C32.7921 197.615 32.4947 197.204 32.0351 196.969C31.5755 196.734 31.0685 196.733 30.9487 196.967L30.3349 198.166C30.1403 198.546 30.3405 199.571 30.6278 199.718C30.9151 199.865 31.8639 199.428 32.0585 199.048L32.6723 197.849Z" fill="white"/>
<path d="M32.4641 198.112L33.2109 198.494L33.2708 198.377L32.5239 197.995L32.4641 198.112Z" fill="#557CA9"/>
<path d="M30.05 196.875L30.7969 197.258L30.8568 197.141L30.1099 196.759L30.05 196.875Z" fill="#557CA9"/>
<path d="M30.2656 198.721C30.2806 198.691 30.2531 198.604 30.2681 198.574L29.5212 198.192C29.5062 198.221 29.5337 198.309 29.5187 198.338L30.2656 198.721Z" fill="#557CA9"/>
<path d="M31.7622 199.341C31.7473 199.37 31.6599 199.399 31.6449 199.428L32.3918 199.81C32.4067 199.781 32.4941 199.752 32.5091 199.723L31.7622 199.341Z" fill="#557CA9"/>
<path d="M50.1494 208.311L50.7632 207.112C50.9878 206.673 51.8569 206.675 52.7186 207.116C53.5804 207.557 54.0902 208.261 53.8656 208.7L53.2518 209.899C53.1021 210.191 51.9712 211.126 50.9371 210.597C49.9029 210.067 49.9997 208.603 50.1494 208.311Z" fill="#557CA9"/>
<path d="M50.1533 208.309L50.7671 207.11C50.9917 206.671 51.8608 206.673 52.7226 207.114C53.5843 207.555 54.0941 208.259 53.8695 208.698L53.2557 209.897C53.106 210.19 51.9751 211.124 50.941 210.595C49.9068 210.065 50.0036 208.601 50.1533 208.309ZM53.1801 208.345C53.2999 208.111 53.0025 207.7 52.5429 207.465C52.0833 207.23 51.5763 207.229 51.4566 207.463L50.8427 208.662C50.6481 209.042 50.8483 210.067 51.1356 210.214C51.4229 210.361 52.3717 209.924 52.5663 209.544L53.1801 208.345Z" fill="white"/>
<path d="M53.0305 208.641L53.7773 209.023L53.8372 208.906L53.0904 208.524L53.0305 208.641Z" fill="#557CA9"/>
<path d="M50.6164 207.405L51.3633 207.787L51.4232 207.67L50.6763 207.288L50.6164 207.405Z" fill="#557CA9"/>
<path d="M50.832 209.248C50.847 209.219 50.8195 209.131 50.8345 209.102L50.0876 208.719C50.0726 208.749 50.1001 208.836 50.0852 208.866L50.832 209.248Z" fill="#557CA9"/>
<path d="M52.3247 209.866C52.3098 209.895 52.2224 209.924 52.2074 209.954L52.9543 210.336C52.9692 210.307 53.0566 210.277 53.0716 210.248L52.3247 209.866Z" fill="#557CA9"/>
<path d="M28.2228 253L9.32107 243.324C8.29723 249.149 8.1116 258.577 12.3056 260.724C16.557 262.9 24.0965 257.236 28.2228 253Z" fill="white"/>
<path d="M18.2929 253.418L19.2695 253.918L19.7037 253.07L18.727 252.57L18.2929 253.418Z" fill="#4F91D3"/>
<path d="M17.6952 254.59L18.6719 255.09L19.106 254.242L18.1294 253.742L17.6952 254.59Z" fill="#4F91D3"/>
<path d="M13.8124 251.129L14.7891 251.629L15.2232 250.781L14.2465 250.281L13.8124 251.129Z" fill="#4F91D3"/>
<path d="M13.2147 252.299L14.1914 252.799L14.6256 251.951L13.6489 251.451L13.2147 252.299Z" fill="#4F91D3"/>
<path d="M16.015 249.228L19.5195 251.021L19.9238 250.232L16.4192 248.438L16.015 249.228Z" fill="black"/>
<path d="M16.5578 260.911L9.721 257.411C10.3036 258.964 11.1382 260.167 12.3447 260.784C13.5662 261.373 15.0146 261.376 16.5578 260.911Z" fill="white"/>
<path d="M25.9397 249.657L26.0595 249.423L28.0128 250.423L27.8931 250.657L25.9397 249.657ZM25.7301 250.067L25.8499 249.833L27.8032 250.833L27.6835 251.067L25.7301 250.067ZM25.5205 250.476L25.6403 250.242L27.5937 251.242L27.4739 251.476L25.5205 250.476ZM25.3109 250.886L25.4307 250.652L27.3841 251.651L27.2643 251.885L25.3109 250.886ZM25.1013 251.295L25.2211 251.061L27.1745 252.061L27.0547 252.295L25.1013 251.295Z" fill="white"/>
<path d="M11.4625 242.249L11.5823 242.015L13.5356 243.015L13.4159 243.249L11.4625 242.249ZM11.2529 242.658L11.3727 242.425L13.326 243.424L13.2063 243.658L11.2529 242.658ZM11.0433 243.068L11.1631 242.834L13.1164 243.834L12.9967 244.068L11.0433 243.068ZM10.8337 243.477L10.9535 243.243L12.9068 244.243L12.7871 244.477L10.8337 243.477ZM12.6823 244.682L12.5625 244.916L10.6091 243.916L10.7289 243.682L12.6823 244.682Z" fill="white"/>
<path d="M49.9715 207.113C49.8566 207.054 49.8141 206.995 49.844 206.937C49.874 206.878 49.9464 206.878 50.0613 206.937L52.187 208.025C52.3019 208.084 52.3444 208.143 52.3144 208.201C52.2845 208.26 52.2121 208.26 52.0972 208.201L49.9715 207.113Z" fill="black"/>
<path d="M49.284 208.458C49.1691 208.4 49.1266 208.341 49.1565 208.282C49.1865 208.224 49.2589 208.224 49.3738 208.283L51.4995 209.371C51.6144 209.43 51.6569 209.489 51.6269 209.547C51.597 209.606 51.5246 209.605 51.4097 209.547L49.284 208.458Z" fill="black"/>
<path d="M31.7058 197.761C31.5909 197.702 31.5484 197.644 31.5784 197.585C31.6083 197.527 31.6808 197.527 31.7957 197.586L33.9214 198.674C34.0363 198.733 34.0788 198.791 34.0488 198.85C34.0189 198.908 33.9465 198.908 33.8315 198.849L31.7058 197.761Z" fill="black"/>
<path d="M31.0183 199.107C30.9034 199.048 30.8609 198.989 30.8909 198.931C30.9208 198.872 30.9933 198.873 31.1082 198.931L33.2339 200.019C33.3488 200.078 33.3913 200.137 33.3613 200.195C33.3314 200.254 33.259 200.254 33.144 200.195L31.0183 199.107Z" fill="black"/>
</svg>
