<svg width="774" height="693" viewBox="0 0 774 693" fill="none" xmlns="http://www.w3.org/2000/svg">
<path d="M98.9284 190.104C99.377 189.782 99.4796 189.157 99.1575 188.708L93.9087 181.397C93.5866 180.949 92.9618 180.846 92.5131 181.168C92.0645 181.49 91.9619 182.115 92.284 182.564L96.9497 189.062L90.4511 193.728C90.0025 194.05 89.8999 194.675 90.222 195.124C90.5441 195.572 91.1689 195.675 91.6175 195.353L98.9284 190.104ZM41.8094 194.499L42.3669 195.329L42.3669 195.329L41.8094 194.499ZM22.3094 341.499L22.4641 342.487L22.3094 341.499ZM100.309 316.708L100.612 315.755L100.309 316.708ZM208.846 338.291L209.31 337.406L209.31 337.406L208.846 338.291ZM271.809 438.499L272.431 437.717L271.809 438.499ZM341.809 420.499L342.317 421.361L341.809 420.499ZM378.309 405.999L378.18 406.991L378.309 405.999ZM51.8092 333.791L51.4161 332.872L51.8092 333.791ZM98.3452 189.291L98.5072 188.305C97.8835 188.202 97.2744 188.094 96.6788 187.98L96.4911 188.962L96.3033 189.944C96.9156 190.061 97.5419 190.173 98.1832 190.278L98.3452 189.291ZM92.8177 188.162L93.0546 187.191C91.8042 186.886 90.613 186.562 89.468 186.231L89.1902 187.192L88.9123 188.153C90.0793 188.49 91.2982 188.821 92.5808 189.134L92.8177 188.162ZM85.5945 186.095L85.8966 185.142C84.6715 184.753 83.4701 184.364 82.3101 184.002L82.012 184.956L81.714 185.911C82.8722 186.272 84.0462 186.653 85.2925 187.048L85.5945 186.095ZM78.4068 183.906L78.6601 182.939C77.4121 182.612 76.1646 182.334 74.8946 182.129L74.7352 183.116L74.5757 184.103C75.7682 184.296 76.9516 184.559 78.1536 184.874L78.4068 183.906ZM71.0003 182.759L71.0265 181.759C69.7715 181.726 68.4796 181.78 67.1301 181.938L67.2469 182.932L67.3636 183.925C68.6166 183.777 69.813 183.728 70.9741 183.759L71.0003 182.759ZM63.5574 183.611L63.317 182.64C62.1378 182.932 60.9119 183.302 59.6287 183.759L59.9642 184.701L60.2996 185.643C61.5251 185.207 62.6875 184.856 63.7978 184.581L63.5574 183.611ZM56.4717 186.103L56.0662 185.189C54.9686 185.676 53.8293 186.221 52.6429 186.831L53.0996 187.72L53.5564 188.61C54.712 188.017 55.8171 187.487 56.8773 187.017L56.4717 186.103ZM49.7811 189.521L49.2857 188.653C48.2395 189.249 47.1581 189.892 46.0385 190.582L46.5632 191.433L47.0879 192.284C48.1895 191.605 49.2514 190.975 50.2765 190.39L49.7811 189.521ZM43.3987 193.445L42.8511 192.609C42.3261 192.952 41.7931 193.305 41.252 193.669L41.8094 194.499L42.3669 195.329C42.9017 194.97 43.4281 194.621 43.9463 194.282L43.3987 193.445ZM41.8094 194.499L41.252 193.669C40.6967 194.042 40.1448 194.44 39.5966 194.861L40.2064 195.654L40.8162 196.446C41.3322 196.049 41.8491 195.677 42.3669 195.329L41.8094 194.499ZM37.156 198.285L36.465 197.562C35.5026 198.482 34.5518 199.474 33.6135 200.533L34.3618 201.196L35.1101 201.86C36.0152 200.839 36.9279 199.887 37.8469 199.008L37.156 198.285ZM31.7828 204.313L30.9925 203.701C30.1757 204.754 29.3691 205.857 28.5734 207.006L29.3955 207.575L30.2175 208.145C30.9943 207.023 31.7798 205.949 32.5731 204.926L31.7828 204.313ZM27.1902 210.92L26.3435 210.388C25.635 211.515 24.936 212.678 24.2472 213.874L25.1136 214.373L25.9801 214.872C26.6568 213.698 27.3426 212.557 28.0368 211.453L27.1902 210.92ZM23.1519 217.918L22.2691 217.448C21.6434 218.624 21.0269 219.826 20.4203 221.053L21.3167 221.496L22.2131 221.939C22.8113 220.73 23.4187 219.545 24.0347 218.387L23.1519 217.918ZM19.5821 225.127L18.6742 224.708C18.111 225.928 17.5573 227.169 17.0135 228.427L17.9315 228.824L18.8495 229.221C19.387 227.977 19.934 226.751 20.49 225.547L19.5821 225.127ZM16.3794 232.533L15.4527 232.157C14.9489 233.4 14.4546 234.658 13.9703 235.929L14.9048 236.285L15.8393 236.641C16.3186 235.382 16.8078 234.138 17.3062 232.908L16.3794 232.533ZM13.5039 240.077L12.5625 239.74C12.1107 241.002 11.6688 242.274 11.2371 243.556L12.1848 243.875L13.1325 244.194C13.5602 242.924 13.998 241.664 14.4454 240.414L13.5039 240.077ZM10.932 247.713L9.9786 247.411C9.57282 248.694 9.1774 249.985 8.79274 251.281L9.75143 251.566L10.7101 251.85C11.0914 250.565 11.4833 249.286 11.8855 248.015L10.932 247.713ZM8.63852 255.441L7.67498 255.174C7.31406 256.474 6.96415 257.778 6.62562 259.085L7.59368 259.335L8.56173 259.586C8.89735 258.291 9.24426 256.998 9.60206 255.709L8.63852 255.441ZM6.61632 263.248L5.64406 263.014C5.32796 264.328 5.02367 265.644 4.73157 266.958L5.70777 267.175L6.68397 267.392C6.97354 266.089 7.2752 264.785 7.58858 263.482L6.61632 263.248ZM4.86822 271.119L3.88832 270.92C3.61779 272.248 3.36013 273.575 3.11574 274.899L4.09911 275.08L5.08249 275.262C5.32465 273.951 5.57999 272.636 5.84812 271.319L4.86822 271.119ZM3.40607 279.04L2.41945 278.877C2.19712 280.222 1.98909 281.562 1.79579 282.894L2.78543 283.038L3.77507 283.181C3.96645 281.862 4.17245 280.535 4.39268 279.203L3.40607 279.04ZM2.24829 287.029L1.25588 286.906C1.08843 288.257 0.936946 289.599 0.801906 290.93L1.7968 291.031L2.79169 291.132C2.9252 289.816 3.07501 288.489 3.2407 287.152L2.24829 287.029ZM1.43615 295.06L0.439121 294.983C0.334031 296.343 0.247305 297.69 0.179482 299.02L1.17818 299.071L2.17689 299.121C2.24379 297.809 2.32939 296.48 2.43318 295.137L1.43615 295.06ZM1.03039 303.099L0.0306291 303.077C0.00041806 304.459 -0.00759669 305.82 0.00726571 307.158L1.0072 307.147L2.00714 307.136C1.99254 305.821 2.0004 304.482 2.03015 303.121L1.03039 303.099ZM1.12586 311.17L0.127051 311.219C0.194266 312.596 0.288522 313.943 0.410704 315.257L1.40641 315.164L2.40211 315.071C2.28281 313.789 2.19055 312.471 2.12467 311.122L1.12586 311.17ZM1.8854 319.185L0.896065 319.331C1.10154 320.726 1.34374 322.076 1.62406 323.376L2.60159 323.166L3.57912 322.955C3.30887 321.702 3.07433 320.395 2.87473 319.039L1.8854 319.185ZM3.61093 327.072L2.65473 327.365C3.07433 328.736 3.54751 330.035 4.07695 331.254L4.99421 330.856L5.91148 330.457C5.41514 329.314 4.96725 328.086 4.56713 326.779L3.61093 327.072ZM6.86143 334.418L6.01662 334.953C6.79895 336.188 7.66795 337.3 8.62901 338.273L9.34018 337.57L10.0514 336.867C9.20267 336.008 8.42106 335.011 7.70624 333.883L6.86143 334.418ZM12.5166 340.013L12.0276 340.885C13.2687 341.581 14.6109 342.089 16.0544 342.395L16.2616 341.417L16.4689 340.439C15.2222 340.174 14.0701 339.737 13.0057 339.14L12.5166 340.013ZM20.2495 341.714L20.2986 342.713C21.0031 342.678 21.7249 342.603 22.4641 342.487L22.3094 341.499L22.1546 340.511C21.4818 340.617 20.8306 340.684 20.2005 340.715L20.2495 341.714ZM22.3094 341.499L22.4641 342.487C23.0679 342.393 23.6933 342.3 24.3444 342.206L24.2004 341.216L24.0565 340.227C23.4034 340.322 22.7694 340.415 22.1546 340.511L22.3094 341.499ZM27.9828 340.656L28.1372 341.644C29.333 341.457 30.5987 341.245 31.9409 340.99L31.754 340.007L31.5672 339.025C30.252 339.275 29.0087 339.483 27.8284 339.668L27.9828 340.656ZM35.4943 339.217L35.7215 340.191C36.9165 339.912 38.1646 339.595 39.4699 339.231L39.2011 338.268L38.9324 337.305C37.6559 337.661 36.4355 337.971 35.2671 338.243L35.4943 339.217ZM42.8601 337.164L43.1685 338.115C44.3432 337.735 45.5596 337.315 46.82 336.852L46.4752 335.914L46.1303 334.975C44.8941 335.429 43.702 335.84 42.5518 336.213L42.8601 337.164ZM50.0405 334.53L50.4184 335.456C51.0042 335.217 51.5988 334.969 52.2023 334.711L51.8092 333.791L51.4161 332.872C50.8226 333.126 50.2382 333.37 49.6627 333.605L50.0405 334.53ZM51.8092 333.791L52.2023 334.711C52.8571 334.431 53.5188 334.147 54.1864 333.859L53.7907 332.941L53.3949 332.022C52.7288 332.309 52.0688 332.593 51.4161 332.872L51.8092 333.791ZM57.7511 331.225L58.1498 332.142C59.4577 331.573 60.7804 330.997 62.109 330.418L61.7098 329.502L61.3107 328.585C59.981 329.164 58.6597 329.739 57.3523 330.308L57.7511 331.225ZM65.6703 327.782L66.0674 328.699C67.3907 328.127 68.7135 327.557 70.0288 326.995L69.6359 326.075L69.2431 325.156C67.9241 325.719 66.5984 326.29 65.2731 326.864L65.6703 327.782ZM73.6111 324.394L73.9968 325.317C75.3435 324.753 76.674 324.205 77.9804 323.676L77.6052 322.749L77.23 321.822C75.9154 322.354 74.5777 322.906 73.2253 323.471L73.6111 324.394ZM81.6206 321.16L81.9803 322.093C83.3645 321.559 84.7078 321.058 85.9996 320.596L85.6632 319.654L85.3267 318.713C84.0167 319.181 82.6576 319.688 81.2608 320.227L81.6206 321.16ZM89.7553 318.276L90.0539 319.23C91.5293 318.769 92.8968 318.387 94.1366 318.098L93.9096 317.124L93.6827 316.15C92.3826 316.453 90.9658 316.849 89.4568 317.322L89.7553 318.276ZM98.175 316.479L98.2049 317.479C98.9887 317.455 99.582 317.526 100.006 317.66L100.309 316.708L100.612 315.755C99.8939 315.526 99.0529 315.453 98.145 315.48L98.175 316.479ZM100.309 316.708L100.006 317.66C100.545 317.832 101.114 318.042 101.714 318.289L102.094 317.364L102.475 316.44C101.834 316.176 101.213 315.946 100.612 315.755L100.309 316.708ZM105.555 318.987L105.098 319.877C106.154 320.419 107.268 321.024 108.439 321.678L108.926 320.805L109.414 319.932C108.232 319.272 107.096 318.654 106.012 318.098L105.555 318.987ZM112.248 322.689L111.751 323.557C112.821 324.17 113.93 324.807 115.073 325.456L115.567 324.587L116.061 323.718C114.922 323.07 113.818 322.436 112.745 321.821L112.248 322.689ZM118.903 326.458L118.42 327.333C119.52 327.94 120.649 328.55 121.805 329.157L122.27 328.271L122.734 327.386C121.593 326.787 120.476 326.183 119.386 325.582L118.903 326.458ZM125.679 330.005L125.238 330.902C126.379 331.462 127.542 332.012 128.728 332.546L129.139 331.634L129.55 330.723C128.386 330.198 127.242 329.658 126.119 329.107L125.679 330.005ZM132.654 333.138L132.279 334.065C133.465 334.545 134.67 335.004 135.894 335.437L136.228 334.494L136.561 333.551C135.367 333.129 134.189 332.681 133.029 332.211L132.654 333.138ZM139.862 335.68L139.576 336.638C140.808 337.006 142.057 337.343 143.323 337.645L143.555 336.672L143.787 335.699C142.559 335.406 141.346 335.079 140.148 334.722L139.862 335.68ZM147.299 337.446L147.127 338.431C148.395 338.653 149.678 338.836 150.976 338.975L151.083 337.981L151.189 336.987C149.937 336.852 148.697 336.676 147.471 336.461L147.299 337.446ZM154.896 338.256L154.86 339.256C155.506 339.279 156.156 339.291 156.809 339.291V338.291V337.291C156.181 337.291 155.555 337.28 154.933 337.257L154.896 338.256ZM156.809 338.291V339.291C157.467 339.291 158.113 339.282 158.747 339.265L158.719 338.265L158.692 337.265C158.076 337.282 157.449 337.291 156.809 337.291V338.291ZM162.528 338.052L162.612 339.049C163.944 338.936 165.222 338.789 166.453 338.617L166.314 337.626L166.175 336.636C164.978 336.804 163.737 336.947 162.444 337.056L162.528 338.052ZM170.073 337.002L170.26 337.985C171.564 337.737 172.816 337.468 174.028 337.193L173.807 336.218L173.586 335.242C172.389 335.514 171.16 335.777 169.886 336.02L170.073 337.002ZM177.515 335.343L177.748 336.315C179.011 336.012 180.235 335.72 181.443 335.455L181.229 334.478L181.014 333.501C179.785 333.771 178.543 334.068 177.281 334.371L177.515 335.343ZM184.97 333.756L185.128 334.744C186.356 334.547 187.58 334.401 188.82 334.321L188.756 333.323L188.693 332.326C187.379 332.409 186.091 332.564 184.812 332.769L184.97 333.756ZM192.563 333.303L192.508 334.301C193.694 334.366 194.911 334.505 196.175 334.732L196.352 333.748L196.529 332.764C195.183 332.522 193.884 332.374 192.618 332.304L192.563 333.303ZM200.051 334.631L199.767 335.59C200.893 335.923 202.06 336.328 203.278 336.813L203.648 335.884L204.018 334.955C202.747 334.448 201.522 334.024 200.335 333.672L200.051 334.631ZM207.137 337.429L206.7 338.328C207.25 338.595 207.811 338.878 208.382 339.177L208.846 338.291L209.31 337.406C208.721 337.097 208.143 336.805 207.573 336.529L207.137 337.429ZM208.846 338.291L208.382 339.177C208.739 339.364 209.178 339.691 209.698 340.185L210.387 339.46L211.076 338.735C210.483 338.172 209.892 337.711 209.31 337.406L208.846 338.291ZM212.974 342.461L212.176 343.063C212.884 344.002 213.64 345.082 214.439 346.291L215.273 345.739L216.107 345.188C215.292 343.954 214.512 342.839 213.773 341.858L212.974 342.461ZM217.384 349.059L216.532 349.583C217.186 350.648 217.863 351.776 218.558 352.962L219.421 352.456L220.283 351.95C219.582 350.754 218.899 349.614 218.235 348.536L217.384 349.059ZM221.403 355.891L220.534 356.386C221.166 357.499 221.813 358.651 222.471 359.835L223.345 359.35L224.219 358.864C223.558 357.675 222.909 356.517 222.272 355.397L221.403 355.891ZM225.258 362.823L224.381 363.303C225.002 364.44 225.633 365.601 226.272 366.784L227.152 366.308L228.031 365.833C227.391 364.648 226.759 363.484 226.136 362.344L225.258 362.823ZM229.032 369.801L228.15 370.274C228.768 371.425 229.391 372.592 230.021 373.771L230.903 373.3L231.785 372.829C231.155 371.649 230.531 370.481 229.913 369.329L229.032 369.801ZM232.77 376.802L231.888 377.272C232.505 378.431 233.127 379.598 233.752 380.773L234.635 380.302L235.517 379.832C234.892 378.658 234.27 377.491 233.653 376.332L232.77 376.802ZM236.499 383.797L235.617 384.268C236.238 385.43 236.862 386.596 237.488 387.764L238.369 387.291L239.251 386.819C238.625 385.652 238.001 384.487 237.381 383.325L236.499 383.797ZM240.249 390.783L239.369 391.259C239.998 392.423 240.629 393.587 241.261 394.748L242.139 394.269L243.018 393.791C242.387 392.632 241.757 391.471 241.129 390.308L240.249 390.783ZM244.043 397.745L243.167 398.227C243.807 399.391 244.448 400.548 245.09 401.698L245.963 401.211L246.836 400.723C246.197 399.577 245.557 398.423 244.919 397.263L244.043 397.745ZM247.907 404.669L247.037 405.163C247.696 406.325 248.354 407.476 249.012 408.614L249.878 408.114L250.743 407.614C250.089 406.481 249.434 405.334 248.777 404.176L247.907 404.669ZM251.878 411.54L251.017 412.048C251.7 413.205 252.381 414.343 253.059 415.461L253.914 414.942L254.769 414.424C254.095 413.313 253.418 412.181 252.739 411.031L251.878 411.54ZM255.994 418.317L255.146 418.848C255.865 419.995 256.58 421.115 257.29 422.204L258.128 421.658L258.965 421.112C258.263 420.034 257.554 418.924 256.841 417.786L255.994 418.317ZM260.329 424.956L259.504 425.521C260.28 426.654 261.048 427.745 261.809 428.787L262.617 428.198L263.425 427.609C262.677 426.584 261.92 425.51 261.154 424.391L260.329 424.956ZM265.015 431.358L264.232 431.98C265.105 433.08 265.966 434.108 266.812 435.054L267.558 434.387L268.303 433.721C267.487 432.808 266.651 431.811 265.799 430.737L265.015 431.358ZM270.325 437.222L269.647 437.957C270.165 438.436 270.679 438.878 271.187 439.282L271.809 438.499L272.431 437.717C271.966 437.347 271.49 436.937 271.003 436.487L270.325 437.222ZM271.809 438.499L271.187 439.282C271.721 439.706 272.258 440.108 272.798 440.488L273.373 439.67L273.948 438.851C273.44 438.495 272.935 438.117 272.431 437.717L271.809 438.499ZM276.679 441.695L276.214 442.58C277.427 443.218 278.652 443.755 279.888 444.199L280.226 443.258L280.564 442.317C279.416 441.905 278.276 441.405 277.145 440.81L276.679 441.695ZM283.962 444.307L283.761 445.286C285.081 445.557 286.408 445.732 287.739 445.821L287.805 444.823L287.871 443.825C286.627 443.743 285.39 443.579 284.163 443.327L283.962 444.307ZM291.686 444.834L291.743 445.833C293.063 445.757 294.384 445.605 295.704 445.386L295.54 444.4L295.377 443.413C294.122 443.621 292.872 443.765 291.629 443.836L291.686 444.834ZM299.337 443.588L299.588 444.556C300.854 444.227 302.118 443.844 303.378 443.414L303.055 442.467L302.732 441.521C301.515 441.936 300.299 442.305 299.085 442.62L299.337 443.588ZM306.686 441.098L307.066 442.023C308.271 441.528 309.472 440.995 310.666 440.433L310.24 439.528L309.814 438.623C308.647 439.173 307.477 439.692 306.306 440.173L306.686 441.098ZM313.715 437.801L314.178 438.687C315.333 438.085 316.48 437.459 317.62 436.817L317.128 435.946L316.637 435.075C315.515 435.708 314.386 436.323 313.253 436.914L313.715 437.801ZM320.485 433.994L320.999 434.853C322.118 434.183 323.228 433.503 324.327 432.817L323.798 431.969L323.269 431.12C322.179 431.8 321.079 432.474 319.972 433.136L320.485 433.994ZM327.08 429.89L327.62 430.731C328.722 430.024 329.811 429.318 330.885 428.619L330.339 427.781L329.794 426.942C328.721 427.64 327.636 428.344 326.54 429.048L327.08 429.89ZM333.594 425.66L334.14 426.498C335.245 425.78 336.331 425.077 337.397 424.397L336.859 423.554L336.322 422.711C335.248 423.395 334.157 424.102 333.049 424.822L333.594 425.66ZM340.148 421.497L340.669 422.351C341.225 422.011 341.775 421.681 342.317 421.361L341.809 420.499L341.301 419.638C340.749 419.964 340.191 420.299 339.627 420.644L340.148 421.497ZM341.809 420.499L342.317 421.361C342.934 420.997 343.528 420.639 344.1 420.287L343.577 419.436L343.053 418.584C342.491 418.929 341.908 419.28 341.301 419.638L341.809 420.499ZM347.039 417.211L347.597 418.041C348.854 417.196 349.983 416.393 351.008 415.635L350.413 414.831L349.818 414.027C348.816 414.769 347.712 415.554 346.481 416.381L347.039 417.211ZM353.665 412.311L354.293 413.09C354.895 412.604 355.456 412.143 355.983 411.709C356.512 411.275 357.004 410.869 357.476 410.487L356.847 409.71L356.218 408.932C355.738 409.32 355.238 409.733 354.712 410.165C354.185 410.599 353.632 411.054 353.038 411.533L353.665 412.311ZM360.179 407.297L360.692 408.155C361.776 407.507 362.881 407.028 364.2 406.71L363.965 405.738L363.73 404.766C362.197 405.136 360.905 405.698 359.666 406.438L360.179 407.297ZM368.04 405.248L368.068 406.247C369.233 406.215 370.554 406.25 372.082 406.355L372.151 405.357L372.219 404.36C370.645 404.251 369.257 404.214 368.012 404.248L368.04 405.248ZM376.262 405.747L376.147 406.74C376.796 406.816 377.473 406.899 378.18 406.991L378.309 405.999L378.438 405.008C377.723 404.915 377.036 404.83 376.377 404.754L376.262 405.747ZM378.309 405.999L378.18 406.991C378.804 407.072 379.416 407.184 380.018 407.324L380.245 406.35L380.472 405.376C379.806 405.221 379.128 405.098 378.438 405.008L378.309 405.999ZM383.952 407.605L383.543 408.518C384.67 409.023 385.76 409.634 386.817 410.342L387.374 409.512L387.93 408.681C386.787 407.915 385.598 407.247 384.361 406.692L383.952 407.605ZM390.467 411.924L389.802 412.67C390.726 413.495 391.623 414.395 392.495 415.362L393.237 414.692L393.98 414.023C393.066 413.008 392.118 412.056 391.133 411.177L390.467 411.924ZM395.735 417.725L394.938 418.328C395.7 419.334 396.439 420.388 397.159 421.483L397.995 420.934L398.83 420.385C398.089 419.256 397.323 418.166 396.532 417.121L395.735 417.725ZM400.057 424.268L399.193 424.772C399.838 425.877 400.466 427.01 401.078 428.167L401.962 427.7L402.846 427.232C402.222 426.053 401.581 424.895 400.92 423.764L400.057 424.268ZM403.737 431.202L402.838 431.639C403.404 432.803 403.957 433.981 404.497 435.169L405.407 434.755L406.317 434.341C405.771 433.139 405.211 431.945 404.636 430.764L403.737 431.202ZM406.993 438.345L406.075 438.74C406.592 439.941 407.097 441.144 407.593 442.345L408.517 441.963L409.441 441.582C408.943 440.374 408.433 439.161 407.912 437.949L406.993 438.345ZM409.996 445.601L409.068 445.974C409.56 447.2 410.044 448.416 410.519 449.616L411.449 449.248L412.379 448.879C411.903 447.679 411.418 446.459 410.924 445.229L409.996 445.601ZM412.895 452.89L411.966 453.26C412.464 454.508 412.955 455.73 413.441 456.915L414.366 456.536L415.291 456.156C414.809 454.979 414.32 453.764 413.824 452.519L412.895 452.89ZM415.89 460.158L414.973 460.556C415.521 461.817 416.065 463.021 416.61 464.154L417.511 463.721L418.413 463.288C417.882 462.183 417.348 461.003 416.807 459.76L415.89 460.158ZM419.326 467.207L418.459 467.704C419.193 468.987 419.943 470.132 420.716 471.098L421.497 470.474L422.278 469.849C421.588 468.987 420.896 467.935 420.194 466.71L419.326 467.207ZM424.427 473.039L423.986 473.936C424.72 474.298 425.496 474.5 426.309 474.5V473.5V472.5C425.839 472.5 425.363 472.385 424.869 472.142L424.427 473.039ZM426.309 473.5V474.5C427.035 474.5 427.752 474.455 428.457 474.369L428.335 473.376L428.213 472.384C427.588 472.46 426.953 472.5 426.309 472.5V473.5ZM432.268 472.406L432.618 473.343C433.945 472.847 435.216 472.205 436.426 471.443L435.894 470.597L435.361 469.751C434.256 470.446 433.107 471.025 431.918 471.47L432.268 472.406ZM439.128 468.15L439.793 468.896C440.825 467.976 441.802 466.97 442.722 465.897L441.962 465.246L441.203 464.596C440.337 465.606 439.422 466.548 438.462 467.403L439.128 468.15ZM444.422 462.016L445.249 462.578C446.025 461.434 446.747 460.244 447.41 459.026L446.531 458.548L445.653 458.07C445.02 459.234 444.332 460.367 443.594 461.455L444.422 462.016ZM448.308 454.897L449.226 455.294C449.782 454.009 450.274 452.71 450.701 451.416L449.752 451.102L448.802 450.789C448.394 452.027 447.922 453.27 447.39 454.5L448.308 454.897ZM450.84 447.19L451.815 447.41C452.133 446.003 452.365 444.622 452.507 443.29L451.512 443.184L450.518 443.079C450.385 444.327 450.166 445.632 449.864 446.97L450.84 447.19ZM451.636 439.134L452.634 439.078C452.547 437.526 452.292 436.083 451.844 434.816L450.902 435.149L449.959 435.483C450.329 436.53 450.558 437.779 450.637 439.19L451.636 439.134ZM448.639 431.857L449.234 431.053C448.592 430.579 447.864 430.232 447.052 430.029L446.809 430.999L446.567 431.97C447.126 432.11 447.616 432.344 448.044 432.661L448.639 431.857Z" fill="#F9F9F9"/>
<path fill-rule="evenodd" clip-rule="evenodd" d="M772.135 36.0976C770.287 35.379 769.876 34.0445 769.825 32.3508C769.825 31.6836 769.62 31.0163 769.568 30.4004C768.08 28.8093 765.976 27.8341 765.565 25.7297C767.926 23.3688 767.926 23.3688 768.285 21.8803C768.439 21.2644 768.542 20.4945 768.337 19.9299C767.515 18.0309 766.54 16.2345 765.411 14.0788C762.28 13.1549 758.841 12.1797 755.454 11.1532C753.503 12.4364 751.553 13.6682 749.757 14.9513C749.397 15.2079 749.397 15.8752 749.295 16.2345C750.886 18.2362 752.374 20.0839 754.325 22.4962C752.58 22.5989 751.553 22.6502 750.732 22.6502C748.627 20.1866 746.831 17.7742 744.675 15.7212C743.597 14.6947 741.75 13.5655 740.467 13.7195C737.438 14.1301 734.872 12.693 731.998 12.7443C729.072 12.7443 726.198 12.385 723.324 11.8718C721.271 11.5125 718.91 12.385 716.857 11.9744C714.804 11.5638 713.059 10.1267 710.8 9.76742C706.643 9.20283 702.537 8.53561 698.277 8.43296C695.454 8.38163 692.888 8.79224 690.27 9.7161C688.063 10.486 685.753 10.9992 683.444 11.4099C681.493 11.7691 679.492 11.9231 677.233 12.2311C677.9 14.9513 678.516 17.1583 681.134 18.7494C683.084 19.9299 684.573 21.7777 686.113 23.4714C687.088 24.4979 686.882 25.6784 685.702 26.6536C684.932 27.2695 683.906 27.6288 682.725 28.296C681.031 25.8837 678.824 24.6519 675.899 24.2413C673.692 23.9334 672.973 22.2909 673.384 19.9813C673.486 19.468 673.743 19.0061 673.692 18.4928C673.589 17.107 672.255 16.1318 670.612 16.1318C669.278 16.1318 668.508 16.953 668.61 18.5955C668.713 20.1866 668.816 21.675 667.841 23.3175C662.605 25.1652 656.292 24.0873 651.365 27.8854C650.954 29.3739 650.544 30.965 650.133 32.3508C647.618 32.9667 647.31 29.9385 645.052 30.4004C643.307 30.7597 641.459 30.4517 639.457 30.4517C638.995 29.3226 638.533 28.45 638.226 27.4748C636.942 23.2148 633.35 21.1617 629.551 19.4167C627.55 18.4928 625.291 18.4415 623.136 19.2114C619.081 20.7512 614.924 22.137 611.382 24.7546C610.253 25.6271 608.97 26.3457 607.687 26.9616C606.711 27.4235 605.172 27.4748 604.761 26.397C603.735 23.5741 600.912 23.5741 598.91 22.4449C596.908 23.5228 596.908 23.1635 594.958 23.0608C592.597 22.9582 590.749 21.5724 588.491 21.4697C588.285 21.4697 588.132 20.9564 587.926 20.5972C588.388 19.7759 588.85 18.9034 589.415 17.8769C588.799 17.3123 588.388 16.6964 587.824 16.3885C584.025 14.5921 580.279 14.9513 577.045 17.3636C575.608 18.4415 574.325 18.9547 572.58 18.8008L572.682 18.9034C570.578 17.261 568.166 17.8769 565.856 17.9796C561.288 18.1849 556.771 18.4415 552.203 18.7494C551.998 18.7494 551.844 19.2114 551.639 19.4167C552.563 20.1352 553.487 20.8538 554.564 21.675C553.127 22.7529 551.998 23.5227 550.972 24.4466C550.202 25.1652 550.664 26.551 551.741 26.9616C552.357 27.1669 553.076 27.0642 553.846 27.1155C554.308 29.9385 556.617 31.4782 558.208 33.4286C557.952 33.8906 557.798 34.2499 557.593 34.5065C556.823 35.3277 556.002 34.8658 555.078 34.7631C554.462 34.6605 553.538 34.9171 553.23 35.3277C552.922 35.7383 553.076 36.6622 553.435 37.1241C553.897 37.7913 555.078 38.3559 553.949 39.1258C553.384 39.4851 552.203 39.3311 551.433 39.0745C550.664 38.7665 550.048 38.0993 549.432 37.586C543.529 36.4055 543.529 36.4055 540.758 40.5116C538.397 40.8709 535.882 41.3328 533.418 40.0497C532.956 39.793 532.186 40.0497 531.314 40.101C531.673 43.6938 534.496 46.3627 533.829 50.1095C532.802 50.1609 531.673 50.4688 530.749 50.1609C529.055 49.5963 527.31 48.8777 525.925 47.8512C523.615 46.0548 521.1 44.823 518.328 43.7965C517.199 43.3858 516.327 42.462 515.095 41.5381C516.429 40.9735 517.353 40.6143 518.174 40.255C518.072 37.2781 516.121 36.3542 513.401 36.1489C513.452 32.7101 511.091 30.8623 508.679 29.3739C506.472 27.9881 503.7 26.4996 500.98 27.5261C499.081 28.2447 497.644 28.2447 495.848 27.6802C493.025 26.8589 490.458 27.1669 488.457 30.0411C489.124 31.119 489.894 32.2995 490.51 33.48C490.869 34.1985 490.92 35.0197 491.177 35.7896C489.021 36.6108 487.225 37.432 485.326 38.048C484.145 38.4072 482.708 38.9205 481.63 38.6639C479.834 38.2019 478.14 38.3559 476.344 38.5099C473.726 38.7152 473.316 38.3046 472.238 35.4817C472.084 35.0197 471.724 34.6605 471.365 34.0445C467.926 34.6091 464.488 35.0711 461.151 35.7383C458.996 36.2002 456.994 37.1241 456.019 39.2285C455.916 39.3824 455.506 39.4338 455.249 39.4851C454.684 38.8179 454.12 38.1506 453.76 37.74C453.144 37.74 452.888 37.6887 452.785 37.74C450.63 39.4851 448.474 40.255 445.959 38.1506C444.624 37.0214 442.931 37.1754 441.288 37.5347C440.467 38.5612 439.851 39.6391 441.032 40.7682C442.007 40.6143 442.931 40.5116 444.111 40.3576C441.648 45.2336 439.235 47.5946 434.719 49.9556C432.973 50.8281 436.361 52.2139 434.205 53.0351C433.949 52.8298 433.487 52.6245 433.435 52.4192C432.973 49.1343 433.23 46.0035 435.642 43.2832C436.104 42.7699 436.464 42.1027 436.566 41.4868C436.977 37.0214 438.26 32.7614 439.954 28.604C440.724 26.705 441.134 24.6519 441.648 22.6502C442.058 21.0591 441.648 19.622 440.878 18.1335C440.159 16.7991 438.825 16.9017 437.644 16.4911C437.233 16.3371 436.926 15.8239 436.515 15.3619C437.387 14.9513 438.106 14.5407 439.132 14.0275C437.336 12.4364 435.694 10.9992 434.051 9.61345C433.435 10.0754 432.973 10.3833 432.306 10.8452C429.843 7.30376 425.582 6.58522 421.836 4.73749C419.167 6.02064 416.6 7.20112 414.137 8.38161C414.034 9.81874 414.188 11.0506 413.778 12.1284C413.521 12.7443 412.392 13.2063 411.571 13.3089C411.16 13.3602 410.287 12.539 410.185 12.0258C409.928 10.6913 410.031 9.3055 409.877 7.9197C409.671 6.22595 408.645 5.50738 406.9 5.76401C404.796 6.07196 402.64 6.43122 400.587 6.73918C400.433 6.32857 400.33 6.17461 400.33 6.02064C400.946 1.45264 400.946 1.40131 396.583 0.374793C396.07 0.272141 395.506 0.169471 394.992 0.0668191C393.145 -0.18981 392.118 0.272135 391.451 1.81191C391.04 2.7871 390.784 3.76229 390.527 4.7888C390.322 5.61002 390.065 6.48257 390.014 7.30378C389.962 8.3303 390.014 9.35682 390.116 10.3833C390.219 11.4099 390.27 12.4877 390.732 13.4115C391.194 14.2841 392.169 14.9513 392.837 15.7725C393.35 16.4398 393.555 17.3123 394.017 18.0309C394.53 18.8008 396.121 18.0309 396.481 19.2114C394.068 20.3406 391.143 19.0574 389.192 21.1618C390.27 22.137 391.194 23.0095 392.118 23.882C392.169 23.882 392.272 23.882 392.323 23.882L392.221 23.9847C392.169 23.9334 392.169 23.9334 392.118 23.882C390.168 23.728 388.32 23.5741 387.139 25.7297C386.062 27.6801 383.855 28.1934 381.442 28.6553C381.442 27.2695 381.442 25.9864 381.442 24.8059C379.389 24.2926 379.03 25.4731 378.773 26.7049C373.949 28.0394 373.949 28.0394 371.896 30.1438C372.306 30.811 372.717 31.5296 373.128 32.2481C371.793 33.8392 369.945 34.7631 368.149 35.379C365.891 36.1489 364.71 37.894 363.17 39.2798C361.887 40.4603 361.066 42.0514 360.091 43.4885C359.834 43.8478 359.68 44.4637 359.834 44.8743C360.707 47.5433 358.859 48.4671 356.087 49.2883C357.216 50.1609 357.935 50.6741 358.602 51.1874H358.5C358.91 51.9573 359.27 52.7272 359.68 53.4971C362.144 54.7289 365.172 55.2935 367.071 57.9624C366.199 59.0916 365.377 60.1694 364.556 61.2472C364.453 61.3499 364.145 61.2986 363.889 61.3499C363.992 60.3234 364.094 59.3995 364.197 58.4243C363.478 58.3217 363.016 58.1677 362.76 58.2703C357.986 60.426 353.162 62.4277 348.08 63.8135C346.335 64.2755 345.719 66.0206 346.541 67.6117C347.567 69.6134 348.902 71.4611 349.877 73.4628C350.647 75.0026 351.622 75.9778 353.521 76.1317C354.958 76.2344 356.549 76.0291 357.473 77.4149C358.654 79.1086 360.399 79.8785 362.349 80.4944C363.581 80.8537 364.813 81.5723 364.967 82.9068C365.275 85.5757 366.917 87.68 368.252 89.8871C366.763 90.7596 365.429 91.5295 364.145 92.2994C363.222 89.5791 361.733 87.0128 363.016 83.9333C363.478 82.8041 361.99 81.6749 360.45 82.1369C357.473 83.0607 355.317 82.1882 352.905 80.4944C350.441 78.8007 347.619 77.3122 344.334 77.5689C342.845 77.6715 341.973 78.3901 341.921 80.0838C342.383 80.3918 343.102 80.6998 343.512 81.213C343.872 81.6749 344.18 82.4962 344.026 83.0094C343.769 83.9846 342.794 84.2412 341.819 83.9333C340.946 83.6766 340.176 83.1634 339.304 82.9581C338.842 82.8554 338.021 83.0094 337.867 83.3174C337.559 83.8306 337.353 84.6518 337.61 85.1651C338.534 87.2695 340.433 88.142 342.64 88.8092C344.128 89.2198 345.976 88.6039 347.465 90.5543C343.718 90.4003 340.382 91.2216 336.943 89.7844C335.608 87.3208 333.812 84.9598 333.453 81.8802C333.247 80.2891 332.631 78.698 330.424 76.953C330.989 78.852 331.4 79.7759 331.502 80.7511C331.554 81.7263 331.656 83.0094 331.092 83.728C329.141 86.2429 329.501 88.8606 329.757 90.2977C331.605 92.4021 332.477 93.8392 333.709 94.763C335.608 96.2001 336.429 97.8426 336.327 100.101C336.224 104.053 338.021 107.338 340.382 110.366C342.127 110.52 343.564 110.417 344.693 109.34C346.079 108.005 347.567 108.056 349.21 108.724C350.236 109.134 351.16 109.75 352.238 109.955C354.394 110.417 355.574 111.906 357.011 113.24C358.551 114.677 356.755 116.217 357.473 117.603C357.473 117.603 357.524 117.603 357.524 117.654V117.706C357.524 117.654 357.473 117.654 357.473 117.603C356.652 116.987 355.728 116.474 355.061 115.755C353.367 114.01 351.776 112.162 350.288 110.469C348.029 110.828 346.592 111.957 345.258 113.086C343.82 114.318 343.564 115.858 344.95 117.141C347.311 119.399 347.978 121.709 346.489 124.583C346.13 125.302 346.489 126.277 346.335 127.098C346.181 128.125 345.976 129.151 345.514 130.075C344.488 132.026 343.307 133.873 342.178 135.875C338.637 135.362 334.838 135.978 331.656 133.822C332.58 133.771 333.555 133.719 333.966 132.693C334.633 132.898 335.352 132.949 335.968 133.257C337.199 133.925 338.329 133.565 338.688 132.539C340.228 128.227 342.589 123.967 340.69 119.091C340.279 118.014 340.33 116.731 340.176 115.447C336.481 113.805 334.89 110.777 333.761 107.389C332.785 104.618 331.605 101.846 330.835 99.0231C330.27 96.9187 329.347 94.8657 327.55 93.7878C324.933 92.1967 324.727 90.041 324.573 87.5774C324.368 84.4978 324.368 81.367 322.674 78.8007C318.773 76.645 315.027 77.2096 311.126 78.2874C310.407 80.8537 310.767 83.42 310.972 85.9863C311.228 88.9632 311.28 91.6835 309.278 94.3524C308.046 95.9948 307.892 98.2532 309.894 99.9983C311.896 101.743 312.717 104.053 312.46 106.517C312.255 108.621 313.23 110.007 315.078 110.52C317.182 111.085 318.517 112.316 319.954 113.6C320.98 114.523 322.315 115.191 323.495 115.961C323.906 117.449 324.163 118.937 322.674 120.683C319.287 117.808 315.283 116.217 311.28 114.729C309.945 114.216 308.303 114.113 307.225 113.292C302.349 109.648 296.909 110.725 291.571 111.239C289.569 114.831 293.778 116.115 294.24 118.681C293.983 120.734 291.109 121.042 291.006 123.249C290.955 123.762 289.518 123.608 289.158 123.095C288.44 121.966 289.107 120.169 287.157 119.656C286.849 119.707 286.438 119.707 286.13 119.861C283.205 121.145 280.792 123.454 277.199 123.249C276.43 123.198 275.403 124.327 274.736 125.097C273.504 126.431 272.067 126.79 270.219 126.123C270.065 125.148 270.014 124.121 269.706 123.198C269.398 122.12 267.858 121.76 267.088 122.633C265.6 124.429 263.649 125.302 261.34 125.867C259.697 126.226 258.517 127.304 257.336 128.484C255.232 130.64 252.974 132.59 250.51 134.9C250.51 134.849 250.407 135.156 250.305 135.516C250.202 135.824 250.202 136.183 250.099 136.542C249.124 140.186 245.634 141.264 242.76 138.647C241.733 137.723 240.348 137.004 240.45 134.951C241.477 133.976 242.708 132.795 243.94 131.666C242.041 127.92 239.27 126.328 235.01 127.406C234.702 127.458 234.394 127.458 234.034 127.509C235.215 130.178 236.344 132.847 235.831 135.824C235.626 137.056 236.087 138.082 237.114 139.057C239.27 141.008 238.962 143.266 237.627 145.678C235.266 145.268 233.162 144.908 230.904 144.498C228.594 147.423 224.847 149.066 223.667 153.121C224.334 154.096 225.258 155.225 225.771 156.457C226.028 157.124 225.771 158.099 225.463 158.818C225.052 159.69 224.026 159.844 223.102 159.485C220.741 158.51 218.431 157.483 216.122 156.508C215.352 156.2 214.479 155.995 213.35 155.584C212.888 156.713 212.118 157.74 212.324 158.561C212.478 159.434 213.401 160.357 214.274 160.871C215.147 161.435 216.378 161.487 217.302 162C217.815 162.308 218.226 163.078 218.277 163.642C218.38 164.669 217.405 165.439 216.584 165.336C214.993 165.182 213.401 164.669 211.964 164.053C210.373 163.386 208.885 162.411 207.14 161.435C206.626 160.203 206.216 158.715 205.446 157.329C204.676 155.892 204.163 154.558 204.317 152.915C204.522 150.554 203.136 149.271 200.827 148.296C198.414 147.321 196.31 145.73 195.078 143.112C195.797 143.112 196.156 143.009 196.464 143.112C201.596 145.37 206.934 146.961 212.478 148.039C215.044 148.553 217.507 148.45 220.074 147.783C223.718 146.859 225.463 144.395 226.387 141.264C226.798 139.878 226.541 138.595 225.617 137.363C223.821 134.797 221.152 133.257 218.38 132.026C215.557 130.742 212.837 129.408 210.373 127.663C205.959 124.532 201.083 123.146 195.489 123.813C194.154 123.967 192.717 123.505 191.383 123.352C191.383 122.325 191.537 121.606 191.331 121.042C191.177 120.683 190.561 120.272 190.099 120.169C189.484 120.067 188.508 120.067 188.149 120.426C186.507 122.017 184.608 120.631 182.914 120.991C180.861 121.401 179.834 120.375 178.91 118.681C181.22 118.373 183.632 118.168 184.454 115.396C182.195 113.651 179.475 113.035 176.806 112.47C175.934 113.497 175.318 114.216 174.086 115.601C173.983 113.856 174.035 112.881 173.829 112.009C173.727 111.444 173.419 110.674 172.957 110.417C171.982 109.904 171.16 110.52 170.698 111.29C170.236 112.009 170.236 112.932 169.877 113.702C169.621 114.216 169.107 114.677 168.697 115.191C167.978 114.421 167.567 113.959 166.9 113.24C165.925 114.883 165.052 116.32 164.077 117.962C162.845 115.755 164.642 114.267 164.847 112.47C162.999 112.009 161.408 112.06 160.279 113.908C159.766 114.78 158.893 115.447 158.277 116.269C157.559 117.192 156.994 118.168 156.481 118.835C154.274 118.63 152.58 117.038 150.527 118.424C150.989 119.348 151.4 120.067 151.759 120.785C147.653 122.53 147.653 122.53 143.444 122.633C143.29 122.633 143.188 122.684 143.034 122.684C142.469 123.095 141.956 123.505 141.391 123.865C141.135 123.967 140.878 124.121 140.621 124.224C140.878 124.173 141.186 124.121 141.443 124.07C140.673 125.507 139.698 125.969 137.952 125.148C136.721 124.583 135.437 125.969 135.951 127.15C136.156 127.612 136.567 127.971 136.926 128.279C138.055 129.203 137.85 130.075 136.875 130.845C136.105 131.461 135.232 131.974 134.411 132.539C135.078 133.206 135.745 133.822 136.413 134.489C133.282 135.926 130.767 137.723 129.792 141.11C129.535 142.034 129.33 142.907 129.073 143.779C128.868 144.549 127.225 144.806 126.558 145.576C125.686 146.653 124.916 147.885 124.505 149.168C123.53 152.248 122.76 155.379 121.887 158.51C121.733 158.972 121.785 159.793 121.528 159.896C119.167 160.768 118.911 163.488 116.806 164.618C115.164 165.49 114.086 166.876 113.521 168.57C112.905 170.469 111.571 171.752 109.929 172.932C108.799 173.754 107.722 174.729 106.644 175.601L106.746 175.653C105.669 175.755 104.591 175.858 103.359 175.961C103.41 176.628 103.513 177.244 103.564 177.86C102.076 178.783 100.587 179.707 99.0988 180.631C95.8653 182.582 95.4547 183.711 96.7378 187.765C97.8156 187.765 98.8935 187.817 99.9713 187.765C101.1 187.714 102.332 186.739 103.769 188.433C101.049 188.587 98.7908 188.741 96.3272 188.895C96.2758 191.204 96.9431 192.795 99.0475 193.668L98.9448 193.719C100.279 196.286 97.7643 197.62 96.5838 199.262C97.1484 199.673 97.405 199.93 97.7129 200.084C99.612 200.854 100.023 201.623 98.9448 202.855C98.3802 203.471 97.3024 203.676 97.9183 205.216C98.9448 205.883 100.279 206.756 101.614 207.629C104.283 209.425 106.798 208.501 109.261 207.269C110.031 206.91 110.493 206.037 111.16 205.473C112.341 204.446 113.47 203.317 114.753 202.393C116.601 201.11 116.652 201.162 117.525 198.236C118.654 200.494 119.834 202.445 120.502 204.754C121.579 208.296 122.298 212.094 124.71 215.173C125.583 216.251 126.353 217.381 127.225 218.612C126.815 219.382 126.404 220.152 125.994 220.922C127.071 221.949 128.098 223.026 129.176 224.053C130.664 224.156 132.153 224.309 132.871 222.616C133.384 221.333 134.514 220.563 135.797 220.511C138.774 220.46 140.724 218.715 142.828 217.226C141.802 215.789 141.186 214.25 141.391 212.505C141.648 210.605 142.161 208.758 142.058 206.91C141.956 204.857 142.88 203.42 144.573 202.701C148.012 201.264 148.628 198.595 148.628 195.054C147.499 193.925 146.37 192.18 144.676 191.307C142.315 190.075 141.751 188.381 141.853 186.174C141.905 184.789 142.264 183.403 142.161 182.068C142.007 179.656 142.828 177.654 144.471 175.909C145.959 174.369 147.448 172.932 149.039 171.495C150.373 170.315 151.913 169.34 153.094 168.056C154.633 166.363 155.66 164.464 155.198 161.949C154.941 160.46 155.095 158.818 155.609 157.381C156.173 155.789 157.148 153.993 159.201 153.788C161.511 153.582 163.975 153.736 166.284 154.096C168.799 154.506 170.031 156.097 169.569 158.15C167.567 160.717 165.874 162.924 164.129 165.131C162.281 167.492 160.792 170.161 158.534 172.06C156.43 173.856 155.814 175.601 156.532 177.911C157.61 181.401 158.226 184.943 158.124 188.587C158.124 188.895 158.329 189.254 158.431 189.459C161.306 190.999 164.129 192.539 167.465 194.335C169.98 193.463 172.957 192.179 176.139 191.461C179.475 190.691 182.965 190.486 186.25 190.075C187.79 191.204 189.176 192.231 190.818 193.411C189.124 194.438 187.482 195.054 186.507 196.183C184.813 198.133 183.068 198.339 180.707 197.569C177.217 196.388 173.829 197.415 170.596 198.647C168.337 199.519 168.029 200.546 168.389 202.753C168.748 204.806 169.877 206.191 172.084 206.91C172.084 208.655 172.187 210.195 172.033 211.735C171.93 213.018 171.212 213.993 168.799 213.89C168.337 213.377 167.67 212.351 166.746 211.478C165.206 210.092 163.051 210.195 162.076 211.889C160.587 214.455 159.201 217.124 160.177 220.255C160.741 222.051 161.306 223.899 160.69 225.747C159.355 226.465 157.662 226.876 156.994 227.902C156.122 229.185 155.249 230.007 153.71 230.212C151.708 230.417 150.733 229.288 149.86 227.851C149.706 227.646 149.244 227.594 148.731 227.389C142.931 228.21 138.568 232.214 132.82 234.831C131.639 233.599 130.408 232.368 128.765 230.674C126.609 231.341 123.889 232.162 121.426 232.932C119.526 232.008 117.781 231.136 116.088 230.315C115.523 229.237 114.702 228.21 114.394 227.081C114.189 226.209 114.548 225.182 114.65 224.258C114.599 224.258 114.599 224.258 114.548 224.258C114.599 224.258 114.599 224.207 114.65 224.207C116.396 222.924 117.268 221.127 117.884 219.074C116.55 217.688 116.396 216.046 116.96 214.25C117.217 213.377 117.063 212.505 115.677 212.197C115.215 212.505 114.599 212.864 114.035 213.274C113.624 213.582 113.265 213.993 112.803 214.301C112.187 214.712 111.468 214.917 110.955 215.379C110.596 215.635 110.237 216.251 110.339 216.611C110.544 217.38 110.339 217.791 109.929 218.407C108.748 220.511 108.799 222.821 109.723 225.182C110.647 227.594 111.622 230.007 111.674 232.624C111.725 234.215 110.185 236.166 108.799 235.704C106.079 234.831 104.283 236.73 102.024 237.09C97.0457 237.86 93.6582 240.374 92.7857 245.302C92.529 246.79 91.7592 247.817 90.3734 248.535C89.4495 249.049 88.6283 249.87 87.6531 250.28C85.908 251.102 84.7275 252.128 84.2656 254.027C84.0603 254.9 83.1877 256.029 82.3152 256.337C80.4161 257.055 78.6711 257.671 77.4392 259.365C77.1826 259.776 76.0534 259.827 75.3862 259.724C74.0004 259.468 72.6659 258.954 70.9722 258.441C70.9722 260.084 70.9722 261.572 70.9722 263.266C69.4837 263.368 67.9953 263.882 67.0201 263.42C64.2999 262.239 62.0928 263.368 59.4752 264.138C59.6292 265.319 59.7832 266.294 59.8858 267.321C61.6822 267.988 63.376 268.706 65.121 269.22C66.8148 269.733 68.2006 270.708 68.6625 272.197C69.3298 274.404 71.1775 275.533 72.7686 276.867C73.5898 280.768 72.7173 284.515 72.3067 288.261C72.2553 288.775 71.9987 289.237 71.7421 289.699C71.1775 290.93 70.0483 291.752 68.7138 291.546C63.8892 290.725 58.9106 291.546 54.086 290.469C51.3144 289.853 48.2862 289.647 45.412 289.853C43.7695 289.955 42.2297 291.29 40.6386 292.111C40.1767 292.368 39.7661 292.727 39.5608 292.829C39.9714 294.883 40.382 296.525 40.5873 298.219C41.3059 303.146 40.8439 307.868 38.2776 312.333C37.867 313.052 37.6104 314.284 37.9697 314.797C40.0227 317.261 39.8174 320.289 40.4333 323.42C41.9218 323.574 43.4102 324.087 44.7447 323.882C47.7729 323.368 49.7233 324.344 50.8525 327.012C50.9038 327.166 51.0578 327.32 51.1604 327.474C52.4436 329.066 53.5214 329.322 55.3691 328.142C58.192 326.345 61.169 325.37 64.6591 325.678C66.2503 325.832 68.0466 325.575 69.4324 324.959C71.0235 324.241 72.5633 323.163 73.6925 321.88C75.2836 320.032 76.5154 317.928 77.9012 315.875C78.0038 315.772 77.9012 315.516 77.9012 315.362C77.3879 314.232 76.926 313.155 76.3101 311.769C78.9277 308.381 80.8268 304.429 85.7027 302.992C88.1664 302.273 89.6035 300.477 89.7061 297.962C89.7575 296.782 89.8601 295.55 90.1168 294.369C90.6813 292.008 92.3237 290.879 94.89 291.29C97.559 291.752 100.177 292.419 102.948 293.035C105.72 291.187 108.748 289.288 111.674 287.286C112.803 286.516 113.983 286.362 115.318 286.722C117.371 287.235 118.757 288.415 119.937 290.109C123.787 295.806 127.944 301.247 135.284 303.351C135.797 303.505 136.105 304.019 136.618 304.224C138.979 305.302 140.467 307.406 142.572 308.638C144.573 309.818 145.035 311.512 145.703 313.257C146.524 315.31 145.651 316.901 144.214 318.544C142.11 318.903 139.903 319.16 137.798 319.673C135.745 320.135 133.487 318.954 131.126 320.597C134.206 323.625 137.747 324.959 141.289 325.986C141.699 325.627 141.905 325.524 141.956 325.421C142.52 323.112 141.545 319.827 146.011 320.135C146.267 320.135 146.627 319.724 146.781 319.468C147.807 317.671 148.885 315.875 149.757 313.976C149.963 313.462 149.552 312.641 149.295 312.025C149.039 311.409 148.526 310.845 148.372 310.178C148.064 308.279 149.86 306.79 151.759 307.355C152.734 307.663 153.607 308.125 154.89 308.638C154.839 307.817 154.941 307.149 154.685 306.893C151.4 303.659 146.267 302.992 143.29 299.297C143.136 299.091 142.623 299.091 142.264 299.091C139.39 298.835 137.593 297.038 136.361 294.883C134.719 292.06 132.666 289.75 129.843 288.005C128.509 287.184 127.944 285.952 128.047 284.463C128.149 283.437 128.252 282.41 128.355 281.538C129.689 280.306 131.023 279.536 132.717 279.844C133.384 281.23 133.949 282.359 134.462 283.488C135.848 283.026 136.823 282.667 138.004 282.308C138.876 283.54 139.903 284.566 140.416 285.849C141.494 288.672 143.701 290.109 146.524 291.29C151.554 293.343 156.327 295.909 159.458 300.528C159.509 300.99 159.561 301.504 159.561 302.017C159.355 305.199 159.869 308.125 162.486 310.486C163.667 311.512 164.539 312.898 165.514 314.13C166.644 315.669 167.721 317.261 168.851 318.852C168.029 320.956 170.236 321.88 170.852 323.42C171.725 325.575 173.573 325.883 175.574 325.575C176.447 323.779 177.165 322.239 177.884 320.699C180.245 320.186 180.245 318.441 180.142 316.491C178.757 315.875 177.319 315.259 176.396 314.848C175.626 312.949 175.01 311.512 174.445 310.126C174.188 309.51 173.829 308.843 173.778 308.176C173.727 307.765 174.188 307.303 174.394 306.79C175.472 307.303 176.396 307.714 177.371 308.176C177.935 307.817 178.5 307.611 178.808 307.201C179.68 305.918 180.245 304.378 182.298 304.326C183.94 304.275 185.583 304.07 187.174 304.224C188.765 304.378 189.689 305.558 189.843 307.047C189.946 308.227 189.843 309.459 189.843 310.537C193.641 313.36 193.487 314.386 191.485 317.877C192.512 319.262 193.59 320.597 194.565 321.983C195.797 323.779 197.234 325.267 199.646 325.575C201.135 325.781 202.315 326.397 203.496 327.269C205.6 328.809 207.653 328.501 209.86 326.602C210.373 326.14 210.63 325.473 210.784 325.319C213.863 325.165 215.814 326.089 217.507 327.526C218.893 328.706 220.433 328.655 222.127 328.45C224.693 328.193 226.284 326.499 228.081 325.062C229.98 325.37 231.725 325.627 233.419 325.883C233.521 327.782 233.316 329.579 233.778 331.17C234.445 333.531 233.932 335.687 233.265 337.791C232.135 341.23 230.801 344.617 229.415 348.005C229.005 348.929 228.337 349.853 227.567 350.571C226.951 351.136 226.028 351.7 225.258 351.752C222.897 351.803 220.382 352.06 218.175 351.392C214.582 350.314 211.297 350.468 208.115 352.111C206.575 352.932 205.087 353.035 203.393 352.624C199.133 351.7 194.77 351.033 190.51 350.058C187.174 349.288 183.838 348.313 180.553 347.338C179.886 347.132 179.218 346.773 178.654 346.311C175.42 343.745 171.827 344.155 168.235 345.284C165.463 346.157 164.231 348.21 164.642 350.93C164.745 351.598 165.104 352.265 165.206 352.932C165.412 354.728 164.18 355.806 162.845 356.73C161.665 357.551 160.382 357.243 159.253 356.576C158.329 356.012 157.508 355.293 156.584 354.78C154.223 353.394 151.81 352.111 148.936 352.162C146.524 352.213 145.138 350.982 144.522 348.98C144.009 347.286 142.88 346.311 141.135 345.952C138.825 345.438 136.464 344.463 134.206 344.669C129.33 345.131 125.994 342.256 122.144 340.409C121.118 339.947 120.964 338.561 121.682 337.688C122.144 337.175 122.709 336.713 123.222 336.2C124.967 334.66 125.326 332.761 123.684 331.17C122.041 329.579 123.427 327.936 123.068 326.448C122.452 326.089 121.887 325.883 121.579 325.524C119.937 323.625 118.038 323.317 115.728 324.446C113.727 325.473 111.622 325.627 109.313 325.319C107.568 325.062 105.566 324.703 103.975 325.216C101.254 326.14 98.6368 325.883 95.9165 325.678C94.4794 325.575 93.0423 325.986 91.6052 326.14C90.3221 326.294 89.0902 326.756 87.8071 326.653C85.0868 326.499 82.7771 327.423 80.4675 328.552C78.979 329.271 77.5932 329.989 76.1048 330.657C71.8447 332.453 68.0467 333.172 63.376 333.069C61.7336 333.069 59.9884 333.531 58.4487 333.12C56.8062 332.71 55.3691 331.58 53.5214 330.605C52.9055 331.837 52.2383 332.864 51.9303 333.941C50.9551 337.124 49.21 339.587 45.8738 340.819C45.2066 341.076 44.642 341.589 44.0261 341.948C41.2032 343.539 38.1236 344.874 37.9183 348.621C37.9183 349.031 37.3025 349.493 36.9945 349.904C35.968 351.238 35.3521 352.675 35.814 354.267C36.8918 358.013 34.7361 360.734 32.2725 362.992C30.3734 364.737 27.8585 366.174 25.3435 366.995C23.0338 367.765 21.5454 368.946 20.3649 370.742C19.8003 371.615 19.2871 372.795 18.4659 373.154C15.6943 374.386 14.6678 376.799 13.3333 379.006C12.5121 380.34 11.7935 381.829 10.7156 382.958C7.37945 386.345 6.0963 390.759 3.53001 394.557C2.19554 396.456 2.14426 398.817 4.6079 400.562C5.22381 400.973 5.73702 402.154 5.58304 402.821C4.86448 405.336 5.99369 407.594 6.19899 409.955C6.35297 411.495 6.25032 413.035 5.94236 414.523C5.53176 416.525 4.91585 418.578 4.14596 420.477C3.32474 422.53 2.14425 424.429 1.06641 426.482C2.4522 428.638 4.50525 430.691 3.06813 433.514C3.58139 435.515 3.99195 437.928 6.30162 438.595C9.58647 439.519 10.7156 442.29 12.7687 444.241C13.3846 444.857 13.7952 445.729 14.5138 446.088C17.388 447.628 19.0304 449.784 19.903 452.864C20.6729 455.686 22.0586 458.663 25.0869 459.946C28.9876 461.64 31.9645 464.412 35.352 466.722C37.713 468.313 40.3307 469.647 42.897 470.93C44.2314 471.597 45.6685 471.751 47.1057 470.982C50.6985 469.031 54.6506 468.621 58.7053 468.364C61.6822 468.159 64.5051 468.056 67.3281 469.082C68.3033 469.442 69.5351 469.75 70.5102 469.493C72.9739 468.877 75.5402 468.261 77.6959 467.029C81.9046 464.668 86.5239 463.745 91.1946 462.975C96.1732 462.102 98.9961 463.745 101.306 468.21C101.614 468.826 101.87 469.493 102.178 470.109C102.897 471.443 104.077 472.265 105.668 472.265C107.516 472.265 109.313 472.111 111.16 471.905C113.162 471.649 115.112 471.289 117.371 470.93C118.038 471.7 118.603 472.778 119.475 473.24C121.374 474.164 121.785 475.858 122.195 477.5C122.709 479.399 122.247 481.247 121.426 483.043C121.015 484.018 120.194 484.993 120.245 485.866C120.604 489.305 119.065 492.23 117.833 494.797C119.116 499.775 122.093 503.214 125.788 506.191C126.353 506.653 126.866 507.115 127.431 507.577C129.792 509.373 131.177 511.734 132.204 514.403C133.025 516.508 134.154 518.458 134.924 520.562C135.745 522.821 136.977 525.233 136.772 527.44C136.464 530.519 137.08 533.188 138.312 535.96C140.005 539.604 139.698 542.94 136.259 545.815C133.795 547.919 131.999 550.485 131.947 553.873C131.896 555.002 131.229 556.182 130.664 557.26C128.816 560.699 129.176 564.343 129.381 567.936C129.432 568.757 129.843 569.681 130.356 570.297C135.181 575.481 136.259 582.513 140.159 588.158C140.365 588.415 140.416 588.826 140.467 589.134C141.083 593.548 141.648 598.013 142.366 602.427C143.136 607.252 144.317 611.871 147.961 615.669C149.398 617.158 150.476 619.057 151.297 620.956C152.683 624.138 153.761 627.474 154.993 630.708C155.66 632.401 156.019 633.941 155.095 635.686C154.736 636.353 154.839 637.329 155.044 638.098C155.403 639.587 155.968 641.024 156.481 642.41C157.764 643.231 158.893 644.104 160.177 644.822C160.946 645.233 162.127 645.797 162.692 645.541C165.566 644.206 168.902 644.771 171.674 643.539C174.496 642.307 177.473 642.205 180.245 642.666C182.965 643.128 185.224 642.718 187.636 641.845C188.457 641.537 189.33 641.075 190.202 641.024C193.128 640.87 195.489 639.638 197.696 638.047C202.674 634.454 207.242 630.554 210.784 625.626C212.837 622.752 214.787 619.878 217.815 617.722C218.893 616.952 219.766 615.618 220.33 614.386C221.768 611.05 223.102 607.611 221.819 603.967C223.307 602.119 225.052 600.939 227.208 600.271C228.235 599.963 229.364 599.758 230.39 599.399C232.957 598.475 234.394 596.884 234.804 594.061C235.266 590.571 235.164 587.235 234.086 583.847C233.675 582.513 233.316 581.178 232.957 579.844C232.649 578.56 232.905 577.38 234.086 576.61C240.091 572.709 244.608 566.909 251.845 564.651C252.666 564.395 253.436 563.779 254.154 563.265C258.568 560.288 261.545 556.644 260.416 551.101C260.262 550.434 260.365 549.715 260.416 549.048C260.57 544.788 260.775 540.477 260.929 536.217C255.129 531.957 255.694 526.106 256.259 520.1C255.437 518.92 254.565 517.637 253.538 516.2C254.565 514.095 255.489 512.042 256.566 510.092C257.49 508.398 258.671 506.858 259.492 505.165C260.365 503.419 261.494 502.034 263.29 500.905C264.933 499.878 266.37 498.441 267.55 496.901C271.451 492.025 276.43 488.176 280.998 483.967C281.665 483.351 282.435 482.889 283.205 482.427C291.776 477.705 297.576 470.828 301.631 462.41C302.965 459.587 304.248 456.764 306.199 454.198C309.022 450.605 309.945 446.345 309.689 441.931C309.637 441.161 309.175 440.443 308.765 439.313C304.813 441.367 300.861 441.777 296.909 442.444C291.725 443.368 286.438 443.727 281.511 445.781C280.022 446.396 278.585 445.986 277.507 444.908C275.968 443.42 274.479 441.931 272.991 440.443C273.915 437.312 273.915 437.312 272.067 435.464C271.297 434.745 270.63 433.924 269.86 433.154C266.78 430.024 264.06 426.533 259.441 425.045C257.182 424.326 255.694 422.376 255.027 420.015C254.667 418.681 254.206 417.346 253.795 416.012C253.076 413.805 251.896 411.905 249.74 410.622C246.558 408.723 244.915 406.106 245.018 402.461C245.069 401.127 244.351 399.793 244.146 398.407C243.632 395.122 242.093 392.504 238.756 391.067C237.011 390.349 236.087 389.014 236.293 387.372C236.549 385.062 235.266 383.42 234.137 381.675C232.546 379.16 230.493 376.799 229.415 374.078C227.824 369.972 225.874 366.174 222.743 362.889C222.332 362.479 221.665 361.811 222.999 361.144C223.513 361.811 224.026 362.479 224.59 363.095C225.514 364.172 226.49 365.199 227.516 366.174C228.183 366.79 228.953 367.047 229.98 366.636C232.649 365.61 233.213 365.558 234.445 367.252C238.14 372.179 242.298 376.799 244.505 382.752C249.894 384.703 251.947 388.86 252.255 394.095C252.46 397.483 254 399.998 257.131 401.692C259.749 403.129 261.596 405.079 262.623 407.902C263.188 409.493 264.471 410.828 265.548 412.213C266.524 413.445 267.602 414.626 268.731 415.806C270.117 417.295 270.938 419.091 270.835 421.041C270.578 425.353 272.683 429.1 273.812 433C274.479 435.259 275.865 435.515 278.585 435.31C281.254 435.105 282.486 432.692 284.847 432.333C287.157 431.974 289.723 432.59 291.776 431.255C294.65 429.459 298.448 429.408 301.015 426.995C301.579 426.431 302.708 426.379 303.581 426.123C305.685 425.455 307.79 424.891 309.843 424.121C311.331 423.556 313.076 422.992 313.641 421.401C314.462 419.091 316.31 418.373 318.568 417.859C321.032 417.295 323.444 416.525 326.113 415.755C327.037 414.112 327.755 411.957 330.424 411.803C330.886 411.752 331.554 411.341 331.708 410.982C332.837 408.569 334.992 407.44 338.021 406.876C336.737 403.385 338.277 401.332 340.997 399.177C343.256 397.432 345.463 394.968 345.206 391.683C344.128 390.503 342.845 389.425 341.973 388.142C340.792 386.294 339.201 385.678 337.045 385.473C332.272 385.011 330.373 383.214 329.347 378.8C329.039 377.466 328.782 376.183 328.474 374.643C325.497 376.439 323.649 378.749 321.853 381.11C320.365 383.112 318.568 384.087 315.899 383.933C314.308 383.83 312.666 384.241 311.075 384.395C309.689 384.549 308.457 383.984 307.944 382.804C307.584 382.034 307.482 381.161 307.328 380.34C307.02 378.698 306.712 377.055 306.301 374.694C304.967 376.234 304.146 377.158 302.965 378.544C301.99 376.901 301.015 375.823 300.707 374.54C300.091 372.025 298.654 370.075 296.652 368.484C294.599 366.893 293.418 364.788 291.981 362.787C290.442 360.58 289.826 358.424 292.187 355.96C294.24 355.96 296.601 355.96 298.859 355.96C301.169 359.348 303.376 362.53 305.531 365.712C308.354 366.533 310.869 367.663 313.282 369.356C316.772 371.769 321.032 373.36 325.446 370.486C326.01 370.126 326.78 369.921 327.499 369.767C328.885 369.356 330.065 369.716 330.784 370.947C331.759 372.59 332.631 374.284 333.555 375.926C338.636 376.593 343.564 377.004 348.388 377.979C351.725 378.646 354.907 378.544 358.192 378.236C362.503 377.876 366.866 377.568 371.228 377.261C372.306 377.209 373.384 377.312 374.821 377.415C376.515 379.519 378.26 381.623 380.57 384.395C382.11 384.549 384.06 385.627 385.651 387.474C386.37 388.347 387.807 388.706 388.885 389.271C389.603 389.63 390.784 389.271 391.143 390.708C390.27 391.272 389.295 391.888 388.115 392.607C389.654 394.095 391.04 395.481 392.426 396.764C392.939 397.226 393.504 397.688 394.171 397.996C394.941 398.355 395.967 398.971 396.686 398.766C398.226 398.304 399.714 397.534 401.049 396.713C402.229 395.994 402.332 394.763 402.229 393.479C402.178 392.658 402.281 391.734 403.615 391.683C403.872 392.864 404.128 394.044 404.334 395.225C405.309 400.306 405.565 405.49 407.208 410.417C408.85 415.139 409.723 420.169 412.751 424.378C414.445 426.687 415.523 429.254 416.344 431.871C417.268 434.694 418.346 437.414 420.655 439.57C421.528 440.391 422.092 441.572 422.606 442.65C423.478 444.703 424.299 446.858 424.967 448.963C425.634 450.964 426.404 452.915 428.149 454.301C429.535 455.43 431.434 455.327 432.409 453.839C434.103 451.221 437.233 449.733 438.414 446.653C438.722 445.832 439.902 445.267 440.672 444.6C440.21 441.315 440.159 438.236 441.648 435.31C442.058 434.489 442.058 433.206 441.699 432.333C440.518 429.459 441.391 426.482 441.083 423.608C441.032 422.941 441.699 421.914 442.315 421.452C444.06 420.272 445.959 419.348 447.807 418.321C448.423 417.962 449.398 417.603 449.5 417.141C450.065 414.626 452.529 413.805 454.12 412.213C456.224 410.058 458.739 408.313 460.33 405.695C461.203 404.258 462.28 403.077 464.334 402.513C466.848 401.794 468.44 399.741 468.696 397.021C468.748 396.354 469.004 395.687 469.158 395.173C473.162 392.966 473.162 392.761 475.317 393.018C479.885 393.531 483.529 392.196 485.993 388.604C488.816 388.347 489.842 389.989 490.253 391.94C491.228 396.61 494.103 399.639 498.619 401.486C499.081 401.692 499.44 402.154 499.8 402.461C499.646 403.539 499.543 404.515 499.389 405.9C502.007 405.9 502.879 407.645 503.598 409.442C504.368 411.341 504.83 413.24 504.316 415.498C503.495 418.988 505.907 420.631 509.449 419.348C510.27 419.04 511.091 418.527 511.861 418.065C513.35 417.141 514.787 416.166 516.224 415.242C518.688 416.935 519.612 419.296 520.33 421.863C521.1 424.686 522.075 427.509 523.307 430.177C525.206 434.386 526.643 438.595 525.36 443.214C525.155 444.035 525.257 444.908 525.206 445.729C525.155 447.064 525.103 448.449 525.001 449.784C524.898 450.964 524.795 452.145 524.693 453.325C528.542 455.84 530.595 459.587 533.315 462.821C533.88 463.488 534.188 464.361 534.393 465.182C534.907 467.183 535.215 469.236 535.779 471.238C536.087 472.367 536.652 473.445 537.216 474.472C537.883 475.652 538.705 476.833 539.577 477.91C542.349 481.247 545.736 483.71 550.15 484.839C551.279 485.147 552.409 484.07 551.998 482.992C551.588 481.863 551.28 480.528 550.458 479.707C548.662 477.859 548.149 475.652 548.457 473.445C549.072 469.134 546.506 466.619 543.427 464.309C541.579 462.923 539.526 461.846 537.524 460.614C536.138 459.741 534.496 458.869 534.496 457.175C534.547 453.993 532.186 452.042 530.339 450.195C528.183 448.09 527.978 446.14 528.593 443.625C529.62 439.775 530.595 435.926 531.622 432.077C531.673 431.82 532.084 431.615 532.648 431.101C533.264 431.409 534.291 431.666 534.547 432.23C535.266 433.822 536.344 434.54 538.191 434.899C540.912 435.413 543.375 436.747 544.556 439.313C545.685 441.726 548.046 442.65 550.15 443.933C551.536 444.754 552.973 445.421 554.154 445.986C554.924 448.039 553.281 450.143 555.54 451.837C557.747 450.759 559.492 449.014 561.134 447.269C562.366 445.935 563.7 445.113 565.497 444.497C570.886 442.598 574.325 437.671 573.555 432.846C573.042 429.613 571.913 426.482 570.835 423.351C569.911 420.631 568.166 418.219 565.651 416.833C561.339 414.523 558.722 410.879 555.694 407.491C554 405.592 554.051 403.385 555.026 401.692C556.874 398.458 558.568 394.865 562.982 393.736C564.008 393.479 564.984 392.915 566.01 392.453C567.601 392.915 569.141 393.377 570.629 393.787C571.091 394.865 571.399 395.892 571.913 396.764C572.374 397.534 573.196 397.996 574.222 397.329C574.376 396.354 574.53 395.379 574.684 394.557C579.201 392.094 585.001 392.094 588.029 387.269C590.39 388.552 592.494 387.012 594.804 386.704C597.781 386.294 600.552 385.678 601.989 382.701C602.195 382.29 602.862 382.085 603.273 381.777C608.559 377.774 612.255 372.949 612.255 366.174C614.051 365.148 615.232 363.659 615.796 361.76C616.053 360.939 616.104 359.912 616.669 359.348C618.927 357.192 618.568 354.626 618.311 352.06C618.67 351.906 619.081 351.752 619.44 351.598C619.03 351.444 618.67 351.29 618.26 351.136C618.619 350.212 618.927 349.442 618.106 348.364C617.079 346.927 615.232 347.645 613.743 346.824C615.232 345.387 616.463 344.258 617.798 342.975C616.771 341.692 615.899 340.665 615.078 339.639C615.026 339.69 615.026 339.69 614.975 339.741L615.078 339.639C615.642 339.074 616.207 338.51 616.823 337.894C616.207 337.124 615.847 336.354 615.283 336.097C612.665 334.814 611.177 332.504 610.202 330.195C608.816 326.91 606.557 324.754 603.273 323.266C602.811 323.06 602.554 322.496 602.143 322.034C602.195 320.853 601.938 319.57 602.451 318.492C603.221 316.799 604.351 315.208 605.531 313.719C607.584 311.153 610.817 310.332 613.538 309.254C613.948 307.406 613.486 306.482 611.844 306.277C610.407 306.123 608.662 306.431 607.584 305.815C604.812 304.224 603.17 305.302 601.579 307.303C601.271 307.714 600.86 308.073 600.45 308.433C599.577 309.1 597.883 309.151 597.473 308.279C596.446 306.02 594.188 305.199 592.34 303.967C591.622 303.454 590.903 302.838 590.338 302.171C588.953 300.528 589.774 298.373 591.981 297.911C592.853 297.705 593.726 297.603 594.445 297.449C595.317 295.652 595.625 293.599 596.857 292.675C598.859 291.187 599.834 289.237 601.066 287.338C602.092 285.798 603.529 285.387 605.326 286.311C606.198 286.773 606.814 287.646 607.533 288.313C606.917 289.699 606.147 290.776 605.993 291.906C605.839 293.035 606.352 294.215 606.506 295.396C606.609 296.371 606.506 297.295 606.506 298.835C607.635 297.808 608.354 297.244 608.918 296.628C613.538 291.752 616.412 291.187 623.033 294.061C623.033 295.447 622.93 296.987 623.084 298.475C623.187 299.81 622.468 301.144 623.444 302.479C624.727 304.275 626.421 303.197 627.96 303.403C630.013 303.659 632.323 305.712 632.477 307.406C632.066 308.073 631.656 308.792 631.194 309.562C633.298 311.769 634.119 314.232 633.606 317.209C633.298 318.903 633.452 320.699 635.967 321.726C637.918 320.597 640.125 319.622 642.793 319.519C644.898 319.416 646.9 317.004 646.438 315.002C645.719 311.82 644.487 308.741 643.461 305.61C639.868 302.222 637.969 297.449 633.298 294.883C631.245 293.753 631.143 291.752 632.682 290.007C633.504 289.083 634.581 288.415 635.403 287.492C637.507 285.028 639.457 282.564 637.764 279.074C636.994 277.534 637.661 275.943 638.739 274.711C640.741 272.299 642.947 270.041 645.257 267.526C646.181 268.039 647.054 268.552 647.926 269.117C649.722 270.297 651.468 269.99 653.007 268.86C653.983 268.142 654.958 267.218 655.574 266.243C656.6 264.652 657.473 262.907 658.243 261.161C660.193 256.901 662.092 252.59 663.991 248.279C664.402 247.355 664.504 246.277 664.71 245.302C665.479 241.042 665.839 236.679 667.122 232.573C668.559 228.056 667.738 223.899 665.839 220.049C663.888 216.149 663.067 212.248 663.016 208.091C663.016 205.524 663.221 202.855 661.066 200.802C661.168 198.955 659.269 197.723 659.167 196.08C659.013 193.822 657.678 192.693 655.882 191.718C654.906 191.204 653.777 190.896 653.007 190.178C650.749 188.022 648.285 187.868 645.462 189.049C645 190.434 645.36 192.231 643.615 193.052C643.153 193.257 642.639 193.36 642.126 193.463C641.562 192.693 641.1 192.026 640.638 191.41C639.509 191.564 638.482 191.718 637.712 191.872C636.634 189.87 635.762 188.227 634.889 186.585C634.017 186.688 633.504 186.79 632.99 186.842C632.272 186.944 631.553 187.15 630.835 187.098C629.038 187.047 628.063 185.866 628.679 184.327C629.089 183.351 629.551 182.428 630.116 181.504C632.169 178.014 634.171 174.523 634.273 170.366C634.273 169.545 634.581 168.57 635.095 167.902C638.636 162.975 637.558 156.816 640.125 151.683C640.279 151.375 640.176 151.016 640.176 150.657C640.279 146.448 640.638 145.884 644.333 144.549C645.873 143.985 647.413 143.369 648.953 142.958C650.338 142.65 651.93 142.188 653.213 142.547C655.522 143.266 655.214 139.981 657.216 140.597C657.37 140.648 657.575 140.546 657.781 140.546C660.09 140.289 662.4 139.981 664.556 139.724C666.506 135.054 666.506 135.054 671.331 135.464C672.614 135.567 673.897 135.464 675.129 135.721C676.104 135.926 677.028 136.491 677.9 136.902C677.233 139.673 677.233 139.673 678.927 140.751C682.212 139.93 683.957 136.44 687.704 136.286C688.422 136.234 689.089 134.951 690.167 133.822C688.371 133.206 687.088 132.744 685.907 132.334C684.932 130.588 684.367 128.895 685.035 127.201C686.574 123.198 686.882 119.194 686.318 114.985C686.01 112.881 687.139 111.393 689.295 110.571C692.58 109.288 695.864 108.313 699.611 108.467C699.97 110.366 700.278 112.163 700.638 114.164C702.28 114.883 703.871 115.601 705.77 116.423C707.259 112.368 706.592 108.159 709.26 105.182C708.131 102.308 706.027 100.101 706.54 96.7134C707.464 96.3541 708.542 95.6869 709.671 95.4816C710.39 95.3789 711.262 95.9949 712.648 96.4568C710.8 98.1505 710.852 99.7929 711.827 101.435C714.136 105.182 715.214 109.34 716.035 114.01C712.237 116.063 712.289 119.656 712.545 123.352C712.597 124.019 712.648 124.789 712.391 125.405C710.749 129.562 711.108 133.873 711.16 138.185C711.16 139.365 711.057 140.648 710.544 141.675C709.517 143.625 708.131 145.37 706.746 147.423C708.337 149.066 708.388 151.221 707.413 153.121C705.924 156.046 706.438 158.869 707.515 161.641C708.85 165.028 710.184 168.467 711.827 171.7C713.418 174.78 715.368 177.757 717.319 180.683C719.166 183.454 720.809 186.482 723.17 188.792C725.172 190.742 726.198 193.001 727.379 195.31C727.789 196.08 727.994 196.953 728.405 197.723C729.124 199.108 730.253 199.776 731.998 199.365C734.667 196.132 735.334 192.693 733.64 188.741C733.127 187.56 733.281 186.072 733.127 184.943C734.461 183.813 735.488 182.941 736.617 181.966C735.95 180.734 735.283 179.707 734.821 178.578C734 176.576 734.41 174.523 734.923 172.47C735.385 170.623 737.13 170.315 738.568 169.647C739.183 169.391 739.594 168.775 739.953 168.364C739.697 166.209 737.952 165.285 736.874 163.95C734.718 161.333 733.948 158.458 735.026 155.276C736.207 155.071 737.233 154.866 738.208 154.66C738.927 151.94 735.899 151.119 735.847 149.117C734.821 148.963 734.102 148.912 733.435 148.809C731.998 145.986 731.998 145.986 732.1 143.882C732.1 143.728 732.152 143.523 732.203 143.369C732.357 142.034 731.895 141.008 730.612 140.34C729.021 139.519 728.456 141.11 727.225 141.47C724.607 139.93 724.145 137.415 724.094 134.797C724.042 131.358 724.094 127.868 722.195 124.737C721.938 124.327 721.835 123.762 721.835 123.249C721.733 121.966 721.938 120.58 723.426 120.323C725.89 119.861 726.711 117.962 727.943 116.371C728.2 116.012 728.816 115.961 729.124 115.807C730.458 116.269 730.099 118.373 732.203 117.962C732.408 117.398 732.614 116.73 732.87 116.115C733.178 115.293 733.384 114.472 733.846 113.754C735.847 110.571 739.286 109.853 742.725 111.649C744.213 112.47 745.343 114.113 747.55 113.805C747.601 113.24 747.755 112.727 747.755 112.265C747.858 107.081 748.781 102 750.321 97.124C751.502 93.4286 753.709 89.9384 756.018 86.6535C756.532 85.935 757.045 85.2677 757.609 84.6005C758.739 83.3174 760.124 82.7014 761.921 82.8041C763.358 82.8554 764.744 82.8041 766.078 82.8041C767.053 81.1103 767.361 79.4679 766.335 78.1335C764.59 75.9778 763.358 73.3601 760.278 72.4363C758.944 72.0257 757.712 71.2558 757.25 71.0505C756.224 69.4081 755.864 67.8169 754.992 67.5603C753.452 67.0984 752.323 66.6878 752.015 65.0454C751.964 64.6861 751.142 64.1215 750.834 64.1728C747.858 64.8401 746.113 62.8897 744.367 61.3499C743.084 61.7092 742.058 62.1198 741.031 62.2738C740.672 62.3251 740.159 61.7605 739.902 61.3499C739.748 61.1446 739.902 60.5287 740.056 60.4774C741.288 59.9641 742.16 59.1429 742.468 57.8597L742.417 57.8084C743.033 58.373 743.598 59.1429 744.367 59.5535C747.858 61.2986 751.04 59.4508 751.194 55.7554C751.245 54.7289 750.988 53.651 751.194 52.6758C752.015 48.6724 750.373 46.0035 746.626 44.3097C745.086 43.5911 743.957 42.5646 743.444 40.8196C743.905 39.9983 744.316 39.0745 744.881 38.202C745.035 37.9453 745.445 37.894 746.164 37.586C746.934 40.409 748.935 41.7948 752.477 41.9487C753.349 39.6904 753.965 36.8675 757.815 36.8675C759.252 37.9966 760.946 39.2798 762.999 40.8709C765.154 38.8692 767.823 39.1771 770.595 39.3311C771.519 39.3824 772.545 38.6639 773.418 38.3046C773.52 37.9453 773.52 36.6108 772.135 36.0976Z" fill="#678FC0" fill-opacity="0.8"/>
<path fill-rule="evenodd" clip-rule="evenodd" d="M563.649 504.909C562.622 503.267 561.749 501.881 561.031 500.649C558.824 500.239 558.773 501.625 558.362 502.702C557.181 502.856 555.898 502.6 555.642 501.471C554.923 498.699 552.768 497.364 550.099 496.389C550.304 494.952 550.509 493.823 550.663 492.643C550.92 490.795 548.251 491.205 548.046 489.717C548.046 489.563 547.994 489.358 547.994 489.204C547.635 486.894 545.685 488.331 544.555 487.921C543.324 486.637 542.297 485.098 540.86 484.122C537.216 481.659 533.418 479.349 530.184 476.372C529.158 475.448 527.72 474.884 526.54 474.063C525.565 473.395 516.891 468.519 515.813 468.211C515.3 468.057 514.838 467.698 514.273 467.647C513.76 467.595 512.99 467.647 512.785 467.903C512.477 468.417 512.22 469.238 512.425 469.751C513.144 471.804 514.94 473.241 516.788 474.268C519.868 476.013 521.818 478.631 524.025 481.197C526.489 484.122 529.414 486.791 530.389 490.589C530.441 490.743 530.595 490.897 530.697 491C533.982 493.515 535.317 497.159 536.651 500.701C537.37 502.548 538.396 504.037 539.782 505.474C543.991 509.785 548.456 513.789 553.897 517.382C554.615 517.382 555.693 517.484 556.771 517.33C557.797 517.176 558.824 516.714 559.851 516.406C560.415 512.711 560.98 509.169 561.544 505.628C562.211 505.474 562.827 505.217 563.649 504.909Z" fill="#678FC0" fill-opacity="0.8"/>
<path fill-rule="evenodd" clip-rule="evenodd" d="M597.165 530.57C598.55 529.646 599.885 530.108 601.322 530.365C602.041 530.519 602.708 530.057 602.297 528.773C598.961 528.773 596.292 526.31 592.751 526.258C592.237 526.258 591.775 525.129 591.262 524.462C589.158 523.487 587.105 522.409 584.949 521.536C583.769 521.075 582.639 521.229 581.408 522.05C578.533 523.897 575.146 523.538 572.734 521.742C569.911 519.586 566.882 519.227 563.597 519.073C561.39 518.97 560.159 519.791 560.107 522.306C561.545 523.282 562.93 524.821 564.727 525.335C570.578 527.08 576.788 526.977 582.742 528.773C586.951 530.057 591.775 528.876 596.087 530.621C596.395 530.775 596.908 530.724 597.165 530.57Z" fill="#678FC0" fill-opacity="0.8"/>
<path fill-rule="evenodd" clip-rule="evenodd" d="M579.509 500.596C579.663 502.239 580.433 503.83 580.895 505.472C582.486 505.626 583.718 505.78 584.95 505.934C585.668 506.037 586.643 505.986 587.003 506.396C588.44 508.193 590.134 507.885 591.879 507.217C593.162 506.755 594.291 507.115 595.574 507.32C597.884 507.679 599.218 509.373 600.809 510.502C602.811 509.835 604.556 509.322 605.891 508.86C606.609 506.755 607.584 505.01 607.687 503.214C607.841 501.007 608.662 499.313 610.048 497.619C610.92 496.542 611.485 495.258 612.05 493.975C613.949 489.767 613.897 489.767 618.157 488.175C617.234 487.252 616.412 486.43 615.591 485.558C615.129 485.045 614.359 484.326 614.462 483.915C615.129 481.965 613.743 480.682 612.974 479.142C612.05 477.397 612.768 475.703 613.743 474.266C614.359 473.342 616.412 473.753 616.258 472.008C616.104 470.16 618.876 470.879 618.927 469.236C618.722 468.98 618.568 468.569 618.311 468.466C615.95 467.234 613.538 466.259 612.306 463.59C611.536 461.897 609.021 461.999 607.687 463.488C607.225 464.001 606.763 464.617 606.558 465.233C605.788 467.799 603.427 469.339 601.323 470.16C598.5 471.238 596.96 473.086 595.317 475.139C593.572 477.346 591.93 479.553 588.696 480.22C587.105 480.528 586.028 481.914 585.258 483.402C584.796 484.275 584.231 485.147 583.564 486.122C581.306 485.609 579.201 485.147 577.302 484.737C575.403 485.866 574.53 487.457 574.633 489.202C574.787 492.282 575.506 495.412 577.713 497.773C578.842 498.646 579.406 499.313 579.509 500.596Z" fill="#678FC0" fill-opacity="0.8"/>
<path fill-rule="evenodd" clip-rule="evenodd" d="M760.38 606.84C758.121 604.428 756.53 601.964 757.043 598.68C755.247 597.653 753.707 596.832 752.681 596.216C751.346 592.674 750.679 589.338 748.934 586.618C747.702 584.719 745.033 583.641 742.98 582.153C742.672 581.947 742.364 581.793 742.005 581.639C740.106 580.818 739.439 579.33 739.285 577.482C739.079 574.248 739.079 570.964 736.975 568.089C736.513 567.474 736.718 566.396 736.667 565.574C736.564 564.189 736.564 562.803 736.462 561.417C736.205 558.851 734.973 557.722 732.048 557.106C731.534 557.003 731.072 556.798 730.816 556.746C729.379 552.076 728.044 547.662 726.607 543.248C726.453 542.786 725.735 542.426 724.965 541.811C724.144 543.607 723.322 544.993 722.912 546.43C721.937 549.92 720.653 553.41 720.499 556.952C720.294 561.93 718.6 566.396 716.753 570.861C715.521 573.838 711.877 574.608 709.567 572.298C706.641 569.373 702.843 567.679 699.404 565.523C696.735 563.881 694.58 561.982 692.629 559.518C694.426 556.592 693.964 552.794 697.659 550.844C698.532 550.382 698.789 548.791 699.456 547.508C698.481 547.148 697.608 546.533 697.3 546.738C696.068 547.508 694.836 547.097 693.605 547.046C689.858 546.892 686.573 545.403 683.134 544.428C682.364 544.223 681.44 544.223 680.619 544.12C680.209 546.019 678.977 547.046 676.924 547.097C674.871 547.148 672.715 547.097 671.329 548.586C668.352 551.768 664.195 554.437 664.913 559.775C662.501 559.621 660.345 559.467 658.241 559.313C658.241 559.364 658.292 559.364 658.292 559.415L658.19 559.313C656.855 557.773 656.188 555.669 653.981 554.95C649.516 556.233 649.516 556.233 641.868 562.649C641.56 563.983 641.252 565.266 640.996 566.396C639.661 566.601 638.635 566.755 637.865 566.858C637.352 568.346 638.789 570.04 636.582 570.604C635.555 569.578 634.631 568.654 633.913 567.987C630.936 569.013 629.755 570.656 629.909 573.273C629.961 574.146 629.242 575.172 628.677 575.994C628.01 577.02 627.138 577.893 626.47 578.919C624.982 581.075 622.929 582.204 620.209 582.615C617.18 583.128 614.203 583.898 611.227 584.668C609.687 585.078 608.198 586.207 606.659 586.259C603.322 586.31 600.859 588.004 598.036 589.133C595.213 590.262 593.263 592.674 590.234 593.444C589.772 593.547 589.31 594.574 589.31 595.189C589.31 597.653 588.541 599.86 587.463 602.118C586.436 604.171 586.847 606.532 587.565 608.688C587.873 609.663 588.438 610.587 588.695 611.614C589.105 613.153 588.181 613.821 586.744 614.129C586.744 614.077 586.744 614.077 586.744 614.026C586.642 614.847 586.282 615.72 586.436 616.541C587.617 624.035 589.67 631.374 589.67 639.022C589.67 639.689 590.08 640.356 590.132 641.023C590.286 644.873 589.721 648.568 586.796 651.597C584.589 653.906 584.64 654.419 586.898 656.729C587.411 657.242 587.822 657.807 588.387 658.269C591.107 660.527 594.34 660.887 597.625 659.86C599.832 659.193 602.142 658.32 603.99 656.934C607.685 654.214 611.637 654.112 615.949 654.727C617.591 654.933 619.233 655.138 620.876 654.933C622.056 654.779 623.596 654.317 624.212 653.496C626.111 650.929 628.626 649.544 631.706 648.722C632.527 648.466 633.245 647.747 634.067 647.388C635.042 646.977 636.171 646.413 637.146 646.567C641.15 647.183 644.742 646.002 648.335 644.565C652.39 642.974 656.65 643.744 660.807 643.846C661.167 643.846 661.629 644 661.783 644.206C663.374 646.156 665.837 646.31 668.044 647.029C670.508 647.85 672.92 648.774 672.715 651.904C672.715 652.212 672.92 652.572 673.177 652.828C675.487 655.189 675.538 658.115 675.589 661.092C675.589 661.656 676 662.221 676.359 663.247C678.515 661.246 680.055 659.141 682.159 658.012C684.52 656.78 685.341 653.906 688.729 653.085C688.318 654.522 688.215 655.549 687.805 656.421C687.291 657.499 686.419 658.423 685.803 659.501C685.29 660.425 684.879 661.4 684.674 662.426C684.417 663.504 682.724 663.966 683.134 665.249C686.522 666.019 686.06 662.529 687.907 661.759C690.012 663.863 688.061 666.07 688.267 668.175C689.088 668.226 689.755 668.277 690.525 668.329C691.5 671.254 692.321 674.077 691.552 677.362C690.782 680.801 692.681 684.035 696.171 685.42C699.404 686.703 702.227 688.449 705.256 690.553C707.103 689.321 708.951 688.192 710.645 686.96C711.312 686.447 711.671 685.472 712.852 685.985C714.751 687.627 713.776 690.861 716.445 692.041C718.857 691.733 720.653 690.553 722.296 689.167C724.708 687.063 727.531 686.19 730.765 686.036C734.922 685.882 735.435 685.215 736.667 681.366C737.796 677.927 738.309 674.18 740.876 671.357C743.647 668.277 745.495 664.736 747.445 661.194C748.831 658.731 750.525 656.524 752.835 654.779C756.017 652.315 757.865 649.03 759.25 645.489C760.688 641.588 761.868 637.585 763.664 633.838C764.794 631.477 765.256 629.27 764.64 626.858C764.126 624.753 764.126 622.803 764.691 620.75C766.077 615.309 763.972 610.741 760.38 606.84Z" fill="#678FC0" fill-opacity="0.8"/>
<path fill-rule="evenodd" clip-rule="evenodd" d="M703.974 499.673C701.819 502.29 698.021 503.06 696.224 506.088C695.916 506.602 695.095 506.858 694.274 507.371C692.58 505.934 690.989 504.549 689.449 503.214C689.449 501.828 689.552 500.596 689.398 499.416C689.244 498.287 688.833 497.158 688.576 496.182C680.724 493.565 679.646 493.719 676.207 498.03C677.028 498.646 678.157 499.159 678.619 499.98C679.748 501.982 681.442 502.547 683.649 502.393C684.368 502.342 685.086 502.239 685.856 502.188C686.678 502.136 687.345 502.341 687.088 503.368C685.086 503.933 683.033 504.548 680.98 505.113C681.904 506.909 682.725 508.552 683.752 510.502C685.035 509.63 686.01 508.963 687.242 508.09C689.295 509.27 691.399 510.708 693.709 511.631C696.224 512.658 698.996 513.069 701.613 513.89C702.794 514.249 703.974 514.916 705.001 515.584C705.719 516.045 706.489 516.661 706.9 517.38C707.978 519.536 708.902 521.743 709.928 524.052C708.748 524.874 707.67 525.489 706.797 526.311C706.181 526.875 705.617 527.696 706.541 528.928C707.772 528.826 709.158 528.723 710.595 528.518C713.11 528.158 715.317 528.364 716.857 530.673C717.576 531.751 718.551 532.47 719.937 532.624C722.298 532.932 724.607 533.342 726.968 533.496C727.789 533.548 729.021 533.137 729.381 532.572C729.842 531.854 729.637 530.725 729.74 529.801C730.664 528.98 731.536 528.107 732.511 527.337C734.205 526.003 736.104 525.541 738.106 526.567C740.672 527.85 743.495 528.672 744.881 531.495C745.446 532.726 746.831 533.548 747.653 534.728C749.141 536.781 751.194 537.602 753.76 537.705C756.173 537.808 758.482 538.116 760.638 539.245C760.946 539.399 761.459 539.142 762.537 538.988C759.56 536.319 756.481 534.317 754.633 531.597C752.734 528.672 748.936 527.132 748.114 523.282C748.73 522.872 749.346 522.513 749.808 522.051C750.989 520.921 750.835 519.844 749.346 519.228C747.191 518.304 744.984 517.431 742.982 516.61C741.185 512.761 741.237 512.709 737.849 510.656C736.771 509.989 735.642 509.424 734.462 509.014C728.867 506.961 723.221 504.908 717.576 502.957C714.137 501.777 710.647 500.802 707.157 499.673C705.976 499.262 704.641 498.851 703.974 499.673Z" fill="#678FC0" fill-opacity="0.8"/>
<path fill-rule="evenodd" clip-rule="evenodd" d="M661.629 317.928C657.831 321.161 655.829 325.729 652.545 329.322C652.083 329.784 652.134 331.119 652.493 331.632C652.75 332.042 654.033 331.786 655.162 331.888C655.162 333.12 655.316 334.301 655.111 335.43C654.803 337.278 655.624 338.817 656.445 340.357C656.907 341.178 658.652 341.538 659.32 340.871C660.192 340.049 661.219 339.279 661.219 337.894C661.219 336.354 661.065 334.763 661.424 333.274C662.04 330.759 660.962 328.963 659.217 327.372C658.704 326.91 657.985 326.653 658.55 325.575C661.167 325.473 662.81 322.65 665.735 322.804C668.763 322.958 670.56 319.622 673.691 320.238C674.101 321.88 674.307 323.42 674.871 324.857C675.333 326.037 676.308 326.859 677.848 326.551C680.62 322.855 680.825 322.445 681.39 319.468C682.827 319.519 684.315 319.878 685.701 319.622C686.83 319.416 687.959 317.774 688.729 317.979C691.142 318.544 690.423 316.08 691.706 315.67C692.168 315.516 692.63 315.259 692.887 315.156C693.605 315.823 694.273 316.85 694.837 316.799C695.504 316.747 696.377 315.926 696.736 315.259C697.301 314.181 697.352 313.001 696.839 311.769C696.274 310.332 695.71 308.792 695.812 307.303C695.966 304.275 695.453 301.504 693.811 298.27C697.095 295.344 696.479 291.803 695.761 288.518C694.991 285.131 692.887 282.256 690.012 279.998C688.678 280.152 687.446 280.306 686.368 280.409C684.521 282.462 685.393 284.72 686.163 286.414C689.089 292.676 686.625 298.219 684.213 303.762C683.494 305.404 681.698 306.431 679.85 306.482C678.926 306.482 678.002 305.404 676.924 304.686C677.232 308.279 675.436 311.307 674.666 314.438C672.664 314.643 671.022 314.694 669.431 314.951C667.788 315.208 666.146 315.464 664.657 316.029C663.631 316.439 662.502 317.158 661.629 317.928Z" fill="#678FC0" fill-opacity="0.8"/>
<path fill-rule="evenodd" clip-rule="evenodd" d="M690.423 255.413C689.602 254.745 688.832 253.975 688.062 253.257C686.881 252.179 685.598 251.255 684.11 250.947C682.878 251.563 682.929 252.436 683.443 253.206C684.931 255.515 685.136 258.082 685.188 260.648C685.188 261.982 685.342 263.317 685.393 264.651L682.622 266.499C680.825 269.219 680.466 271.786 683.135 274.249C683.699 274.814 683.905 275.738 684.469 276.816C685.752 275.789 686.727 274.916 687.805 274.044C686.368 272.863 685.188 271.94 683.956 270.913C684.623 270.554 684.931 270.348 685.239 270.194C688.011 268.603 690.628 268.398 693.195 270.656C693.862 271.221 695.145 271.221 696.223 271.478C696.531 270.759 696.839 270.297 696.89 269.784C697.198 267.269 698.533 265.729 701.253 265.165C702.177 264.959 702.998 264.087 704.127 263.368C702.946 261.777 701.971 260.391 700.996 259.057C695.402 258.697 693.759 258.184 690.423 255.413Z" fill="#678FC0" fill-opacity="0.8"/>
</svg>
