<svg width="1816" height="258" viewBox="0 0 1816 258" fill="none" xmlns="http://www.w3.org/2000/svg">
<path d="M59.2693 4.74085V280.5H0.966797V4.74085H59.2693Z" fill="white"/>
<path d="M322.723 4.74085V280.5H272.364L152.393 106.939H150.373V280.5H92.0709V4.74085H143.237L262.266 178.167H264.69V4.74085H322.723Z" fill="white"/>
<path d="M345.224 52.8102V4.74085H571.702V52.8102H487.277V280.5H429.648V52.8102H345.224Z" fill="white"/>
<path d="M593.832 280.5V4.74085H779.646V52.8102H652.135V118.518H770.086V166.588H652.135V232.43H780.185V280.5H593.832Z" fill="white"/>
<path d="M810.832 280.5V4.74085H919.628C940.453 4.74085 958.227 8.46611 972.948 15.9166C987.76 23.2774 999.025 33.735 1006.74 47.2896C1014.55 60.7544 1018.46 76.5979 1018.46 94.8203C1018.46 113.132 1014.51 128.886 1006.61 142.082C998.711 155.187 987.266 165.241 972.275 172.243C957.374 179.245 939.331 182.745 918.147 182.745H845.302V135.888H908.721C919.852 135.888 929.098 134.362 936.459 131.31C943.82 128.258 949.295 123.68 952.886 117.576C956.566 111.472 958.406 103.887 958.406 94.8203C958.406 85.6642 956.566 77.9444 952.886 71.6609C949.295 65.3773 943.775 60.6197 936.324 57.3882C928.963 54.0669 919.673 52.4062 908.452 52.4062H869.135V280.5H810.832ZM959.753 155.008L1028.29 280.5H963.927L896.872 155.008H959.753Z" fill="white"/>
<path d="M1194.09 84.0485C1193.01 73.1869 1188.39 64.7489 1180.22 58.7347C1172.05 52.7204 1160.97 49.7132 1146.96 49.7132C1137.45 49.7132 1129.41 51.0597 1122.86 53.7527C1116.31 56.3559 1111.28 59.9914 1107.78 64.6592C1104.37 69.327 1102.66 74.6231 1102.66 80.5476C1102.48 85.4847 1103.52 89.7935 1105.76 93.4738C1108.09 97.1542 1111.28 100.341 1115.32 103.034C1119.36 105.637 1124.03 107.926 1129.32 109.901C1134.62 111.786 1140.27 113.402 1146.29 114.748L1171.06 120.673C1183.09 123.366 1194.13 126.956 1204.19 131.445C1214.24 135.933 1222.95 141.453 1230.31 148.006C1237.67 154.559 1243.37 162.279 1247.41 171.166C1251.54 180.052 1253.65 190.241 1253.74 201.731C1253.65 218.607 1249.34 233.238 1240.81 245.626C1232.37 257.924 1220.17 267.484 1204.19 274.306C1188.3 281.038 1169.13 284.405 1146.69 284.405C1124.43 284.405 1105.04 280.993 1088.52 274.171C1072.1 267.349 1059.26 257.251 1050.02 243.876C1040.86 230.411 1036.06 213.759 1035.61 193.921H1092.03C1092.65 203.167 1095.3 210.887 1099.97 217.081C1104.73 223.185 1111.06 227.808 1118.96 230.949C1126.94 234.001 1135.97 235.527 1146.02 235.527C1155.89 235.527 1164.47 234.091 1171.74 231.219C1179.1 228.346 1184.8 224.352 1188.84 219.235C1192.88 214.118 1194.9 208.239 1194.9 201.596C1194.9 195.402 1193.06 190.196 1189.38 185.977C1185.79 181.758 1180.49 178.167 1173.49 175.205C1166.58 172.243 1158.09 169.55 1148.04 167.126L1118.01 159.586C1094.76 153.931 1076.41 145.089 1062.94 133.06C1049.48 121.032 1042.79 104.829 1042.88 84.4524C1042.79 67.7561 1047.23 53.1692 1056.21 40.6919C1065.28 28.2145 1077.71 18.4749 1093.51 11.4732C1109.31 4.47155 1127.26 0.970703 1147.37 0.970703C1167.83 0.970703 1185.7 4.47155 1200.96 11.4732C1216.31 18.4749 1228.24 28.2145 1236.77 40.6919C1245.3 53.1692 1249.7 67.6214 1249.97 84.0485H1194.09Z" fill="white"/>
<path d="M1336.09 4.74085V280.5H1277.79V4.74085H1336.09Z" fill="white"/>
<path d="M1466.65 280.5H1368.89V4.74085H1467.45C1495.19 4.74085 1519.07 10.2614 1539.09 21.3025C1559.1 32.2539 1574.5 48.0077 1585.27 68.564C1596.13 89.1202 1601.56 113.716 1601.56 142.351C1601.56 171.076 1596.13 195.761 1585.27 216.407C1574.5 237.053 1559.01 252.897 1538.82 263.938C1518.71 274.979 1494.65 280.5 1466.65 280.5ZM1427.19 230.545H1464.22C1481.46 230.545 1495.95 227.493 1507.71 221.389C1519.56 215.196 1528.45 205.636 1534.37 192.709C1540.39 179.693 1543.4 162.907 1543.4 142.351C1543.4 121.974 1540.39 105.323 1534.37 92.3966C1528.45 79.4704 1519.61 69.9553 1507.85 63.8513C1496.09 57.7472 1481.59 54.6952 1464.36 54.6952H1427.19V230.545Z" fill="white"/>
<path d="M1629.58 280.5V4.74085H1815.4V52.8102H1687.89V118.518H1805.84V166.588H1687.89V232.43H1815.94V280.5H1629.58Z" fill="white"/>
</svg>
