<svg width="465" height="78" viewBox="0 0 465 78" fill="none" xmlns="http://www.w3.org/2000/svg">
<path d="M90.0543 16.6434V60.8482H78.4141V16.6434H90.0543Z" fill="white"/>
<path d="M145.681 16.6434V60.8482H135.627L111.675 33.026H111.271V60.8482H99.6312V16.6434H109.847L133.611 44.4441H134.095V16.6434H145.681Z" fill="white"/>
<path d="M153.202 24.349V16.6434H198.418V24.349H181.563V60.8482H170.057V24.349H153.202Z" fill="white"/>
<path d="M252.217 60.8482V16.6434H273.939C278.096 16.6434 281.645 17.2406 284.584 18.4349C287.541 19.6149 289.79 21.2913 291.332 23.4641C292.891 25.6225 293.67 28.1623 293.67 31.0834C293.67 34.0189 292.882 36.5442 291.305 38.6595C289.728 40.7604 287.443 42.372 284.45 43.4944C281.475 44.6168 277.872 45.178 273.643 45.178H259.099V37.6666H271.761C273.983 37.6666 275.829 37.422 277.299 36.9327C278.768 36.4435 279.862 35.7096 280.579 34.7311C281.313 33.7526 281.681 32.5367 281.681 31.0834C281.681 29.6156 281.313 28.3781 280.579 27.3709C279.862 26.3636 278.759 25.6009 277.272 25.0829C275.802 24.5505 273.947 24.2843 271.707 24.2843H263.858V60.8482H252.217ZM281.95 40.7316L295.633 60.8482H282.783L269.395 40.7316H281.95Z" fill="white"/>
<path d="M331.763 29.3566C331.548 27.6155 330.625 26.2629 328.994 25.2988C327.363 24.3347 325.15 23.8526 322.354 23.8526C320.455 23.8526 318.851 24.0685 317.542 24.5001C316.234 24.9174 315.23 25.5002 314.531 26.2485C313.85 26.9967 313.51 27.8457 313.51 28.7954C313.474 29.5869 313.68 30.2776 314.128 30.8675C314.594 31.4575 315.23 31.9683 316.037 32.4C316.843 32.8173 317.775 33.1843 318.833 33.5008C319.89 33.803 321.019 34.062 322.22 34.2779L327.166 35.2276C329.568 35.6593 331.772 36.2348 333.779 36.9543C335.787 37.6738 337.525 38.5588 338.995 39.6092C340.464 40.6596 341.602 41.8971 342.409 43.3217C343.233 44.7463 343.654 46.3795 343.672 48.2214C343.654 50.9266 342.794 53.2721 341.091 55.2579C339.407 57.2292 336.969 58.7617 333.779 59.8553C330.607 60.9346 326.781 61.4742 322.3 61.4742C317.856 61.4742 313.985 60.9274 310.687 59.8338C307.407 58.7402 304.845 57.1213 302.999 54.9773C301.171 52.8188 300.212 50.1496 300.122 46.9695H311.386C311.512 48.4516 312.04 49.6891 312.972 50.682C313.922 51.6605 315.186 52.4015 316.763 52.9052C318.358 53.3944 320.159 53.639 322.166 53.639C324.137 53.639 325.849 53.4088 327.301 52.9483C328.77 52.4879 329.908 51.8475 330.715 51.0273C331.521 50.2071 331.924 49.2646 331.924 48.1998C331.924 47.2069 331.557 46.3723 330.822 45.696C330.105 45.0197 329.048 44.4441 327.65 43.9692C326.27 43.4944 324.577 43.0627 322.569 42.6742L316.574 41.4655C311.933 40.5589 308.268 39.1415 305.579 37.2133C302.891 35.2851 301.556 32.6878 301.574 29.4214C301.556 26.7449 302.443 24.4066 304.235 22.4065C306.045 20.4063 308.528 18.845 311.682 17.7226C314.836 16.6003 318.42 16.0391 322.435 16.0391C326.521 16.0391 330.087 16.6003 333.134 17.7226C336.199 18.845 338.582 20.4063 340.285 22.4065C341.988 24.4066 342.866 26.7233 342.919 29.3566H331.763Z" fill="white"/>
<path d="M363.142 16.6434V60.8482H351.502V16.6434H363.142Z" fill="white"/>
<path d="M392.236 60.8482H372.719V16.6434H392.397C397.935 16.6434 402.702 17.5284 406.699 19.2983C410.695 21.0538 413.769 23.5792 415.919 26.8744C418.088 30.1696 419.172 34.1124 419.172 38.7027C419.172 43.3073 418.088 47.2645 415.919 50.5741C413.769 53.8837 410.677 56.4234 406.645 58.1934C402.63 59.9633 397.827 60.8482 392.236 60.8482ZM384.359 52.8404H391.752C395.193 52.8404 398.087 52.3512 400.435 51.3727C402.801 50.3798 404.575 48.8473 405.758 46.7752C406.959 44.6887 407.559 41.9979 407.559 38.7027C407.559 35.4362 406.959 32.767 405.758 30.6949C404.575 28.6228 402.81 27.0975 400.462 26.119C398.114 25.1405 395.22 24.6512 391.779 24.6512H384.359V52.8404Z" fill="white"/>
<path d="M243.205 16.6433H206.107V25.2988H217.747H243.205V16.6433Z" fill="white"/>
<path fill-rule="evenodd" clip-rule="evenodd" d="M206.107 60.8481V52.0085H217.747H243.312V60.8481H206.107Z" fill="white"/>
<path d="M243.205 34.0238H217.747H206.107V43.1366L217.747 43.1106L243.205 43.1366V34.0238Z" fill="#EA262B"/>
<path fill-rule="evenodd" clip-rule="evenodd" d="M427.795 52.0085V60.8482H465V52.0085H439.435H427.795ZM464.893 25.5047H439.418H427.795V16.6434H464.893V25.5047Z" fill="white"/>
<path d="M465 34.0238H439.418H427.795V43.4894H439.418H465V34.0238Z" fill="#EA262B"/>
<path d="M0.661375 16.3479C0.715173 16.2874 7.78284 12.6049 16.3636 8.16971C24.9443 3.7278 31.9985 0.105738 32.0456 0.119178C32.0859 0.125898 39.1603 3.77484 63.4096 16.3278L63.5374 16.6638C63.6047 16.8452 63.7055 17.2417 63.7661 17.5373C63.8266 17.833 63.9073 18.3303 63.9409 18.6461C63.9812 18.962 64.0283 20.1111 64.0552 21.1997C64.0754 22.369 64.0619 23.7869 64.0149 24.6605C63.9745 25.4736 63.914 26.4346 63.8871 26.7975C63.8602 27.1536 63.8064 27.4493 63.7728 27.4493C63.7392 27.4493 58.3325 24.7815 51.7692 21.5156C45.2059 18.2497 38.0777 14.715 32.0321 11.7179L16.182 19.5802C7.46006 23.9079 0.304966 27.4493 0.271342 27.4493C0.244443 27.4493 0.204095 27.2343 0.177196 26.9655C0.150297 26.6967 0.0897749 25.8567 0.0494266 25.0973C0.00235365 24.2909 -0.0110958 22.7453 0.00907836 21.3677C0.0292525 19.8087 0.0763255 18.7805 0.143573 18.3101C0.19737 17.9204 0.31169 17.3492 0.399112 17.0334C0.486533 16.7175 0.600853 16.4084 0.661375 16.3479Z" fill="#EA262B"/>
<path d="M5.33505 53.8118C5.36867 53.7983 11.3604 50.2502 18.65 45.9292C25.9396 41.615 31.938 38.0736 31.9851 38.0736C32.0254 38.0669 38.0508 41.6083 45.3605 45.9427C52.677 50.2703 58.6754 53.8252 58.6956 53.8386C58.7158 53.8521 58.4065 54.5039 58.0097 55.2902C57.6129 56.0697 57.0413 57.1382 56.7387 57.6556C56.4361 58.173 55.8981 59.0332 55.5417 59.5708C55.192 60.1084 54.5868 60.9685 54.1968 61.486C53.8135 62.0034 53.1343 62.8636 52.6837 63.4012C52.2332 63.9388 51.5069 64.772 51.0564 65.2492C50.6058 65.7263 49.8392 66.5192 49.3415 66.9964C48.8439 67.4735 48.0706 68.1858 47.6335 68.5756C47.1896 68.9653 46.4499 69.5903 45.9859 69.9599C45.5219 70.3295 44.7082 70.9611 44.1702 71.3576C43.6323 71.7608 42.711 72.4059 42.1192 72.8024C41.5274 73.1989 40.6936 73.7365 40.2699 73.9986C39.8463 74.2606 39.0998 74.6974 38.6224 74.973C38.1449 75.2485 37.2774 75.7189 36.7058 76.0213C36.1342 76.317 35.2398 76.7538 34.722 76.9957C34.0361 77.3048 33.525 77.4862 31.9246 77.8827L31.1714 77.6878C30.7545 77.5803 30.1425 77.372 29.813 77.2309C29.4768 77.083 28.5555 76.6328 27.762 76.2363C26.9684 75.8331 25.8454 75.235 25.2738 74.9058C24.7022 74.5765 23.7339 73.9919 23.1219 73.6021C22.51 73.2191 21.6492 72.6479 21.2054 72.3387C20.7615 72.0296 19.9277 71.4248 19.3561 70.988C18.7845 70.5579 17.843 69.812 17.2714 69.3282C16.6998 68.8511 15.7449 68.0111 15.1599 67.46C14.5681 66.909 13.6602 66.0018 13.1424 65.4508C12.6179 64.893 11.8244 63.9992 11.3806 63.4684C10.93 62.9308 10.2777 62.1177 9.93475 61.654C9.58507 61.1903 9.01347 60.3906 8.66378 59.8732C8.3141 59.3557 7.72905 58.4351 7.36591 57.8236C7.00278 57.2121 6.3841 56.0697 5.98735 55.2767C5.59059 54.4838 5.2947 53.8252 5.33505 53.8118Z" fill="#EA262B"/>
<path d="M1.23298 36.0509L16.5989 26.9453C25.0519 21.9389 31.9851 17.8465 32.0187 17.8397C32.0456 17.8397 38.972 21.9255 47.4183 26.9184C55.8578 31.9181 62.7977 36.0307 62.8313 36.0643C62.8784 36.1046 62.8717 36.3062 62.8111 36.6758C62.7641 36.9782 62.5556 38.3155 62.3539 39.6461C62.1521 40.9766 61.8966 42.6096 61.7823 43.2748C61.6747 43.9401 61.5065 44.8944 61.4124 45.3916C61.3183 45.8889 61.2174 46.319 61.1905 46.3459C61.1703 46.3728 56.2008 43.9401 50.1552 40.9363C44.1097 37.9325 37.5531 34.68 32.0321 31.945L17.4732 39.1757C9.46402 43.1472 2.9007 46.4064 2.88053 46.3996C2.86036 46.3996 2.74604 45.8956 2.63172 45.2774C2.51067 44.6524 2.28875 43.4227 2.14754 42.5357C1.99959 41.6486 1.74405 40.0157 1.57594 38.9069C1.40782 37.7981 1.25987 36.7027 1.23298 36.0509Z" fill="#EA262B"/>
</svg>
