<svg width="400" height="69" viewBox="0 0 400 69" fill="none" xmlns="http://www.w3.org/2000/svg">
<path d="M77.4662 15.2679V53.2936H67.4531V15.2679H77.4662Z" fill="#272727"/>
<path d="M125.317 15.2679V53.2936H116.669L96.0644 29.3604H95.7175V53.2936H85.7044V15.2679H94.4919L114.934 39.1825H115.351V15.2679H125.317Z" fill="#272727"/>
<path d="M131.787 21.8964V15.2679H170.683V21.8964H156.183V53.2936H146.286V21.8964H131.787Z" fill="#272727"/>
<path d="M216.961 53.2936V15.2679H235.646C239.223 15.2679 242.275 15.7816 244.804 16.809C247.347 17.824 249.282 19.2661 250.608 21.1352C251.949 22.9919 252.62 25.1766 252.62 27.6894C252.62 30.2145 251.942 32.3869 250.585 34.2065C249.228 36.0137 247.263 37.4 244.688 38.3655C242.129 39.331 239.03 39.8138 235.392 39.8138H222.881V33.3524H233.773C235.685 33.3524 237.273 33.142 238.537 32.7211C239.801 32.3002 240.741 31.669 241.358 30.8272C241.99 29.9855 242.306 28.9396 242.306 27.6894C242.306 26.4268 241.99 25.3623 241.358 24.4958C240.741 23.6294 239.793 22.9733 238.514 22.5277C237.25 22.0697 235.654 21.8407 233.727 21.8407H226.974V53.2936H216.961ZM242.537 35.9889L254.308 53.2936H243.254L231.738 35.9889H242.537Z" fill="#272727"/>
<path d="M285.388 26.204C285.203 24.7063 284.409 23.5427 283.006 22.7134C281.603 21.884 279.699 21.4694 277.294 21.4694C275.66 21.4694 274.28 21.655 273.155 22.0264C272.029 22.3854 271.166 22.8867 270.565 23.5303C269.979 24.174 269.686 24.9043 269.686 25.7213C269.655 26.4021 269.833 26.9962 270.218 27.5037C270.619 28.0112 271.166 28.4506 271.86 28.822C272.554 29.181 273.355 29.4966 274.265 29.7689C275.174 30.0289 276.146 30.2517 277.179 30.4373L281.434 31.2543C283.499 31.6256 285.396 32.1208 287.122 32.7397C288.849 33.3586 290.344 34.1198 291.608 35.0234C292.873 35.927 293.852 36.9916 294.545 38.217C295.254 39.4424 295.617 40.8473 295.632 42.4317C295.617 44.7588 294.877 46.7765 293.412 48.4847C291.963 50.1805 289.866 51.4987 287.122 52.4395C284.393 53.3678 281.102 53.832 277.248 53.832C273.425 53.832 270.095 53.3616 267.258 52.4209C264.437 51.4802 262.232 50.0876 260.644 48.2433C259.072 46.3866 258.247 44.0904 258.17 41.3548H267.859C267.967 42.6298 268.422 43.6943 269.224 44.5484C270.041 45.3901 271.128 46.0276 272.484 46.4608C273.856 46.8817 275.406 47.0921 277.132 47.0921C278.828 47.0921 280.3 46.8941 281.549 46.498C282.813 46.1019 283.792 45.551 284.486 44.8455C285.18 44.1399 285.527 43.3292 285.527 42.4132C285.527 41.5591 285.211 40.8412 284.578 40.2594C283.962 39.6776 283.052 39.1825 281.85 38.774C280.663 38.3655 279.206 37.9942 277.479 37.66L272.322 36.6202C268.329 35.8404 265.177 34.6211 262.864 32.9625C260.552 31.3038 259.403 29.0695 259.419 26.2597C259.403 23.9574 260.166 21.9459 261.708 20.2254C263.265 18.5048 265.4 17.1618 268.114 16.1963C270.827 15.2308 273.91 14.748 277.364 14.748C280.879 14.748 283.946 15.2308 286.567 16.1963C289.203 17.1618 291.254 18.5048 292.718 20.2254C294.183 21.9459 294.938 23.9388 294.985 26.204H285.388Z" fill="#272727"/>
<path d="M312.38 15.2679V53.2936H302.367V15.2679H312.38Z" fill="#272727"/>
<path d="M337.407 53.2936H320.619V15.2679H337.546C342.31 15.2679 346.411 16.0292 349.848 17.5517C353.286 19.0618 355.93 21.2342 357.78 24.0688C359.646 26.9034 360.578 30.295 360.578 34.2436C360.578 38.2046 359.646 41.6086 357.78 44.4556C355.93 47.3025 353.271 49.4873 349.802 51.0098C346.349 52.5323 342.217 53.2936 337.407 53.2936ZM330.632 46.4051H336.991C339.951 46.4051 342.441 45.9843 344.46 45.1426C346.495 44.2885 348.022 42.9702 349.039 41.1877C350.072 39.3929 350.588 37.0782 350.588 34.2436C350.588 31.4338 350.072 29.1376 349.039 27.3552C348.022 25.5727 346.503 24.2606 344.484 23.4189C342.464 22.5772 339.974 22.1564 337.014 22.1564H330.632V46.4051Z" fill="#272727"/>
<path d="M209.209 15.2678H177.296V22.7134H187.309H209.209V15.2678Z" fill="#272727"/>
<path fill-rule="evenodd" clip-rule="evenodd" d="M177.296 53.2934V45.6895H187.309H209.301V53.2934H177.296Z" fill="#272727"/>
<path d="M209.209 30.2188H187.309H177.296V38.0577L187.309 38.0354L209.209 38.0577V30.2188Z" fill="#EA262B"/>
<path fill-rule="evenodd" clip-rule="evenodd" d="M367.996 45.6895V53.2936H400.001V45.6895H378.009H367.996ZM399.908 22.8905H377.994H367.996V15.2679H399.908V22.8905Z" fill="#272727"/>
<path d="M400.001 30.2188H377.994H367.996V38.3613H377.994H400.001V30.2188Z" fill="#EA262B"/>
<path d="M0.568925 15.4641C0.615202 15.4121 6.69492 12.2443 14.0762 8.42912C21.4575 4.60813 27.5256 1.49238 27.5661 1.50394C27.6008 1.50972 33.6863 4.6486 54.5459 15.4468L54.6558 15.7358C54.7137 15.8919 54.8005 16.233 54.8525 16.4873C54.9046 16.7417 54.974 17.1694 55.0029 17.4411C55.0376 17.7128 55.0781 18.7013 55.1013 19.6378C55.1186 20.6436 55.107 21.8633 55.0665 22.6148C55.0318 23.3142 54.9798 24.1409 54.9566 24.453C54.9335 24.7594 54.8872 25.0137 54.8583 25.0137C54.8294 25.0137 50.1785 22.7188 44.5326 19.9094C38.8868 17.1001 32.755 14.0595 27.5545 11.4813L13.92 18.2446C6.41725 21.9673 0.262336 25.0137 0.233412 25.0137C0.210274 25.0137 0.175566 24.8287 0.152427 24.5975C0.129288 24.3663 0.0772257 23.6437 0.0425175 22.9905C0.00202465 22.2968 -0.00954475 20.9673 0.00780934 19.7823C0.0251634 18.4412 0.0656563 17.5567 0.123503 17.1521C0.169781 16.8168 0.268121 16.3255 0.343322 16.0538C0.418523 15.7821 0.516863 15.5162 0.568925 15.4641Z" fill="#EA262B"/>
<path d="M4.58929 47.6911C4.61821 47.6796 9.77238 44.6274 16.043 40.9104C22.3136 37.1993 27.4735 34.1529 27.514 34.1529C27.5487 34.1471 32.7318 37.1935 39.0198 40.922C45.3135 44.6447 50.4735 47.7027 50.4909 47.7142C50.5082 47.7258 50.2421 48.2865 49.9008 48.9628C49.5595 49.6334 49.0678 50.5525 48.8075 50.9976C48.5472 51.4427 48.0844 52.1827 47.7778 52.6451C47.477 53.1076 46.9564 53.8475 46.6209 54.2926C46.2912 54.7377 45.7069 55.4776 45.3193 55.9401C44.9318 56.4025 44.307 57.1193 43.9194 57.5297C43.5319 57.9402 42.8724 58.6223 42.4443 59.0327C42.0163 59.4431 41.351 60.0559 40.975 60.3911C40.5932 60.7264 39.9569 61.264 39.5578 61.5819C39.1586 61.8999 38.4587 62.4433 37.9959 62.7843C37.5331 63.1312 36.7406 63.6861 36.2316 64.0272C35.7225 64.3682 35.0052 64.8307 34.6408 65.0561C34.2764 65.2815 33.6343 65.6573 33.2235 65.8943C32.8128 66.1313 32.0666 66.5359 31.5749 66.7961C31.0832 67.0504 30.3138 67.4262 29.8684 67.6343C29.2784 67.9002 28.8387 68.0562 27.462 68.3973L26.8141 68.2297C26.4554 68.1372 25.929 67.958 25.6456 67.8366C25.3563 67.7094 24.5638 67.3221 23.8813 66.981C23.1987 66.6342 22.2326 66.1197 21.7409 65.8365C21.2492 65.5532 20.4162 65.0503 19.8898 64.715C19.3634 64.3856 18.623 63.8942 18.2412 63.6283C17.8594 63.3624 17.1421 62.8421 16.6504 62.4664C16.1587 62.0964 15.3488 61.4548 14.8571 61.0386C14.3654 60.6281 13.544 59.9056 13.0407 59.4316C12.5317 58.9575 11.7507 58.1772 11.3053 57.7031C10.8541 57.2234 10.1715 56.4545 9.78973 55.9979C9.40216 55.5354 8.84104 54.836 8.54602 54.4371C8.24522 54.0382 7.75352 53.3503 7.45271 52.9052C7.15191 52.4601 6.64864 51.6682 6.33627 51.1421C6.02389 50.6161 5.4917 49.6334 5.1504 48.9513C4.80911 48.2692 4.55458 47.7027 4.58929 47.6911Z" fill="#EA262B"/>
<path d="M1.06062 32.4129L14.2787 24.5802C21.55 20.2736 27.514 16.7532 27.543 16.7474C27.5661 16.7474 33.5243 20.2621 40.7899 24.5571C48.0497 28.8578 54.0195 32.3956 54.0484 32.4245C54.0889 32.4592 54.0831 32.6326 54.0311 32.9505L54.025 32.9895C53.975 33.3109 53.8037 34.4109 53.6377 35.5056C53.4642 36.6501 53.2444 38.0548 53.146 38.6271C53.0535 39.1994 52.9089 40.0202 52.8279 40.448C52.7469 40.8758 52.6601 41.2457 52.637 41.2688C52.6196 41.292 48.3447 39.1994 43.1443 36.6154C37.9438 34.0315 32.3038 31.2337 27.5545 28.881L15.0307 35.1009C8.14109 38.5173 2.49523 41.3209 2.47787 41.3151C2.46052 41.3151 2.36218 40.8815 2.26384 40.3497C2.15972 39.8121 1.96882 38.7543 1.84734 37.9912C1.72008 37.2282 1.50026 35.8235 1.35564 34.8697C1.21103 33.9159 1.08376 32.9736 1.06062 32.4129Z" fill="#EA262B"/>
</svg>
