<svg width="768" height="693" viewBox="0 0 768 693" fill="none" xmlns="http://www.w3.org/2000/svg">
<path fill-rule="evenodd" clip-rule="evenodd" d="M765.826 36.0976C763.978 35.379 763.568 34.0445 763.516 32.3508C763.516 31.6836 763.311 31.0163 763.26 30.4004C761.771 28.8093 759.667 27.8341 759.256 25.7297C761.617 23.3688 761.617 23.3688 761.977 21.8803C762.131 21.2644 762.233 20.4945 762.028 19.9299C761.207 18.0309 760.232 16.2345 759.102 14.0788C755.972 13.1549 752.533 12.1797 749.145 11.1532C747.195 12.4364 745.244 13.6682 743.448 14.9513C743.089 15.2079 743.089 15.8752 742.986 16.2345C744.577 18.2362 746.066 20.0839 748.016 22.4962C746.271 22.5989 745.244 22.6502 744.423 22.6502C742.319 20.1866 740.522 17.7742 738.367 15.7212C737.289 14.6947 735.441 13.5655 734.158 13.7195C731.13 14.1301 728.564 12.693 725.689 12.7443C722.764 12.7443 719.889 12.385 717.015 11.8718C714.962 11.5125 712.601 12.385 710.548 11.9744C708.495 11.5638 706.75 10.1267 704.492 9.76742C700.334 9.20283 696.228 8.53561 691.968 8.43296C689.145 8.38163 686.579 8.79224 683.961 9.7161C681.754 10.486 679.445 10.9992 677.135 11.4099C675.185 11.7691 673.183 11.9231 670.925 12.2311C671.592 14.9513 672.208 17.1583 674.825 18.7494C676.776 19.9299 678.264 21.7777 679.804 23.4714C680.779 24.4979 680.574 25.6784 679.393 26.6536C678.623 27.2695 677.597 27.6288 676.416 28.296C674.723 25.8837 672.516 24.6519 669.59 24.2413C667.383 23.9334 666.665 22.2909 667.075 19.9813C667.178 19.468 667.434 19.0061 667.383 18.4928C667.28 17.107 665.946 16.1318 664.303 16.1318C662.969 16.1318 662.199 16.953 662.302 18.5955C662.404 20.1866 662.507 21.675 661.532 23.3175C656.297 25.1652 649.984 24.0873 645.056 27.8854C644.646 29.3739 644.235 30.965 643.825 32.3508C641.31 32.9667 641.002 29.9385 638.743 30.4004C636.998 30.7597 635.15 30.4517 633.149 30.4517C632.687 29.3226 632.225 28.45 631.917 27.4748C630.634 23.2148 627.041 21.1617 623.243 19.4167C621.241 18.4928 618.983 18.4415 616.827 19.2114C612.772 20.7512 608.615 22.137 605.074 24.7546C603.944 25.6271 602.661 26.3457 601.378 26.9616C600.403 27.4235 598.863 27.4748 598.453 26.397C597.426 23.5741 594.603 23.5741 592.601 22.4449C590.6 23.5228 590.6 23.1635 588.649 23.0608C586.288 22.9582 584.44 21.5724 582.182 21.4697C581.977 21.4697 581.823 20.9564 581.618 20.5972C582.08 19.7759 582.541 18.9034 583.106 17.8769C582.49 17.3123 582.08 16.6964 581.515 16.3885C577.717 14.5921 573.97 14.9513 570.737 17.3636C569.299 18.4415 568.016 18.9547 566.271 18.8008L566.374 18.9034C564.27 17.261 561.857 17.8769 559.547 17.9796C554.979 18.1849 550.463 18.4415 545.895 18.7494C545.689 18.7494 545.536 19.2114 545.33 19.4167C546.254 20.1352 547.178 20.8538 548.256 21.675C546.819 22.7529 545.69 23.5227 544.663 24.4466C543.893 25.1652 544.355 26.551 545.433 26.9616C546.049 27.1669 546.767 27.0642 547.537 27.1155C547.999 29.9385 550.309 31.4782 551.9 33.4286C551.643 33.8906 551.489 34.2499 551.284 34.5065C550.514 35.3277 549.693 34.8658 548.769 34.7631C548.153 34.6605 547.229 34.9171 546.921 35.3277C546.613 35.7383 546.767 36.6622 547.127 37.1241C547.589 37.7913 548.769 38.3559 547.64 39.1258C547.075 39.4851 545.895 39.3311 545.125 39.0745C544.355 38.7665 543.739 38.0993 543.123 37.586C537.221 36.4055 537.221 36.4055 534.449 40.5116C532.088 40.8709 529.573 41.3328 527.11 40.0497C526.648 39.793 525.878 40.0497 525.005 40.101C525.364 43.6938 528.187 46.3627 527.52 50.1095C526.494 50.1609 525.364 50.4688 524.441 50.1609C522.747 49.5963 521.002 48.8777 519.616 47.8512C517.306 46.0548 514.791 44.823 512.02 43.7965C510.891 43.3858 510.018 42.462 508.786 41.5381C510.121 40.9735 511.044 40.6143 511.866 40.255C511.763 37.2781 509.813 36.3542 507.093 36.1489C507.144 32.7101 504.783 30.8623 502.37 29.3739C500.163 27.9881 497.392 26.4996 494.672 27.5261C492.772 28.2447 491.335 28.2447 489.539 27.6802C486.716 26.8589 484.15 27.1669 482.148 30.0411C482.815 31.119 483.585 32.2995 484.201 33.48C484.56 34.1985 484.612 35.0197 484.868 35.7896C482.713 36.6108 480.916 37.432 479.017 38.048C477.837 38.4072 476.4 38.9205 475.322 38.6639C473.525 38.2019 471.832 38.3559 470.035 38.5099C467.418 38.7152 467.007 38.3046 465.929 35.4817C465.775 35.0197 465.416 34.6605 465.057 34.0445C461.618 34.6091 458.179 35.0711 454.843 35.7383C452.687 36.2002 450.685 37.1241 449.71 39.2285C449.608 39.3824 449.197 39.4338 448.94 39.4851C448.376 38.8179 447.811 38.1506 447.452 37.74C446.836 37.74 446.579 37.6887 446.477 37.74C444.321 39.4851 442.165 40.255 439.65 38.1506C438.316 37.0214 436.622 37.1754 434.98 37.5347C434.158 38.5612 433.543 39.6391 434.723 40.7682C435.698 40.6143 436.622 40.5116 437.803 40.3576C435.339 45.2336 432.927 47.5946 428.41 49.9556C426.665 50.8281 430.052 52.2139 427.897 53.0351C427.64 52.8298 427.178 52.6245 427.127 52.4192C426.665 49.1343 426.922 46.0035 429.334 43.2832C429.796 42.7699 430.155 42.1027 430.258 41.4868C430.668 37.0214 431.951 32.7614 433.645 28.604C434.415 26.705 434.826 24.6519 435.339 22.6502C435.75 21.0591 435.339 19.622 434.569 18.1335C433.85 16.7991 432.516 16.9017 431.335 16.4911C430.925 16.3371 430.617 15.8239 430.206 15.3619C431.079 14.9513 431.797 14.5407 432.824 14.0275C431.027 12.4364 429.385 10.9992 427.743 9.61345C427.127 10.0754 426.665 10.3833 425.998 10.8452C423.534 7.30376 419.274 6.58522 415.527 4.73749C412.858 6.02064 410.292 7.20112 407.828 8.38161C407.726 9.81874 407.88 11.0506 407.469 12.1284C407.212 12.7443 406.083 13.2063 405.262 13.3089C404.851 13.3602 403.979 12.539 403.876 12.0258C403.62 10.6913 403.722 9.3055 403.568 7.9197C403.363 6.22595 402.336 5.50738 400.591 5.76401C398.487 6.07196 396.331 6.43122 394.278 6.73918C394.124 6.32857 394.022 6.17461 394.022 6.02064C394.638 1.45264 394.638 1.40131 390.275 0.374793C389.762 0.272141 389.197 0.169471 388.684 0.0668191C386.836 -0.18981 385.809 0.272135 385.142 1.81191C384.732 2.7871 384.475 3.76229 384.218 4.7888C384.013 5.61002 383.756 6.48257 383.705 7.30378C383.654 8.3303 383.705 9.35682 383.808 10.3833C383.91 11.4099 383.962 12.4877 384.424 13.4115C384.886 14.2841 385.861 14.9513 386.528 15.7725C387.041 16.4398 387.247 17.3123 387.709 18.0309C388.222 18.8008 389.813 18.0309 390.172 19.2114C387.76 20.3406 384.834 19.0574 382.884 21.1618C383.962 22.137 384.886 23.0095 385.809 23.882C385.861 23.882 385.963 23.882 386.015 23.882L385.912 23.9847C385.861 23.9334 385.861 23.9334 385.809 23.882C383.859 23.728 382.011 23.5741 380.831 25.7297C379.753 27.6801 377.546 28.1934 375.134 28.6553C375.134 27.2695 375.134 25.9864 375.134 24.8059C373.081 24.2926 372.721 25.4731 372.465 26.7049C367.64 28.0394 367.64 28.0394 365.587 30.1438C365.998 30.811 366.408 31.5296 366.819 32.2481C365.484 33.8392 363.637 34.7631 361.84 35.379C359.582 36.1489 358.401 37.894 356.862 39.2798C355.579 40.4603 354.757 42.0514 353.782 43.4885C353.526 43.8478 353.372 44.4637 353.526 44.8743C354.398 47.5433 352.55 48.4671 349.779 49.2883C350.908 50.1609 351.626 50.6741 352.294 51.1874H352.191C352.602 51.9573 352.961 52.7272 353.372 53.4971C355.835 54.7289 358.863 55.2935 360.762 57.9624C359.89 59.0916 359.069 60.1694 358.247 61.2472C358.145 61.3499 357.837 61.2986 357.58 61.3499C357.683 60.3234 357.786 59.3995 357.888 58.4243C357.17 58.3217 356.708 58.1677 356.451 58.2703C351.678 60.426 346.853 62.4277 341.772 63.8135C340.027 64.2755 339.411 66.0206 340.232 67.6117C341.259 69.6134 342.593 71.4611 343.568 73.4628C344.338 75.0026 345.313 75.9778 347.212 76.1317C348.65 76.2344 350.241 76.0291 351.165 77.4149C352.345 79.1086 354.09 79.8785 356.04 80.4944C357.272 80.8537 358.504 81.5723 358.658 82.9068C358.966 85.5757 360.608 87.68 361.943 89.8871C360.455 90.7596 359.12 91.5295 357.837 92.2994C356.913 89.5791 355.425 87.0128 356.708 83.9333C357.17 82.8041 355.681 81.6749 354.141 82.1369C351.165 83.0607 349.009 82.1882 346.597 80.4944C344.133 78.8007 341.31 77.3122 338.025 77.5689C336.537 77.6715 335.664 78.3901 335.613 80.0838C336.075 80.3918 336.793 80.6998 337.204 81.213C337.563 81.6749 337.871 82.4962 337.717 83.0094C337.46 83.9846 336.485 84.2412 335.51 83.9333C334.638 83.6766 333.868 83.1634 332.995 82.9581C332.533 82.8554 331.712 83.0094 331.558 83.3174C331.25 83.8306 331.045 84.6518 331.301 85.1651C332.225 87.2695 334.124 88.142 336.331 88.8092C337.82 89.2198 339.668 88.6039 341.156 90.5543C337.409 90.4003 334.073 91.2216 330.634 89.7844C329.3 87.3208 327.503 84.9598 327.144 81.8802C326.939 80.2891 326.323 78.698 324.116 76.953C324.68 78.852 325.091 79.7759 325.194 80.7511C325.245 81.7263 325.348 83.0094 324.783 83.728C322.833 86.2429 323.192 88.8606 323.449 90.2977C325.296 92.4021 326.169 93.8392 327.401 94.763C329.3 96.2001 330.121 97.8426 330.018 100.101C329.916 104.053 331.712 107.338 334.073 110.366C335.818 110.52 337.255 110.417 338.384 109.34C339.77 108.005 341.259 108.056 342.901 108.724C343.928 109.134 344.851 109.75 345.929 109.955C348.085 110.417 349.265 111.906 350.703 113.24C352.242 114.677 350.446 116.217 351.165 117.603C351.165 117.603 351.216 117.603 351.216 117.654V117.706C351.216 117.654 351.165 117.654 351.165 117.603C350.343 116.987 349.419 116.474 348.752 115.755C347.058 114.01 345.467 112.162 343.979 110.469C341.721 110.828 340.283 111.957 338.949 113.086C337.512 114.318 337.255 115.858 338.641 117.141C341.002 119.399 341.669 121.709 340.181 124.583C339.822 125.302 340.181 126.277 340.027 127.098C339.873 128.125 339.668 129.151 339.206 130.075C338.179 132.026 336.999 133.873 335.869 135.875C332.328 135.362 328.53 135.978 325.348 133.822C326.271 133.771 327.247 133.719 327.657 132.693C328.325 132.898 329.043 132.949 329.659 133.257C330.891 133.925 332.02 133.565 332.379 132.539C333.919 128.227 336.28 123.967 334.381 119.091C333.97 118.014 334.022 116.731 333.868 115.447C330.172 113.805 328.581 110.777 327.452 107.389C326.477 104.618 325.296 101.846 324.526 99.0231C323.962 96.9187 323.038 94.8657 321.242 93.7878C318.624 92.1967 318.419 90.041 318.265 87.5774C318.059 84.4978 318.059 81.367 316.366 78.8007C312.465 76.645 308.718 77.2096 304.817 78.2874C304.099 80.8537 304.458 83.42 304.663 85.9863C304.92 88.9632 304.971 91.6835 302.97 94.3524C301.738 95.9948 301.584 98.2532 303.585 99.9983C305.587 101.743 306.408 104.053 306.152 106.517C305.946 108.621 306.922 110.007 308.769 110.52C310.874 111.085 312.208 112.316 313.645 113.6C314.672 114.523 316.006 115.191 317.187 115.961C317.597 117.449 317.854 118.937 316.366 120.683C312.978 117.808 308.975 116.217 304.971 114.729C303.637 114.216 301.994 114.113 300.917 113.292C296.041 109.648 290.6 110.725 285.262 111.239C283.26 114.831 287.469 116.115 287.931 118.681C287.674 120.734 284.8 121.042 284.698 123.249C284.646 123.762 283.209 123.608 282.85 123.095C282.131 121.966 282.799 120.169 280.848 119.656C280.54 119.707 280.13 119.707 279.822 119.861C276.896 121.145 274.484 123.454 270.891 123.249C270.121 123.198 269.094 124.327 268.427 125.097C267.195 126.431 265.758 126.79 263.911 126.123C263.757 125.148 263.705 124.121 263.397 123.198C263.089 122.12 261.55 121.76 260.78 122.633C259.291 124.429 257.341 125.302 255.031 125.867C253.389 126.226 252.208 127.304 251.028 128.484C248.923 130.64 246.665 132.59 244.201 134.9C244.201 134.849 244.099 135.156 243.996 135.516C243.893 135.824 243.893 136.183 243.791 136.542C242.816 140.186 239.326 141.264 236.451 138.647C235.425 137.723 234.039 137.004 234.142 134.951C235.168 133.976 236.4 132.795 237.632 131.666C235.733 127.92 232.961 126.328 228.701 127.406C228.393 127.458 228.085 127.458 227.726 127.509C228.906 130.178 230.036 132.847 229.522 135.824C229.317 137.056 229.779 138.082 230.805 139.057C232.961 141.008 232.653 143.266 231.319 145.678C228.958 145.268 226.853 144.908 224.595 144.498C222.285 147.423 218.539 149.066 217.358 153.121C218.025 154.096 218.949 155.225 219.462 156.457C219.719 157.124 219.462 158.099 219.154 158.818C218.744 159.69 217.717 159.844 216.793 159.485C214.432 158.51 212.123 157.483 209.813 156.508C209.043 156.2 208.171 155.995 207.042 155.584C206.58 156.713 205.81 157.74 206.015 158.561C206.169 159.434 207.093 160.357 207.965 160.871C208.838 161.435 210.07 161.487 210.994 162C211.507 162.308 211.917 163.078 211.969 163.642C212.071 164.669 211.096 165.439 210.275 165.336C208.684 165.182 207.093 164.669 205.656 164.053C204.065 163.386 202.576 162.411 200.831 161.435C200.318 160.203 199.907 158.715 199.137 157.329C198.367 155.892 197.854 154.558 198.008 152.915C198.213 150.554 196.828 149.271 194.518 148.296C192.106 147.321 190.001 145.73 188.77 143.112C189.488 143.112 189.847 143.009 190.155 143.112C195.288 145.37 200.626 146.961 206.169 148.039C208.735 148.553 211.199 148.45 213.765 147.783C217.409 146.859 219.154 144.395 220.078 141.264C220.489 139.878 220.232 138.595 219.308 137.363C217.512 134.797 214.843 133.257 212.071 132.026C209.249 130.742 206.528 129.408 204.065 127.663C199.651 124.532 194.775 123.146 189.18 123.813C187.846 123.967 186.409 123.505 185.074 123.352C185.074 122.325 185.228 121.606 185.023 121.042C184.869 120.683 184.253 120.272 183.791 120.169C183.175 120.067 182.2 120.067 181.841 120.426C180.198 122.017 178.299 120.631 176.605 120.991C174.552 121.401 173.526 120.375 172.602 118.681C174.912 118.373 177.324 118.168 178.145 115.396C175.887 113.651 173.166 113.035 170.498 112.47C169.625 113.497 169.009 114.216 167.777 115.601C167.675 113.856 167.726 112.881 167.521 112.009C167.418 111.444 167.11 110.674 166.648 110.417C165.673 109.904 164.852 110.52 164.39 111.29C163.928 112.009 163.928 112.932 163.569 113.702C163.312 114.216 162.799 114.677 162.388 115.191C161.669 114.421 161.259 113.959 160.592 113.24C159.616 114.883 158.744 116.32 157.769 117.962C156.537 115.755 158.333 114.267 158.539 112.47C156.691 112.009 155.1 112.06 153.971 113.908C153.457 114.78 152.585 115.447 151.969 116.269C151.25 117.192 150.686 118.168 150.172 118.835C147.965 118.63 146.272 117.038 144.219 118.424C144.681 119.348 145.091 120.067 145.451 120.785C141.344 122.53 141.344 122.53 137.136 122.633C136.982 122.633 136.879 122.684 136.725 122.684C136.161 123.095 135.647 123.505 135.083 123.865C134.826 123.967 134.569 124.121 134.313 124.224C134.569 124.173 134.877 124.121 135.134 124.07C134.364 125.507 133.389 125.969 131.644 125.148C130.412 124.583 129.129 125.969 129.642 127.15C129.847 127.612 130.258 127.971 130.617 128.279C131.746 129.203 131.541 130.075 130.566 130.845C129.796 131.461 128.924 131.974 128.102 132.539C128.77 133.206 129.437 133.822 130.104 134.489C126.973 135.926 124.458 137.723 123.483 141.11C123.226 142.034 123.021 142.907 122.764 143.779C122.559 144.549 120.917 144.806 120.25 145.576C119.377 146.653 118.607 147.885 118.196 149.168C117.221 152.248 116.451 155.379 115.579 158.51C115.425 158.972 115.476 159.793 115.22 159.896C112.859 160.768 112.602 163.488 110.498 164.618C108.855 165.49 107.777 166.876 107.213 168.57C106.597 170.469 105.262 171.752 103.62 172.932C102.491 173.754 101.413 174.729 100.335 175.601L100.438 175.653C99.3599 175.755 98.282 175.858 97.0502 175.961C97.1015 176.628 97.2042 177.244 97.2555 177.86C95.7671 178.783 94.2786 179.707 92.7902 180.631C89.5567 182.582 89.1461 183.711 90.4292 187.765C91.5071 187.765 92.5849 187.817 93.6627 187.765C94.7919 187.714 96.0237 186.739 97.4608 188.433C94.7406 188.587 92.4822 188.741 90.0186 188.895C89.9673 191.204 90.6345 192.795 92.7389 193.668L92.6362 193.719C93.9707 196.286 91.4557 197.62 90.2752 199.262C90.8398 199.673 91.0964 199.93 91.4044 200.084C93.3034 200.854 93.714 201.623 92.6362 202.855C92.0716 203.471 90.9938 203.676 91.6097 205.216C92.6362 205.883 93.9707 206.756 95.3052 207.629C97.9741 209.425 100.489 208.501 102.953 207.269C103.723 206.91 104.185 206.037 104.852 205.473C106.032 204.446 107.161 203.317 108.445 202.393C110.292 201.11 110.344 201.162 111.216 198.236C112.345 200.494 113.526 202.445 114.193 204.754C115.271 208.296 115.989 212.094 118.402 215.173C119.274 216.251 120.044 217.381 120.917 218.612C120.506 219.382 120.096 220.152 119.685 220.922C120.763 221.949 121.789 223.026 122.867 224.053C124.356 224.156 125.844 224.309 126.563 222.616C127.076 221.333 128.205 220.563 129.488 220.511C132.465 220.46 134.415 218.715 136.52 217.226C135.493 215.789 134.877 214.25 135.083 212.505C135.339 210.605 135.853 208.758 135.75 206.91C135.647 204.857 136.571 203.42 138.265 202.701C141.704 201.264 142.32 198.595 142.32 195.054C141.19 193.925 140.061 192.18 138.368 191.307C136.007 190.075 135.442 188.381 135.545 186.174C135.596 184.789 135.955 183.403 135.853 182.068C135.699 179.656 136.52 177.654 138.162 175.909C139.651 174.369 141.139 172.932 142.73 171.495C144.065 170.315 145.604 169.34 146.785 168.056C148.325 166.363 149.351 164.464 148.889 161.949C148.633 160.46 148.787 158.818 149.3 157.381C149.865 155.789 150.84 153.993 152.893 153.788C155.202 153.582 157.666 153.736 159.976 154.096C162.491 154.506 163.722 156.097 163.261 158.15C161.259 160.717 159.565 162.924 157.82 165.131C155.972 167.492 154.484 170.161 152.225 172.06C150.121 173.856 149.505 175.601 150.224 177.911C151.302 181.401 151.918 184.943 151.815 188.587C151.815 188.895 152.02 189.254 152.123 189.459C154.997 190.999 157.82 192.539 161.156 194.335C163.671 193.463 166.648 192.179 169.83 191.461C173.166 190.691 176.657 190.486 179.941 190.075C181.481 191.204 182.867 192.231 184.509 193.411C182.816 194.438 181.173 195.054 180.198 196.183C178.504 198.133 176.759 198.339 174.398 197.569C170.908 196.388 167.521 197.415 164.287 198.647C162.029 199.519 161.721 200.546 162.08 202.753C162.439 204.806 163.569 206.191 165.776 206.91C165.776 208.655 165.878 210.195 165.724 211.735C165.622 213.018 164.903 213.993 162.491 213.89C162.029 213.377 161.361 212.351 160.438 211.478C158.898 210.092 156.742 210.195 155.767 211.889C154.279 214.455 152.893 217.124 153.868 220.255C154.433 222.051 154.997 223.899 154.381 225.747C153.047 226.465 151.353 226.876 150.686 227.902C149.813 229.185 148.941 230.007 147.401 230.212C145.399 230.417 144.424 229.288 143.551 227.851C143.397 227.646 142.936 227.594 142.422 227.389C136.622 228.21 132.26 232.214 126.511 234.831C125.331 233.599 124.099 232.368 122.456 230.674C120.301 231.341 117.581 232.162 115.117 232.932C113.218 232.008 111.473 231.136 109.779 230.315C109.214 229.237 108.393 228.21 108.085 227.081C107.88 226.209 108.239 225.182 108.342 224.258C108.291 224.258 108.291 224.258 108.239 224.258C108.291 224.258 108.291 224.207 108.342 224.207C110.087 222.924 110.96 221.127 111.575 219.074C110.241 217.688 110.087 216.046 110.652 214.25C110.908 213.377 110.754 212.505 109.368 212.197C108.906 212.505 108.291 212.864 107.726 213.274C107.315 213.582 106.956 213.993 106.494 214.301C105.878 214.712 105.16 214.917 104.646 215.379C104.287 215.635 103.928 216.251 104.031 216.611C104.236 217.38 104.031 217.791 103.62 218.407C102.439 220.511 102.491 222.821 103.415 225.182C104.338 227.594 105.314 230.007 105.365 232.624C105.416 234.215 103.877 236.166 102.491 235.704C99.7705 234.831 97.9741 236.73 95.7157 237.09C90.7371 237.86 87.3496 240.374 86.4771 245.302C86.2205 246.79 85.4506 247.817 84.0648 248.535C83.1409 249.049 82.3197 249.87 81.3445 250.28C79.5994 251.102 78.4189 252.128 77.957 254.027C77.7517 254.9 76.8791 256.029 76.0066 256.337C74.1075 257.055 72.3625 257.671 71.1306 259.365C70.874 259.776 69.7448 259.827 69.0776 259.724C67.6918 259.468 66.3574 258.954 64.6636 258.441C64.6636 260.084 64.6636 261.572 64.6636 263.266C63.1751 263.368 61.6867 263.882 60.7115 263.42C57.9913 262.239 55.7842 263.368 53.1666 264.138C53.3206 265.319 53.4746 266.294 53.5772 267.321C55.3736 267.988 57.0674 268.706 58.8124 269.22C60.5062 269.733 61.892 270.708 62.3539 272.197C63.0212 274.404 64.8689 275.533 66.46 276.867C67.2812 280.768 66.4087 284.515 65.9981 288.261C65.9467 288.775 65.6901 289.237 65.4335 289.699C64.8689 290.93 63.7397 291.752 62.4052 291.546C57.5806 290.725 52.602 291.546 47.7774 290.469C45.0058 289.853 41.9776 289.647 39.1034 289.853C37.4609 289.955 35.9211 291.29 34.33 292.111C33.8681 292.368 33.4575 292.727 33.2522 292.829C33.6628 294.883 34.0734 296.525 34.2787 298.219C34.9973 303.146 34.5353 307.868 31.9691 312.333C31.5584 313.052 31.3018 314.284 31.6611 314.797C33.7141 317.261 33.5088 320.289 34.1247 323.42C35.6132 323.574 37.1016 324.087 38.4361 323.882C41.4643 323.368 43.4147 324.344 44.5439 327.012C44.5952 327.166 44.7492 327.32 44.8518 327.474C46.135 329.066 47.2128 329.322 49.0605 328.142C51.8834 326.345 54.8604 325.37 58.3506 325.678C59.9417 325.832 61.738 325.575 63.1238 324.959C64.7149 324.241 66.2547 323.163 67.3839 321.88C68.975 320.032 70.2068 317.928 71.5926 315.875C71.6952 315.772 71.5926 315.516 71.5926 315.362C71.0793 314.232 70.6174 313.155 70.0015 311.769C72.6191 308.381 74.5182 304.429 79.3942 302.992C81.8578 302.273 83.2949 300.477 83.3975 297.962C83.4489 296.782 83.5515 295.55 83.8082 294.369C84.3727 292.008 86.0151 290.879 88.5814 291.29C91.2504 291.752 93.868 292.419 96.6396 293.035C99.4112 291.187 102.439 289.288 105.365 287.286C106.494 286.516 107.675 286.362 109.009 286.722C111.062 287.235 112.448 288.415 113.628 290.109C117.478 295.806 121.635 301.247 128.975 303.351C129.488 303.505 129.796 304.019 130.309 304.224C132.67 305.302 134.159 307.406 136.263 308.638C138.265 309.818 138.727 311.512 139.394 313.257C140.215 315.31 139.343 316.901 137.906 318.544C135.801 318.903 133.594 319.16 131.49 319.673C129.437 320.135 127.179 318.954 124.818 320.597C127.897 323.625 131.439 324.959 134.98 325.986C135.391 325.627 135.596 325.524 135.647 325.421C136.212 323.112 135.237 319.827 139.702 320.135C139.959 320.135 140.318 319.724 140.472 319.468C141.498 317.671 142.576 315.875 143.449 313.976C143.654 313.462 143.243 312.641 142.987 312.025C142.73 311.409 142.217 310.845 142.063 310.178C141.755 308.279 143.551 306.79 145.451 307.355C146.426 307.663 147.298 308.125 148.581 308.638C148.53 307.817 148.633 307.149 148.376 306.893C145.091 303.659 139.959 302.992 136.982 299.297C136.828 299.091 136.314 299.091 135.955 299.091C133.081 298.835 131.285 297.038 130.053 294.883C128.41 292.06 126.357 289.75 123.534 288.005C122.2 287.184 121.635 285.952 121.738 284.463C121.841 283.437 121.943 282.41 122.046 281.538C123.38 280.306 124.715 279.536 126.409 279.844C127.076 281.23 127.64 282.359 128.154 283.488C129.54 283.026 130.515 282.667 131.695 282.308C132.568 283.54 133.594 284.566 134.107 285.849C135.185 288.672 137.392 290.109 140.215 291.29C145.245 293.343 150.019 295.909 153.149 300.528C153.201 300.99 153.252 301.504 153.252 302.017C153.047 305.199 153.56 308.125 156.178 310.486C157.358 311.512 158.231 312.898 159.206 314.13C160.335 315.669 161.413 317.261 162.542 318.852C161.721 320.956 163.928 321.88 164.544 323.42C165.416 325.575 167.264 325.883 169.266 325.575C170.138 323.779 170.857 322.239 171.575 320.699C173.936 320.186 173.936 318.441 173.834 316.491C172.448 315.875 171.011 315.259 170.087 314.848C169.317 312.949 168.701 311.512 168.137 310.126C167.88 309.51 167.521 308.843 167.469 308.176C167.418 307.765 167.88 307.303 168.085 306.79C169.163 307.303 170.087 307.714 171.062 308.176C171.627 307.817 172.191 307.611 172.499 307.201C173.372 305.918 173.936 304.378 175.989 304.326C177.632 304.275 179.274 304.07 180.865 304.224C182.456 304.378 183.38 305.558 183.534 307.047C183.637 308.227 183.534 309.459 183.534 310.537C187.332 313.36 187.178 314.386 185.177 317.877C186.203 319.262 187.281 320.597 188.256 321.983C189.488 323.779 190.925 325.267 193.338 325.575C194.826 325.781 196.006 326.397 197.187 327.269C199.291 328.809 201.344 328.501 203.551 326.602C204.065 326.14 204.321 325.473 204.475 325.319C207.555 325.165 209.505 326.089 211.199 327.526C212.585 328.706 214.124 328.655 215.818 328.45C218.385 328.193 219.976 326.499 221.772 325.062C223.671 325.37 225.416 325.627 227.11 325.883C227.213 327.782 227.007 329.579 227.469 331.17C228.136 333.531 227.623 335.687 226.956 337.791C225.827 341.23 224.492 344.617 223.107 348.005C222.696 348.929 222.029 349.853 221.259 350.571C220.643 351.136 219.719 351.7 218.949 351.752C216.588 351.803 214.073 352.06 211.866 351.392C208.273 350.314 204.989 350.468 201.806 352.111C200.267 352.932 198.778 353.035 197.084 352.624C192.824 351.7 188.462 351.033 184.202 350.058C180.865 349.288 177.529 348.313 174.244 347.338C173.577 347.132 172.91 346.773 172.345 346.311C169.112 343.745 165.519 344.155 161.926 345.284C159.154 346.157 157.923 348.21 158.333 350.93C158.436 351.598 158.795 352.265 158.898 352.932C159.103 354.728 157.871 355.806 156.537 356.73C155.356 357.551 154.073 357.243 152.944 356.576C152.02 356.012 151.199 355.293 150.275 354.78C147.914 353.394 145.502 352.111 142.628 352.162C140.215 352.213 138.829 350.982 138.214 348.98C137.7 347.286 136.571 346.311 134.826 345.952C132.516 345.438 130.155 344.463 127.897 344.669C123.021 345.131 119.685 342.256 115.836 340.409C114.809 339.947 114.655 338.561 115.374 337.688C115.835 337.175 116.4 336.713 116.913 336.2C118.658 334.66 119.018 332.761 117.375 331.17C115.733 329.579 117.119 327.936 116.759 326.448C116.143 326.089 115.579 325.883 115.271 325.524C113.628 323.625 111.729 323.317 109.42 324.446C107.418 325.473 105.314 325.627 103.004 325.319C101.259 325.062 99.2572 324.703 97.6661 325.216C94.9459 326.14 92.3282 325.883 89.6079 325.678C88.1708 325.575 86.7338 325.986 85.2966 326.14C84.0135 326.294 82.7816 326.756 81.4985 326.653C78.7782 326.499 76.4685 327.423 74.1589 328.552C72.6704 329.271 71.2846 329.989 69.7962 330.657C65.5361 332.453 61.7381 333.172 57.0674 333.069C55.425 333.069 53.6799 333.531 52.1401 333.12C50.4976 332.71 49.0605 331.58 47.2128 330.605C46.5969 331.837 45.9297 332.864 45.6217 333.941C44.6465 337.124 42.9014 339.587 39.5652 340.819C38.898 341.076 38.3334 341.589 37.7175 341.948C34.8946 343.539 31.815 344.874 31.6097 348.621C31.6097 349.031 30.9939 349.493 30.6859 349.904C29.6594 351.238 29.0435 352.675 29.5054 354.267C30.5832 358.013 28.4275 360.734 25.9639 362.992C24.0648 364.737 21.5499 366.174 19.0349 366.995C16.7252 367.765 15.2368 368.946 14.0563 370.742C13.4917 371.615 12.9785 372.795 12.1573 373.154C9.38569 374.386 8.35918 376.799 7.0247 379.006C6.20349 380.34 5.48488 381.829 4.40704 382.958C1.07085 386.345 -0.212292 390.759 -2.77858 394.557C-4.11306 396.456 -4.16433 398.817 -1.70069 400.562C-1.08478 400.973 -0.571573 402.154 -0.72555 402.821C-1.44411 405.336 -0.314906 407.594 -0.109602 409.955C0.0443752 411.495 -0.0582765 413.035 -0.366232 414.523C-0.776838 416.525 -1.39275 418.578 -2.16264 420.477C-2.98385 422.53 -4.16434 424.429 -5.24219 426.482C-3.85639 428.638 -1.80334 430.691 -3.24047 433.514C-2.72721 435.515 -2.31664 437.928 -0.00697569 438.595C3.27788 439.519 4.40704 442.29 6.46007 444.241C7.07598 444.857 7.4866 445.729 8.20516 446.088C11.0794 447.628 12.7218 449.784 13.5944 452.864C14.3643 455.686 15.75 458.663 18.7783 459.946C22.679 461.64 25.6559 464.412 29.0434 466.722C31.4044 468.313 34.0221 469.647 36.5884 470.93C37.9229 471.597 39.36 471.751 40.7971 470.982C44.3899 469.031 48.342 468.621 52.3967 468.364C55.3736 468.159 58.1966 468.056 61.0195 469.082C61.9947 469.442 63.2265 469.75 64.2017 469.493C66.6653 468.877 69.2316 468.261 71.3873 467.029C75.596 464.668 80.2153 463.745 84.886 462.975C89.8646 462.102 92.6875 463.745 94.9972 468.21C95.3051 468.826 95.5618 469.493 95.8697 470.109C96.5883 471.443 97.7688 472.265 99.3599 472.265C101.208 472.265 103.004 472.111 104.852 471.905C106.853 471.649 108.804 471.289 111.062 470.93C111.729 471.7 112.294 472.778 113.167 473.24C115.066 474.164 115.476 475.858 115.887 477.5C116.4 479.399 115.938 481.247 115.117 483.043C114.706 484.018 113.885 484.993 113.936 485.866C114.296 489.305 112.756 492.23 111.524 494.797C112.807 499.775 115.784 503.214 119.48 506.191C120.044 506.653 120.557 507.115 121.122 507.577C123.483 509.373 124.869 511.734 125.895 514.403C126.717 516.508 127.846 518.458 128.616 520.562C129.437 522.821 130.669 525.233 130.463 527.44C130.155 530.519 130.771 533.188 132.003 535.96C133.697 539.604 133.389 542.94 129.95 545.815C127.486 547.919 125.69 550.485 125.639 553.873C125.587 555.002 124.92 556.182 124.356 557.26C122.508 560.699 122.867 564.343 123.072 567.936C123.124 568.757 123.534 569.681 124.048 570.297C128.872 575.481 129.95 582.513 133.851 588.158C134.056 588.415 134.107 588.826 134.159 589.134C134.775 593.548 135.339 598.013 136.058 602.427C136.828 607.252 138.008 611.871 141.652 615.669C143.089 617.158 144.167 619.057 144.989 620.956C146.374 624.138 147.452 627.474 148.684 630.708C149.351 632.401 149.711 633.941 148.787 635.686C148.427 636.353 148.53 637.329 148.735 638.098C149.095 639.587 149.659 641.024 150.172 642.41C151.456 643.231 152.585 644.104 153.868 644.822C154.638 645.233 155.818 645.797 156.383 645.541C159.257 644.206 162.593 644.771 165.365 643.539C168.188 642.307 171.165 642.205 173.936 642.666C176.657 643.128 178.915 642.718 181.327 641.845C182.148 641.537 183.021 641.075 183.894 641.024C186.819 640.87 189.18 639.638 191.387 638.047C196.366 634.454 200.934 630.554 204.475 625.626C206.528 622.752 208.479 619.878 211.507 617.722C212.585 616.952 213.457 615.618 214.022 614.386C215.459 611.05 216.793 607.611 215.51 603.967C216.999 602.119 218.744 600.939 220.9 600.271C221.926 599.963 223.055 599.758 224.082 599.399C226.648 598.475 228.085 596.884 228.496 594.061C228.958 590.571 228.855 587.235 227.777 583.847C227.367 582.513 227.007 581.178 226.648 579.844C226.34 578.56 226.597 577.38 227.777 576.61C233.782 572.709 238.299 566.909 245.536 564.651C246.357 564.395 247.127 563.779 247.846 563.265C252.26 560.288 255.236 556.644 254.107 551.101C253.953 550.434 254.056 549.715 254.107 549.048C254.261 544.788 254.467 540.477 254.621 536.217C248.821 531.957 249.385 526.106 249.95 520.1C249.129 518.92 248.256 517.637 247.23 516.2C248.256 514.095 249.18 512.042 250.258 510.092C251.182 508.398 252.362 506.858 253.183 505.165C254.056 503.419 255.185 502.034 256.982 500.905C258.624 499.878 260.061 498.441 261.242 496.901C265.142 492.025 270.121 488.176 274.689 483.967C275.356 483.351 276.126 482.889 276.896 482.427C285.467 477.705 291.267 470.828 295.322 462.41C296.656 459.587 297.94 456.764 299.89 454.198C302.713 450.605 303.637 446.345 303.38 441.931C303.329 441.161 302.867 440.443 302.456 439.313C298.504 441.367 294.552 441.777 290.6 442.444C285.416 443.368 280.13 443.727 275.202 445.781C273.714 446.396 272.277 445.986 271.199 444.908C269.659 443.42 268.171 441.931 266.682 440.443C267.606 437.312 267.606 437.312 265.758 435.464C264.988 434.745 264.321 433.924 263.551 433.154C260.472 430.024 257.751 426.533 253.132 425.045C250.874 424.326 249.385 422.376 248.718 420.015C248.359 418.681 247.897 417.346 247.486 416.012C246.768 413.805 245.587 411.905 243.432 410.622C240.249 408.723 238.607 406.106 238.71 402.461C238.761 401.127 238.042 399.793 237.837 398.407C237.324 395.122 235.784 392.504 232.448 391.067C230.703 390.349 229.779 389.014 229.984 387.372C230.241 385.062 228.958 383.42 227.828 381.675C226.237 379.16 224.184 376.799 223.107 374.078C221.515 369.972 219.565 366.174 216.434 362.889C216.024 362.479 215.356 361.811 216.691 361.144C217.204 361.811 217.717 362.479 218.282 363.095C219.206 364.172 220.181 365.199 221.207 366.174C221.875 366.79 222.645 367.047 223.671 366.636C226.34 365.61 226.905 365.558 228.136 367.252C231.832 372.179 235.989 376.799 238.196 382.752C243.586 384.703 245.639 388.86 245.947 394.095C246.152 397.483 247.692 399.998 250.822 401.692C253.44 403.129 255.288 405.079 256.314 407.902C256.879 409.493 258.162 410.828 259.24 412.213C260.215 413.445 261.293 414.626 262.422 415.806C263.808 417.295 264.629 419.091 264.526 421.041C264.27 425.353 266.374 429.1 267.503 433C268.171 435.259 269.556 435.515 272.277 435.31C274.946 435.105 276.177 432.692 278.538 432.333C280.848 431.974 283.414 432.59 285.467 431.255C288.342 429.459 292.14 429.408 294.706 426.995C295.271 426.431 296.4 426.379 297.272 426.123C299.377 425.455 301.481 424.891 303.534 424.121C305.023 423.556 306.768 422.992 307.332 421.401C308.153 419.091 310.001 418.373 312.26 417.859C314.723 417.295 317.135 416.525 319.804 415.755C320.728 414.112 321.447 411.957 324.116 411.803C324.578 411.752 325.245 411.341 325.399 410.982C326.528 408.569 328.684 407.44 331.712 406.876C330.429 403.385 331.969 401.332 334.689 399.177C336.947 397.432 339.154 394.968 338.898 391.683C337.82 390.503 336.537 389.425 335.664 388.142C334.484 386.294 332.893 385.678 330.737 385.473C325.964 385.011 324.064 383.214 323.038 378.8C322.73 377.466 322.473 376.183 322.165 374.643C319.189 376.439 317.341 378.749 315.544 381.11C314.056 383.112 312.26 384.087 309.591 383.933C307.999 383.83 306.357 384.241 304.766 384.395C303.38 384.549 302.148 383.984 301.635 382.804C301.276 382.034 301.173 381.161 301.019 380.34C300.711 378.698 300.403 377.055 299.993 374.694C298.658 376.234 297.837 377.158 296.656 378.544C295.681 376.901 294.706 375.823 294.398 374.54C293.782 372.025 292.345 370.075 290.343 368.484C288.29 366.893 287.11 364.788 285.673 362.787C284.133 360.58 283.517 358.424 285.878 355.96C287.931 355.96 290.292 355.96 292.55 355.96C294.86 359.348 297.067 362.53 299.223 365.712C302.046 366.533 304.561 367.663 306.973 369.356C310.463 371.769 314.723 373.36 319.137 370.486C319.702 370.126 320.472 369.921 321.19 369.767C322.576 369.356 323.757 369.716 324.475 370.947C325.45 372.59 326.323 374.284 327.247 375.926C332.328 376.593 337.255 377.004 342.08 377.979C345.416 378.646 348.598 378.544 351.883 378.236C356.194 377.876 360.557 377.568 364.92 377.261C365.998 377.209 367.076 377.312 368.513 377.415C370.206 379.519 371.952 381.623 374.261 384.395C375.801 384.549 377.751 385.627 379.342 387.474C380.061 388.347 381.498 388.706 382.576 389.271C383.294 389.63 384.475 389.271 384.834 390.708C383.962 391.272 382.987 391.888 381.806 392.607C383.346 394.095 384.732 395.481 386.117 396.764C386.631 397.226 387.195 397.688 387.863 397.996C388.632 398.355 389.659 398.971 390.377 398.766C391.917 398.304 393.406 397.534 394.74 396.713C395.921 395.994 396.023 394.763 395.921 393.479C395.869 392.658 395.972 391.734 397.306 391.683C397.563 392.864 397.82 394.044 398.025 395.225C399 400.306 399.257 405.49 400.899 410.417C402.542 415.139 403.414 420.169 406.442 424.378C408.136 426.687 409.214 429.254 410.035 431.871C410.959 434.694 412.037 437.414 414.347 439.57C415.219 440.391 415.784 441.572 416.297 442.65C417.17 444.703 417.991 446.858 418.658 448.963C419.325 450.964 420.095 452.915 421.84 454.301C423.226 455.43 425.125 455.327 426.1 453.839C427.794 451.221 430.925 449.733 432.105 446.653C432.413 445.832 433.594 445.267 434.364 444.6C433.902 441.315 433.85 438.236 435.339 435.31C435.75 434.489 435.749 433.206 435.39 432.333C434.21 429.459 435.082 426.482 434.774 423.608C434.723 422.941 435.39 421.914 436.006 421.452C437.751 420.272 439.65 419.348 441.498 418.321C442.114 417.962 443.089 417.603 443.192 417.141C443.756 414.626 446.22 413.805 447.811 412.213C449.916 410.058 452.43 408.313 454.021 405.695C454.894 404.258 455.972 403.077 458.025 402.513C460.54 401.794 462.131 399.741 462.388 397.021C462.439 396.354 462.696 395.687 462.85 395.173C466.853 392.966 466.853 392.761 469.009 393.018C473.577 393.531 477.221 392.196 479.684 388.604C482.507 388.347 483.534 389.989 483.944 391.94C484.92 396.61 487.794 399.639 492.311 401.486C492.773 401.692 493.132 402.154 493.491 402.461C493.337 403.539 493.234 404.515 493.081 405.9C495.698 405.9 496.571 407.645 497.289 409.442C498.059 411.341 498.521 413.24 498.008 415.498C497.187 418.988 499.599 420.631 503.14 419.348C503.962 419.04 504.783 418.527 505.553 418.065C507.041 417.141 508.478 416.166 509.915 415.242C512.379 416.935 513.303 419.296 514.021 421.863C514.791 424.686 515.766 427.509 516.998 430.177C518.897 434.386 520.334 438.595 519.051 443.214C518.846 444.035 518.949 444.908 518.897 445.729C518.846 447.064 518.795 448.449 518.692 449.784C518.589 450.964 518.487 452.145 518.384 453.325C522.234 455.84 524.287 459.587 527.007 462.821C527.571 463.488 527.879 464.361 528.085 465.182C528.598 467.183 528.906 469.236 529.47 471.238C529.778 472.367 530.343 473.445 530.908 474.472C531.575 475.652 532.396 476.833 533.269 477.91C536.04 481.247 539.428 483.71 543.842 484.839C544.971 485.147 546.1 484.07 545.69 482.992C545.279 481.863 544.971 480.528 544.15 479.707C542.353 477.859 541.84 475.652 542.148 473.445C542.764 469.134 540.198 466.619 537.118 464.309C535.27 462.923 533.217 461.846 531.216 460.614C529.83 459.741 528.187 458.869 528.187 457.175C528.239 453.993 525.878 452.042 524.03 450.195C521.874 448.09 521.669 446.14 522.285 443.625C523.311 439.775 524.287 435.926 525.313 432.077C525.365 431.82 525.775 431.615 526.34 431.101C526.956 431.409 527.982 431.666 528.239 432.23C528.957 433.822 530.035 434.54 531.883 434.899C534.603 435.413 537.067 436.747 538.247 439.313C539.376 441.726 541.737 442.65 543.842 443.933C545.228 444.754 546.665 445.421 547.845 445.986C548.615 448.039 546.973 450.143 549.231 451.837C551.438 450.759 553.183 449.014 554.826 447.269C556.057 445.935 557.392 445.113 559.188 444.497C564.577 442.598 568.016 437.671 567.246 432.846C566.733 429.613 565.604 426.482 564.526 423.351C563.602 420.631 561.857 418.219 559.342 416.833C555.031 414.523 552.413 410.879 549.385 407.491C547.691 405.592 547.743 403.385 548.718 401.692C550.565 398.458 552.259 394.865 556.673 393.736C557.7 393.479 558.675 392.915 559.701 392.453C561.293 392.915 562.832 393.377 564.321 393.787C564.783 394.865 565.091 395.892 565.604 396.764C566.066 397.534 566.887 397.996 567.914 397.329C568.068 396.354 568.222 395.379 568.376 394.557C572.892 392.094 578.692 392.094 581.72 387.269C584.081 388.552 586.186 387.012 588.495 386.704C591.472 386.294 594.244 385.678 595.681 382.701C595.886 382.29 596.553 382.085 596.964 381.777C602.251 377.774 605.946 372.949 605.946 366.174C607.742 365.148 608.923 363.659 609.488 361.76C609.744 360.939 609.796 359.912 610.36 359.348C612.618 357.192 612.259 354.626 612.002 352.06C612.362 351.906 612.772 351.752 613.132 351.598C612.721 351.444 612.362 351.29 611.951 351.136C612.31 350.212 612.618 349.442 611.797 348.364C610.771 346.927 608.923 347.645 607.435 346.824C608.923 345.387 610.155 344.258 611.489 342.975C610.463 341.692 609.59 340.665 608.769 339.639C608.718 339.69 608.718 339.69 608.666 339.741L608.769 339.639C609.334 339.074 609.898 338.51 610.514 337.894C609.898 337.124 609.539 336.354 608.974 336.097C606.357 334.814 604.868 332.504 603.893 330.195C602.507 326.91 600.249 324.754 596.964 323.266C596.502 323.06 596.245 322.496 595.835 322.034C595.886 320.853 595.63 319.57 596.143 318.492C596.913 316.799 598.042 315.208 599.222 313.719C601.275 311.153 604.509 310.332 607.229 309.254C607.64 307.406 607.178 306.482 605.535 306.277C604.098 306.123 602.353 306.431 601.275 305.815C598.504 304.224 596.861 305.302 595.27 307.303C594.962 307.714 594.552 308.073 594.141 308.433C593.269 309.1 591.575 309.151 591.164 308.279C590.138 306.02 587.879 305.199 586.032 303.967C585.313 303.454 584.594 302.838 584.03 302.171C582.644 300.528 583.465 298.373 585.672 297.911C586.545 297.705 587.417 297.603 588.136 297.449C589.009 295.652 589.316 293.599 590.548 292.675C592.55 291.187 593.525 289.237 594.757 287.338C595.783 285.798 597.221 285.387 599.017 286.311C599.89 286.773 600.506 287.646 601.224 288.313C600.608 289.699 599.838 290.776 599.684 291.906C599.53 293.035 600.044 294.215 600.198 295.396C600.3 296.371 600.198 297.295 600.198 298.835C601.327 297.808 602.045 297.244 602.61 296.628C607.229 291.752 610.103 291.187 616.724 294.061C616.724 295.447 616.622 296.987 616.776 298.475C616.878 299.81 616.16 301.144 617.135 302.479C618.418 304.275 620.112 303.197 621.652 303.403C623.705 303.659 626.014 305.712 626.168 307.406C625.758 308.073 625.347 308.792 624.885 309.562C626.99 311.769 627.811 314.232 627.298 317.209C626.99 318.903 627.144 320.699 629.659 321.726C631.609 320.597 633.816 319.622 636.485 319.519C638.589 319.416 640.591 317.004 640.129 315.002C639.411 311.82 638.179 308.741 637.152 305.61C633.559 302.222 631.66 297.449 626.99 294.883C624.937 293.753 624.834 291.752 626.374 290.007C627.195 289.083 628.273 288.415 629.094 287.492C631.198 285.028 633.149 282.564 631.455 279.074C630.685 277.534 631.352 275.943 632.43 274.711C634.432 272.299 636.639 270.041 638.949 267.526C639.872 268.039 640.745 268.552 641.617 269.117C643.414 270.297 645.159 269.99 646.699 268.86C647.674 268.142 648.649 267.218 649.265 266.243C650.292 264.652 651.164 262.907 651.934 261.161C653.884 256.901 655.783 252.59 657.683 248.279C658.093 247.355 658.196 246.277 658.401 245.302C659.171 241.042 659.53 236.679 660.813 232.573C662.251 228.056 661.429 223.899 659.53 220.049C657.58 216.149 656.759 212.248 656.707 208.091C656.707 205.524 656.913 202.855 654.757 200.802C654.86 198.955 652.961 197.723 652.858 196.08C652.704 193.822 651.369 192.693 649.573 191.718C648.598 191.204 647.469 190.896 646.699 190.178C644.44 188.022 641.977 187.868 639.154 189.049C638.692 190.434 639.051 192.231 637.306 193.052C636.844 193.257 636.331 193.36 635.818 193.463C635.253 192.693 634.791 192.026 634.329 191.41C633.2 191.564 632.174 191.718 631.404 191.872C630.326 189.87 629.453 188.227 628.581 186.585C627.708 186.688 627.195 186.79 626.682 186.842C625.963 186.944 625.245 187.15 624.526 187.098C622.73 187.047 621.754 185.866 622.37 184.327C622.781 183.351 623.243 182.428 623.807 181.504C625.86 178.014 627.862 174.523 627.965 170.366C627.965 169.545 628.273 168.57 628.786 167.902C632.328 162.975 631.25 156.816 633.816 151.683C633.97 151.375 633.867 151.016 633.867 150.657C633.97 146.448 634.329 145.884 638.025 144.549C639.564 143.985 641.104 143.369 642.644 142.958C644.03 142.65 645.621 142.188 646.904 142.547C649.214 143.266 648.906 139.981 650.908 140.597C651.061 140.648 651.267 140.546 651.472 140.546C653.782 140.289 656.091 139.981 658.247 139.724C660.198 135.054 660.197 135.054 665.022 135.464C666.305 135.567 667.588 135.464 668.82 135.721C669.795 135.926 670.719 136.491 671.592 136.902C670.925 139.673 670.925 139.673 672.618 140.751C675.903 139.93 677.648 136.44 681.395 136.286C682.114 136.234 682.781 134.951 683.859 133.822C682.062 133.206 680.779 132.744 679.599 132.334C678.623 130.588 678.059 128.895 678.726 127.201C680.266 123.198 680.574 119.194 680.009 114.985C679.701 112.881 680.83 111.393 682.986 110.571C686.271 109.288 689.556 108.313 693.303 108.467C693.662 110.366 693.97 112.163 694.329 114.164C695.972 114.883 697.563 115.601 699.462 116.423C700.95 112.368 700.283 108.159 702.952 105.182C701.823 102.308 699.718 100.101 700.232 96.7134C701.155 96.3541 702.233 95.6869 703.363 95.4816C704.081 95.3789 704.954 95.9949 706.339 96.4568C704.492 98.1505 704.543 99.7929 705.518 101.435C707.828 105.182 708.906 109.34 709.727 114.01C705.929 116.063 705.98 119.656 706.237 123.352C706.288 124.019 706.339 124.789 706.083 125.405C704.44 129.562 704.8 133.873 704.851 138.185C704.851 139.365 704.748 140.648 704.235 141.675C703.209 143.625 701.823 145.37 700.437 147.423C702.028 149.066 702.079 151.221 701.104 153.121C699.616 156.046 700.129 158.869 701.207 161.641C702.541 165.028 703.876 168.467 705.518 171.7C707.109 174.78 709.06 177.757 711.01 180.683C712.858 183.454 714.5 186.482 716.861 188.792C718.863 190.742 719.889 193.001 721.07 195.31C721.481 196.08 721.686 196.953 722.096 197.723C722.815 199.108 723.944 199.776 725.689 199.365C728.358 196.132 729.025 192.693 727.332 188.741C726.818 187.56 726.972 186.072 726.818 184.943C728.153 183.813 729.179 182.941 730.309 181.966C729.641 180.734 728.974 179.707 728.512 178.578C727.691 176.576 728.102 174.523 728.615 172.47C729.077 170.623 730.822 170.315 732.259 169.647C732.875 169.391 733.285 168.775 733.645 168.364C733.388 166.209 731.643 165.285 730.565 163.95C728.41 161.333 727.64 158.458 728.717 155.276C729.898 155.071 730.925 154.866 731.9 154.66C732.618 151.94 729.59 151.119 729.539 149.117C728.512 148.963 727.794 148.912 727.126 148.809C725.689 145.986 725.689 145.986 725.792 143.882C725.792 143.728 725.843 143.523 725.895 143.369C726.048 142.034 725.587 141.008 724.303 140.34C722.712 139.519 722.148 141.11 720.916 141.47C718.298 139.93 717.836 137.415 717.785 134.797C717.734 131.358 717.785 127.868 715.886 124.737C715.629 124.327 715.527 123.762 715.527 123.249C715.424 121.966 715.629 120.58 717.118 120.323C719.582 119.861 720.403 117.962 721.635 116.371C721.891 116.012 722.507 115.961 722.815 115.807C724.149 116.269 723.79 118.373 725.895 117.962C726.1 117.398 726.305 116.73 726.562 116.115C726.87 115.293 727.075 114.472 727.537 113.754C729.539 110.571 732.977 109.853 736.416 111.649C737.905 112.47 739.034 114.113 741.241 113.805C741.292 113.24 741.446 112.727 741.446 112.265C741.549 107.081 742.473 102 744.013 97.124C745.193 93.4286 747.4 89.9384 749.71 86.6535C750.223 85.935 750.736 85.2677 751.301 84.6005C752.43 83.3174 753.816 82.7014 755.612 82.8041C757.049 82.8554 758.435 82.8041 759.77 82.8041C760.745 81.1103 761.053 79.4679 760.026 78.1335C758.281 75.9778 757.049 73.3601 753.97 72.4363C752.635 72.0257 751.403 71.2558 750.942 71.0505C749.915 69.4081 749.556 67.8169 748.683 67.5603C747.143 67.0984 746.014 66.6878 745.706 65.0454C745.655 64.6861 744.834 64.1215 744.526 64.1728C741.549 64.8401 739.804 62.8897 738.059 61.3499C736.776 61.7092 735.749 62.1198 734.723 62.2738C734.363 62.3251 733.85 61.7605 733.593 61.3499C733.439 61.1446 733.593 60.5287 733.747 60.4774C734.979 59.9641 735.852 59.1429 736.16 57.8597L736.108 57.8084C736.724 58.373 737.289 59.1429 738.059 59.5535C741.549 61.2986 744.731 59.4508 744.885 55.7554C744.936 54.7289 744.68 53.651 744.885 52.6758C745.706 48.6724 744.064 46.0035 740.317 44.3097C738.777 43.5911 737.648 42.5646 737.135 40.8196C737.597 39.9983 738.008 39.0745 738.572 38.202C738.726 37.9453 739.137 37.894 739.855 37.586C740.625 40.409 742.627 41.7948 746.168 41.9487C747.041 39.6904 747.657 36.8675 751.506 36.8675C752.943 37.9966 754.637 39.2798 756.69 40.8709C758.846 38.8692 761.515 39.1771 764.286 39.3311C765.21 39.3824 766.237 38.6639 767.109 38.3046C767.212 37.9453 767.212 36.6108 765.826 36.0976Z" fill="#437A9D" fill-opacity="0.5"/>
<path fill-rule="evenodd" clip-rule="evenodd" d="M557.34 504.909C556.313 503.267 555.441 501.881 554.722 500.649C552.515 500.239 552.464 501.625 552.053 502.702C550.873 502.856 549.59 502.6 549.333 501.471C548.615 498.699 546.459 497.364 543.79 496.389C543.995 494.952 544.201 493.823 544.355 492.643C544.611 490.795 541.942 491.205 541.737 489.717C541.737 489.563 541.686 489.358 541.686 489.204C541.326 486.894 539.376 488.331 538.247 487.921C537.015 486.637 535.988 485.098 534.551 484.122C530.907 481.659 527.109 479.349 523.876 476.372C522.849 475.448 521.412 474.884 520.231 474.063C519.256 473.395 510.582 468.519 509.504 468.211C508.991 468.057 508.529 467.698 507.965 467.647C507.451 467.595 506.681 467.647 506.476 467.903C506.168 468.417 505.911 469.238 506.117 469.751C506.835 471.804 508.632 473.241 510.479 474.268C513.559 476.013 515.509 478.631 517.716 481.197C520.18 484.122 523.106 486.791 524.081 490.589C524.132 490.743 524.286 490.897 524.389 491C527.674 493.515 529.008 497.159 530.343 500.701C531.061 502.548 532.088 504.037 533.473 505.474C537.682 509.785 542.148 513.789 547.588 517.382C548.307 517.382 549.385 517.484 550.462 517.33C551.489 517.176 552.515 516.714 553.542 516.406C554.107 512.711 554.671 509.169 555.236 505.628C555.903 505.474 556.519 505.217 557.34 504.909Z" fill="#437A9D" fill-opacity="0.5"/>
<path fill-rule="evenodd" clip-rule="evenodd" d="M590.856 530.57C592.242 529.646 593.576 530.108 595.013 530.365C595.732 530.519 596.399 530.057 595.989 528.773C592.652 528.773 589.983 526.31 586.442 526.258C585.929 526.258 585.467 525.129 584.954 524.462C582.849 523.487 580.796 522.409 578.64 521.536C577.46 521.075 576.331 521.229 575.099 522.05C572.225 523.897 568.837 523.538 566.425 521.742C563.602 519.586 560.574 519.227 557.289 519.073C555.082 518.97 553.85 519.791 553.799 522.306C555.236 523.282 556.622 524.821 558.418 525.335C564.269 527.08 570.48 526.977 576.433 528.773C580.642 530.057 585.467 528.876 589.778 530.621C590.086 530.775 590.599 530.724 590.856 530.57Z" fill="#437A9D" fill-opacity="0.5"/>
<path fill-rule="evenodd" clip-rule="evenodd" d="M573.2 500.596C573.354 502.239 574.124 503.83 574.586 505.472C576.177 505.626 577.409 505.78 578.641 505.934C579.36 506.037 580.335 505.986 580.694 506.396C582.131 508.193 583.825 507.885 585.57 507.217C586.853 506.755 587.982 507.115 589.265 507.32C591.575 507.679 592.91 509.373 594.501 510.502C596.502 509.835 598.248 509.322 599.582 508.86C600.301 506.755 601.276 505.01 601.378 503.214C601.532 501.007 602.354 499.313 603.739 497.619C604.612 496.542 605.177 495.258 605.741 493.975C607.64 489.767 607.589 489.767 611.849 488.175C610.925 487.252 610.104 486.43 609.283 485.558C608.821 485.045 608.051 484.326 608.153 483.915C608.821 481.965 607.435 480.682 606.665 479.142C605.741 477.397 606.46 475.703 607.435 474.266C608.051 473.342 610.104 473.753 609.95 472.008C609.796 470.16 612.567 470.879 612.619 469.236C612.413 468.98 612.259 468.569 612.003 468.466C609.642 467.234 607.23 466.259 605.998 463.59C605.228 461.897 602.713 461.999 601.378 463.488C600.916 464.001 600.455 464.617 600.249 465.233C599.479 467.799 597.118 469.339 595.014 470.16C592.191 471.238 590.651 473.086 589.009 475.139C587.264 477.346 585.621 479.553 582.388 480.22C580.797 480.528 579.719 481.914 578.949 483.402C578.487 484.275 577.923 485.147 577.255 486.122C574.997 485.609 572.893 485.147 570.994 484.737C569.094 485.866 568.222 487.457 568.325 489.202C568.478 492.282 569.197 495.412 571.404 497.773C572.533 498.646 573.098 499.313 573.2 500.596Z" fill="#437A9D" fill-opacity="0.5"/>
<path fill-rule="evenodd" clip-rule="evenodd" d="M754.071 606.84C751.813 604.428 750.222 601.964 750.735 598.68C748.938 597.653 747.399 596.832 746.372 596.216C745.038 592.674 744.37 589.338 742.625 586.618C741.393 584.719 738.724 583.641 736.671 582.153C736.363 581.947 736.056 581.793 735.696 581.639C733.797 580.818 733.13 579.33 732.976 577.482C732.771 574.248 732.771 570.964 730.666 568.089C730.204 567.474 730.41 566.396 730.358 565.574C730.256 564.189 730.256 562.803 730.153 561.417C729.896 558.851 728.665 557.722 725.739 557.106C725.226 557.003 724.764 556.798 724.507 556.746C723.07 552.076 721.736 547.662 720.299 543.248C720.145 542.786 719.426 542.426 718.656 541.811C717.835 543.607 717.014 544.993 716.603 546.43C715.628 549.92 714.345 553.41 714.191 556.952C713.986 561.93 712.292 566.396 710.444 570.861C709.212 573.838 705.568 574.608 703.258 572.298C700.333 569.373 696.535 567.679 693.096 565.523C690.427 563.881 688.271 561.982 686.321 559.518C688.117 556.592 687.655 552.794 691.351 550.844C692.223 550.382 692.48 548.791 693.147 547.508C692.172 547.148 691.299 546.533 690.991 546.738C689.76 547.508 688.528 547.097 687.296 547.046C683.549 546.892 680.264 545.403 676.826 544.428C676.056 544.223 675.132 544.223 674.311 544.12C673.9 546.019 672.668 547.046 670.615 547.097C668.562 547.148 666.406 547.097 665.021 548.586C662.044 551.768 657.886 554.437 658.605 559.775C656.193 559.621 654.037 559.467 651.933 559.313C651.933 559.364 651.984 559.364 651.984 559.415L651.881 559.313C650.547 557.773 649.879 555.669 647.672 554.95C643.207 556.233 643.207 556.233 635.56 562.649C635.252 563.983 634.944 565.266 634.687 566.396C633.353 566.601 632.326 566.755 631.556 566.858C631.043 568.346 632.48 570.04 630.273 570.604C629.247 569.578 628.323 568.654 627.604 567.987C624.627 569.013 623.447 570.656 623.601 573.273C623.652 574.146 622.933 575.172 622.369 575.994C621.702 577.02 620.829 577.893 620.162 578.919C618.673 581.075 616.62 582.204 613.9 582.615C610.872 583.128 607.895 583.898 604.918 584.668C603.378 585.078 601.89 586.207 600.35 586.259C597.014 586.31 594.55 588.004 591.727 589.133C588.904 590.262 586.954 592.674 583.926 593.444C583.464 593.547 583.002 594.574 583.002 595.189C583.002 597.653 582.232 599.86 581.154 602.118C580.128 604.171 580.538 606.532 581.257 608.688C581.565 609.663 582.129 610.587 582.386 611.614C582.797 613.153 581.873 613.821 580.436 614.129C580.436 614.077 580.436 614.077 580.436 614.026C580.333 614.847 579.974 615.72 580.128 616.541C581.308 624.035 583.361 631.374 583.361 639.022C583.361 639.689 583.772 640.356 583.823 641.023C583.977 644.873 583.413 648.568 580.487 651.597C578.28 653.906 578.331 654.419 580.59 656.729C581.103 657.242 581.513 657.807 582.078 658.269C584.798 660.527 588.032 660.887 591.317 659.86C593.524 659.193 595.833 658.32 597.681 656.934C601.377 654.214 605.329 654.112 609.64 654.727C611.282 654.933 612.925 655.138 614.567 654.933C615.748 654.779 617.288 654.317 617.903 653.496C619.803 650.929 622.318 649.544 625.397 648.722C626.218 648.466 626.937 647.747 627.758 647.388C628.733 646.977 629.862 646.413 630.838 646.567C634.841 647.183 638.434 646.002 642.027 644.565C646.081 642.974 650.341 643.744 654.499 643.846C654.858 643.846 655.32 644 655.474 644.206C657.065 646.156 659.529 646.31 661.736 647.029C664.199 647.85 666.612 648.774 666.406 651.904C666.406 652.212 666.612 652.572 666.868 652.828C669.178 655.189 669.229 658.115 669.281 661.092C669.281 661.656 669.691 662.221 670.051 663.247C672.206 661.246 673.746 659.141 675.85 658.012C678.211 656.78 679.033 653.906 682.42 653.085C682.009 654.522 681.907 655.549 681.496 656.421C680.983 657.499 680.11 658.423 679.494 659.501C678.981 660.425 678.571 661.4 678.365 662.426C678.109 663.504 676.415 663.966 676.826 665.249C680.213 666.019 679.751 662.529 681.599 661.759C683.703 663.863 681.753 666.07 681.958 668.175C682.779 668.226 683.447 668.277 684.216 668.329C685.192 671.254 686.013 674.077 685.243 677.362C684.473 680.801 686.372 684.035 689.862 685.42C693.096 686.703 695.919 688.449 698.947 690.553C700.795 689.321 702.642 688.192 704.336 686.96C705.003 686.447 705.363 685.472 706.543 685.985C708.442 687.627 707.467 690.861 710.136 692.041C712.548 691.733 714.345 690.553 715.987 689.167C718.4 687.063 721.222 686.19 724.456 686.036C728.613 685.882 729.127 685.215 730.358 681.366C731.488 677.927 732.001 674.18 734.567 671.357C737.339 668.277 739.186 664.736 741.137 661.194C742.523 658.731 744.216 656.524 746.526 654.779C749.708 652.315 751.556 649.03 752.942 645.489C754.379 641.588 755.559 637.585 757.356 633.838C758.485 631.477 758.947 629.27 758.331 626.858C757.818 624.753 757.818 622.803 758.382 620.75C759.768 615.309 757.664 610.741 754.071 606.84Z" fill="#437A9D" fill-opacity="0.5"/>
<path fill-rule="evenodd" clip-rule="evenodd" d="M697.666 499.673C695.51 502.29 691.712 503.06 689.916 506.088C689.608 506.602 688.786 506.858 687.965 507.371C686.271 505.934 684.68 504.549 683.141 503.214C683.141 501.828 683.243 500.596 683.089 499.416C682.935 498.287 682.525 497.158 682.268 496.182C674.415 493.565 673.337 493.719 669.898 498.03C670.72 498.646 671.849 499.159 672.311 499.98C673.44 501.982 675.134 502.547 677.341 502.393C678.059 502.342 678.778 502.239 679.548 502.188C680.369 502.136 681.036 502.341 680.779 503.368C678.778 503.933 676.725 504.548 674.672 505.113C675.596 506.909 676.417 508.552 677.443 510.502C678.726 509.63 679.702 508.963 680.933 508.09C682.987 509.27 685.091 510.708 687.4 511.631C689.915 512.658 692.687 513.069 695.305 513.89C696.485 514.249 697.666 514.916 698.692 515.584C699.411 516.045 700.181 516.661 700.591 517.38C701.669 519.536 702.593 521.743 703.62 524.052C702.439 524.874 701.361 525.489 700.489 526.311C699.873 526.875 699.308 527.696 700.232 528.928C701.464 528.826 702.85 528.723 704.287 528.518C706.802 528.158 709.009 528.364 710.548 530.673C711.267 531.751 712.242 532.47 713.628 532.624C715.989 532.932 718.299 533.342 720.66 533.496C721.481 533.548 722.713 533.137 723.072 532.572C723.534 531.854 723.329 530.725 723.431 529.801C724.355 528.98 725.228 528.107 726.203 527.337C727.897 526.003 729.796 525.541 731.797 526.567C734.364 527.85 737.187 528.672 738.572 531.495C739.137 532.726 740.523 533.548 741.344 534.728C742.832 536.781 744.885 537.602 747.452 537.705C749.864 537.808 752.174 538.116 754.329 539.245C754.637 539.399 755.151 539.142 756.229 538.988C753.252 536.319 750.172 534.317 748.324 531.597C746.425 528.672 742.627 527.132 741.806 523.282C742.422 522.872 743.038 522.513 743.5 522.051C744.68 520.921 744.526 519.844 743.038 519.228C740.882 518.304 738.675 517.431 736.673 516.61C734.877 512.761 734.928 512.709 731.541 510.656C730.463 509.989 729.334 509.424 728.153 509.014C722.559 506.961 716.913 504.908 711.267 502.957C707.828 501.777 704.338 500.802 700.848 499.673C699.667 499.262 698.333 498.851 697.666 499.673Z" fill="#437A9D" fill-opacity="0.5"/>
<path fill-rule="evenodd" clip-rule="evenodd" d="M655.321 317.928C651.522 321.161 649.521 325.729 646.236 329.322C645.774 329.784 645.825 331.119 646.185 331.632C646.441 332.042 647.724 331.786 648.854 331.888C648.854 333.12 649.008 334.301 648.802 335.43C648.494 337.278 649.316 338.817 650.137 340.357C650.599 341.178 652.344 341.538 653.011 340.871C653.883 340.049 654.91 339.279 654.91 337.894C654.91 336.354 654.756 334.763 655.115 333.274C655.731 330.759 654.653 328.963 652.908 327.372C652.395 326.91 651.676 326.653 652.241 325.575C654.859 325.473 656.501 322.65 659.427 322.804C662.455 322.958 664.251 319.622 667.382 320.238C667.793 321.88 667.998 323.42 668.563 324.857C669.025 326.037 670 326.859 671.54 326.551C674.311 322.855 674.516 322.445 675.081 319.468C676.518 319.519 678.007 319.878 679.392 319.622C680.522 319.416 681.651 317.774 682.421 317.979C684.833 318.544 684.114 316.08 685.398 315.67C685.86 315.516 686.321 315.259 686.578 315.156C687.297 315.823 687.964 316.85 688.529 316.799C689.196 316.747 690.068 315.926 690.428 315.259C690.992 314.181 691.043 313.001 690.53 311.769C689.966 310.332 689.401 308.792 689.504 307.303C689.658 304.275 689.144 301.504 687.502 298.27C690.787 295.344 690.171 291.803 689.452 288.518C688.682 285.131 686.578 282.256 683.704 279.998C682.369 280.152 681.138 280.306 680.06 280.409C678.212 282.462 679.084 284.72 679.854 286.414C682.78 292.676 680.316 298.219 677.904 303.762C677.185 305.404 675.389 306.431 673.541 306.482C672.617 306.482 671.694 305.404 670.616 304.686C670.924 308.279 669.127 311.307 668.357 314.438C666.356 314.643 664.713 314.694 663.122 314.951C661.48 315.208 659.837 315.464 658.349 316.029C657.322 316.439 656.193 317.158 655.321 317.928Z" fill="#437A9D" fill-opacity="0.5"/>
<path fill-rule="evenodd" clip-rule="evenodd" d="M684.114 255.413C683.293 254.745 682.523 253.975 681.753 253.257C680.573 252.179 679.29 251.255 677.801 250.947C676.569 251.563 676.621 252.436 677.134 253.206C678.622 255.515 678.828 258.082 678.879 260.648C678.879 261.982 679.033 263.317 679.084 264.651L676.313 266.499C674.517 269.219 674.157 271.786 676.826 274.249C677.391 274.814 677.596 275.738 678.161 276.816C679.444 275.789 680.419 274.916 681.497 274.044C680.06 272.863 678.879 271.94 677.647 270.913C678.315 270.554 678.622 270.348 678.93 270.194C681.702 268.603 684.32 268.398 686.886 270.656C687.553 271.221 688.836 271.221 689.914 271.478C690.222 270.759 690.53 270.297 690.582 269.784C690.889 267.269 692.224 265.729 694.944 265.165C695.868 264.959 696.689 264.087 697.818 263.368C696.638 261.777 695.663 260.391 694.688 259.057C689.093 258.697 687.451 258.184 684.114 255.413Z" fill="#437A9D" fill-opacity="0.5"/>
</svg>
