<svg width="70" height="70" viewBox="0 0 70 70" fill="none" xmlns="http://www.w3.org/2000/svg">
<path d="M62.2038 55.0535H8.80971C8.35287 55.0535 7.95312 54.6311 7.95312 54.1483C7.95312 53.6655 8.35287 53.243 8.80971 53.243H61.5185L67.0007 16.7912L22.6293 46.1216C22.2296 46.363 21.7156 46.2423 21.4301 45.8199C21.2017 45.3974 21.3159 44.8543 21.7156 44.5525L67.6859 14.1358C67.9715 13.9547 68.3141 13.9547 68.5996 14.1358C68.8852 14.3168 68.9994 14.6789 68.9994 15.041L63.1175 54.2689C62.9461 54.6914 62.6035 55.0535 62.2038 55.0535Z" fill="#C6D9D8"/>
<path d="M8.75277 55.0529C8.35303 55.0529 8.0104 54.7511 7.89618 54.3287L2.01428 23.0671C1.95717 22.705 2.07137 22.3429 2.3569 22.1618C2.64243 21.9808 2.98509 21.9205 3.27062 22.1015L31.0812 38.8186C31.481 39.06 31.6523 39.6032 31.4238 40.0256C31.1954 40.4481 30.6815 40.6291 30.2817 40.3877L4.1272 24.6362L9.66649 53.9063C9.7807 54.3891 9.43806 54.8719 8.98121 54.9926C8.867 55.0529 8.80988 55.0529 8.75277 55.0529Z" fill="#C6D9D8"/>
<path d="M39.5886 34.6623C39.4173 34.6623 39.246 34.602 39.0747 34.4813L27.8819 26.3339L20.2868 33.6967C19.9442 34.0588 19.3732 33.9984 19.0876 33.6363C18.745 33.2742 18.8021 32.6707 19.1447 32.369L27.2538 24.463C27.5393 24.1612 27.9961 24.1613 28.3388 24.4027L40.1026 32.9725C40.5024 33.2742 40.6165 33.8174 40.331 34.2398C40.1597 34.5416 39.8742 34.6623 39.5886 34.6623Z" fill="#C6D9D8"/>
<path d="M17.3755 51.1913C16.005 51.1913 14.9199 49.9843 14.9199 48.4755C14.9199 46.9668 16.005 45.7598 17.3755 45.7598C18.746 45.7598 19.8311 46.9668 19.8311 48.4755C19.8311 49.9843 18.6889 51.1913 17.3755 51.1913ZM17.3755 47.5703C16.9758 47.5703 16.6331 47.9927 16.6331 48.4755C16.6331 48.9583 16.9758 49.3808 17.3755 49.3808C17.7752 49.3808 18.1179 48.9583 18.1179 48.4755C18.1179 47.9927 17.7752 47.5703 17.3755 47.5703Z" fill="#C6D9D8"/>
</svg>
