<svg width="60" height="60" viewBox="0 0 60 60" fill="none" xmlns="http://www.w3.org/2000/svg">
<path d="M23.9948 52.9249C23.8017 52.9249 23.6086 52.8284 23.4638 52.7319L1.21329 30.4813C0.923695 30.1917 0.923695 29.7573 1.21329 29.4677L23.4638 7.2172C23.7534 6.9276 24.1878 6.9276 24.4774 7.2172L46.728 29.4677C47.0176 29.7573 47.0176 30.1917 46.728 30.4813L24.4774 52.7319C24.3809 52.8767 24.1878 52.9249 23.9948 52.9249ZM2.75779 29.9504L23.9948 51.1874L45.2317 29.9504L23.9948 8.71344L2.75779 29.9504Z" fill="#FB5748"/>
<path d="M41.2265 47.9052C41.0334 47.9052 40.8404 47.8086 40.6956 47.7121L34.9037 41.9202C34.6141 41.6306 34.6141 41.1962 34.9037 40.9066C35.1933 40.617 35.6277 40.617 35.9173 40.9066L41.1782 46.1676L57.3956 29.9503L41.1782 13.733L24.43 30.4812C24.1404 30.7708 23.706 30.7708 23.4164 30.4812C23.1268 30.1916 23.1268 29.7572 23.4164 29.4676L40.6473 12.2367C40.9369 11.9471 41.3713 11.9471 41.6609 12.2367L58.8918 29.4676C59.1814 29.7572 59.1814 30.1916 58.8918 30.4812L41.6609 47.7121C41.6126 47.8569 41.4196 47.9052 41.2265 47.9052Z" fill="#FB5748"/>
<path d="M21.2925 34.4874C20.279 34.4874 19.4102 33.6669 19.4102 32.605C19.4102 31.5915 20.2307 30.7227 21.2925 30.7227C22.3061 30.7227 23.1749 31.5432 23.1749 32.605C23.1749 33.6669 22.3544 34.4874 21.2925 34.4874ZM21.2925 32.2189C21.0512 32.2189 20.8581 32.412 20.8581 32.6533C20.8581 32.8946 21.0512 33.0877 21.2925 33.0877C21.5339 33.0877 21.7269 32.8946 21.7269 32.6533C21.7269 32.412 21.5339 32.2189 21.2925 32.2189Z" fill="#FB5748"/>
</svg>
