<svg width="70" height="70" viewBox="0 0 70 70" fill="none" xmlns="http://www.w3.org/2000/svg">
<path d="M34.9667 70C25.6378 70 16.842 66.3359 10.2451 59.7407C-3.41504 46.0837 -3.41504 23.8996 10.2451 10.2427C23.9053 -3.41423 46.0947 -3.41423 59.7549 10.2427C73.415 23.8996 73.415 46.0837 59.7549 59.7407C53.0914 66.3359 44.2956 70 34.9667 70ZM34.9667 2.04858C26.504 2.04858 18.0414 5.2463 11.6445 11.7083C-1.21608 24.5658 -1.21608 45.4842 11.6445 58.3417C17.9081 64.6039 26.1709 68.0014 34.9667 68.0014C43.7625 68.0014 52.0919 64.5372 58.2889 58.3417C71.1494 45.4842 71.1494 24.5658 58.2889 11.7083C51.8253 5.2463 43.3627 2.04858 34.9667 2.04858Z" fill="#C6D9D8"/>
<path d="M36.5653 70.0003C30.3017 70.0003 24.038 67.7352 19.107 63.2051C14.0428 58.5417 11.1108 52.1464 10.8443 45.2846C10.5777 38.4228 12.9766 31.8275 17.641 26.7645C17.9076 26.498 18.1741 26.1649 18.4407 25.8984C18.8405 25.4987 19.4402 25.4987 19.84 25.8984C20.2398 26.2981 20.2398 26.8978 19.84 27.2975C19.5734 27.5639 19.3069 27.8304 19.107 28.0969C14.7757 32.7602 12.5768 38.8225 12.8433 45.2179C13.1098 51.5467 15.8419 57.4759 20.5063 61.7395C30.1684 70.6664 45.2279 70.0002 54.157 60.4071C58.4882 55.7438 60.6872 49.6815 60.4207 43.286C60.1541 36.9572 57.4221 31.0281 52.7576 26.7645C48.8262 23.1671 43.9618 21.0352 38.6977 20.5689C38.1646 20.5023 37.7648 20.0359 37.7648 19.503C37.8314 18.97 38.2978 18.5703 38.8309 18.5703C44.5615 19.0366 49.8257 21.3684 54.0903 25.2989C59.1546 29.9622 62.0865 36.3576 62.3531 43.2194C62.6196 50.0811 60.2207 56.6764 55.5563 61.7395C50.492 67.2022 43.4954 70.0003 36.5653 70.0003Z" fill="#C6D9D8"/>
<path d="M29.1034 24.7654C28.0372 24.7654 27.0377 24.3657 26.3047 23.6329C25.5717 22.9001 25.1719 21.9007 25.1719 20.8348C25.1719 19.7689 25.5717 18.7697 26.3047 18.0369C27.0377 17.3041 28.0372 16.9043 29.1034 16.9043C30.1695 16.9043 31.169 17.3041 31.902 18.0369C32.635 18.7697 33.0348 19.7689 33.0348 20.8348C33.0348 21.9007 32.635 22.9001 31.902 23.6329C31.1024 24.3657 30.1029 24.7654 29.1034 24.7654ZM29.1034 18.8363C28.5703 18.8363 28.1038 19.0361 27.704 19.4359C27.3042 19.8356 27.1043 20.3019 27.1043 20.8348C27.1043 21.3678 27.3042 21.8341 27.704 22.2338C28.437 22.9666 29.7697 22.9666 30.5027 22.2338C30.9025 21.8341 31.1024 21.3678 31.1024 20.8348C31.1024 20.3019 30.9025 19.8356 30.5027 19.4359C30.1029 19.1028 29.5698 18.8363 29.1034 18.8363Z" fill="#C6D9D8"/>
</svg>
