<svg width="70" height="70" viewBox="0 0 70 70" fill="none" xmlns="http://www.w3.org/2000/svg">
<path d="M35.0633 70C34.8101 70 34.557 69.9368 34.3671 69.7472L0.25318 35.6795C0.0633066 35.4899 0 35.237 0 34.9842C0 34.7313 0.126598 34.4785 0.25318 34.2889L34.3038 0.284425C34.6835 -0.0948082 35.2532 -0.0948082 35.6329 0.284425L69.7468 34.3521C69.9367 34.5417 70 34.7946 70 35.0474C70 35.3003 69.8734 35.5531 69.7468 35.7427L35.6962 69.7472C35.5696 69.9368 35.3165 70 35.0633 70ZM2.34178 35.0474L35.0633 67.7246L67.7215 35.1106L35 2.43335L2.34178 35.0474Z" fill="#C6D9D8"/>
<path d="M34.4317 50.3434C34.1785 50.3434 33.9253 50.2802 33.7355 50.0906L22.0266 38.3975C21.8367 38.2079 21.7734 37.9551 21.7734 37.7023C21.7734 37.4495 21.9 37.1967 22.0266 37.0071L30.6975 28.3479C31.0772 27.9686 31.6469 27.9686 32.0266 28.3479C32.4064 28.7271 32.4064 29.296 32.0266 29.6752L24.0519 37.6391L34.4317 48.0048L58.2291 24.2395C58.6089 23.8603 59.1785 23.8603 59.5582 24.2395C59.938 24.6187 59.938 25.1876 59.5582 25.5669L35.0646 50.0274C34.938 50.217 34.6848 50.3434 34.4317 50.3434Z" fill="#C6D9D8"/>
<path d="M35.5073 27.7151C34.8111 27.7151 34.0516 27.4623 33.5452 26.8934C32.4693 25.8189 32.4693 23.986 33.5452 22.9115C34.0516 22.4058 34.8111 22.0898 35.5073 22.0898C36.2668 22.0898 36.963 22.4058 37.4693 22.9115C38.5452 23.986 38.5452 25.8189 37.4693 26.8934C36.963 27.4623 36.2668 27.7151 35.5073 27.7151ZM35.5073 23.986C35.2541 23.986 35.0643 24.0492 34.8744 24.2388C34.4946 24.618 34.4946 25.1868 34.8744 25.5029C35.2541 25.8821 35.8237 25.8821 36.1402 25.5029C36.5199 25.1236 36.5199 24.5548 36.1402 24.2388C36.0136 24.1124 35.7605 23.986 35.5073 23.986Z" fill="#C6D9D8"/>
</svg>
