<svg width="62" height="62" viewBox="0 0 62 62" fill="none" xmlns="http://www.w3.org/2000/svg">
<path d="M31.1021 21.4412C30.8974 21.4412 30.6415 21.3244 30.5392 21.1493L23.9893 12.4499C23.7334 12.0996 23.7334 11.5157 24.0916 11.2238C24.3987 10.9318 24.9104 10.9318 25.1662 11.3405L31.1532 19.281L36.9356 11.5741C37.1914 11.2238 37.7031 11.1654 38.0102 11.4573C38.3172 11.7492 38.3684 12.3331 38.1125 12.6834L31.7161 21.1493C31.5626 21.3244 31.3579 21.4412 31.1021 21.4412Z" fill="#FB5748"/>
<path d="M61.2933 47.1901H31.0512C30.6418 47.1901 30.2836 46.7814 30.2836 46.3143C30.2836 45.8472 30.6418 45.4385 31.0512 45.4385H59.7581L31.0512 2.29161L2.34421 45.4385H13.7554C14.1647 45.4385 14.5229 45.8472 14.5229 46.3143C14.5229 46.7814 14.1647 47.1901 13.7554 47.1901H0.757907C0.45088 47.1901 0.195032 47.0149 0.0926895 46.723C-0.0608237 46.431 -0.00964952 46.0807 0.143864 45.7888L30.386 0.306524C30.693 -0.102175 31.307 -0.102175 31.6141 0.306524L61.8561 45.7888C62.0097 46.0807 62.0608 46.431 61.9073 46.723C61.8561 47.0149 61.6003 47.1901 61.2933 47.1901Z" fill="#FB5748"/>
<path d="M26.855 49.0004C25.4734 49.0004 24.3477 47.7743 24.3477 46.3147C24.3477 44.855 25.4734 43.6289 26.855 43.6289C28.2367 43.6289 29.3624 44.855 29.3624 46.3147C29.3113 47.7743 28.1855 49.0004 26.855 49.0004ZM26.855 45.3805C26.3433 45.3805 25.8828 45.7892 25.8828 46.3147C25.8828 46.8401 26.2922 47.2488 26.855 47.2488C27.3667 47.2488 27.8273 46.8401 27.8273 46.3147C27.7761 45.7892 27.3667 45.3805 26.855 45.3805Z" fill="#FB5748"/>
</svg>
