<svg width="70" height="70" viewBox="0 0 70 70" fill="none" xmlns="http://www.w3.org/2000/svg">
<path d="M1.18665 18.9795C0.815492 18.9795 0.444342 18.786 0.221647 18.4635C-0.0752803 18.012 0.0731832 17.4315 0.592806 17.1735L34.4425 0.145128C34.8136 -0.0483759 35.1848 -0.0483759 35.5559 0.145128L54.7077 9.75581C55.2274 10.0138 55.45 10.5943 55.0789 11.0458C54.782 11.4973 54.1139 11.6908 53.5943 11.3683L35.0363 2.08016L1.70628 18.786C1.55782 18.9795 1.33511 18.9795 1.18665 18.9795Z" fill="#C6D9D8"/>
<path d="M35.0374 70.0005C34.8147 70.0005 34.6662 69.936 34.4435 69.8715L0.593845 52.8432C0.222686 52.6497 0 52.3272 0 52.0047V18.0125C0 17.4965 0.519622 17.045 1.11348 17.045C1.70733 17.045 2.22695 17.4965 2.22695 18.0125V51.4242L34.9631 67.872L67.6993 51.4242V19.754L56.3419 26.2042C55.8223 26.5267 55.1542 26.3977 54.783 25.9462C54.4119 25.4947 54.5603 24.9141 55.0799 24.5916L68.219 17.1095C68.5901 16.916 68.9613 16.916 69.3324 17.045C69.7036 17.2385 69.9263 17.561 69.9263 17.8835V51.8757C69.9263 52.1982 69.7036 52.5207 69.3324 52.7142L35.4828 69.7425C35.4085 69.936 35.2601 70.0005 35.0374 70.0005Z" fill="#C6D9D8"/>
<path d="M1.18665 52.9718C0.815492 52.9718 0.444342 52.7783 0.221647 52.4558C-0.0752804 52.0043 0.0731832 51.4238 0.592806 51.1658L40.0841 31.3639C40.6037 31.1059 41.2718 31.2349 41.5688 31.6864C41.8657 32.1379 41.7172 32.7184 41.1976 32.9765L1.70628 52.8428C1.55782 52.9718 1.33511 52.9718 1.18665 52.9718Z" fill="#C6D9D8"/>
<path d="M68.8853 52.9721H11.6525C11.0587 52.9721 10.5391 52.5206 10.5391 52.0046C10.5391 51.4886 11.0587 51.0371 11.6525 51.0371H68.8853C69.4791 51.0371 69.9987 51.4886 69.9987 52.0046C69.9987 52.5206 69.5533 52.9721 68.8853 52.9721Z" fill="#C6D9D8"/>
<path d="M48.3249 31.4935C46.098 31.4935 44.3164 29.9454 44.3164 28.0104C44.3164 26.0754 46.098 24.5273 48.3249 24.5273C50.5519 24.5273 52.3335 26.0754 52.3335 28.0104C52.4077 29.9454 50.5519 31.4935 48.3249 31.4935ZM48.3249 26.4624C47.3599 26.4624 46.5434 27.1719 46.5434 28.0104C46.5434 28.8489 47.3599 29.5584 48.3249 29.5584C49.29 29.5584 50.1065 28.8489 50.1065 28.0104C50.1808 27.1719 49.3642 26.4624 48.3249 26.4624Z" fill="#C6D9D8"/>
</svg>
