<svg width="60" height="61" viewBox="0 0 60 61" fill="none" xmlns="http://www.w3.org/2000/svg">
<path d="M27.42 58.3413C20.4 58.3413 13.38 55.8213 8.04 50.7813C2.88 45.8613 0 39.3213 0 32.3613C0 25.4013 2.88 18.8613 8.04 13.9413C18.54 4.04132 57.36 2.42133 59.04 2.36133C59.58 2.36133 59.94 2.72131 60 3.20131C60 3.68131 59.64 4.10133 59.16 4.16133C58.74 4.16133 19.32 5.78133 9.36 15.2613C4.56 19.8213 1.86 25.8813 1.86 32.3613C1.86 38.8413 4.5 44.9013 9.36 49.4613C19.38 58.9413 35.64 58.9413 45.6 49.4613C49.74 45.5613 53.22 36.3213 55.68 22.7013C55.74 22.2213 56.22 21.8613 56.7 21.9813C57.18 22.0413 57.54 22.5213 57.42 23.0013C54.84 37.2213 51.24 46.5213 46.8 50.7813C41.4 55.8213 34.44 58.3413 27.42 58.3413Z" fill="#FB5748"/>
<path d="M56.9375 20.0608C55.2575 20.0608 53.9375 18.7408 53.9375 17.1808C53.9375 15.5608 55.2575 14.3008 56.9375 14.3008C58.6175 14.3008 59.9375 15.6208 59.9375 17.1808C59.9375 18.8008 58.6175 20.0608 56.9375 20.0608ZM56.9375 16.1008C56.2775 16.1008 55.7375 16.5808 55.7375 17.1808C55.7375 17.7808 56.2775 18.2608 56.9375 18.2608C57.5975 18.2608 58.1375 17.7808 58.1375 17.1808C58.1375 16.5808 57.5975 16.1008 56.9375 16.1008Z" fill="#FB5748"/>
<path d="M27.5997 43.4007C21.5997 43.4007 16.6797 38.7207 16.6797 32.9607C16.6797 27.2007 21.5997 22.5207 27.5997 22.5207C28.0797 22.5207 28.4997 22.9407 28.4997 23.4207C28.4997 23.9007 28.0797 24.3207 27.5997 24.3207C22.5597 24.3207 18.4797 28.1607 18.4797 32.9607C18.4797 37.7007 22.5597 41.6007 27.5997 41.6007C32.6397 41.6007 36.7197 37.7607 36.7197 32.9607C36.7197 30.8007 35.6397 28.5207 33.8397 26.7807C33.6597 26.6007 33.5397 26.3607 33.5397 26.1207C33.5397 25.8807 33.6597 25.6407 33.8397 25.4607L34.3197 25.0407L58.4397 2.5407C58.7997 2.1807 59.3997 2.24069 59.6997 2.60069C60.0597 2.96069 59.9997 3.56071 59.6397 3.86071L35.6997 26.1807C37.4997 28.1607 38.4597 30.5607 38.4597 32.9607C38.5197 38.7807 33.5997 43.4007 27.5997 43.4007Z" fill="#FA441B"/>
</svg>
