<svg width="70" height="70" viewBox="0 0 70 70" fill="none" xmlns="http://www.w3.org/2000/svg">
<path d="M33.5241 44.6243C33.3842 44.6243 33.3142 44.6243 33.1742 44.5543L0.707527 33.9186C0.287698 33.7787 0.0078125 33.3589 0.0078125 32.939V11.6677C0.0078125 11.2479 0.287698 10.8281 0.707527 10.6881L33.1742 0.0524786C33.3842 -0.0174929 33.5941 -0.0174929 33.804 0.0524786L66.2708 10.6881C66.6906 10.8281 66.9705 11.2479 66.9705 11.6677V18.1051C66.9705 18.6649 66.4807 19.1547 65.9209 19.1547C65.3611 19.1547 64.8713 18.6649 64.8713 18.1051V12.3675L33.5241 2.08165L2.10696 12.3675V32.1694L33.5241 42.4552L65.641 31.8895C66.2008 31.6795 66.7606 32.0294 66.9705 32.5892C67.1804 33.1489 66.8305 33.7087 66.2708 33.9186L33.804 44.5543C33.734 44.6243 33.5941 44.6243 33.5241 44.6243Z" fill="#FB5748"/>
<path d="M33.5252 65.475C33.3853 65.475 33.3153 65.475 33.1754 65.405L0.708674 54.7693C0.288846 54.6294 -0.0610112 54.2096 0.00896023 53.7198C0.00896023 53.23 0.358826 52.8801 0.848626 52.7402L16.1024 49.3116C16.6622 49.1716 17.2219 49.5215 17.3619 50.0812C17.5018 50.641 17.152 51.2008 16.5922 51.3408L5.04691 53.9297L33.5952 63.3059L65.0124 53.02V32.9382C65.0124 32.3785 65.5022 31.8887 66.0619 31.8887C66.6217 31.8887 67.1115 32.3785 67.1115 32.9382V53.7898C67.1115 54.2096 66.8316 54.6294 66.4118 54.7693L33.9451 65.405C33.7352 65.405 33.5952 65.475 33.5252 65.475Z" fill="#FB5748"/>
<path d="M33.5261 65.4755C32.9664 65.4755 32.4766 64.9857 32.4766 64.426V12.2273C32.4766 11.6675 32.9664 11.1777 33.5261 11.1777C34.0859 11.1777 34.5757 11.6675 34.5757 12.2273V64.426C34.5757 64.9857 34.0859 65.4755 33.5261 65.4755Z" fill="#FB5748"/>
<path d="M65.9931 27.2714C64.3138 27.2714 62.9844 25.942 62.9844 24.2627C62.9844 22.5834 64.3138 21.2539 65.9931 21.2539C67.6725 21.2539 69.0019 22.5834 69.0019 24.2627C69.0019 25.872 67.6025 27.2714 65.9931 27.2714ZM65.9931 23.353C65.5033 23.353 65.0835 23.7729 65.0835 24.2627C65.0835 24.7525 65.5033 25.1723 65.9931 25.1723C66.4829 25.1723 66.9028 24.7525 66.9028 24.2627C66.9028 23.7729 66.4829 23.353 65.9931 23.353Z" fill="#FB5748"/>
</svg>
