<svg width="101" height="100" viewBox="0 0 101 100" fill="none" xmlns="http://www.w3.org/2000/svg">
<path d="M94.75 72.4642H5.60478C4.85723 72.4642 4.20312 71.8101 4.20312 71.0626C4.20312 70.315 4.85723 69.6609 5.60478 69.6609H93.4418L97.273 20.1358L69.1465 36.4884C68.4923 36.8622 67.6514 36.6753 67.2776 36.0212C66.9038 35.3671 67.0907 34.5261 67.7448 34.1523L98.2074 16.4915C98.6746 16.2112 99.2353 16.2112 99.7025 16.4915C100.17 16.7718 100.357 17.239 100.357 17.7997L96.1517 71.2495C96.0582 71.9036 95.4975 72.4642 94.75 72.4642Z" fill="#FB5748"/>
<path d="M94.7518 72.4639H5.60662C4.85907 72.4639 4.29841 71.9033 4.20496 71.1557L0 17.706C0 17.1453 0.186892 16.6781 0.65411 16.3977C1.12133 16.1174 1.68199 16.1174 2.14921 16.3977L60.3646 50.1309C61.0187 50.5047 61.299 51.3457 60.8318 51.9998C60.458 52.6539 59.617 52.9342 58.9629 52.467L3.08364 20.1355L6.91483 69.6606H94.7518C95.4994 69.6606 96.1535 70.3147 96.1535 71.0623C96.1535 71.9033 95.4994 72.4639 94.7518 72.4639Z" fill="#FB5748"/>
<path d="M68.1201 36.676C67.7463 36.676 67.3725 36.5825 67.0922 36.3022L50.1789 19.2955L33.2656 36.2088C32.705 36.7694 31.864 36.7694 31.3033 36.2088C30.7426 35.6481 30.7426 34.8071 31.3033 34.2464L49.2445 16.3053C49.8052 15.7446 50.6461 15.7446 51.2068 16.3053L69.148 34.2464C69.7086 34.8071 69.7086 35.6481 69.148 36.2088C68.8677 36.5825 68.4939 36.676 68.1201 36.676Z" fill="#FB5748"/>
<path d="M68.4949 61.9058C65.6916 61.9058 63.3555 59.5697 63.3555 56.7664C63.3555 53.963 65.6916 51.627 68.4949 51.627C71.2982 51.627 73.6343 53.963 73.6343 56.7664C73.6343 59.5697 71.2982 61.9058 68.4949 61.9058ZM68.4949 54.4303C67.1867 54.4303 66.1588 55.4581 66.1588 56.7664C66.1588 58.0746 67.1867 59.1024 68.4949 59.1024C69.8031 59.1024 70.831 58.0746 70.831 56.7664C70.831 55.4581 69.8031 54.4303 68.4949 54.4303Z" fill="#FB5748"/>
</svg>
