<svg width="70" height="70" viewBox="0 0 70 70" fill="none" xmlns="http://www.w3.org/2000/svg">
<path d="M44.7666 35.9616C44.5607 35.9616 44.2862 35.8929 44.0804 35.7557C43.6686 35.4125 43.6 34.7263 43.9431 34.3145L66.6588 6.86351H3.24702L25.9627 34.3145C26.3058 34.7263 26.2372 35.4125 25.8254 35.7557C25.4137 36.0988 24.7274 36.0302 24.3843 35.6184L0.22741 6.52037C-0.0470997 6.24586 -0.0470977 5.76549 0.0901572 5.42235C0.227412 5.07921 0.639178 4.80469 1.05094 4.80469H68.9235C69.3353 4.80469 69.6784 5.01059 69.8843 5.42235C70.0215 5.76549 70.0215 6.17724 69.747 6.52037L45.5902 35.6184C45.3156 35.8243 45.0411 35.9616 44.7666 35.9616Z" fill="#FB5748"/>
<path d="M34.9528 47.7651C34.6783 47.7651 34.3351 47.6279 34.1293 47.422L26.7861 38.569C26.443 38.1573 26.5116 37.471 26.9234 37.1279C27.3351 36.7847 28.0214 36.8534 28.3645 37.2652L34.8841 45.1573L41.2665 37.471C41.6096 37.0593 42.2959 36.9907 42.7077 37.3338C43.1194 37.6769 43.1881 38.3632 42.8449 38.775L35.7077 47.422C35.5704 47.6279 35.2959 47.7651 34.9528 47.7651Z" fill="#FB5748"/>
<path d="M68.8549 65.0603H1.05094C0.639178 65.0603 0.29604 64.8544 0.0901572 64.4426C-0.0470977 64.0995 -0.0470997 63.6877 0.22741 63.3446L34.1294 22.374C34.5411 21.8936 35.296 21.8936 35.7078 22.374L69.6098 63.3446C69.8843 63.6191 69.8843 64.0995 69.747 64.4426C69.6098 64.8544 69.2666 65.0603 68.8549 65.0603ZM3.24702 63.0015H66.6588L34.9529 24.7073L3.24702 63.0015Z" fill="#FB5748"/>
<path d="M34.9513 20.8639C34.4023 20.8639 33.9219 20.3835 33.9219 19.8344V16.7462C33.9219 16.1972 34.4023 15.7168 34.9513 15.7168C35.5003 15.7168 35.9807 16.1972 35.9807 16.7462V19.8344C35.9807 20.3835 35.5003 20.8639 34.9513 20.8639Z" fill="#FB5748"/>
<path d="M34.951 55.6573C33.3039 55.6573 32 54.3534 32 52.775C32 51.1965 33.3039 49.8926 34.951 49.8926C36.598 49.8926 37.902 51.1965 37.902 52.775C37.902 54.422 36.598 55.6573 34.951 55.6573ZM34.951 52.0201C34.4706 52.0201 34.0588 52.3632 34.0588 52.8436C34.0588 53.324 34.4706 53.6671 34.951 53.6671C35.4314 53.6671 35.8431 53.324 35.8431 52.8436C35.8431 52.3632 35.4314 52.0201 34.951 52.0201Z" fill="#FB5748"/>
</svg>
