<svg width="62" height="62" viewBox="0 0 62 62" fill="none" xmlns="http://www.w3.org/2000/svg">
<path d="M61.0435 49H30.9437C30.6062 49 30.3249 48.8458 30.1561 48.5373L23.5172 34.9633C11.196 36.7629 2.64429 42.83 1.7441 47.4575H14.1779C14.628 47.4575 15.0218 47.8174 15.0218 48.2288C15.0218 48.6401 14.628 49 14.1779 49H0.84392C0.393829 49 0 48.6401 0 48.2288C0 42.4187 9.62069 35.5803 22.8421 33.5236L18.8475 25.3484C18.735 25.1427 18.735 24.9371 18.8475 24.7314L30.9437 0.462762C31.0563 0.205679 31.3938 0 31.6751 0C32.0127 0 32.294 0.154243 32.4628 0.411326L47.2595 26.4795C47.4846 26.8395 47.3158 27.3022 46.922 27.5079C46.5281 27.7135 46.0218 27.5593 45.7967 27.1994L31.7877 2.51943L20.5917 25.0399L24.6425 33.2665C26.7241 33.0095 28.8621 32.8552 31.0563 32.8552C47.7096 32.8552 62 41.2875 62 48.1773C61.8875 48.6915 61.4936 49 61.0435 49ZM31.4501 47.4575H60.0871C59.0181 42.0588 46.8094 34.4491 30.8875 34.4491C28.9183 34.4491 27.0054 34.552 25.2051 34.7576L31.4501 47.4575Z" fill="#FB5748"/>
<path d="M49.3407 33.2161C47.9905 33.2161 46.8652 32.1877 46.8652 30.9537C46.8652 29.7198 47.9905 28.6914 49.3407 28.6914C50.691 28.6914 51.8162 29.7198 51.8162 30.9537C51.8162 32.1877 50.691 33.2161 49.3407 33.2161ZM49.3407 30.2339C48.8907 30.2339 48.5531 30.5424 48.5531 30.9537C48.5531 31.3651 48.8907 31.6736 49.3407 31.6736C49.7908 31.6736 50.1284 31.3651 50.1284 30.9537C50.1284 30.5938 49.7908 30.2339 49.3407 30.2339Z" fill="#FB5748"/>
</svg>
