<svg width="62" height="62" viewBox="0 0 62 62" fill="none" xmlns="http://www.w3.org/2000/svg">
<path d="M31.1739 62C23.189 62 15.2041 58.9595 9.13288 52.8784C-1.49169 42.2367 -3.00951 25.58 5.43735 13.2857C5.76731 12.823 6.36125 12.6908 6.82319 13.0213C7.28513 13.3518 7.41709 13.9467 7.08713 14.4094C-0.8318 25.9105 0.620012 41.5096 10.5187 51.4904C21.8691 62.8593 40.2807 62.9253 51.5651 51.5565C62.8496 40.2537 62.8496 21.8124 51.4991 10.4435C46.8798 5.81666 40.8086 2.84224 34.2755 2.04906V33.7761C34.2755 34.3049 33.8135 34.7676 33.2856 34.7676H13.2903C12.7624 34.7676 12.3004 34.3049 12.3004 33.7761C12.3004 33.2473 12.7624 32.7847 13.2903 32.7847H32.2957V0.991471C32.2957 0.727078 32.4277 0.462702 32.6257 0.264408C32.8237 0.0661142 33.0876 0 33.3516 0C40.6766 0.594882 47.6057 3.83369 52.885 9.05544C65.0273 21.2175 65.0273 40.9147 52.9509 53.0106C47.0117 58.9595 39.0928 62 31.1739 62Z" fill="#FB5748"/>
<path d="M11.5081 12.0955C10.6502 12.0955 9.79236 11.765 9.13244 11.1041C8.47253 10.4431 8.14258 9.64987 8.14258 8.7245C8.14258 7.79913 8.47253 7.00597 9.13244 6.34499C10.4523 5.02303 12.5639 5.02303 13.8838 6.34499C15.2036 7.66695 15.2036 9.78209 13.8838 11.1041C13.2239 11.765 12.366 12.0955 11.5081 12.0955ZM11.5081 7.40254C11.1782 7.40254 10.7822 7.53476 10.5182 7.79915C10.2543 8.06354 10.1223 8.39403 10.1223 8.79062C10.1223 9.18721 10.2543 9.5177 10.5182 9.78209C11.0462 10.3109 11.9041 10.3109 12.432 9.78209C12.9599 9.25331 12.9599 8.39402 12.432 7.86523C12.234 7.53474 11.8381 7.40254 11.5081 7.40254Z" fill="#FB5748"/>
</svg>
