<svg width="100" height="100" viewBox="0 0 100 100" fill="none" xmlns="http://www.w3.org/2000/svg">
<path d="M88.8642 78.6479H12.587C11.9343 78.6479 11.3633 78.0444 11.3633 77.3547C11.3633 76.665 11.9343 76.0615 12.587 76.0615H87.8852L95.7169 23.9875L32.3293 65.888C31.7582 66.2329 31.024 66.0605 30.6161 65.4569C30.2898 64.8534 30.453 64.0775 31.024 63.6465L96.6959 20.194C97.1038 19.9353 97.5932 19.9353 98.0011 20.194C98.409 20.4526 98.5722 20.9699 98.5722 21.4872L90.1695 77.5271C89.9247 78.1306 89.4353 78.6479 88.8642 78.6479Z" fill="#FB5748"/>
<path d="M12.5062 78.6476C11.9351 78.6476 11.4457 78.2165 11.2825 77.613L2.87977 32.9536C2.79819 32.4363 2.96133 31.919 3.36923 31.6603C3.77713 31.4017 4.26664 31.3155 4.67454 31.5741L44.404 55.4557C44.975 55.8006 45.2198 56.5765 44.8934 57.18C44.5671 57.7835 43.8329 58.0421 43.2618 57.6973L5.89824 35.1951L13.8115 77.0095C13.9747 77.6992 13.4852 78.389 12.8325 78.5614C12.6694 78.6476 12.5878 78.6476 12.5062 78.6476Z" fill="#FA441B"/>
<path d="M56.5574 49.5147C56.3127 49.5147 56.068 49.4286 55.8233 49.2561L39.8336 37.6171L28.9834 48.1353C28.494 48.6526 27.6782 48.5664 27.2703 48.0491C26.7808 47.5318 26.8624 46.6697 27.3518 46.2386L38.9362 34.9443C39.3441 34.5133 39.9967 34.5133 40.4862 34.8582L57.2917 47.1008C57.8627 47.5318 58.0259 48.3078 57.618 48.9113C57.3732 49.3423 56.9653 49.5147 56.5574 49.5147Z" fill="#FB5748"/>
<path d="M24.8244 73.1285C22.8665 73.1285 21.3164 71.4042 21.3164 69.2488C21.3164 67.0934 22.8665 65.3691 24.8244 65.3691C26.7823 65.3691 28.3323 67.0934 28.3323 69.2488C28.3323 71.4042 26.7007 73.1285 24.8244 73.1285ZM24.8244 67.9556C24.2533 67.9556 23.7638 68.5591 23.7638 69.2488C23.7638 69.9385 24.2533 70.5421 24.8244 70.5421C25.3954 70.5421 25.8849 69.9385 25.8849 69.2488C25.8849 68.5591 25.3954 67.9556 24.8244 67.9556Z" fill="#FB5748"/>
</svg>
