<svg width="70" height="70" viewBox="0 0 70 70" fill="none" xmlns="http://www.w3.org/2000/svg">
<path d="M35.1192 70C34.8789 70 34.6385 69.8475 34.4582 69.6187L0.266646 23.562C-0.0338075 23.1807 -0.0338056 22.6469 0.146466 22.1894L8.97979 2.66872C9.16007 2.28745 9.46052 2.0587 9.76097 2.0587H14.388C14.8687 2.0587 15.2893 2.59247 15.2893 3.2025C15.2893 3.81252 14.8687 4.34629 14.388 4.34629H10.2417L2.06937 22.5707L35.1192 67.1023L67.9287 22.5707L58.7349 4.27001H23.5818C23.1011 4.27001 22.6805 3.73624 22.6805 3.12621C22.6805 2.51619 23.1011 1.98242 23.5818 1.98242H59.2156C59.5161 1.98242 59.8165 2.21119 59.9968 2.5162L69.8516 22.0369C70.092 22.4944 70.0319 23.0282 69.7315 23.4095L35.8403 69.4662C35.6 69.8475 35.3596 70 35.1192 70Z" fill="#C6D9D8"/>
<path d="M0.927861 23.943C0.507226 23.943 0.146682 23.5617 0.0265007 23.028C-0.0936806 22.4179 0.206772 21.8079 0.687497 21.6554L41.6092 9.9887C42.09 9.8362 42.5707 10.2175 42.6909 10.8275C42.8111 11.4375 42.5106 12.0475 42.0299 12.2001L1.16822 23.8667C1.10813 23.943 0.987951 23.943 0.927861 23.943Z" fill="#C6D9D8"/>
<path d="M69.0694 23.9428C68.9493 23.9428 68.8892 23.9428 68.769 23.8665L23.2804 4.34583C22.7996 4.11707 22.5593 3.50703 22.7395 2.89701C22.9198 2.28699 23.4005 1.98196 23.8813 2.21071L69.3699 21.7315C69.8506 21.9602 70.091 22.5702 69.9107 23.1802C69.7905 23.6378 69.43 23.9428 69.0694 23.9428Z" fill="#C6D9D8"/>
<path d="M18.9535 6.40521C17.5714 6.40521 16.4297 4.95644 16.4297 3.20263C16.4297 1.44881 17.5714 0 18.9535 0C20.3356 0 21.4773 1.44881 21.4773 3.20263C21.4773 4.95644 20.3356 6.40521 18.9535 6.40521ZM18.9535 2.28758C18.5329 2.28758 18.2324 2.66886 18.2324 3.20263C18.2324 3.7364 18.5329 4.11762 18.9535 4.11762C19.3741 4.11762 19.6746 3.7364 19.6746 3.20263C19.6746 2.74511 19.3741 2.28758 18.9535 2.28758Z" fill="#C6D9D8"/>
</svg>
