<svg width="62" height="62" viewBox="0 0 62 62" fill="none" xmlns="http://www.w3.org/2000/svg">
<path d="M31.1303 48.9997C30.9027 48.9997 30.675 48.8858 30.5043 48.7149L0.230314 16.523C-0.0542163 16.2381 -0.0542059 15.8393 0.116512 15.4974L7.96954 1.823C8.14025 1.53812 8.42478 1.36719 8.70931 1.36719H12.8065C13.2618 1.36719 13.6601 1.76602 13.6601 2.22184C13.6601 2.67765 13.2618 3.07649 12.8065 3.07649H9.16457L1.88058 15.7823L31.0734 46.8346L60.0385 15.8393L51.9579 3.13347H30.9596C30.5043 3.13347 30.106 2.73463 30.106 2.27881C30.106 1.823 30.5043 1.42416 30.9596 1.42416H52.4131C52.6977 1.42416 52.9822 1.59509 53.1529 1.823L61.8595 15.4974C62.0872 15.8393 62.0303 16.2381 61.7457 16.523L31.6994 48.7149C31.5855 48.8858 31.3579 48.9997 31.1303 48.9997Z" fill="#FA441B"/>
<path d="M25.0985 4.55814C23.8466 4.55814 22.8223 3.53256 22.8223 2.27907C22.8223 1.02558 23.8466 0 25.0985 0C26.3504 0 27.3747 1.02558 27.3747 2.27907C27.3747 3.53256 26.3504 4.55814 25.0985 4.55814ZM25.0985 1.7093C24.7571 1.7093 24.5294 1.99419 24.5294 2.27907C24.5294 2.62093 24.814 2.84884 25.0985 2.84884C25.4399 2.84884 25.6676 2.56395 25.6676 2.27907C25.6676 1.99419 25.4399 1.7093 25.0985 1.7093Z" fill="#FA441B"/>
<path d="M44.2758 34.87C44.0482 34.87 43.8206 34.813 43.6498 34.6421L12.4084 2.90603C12.067 2.56417 12.067 2.05138 12.4084 1.70952C12.7499 1.36766 13.262 1.36766 13.6035 1.70952L44.8449 33.4456C45.1863 33.7874 45.1863 34.3002 44.8449 34.6421C44.731 34.756 44.5034 34.87 44.2758 34.87Z" fill="#FA441B"/>
</svg>
