<svg width="61" height="61" viewBox="0 0 61 61" fill="none" xmlns="http://www.w3.org/2000/svg">
<path d="M59.4117 51.6913L40.7232 51.4454C40.3298 51.4454 39.9855 51.1012 39.9855 50.7077C39.9855 50.3143 40.3298 49.97 40.7232 49.97L58.1822 50.2159L38.0675 10.97L24.838 36.3963L32.6085 50.2159C32.756 50.4618 32.756 50.7077 32.6085 50.9536C32.4609 51.1995 32.215 51.2979 31.9691 51.2979L16.7232 51.1012C16.4773 51.1012 16.2314 50.9536 16.0839 50.7569C15.9363 50.5602 15.9363 50.2651 16.0839 50.0192L23.1658 36.3963L16.7232 24.9372L1.37895 50.511C1.18223 50.8553 0.690426 50.9536 0.346164 50.7569C0.00190191 50.5602 -0.0964588 50.1176 0.100263 49.7241L16.133 23.0684C16.2806 22.8225 16.5265 22.7241 16.7724 22.7241C17.0183 22.7241 17.2642 22.8717 17.4117 23.1176L24.0019 34.8225L37.4773 9.00282C37.6248 8.75692 37.8708 8.60938 38.1167 8.60938C38.4117 8.60938 38.6576 8.75692 38.756 9.00282L60.1003 50.6094C60.1986 50.8553 60.1986 51.1012 60.0511 51.3471C59.9035 51.5438 59.6576 51.6913 59.4117 51.6913ZM17.9035 49.6258L30.6904 49.8225L24.0019 37.9209L17.9035 49.6258Z" fill="#FB5748"/>
<path d="M37.379 52.1837C36.3462 52.1837 35.4609 51.3477 35.4609 50.2657C35.4609 49.2329 36.297 48.3477 37.379 48.3477C38.4609 48.3477 39.297 49.1837 39.297 50.2657C39.297 51.3477 38.4118 52.1837 37.379 52.1837ZM37.379 49.8722C37.1331 49.8722 36.9363 50.069 36.9363 50.3149C36.9363 50.5608 37.1331 50.7575 37.379 50.7575C37.6249 50.7575 37.8216 50.5608 37.8216 50.3149C37.8216 50.069 37.6249 49.8722 37.379 49.8722Z" fill="#FB5748"/>
</svg>
