<svg width="62" height="62" viewBox="0 0 62 62" fill="none" xmlns="http://www.w3.org/2000/svg">
<path d="M1.04494 59.2505C0.48764 59.2505 0 58.7629 0 58.2056V1.08196C0 0.663984 0.208963 0.315668 0.626941 0.106679C0.975255 -0.0326466 1.46292 -0.0326434 1.74157 0.246008L30.373 24.628L59.0045 0.246008C59.4224 -0.102306 60.1191 -0.102308 60.4674 0.385332C60.8157 0.80331 60.8157 1.49994 60.3281 1.84825L31.0696 26.8572C30.6517 27.2056 30.0943 27.2056 29.746 26.8572L2.15953 3.31118V58.2056C2.08987 58.7629 1.60225 59.2505 1.04494 59.2505Z" fill="#FB5748"/>
<path d="M59.7007 59.1114C59.1434 59.1114 58.6558 58.6238 58.6558 58.0665V14.7362L31.0693 38.2822C30.6513 38.6305 30.094 38.6305 29.7456 38.2822L6.5479 18.498C6.12992 18.1496 6.06025 17.453 6.40856 17.035C6.75688 16.6171 7.45353 16.5474 7.87151 16.8957L30.3726 36.053L59.0041 11.671C59.2827 11.3923 59.7704 11.3227 60.1187 11.5317C60.467 11.671 60.7456 12.089 60.7456 12.507V58.0665C60.7456 58.6238 60.258 59.1114 59.7007 59.1114Z" fill="#FB5748"/>
<path d="M59.7011 59.1114H30.3731C29.8158 59.1114 29.3281 58.6237 29.3281 58.0664C29.3281 57.5091 29.8158 57.0215 30.3731 57.0215H59.7011C60.2584 57.0215 60.7461 57.5091 60.7461 58.0664C60.7461 58.6237 60.2584 59.1114 59.7011 59.1114Z" fill="#FB5748"/>
<path d="M22.92 60.3654C21.3177 60.3654 19.9941 59.0418 19.9941 57.4395C19.9941 55.8373 21.3177 54.5137 22.92 54.5137C24.5222 54.5137 25.8458 55.8373 25.8458 57.4395C25.7762 59.0418 24.4526 60.3654 22.92 60.3654ZM22.92 56.6732C22.502 56.6732 22.084 57.0215 22.084 57.5092C22.084 57.9272 22.4324 58.3451 22.92 58.3451C23.338 58.3451 23.756 57.9968 23.756 57.5092C23.6863 57.0215 23.338 56.6732 22.92 56.6732Z" fill="#FB5748"/>
</svg>
