<svg width="254" height="110" viewBox="0 0 254 110" fill="none" xmlns="http://www.w3.org/2000/svg">
<g clip-path="url(#clip0_10264_27918)">
<g clip-path="url(#clip1_10264_27918)">
<path d="M181.211 79.396H183.539V80.5198H179.793V73.4531H181.211V79.396Z" fill="black"/>
<path d="M186.727 80.6113C186.188 80.6113 185.701 80.4932 185.27 80.257C184.837 80.014 184.497 79.6731 184.247 79.2344C184.004 78.7957 183.883 78.2895 183.883 77.7158C183.883 77.1421 184.007 76.6359 184.257 76.1972C184.513 75.7584 184.861 75.421 185.299 75.1848C185.739 74.9418 186.228 74.8203 186.768 74.8203C187.308 74.8203 187.798 74.9418 188.236 75.1848C188.675 75.421 189.019 75.7584 189.269 76.1972C189.525 76.6359 189.653 77.1421 189.653 77.7158C189.653 78.2895 189.522 78.7957 189.258 79.2344C189.002 79.6731 188.651 80.014 188.205 80.257C187.767 80.4932 187.274 80.6113 186.727 80.6113ZM186.727 79.3762C186.984 79.3762 187.223 79.3154 187.446 79.1939C187.676 79.0657 187.858 78.8767 187.993 78.627C188.128 78.3773 188.195 78.0735 188.195 77.7158C188.195 77.1825 188.053 76.7743 187.77 76.4907C187.493 76.2005 187.153 76.0554 186.748 76.0554C186.343 76.0554 186.002 76.2005 185.725 76.4907C185.455 76.7743 185.32 77.1825 185.32 77.7158C185.32 78.249 185.452 78.6607 185.714 78.9509C185.985 79.2344 186.323 79.3762 186.727 79.3762Z" fill="black"/>
<path d="M192.687 74.8203C193.105 74.8203 193.473 74.9046 193.79 75.0734C194.108 75.2354 194.357 75.448 194.539 75.7112V74.9115H195.967V80.5607C195.967 81.0803 195.863 81.5427 195.653 81.9477C195.444 82.3594 195.13 82.6833 194.712 82.9196C194.293 83.1625 193.787 83.2841 193.193 83.2841C192.397 83.2841 191.742 83.0984 191.229 82.7272C190.722 82.356 190.436 81.8498 190.369 81.2086H191.775C191.85 81.4651 192.008 81.6676 192.252 81.8161C192.501 81.9713 192.801 82.049 193.152 82.049C193.564 82.049 193.898 81.924 194.155 81.6743C194.411 81.4314 194.539 81.0601 194.539 80.5607V79.69C194.357 79.9532 194.104 80.1725 193.781 80.348C193.463 80.5236 193.099 80.6113 192.687 80.6113C192.215 80.6113 191.782 80.4898 191.391 80.2468C190.999 80.0039 190.689 79.663 190.46 79.2243C190.237 78.7788 190.125 78.2692 190.125 77.6956C190.125 77.1286 190.237 76.6258 190.46 76.187C190.689 75.7483 190.996 75.4109 191.381 75.1747C191.772 74.9384 192.208 74.8203 192.687 74.8203ZM194.539 77.7158C194.539 77.3715 194.472 77.078 194.337 76.835C194.202 76.5853 194.02 76.3963 193.79 76.268C193.561 76.1331 193.315 76.0656 193.051 76.0656C192.788 76.0656 192.545 76.1297 192.322 76.2579C192.099 76.3862 191.917 76.5752 191.775 76.8249C191.64 77.0679 191.573 77.3581 191.573 77.6956C191.573 78.033 191.64 78.3299 191.775 78.5864C191.917 78.8362 192.099 79.0285 192.322 79.1635C192.552 79.2986 192.794 79.366 193.051 79.366C193.315 79.366 193.561 79.3019 193.79 79.1737C194.02 79.0386 194.202 78.8497 194.337 78.6068C194.472 78.3569 194.539 78.06 194.539 77.7158Z" fill="black"/>
<path d="M197.869 74.2463C197.62 74.2463 197.41 74.1687 197.241 74.0135C197.079 73.8515 196.998 73.6524 196.998 73.4161C196.998 73.1799 197.079 72.9842 197.241 72.8289C197.41 72.667 197.62 72.5859 197.869 72.5859C198.118 72.5859 198.325 72.667 198.486 72.8289C198.655 72.9842 198.74 73.1799 198.74 73.4161C198.74 73.6524 198.655 73.8515 198.486 74.0135C198.325 74.1687 198.118 74.2463 197.869 74.2463ZM198.567 74.9146V80.5233H197.15V74.9146H198.567Z" fill="black"/>
<path d="M201.911 80.6113C201.452 80.6113 201.04 80.5303 200.675 80.3683C200.311 80.1995 200.021 79.9734 199.805 79.69C199.595 79.4065 199.481 79.0927 199.461 78.7484H200.888C200.915 78.9644 201.019 79.1433 201.201 79.2851C201.39 79.4268 201.623 79.4976 201.9 79.4976C202.17 79.4976 202.38 79.4436 202.528 79.3357C202.683 79.2276 202.761 79.0893 202.761 78.9206C202.761 78.7383 202.666 78.6034 202.477 78.5156C202.295 78.4211 202.002 78.3198 201.597 78.2119C201.178 78.1106 200.834 78.006 200.563 77.8981C200.301 77.79 200.071 77.6246 199.876 77.4019C199.686 77.1792 199.592 76.8789 199.592 76.5009C199.592 76.1904 199.679 75.907 199.855 75.6505C200.037 75.394 200.294 75.1915 200.625 75.043C200.962 74.8945 201.357 74.8203 201.809 74.8203C202.477 74.8203 203.011 74.989 203.409 75.3265C203.807 75.6572 204.027 76.1061 204.066 76.673H202.71C202.69 76.4502 202.596 76.2747 202.427 76.1466C202.264 76.0115 202.046 75.9441 201.769 75.9441C201.512 75.9441 201.313 75.9913 201.172 76.0858C201.037 76.1803 200.969 76.3119 200.969 76.4806C200.969 76.6696 201.063 76.8148 201.252 76.916C201.442 77.0105 201.735 77.1083 202.134 77.2095C202.538 77.3108 202.873 77.4154 203.135 77.5234C203.399 77.6314 203.625 77.8001 203.814 78.0296C204.009 78.2524 204.11 78.5493 204.118 78.9206C204.118 79.2445 204.027 79.5348 203.845 79.7913C203.669 80.0477 203.412 80.2502 203.075 80.3986C202.744 80.5404 202.356 80.6113 201.911 80.6113Z" fill="black"/>
<path d="M206.729 76.0748V78.788C206.729 78.977 206.773 79.1154 206.86 79.2031C206.954 79.2842 207.11 79.3247 207.326 79.3247H207.984V80.5193H207.093C205.899 80.5193 205.302 79.9388 205.302 78.7779V76.0748H204.633V74.9106H205.302V73.5234H206.729V74.9106H207.984V76.0748H206.729Z" fill="black"/>
<path d="M209.519 74.2463C209.27 74.2463 209.06 74.1687 208.892 74.0135C208.73 73.8515 208.648 73.6524 208.648 73.4161C208.648 73.1799 208.73 72.9842 208.892 72.8289C209.06 72.667 209.27 72.5859 209.519 72.5859C209.77 72.5859 209.975 72.667 210.137 72.8289C210.305 72.9842 210.39 73.1799 210.39 73.4161C210.39 73.6524 210.305 73.8515 210.137 74.0135C209.975 74.1687 209.77 74.2463 209.519 74.2463ZM210.219 74.9146V80.5233H208.801V74.9146H210.219Z" fill="black"/>
<path d="M211.053 77.7158C211.053 77.1353 211.17 76.6291 211.406 76.1972C211.642 75.7584 211.97 75.421 212.389 75.1848C212.807 74.9418 213.286 74.8203 213.827 74.8203C214.522 74.8203 215.095 74.9958 215.547 75.3467C216.006 75.691 216.314 76.1769 216.469 76.8046H214.94C214.859 76.5617 214.72 76.3727 214.525 76.2376C214.336 76.096 214.1 76.025 213.817 76.025C213.411 76.025 213.091 76.1735 212.855 76.4705C212.619 76.7608 212.5 77.1758 212.5 77.7158C212.5 78.249 212.619 78.6641 212.855 78.961C213.091 79.2512 213.411 79.3964 213.817 79.3964C214.39 79.3964 214.764 79.1399 214.94 78.627H216.469C216.314 79.2344 216.006 79.717 215.547 80.0747C215.088 80.4325 214.515 80.6113 213.827 80.6113C213.286 80.6113 212.807 80.4932 212.389 80.257C211.97 80.014 211.642 79.6765 211.406 79.2445C211.17 78.8058 211.053 78.2962 211.053 77.7158Z" fill="black"/>
<path d="M219.45 80.6113C218.991 80.6113 218.579 80.5303 218.214 80.3683C217.85 80.1995 217.56 79.9734 217.344 79.69C217.135 79.4065 217.02 79.0927 217 78.7484H218.428C218.454 78.9644 218.559 79.1433 218.74 79.2851C218.93 79.4268 219.163 79.4976 219.44 79.4976C219.71 79.4976 219.919 79.4436 220.067 79.3357C220.223 79.2276 220.3 79.0893 220.3 78.9206C220.3 78.7383 220.205 78.6034 220.016 78.5156C219.834 78.4211 219.541 78.3198 219.136 78.2119C218.717 78.1106 218.374 78.006 218.104 77.8981C217.84 77.79 217.611 77.6246 217.415 77.4019C217.226 77.1792 217.132 76.8789 217.132 76.5009C217.132 76.1904 217.219 75.907 217.394 75.6505C217.576 75.394 217.833 75.1915 218.164 75.043C218.501 74.8945 218.896 74.8203 219.349 74.8203C220.016 74.8203 220.55 74.989 220.948 75.3265C221.346 75.6572 221.566 76.1061 221.607 76.673H220.249C220.229 76.4502 220.135 76.2747 219.966 76.1466C219.805 76.0115 219.585 75.9441 219.308 75.9441C219.051 75.9441 218.852 75.9913 218.711 76.0858C218.576 76.1803 218.508 76.3119 218.508 76.4806C218.508 76.6696 218.602 76.8148 218.792 76.916C218.981 77.0105 219.274 77.1083 219.673 77.2095C220.077 77.3108 220.412 77.4154 220.674 77.5234C220.938 77.6314 221.164 77.8001 221.353 78.0296C221.548 78.2524 221.65 78.5493 221.657 78.9206C221.657 79.2445 221.566 79.5348 221.384 79.7913C221.208 80.0477 220.951 80.2502 220.614 80.3986C220.283 80.5404 219.896 80.6113 219.45 80.6113Z" fill="black"/>
<path d="M230.265 80.5232L229.496 79.7639C228.842 80.3511 228.041 80.6447 227.097 80.6447C226.576 80.6447 226.117 80.5569 225.72 80.3815C225.328 80.1993 225.025 79.9462 224.808 79.6221C224.592 79.2914 224.484 78.9101 224.484 78.4781C224.484 78.0124 224.616 77.594 224.88 77.2227C225.142 76.8515 225.531 76.5512 226.044 76.3217C225.861 76.099 225.73 75.8863 225.648 75.6838C225.567 75.4746 225.528 75.2519 225.528 75.0156C225.528 74.6917 225.611 74.4015 225.78 74.1451C225.949 73.8817 226.189 73.676 226.499 73.5274C226.817 73.3789 227.185 73.3047 227.603 73.3047C228.028 73.3047 228.393 73.3857 228.696 73.5477C229 73.7097 229.226 73.9257 229.374 74.1957C229.522 74.4656 229.587 74.7659 229.566 75.0967H228.189C228.197 74.874 228.142 74.7052 228.028 74.5905C227.913 74.469 227.758 74.4083 227.562 74.4083C227.373 74.4083 227.214 74.4656 227.086 74.5803C226.965 74.6883 226.903 74.8301 226.903 75.0055C226.903 75.1743 226.955 75.3431 227.056 75.5117C227.157 75.6737 227.323 75.8762 227.552 76.1192L229.334 77.8808C229.347 77.8673 229.358 77.8538 229.364 77.8404C229.371 77.8269 229.377 77.8134 229.384 77.7999L229.962 76.838H231.44L230.731 78.0833C230.596 78.3465 230.45 78.5963 230.295 78.8325L232.006 80.5232H230.265ZM227.137 79.4703C227.691 79.4703 228.179 79.2746 228.604 78.8831L226.864 77.162C226.208 77.4522 225.881 77.864 225.881 78.3971C225.881 78.7008 225.996 78.9574 226.226 79.1665C226.455 79.369 226.759 79.4703 227.137 79.4703Z" fill="black"/>
<path d="M179.449 88.2783C179.449 87.5832 179.604 86.9623 179.915 86.4155C180.232 85.8621 180.66 85.4335 181.201 85.1298C181.746 84.8193 182.358 84.6641 183.032 84.6641C183.822 84.6641 184.515 84.8665 185.108 85.2715C185.702 85.6765 186.117 86.2366 186.353 86.9522H184.723C184.562 86.6146 184.332 86.3615 184.035 86.1928C183.745 86.0241 183.407 85.9397 183.022 85.9397C182.611 85.9397 182.243 86.0376 181.919 86.2334C181.601 86.4223 181.352 86.6922 181.17 87.0432C180.994 87.3941 180.906 87.8059 180.906 88.2783C180.906 88.7441 180.994 89.1558 181.17 89.5135C181.352 89.8645 181.601 90.1378 181.919 90.3335C182.243 90.5226 182.611 90.617 183.022 90.617C183.407 90.617 183.745 90.5327 184.035 90.3639C184.332 90.1885 184.562 89.932 184.723 89.5945H186.353C186.117 90.3167 185.702 90.8803 185.108 91.2852C184.521 91.6834 183.83 91.8826 183.032 91.8826C182.358 91.8826 181.746 91.7307 181.201 91.427C180.66 91.1165 180.232 90.6879 179.915 90.1413C179.604 89.5945 179.449 88.9735 179.449 88.2783Z" fill="black"/>
<path d="M189.853 91.916C189.313 91.916 188.826 91.798 188.395 91.5617C187.963 91.3188 187.622 90.9779 187.372 90.5391C187.129 90.1004 187.008 89.5942 187.008 89.0206C187.008 88.4468 187.133 87.9406 187.382 87.5019C187.639 87.0632 187.986 86.7258 188.425 86.4896C188.864 86.2466 189.353 86.125 189.893 86.125C190.433 86.125 190.923 86.2466 191.361 86.4896C191.8 86.7258 192.144 87.0632 192.394 87.5019C192.65 87.9406 192.778 88.4468 192.778 89.0206C192.778 89.5942 192.647 90.1004 192.383 90.5391C192.127 90.9779 191.776 91.3188 191.331 91.5617C190.892 91.798 190.399 91.916 189.853 91.916ZM189.853 90.6809C190.109 90.6809 190.348 90.6202 190.571 90.4987C190.801 90.3705 190.983 90.1815 191.118 89.9318C191.253 89.6819 191.32 89.3782 191.32 89.0206C191.32 88.4873 191.178 88.079 190.895 87.7955C190.618 87.5053 190.278 87.3601 189.873 87.3601C189.468 87.3601 189.127 87.5053 188.85 87.7955C188.58 88.079 188.445 88.4873 188.445 89.0206C188.445 89.5538 188.577 89.9655 188.841 90.2557C189.11 90.5391 189.448 90.6809 189.853 90.6809Z" fill="black"/>
<path d="M200.58 86.1328C201.268 86.1328 201.822 86.3454 202.24 86.7706C202.665 87.1891 202.878 87.7762 202.878 88.5321V91.8225H201.46V88.7245C201.46 88.2858 201.348 87.9517 201.126 87.7223C200.904 87.486 200.599 87.3679 200.215 87.3679C199.83 87.3679 199.523 87.486 199.294 87.7223C199.071 87.9517 198.96 88.2858 198.96 88.7245V91.8225H197.542V88.7245C197.542 88.2858 197.43 87.9517 197.207 87.7223C196.986 87.486 196.681 87.3679 196.297 87.3679C195.905 87.3679 195.594 87.486 195.365 87.7223C195.143 87.9517 195.031 88.2858 195.031 88.7245V91.8225H193.613V86.2137H195.031V86.892C195.213 86.6558 195.446 86.4703 195.729 86.3353C196.02 86.2002 196.338 86.1328 196.681 86.1328C197.121 86.1328 197.512 86.2272 197.856 86.4162C198.2 86.5985 198.467 86.8617 198.656 87.2059C198.838 86.8819 199.102 86.6221 199.445 86.4263C199.797 86.2306 200.174 86.1328 200.58 86.1328Z" fill="black"/>
<path d="M210.987 86.1328C211.675 86.1328 212.229 86.3454 212.647 86.7706C213.072 87.1891 213.285 87.7762 213.285 88.5321V91.8225H211.867V88.7245C211.867 88.2858 211.756 87.9517 211.534 87.7223C211.311 87.486 211.008 87.3679 210.622 87.3679C210.238 87.3679 209.93 87.486 209.701 87.7223C209.478 87.9517 209.367 88.2858 209.367 88.7245V91.8225H207.949V88.7245C207.949 88.2858 207.838 87.9517 207.616 87.7223C207.393 87.486 207.09 87.3679 206.704 87.3679C206.313 87.3679 206.002 87.486 205.773 87.7223C205.55 87.9517 205.439 88.2858 205.439 88.7245V91.8225H204.021V86.2137H205.439V86.892C205.621 86.6558 205.854 86.4703 206.138 86.3353C206.427 86.2002 206.745 86.1328 207.09 86.1328C207.528 86.1328 207.92 86.2272 208.263 86.4162C208.608 86.5985 208.874 86.8617 209.063 87.2059C209.245 86.8819 209.509 86.6221 209.853 86.4263C210.204 86.2306 210.581 86.1328 210.987 86.1328Z" fill="black"/>
<path d="M219.641 88.899C219.641 89.1015 219.627 89.2838 219.6 89.4458H215.5C215.534 89.8507 215.676 90.168 215.925 90.3975C216.174 90.6269 216.482 90.7416 216.846 90.7416C217.372 90.7416 217.748 90.5155 217.97 90.0633H219.499C219.337 90.6032 219.026 91.0487 218.567 91.3997C218.108 91.7439 217.545 91.916 216.877 91.916C216.337 91.916 215.85 91.798 215.419 91.5617C214.994 91.3188 214.66 90.9779 214.416 90.5391C214.18 90.1004 214.062 89.5942 214.062 89.0206C214.062 88.4401 214.18 87.9305 214.416 87.4918C214.652 87.0531 214.984 86.7157 215.409 86.4794C215.834 86.2432 216.323 86.125 216.877 86.125C217.409 86.125 217.886 86.2398 218.304 86.4693C218.729 86.6988 219.057 87.0261 219.286 87.4513C219.522 87.8698 219.641 88.3524 219.641 88.899ZM218.173 88.4941C218.166 88.1296 218.034 87.8393 217.777 87.6235C217.521 87.4007 217.207 87.2893 216.836 87.2893C216.485 87.2893 216.188 87.3974 215.945 87.6132C215.709 87.8225 215.564 88.1162 215.51 88.4941H218.173Z" fill="black"/>
<path d="M221.89 87.0844C222.073 86.7875 222.309 86.5546 222.6 86.3859C222.896 86.2171 223.233 86.1328 223.612 86.1328V87.6211H223.237C222.792 87.6211 222.454 87.7256 222.224 87.9349C222.002 88.1441 221.89 88.5085 221.89 89.0283V91.8225H220.473V86.2137H221.89V87.0844Z" fill="black"/>
<path d="M224 89.0206C224 88.4401 224.117 87.9339 224.354 87.5019C224.59 87.0632 224.918 86.7258 225.336 86.4896C225.755 86.2466 226.234 86.125 226.774 86.125C227.469 86.125 228.042 86.3006 228.495 86.6515C228.954 86.9957 229.261 87.4817 229.416 88.1094H227.887C227.806 87.8664 227.668 87.6774 227.472 87.5424C227.283 87.4007 227.047 87.3298 226.764 87.3298C226.359 87.3298 226.038 87.4783 225.802 87.7753C225.566 88.0656 225.447 88.4806 225.447 89.0206C225.447 89.5538 225.566 89.9689 225.802 90.2658C226.038 90.556 226.359 90.7012 226.764 90.7012C227.337 90.7012 227.712 90.4447 227.887 89.9318H229.416C229.261 90.5391 228.954 91.0217 228.495 91.3795C228.036 91.7371 227.462 91.916 226.774 91.916C226.234 91.916 225.755 91.798 225.336 91.5617C224.918 91.3188 224.59 90.9812 224.354 90.5493C224.117 90.1105 224 89.601 224 89.0206Z" fill="black"/>
<path d="M235.466 88.899C235.466 89.1015 235.452 89.2838 235.426 89.4458H231.325C231.358 89.8507 231.5 90.168 231.75 90.3975C231.999 90.6269 232.307 90.7416 232.671 90.7416C233.197 90.7416 233.572 90.5155 233.795 90.0633H235.323C235.162 90.6032 234.851 91.0487 234.392 91.3997C233.933 91.7439 233.37 91.916 232.702 91.916C232.162 91.916 231.676 91.798 231.244 91.5617C230.819 91.3188 230.484 90.9779 230.241 90.5391C230.005 90.1004 229.887 89.5942 229.887 89.0206C229.887 88.4401 230.005 87.9305 230.241 87.4918C230.477 87.0531 230.808 86.7157 231.234 86.4794C231.659 86.2432 232.149 86.125 232.702 86.125C233.235 86.125 233.71 86.2398 234.13 86.4693C234.555 86.6988 234.882 87.0261 235.111 87.4513C235.348 87.8698 235.466 88.3524 235.466 88.899ZM233.998 88.4941C233.991 88.1296 233.86 87.8393 233.603 87.6235C233.347 87.4007 233.033 87.2893 232.662 87.2893C232.31 87.2893 232.014 87.3974 231.77 87.6132C231.534 87.8225 231.389 88.1162 231.335 88.4941H233.998Z" fill="black"/>
<path d="M131.12 72.4688V91.588H127.286V83.4527H119.096V91.588H115.262V72.4688H119.096V80.3301H127.286V72.4688H131.12Z" fill="black"/>
<path d="M137.032 72.4688V84.3018C137.032 85.5983 137.37 86.5935 138.045 87.2875C138.722 87.9632 139.671 88.301 140.895 88.301C142.136 88.301 143.094 87.9632 143.771 87.2875C144.446 86.5935 144.784 85.5983 144.784 84.3018V72.4688H148.646V84.2745C148.646 85.8997 148.291 87.2784 147.578 88.4106C146.884 89.5245 145.944 90.3645 144.757 90.9306C143.587 91.4966 142.282 91.7797 140.84 91.7797C139.416 91.7797 138.119 91.4966 136.951 90.9306C135.8 90.3645 134.886 89.5245 134.211 88.4106C133.535 87.2784 133.197 85.8997 133.197 84.2745V72.4688H137.032Z" fill="black"/>
<path d="M161.554 81.7818C162.632 81.9828 163.517 82.5214 164.211 83.398C164.905 84.2745 165.252 85.2788 165.252 86.411C165.252 87.4336 164.997 88.3375 164.485 89.1228C163.992 89.8897 163.271 90.4923 162.322 90.9306C161.372 91.3688 160.248 91.588 158.953 91.588H150.707V72.4688H158.596C159.893 72.4688 161.006 72.6787 161.938 73.0987C162.887 73.5187 163.6 74.1032 164.074 74.8518C164.567 75.6005 164.814 76.4497 164.814 77.3992C164.814 78.5131 164.512 79.4444 163.911 80.1932C163.325 80.9419 162.54 81.4714 161.554 81.7818ZM154.543 80.3575H158.048C158.961 80.3575 159.664 80.1566 160.157 79.7548C160.65 79.3349 160.897 78.7414 160.897 77.9744C160.897 77.2075 160.65 76.6139 160.157 76.1939C159.664 75.774 158.961 75.564 158.048 75.564H154.543V80.3575ZM158.405 88.4654C159.336 88.4654 160.057 88.2462 160.568 87.8079C161.098 87.3697 161.363 86.7488 161.363 85.9453C161.363 85.1236 161.088 84.4844 160.54 84.028C159.994 83.5531 159.253 83.3157 158.322 83.3157H154.543V88.4654H158.405Z" fill="black"/>
<path d="M25.3007 72.4688C27.3094 72.4688 29.0716 72.8613 30.5872 73.6466C32.1211 74.4318 33.299 75.5548 34.1207 77.0157C34.9607 78.4583 35.3807 80.1384 35.3807 82.0558C35.3807 83.9732 34.9607 85.6531 34.1207 87.0958C33.299 88.5201 32.1211 89.6249 30.5872 90.4101C29.0716 91.1953 27.3094 91.588 25.3007 91.588H18.6172V72.4688H25.3007ZM25.1637 88.3284C27.1724 88.3284 28.7246 87.7806 29.8203 86.6849C30.916 85.5892 31.4638 84.0462 31.4638 82.0558C31.4638 80.0653 30.916 78.5131 29.8203 77.3992C28.7246 76.2671 27.1724 75.701 25.1637 75.701H22.452V88.3284H25.1637Z" fill="black"/>
<path d="M40.4422 72.4688V91.588H36.6074V72.4688H40.4422Z" fill="black"/>
<path d="M55.8998 78.2174C55.4616 77.4139 54.859 76.8022 54.0919 76.3823C53.325 75.9623 52.4302 75.7522 51.4077 75.7522C50.2754 75.7522 49.2711 76.0079 48.3946 76.5192C47.5181 77.0305 46.8333 77.7609 46.3403 78.7105C45.8472 79.6601 45.6007 80.7558 45.6007 81.9975C45.6007 83.2758 45.8472 84.3897 46.3403 85.3392C46.8516 86.2889 47.5546 87.0192 48.4494 87.5306C49.3441 88.0419 50.385 88.2975 51.572 88.2975C53.0328 88.2975 54.229 87.914 55.1603 87.1471C56.0916 86.3619 56.7033 85.2753 56.9955 83.8875H50.4216V80.9566H60.7755V84.2983C60.5199 85.6314 59.972 86.864 59.132 87.9962C58.2921 89.1284 57.2055 90.0415 55.8724 90.7354C54.5576 91.411 53.0785 91.7488 51.435 91.7488C49.5906 91.7488 47.9198 91.338 46.4224 90.5162C44.9433 89.6763 43.7746 88.5167 42.9163 87.0375C42.0763 85.5584 41.6562 83.8783 41.6562 81.9975C41.6562 80.1166 42.0763 78.4366 42.9163 76.9575C43.7746 75.4601 44.9433 74.3005 46.4224 73.4787C47.9198 72.6388 49.5815 72.2188 51.4077 72.2188C53.5624 72.2188 55.4341 72.7484 57.0229 73.8075C58.6116 74.8484 59.7073 76.3184 60.3098 78.2174H55.8998Z" fill="black"/>
<path d="M65.8036 72.4688V91.588H61.9688V72.4688H65.8036Z" fill="black"/>
<path d="M81.9424 72.4688V75.564H76.8476V91.588H73.0128V75.564H67.918V72.4688H81.9424Z" fill="black"/>
<path d="M92.7412 87.941H85.1264L83.8664 91.5841H79.8398L86.7151 72.4375H91.1799L98.0551 91.5841H94.0012L92.7412 87.941ZM91.7004 84.8732L88.9338 76.8749L86.1673 84.8732H91.7004Z" fill="black"/>
<path d="M103.585 88.5475H109.885V91.588H99.75V72.4688H103.585V88.5475Z" fill="black"/>
<path d="M174.438 72.4375H175.755V91.9836H174.438V72.4375Z" fill="black"/>
<path d="M108.086 20.4098C107.985 20.3807 107.626 20.2628 107.309 20.1554L106.736 19.9531L107.084 20.2563C108.141 21.186 108.857 23.0185 109.508 26.441C109.903 28.495 109.399 27.6411 110.146 28.11C111.024 28.6607 110.94 28.5403 111.067 28.11C111.139 26.9525 113.256 24.5046 114.116 24.1738C113.984 23.9091 113.394 23.1748 112.504 22.5859C111.475 21.9839 111.271 21.8582 110.009 21.2242C109.071 20.8162 108.206 20.4472 108.086 20.4098Z" fill="black"/>
<path d="M128.468 18.1262C127.98 18.1847 127.342 18.3279 126.997 18.458L126.828 18.5232L127.18 18.7574C127.726 19.1218 128.709 19.9873 129.125 20.4754C129.646 21.074 129.926 21.5035 130.629 22.753C131.65 24.5686 131.852 24.7964 132.932 25.317C133.615 25.6553 134.285 25.8701 134.37 25.792C134.416 25.74 134.214 23.6055 134.096 22.9937C133.83 21.5751 133.16 20.2345 132.184 19.1479C131.474 18.3604 129.991 17.9505 128.468 18.1262Z" fill="black"/>
<path d="M94.2061 18.2158C93.4219 18.3623 93.3172 18.429 93.6534 18.5555C94.0268 18.6887 95.4087 19.954 96.1183 20.8131C96.4693 21.2326 97.2237 22.205 97.7989 22.9775C98.374 23.7434 98.9865 24.4892 99.1658 24.6358C99.7931 25.1419 101.033 25.5016 102.4 25.5881L103.132 25.6281L102.908 25.2019C102.788 24.9688 102.587 24.5626 102.452 24.3095C102.318 24.0498 101.825 23.0774 101.354 22.145C100.383 20.2137 100.099 19.7875 99.3973 19.2015C98.8297 18.7219 98.1724 18.409 97.3283 18.2158C96.5589 18.0426 95.1472 18.0426 94.2061 18.2158Z" fill="black"/>
<path d="M100.618 18.4489L99.8535 18.4062L100.304 18.8C101.226 19.605 102.01 20.8686 103.369 23.714C103.847 24.7185 104.36 25.6764 104.521 25.8542C104.851 26.2377 105.606 26.7043 106.492 27.0698C107.24 27.3821 108.431 27.7539 108.549 27.717C108.679 27.6759 107.357 22.3832 107.057 21.7195C106.784 21.1076 106.166 20.3752 105.563 19.9451C105.358 19.7989 104.872 19.5244 104.479 19.3413C103.85 19.0457 103.596 18.963 102.571 18.7497C101.781 18.5826 101.127 18.4815 100.618 18.4489Z" fill="black"/>
<path d="M90.2416 18.9336C89.2329 19.1939 88.2828 19.6624 87.671 20.196L87.3848 20.4499L87.7362 20.4953C88.3869 20.58 88.8684 20.7297 89.5907 21.0875C90.6059 21.5821 92.2133 22.6819 93.6059 23.8338C94.3022 24.4064 94.7252 24.5626 95.7208 24.6146C96.3391 24.6471 97.2762 24.5626 97.4844 24.4454C97.6536 24.3478 95.1938 21.0875 94.185 20.0724C93.6255 19.5128 93.4042 19.3371 93.0072 19.1483C92.7404 19.0182 92.389 18.8815 92.2263 18.849C91.7252 18.7318 90.8792 18.7709 90.2416 18.9336Z" fill="black"/>
<path d="M123.982 18.8181C122.902 19.0264 121.803 19.5469 121.022 20.2303L120.762 20.458L121.087 20.5036C121.581 20.5752 122.902 21.0242 123.56 21.3431C124.243 21.6814 124.763 22.0588 125.935 23.0806C127.451 24.395 127.776 24.5513 129.052 24.6163C129.579 24.6423 130.042 24.6229 130.34 24.5773L130.803 24.4926L130.373 23.8224C130.132 23.4514 129.749 22.8398 129.514 22.4558C128.532 20.8485 127.314 19.6641 125.935 18.9874C125.616 18.8312 125.492 18.8117 124.861 18.7986C124.471 18.7921 124.074 18.8052 123.982 18.8181Z" fill="black"/>
<path d="M133.178 19.0391C134.453 20.8351 134.857 21.8568 134.98 23.6528C135.13 25.7742 135.175 26.1713 135.267 26.4901C135.384 26.8741 136.009 27.7851 136.529 28.3187L136.881 28.6897L137.33 27.5833C137.935 26.1062 138.084 25.6701 138.208 24.9478C138.416 23.7635 138.222 21.9934 137.798 21.154C137.59 20.744 137.076 20.2298 136.503 19.859C135.644 19.3058 134.701 18.987 133.679 18.9219L133.061 18.8828L133.178 19.0391Z" fill="black"/>
<path d="M119.103 21.3298C118.537 21.5382 118.172 21.7268 117.703 22.0588C117.261 22.3711 116.5 23.152 116.181 23.6075L115.973 23.9133H116.448C117.06 23.9133 118.543 24.0761 119.168 24.2062C119.617 24.2973 120.242 24.5055 122.162 25.1823C123.098 25.5142 123.821 25.5988 124.459 25.4622C125.024 25.3386 126.222 24.8829 126.456 24.6943L126.619 24.5707L126.476 24.4666C126.398 24.4079 125.864 23.9914 125.291 23.5359C124.719 23.0804 124.023 22.5663 123.736 22.3971C122.617 21.7203 121.23 21.2648 120.111 21.2062C119.611 21.1802 119.467 21.1932 119.103 21.3298Z" fill="black"/>
<path d="M86.1736 21.4764C85.601 21.639 85.0413 21.997 84.3776 22.6282C83.7007 23.2789 83.0826 24.1315 82.8613 24.7236C82.7831 24.9254 82.7246 25.1205 82.7246 25.1531C82.7246 25.1857 82.8547 25.1596 83.0175 25.088C84.1368 24.6065 85.8612 24.5739 88.1974 24.9969C88.6855 25.0816 89.3362 25.2247 89.6486 25.3158C90.3189 25.511 90.885 25.5241 91.4967 25.3678C91.9393 25.2508 93.2082 24.639 93.2472 24.5284C93.2538 24.4958 92.9023 24.2031 92.4664 23.8711C91.1778 22.908 89.5119 21.9514 88.4838 21.587C87.8981 21.3788 86.7267 21.3267 86.1736 21.4764Z" fill="black"/>
<path d="M138.95 21.8505C138.95 21.8634 138.996 22.0978 139.048 22.3776C139.192 23.1259 139.178 24.434 139.016 25.2279C138.853 26.0152 138.736 26.3407 138.156 27.5966C137.695 28.5987 137.499 29.1128 137.422 29.5293C137.375 29.7636 137.382 29.7701 137.597 29.8027C137.714 29.8222 138.398 29.8742 139.113 29.9132L140.415 29.9848L140.622 29.7375C141.358 28.8591 142.074 27.0564 142.074 26.0803C142.074 24.9935 141.241 23.4968 140.141 22.6053C139.601 22.1629 138.95 21.7529 138.95 21.8505Z" fill="black"/>
<path d="M115.309 24.837C114.509 25.0258 113.46 25.8653 112.784 26.8609C112.49 27.2904 112.042 28.2015 112.094 28.2535C112.107 28.273 112.296 28.2469 112.504 28.1949C113.851 27.8566 115.348 27.8305 117.411 28.1103C119.564 28.3966 120.137 28.3185 121.225 27.5897C121.816 27.1928 122.747 26.3468 122.747 26.2101C122.747 26.1711 122.702 26.132 122.642 26.132C122.584 26.132 121.914 25.9303 121.159 25.683C119.571 25.1559 118.959 24.9933 118.074 24.8631C117.385 24.759 115.706 24.7394 115.309 24.837Z" fill="black"/>
<path d="M84.0205 25.7304C82.8362 25.9842 81.9121 26.6415 81.411 27.598C80.923 28.5221 80.5781 29.8497 80.5781 30.7672C80.5781 31.2488 80.6431 31.3139 80.8775 31.0666C81.2809 30.6436 82.0748 30.1425 82.9793 29.7456C84.0726 29.2705 86.4544 28.4896 87.2874 28.3399C87.782 28.2488 88.3936 27.8713 88.8621 27.3703C89.1746 27.0384 89.7862 26.1404 89.7406 26.0883C89.6821 26.0297 88.1268 25.7435 87.5281 25.6783C86.513 25.5678 84.6779 25.5938 84.0205 25.7304Z" fill="black"/>
<path d="M160.631 25.9147C160.19 26.2252 160.165 26.885 160.588 27.2886C160.847 27.537 161.338 27.5293 161.675 27.2731C162.546 26.6134 161.519 25.286 160.631 25.9147Z" fill="black"/>
<path d="M157.82 27.478C155.628 28.7269 153.431 29.5067 150.514 30.0645C149.163 30.3244 147.404 30.5273 145.536 30.6478C144.003 30.7429 139.427 30.6858 137.777 30.5527C133.019 30.1596 127.912 29.3608 123.464 28.3212C122.163 28.0169 122.132 28.0105 121.827 28.2958C121.711 28.3973 120.994 28.7459 120.723 28.8284C120.645 28.8537 120.593 28.8981 120.612 28.9235C120.625 28.9551 120.573 28.9615 120.497 28.9488C120.419 28.9361 120.321 28.9488 120.289 28.9741C120.211 29.0312 119.908 29.7476 119.94 29.7856C119.953 29.7983 120.341 29.9568 120.793 30.1342C125.559 31.998 132.372 33.6654 137.538 34.2232C141.805 34.6861 146.9 34.7558 151.904 34.4134C154.342 34.2486 156.158 34.0584 156.417 33.9507C157.089 33.678 156.87 32.7525 156.145 32.7778C156.017 32.7778 155.305 32.8413 154.555 32.9174C151.271 33.2406 146.764 33.4118 143.822 33.323L142.142 33.266L143.596 33.2216C147.346 33.0948 149.674 32.892 152.518 32.4481C154.089 32.201 156.785 31.6558 157.439 31.4592C158.001 31.288 158.04 30.5653 157.497 30.2928C157.322 30.204 157.244 30.2167 156.449 30.3941C154.917 30.7429 153.14 31.0788 151.781 31.2754C150.146 31.5099 149.958 31.5099 151.096 31.269C154.07 30.6541 156.566 29.7412 158.531 28.5621C159.398 28.0423 159.572 27.6682 159.145 27.2435C158.88 26.9836 158.603 27.0342 157.82 27.478Z" fill="black"/>
<path d="M142.771 27.2185C142.758 27.2445 142.693 27.4462 142.629 27.661C142.498 28.1165 142.022 29.1577 141.75 29.5807C141.639 29.7499 141.555 29.9061 141.555 29.9256C141.555 29.9516 142.095 29.9712 142.758 29.9712C143.845 29.9712 143.963 29.9581 143.963 29.8605C143.963 29.6523 143.689 28.7738 143.474 28.3117C143.234 27.7782 142.823 27.1339 142.771 27.2185Z" fill="black"/>
<path d="M113.442 28.8316C112.602 28.9682 111.777 29.1765 111.477 29.3261C110.93 29.6059 110.189 30.4259 109.759 31.2263L109.551 31.6232L110.305 32.0072L111.067 32.3911L111.88 32.2806C112.329 32.2219 112.902 32.1569 113.149 32.1438C116.598 31.9356 116.892 31.851 118.057 30.6536C118.609 30.081 119.234 29.2741 119.234 29.1244C119.234 29.0984 118.876 29.0593 118.44 29.0397C117.997 29.0137 117.203 28.9356 116.67 28.8641C115.564 28.7144 114.281 28.7014 113.442 28.8316Z" fill="black"/>
<path d="M86.4673 29.3101C85.0812 29.7396 82.8037 30.7287 82.0943 31.2104C81.2354 31.7895 80.7148 32.4207 80.4544 33.1951C80.103 34.2493 80.2852 36.4359 80.8124 37.4705L80.91 37.6462L81.2093 37.0606C81.372 36.7352 81.6909 36.2602 81.9121 35.9933C82.5368 35.2645 83.8449 34.1257 85.5173 32.8372C86.3957 32.1669 86.5259 32.0237 86.8252 31.4575C87.1181 30.8915 87.3133 30.2146 87.3849 29.5183C87.4174 29.1475 87.4109 29.0563 87.3393 29.0628C87.2873 29.0628 86.8968 29.1735 86.4673 29.3101Z" fill="black"/>
<path d="M91.6091 29.6166C91.2447 29.6751 90.9258 29.7792 90.9258 29.8312C90.9258 29.8638 91.0365 29.9874 91.1731 30.0981C91.5766 30.4495 91.993 30.9701 93.0407 32.4408C93.5939 33.2087 94.4333 34.2889 94.9019 34.8421C95.865 35.9614 96.0147 36.0655 97.1079 36.3583C97.5765 36.482 97.8042 36.508 98.5982 36.4949C99.1123 36.4949 99.5547 36.4624 99.5873 36.4299C99.6134 36.4039 99.5287 36.2281 99.3921 36.0524C99.0927 35.662 97.9799 33.9114 97.2056 32.6229C96.0407 30.6968 95.39 30.085 94.147 29.7402C93.7566 29.636 92.0321 29.5515 91.6091 29.6166Z" fill="black"/>
<path d="M159.314 29.6709C159.104 29.8652 159.061 29.9662 159.061 30.2847C159.061 30.6188 159.104 30.7119 159.332 30.914C160.03 31.5355 161.042 30.8285 160.719 29.9584C160.519 29.399 159.785 29.2515 159.314 29.6709Z" fill="black"/>
<path d="M88.387 29.8202C88.387 30.1587 88.0746 31.278 87.8404 31.766L87.6191 32.228L88.1658 32.9373C88.8165 33.7703 90.528 35.5274 90.8664 35.6965C91.3479 35.9438 92.1549 36.1065 92.9423 36.113C93.6581 36.113 94.6017 35.9959 94.6668 35.8983C94.6798 35.8723 94.5236 35.6575 94.3219 35.4297C93.7882 34.8245 92.6689 33.3929 91.9662 32.4102C90.8664 30.8679 90.3133 30.3083 89.5194 29.9309C89.2655 29.8073 88.9076 29.6901 88.7255 29.6641L88.387 29.625V29.8202Z" fill="black"/>
<path d="M76.3471 29.751C75.9762 29.7966 75.3644 29.9137 75.2083 29.9723C75.0717 30.0243 75.1042 30.0699 75.6638 30.6361C75.9892 30.9679 76.6204 31.7227 77.0694 32.315C77.512 32.9072 78.1692 33.6946 78.5271 34.0655L79.1779 34.7423L79.2234 34.2282C79.282 33.5449 79.3861 33.0764 79.5813 32.6403C79.692 32.3996 79.731 32.2109 79.7114 32.0547C79.692 31.9311 79.6398 31.521 79.6009 31.1436C79.5553 30.7662 79.5097 30.4278 79.4968 30.3823C79.4707 30.2716 78.885 29.9853 78.4556 29.8747C78.0846 29.777 76.7701 29.699 76.3471 29.751Z" fill="black"/>
<path d="M162.659 28.7242C162.139 28.9484 161.979 29.717 162.346 30.1573C162.9 30.8139 163.844 30.3095 163.724 29.4287C163.652 28.8923 163.115 28.532 162.659 28.7242Z" fill="black"/>
<path d="M70.6221 29.9473C70.5309 29.9604 70.3097 30.0189 70.1275 30.0709L69.7891 30.1621L70.2772 30.6306C70.5439 30.8909 71.2077 31.6718 71.7478 32.3681C73.3682 34.444 74.7217 35.7716 75.4636 36.0189C76.4072 36.3247 77.4875 36.3507 78.6132 36.0839C78.9386 36.0058 79.2119 35.9342 79.2119 35.9213C79.2119 35.9082 79.0297 35.726 78.815 35.5177C78.0471 34.7889 76.9604 33.5655 76.0949 32.4527C74.3963 30.2597 73.7781 29.8952 71.7608 29.9148C71.2272 29.9148 70.7131 29.9343 70.6221 29.9473Z" fill="black"/>
<path d="M96.6844 29.9462C96.3786 30.0242 96.3786 30.0373 96.6844 30.3822C97.1725 30.9158 97.4913 31.4039 98.3308 32.8615C98.7603 33.6099 99.4566 34.7293 99.8731 35.3409C100.517 36.278 100.7 36.5058 100.992 36.6945C101.754 37.2021 102.88 37.5209 103.882 37.5209C104.129 37.5209 104.331 37.5079 104.331 37.5014C104.331 37.4884 104.025 36.8442 103.654 36.0763C103.283 35.3084 102.841 34.3583 102.671 33.9678C101.461 31.1762 100.791 30.4668 99.0467 30.0958C98.4609 29.9722 96.9513 29.8746 96.6844 29.9462Z" fill="black"/>
<path d="M119.033 30.6975C118.716 31.0544 118.651 31.1564 118.721 31.2073C118.793 31.2583 118.786 31.2583 118.689 31.2328C118.598 31.201 118.469 31.2839 118.203 31.526C118.009 31.7108 117.854 31.8892 117.86 31.9275C117.872 31.9593 117.86 31.972 117.841 31.9466C117.814 31.9211 117.646 31.972 117.471 32.0613C116.934 32.329 117.004 32.4055 118.359 33.081C119.733 33.7629 121.042 34.2791 123.019 34.9291C126.305 35.9997 129.779 36.8219 138.612 38.619C148.192 40.5691 153.351 42.2134 157.078 44.514C158.147 45.1705 158.277 45.2023 158.614 44.8709C159.009 44.4822 158.885 44.1253 158.224 43.7046C156.403 42.5385 154.776 41.7482 152.417 40.8814C149.456 39.7917 145.742 38.8102 139.746 37.5357C139.034 37.3827 138.496 37.2553 138.547 37.2553C138.73 37.2425 142.638 37.9499 145.003 38.4215C147.33 38.8867 149.735 39.4412 150.862 39.7726C153.111 40.4354 154.492 40.9197 156.015 41.5825C156.779 41.9139 157.032 41.9648 157.252 41.8055C157.558 41.6016 157.616 41.0217 157.357 40.805C157.194 40.6712 155.762 40.0466 154.783 39.6833C152.625 38.8867 150.401 38.2622 147.136 37.5293C146.461 37.3827 145.968 37.2553 146.053 37.2553C146.131 37.2489 147.064 37.3954 148.127 37.5675C151.082 38.0582 153.299 38.5044 154.984 38.9377C155.457 39.0588 155.91 39.1607 156.008 39.1607C156.222 39.1607 156.546 38.8676 156.591 38.619C156.643 38.3642 156.436 38.0328 156.151 37.918C155.814 37.7779 153.746 37.2808 152.482 37.0322C149.411 36.4332 145.548 35.866 142.274 35.5282C134.05 34.687 126.077 32.9089 120.374 30.6274L119.442 30.2578L119.033 30.6975Z" fill="black"/>
<path d="M101.922 30.8062C101.922 30.8387 101.967 30.9038 102.026 30.9494C102.182 31.0795 102.592 31.7042 102.813 32.1468C102.924 32.3614 103.282 33.1814 103.62 33.9688C103.952 34.7563 104.499 35.9472 104.824 36.6109C105.416 37.8017 105.436 37.8343 105.839 38.1337C106.406 38.5632 107.304 38.9797 108.078 39.1683C108.429 39.253 108.729 39.318 108.735 39.3115C108.742 39.305 108.664 39.0382 108.56 38.7193C108.462 38.3939 108.208 37.5024 108.006 36.7345C107.408 34.4374 107.206 33.8061 106.867 33.1098C106.484 32.3354 105.976 31.7694 105.39 31.4765C104.954 31.2552 104.108 30.9754 103.464 30.8387C102.976 30.7411 101.922 30.7151 101.922 30.8062Z" fill="black"/>
<path d="M107.389 32.2849C107.389 32.3044 107.454 32.4086 107.525 32.5191C107.786 32.8836 108.111 33.7751 108.436 35.0115C108.892 36.7295 109.66 39.4626 109.764 39.6969C110.011 40.2696 111.072 41.096 112.152 41.5646C112.478 41.7012 112.751 41.8119 112.757 41.7988C112.77 41.7858 112.738 41.4409 112.692 41.031C112.594 40.1849 112.445 38.7403 112.296 37.2566C112.035 34.5885 111.437 33.6449 109.439 32.7664C108.586 32.3955 107.389 32.1157 107.389 32.2849Z" fill="black"/>
<path d="M158.406 32.6823C157.983 32.979 157.862 33.4786 158.104 33.908C158.258 34.1812 158.475 34.2983 158.837 34.2983C158.983 34.2983 159.182 34.2593 159.277 34.2202C159.51 34.1031 159.7 33.7363 159.7 33.3928C159.7 32.8307 158.855 32.3623 158.406 32.6823Z" fill="black"/>
<path d="M115.751 32.7388C115.536 32.7909 114.807 32.8754 114.124 32.9275C113.447 32.9795 112.66 33.0382 112.387 33.0642L111.885 33.1097L112.029 33.2855C112.145 33.4351 112.256 33.4806 112.653 33.5457C113.421 33.6694 114.248 34.0078 114.918 34.4633C115.067 34.5674 115.217 34.6521 115.243 34.6521C115.327 34.6521 115.894 33.6823 116.083 33.2204C116.239 32.8299 116.278 32.6282 116.194 32.6412C116.161 32.6477 115.965 32.6933 115.751 32.7388Z" fill="black"/>
<path d="M161.742 31.6351C161.099 31.8963 160.868 32.9608 161.34 33.4729C162.103 34.2964 163.358 33.4629 163.017 32.3481C162.857 31.7858 162.224 31.4343 161.742 31.6351Z" fill="black"/>
<path d="M85.4123 33.9007C84.215 34.9029 82.7834 36.3085 82.38 36.8747C81.7162 37.8182 81.4493 38.6187 81.5078 39.5037C81.5665 40.3236 82.0024 41.4624 82.5946 42.3344C82.8679 42.7314 83.4276 43.3756 83.4992 43.3756C83.5317 43.3756 83.5707 43.1219 83.5903 42.8095C83.6098 42.4321 83.6944 42.0155 83.8311 41.5991C84.1565 40.5774 85.4319 38.0981 86.4862 36.4451C86.766 36.0092 86.8765 35.2217 86.766 34.4929C86.6619 33.7771 86.4991 33.0938 86.4341 33.0938C86.4015 33.0938 85.946 33.4582 85.4123 33.9007Z" fill="black"/>
<path d="M87.6976 33.7651C87.8408 34.1815 87.8797 35.392 87.7627 35.9517L87.7301 36.1078L88.2442 36.0687C88.5306 36.0493 88.9796 35.9777 89.2398 35.9191L89.7214 35.8085L89.3895 35.5091C89.0641 35.2163 88.3939 34.507 87.9058 33.9408C87.7692 33.7781 87.6715 33.7 87.6976 33.7651Z" fill="black"/>
<path d="M164.012 33.4896C163.462 34.0715 163.781 35.0603 164.514 35.0603C165.272 35.0603 165.631 33.8483 164.993 33.4337C164.697 33.2424 164.22 33.2662 164.012 33.4896Z" fill="black"/>
<path d="M112.693 34.7785C112.986 35.3512 113.135 36.3208 113.279 38.5724C113.338 39.464 113.435 40.6678 113.507 41.2535C113.604 42.1645 113.649 42.3793 113.806 42.6591C114.06 43.1212 114.847 43.9476 115.381 44.3056C115.875 44.6374 116.806 45.106 116.865 45.0473C116.884 45.0279 116.851 44.774 116.793 44.4747C116.591 43.4074 116.54 42.0539 116.631 40.4205C116.702 39.093 116.702 38.8393 116.618 38.3122C116.5 37.6288 116.253 37.0562 115.869 36.5747C115.29 35.8457 113.722 34.8567 112.752 34.6159L112.582 34.5703L112.693 34.7785Z" fill="black"/>
<path d="M162.361 41.9382C161.922 42.2486 161.895 42.9084 162.318 43.312C162.577 43.5604 163.068 43.5526 163.405 43.2965C164.276 42.6367 163.249 41.3094 162.361 41.9382Z" fill="black"/>
<path d="M160.588 35.5309C159.787 36.3656 160.322 37.691 161.405 37.4202C162.059 37.2623 162.51 36.7593 162.318 36.0824C162.059 35.1687 161.23 34.8653 160.588 35.5309Z" fill="black"/>
<path d="M86.4875 38.049C84.4441 41.8559 84.0537 43.4113 84.7434 44.9471C85.1339 45.832 86.4159 47.0229 87.5417 47.563C88.1729 47.8689 88.2119 47.8624 88.0623 47.5175C87.9907 47.3613 87.8866 47.0294 87.8215 46.7822C87.5872 45.8255 87.7565 43.1835 88.1989 40.8733C88.3551 40.0729 88.3421 39.7345 88.1339 39.0773C87.9842 38.5957 87.5092 37.7302 87.1968 37.3658L86.9886 37.125L86.4875 38.049Z" fill="black"/>
<path d="M117.457 38.147C117.523 38.544 117.521 39.4095 117.45 41.1275C117.405 42.2858 117.412 42.6242 117.509 43.34C117.698 44.7782 117.899 45.5656 118.173 45.9625C118.582 46.5677 119.487 47.2705 120.32 47.635C120.73 47.8236 121.778 48.1425 121.817 48.097C121.836 48.084 121.791 47.9604 121.719 47.8172C121.224 46.8475 120.899 45.2467 120.77 43.1058C120.619 40.7696 120.45 40.2164 119.591 39.3835C119.013 38.8173 118.413 38.3618 117.848 38.0625L117.398 37.8281L117.457 38.147Z" fill="black"/>
<path d="M161.294 38.9396C161.006 39.228 160.955 39.3474 160.955 39.7255C160.955 40.382 161.314 40.79 161.901 40.79C162.537 40.79 162.856 40.4815 162.925 39.815C162.966 39.3275 162.945 39.2778 162.616 38.9494C162.15 38.4819 161.761 38.4719 161.294 38.9396Z" fill="black"/>
<path d="M158.256 38.142C157.996 38.3718 157.953 38.4636 157.953 38.7546C157.953 39.3901 158.586 39.8037 159.157 39.5356C159.97 39.1681 159.78 38.0424 158.88 37.9122C158.602 37.874 158.524 37.9046 158.256 38.142Z" fill="black"/>
<path d="M104.455 39.1314C104.097 39.5088 103.42 40.4524 103.42 40.5694C103.42 40.6671 107.344 40.9664 108.58 40.9664H109.413L109.199 40.6801C109.01 40.4263 108.945 40.3873 108.658 40.3483C107.415 40.1791 106.16 39.6845 105.288 39.0207L104.858 38.6953L104.455 39.1314Z" fill="black"/>
<path d="M136.36 39.1067C136.138 39.5231 135.897 40.0958 135.891 40.2065C135.891 40.291 135.924 40.3171 136.008 40.291C136.066 40.2715 136.736 40.226 137.485 40.1869C138.832 40.1218 139.847 39.9917 140.296 39.8356C140.518 39.7575 140.485 39.7444 139.366 39.5102C138.722 39.3801 137.81 39.1848 137.336 39.0872L136.47 38.8984L136.36 39.1067Z" fill="black"/>
<path d="M163.993 37.4199C163.73 37.6832 163.715 37.7311 163.746 38.1061C163.802 38.6486 164.034 38.8959 164.496 38.8959C164.999 38.8959 165.254 38.6486 165.31 38.114C165.342 37.7231 165.327 37.6832 165.063 37.4199C164.863 37.2205 164.712 37.1406 164.528 37.1406C164.345 37.1406 164.193 37.2205 163.993 37.4199Z" fill="black"/>
<path d="M141.599 40.2885C141.131 40.4836 140.246 40.744 139.712 40.8416C139.49 40.8806 138.489 40.9392 137.486 40.9652C135.879 41.0042 135.612 41.0302 135.229 41.1539C134.727 41.3166 133.972 41.7981 133.412 42.3187C132.814 42.8718 132.814 42.8654 133.439 43.0997C133.732 43.2103 134.324 43.4315 134.753 43.6008C135.599 43.9261 136.25 44.0953 137.142 44.219C138.053 44.3426 139.926 44.1278 140.519 43.8285C141.04 43.5617 141.834 42.6962 142.256 41.9413C142.445 41.5964 142.855 40.5162 142.855 40.3535C142.855 40.2754 142.308 40.1128 142.087 40.1257C142.028 40.1257 141.807 40.2038 141.599 40.2885Z" fill="black"/>
<path d="M88.9725 40.7544C88.9725 40.7869 88.914 41.2164 88.8424 41.7176C88.5885 43.5526 88.556 45.8628 88.7838 46.7999C88.9855 47.6589 89.5517 48.4983 90.261 48.9864C91.1916 49.6307 92.877 50.0797 93.9638 49.9821C94.2241 49.956 94.4388 49.93 94.4388 49.9235C94.4388 49.9235 94.2241 49.6958 93.9638 49.4225C93.71 49.1556 93.3585 48.7 93.1828 48.4138C92.6622 47.5353 91.7642 44.9974 91.4714 43.5721C91.4128 43.2663 91.2892 42.8823 91.2046 42.7132C91.0094 42.3163 90.2871 41.5484 89.8185 41.236C89.2394 40.8456 88.9725 40.6959 88.9725 40.7544Z" fill="black"/>
<path d="M121.419 41.3085C121.471 41.5297 121.549 42.3237 121.607 43.0785C121.666 43.8268 121.738 44.6468 121.777 44.9006C121.979 46.2737 122.726 48.1934 123.253 48.688C124.223 49.586 126.117 50.1131 127.647 49.9049L127.939 49.8658L127.523 49.4753C126.84 48.8312 126.137 47.79 125.714 46.7813C125.597 46.495 125.388 45.8702 125.259 45.3887C124.574 42.9223 124.392 42.6099 123.175 41.79C122.61 41.4126 121.842 41.0221 121.503 40.944L121.334 40.8984L121.419 41.3085Z" fill="black"/>
<path d="M101.962 41.5102C101.331 41.7575 100.478 42.2977 100.036 42.7532L99.7559 43.0395L99.9251 43.1047C100.016 43.1436 100.355 43.2803 100.667 43.4105C101.519 43.7619 104.201 44.7184 104.773 44.8747C105.404 45.0439 106.511 45.1089 107.018 45.0048C107.864 44.8226 108.886 44.0808 109.719 43.0265C110.057 42.6035 110.552 41.7641 110.493 41.7055C110.48 41.686 110.201 41.7185 109.888 41.7835C109.205 41.9072 107.825 41.8812 106.608 41.7185C105.404 41.5558 103.023 41.2891 102.769 41.2891C102.645 41.2955 102.281 41.3932 101.962 41.5102Z" fill="black"/>
<path d="M159.123 41.1925C158.576 41.4973 158.507 42.2132 159.001 42.5942C159.374 42.8912 159.721 42.8759 160.093 42.5485C160.345 42.3275 160.389 42.2361 160.389 41.939C160.389 41.2916 159.695 40.8802 159.123 41.1925Z" fill="black"/>
<path d="M125.362 43.1633C125.46 43.4041 125.786 44.3607 126.033 45.1611C126.573 46.8856 127.125 47.8292 128.199 48.8444C128.942 49.5472 129.195 49.7164 129.709 49.8595C130.308 50.0222 131.519 50.0027 132.195 49.827C133.047 49.5992 134.31 49.0006 134.33 48.8118C134.33 48.7858 134.083 48.6752 133.783 48.5711C133.067 48.3303 132.489 48.0374 131.733 47.5364C131.005 47.0482 130.405 46.4626 129.567 45.4214C128.889 44.5755 128.232 43.9052 127.92 43.749C127.314 43.4366 125.277 42.9681 125.362 43.1633Z" fill="black"/>
<path d="M92.123 43.2935C92.149 43.3651 92.2272 43.6384 92.2987 43.9053C92.5916 44.9659 93.418 46.9507 93.9646 47.8748C94.3682 48.5646 95.123 49.339 95.6436 49.6058C96.2748 49.9182 96.6653 50.0093 97.4396 50.0093C98.24 50.0093 98.8518 49.9052 99.6587 49.6318C100.179 49.4561 100.98 49.0462 100.921 48.9811C100.902 48.968 100.661 48.877 100.375 48.7794C99.1836 48.3629 97.4071 46.8597 95.6631 44.7902C94.7846 43.7361 94.0297 43.3586 92.5265 43.2024C92.1036 43.1634 92.084 43.1634 92.123 43.2935Z" fill="black"/>
<path d="M130.946 43.4198C130.381 43.5174 129.892 43.6411 129.561 43.7647L129.189 43.9014L129.756 44.5326C131.545 46.5043 132.196 47.025 133.465 47.5326C134.356 47.884 135.242 48.0857 135.71 48.0337C136.635 47.9425 137.831 47.2918 138.632 46.4458C139.075 45.9837 139.543 45.359 139.648 45.0988C139.68 45.0012 139.653 44.9947 139.465 45.0337C139.055 45.1313 138.144 45.1638 137.428 45.1183C136.237 45.0337 135.417 44.7994 133.875 44.0901C132.476 43.4458 131.747 43.2832 130.946 43.4198Z" fill="black"/>
<path d="M97.2052 43.5375C96.9904 43.5831 96.5999 43.7001 96.3461 43.7978L95.8711 43.9735L96.1509 44.3054C96.8278 45.1188 98.4025 46.518 99.5218 47.3053C100.068 47.6828 100.791 48.0276 101.337 48.1643C101.852 48.2945 102.769 48.262 103.257 48.0927C103.765 47.917 104.578 47.4941 105.047 47.1622C105.489 46.8498 106.283 46.1015 106.283 45.9909C106.283 45.9583 106.01 45.9127 105.684 45.8933C104.962 45.8542 104.383 45.7045 103.251 45.2686C102.392 44.9431 99.9643 43.9149 99.3201 43.6091C99.0012 43.4594 98.884 43.4399 98.2789 43.4464C97.9015 43.4464 97.4198 43.4919 97.2052 43.5375Z" fill="black"/>
<path d="M160.094 45.1345C159.351 45.8149 160.145 46.9175 161.075 46.4795C161.571 46.2372 161.682 45.4785 161.263 45.0954C160.904 44.7669 160.478 44.7825 160.094 45.1345Z" fill="black"/>
</g>
</g>
<defs>
<clipPath id="clip0_10264_27918">
<rect width="253.55" height="108.7" fill="white" transform="translate(0.279297 0.632812)"/>
</clipPath>
<clipPath id="clip1_10264_27918">
<rect width="253.55" height="108.7" fill="white" transform="translate(0.279297 0.632812)"/>
</clipPath>
</defs>
</svg>
