<svg width="255" height="144" viewBox="0 0 255 144" fill="none" xmlns="http://www.w3.org/2000/svg">
<g clip-path="url(#clip0_10264_27678)">
<g clip-path="url(#clip1_10264_27678)">
<path d="M90.6242 93.0005C90.3642 92.9518 90.1043 92.9274 89.8444 92.8787C88.8518 92.6837 87.8357 92.5375 86.8431 92.2938C85.3307 91.9282 83.9128 91.2946 82.5658 90.539C81.6206 90.0028 80.699 89.4423 79.8719 88.7111C79.2338 88.1505 78.5486 87.6388 77.9577 87.0294C76.6108 85.6403 75.4529 84.0805 74.5313 82.3501C73.6096 80.6197 72.9243 78.7918 72.4753 76.8907C72.3098 76.1353 72.1918 75.3797 72.1209 74.6242C72.0499 73.43 71.979 72.2358 72.0027 71.0415C72.0027 70.2129 72.2154 69.3598 72.3335 68.5312C72.4989 67.337 72.8534 66.2159 73.2551 65.0948C73.8932 63.3157 74.7675 61.634 75.8546 60.0985C76.5871 59.075 77.3669 58.1489 78.265 57.2715C79.3047 56.2234 80.4627 55.346 81.7151 54.5662C83.133 53.6888 84.6218 52.9819 86.2287 52.5189C87.2212 52.2265 88.2374 52.0071 89.2772 51.8365C90.2461 51.6903 91.2386 51.6172 92.2074 51.6172C93.0819 51.6172 93.9562 51.7146 94.8305 51.8365C97.7844 52.2021 100.502 53.2257 102.96 54.9074C107.804 58.1732 110.758 62.7551 111.869 68.6044C112.176 70.2372 112.247 71.8946 112.128 73.5274C111.797 77.5732 109.293 80.5953 105.394 81.2046C103.385 81.5214 101.424 81.3264 99.6041 80.3759C97.5954 79.3524 96.343 77.6707 95.8231 75.404C95.6103 74.4779 95.4685 73.5031 95.5394 72.5526C95.6813 70.6272 96.1066 68.7993 97.3118 67.2395C98.1389 66.1671 99.2496 65.7041 100.573 65.6554C101.896 65.5823 103.054 65.9966 104.023 66.874C104.803 67.5807 105.347 68.4581 105.535 69.5305C105.583 69.823 105.559 70.1398 105.583 70.4566H97.4536V74.5755H111.467C111.467 74.1611 111.491 73.7225 111.467 73.3081C111.419 72.6013 111.349 71.8946 111.254 71.1877C110.923 68.9943 110.191 66.9227 108.891 65.1192C107.19 62.7795 104.921 61.3415 102.109 60.9759C97.8789 60.4154 93.389 62.6576 91.3803 66.7033C90.9077 67.6294 90.6005 68.6287 90.4114 69.6523C90.2697 70.3592 90.1515 71.0659 90.1279 71.7727C89.8915 77.0614 91.9475 81.1559 96.3193 83.983C97.8789 84.9823 99.5805 85.6403 101.376 86.0302C102.558 86.2739 103.787 86.3227 104.992 86.1521C105.725 86.0546 106.457 85.884 107.19 85.7621C107.237 85.7621 107.284 85.7621 107.426 85.7621C106.953 86.2739 106.528 86.7614 106.079 87.2001C103.291 89.9297 100.029 91.7332 96.2721 92.5375C95.4214 92.7325 94.5234 92.8056 93.6489 92.9274C93.6018 92.9274 93.5545 92.9518 93.5072 92.9762C92.5383 92.9762 91.5694 92.9762 90.6242 92.9762V93.0005ZM81.6679 70.2129C80.6044 70.0911 79.3756 71.1634 79.3756 72.5282C79.3756 73.8199 80.3918 74.8192 81.5025 74.8679C83.0385 74.941 83.9128 73.625 83.9128 72.6988C83.9128 71.1877 83.0148 70.1885 81.6442 70.1885L81.6679 70.2129Z" fill="#212121"/>
<path d="M169.459 68.7535H164.402C164.355 68.0223 164.497 67.3399 164.638 66.6575C165.324 63.6842 167.262 62.0268 170.05 61.2957C171.562 60.9058 173.098 60.8813 174.635 60.9545C175.887 61.0033 177.116 61.0764 178.297 61.5395C179.999 62.1975 181.346 63.2698 182.15 64.9758C182.528 65.7801 182.646 66.6575 182.741 67.5349C182.834 68.4123 182.906 69.2654 182.906 70.1426C182.952 73.1892 182.952 76.2357 182.977 79.2821C182.977 79.8914 182.929 80.5007 182.977 81.0856C183.071 82.1093 183.189 83.1573 183.638 84.1077C183.638 84.1077 183.638 84.1566 183.638 84.2297H183.355C181.747 84.2297 180.164 84.2297 178.557 84.2297C178.321 84.2297 178.203 84.1566 178.132 83.9372C177.966 83.4254 177.801 82.9135 177.636 82.3774C177.588 82.4018 177.542 82.4505 177.47 82.4749C175.84 83.8396 173.997 84.6196 171.893 84.8146C171.374 84.8633 170.83 84.912 170.31 84.8633C168.041 84.6927 166.01 83.9616 164.473 82.1337C163.599 81.0856 163.173 79.8671 163.032 78.5023C162.725 75.7238 164.426 73.3354 166.529 72.2142C167.923 71.4831 169.389 71.0932 170.924 70.8982C172.271 70.7276 173.643 70.6545 174.942 70.2402C175.462 70.0695 175.982 69.8258 176.431 69.509C176.927 69.1922 177.139 68.6561 177.164 68.0467C177.234 66.8037 176.596 66.0239 175.58 65.5851C174.115 64.9271 172.602 64.854 171.137 65.6339C170.287 66.0726 169.767 66.8281 169.554 67.803C169.483 68.0955 169.459 68.4123 169.412 68.7292L169.459 68.7535ZM177.494 72.8724C177.069 73.0916 176.691 73.3841 176.265 73.5304C175.58 73.7741 174.895 73.9203 174.186 74.091C173.146 74.3591 172.106 74.554 171.09 74.8708C170.027 75.212 169.294 75.9432 168.94 77.0643C168.68 77.9417 168.845 78.6972 169.389 79.3796C169.861 79.9645 170.523 80.2813 171.279 80.4276C172.886 80.7201 174.398 80.4276 175.792 79.5746C176.619 79.0628 177.21 78.3073 177.305 77.2836C177.4 76.4794 177.447 75.6751 177.47 74.8708C177.494 74.2128 177.47 73.5304 177.47 72.8967L177.494 72.8724Z" fill="#212121"/>
<path d="M139.139 74.6241H125.267V70.4808H133.255C133.349 68.7748 132.616 67.5318 131.364 66.5569C129.237 64.924 125.149 65.2896 123.896 69.116C123.66 69.8472 123.495 70.6026 123.448 71.3582C123.4 71.9919 123.353 72.6255 123.4 73.2348C123.495 74.7215 123.684 76.2082 124.44 77.5242C125.267 78.9622 126.543 79.7421 128.103 80.0833C130.585 80.6195 132.759 79.2303 133.42 76.8906C133.42 76.8175 133.467 76.7688 133.49 76.6956H139.162C139.092 77.5242 138.807 78.3042 138.453 79.0353C137.863 80.3027 137.106 81.4481 136.09 82.3743C134.743 83.6173 133.137 84.3484 131.387 84.7383C130.678 84.8846 129.946 85.0064 129.237 85.0307C127.535 85.0796 125.905 84.6895 124.369 83.9341C121.014 82.3011 118.958 79.5958 118.107 75.8914C117.846 74.7215 117.705 73.5273 117.776 72.3087C117.966 69.0429 119.028 66.1669 121.274 63.8272C122.809 62.2431 124.7 61.3413 126.851 61.0976C127.535 61.0245 128.221 60.9514 128.907 61.0002C132.521 61.2683 135.334 62.8768 137.154 66.1913C137.957 67.6293 138.548 69.1647 138.879 70.7977C139.115 71.9432 139.233 73.1129 139.185 74.3071C139.185 74.429 139.139 74.5509 139.139 74.6971V74.6241Z" fill="#212121"/>
<path d="M160.004 68.819C158.42 68.819 156.908 68.819 155.419 68.819C155.277 68.819 155.207 68.7703 155.184 68.5998C155.112 66.65 153.86 65.4801 152.465 65.1633C151.142 64.8708 149.842 64.8952 148.613 65.5288C147.857 65.9189 147.314 66.5282 147.219 67.3812C147.125 68.0879 147.408 68.7216 147.999 69.1359C148.518 69.5259 149.134 69.6964 149.748 69.8427C150.811 70.0621 151.851 70.2326 152.915 70.4276C154.238 70.6714 155.562 70.915 156.837 71.4269C159.649 72.5236 160.761 74.7901 160.666 77.5199C160.524 81.0293 158.492 83.7346 154.663 84.6364C154.002 84.7826 153.293 84.8801 152.607 84.9288C151.898 84.9777 151.19 85.0264 150.504 84.9777C148.377 84.8314 146.369 84.2708 144.644 82.906C143.061 81.6386 142.186 79.9083 141.784 77.9342C141.713 77.6173 141.713 77.2761 141.666 76.9593C141.666 76.9106 141.666 76.8617 141.666 76.813C141.761 76.813 141.831 76.813 141.926 76.813C143.414 76.813 144.904 76.813 146.369 76.813C146.582 76.813 146.652 76.8617 146.7 77.0811C146.842 77.6417 147.007 78.2266 147.243 78.7628C147.597 79.5915 148.235 80.1764 149.063 80.4932C150.646 81.1025 152.229 81.0537 153.789 80.3713C154.829 79.9083 155.443 79.104 155.395 77.8854C155.395 77.0324 155.018 76.35 154.238 76.0819C153.458 75.8138 152.63 75.5944 151.804 75.4483C150.126 75.1314 148.425 74.839 146.817 74.254C146.179 74.0103 145.542 73.7422 144.927 73.401C143.627 72.6942 142.8 71.5731 142.375 70.1352C142.21 69.5746 142.092 68.9897 142.092 68.4048C142.115 65.7969 143.202 63.7497 145.423 62.4093C146.392 61.8244 147.408 61.4101 148.52 61.2638C149.464 61.1176 150.409 61.0444 151.355 61.0931C153.293 61.142 155.136 61.6781 156.814 62.7261C158.468 63.774 159.389 65.3339 159.792 67.2593C159.909 67.7955 159.909 68.3317 159.957 68.9166L160.004 68.819Z" fill="#212121"/>
</g>
</g>
<defs>
<clipPath id="clip0_10264_27678">
<rect width="253.55" height="143.3" fill="white" transform="translate(0.640625 0.109375)"/>
</clipPath>
<clipPath id="clip1_10264_27678">
<rect width="253.55" height="143.3" fill="white" transform="translate(0.640625 0.109375)"/>
</clipPath>
</defs>
</svg>
