<svg width="254" height="144" viewBox="0 0 254 144" fill="none" xmlns="http://www.w3.org/2000/svg">
<g clip-path="url(#clip0_10264_27686)">
<g clip-path="url(#clip1_10264_27686)">
<mask id="mask0_10264_27686" style="mask-type:luminance" maskUnits="userSpaceOnUse" x="58" y="44" width="139" height="62">
<path d="M196.883 44.1953H58.8242V105.929H196.883V44.1953Z" fill="white"/>
</mask>
<g mask="url(#mask0_10264_27686)">
<path d="M104.118 53.2141V44.8925H108.205L108.141 45.7183H105.177V48.7885H107.908V49.6144H105.177V53.1929H104.118V53.2141ZM112.927 49.3815C112.927 49.6356 112.927 49.8473 112.906 50.0167C112.884 50.2073 112.863 50.3555 112.863 50.4826H109.92C109.962 51.1601 110.089 51.6683 110.365 51.986C110.619 52.3036 111 52.4729 111.487 52.4729C111.656 52.4729 111.805 52.4518 111.952 52.4094C112.08 52.3671 112.207 52.3248 112.313 52.2613C112.419 52.1977 112.504 52.1553 112.566 52.0918C112.63 52.0283 112.694 51.986 112.715 51.9648L113.075 52.6424C113.033 52.6847 112.969 52.7482 112.884 52.8118C112.8 52.8965 112.694 52.96 112.566 53.0448C112.44 53.1294 112.27 53.1929 112.058 53.2352C111.867 53.2989 111.614 53.32 111.338 53.32C110.979 53.32 110.639 53.2564 110.365 53.1294C110.068 53.0023 109.814 52.8118 109.623 52.5789C109.412 52.3248 109.263 52.0072 109.158 51.6048C109.052 51.2237 108.988 50.7367 108.988 50.2073C108.988 49.6991 109.052 49.2544 109.158 48.8733C109.285 48.4921 109.433 48.1957 109.623 47.9416C109.814 47.7086 110.047 47.5181 110.322 47.4122C110.597 47.2852 110.873 47.2429 111.17 47.2429C111.72 47.2429 112.164 47.4122 112.461 47.7722C112.757 48.1745 112.927 48.6827 112.927 49.3815ZM111.085 48.0898C110.745 48.0898 110.47 48.238 110.259 48.5133C110.047 48.8098 109.92 49.2121 109.899 49.7626H112.016C112.016 49.7203 112.037 49.6568 112.037 49.5932C112.037 49.5085 112.037 49.445 112.037 49.3392C112.037 48.9368 111.952 48.6192 111.805 48.4074C111.635 48.1957 111.402 48.0898 111.085 48.0898ZM113.964 50.4191C113.964 49.8261 114.049 49.3392 114.197 48.958C114.346 48.5557 114.557 48.238 114.79 48.0051C115.022 47.7722 115.298 47.6028 115.616 47.497C115.912 47.391 116.23 47.3487 116.526 47.3487C116.717 47.3487 116.866 47.3699 117.013 47.391C117.14 47.4122 117.268 47.4545 117.352 47.497V44.723L118.326 44.6172V53.2564H117.437V52.6424H117.416C117.395 52.6847 117.352 52.7482 117.289 52.833C117.225 52.9176 117.14 53.0023 117.013 53.0871C116.908 53.1717 116.76 53.2352 116.59 53.2989C116.42 53.3623 116.23 53.3835 115.997 53.3835C115.721 53.3835 115.468 53.32 115.213 53.2141C114.96 53.1082 114.748 52.9388 114.578 52.7059C114.387 52.4729 114.24 52.1553 114.134 51.7954C114.006 51.393 113.964 50.9484 113.964 50.4191ZM116.252 52.4942C116.399 52.4942 116.547 52.4729 116.653 52.4306C116.781 52.3883 116.887 52.3459 116.971 52.2824C117.055 52.2188 117.14 52.1553 117.204 52.0918C117.268 52.0283 117.31 51.9647 117.352 51.9224V48.3439C117.268 48.2804 117.161 48.238 117.034 48.1957C116.908 48.1533 116.781 48.1322 116.59 48.1322C116.357 48.1322 116.145 48.1745 115.955 48.238C115.764 48.3228 115.595 48.4498 115.447 48.6192C115.298 48.7885 115.192 49.0215 115.107 49.2967C115.022 49.572 114.981 49.932 114.981 50.3343C114.981 50.7367 115.022 51.0754 115.086 51.3507C115.15 51.626 115.256 51.8377 115.362 52.0072C115.489 52.1765 115.616 52.2824 115.764 52.3671C115.912 52.4729 116.082 52.4942 116.252 52.4942ZM123.514 49.3815C123.514 49.6356 123.514 49.8473 123.493 50.0167C123.471 50.2073 123.45 50.3555 123.45 50.4826H120.507C120.55 51.1601 120.677 51.6683 120.952 51.986C121.206 52.3036 121.587 52.4729 122.074 52.4729C122.243 52.4729 122.392 52.4518 122.54 52.4094C122.668 52.3671 122.794 52.3248 122.9 52.2613C123.006 52.1977 123.091 52.1553 123.154 52.0918C123.218 52.0283 123.282 51.986 123.303 51.9648L123.662 52.6424C123.62 52.6847 123.556 52.7482 123.471 52.8118C123.387 52.8965 123.282 52.96 123.154 53.0448C123.027 53.1294 122.857 53.1929 122.645 53.2352C122.455 53.2989 122.201 53.32 121.926 53.32C121.566 53.32 121.227 53.2564 120.952 53.1294C120.656 53.0023 120.401 52.8118 120.21 52.5789C119.999 52.3248 119.851 52.0072 119.745 51.6048C119.639 51.2237 119.575 50.7367 119.575 50.2073C119.575 49.6991 119.639 49.2544 119.745 48.8733C119.872 48.4921 120.021 48.1957 120.21 47.9416C120.401 47.7086 120.635 47.5181 120.909 47.4122C121.185 47.2852 121.46 47.2429 121.757 47.2429C122.307 47.2429 122.751 47.4122 123.048 47.7722C123.365 48.1745 123.514 48.6827 123.514 49.3815ZM121.693 48.0898C121.355 48.0898 121.079 48.238 120.867 48.5133C120.656 48.8098 120.529 49.2121 120.507 49.7626H122.625C122.625 49.7203 122.645 49.6568 122.645 49.5932C122.645 49.5085 122.645 49.445 122.645 49.3392C122.645 48.9368 122.562 48.6192 122.413 48.4074C122.222 48.1957 121.99 48.0898 121.693 48.0898ZM127.368 48.3016C127.347 48.2804 127.283 48.2592 127.219 48.238C127.134 48.2168 127.029 48.1957 126.902 48.1957C126.605 48.1957 126.352 48.2804 126.182 48.4498C126.012 48.6192 125.885 48.7885 125.823 48.9791V53.2141H124.848V47.4334H125.738V48.2168H125.759C125.801 48.111 125.844 47.9839 125.906 47.8781C125.97 47.7722 126.055 47.6663 126.14 47.5816C126.246 47.497 126.352 47.4334 126.479 47.391C126.605 47.3487 126.775 47.3275 126.945 47.3275C127.072 47.3275 127.198 47.3487 127.283 47.3699C127.368 47.391 127.431 47.4122 127.474 47.4334L127.368 48.3016ZM127.939 51.7531C127.939 51.4142 128.003 51.1389 128.13 50.906C128.257 50.6732 128.426 50.5037 128.638 50.3555C128.85 50.2073 129.104 50.1226 129.401 50.059C129.698 49.9955 130.015 49.9744 130.332 49.9744H130.629V49.4238C130.629 48.9368 130.544 48.598 130.374 48.4074C130.206 48.2168 129.951 48.1322 129.655 48.1322C129.358 48.1322 129.125 48.1957 128.935 48.3228C128.744 48.4498 128.596 48.5557 128.469 48.6615L128.067 48.0051C128.13 47.9416 128.215 47.8781 128.321 47.7934C128.426 47.7086 128.553 47.6451 128.681 47.5605C128.829 47.497 128.999 47.4334 129.167 47.3699C129.358 47.3275 129.57 47.3064 129.803 47.3064C130.395 47.3064 130.841 47.4757 131.158 47.7934C131.455 48.1322 131.624 48.6615 131.624 49.3815V52.0283C131.624 52.2824 131.624 52.5154 131.645 52.7482C131.666 52.9811 131.687 53.1506 131.687 53.2141H130.756L130.714 52.5789H130.692C130.65 52.6424 130.608 52.727 130.544 52.833C130.48 52.9176 130.395 53.0023 130.312 53.0871C130.206 53.1717 130.1 53.2352 129.951 53.2776C129.824 53.3412 129.655 53.3624 129.464 53.3624C129.252 53.3624 129.04 53.32 128.85 53.2352C128.659 53.1506 128.49 53.0447 128.364 52.8965C128.215 52.7482 128.109 52.5789 128.045 52.3883C127.961 52.1977 127.939 51.986 127.939 51.7531ZM129.675 52.5365C129.803 52.5365 129.93 52.5154 130.036 52.4729C130.142 52.4306 130.227 52.3883 130.312 52.3248C130.395 52.2613 130.459 52.1977 130.502 52.1342C130.544 52.0707 130.608 52.0072 130.65 51.9648V50.6943L130.332 50.7155C129.866 50.7367 129.507 50.8213 129.273 50.9484C129.04 51.0966 128.914 51.3295 128.914 51.6471C128.914 51.9436 128.978 52.1765 129.125 52.3248C129.252 52.4729 129.443 52.5365 129.675 52.5365ZM134.038 51.8801C134.038 52.113 134.081 52.2824 134.143 52.3883C134.207 52.4942 134.334 52.5365 134.504 52.5365C134.589 52.5365 134.674 52.5365 134.737 52.5154C134.8 52.4941 134.842 52.4729 134.885 52.4729L134.969 53.1929C134.927 53.2141 134.842 53.2564 134.695 53.2989C134.567 53.3412 134.398 53.3624 134.186 53.3624C133.847 53.3624 133.593 53.2564 133.382 53.0659C133.191 52.8753 133.085 52.5154 133.085 51.986V44.723L134.059 44.6172V51.8801H134.038ZM145.515 44.9136V53.2352H144.498V49.2756C144.498 49.0215 144.498 48.7885 144.498 48.5344C144.498 48.3016 144.498 48.0687 144.498 47.8569C144.498 47.6451 144.498 47.4545 144.519 47.3064C144.519 47.1369 144.54 47.0311 144.54 46.9252H144.498C144.456 47.1158 144.371 47.4122 144.245 47.8146C144.117 48.238 143.969 48.6827 143.82 49.1486L142.444 53.2141H141.619L140.242 49.1486C140.073 48.6827 139.945 48.238 139.819 47.8146C139.692 47.391 139.607 47.0946 139.565 46.9252H139.522C139.522 47.0311 139.543 47.1581 139.543 47.3064C139.543 47.4757 139.565 47.6451 139.565 47.8569C139.565 48.0687 139.565 48.2803 139.565 48.5344C139.565 48.7674 139.565 49.0215 139.565 49.2756V53.2352H138.549V44.9136H139.713L141.682 50.6519C141.766 50.9273 141.851 51.1814 141.915 51.4354C141.978 51.6895 142.021 51.9012 142.042 52.0918H142.063C142.063 51.9012 142.106 51.6895 142.169 51.4354C142.233 51.1814 142.318 50.9273 142.401 50.6732L144.371 44.9136H145.515ZM148.203 53.2141H147.23V47.4334H148.203V53.2141ZM147.717 46.0359C147.526 46.0359 147.357 45.9724 147.23 45.8453C147.103 45.7183 147.039 45.5488 147.039 45.337C147.039 45.1466 147.103 44.9771 147.23 44.85C147.357 44.723 147.506 44.6595 147.717 44.6595C147.908 44.6595 148.077 44.723 148.182 44.85C148.309 44.9771 148.373 45.1466 148.373 45.337C148.373 45.5488 148.309 45.7183 148.182 45.8453C148.056 45.9724 147.908 46.0359 147.717 46.0359ZM152.841 53.2141V49.5085C152.841 49.0215 152.756 48.6615 152.588 48.4498C152.418 48.238 152.163 48.1322 151.825 48.1322C151.528 48.1322 151.296 48.1957 151.105 48.3439C150.914 48.4921 150.766 48.6192 150.639 48.7674V53.2352H149.665V47.4545H150.555V48.111H150.576C150.597 48.0687 150.661 47.9839 150.723 47.8992C150.808 47.8146 150.914 47.7086 151.041 47.624C151.169 47.5393 151.316 47.4757 151.507 47.391C151.677 47.3275 151.889 47.2852 152.1 47.2852C152.354 47.2852 152.588 47.3275 152.799 47.391C153.011 47.4757 153.18 47.5816 153.328 47.751C153.476 47.9204 153.582 48.1322 153.667 48.4074C153.752 48.6827 153.794 49.0003 153.794 49.4027V53.1929H152.841V53.2141ZM156.272 53.2141H155.297V47.4334H156.272V53.2141ZM155.784 46.0359C155.594 46.0359 155.424 45.9724 155.297 45.8453C155.17 45.7183 155.107 45.5488 155.107 45.337C155.107 45.1466 155.17 44.9771 155.297 44.85C155.424 44.723 155.573 44.6595 155.784 44.6595C155.975 44.6595 156.144 44.723 156.251 44.85C156.378 44.9771 156.44 45.1466 156.44 45.337C156.44 45.5488 156.378 45.7183 156.251 45.8453C156.123 45.9724 155.975 46.0359 155.784 46.0359ZM160.252 48.598C160.189 48.5344 160.062 48.4286 159.892 48.3016C159.723 48.1745 159.512 48.111 159.236 48.111C158.981 48.111 158.791 48.1745 158.643 48.3016C158.516 48.4286 158.431 48.5769 158.431 48.725C158.431 48.9368 158.495 49.1274 158.622 49.2544C158.749 49.4027 158.94 49.5508 159.193 49.6991L159.554 49.9109C159.956 50.1438 160.252 50.3979 160.485 50.6732C160.718 50.9484 160.824 51.2872 160.824 51.7107C160.824 52.1765 160.676 52.5577 160.358 52.8753C160.041 53.1929 159.575 53.3412 158.981 53.3412C158.749 53.3412 158.537 53.32 158.367 53.2776C158.199 53.2352 158.029 53.1717 157.902 53.1082C157.774 53.0447 157.668 52.9811 157.563 52.8965C157.479 52.8118 157.394 52.7482 157.351 52.6847L157.817 51.9224C157.859 51.9647 157.923 52.0283 157.987 52.0918C158.05 52.1553 158.135 52.2188 158.241 52.2824C158.346 52.3459 158.452 52.3883 158.558 52.4306C158.685 52.4729 158.813 52.4942 158.981 52.4942C159.278 52.4942 159.49 52.4306 159.638 52.3036C159.786 52.1765 159.871 52.0283 159.871 51.8377C159.871 51.7107 159.85 51.5836 159.807 51.4778C159.765 51.3719 159.723 51.2872 159.638 51.2025C159.575 51.1178 159.469 51.0543 159.363 50.9696C159.257 50.906 159.13 50.8213 159.003 50.7367L158.643 50.5037C158.282 50.2708 158.008 50.0167 157.796 49.7626C157.585 49.5085 157.479 49.1697 157.479 48.7674C157.479 48.5557 157.521 48.3439 157.606 48.1745C157.691 47.9839 157.817 47.8357 157.965 47.7086C158.114 47.5816 158.305 47.4757 158.495 47.391C158.707 47.3064 158.919 47.2852 159.151 47.2852C159.384 47.2852 159.574 47.3064 159.723 47.3487C159.892 47.391 160.02 47.4545 160.147 47.5181C160.273 47.5816 160.358 47.6451 160.443 47.7298C160.528 47.7934 160.591 47.8569 160.634 47.8992L160.252 48.598ZM164.445 48.238H163.175V51.4354C163.175 51.8377 163.217 52.1342 163.323 52.2824C163.428 52.4306 163.598 52.5154 163.852 52.5154C164.001 52.5154 164.127 52.4941 164.233 52.4518C164.339 52.4094 164.424 52.3671 164.466 52.3459L164.593 53.1294C164.551 53.1717 164.466 53.2141 164.297 53.2776C164.148 53.3412 163.937 53.3835 163.683 53.3835C163.175 53.3835 162.814 53.2352 162.56 52.96C162.306 52.6847 162.179 52.2188 162.179 51.5836V48.238H161.481V47.5816L162.179 47.4334L162.285 45.8241H163.153V47.4334H164.53L164.445 48.238ZM168.108 48.3016C168.087 48.2804 168.023 48.2592 167.96 48.238C167.876 48.2168 167.77 48.1957 167.642 48.1957C167.346 48.1957 167.092 48.2804 166.922 48.4498C166.753 48.6192 166.625 48.7885 166.563 48.9791V53.2141H165.588V47.4334H166.478V48.2168H166.499C166.542 48.111 166.584 47.9839 166.647 47.8781C166.71 47.7722 166.795 47.6663 166.88 47.5816C166.965 47.497 167.092 47.4334 167.218 47.391C167.346 47.3487 167.515 47.3275 167.685 47.3275C167.812 47.3275 167.938 47.3487 168.023 47.3699C168.108 47.391 168.172 47.4122 168.214 47.4334L168.108 48.3016ZM172.915 47.4334L171.115 53.5528C170.903 54.2516 170.649 54.8022 170.353 55.1622C170.056 55.5222 169.612 55.7128 169.04 55.7128C168.913 55.7128 168.828 55.6916 168.743 55.6704C168.658 55.6491 168.616 55.628 168.574 55.6068V54.7598C168.616 54.781 168.658 54.8022 168.722 54.8233C168.786 54.8445 168.87 54.8445 168.977 54.8445C169.315 54.8445 169.591 54.7387 169.759 54.5269C169.929 54.3151 170.099 53.9764 170.226 53.5317L170.311 53.2352L168.447 47.4545H169.506L170.417 50.6519C170.501 50.9908 170.585 51.2872 170.649 51.5836C170.713 51.8589 170.776 52.1342 170.776 52.3459H170.797C170.819 52.113 170.861 51.8589 170.903 51.5836C170.967 51.3084 171.031 50.9908 171.136 50.6732L171.962 47.4545H172.915V47.4334ZM106.341 60.3923H105.156V65.3896H104.182V60.3923H103.504V59.7359L104.203 59.6088V58.4443C104.203 58.1267 104.245 57.8514 104.33 57.6396C104.414 57.4067 104.541 57.2373 104.69 57.0891C104.838 56.9408 105.007 56.835 105.198 56.7715C105.388 56.7079 105.6 56.6656 105.812 56.6656C106.024 56.6656 106.193 56.6867 106.341 56.7503C106.49 56.8138 106.574 56.8562 106.638 56.8773L106.426 57.682C106.384 57.6396 106.299 57.6185 106.214 57.5761C106.13 57.5338 106.024 57.5126 105.897 57.5126C105.664 57.5126 105.494 57.5761 105.367 57.7243C105.24 57.8726 105.177 58.1267 105.177 58.5289V59.5665H106.468L106.341 60.3923ZM106.934 62.4886C106.934 61.9592 106.998 61.4935 107.125 61.1123C107.252 60.7312 107.421 60.4136 107.633 60.1595C107.845 59.9054 108.099 59.7359 108.374 59.6088C108.649 59.4818 108.946 59.4395 109.263 59.4395C109.581 59.4395 109.877 59.503 110.153 59.6088C110.428 59.7359 110.661 59.9054 110.873 60.1595C111.064 60.4136 111.232 60.71 111.338 61.1123C111.466 61.4935 111.508 61.9592 111.508 62.4886C111.508 63.018 111.444 63.4838 111.317 63.8651C111.191 64.2461 111.021 64.5637 110.809 64.8179C110.597 65.072 110.343 65.2414 110.068 65.3472C109.793 65.4532 109.496 65.5167 109.179 65.5167C108.861 65.5167 108.565 65.4532 108.289 65.3472C108.014 65.2414 107.781 65.0508 107.569 64.8179C107.379 64.5637 107.209 64.2673 107.104 63.8862C106.998 63.505 106.934 63.0393 106.934 62.4886ZM110.492 62.4886C110.492 61.7264 110.386 61.1546 110.153 60.8158C109.92 60.4559 109.623 60.2865 109.221 60.2865C108.819 60.2865 108.501 60.4559 108.289 60.8158C108.078 61.1758 107.951 61.7264 107.951 62.4886C107.951 63.2509 108.056 63.8226 108.289 64.1615C108.522 64.5002 108.819 64.6697 109.221 64.6697C109.623 64.6697 109.941 64.5002 110.153 64.1615C110.386 63.8226 110.492 63.2509 110.492 62.4886ZM115.277 60.4559C115.256 60.4347 115.192 60.4136 115.129 60.3923C115.045 60.3711 114.939 60.35 114.811 60.35C114.514 60.35 114.261 60.4347 114.091 60.6041C113.922 60.7735 113.794 60.9429 113.732 61.1334V65.3684H112.757V59.5877H113.647V60.3711H113.668C113.711 60.2653 113.753 60.1382 113.816 60.0324C113.879 59.9265 113.964 59.8206 114.049 59.7359C114.155 59.6513 114.261 59.5877 114.387 59.5453C114.514 59.503 114.684 59.4818 114.854 59.4818C114.981 59.4818 115.107 59.503 115.192 59.5242C115.277 59.5453 115.341 59.5665 115.383 59.5877L115.277 60.4559ZM122.751 57.8937H119.787V60.7735H122.519V61.5993H119.787V64.5214H123.048L122.985 65.3896H118.729V57.0679H122.815L122.751 57.8937ZM127.368 60.71C127.347 60.6888 127.304 60.6464 127.262 60.6041C127.219 60.5617 127.134 60.4982 127.072 60.4559C126.987 60.4136 126.902 60.3711 126.775 60.3288C126.669 60.2865 126.542 60.2653 126.394 60.2653C126.182 60.2653 125.991 60.3076 125.801 60.3711C125.61 60.4559 125.462 60.5617 125.335 60.7312C125.209 60.9005 125.102 61.1123 125.018 61.3875C124.933 61.6628 124.912 61.9804 124.912 62.3616C124.912 62.7852 124.954 63.1451 125.018 63.4415C125.081 63.7379 125.187 63.9709 125.292 64.1403C125.42 64.3096 125.568 64.4368 125.738 64.5214C125.906 64.6061 126.097 64.6274 126.309 64.6274C126.605 64.6274 126.839 64.5849 126.987 64.4791C127.134 64.3733 127.262 64.2885 127.325 64.225L127.728 64.9026C127.686 64.945 127.622 65.0085 127.559 65.072C127.474 65.1354 127.389 65.1991 127.262 65.2626C127.134 65.3261 126.987 65.3895 126.817 65.432C126.648 65.4743 126.437 65.4955 126.225 65.4955C125.906 65.4955 125.61 65.4532 125.314 65.3472C125.039 65.2414 124.784 65.072 124.572 64.839C124.361 64.6061 124.192 64.2885 124.086 63.9074C123.958 63.5262 123.896 63.0391 123.896 62.4674C123.896 61.9169 123.958 61.451 124.107 61.0488C124.255 60.6677 124.446 60.35 124.678 60.117C124.912 59.8842 125.166 59.7148 125.462 59.6088C125.738 59.503 126.034 59.4395 126.331 59.4395C126.542 59.4395 126.733 59.4607 126.902 59.503C127.072 59.5453 127.198 59.5877 127.325 59.6513C127.453 59.7148 127.537 59.7783 127.622 59.8418C127.707 59.9054 127.771 59.9689 127.812 60.0112L127.368 60.71ZM128.447 62.4886C128.447 61.9592 128.511 61.4935 128.638 61.1123C128.765 60.7312 128.935 60.4136 129.146 60.1595C129.358 59.9054 129.613 59.7359 129.888 59.6088C130.163 59.4818 130.459 59.4395 130.777 59.4395C131.094 59.4395 131.391 59.503 131.666 59.6088C131.942 59.7359 132.175 59.9054 132.386 60.1595C132.577 60.4136 132.747 60.71 132.853 61.1123C132.979 61.4935 133.021 61.9592 133.021 62.4886C133.021 63.018 132.958 63.4838 132.83 63.8651C132.704 64.2461 132.535 64.5637 132.322 64.8179C132.111 65.072 131.857 65.2414 131.581 65.3472C131.306 65.4532 131.01 65.5167 130.692 65.5167C130.374 65.5167 130.078 65.4532 129.803 65.3472C129.528 65.2414 129.295 65.0508 129.083 64.8179C128.893 64.5637 128.723 64.2673 128.617 63.8862C128.511 63.505 128.447 63.0393 128.447 62.4886ZM132.005 62.4886C132.005 61.7264 131.899 61.1546 131.666 60.8158C131.434 60.4559 131.137 60.2865 130.735 60.2865C130.332 60.2865 130.015 60.4559 129.803 60.8158C129.592 61.1758 129.464 61.7264 129.464 62.4886C129.464 63.2509 129.57 63.8226 129.803 64.1615C130.036 64.5002 130.332 64.6697 130.735 64.6697C131.137 64.6697 131.455 64.5002 131.666 64.1615C131.899 63.8226 132.005 63.2509 132.005 62.4886ZM137.404 65.3896V61.6628C137.404 61.1758 137.321 60.8158 137.151 60.6041C136.981 60.3923 136.727 60.2865 136.388 60.2865C136.091 60.2865 135.859 60.35 135.668 60.4982C135.477 60.6464 135.33 60.7735 135.203 60.9217V65.3896H134.228V59.6088H135.118V60.2653H135.139C135.16 60.223 135.224 60.1382 135.288 60.0535C135.372 59.9689 135.477 59.8629 135.605 59.7783C135.732 59.6936 135.88 59.6301 136.07 59.5453C136.24 59.4818 136.452 59.4395 136.664 59.4395C136.918 59.4395 137.151 59.4818 137.362 59.5453C137.574 59.6301 137.744 59.7359 137.892 59.9054C138.04 60.0747 138.146 60.2865 138.23 60.5617C138.315 60.837 138.358 61.1546 138.358 61.557V65.3896H137.404ZM139.586 62.4886C139.586 61.9592 139.649 61.4935 139.777 61.1123C139.903 60.7312 140.073 60.4136 140.285 60.1595C140.497 59.9054 140.75 59.7359 141.026 59.6088C141.301 59.4818 141.598 59.4395 141.915 59.4395C142.233 59.4395 142.529 59.503 142.804 59.6088C143.079 59.7359 143.312 59.9054 143.524 60.1595C143.714 60.4136 143.884 60.71 143.99 61.1123C144.117 61.4935 144.16 61.9592 144.16 62.4886C144.16 63.018 144.096 63.4838 143.969 63.8651C143.842 64.2461 143.673 64.5637 143.461 64.8179C143.249 65.072 142.995 65.2414 142.72 65.3472C142.444 65.4532 142.148 65.5167 141.83 65.5167C141.513 65.5167 141.216 65.4532 140.941 65.3472C140.665 65.2414 140.433 65.0508 140.221 64.8179C140.03 64.5637 139.86 64.2673 139.755 63.8862C139.628 63.505 139.586 63.0393 139.586 62.4886ZM143.143 62.4886C143.143 61.7264 143.038 61.1546 142.804 60.8158C142.571 60.4559 142.275 60.2865 141.872 60.2865C141.47 60.2865 141.152 60.4559 140.941 60.8158C140.729 61.1758 140.602 61.7264 140.602 62.4886C140.602 63.2509 140.708 63.8226 140.941 64.1615C141.173 64.5002 141.47 64.6697 141.872 64.6697C142.275 64.6697 142.592 64.5002 142.804 64.1615C143.015 63.8226 143.143 63.2509 143.143 62.4886ZM148.416 65.3896V61.6628C148.416 61.1969 148.352 60.837 148.203 60.6464C148.077 60.4347 147.844 60.3288 147.547 60.3288C147.378 60.3288 147.251 60.35 147.124 60.3923C146.997 60.4347 146.891 60.4771 146.786 60.5406C146.679 60.6041 146.595 60.6677 146.531 60.7312C146.467 60.7947 146.404 60.8582 146.34 60.9217V65.3896H145.367V59.6088H146.255V60.2653H146.277C146.319 60.2018 146.383 60.117 146.467 60.0324C146.552 59.9477 146.658 59.8418 146.764 59.7571C146.891 59.6724 147.018 59.6088 147.187 59.5453C147.357 59.4818 147.526 59.4607 147.738 59.4607C148.394 59.4607 148.86 59.7148 149.136 60.223C149.199 60.1383 149.263 60.0535 149.369 59.9689C149.474 59.8842 149.58 59.7994 149.707 59.7148C149.834 59.6301 149.983 59.5665 150.13 59.5242C150.3 59.4818 150.47 59.4607 150.661 59.4607C151.825 59.4607 152.418 60.1382 152.418 61.5146V65.3896H151.443V61.6628C151.443 61.1969 151.358 60.837 151.19 60.6464C151.02 60.4347 150.766 60.3288 150.449 60.3288C150.173 60.3288 149.941 60.3923 149.771 60.5194C149.58 60.6464 149.453 60.7735 149.348 60.9005C149.369 60.9853 149.369 61.0911 149.39 61.1758C149.39 61.2817 149.41 61.3875 149.41 61.4935V65.3896H148.416ZM154.874 65.3896H153.899V59.6088H154.874V65.3896ZM154.387 58.1902C154.196 58.1902 154.027 58.1267 153.899 57.9996C153.773 57.8726 153.71 57.7031 153.71 57.4914C153.71 57.3009 153.773 57.1314 153.899 57.0044C154.027 56.8773 154.175 56.8138 154.387 56.8138C154.577 56.8138 154.747 56.8773 154.853 57.0044C154.98 57.1314 155.044 57.3009 155.044 57.4914C155.044 57.7031 154.98 57.8726 154.853 57.9996C154.726 58.1267 154.577 58.1902 154.387 58.1902ZM159.575 60.71C159.554 60.6888 159.512 60.6464 159.469 60.6041C159.427 60.5617 159.342 60.4982 159.278 60.4559C159.193 60.4136 159.109 60.3711 158.981 60.3288C158.876 60.2865 158.749 60.2653 158.601 60.2653C158.389 60.2653 158.199 60.3076 158.008 60.3711C157.817 60.4559 157.668 60.5617 157.542 60.7312C157.415 60.9005 157.309 61.1123 157.224 61.3875C157.139 61.6628 157.118 61.9804 157.118 62.3616C157.118 62.7852 157.16 63.1451 157.224 63.4415C157.288 63.7379 157.394 63.9709 157.5 64.1403C157.627 64.3096 157.774 64.4368 157.944 64.5214C158.114 64.6061 158.305 64.6274 158.516 64.6274C158.813 64.6274 159.045 64.5849 159.193 64.4791C159.342 64.3733 159.469 64.2885 159.533 64.225L159.935 64.9026C159.892 64.945 159.829 65.0085 159.765 65.072C159.68 65.1354 159.595 65.1991 159.469 65.2626C159.342 65.3261 159.193 65.3895 159.024 65.432C158.855 65.4743 158.643 65.4955 158.431 65.4955C158.114 65.4955 157.817 65.4532 157.521 65.3472C157.245 65.2414 156.992 65.072 156.78 64.839C156.568 64.6061 156.399 64.2885 156.293 63.9074C156.166 63.5262 156.102 63.0391 156.102 62.4674C156.102 61.9169 156.166 61.451 156.314 61.0488C156.462 60.6677 156.652 60.35 156.886 60.117C157.118 59.8842 157.373 59.7148 157.668 59.6088C157.944 59.503 158.241 59.4395 158.537 59.4395C158.749 59.4395 158.94 59.4607 159.109 59.503C159.278 59.5453 159.405 59.5877 159.533 59.6513C159.659 59.7148 159.744 59.7783 159.829 59.8418C159.913 59.9054 159.977 59.9689 160.02 60.0112L159.575 60.71ZM168.892 65.3896H167.727L166.986 62.7215H164.466L163.704 65.3896H162.645L165.355 57.0679H166.181L168.892 65.3896ZM166.774 61.9169L166.117 59.6301C166.033 59.3336 165.949 59.0371 165.885 58.7619C165.822 58.4866 165.779 58.2537 165.779 58.0632H165.758C165.758 58.2537 165.715 58.4654 165.652 58.7407C165.588 59.016 165.503 59.2912 165.419 59.6088L164.741 61.9169H166.774ZM172.153 60.3923H170.967V65.3896H169.993V60.3923H169.294V59.7359L169.993 59.6088V58.4443C169.993 58.1267 170.035 57.8514 170.12 57.6396C170.205 57.4067 170.332 57.2373 170.479 57.0891C170.628 56.9408 170.797 56.835 170.988 56.7715C171.178 56.7079 171.39 56.6656 171.602 56.6656C171.813 56.6656 171.983 56.6867 172.132 56.7503C172.28 56.8138 172.364 56.8562 172.427 56.8773L172.216 57.682C172.174 57.6396 172.089 57.6185 172.004 57.5761C171.919 57.5338 171.813 57.5126 171.686 57.5126C171.454 57.5126 171.284 57.5761 171.157 57.7243C171.031 57.8726 170.967 58.1267 170.967 58.5289V59.5665H172.259L172.153 60.3923ZM175.561 60.3923H174.376V65.3896H173.402V60.3923H172.703V59.7359L173.402 59.6088V58.4443C173.402 58.1267 173.444 57.8514 173.529 57.6396C173.613 57.4067 173.74 57.2373 173.889 57.0891C174.037 56.9408 174.207 56.835 174.397 56.7715C174.588 56.7079 174.8 56.6656 175.011 56.6656C175.223 56.6656 175.393 56.6867 175.54 56.7503C175.688 56.8138 175.773 56.8562 175.837 56.8773L175.625 57.682C175.582 57.6396 175.499 57.6185 175.414 57.5761C175.329 57.5338 175.223 57.5126 175.096 57.5126C174.862 57.5126 174.694 57.5761 174.566 57.7243C174.439 57.8726 174.376 58.1267 174.376 58.5289V59.5665H175.667L175.561 60.3923ZM176.113 63.9074C176.113 63.5686 176.175 63.2932 176.303 63.0604C176.43 62.8275 176.599 62.658 176.811 62.5098C177.023 62.3616 177.277 62.2769 177.573 62.2133C177.87 62.1498 178.187 62.1287 178.505 62.1287H178.801V61.5781C178.801 61.0911 178.716 60.7523 178.548 60.5617C178.378 60.3711 178.123 60.2865 177.827 60.2865C177.531 60.2865 177.298 60.35 177.107 60.4771C176.917 60.6041 176.768 60.71 176.642 60.8158L176.239 60.1595C176.303 60.0959 176.387 60.0324 176.493 59.9477C176.599 59.8629 176.727 59.7994 176.853 59.7148C177.001 59.6513 177.171 59.5877 177.341 59.5242C177.531 59.4818 177.743 59.4607 177.976 59.4607C178.569 59.4607 179.013 59.6301 179.33 59.9477C179.627 60.2865 179.797 60.8158 179.797 61.5358V64.1827C179.797 64.4368 179.797 64.6697 179.818 64.9026C179.839 65.1354 179.86 65.3049 179.86 65.3684H178.928L178.886 64.7332C178.843 64.7967 178.801 64.8815 178.737 64.9873C178.675 65.0719 178.59 65.1567 178.505 65.2414C178.399 65.3261 178.293 65.3895 178.145 65.432C178.018 65.4955 177.849 65.5167 177.658 65.5167C177.446 65.5167 177.235 65.4743 177.044 65.3896C176.853 65.3049 176.684 65.1991 176.557 65.0508C176.409 64.9026 176.303 64.7332 176.239 64.5426C176.154 64.352 176.113 64.1403 176.113 63.9074ZM177.87 64.6909C177.997 64.6909 178.123 64.6697 178.229 64.6274C178.335 64.5849 178.42 64.5426 178.505 64.4791C178.59 64.4156 178.654 64.352 178.695 64.2885C178.737 64.225 178.801 64.1615 178.843 64.1192V62.8486L178.526 62.8698C178.06 62.891 177.7 62.9756 177.467 63.1027C177.235 63.2509 177.107 63.4838 177.107 63.8014C177.107 64.098 177.171 64.3308 177.319 64.4791C177.446 64.6274 177.615 64.6909 177.87 64.6909ZM182.253 65.3896H181.278V59.6088H182.253V65.3896ZM181.766 58.1902C181.575 58.1902 181.406 58.1267 181.278 57.9996C181.152 57.8726 181.089 57.7031 181.089 57.4914C181.089 57.3009 181.152 57.1314 181.278 57.0044C181.406 56.8773 181.554 56.8138 181.766 56.8138C181.956 56.8138 182.126 56.8773 182.232 57.0044C182.359 57.1314 182.423 57.3009 182.423 57.4914C182.423 57.7031 182.359 57.8726 182.232 57.9996C182.105 58.1267 181.956 58.1902 181.766 58.1902ZM186.276 60.4559C186.255 60.4347 186.192 60.4136 186.128 60.3923C186.043 60.3711 185.937 60.35 185.81 60.35C185.514 60.35 185.259 60.4347 185.09 60.6041C184.921 60.7735 184.794 60.9429 184.73 61.1334V65.3684H183.757V59.5877H184.645V60.3711H184.667C184.709 60.2653 184.752 60.1382 184.815 60.0324C184.879 59.9265 184.964 59.8206 185.047 59.7359C185.153 59.6513 185.26 59.5877 185.387 59.5453C185.514 59.503 185.684 59.4818 185.852 59.4818C185.98 59.4818 186.107 59.503 186.192 59.5242C186.276 59.5453 186.339 59.5665 186.382 59.5877L186.276 60.4559ZM189.685 60.7735C189.621 60.71 189.495 60.6041 189.325 60.4771C189.156 60.35 188.944 60.2865 188.669 60.2865C188.414 60.2865 188.225 60.35 188.076 60.4771C187.949 60.6041 187.864 60.7523 187.864 60.9005C187.864 61.1123 187.928 61.3029 188.055 61.4299C188.182 61.5781 188.372 61.7264 188.627 61.8746L188.986 62.0863C189.389 62.3193 189.685 62.5734 189.918 62.8486C190.152 63.1239 190.257 63.4627 190.257 63.8862C190.257 64.352 190.109 64.7332 189.791 65.0508C189.474 65.3684 189.007 65.5167 188.414 65.5167C188.182 65.5167 187.97 65.4955 187.8 65.4532C187.631 65.4107 187.462 65.3472 187.335 65.2837C187.208 65.2202 187.102 65.1567 186.996 65.072C186.912 64.9873 186.827 64.9238 186.784 64.8602L187.25 64.098C187.292 64.1403 187.356 64.2038 187.42 64.2673C187.483 64.3308 187.568 64.3944 187.673 64.4579C187.779 64.5214 187.885 64.5637 187.991 64.6061C188.119 64.6485 188.245 64.6697 188.414 64.6697C188.711 64.6697 188.922 64.6061 189.071 64.4791C189.219 64.352 189.304 64.2038 189.304 64.0132C189.304 63.8862 189.283 63.7591 189.241 63.6533C189.198 63.5473 189.156 63.4627 189.071 63.378C189.007 63.2932 188.901 63.2297 188.796 63.1451C188.69 63.0816 188.563 62.9968 188.436 62.9121L188.076 62.6792C187.716 62.4463 187.441 62.1922 187.229 61.9381C187.017 61.684 186.912 61.3452 186.912 60.9429C186.912 60.7312 186.953 60.5194 187.038 60.35C187.123 60.1595 187.25 60.0112 187.399 59.8842C187.547 59.7571 187.737 59.6513 187.928 59.5665C188.14 59.4818 188.351 59.4607 188.584 59.4607C188.817 59.4607 189.007 59.4818 189.156 59.5242C189.325 59.5665 189.453 59.6301 189.579 59.6936C189.706 59.7571 189.791 59.8206 189.876 59.9054C189.961 59.9689 190.024 60.0324 190.067 60.0747L189.685 60.7735ZM103.589 76.0617C103.589 75.7229 103.652 75.4477 103.779 75.2147C103.906 74.9818 104.076 74.8123 104.287 74.6642C104.499 74.5159 104.753 74.4313 105.05 74.3676C105.346 74.3041 105.664 74.283 105.981 74.283H106.278V73.7324C106.278 73.2454 106.193 72.9066 106.024 72.716C105.854 72.5254 105.6 72.4408 105.304 72.4408C105.007 72.4408 104.774 72.5043 104.584 72.6314C104.393 72.7584 104.245 72.8643 104.118 72.9701L103.716 72.3138C103.779 72.2502 103.864 72.1867 103.97 72.102C104.076 72.0173 104.203 71.9537 104.33 71.8691C104.457 71.7844 104.647 71.7421 104.817 71.6785C105.007 71.6361 105.219 71.615 105.452 71.615C106.045 71.615 106.49 71.7844 106.807 72.102C107.104 72.4408 107.273 72.9701 107.273 73.6901V76.337C107.273 76.5911 107.273 76.824 107.294 77.0569C107.315 77.2899 107.337 77.4592 107.337 77.5227H106.405L106.363 76.8875H106.341C106.299 76.951 106.257 77.0358 106.193 77.1416C106.13 77.2263 106.045 77.311 105.96 77.3957C105.854 77.4804 105.748 77.544 105.6 77.5863C105.473 77.6498 105.304 77.671 105.113 77.671C104.901 77.671 104.69 77.6286 104.499 77.544C104.309 77.4592 104.139 77.3534 104.012 77.2051C103.864 77.0569 103.758 76.8875 103.695 76.6969C103.61 76.5064 103.589 76.2946 103.589 76.0617ZM105.325 76.8452C105.452 76.8452 105.579 76.824 105.685 76.7817C105.791 76.7392 105.875 76.6969 105.96 76.6334C106.045 76.5699 106.108 76.5064 106.151 76.4428C106.193 76.3793 106.257 76.3158 106.299 76.2735V75.003L105.981 75.0241C105.516 75.0453 105.156 75.1299 104.923 75.2571C104.69 75.4052 104.563 75.6381 104.563 75.9557C104.563 76.2523 104.626 76.4852 104.774 76.6334C104.901 76.7817 105.092 76.8452 105.325 76.8452ZM111.889 77.544V73.8171C111.889 73.3302 111.805 72.9701 111.635 72.7584C111.466 72.5467 111.211 72.4408 110.873 72.4408C110.576 72.4408 110.343 72.5043 110.153 72.6525C109.962 72.8008 109.814 72.9278 109.687 73.0761V77.544H108.713V71.7632H109.602V72.4196H109.623C109.645 72.3773 109.708 72.2926 109.772 72.2078C109.856 72.1232 109.962 72.0173 110.089 71.9326C110.216 71.8479 110.365 71.7844 110.555 71.6996C110.724 71.6361 110.936 71.5938 111.148 71.5938C111.402 71.5938 111.635 71.6361 111.846 71.6996C112.058 71.7844 112.228 71.8902 112.376 72.0597C112.524 72.229 112.63 72.4408 112.715 72.716C112.8 72.9913 112.842 73.3089 112.842 73.7113V77.5015H111.889V77.544ZM114.049 74.7277C114.049 74.1348 114.134 73.6478 114.282 73.2666C114.43 72.8643 114.642 72.5467 114.875 72.3138C115.107 72.0808 115.383 71.9114 115.7 71.8056C115.997 71.6996 116.314 71.6573 116.611 71.6573C116.802 71.6573 116.949 71.6785 117.098 71.6996C117.225 71.7208 117.352 71.7633 117.437 71.8056V69.0316L118.411 68.9258V77.5651H117.522V76.951H117.501C117.48 76.9933 117.437 77.0569 117.374 77.1416C117.31 77.2263 117.225 77.311 117.098 77.3957C116.992 77.4804 116.844 77.544 116.675 77.6075C116.505 77.671 116.314 77.6921 116.082 77.6921C115.806 77.6921 115.553 77.6286 115.298 77.5227C115.045 77.4169 114.833 77.2474 114.663 77.0146C114.472 76.7817 114.325 76.4639 114.219 76.104C114.113 75.7229 114.049 75.2571 114.049 74.7277ZM116.335 76.824C116.484 76.824 116.632 76.8028 116.738 76.7605C116.866 76.7181 116.971 76.6757 117.055 76.6122C117.14 76.5487 117.225 76.4852 117.289 76.4216C117.352 76.3581 117.395 76.2946 117.437 76.2523V72.6737C117.352 72.6102 117.246 72.5679 117.119 72.5254C116.992 72.4831 116.866 72.4619 116.675 72.4619C116.441 72.4619 116.23 72.5043 116.039 72.5679C115.849 72.6525 115.679 72.7795 115.531 72.949C115.383 73.1184 115.277 73.3513 115.192 73.6266C115.107 73.9019 115.065 74.2618 115.065 74.6642C115.065 75.0664 115.107 75.4052 115.171 75.6805C115.235 75.9559 115.341 76.1675 115.447 76.337C115.574 76.5064 115.7 76.6122 115.849 76.6969C116.018 76.7817 116.167 76.824 116.335 76.824ZM126.669 70.048H123.705V72.9278H126.437V73.7536H123.705V76.6757H126.966L126.902 77.544H122.645V69.2222H126.733L126.669 70.048ZM131.328 77.544V73.8171C131.328 73.3302 131.243 72.9701 131.073 72.7584C130.904 72.5467 130.65 72.4408 130.312 72.4408C130.015 72.4408 129.781 72.5043 129.592 72.6525C129.401 72.8008 129.252 72.9278 129.125 73.0761V77.544H128.151V71.7632H129.04V72.4196H129.061C129.083 72.3773 129.146 72.2926 129.21 72.2078C129.295 72.1232 129.401 72.0173 129.528 71.9326C129.655 71.8479 129.803 71.7844 129.994 71.6996C130.163 71.6361 130.374 71.5938 130.586 71.5938C130.841 71.5938 131.073 71.6361 131.285 71.6996C131.497 71.7844 131.666 71.8902 131.814 72.0597C131.963 72.229 132.069 72.4408 132.154 72.716C132.239 72.9913 132.28 73.3089 132.28 73.7113V77.5015H131.328V77.544ZM137.489 73.7113C137.489 73.9654 137.489 74.1771 137.468 74.3465C137.447 74.5371 137.426 74.6854 137.426 74.8123H134.483C134.525 75.49 134.652 75.9982 134.927 76.3158C135.182 76.6334 135.562 76.8028 136.049 76.8028C136.219 76.8028 136.367 76.7817 136.516 76.7392C136.643 76.6969 136.769 76.6546 136.875 76.5911C136.981 76.5276 137.066 76.4852 137.13 76.4216C137.193 76.3581 137.257 76.3158 137.278 76.2946L137.638 76.9722C137.595 77.0146 137.532 77.0781 137.447 77.1416C137.362 77.2263 137.257 77.2899 137.13 77.3745C137.002 77.4592 136.833 77.5227 136.622 77.5651C136.431 77.6286 136.176 77.6498 135.902 77.6498C135.541 77.6498 135.203 77.5863 134.927 77.4592C134.631 77.3322 134.377 77.1416 134.186 76.9087C133.975 76.6546 133.826 76.337 133.72 75.9346C133.614 75.5535 133.55 75.0665 133.55 74.5371C133.55 74.0289 133.614 73.5842 133.72 73.2031C133.847 72.822 133.996 72.5254 134.186 72.2715C134.377 72.0174 134.61 71.8479 134.885 71.7421C135.16 71.615 135.435 71.5726 135.732 71.5726C136.282 71.5726 136.727 71.7421 137.024 72.102C137.321 72.4831 137.489 73.0125 137.489 73.7113ZM135.647 72.3984C135.309 72.3984 135.033 72.5467 134.821 72.822C134.61 73.1184 134.483 73.5207 134.461 74.0712H136.579C136.579 74.0289 136.6 73.9654 136.6 73.9019C136.6 73.8171 136.6 73.7536 136.6 73.6478C136.6 73.2454 136.516 72.9278 136.367 72.716C136.176 72.5043 135.944 72.3984 135.647 72.3984ZM141.322 72.6102C141.301 72.589 141.237 72.5679 141.173 72.5467C141.09 72.5254 140.984 72.5043 140.856 72.5043C140.559 72.5043 140.306 72.589 140.136 72.7584C139.967 72.9278 139.839 73.0972 139.777 73.2877V77.5227H138.802V71.7421H139.692V72.5254H139.713C139.755 72.4196 139.798 72.2926 139.86 72.1867C139.924 72.0808 140.009 71.9749 140.094 71.8902C140.2 71.8056 140.306 71.7421 140.433 71.6996C140.559 71.6573 140.729 71.6361 140.899 71.6361C141.026 71.6361 141.152 71.6573 141.237 71.6785C141.322 71.6996 141.385 71.7208 141.428 71.7421L141.322 72.6102ZM146.34 72.5043H145.62C145.811 72.8008 145.896 73.1607 145.896 73.5418C145.896 73.8383 145.853 74.1137 145.747 74.3676C145.641 74.6217 145.515 74.8123 145.324 74.9818C145.133 75.1511 144.922 75.2782 144.689 75.3629C144.434 75.4477 144.181 75.49 143.905 75.49C143.842 75.49 143.799 75.49 143.757 75.49C143.714 75.49 143.652 75.49 143.609 75.4688C143.503 75.5112 143.418 75.5747 143.312 75.6593C143.206 75.7441 143.164 75.8711 143.164 76.0194C143.164 76.1464 143.206 76.2311 143.312 76.3158C143.397 76.4005 143.546 76.4216 143.757 76.4216H144.498C144.774 76.4216 145.027 76.4428 145.261 76.5064C145.494 76.5699 145.705 76.6546 145.875 76.7817C146.044 76.9087 146.193 77.0569 146.277 77.2474C146.383 77.438 146.425 77.671 146.425 77.9462C146.425 78.2638 146.361 78.5391 146.234 78.7932C146.108 79.0473 145.917 79.2802 145.684 79.4497C145.451 79.6402 145.154 79.7884 144.795 79.8731C144.456 79.979 144.054 80.0214 143.631 80.0214C143.015 80.0214 142.55 79.8943 142.212 79.619C141.893 79.3437 141.725 78.9626 141.725 78.4544C141.725 78.2427 141.766 78.0521 141.83 77.9039C141.915 77.7556 141.999 77.6075 142.106 77.5015C142.212 77.3745 142.318 77.2899 142.424 77.2263C142.529 77.1628 142.614 77.0993 142.677 77.0569V77.0358C142.423 76.8452 142.296 76.5911 142.296 76.2311C142.296 76.0829 142.318 75.9559 142.381 75.8288C142.444 75.7229 142.507 75.617 142.592 75.5535C142.677 75.49 142.741 75.4264 142.826 75.384C142.91 75.3417 142.953 75.2994 142.995 75.2994V75.2782C142.698 75.1511 142.465 74.9183 142.275 74.643C142.084 74.3465 141.999 73.9654 141.999 73.5207C141.999 73.2031 142.042 72.9066 142.148 72.6737C142.254 72.4196 142.401 72.229 142.571 72.0597C142.741 71.8902 142.953 71.7844 143.185 71.6996C143.418 71.615 143.673 71.5726 143.948 71.5726C144.223 71.5726 144.477 71.615 144.71 71.7208H146.467L146.34 72.5043ZM143.652 77.3534C143.482 77.3534 143.334 77.3322 143.206 77.311C143.143 77.3534 143.058 77.3957 142.995 77.4592C142.932 77.5227 142.868 77.5863 142.804 77.671C142.741 77.7556 142.698 77.8404 142.656 77.9462C142.614 78.0521 142.592 78.1792 142.592 78.3274C142.592 78.9415 142.932 79.2591 143.609 79.2591C144.202 79.2591 144.625 79.1532 144.901 78.9203C145.176 78.6874 145.324 78.4333 145.324 78.1368C145.324 77.8616 145.239 77.6498 145.048 77.544C144.88 77.4169 144.625 77.3745 144.328 77.3745H143.652V77.3534ZM144.942 73.5418C144.942 73.1184 144.837 72.822 144.646 72.6525C144.456 72.4831 144.223 72.3773 143.948 72.3773C143.673 72.3773 143.418 72.4619 143.228 72.6525C143.038 72.822 142.932 73.1184 142.932 73.5418C142.932 73.9654 143.038 74.2618 143.228 74.4313C143.418 74.6006 143.652 74.7065 143.926 74.7065C144.202 74.7065 144.456 74.6217 144.646 74.4313C144.837 74.2618 144.942 73.9654 144.942 73.5418ZM151.316 71.7421L149.516 77.8616C149.305 78.5603 149.051 79.1108 148.755 79.4708C148.458 79.8308 148.014 80.0214 147.442 80.0214C147.315 80.0214 147.23 80.0002 147.145 79.979C147.06 79.9579 147.018 79.9367 146.975 79.9155V79.0685C147.018 79.0896 147.06 79.1108 147.124 79.1321C147.187 79.1532 147.272 79.1532 147.378 79.1532C147.717 79.1532 147.992 79.0473 148.161 78.8355C148.352 78.6239 148.5 78.285 148.628 77.8404L148.712 77.544L146.849 71.7632H147.908L148.817 74.9606C148.902 75.2994 148.987 75.5958 149.051 75.8923C149.114 76.1675 149.178 76.4428 149.178 76.6546H149.199C149.22 76.4216 149.263 76.1675 149.305 75.8923C149.369 75.617 149.432 75.2994 149.538 74.9818L150.364 71.7632H151.316V71.7421Z" fill="#212121"/>
<path d="M77.5006 52.557C77.5218 52.3242 77.5429 52.0912 77.5429 51.8583C77.5429 51.7312 77.5429 51.583 77.5218 51.4136C79.5334 51.3924 81.3121 49.9313 81.3121 48.2585C81.3121 47.4116 80.7616 46.7551 80.4439 46.374C80.5075 46.3528 80.5922 46.3528 80.6557 46.3317C80.9521 46.5858 81.7992 47.4962 81.7992 48.6609C81.7992 50.6513 79.8087 52.5147 77.5006 52.557ZM75.4679 45.5694C75.4255 45.3364 75.3408 45.1458 75.2138 44.9765C75.2138 44.7647 75.2985 44.5741 75.6372 44.7436C75.4679 44.9342 75.5949 45.2518 75.5949 45.2518C75.5949 45.2518 75.9548 45.0823 75.8913 44.8494C76.4419 44.9553 76.0396 45.6752 75.4679 45.5694ZM75.002 46.5858C74.9385 46.2893 74.7691 45.9716 74.5785 45.7388C74.4092 45.527 74.1126 45.2729 73.7104 45.2729C73.5198 45.2729 73.2233 45.3576 73.0327 45.4423C72.9692 45.3153 72.8211 44.9977 72.8211 44.8494C72.8211 44.7012 73.0752 44.553 73.5409 44.553C74.5785 44.553 75.2138 45.0188 75.2138 45.8235C75.2138 46.1199 75.1079 46.374 75.002 46.5858ZM77.6912 60.0741C77.8183 60.0741 77.8818 60.0953 77.9453 60.1164C78.2418 60.9422 79.4064 62.488 79.4488 62.5515V62.5727H79.4699C79.7452 62.5303 80.4863 62.4245 81.0792 62.4245H81.1004C81.1639 62.4245 81.2486 62.4245 81.291 62.4668C81.3333 62.5092 81.3545 62.5727 81.3545 62.6786C81.3545 62.8268 81.291 63.0809 81.2062 63.208C80.9945 62.975 80.6557 62.8692 80.1051 62.8692C79.9358 62.8692 79.7452 62.9115 79.6393 62.9539H79.5969L79.5546 62.975L79.8722 63.2926C80.3592 63.7797 80.7828 64.2032 80.7828 64.4996C80.7828 64.669 80.6133 64.9019 80.4652 64.9867C80.4227 64.4785 79.9145 63.7797 79.4064 63.3986L79.364 63.3561V63.5467C79.364 63.6738 79.3428 63.8643 79.3428 64.0549C79.3428 65.0502 79.237 65.1983 78.8982 65.1983C78.8558 65.1983 78.7711 65.1772 78.7076 65.156C78.8982 64.9231 78.9829 64.6055 78.9829 64.0549V63.8008V63.5891C78.9829 63.3561 79.0041 63.1868 79.0252 63.0597V62.975H78.9617C78.7923 62.9539 78.4958 62.9115 78.2841 62.9115C77.797 62.9115 77.4583 62.9539 77.2253 63.1868C77.0772 63.0597 76.9077 62.8479 76.9077 62.6998C76.9077 62.488 77.0349 62.488 77.2042 62.488C77.289 62.488 77.3736 62.5092 77.4794 62.5092C77.6912 62.5303 78.0088 62.5938 78.6441 62.5938H78.6865L78.6653 62.5515C78.4959 62.0857 78.0511 61.3869 77.3313 60.5188C77.3948 60.2222 77.4583 60.0741 77.6912 60.0741ZM71.4446 62.488L71.4235 62.5303H71.4658C72.1223 62.5303 72.4399 62.488 72.6305 62.4457C72.7363 62.4245 72.8211 62.4245 72.9057 62.4245C73.0752 62.4245 73.2022 62.4457 73.2022 62.6363C73.2022 62.7844 73.0327 62.9962 72.8846 63.1232C72.6516 62.8904 72.3129 62.8479 71.8258 62.8479C71.5929 62.8479 71.2965 62.8904 71.1482 62.9115H71.127H71.1059V62.9962C71.127 63.1233 71.1482 63.2926 71.1482 63.5256V63.7373V63.9914C71.1482 64.542 71.233 64.8596 71.4235 65.0925C71.3811 65.1137 71.2965 65.1348 71.233 65.1348C70.8941 65.1348 70.7883 64.9867 70.7883 63.9914C70.7883 63.8008 70.7883 63.6102 70.7671 63.4832V63.2926L70.7248 63.335C70.2166 63.7162 69.6872 64.4149 69.666 64.9231C69.5178 64.8172 69.3483 64.6055 69.3483 64.436C69.3483 64.1608 69.7719 63.7373 70.2589 63.2291L70.5342 62.9539L70.5765 62.9115L70.4918 62.8904C70.3859 62.8692 70.1954 62.8056 70.026 62.8056C69.4754 62.8056 69.1367 62.9115 68.9249 63.1445C68.8401 63.0385 68.7766 62.7844 68.7766 62.6151C68.7766 62.5092 68.7978 62.4457 68.8401 62.4033C68.8826 62.361 68.9672 62.361 69.0307 62.361H69.0519C69.666 62.361 70.3859 62.4668 70.6612 62.5092H70.6823V62.488C70.7248 62.4245 71.8893 60.8787 72.1858 60.0529C72.2493 60.0318 72.3129 60.0106 72.4399 60.0106C72.6728 60.0106 72.7363 60.1588 72.7998 60.3917C72.0588 61.3446 71.5929 62.0221 71.4446 62.488ZM68.3107 48.6398C68.3107 47.4962 69.1578 46.5646 69.4543 46.3105C69.5178 46.3317 69.6024 46.3528 69.666 46.3528C69.3272 46.7551 68.7766 47.3904 68.7766 48.2374C68.7766 49.9313 70.5765 51.3924 72.6305 51.3924C72.6093 51.5407 72.6093 51.6889 72.6093 51.8371C72.6093 52.0912 72.6305 52.3242 72.6516 52.5358C70.3436 52.5358 68.3107 50.6725 68.3107 48.6398ZM83.8107 52.1971C84.8483 53.8275 85.6529 53.8063 86.8811 53.8063C85.8647 53.0229 85.187 52.0276 84.8694 51.5194L82.9849 48.4915C82.7943 47.5597 82.3074 46.6704 81.5874 46.0352C81.8415 45.9505 82.032 45.8446 82.1591 45.76C80.9309 45.76 79.7029 45.1247 79.0252 45.1247C78.6017 45.1247 78.3052 45.3788 78.3052 45.7175C78.3264 46.0987 78.7288 46.4798 79.4488 46.4798C79.6181 46.4798 79.8299 46.4587 80.0628 46.4163C80.4652 46.9669 80.7828 47.4539 80.7828 48.1739C80.7828 49.5079 79.1947 50.5455 77.5854 50.5455C77.5006 50.5455 77.4159 50.5455 77.3101 50.5455C77.1618 50.2066 76.6748 49.6561 76.6748 49.042C76.6748 47.9833 77.3524 47.1363 77.3524 46.0776C77.3524 45.4211 77.0349 45.0188 76.9077 44.8494C77.0984 44.6588 77.3101 44.4471 77.3736 44.2989C77.2677 44.3412 77.1195 44.3624 76.9289 44.3624C76.1666 44.3624 75.5314 44.1719 74.9174 44.1719C74.5785 44.1719 74.4727 44.2777 74.4727 44.3835C74.4727 44.426 74.4727 44.4683 74.4938 44.4683C74.3667 44.426 74.2397 44.3835 74.0915 44.3624C73.901 44.32 73.7104 44.32 73.5198 44.32C72.7786 44.32 72.5245 44.6376 72.5245 44.8917C72.5245 45.1247 72.694 45.527 72.9057 45.8446C73.2022 45.6964 73.5409 45.5905 73.7104 45.5905C74.1126 45.5905 74.4515 45.9716 74.642 46.4163C74.3879 46.4587 74.3244 46.4587 74.0491 46.4587C73.3292 46.4587 72.8422 46.2046 72.7363 46.2046C72.7363 46.2046 72.7151 46.2046 72.7151 46.2257C72.7151 46.3317 72.9269 46.5858 73.3292 46.7339C73.8585 46.9245 74.6633 47.0092 74.7903 47.0304C74.7903 47.0517 74.6633 47.3058 74.515 47.3481C74.4938 47.3481 74.4515 47.3692 74.4303 47.3481C73.8798 47.2421 73.7104 47.1998 73.0116 46.9245C72.9904 46.9245 72.9692 46.9245 72.9692 46.9457C72.9692 47.221 73.6892 47.8351 74.3456 48.0679C73.795 48.7668 73.1387 49.4656 72.8211 50.5455C72.7363 50.5455 72.6516 50.5455 72.5458 50.5455C70.9364 50.5455 69.3483 49.5079 69.3483 48.1739C69.3483 47.4751 69.666 46.9669 70.0683 46.4163C70.3012 46.4587 70.513 46.4798 70.6823 46.4798C71.4023 46.4798 71.8047 46.0987 71.8258 45.7175C71.8258 45.3788 71.5506 45.1247 71.1059 45.1247C70.4282 45.1247 69.2002 45.76 67.972 45.76C68.0991 45.8446 68.2896 45.9505 68.5437 46.0352C67.8238 46.6916 67.3368 47.5597 67.1462 48.4915L65.2616 51.5194C64.944 52.0276 64.2664 53.0229 63.25 53.8063C64.4782 53.8063 65.2828 53.8275 66.3204 52.1971L67.2945 50.6513C67.358 50.8631 67.4638 51.0537 67.5486 51.2442L65.6004 54.3357C65.2828 54.8439 64.6052 55.8391 63.5889 56.6226C64.8169 56.6226 65.6216 56.6438 66.6591 55.0133L68.332 52.3453C68.459 52.4723 68.586 52.5994 68.7343 52.7264L66.3839 56.4743C66.0663 56.9825 65.3886 57.9778 64.3723 58.7612C65.6004 58.7612 66.405 58.7824 67.4426 57.152L69.7295 53.4887C69.8777 53.5734 70.026 53.6793 70.1954 53.764L67.4003 58.2319C67.0827 58.7401 66.405 59.7353 65.3886 60.5188C66.6168 60.5188 67.4214 60.54 68.459 58.9095L71.3388 54.3145C71.5082 54.378 71.6776 54.4416 71.847 54.5051L68.6285 59.6717C68.3107 60.1799 67.6332 61.1752 66.6168 61.9586C67.845 61.9586 68.6496 61.9798 69.6872 60.3494L73.1598 54.8016C73.2022 54.8016 73.2233 54.8227 73.2657 54.8227C73.3504 55.1192 73.4351 55.3944 73.4351 55.6909C73.4351 57.4272 72.2917 58.973 70.9153 60.1588C71 60.2011 71.1482 60.2011 71.2965 60.2011C71.5717 60.2011 71.7623 60.1799 71.8893 60.1588C71.5717 60.8787 70.8941 61.8105 70.5342 62.2974C70.0895 62.2127 69.4331 62.1492 69.0096 62.1492C68.5649 62.1492 68.5014 62.4033 68.5014 62.6363C68.5014 63.0385 68.692 63.3561 68.9037 63.5467C68.9884 63.335 69.1578 63.0597 69.9836 63.0597C70.0048 63.0597 70.026 63.0597 70.0683 63.0597C69.8354 63.335 69.0731 63.9491 69.0731 64.436C69.0731 64.7537 69.4331 65.2619 69.8989 65.2619C69.8777 65.156 69.8777 65.0502 69.8777 64.9867C69.8777 64.5843 70.2377 64.1184 70.5342 63.8008C70.5342 63.9067 70.5342 63.8855 70.5342 63.9914C70.5342 64.9442 70.6188 65.3678 71.2117 65.3678C71.5082 65.3678 71.6987 65.1983 71.7835 65.156C71.4023 64.7961 71.3811 64.5208 71.3811 63.9914C71.3811 63.8432 71.3811 63.7162 71.3811 63.5256C71.3811 63.3986 71.3811 63.2503 71.36 63.1232C71.5717 63.102 71.6564 63.102 71.8258 63.102C71.8258 63.102 72.6728 63.0385 72.8846 63.4832C73.1175 63.2715 73.4563 62.975 73.4563 62.6363C73.4563 62.4245 73.3504 62.1704 72.9057 62.1704C72.7363 62.1704 72.2281 62.2762 71.7835 62.2762C71.9105 62.0221 72.4187 61.2598 72.8846 60.6881C72.9481 60.8999 73.0539 61.1328 73.2868 61.3234C73.3292 60.9634 73.5198 59.8412 74.0915 59.1848C74.1551 59.6294 74.2397 60.0953 74.2397 61.0482C74.2397 63.3986 73.668 65.1137 72.4822 65.4524C72.6305 65.7277 72.9692 65.9606 73.308 65.9606C73.7527 65.9606 73.9856 65.4736 74.2186 65.0078C74.3456 65.3466 74.6844 66.1936 75.0444 66.1936C75.4043 66.1936 75.7432 65.3466 75.8702 65.0078C76.1031 65.4736 76.3572 65.9606 76.7807 65.9606C77.1195 65.9606 77.4583 65.7065 77.6065 65.4524C76.3995 65.1137 75.849 63.3986 75.849 61.0482C75.849 60.0741 75.9337 59.6294 75.9973 59.1848C76.5478 59.8412 76.7595 60.9634 76.8019 61.3234C77.0349 61.1328 77.1407 60.8999 77.2253 60.6881C77.6701 61.2387 78.1994 62.001 78.3264 62.2762C77.8818 62.2762 77.3736 62.1704 77.2042 62.1704C76.7595 62.1704 76.6536 62.4245 76.6536 62.6363C76.6536 62.975 76.9924 63.2715 77.2253 63.4832C77.4371 63.0385 78.2841 63.102 78.2841 63.102C78.4535 63.102 78.5382 63.102 78.75 63.1232C78.7288 63.2291 78.7288 63.3986 78.7288 63.5256C78.7288 63.7162 78.7288 63.8432 78.7288 63.9914C78.7288 64.5208 78.7076 64.7961 78.3264 65.156C78.39 65.1983 78.6017 65.3678 78.8982 65.3678C79.4911 65.3678 79.5758 64.9442 79.5758 63.9914C79.5758 63.8855 79.5758 63.8855 79.5758 63.8008C79.8722 64.1184 80.2322 64.5843 80.2322 64.9867C80.2322 65.0502 80.2322 65.156 80.2111 65.2619C80.6768 65.2619 81.0369 64.7749 81.0369 64.436C81.0369 63.9491 80.2746 63.335 80.0416 63.0597C80.084 63.0597 80.1051 63.0597 80.1263 63.0597C80.9521 63.0597 81.1215 63.335 81.2062 63.5467C81.418 63.3561 81.6086 63.0385 81.6086 62.6363C81.6086 62.4033 81.5662 62.1492 81.1004 62.1492C80.6768 62.1492 80.0205 62.2127 79.5758 62.2974C79.237 61.8105 78.5593 60.8787 78.2206 60.1588C78.3477 60.1799 78.5382 60.2011 78.8134 60.2011C78.9617 60.2011 79.1099 60.1799 79.1947 60.1588C77.8183 58.973 76.6748 57.4272 76.6748 55.6909C76.6748 55.4156 76.7383 55.1403 76.8442 54.8227C76.8866 54.8227 76.9077 54.8016 76.9501 54.8016L80.4227 60.3494C81.4603 61.9798 82.2649 61.9586 83.4931 61.9586C82.4767 61.1752 81.7992 60.1799 81.4815 59.6717L78.2417 54.4628C78.4112 54.3992 78.6017 54.3357 78.7711 54.2722L81.6509 58.8671C82.6885 60.4976 83.4931 60.4764 84.7213 60.4764C83.7049 59.6929 83.0484 58.7189 82.7096 58.1895L79.9145 53.7217C80.0628 53.637 80.2322 53.5522 80.3804 53.4464L82.6673 57.1096C83.7049 58.7401 84.5095 58.7189 85.7377 58.7189C84.7213 57.9355 84.0648 56.9614 83.726 56.432L81.3756 52.6841C81.5239 52.557 81.6509 52.43 81.778 52.3029L83.4508 54.971C84.4883 56.6014 85.293 56.5803 86.5211 56.5803C85.5047 55.7968 84.8271 54.8016 84.5095 54.2934L82.5826 51.2018C82.6885 51.0113 82.7731 50.8207 82.8367 50.609L83.8107 52.1971Z" fill="#212121"/>
<path d="M96.5791 65.3893H93.043V45.125H96.5791V65.3893Z" fill="#212121"/>
<path d="M96.5791 85.6548H93.043V65.3906H96.5791V85.6548Z" fill="#A9A9A9"/>
<path d="M96.5791 105.897H93.043V85.6328H96.5791V105.897Z" fill="#D9D9D9"/>
</g>
</g>
</g>
<defs>
<clipPath id="clip0_10264_27686">
<rect width="253.55" height="143.3" fill="white" transform="translate(0.398438 0.109375)"/>
</clipPath>
<clipPath id="clip1_10264_27686">
<rect width="253.55" height="143.3" fill="white" transform="translate(0.398438 0.109375)"/>
</clipPath>
</defs>
</svg>
