<svg width="255" height="144" viewBox="0 0 255 144" fill="none" xmlns="http://www.w3.org/2000/svg">
<g clip-path="url(#clip0_10264_27704)">
<g clip-path="url(#clip1_10264_27704)">
<path d="M193.496 89.8832H189.367V82.8203H190.798V88.6971C190.853 88.6971 190.908 88.6971 190.963 88.6971C191.844 88.6971 192.725 88.6971 193.605 88.6971V89.7754C193.605 89.7754 193.605 89.7754 193.551 89.7754L193.496 89.8832Z" fill="#212121"/>
<path d="M177.538 89.9375C177.538 89.9375 177.538 89.9375 177.538 89.9914H175.777C175.777 89.9914 175.777 89.9914 175.777 89.9375C175.777 89.9375 175.831 89.9375 175.886 89.9375C176.383 89.9375 176.878 89.9375 177.372 89.9375C177.428 89.9375 177.483 89.9375 177.538 89.9375Z" fill="#212121"/>
<path d="M193.553 67.8293C193.553 67.8293 193.553 67.8293 193.498 67.8293C193.498 66.9666 193.498 66.0501 193.498 65.1875H193.553V67.8293Z" fill="#212121"/>
<path d="M64.827 60.1244C64.3317 60.1244 63.8364 60.2322 63.3411 60.2861C62.8458 60.2861 62.3505 60.394 61.8552 60.394C61.58 60.394 61.3049 60.4479 60.9746 60.5018C60.9746 60.394 60.9746 60.34 60.9746 60.2861C60.9746 58.4531 60.9746 56.6738 60.9746 54.8407C60.9746 54.8407 60.9746 54.7328 60.9746 54.6789C60.9746 54.6789 60.9746 54.6789 61.0297 54.6789C61.2499 54.625 61.4699 54.625 61.6351 54.625C68.4593 54.625 75.2834 54.625 82.1077 54.625C82.2177 54.625 82.3278 54.625 82.4929 54.625V55.8112C77.9801 57.6982 73.3022 58.9922 68.4042 59.747C68.4042 59.747 68.4042 59.747 68.3492 59.747C68.074 59.747 67.7989 59.8009 67.5237 59.8549C67.5237 59.8549 67.4687 59.8549 67.4136 59.8549C67.0284 59.8549 66.6431 59.9627 66.2579 59.9627C66.2579 59.9627 66.2028 59.9627 66.1478 59.9627C65.7626 59.9627 65.3223 60.0166 64.937 60.0705C64.937 60.0705 64.882 60.0705 64.827 60.0705V60.1244Z" fill="#212121"/>
<path d="M146.606 66.6484C146.936 66.3788 147.212 66.0554 147.541 65.7857C147.927 65.4623 148.422 65.3005 148.917 65.1927C149.248 65.1387 149.633 65.0848 149.963 65.0848C150.403 65.0848 150.843 65.1387 151.284 65.3005C152.384 65.6779 152.934 66.4327 153.265 67.4032C153.375 67.7806 153.43 68.1581 153.486 68.5893C153.65 70.9077 153.486 73.2261 153.541 75.5444C153.541 75.5444 153.541 75.5444 153.486 75.5984C152.605 75.5984 151.724 75.5984 150.898 75.5984C150.898 75.5984 150.898 75.5984 150.789 75.5984C150.789 75.4905 150.789 75.3288 150.789 75.1671C150.789 73.1722 150.789 71.1773 150.789 69.1824C150.789 68.6972 150.679 68.2659 150.458 67.8884C150.238 67.4572 149.853 67.1875 149.303 67.1875C149.193 67.1875 149.083 67.1336 148.972 67.1336C148.532 67.1336 148.092 67.1875 147.762 67.4572C147.157 67.9424 146.826 68.5893 146.661 69.3442C146.551 69.9372 146.551 70.5842 146.551 71.1773C146.551 72.5791 146.551 74.0348 146.551 75.4366V75.5444C146.551 75.5444 146.55 75.5444 146.496 75.5984H143.799V60.6638C144.019 60.6099 145.671 60.556 146.496 60.6638C146.496 60.6638 146.496 60.6638 146.551 60.7177C146.551 61.4186 146.551 62.0656 146.551 62.7665C146.551 64.0605 146.551 65.3545 146.551 66.6484C146.551 66.6484 146.551 66.7023 146.551 66.7563C146.551 66.7563 146.606 66.7563 146.661 66.7563L146.606 66.6484Z" fill="#212121"/>
<path d="M82.4906 65.5695C82.4906 65.7314 82.4906 65.947 82.4906 66.1087C82.4906 69.182 82.4906 72.2551 82.4906 75.3282C82.4906 75.4362 82.4906 75.544 82.4906 75.6518H68.7871C68.8422 75.5979 68.8972 75.544 68.9522 75.544C70.4382 74.5195 71.9241 73.4952 73.41 72.4168C74.1804 71.8776 74.9509 71.3386 75.6664 70.7455C76.8771 69.829 78.1429 68.9123 79.3536 67.9419C80.3993 67.1332 81.3899 66.3244 82.4355 65.5156C82.4355 65.5156 82.4906 65.5156 82.5456 65.5156L82.4906 65.5695Z" fill="#212121"/>
<path d="M160.642 75.8671C160.421 75.8671 160.147 75.8671 159.926 75.8671C159.432 75.8671 158.991 75.7054 158.496 75.4897C158.165 75.3819 157.835 75.1662 157.505 75.0045C156.899 74.627 156.404 74.1419 156.074 73.4949C155.689 72.8479 155.413 72.2009 155.303 71.4461C155.248 71.1226 155.248 70.7452 155.303 70.4216C155.303 69.9904 155.358 69.6129 155.413 69.1816C155.468 68.8581 155.579 68.5886 155.689 68.265C155.963 67.5102 156.404 66.8632 157.01 66.378C157.56 65.8928 158.165 65.5693 158.825 65.3536C159.541 65.138 160.256 65.0301 160.972 65.0841C162.018 65.0841 163.008 65.4075 163.888 65.9467C164.604 66.378 165.154 66.9171 165.54 67.618C165.869 68.2111 166.09 68.8042 166.145 69.4512C166.255 70.0982 166.31 70.7452 166.2 71.3922C165.98 72.4704 165.595 73.4949 164.769 74.3036C164.439 74.6271 164.054 74.8967 163.614 75.1662C163.063 75.4358 162.513 75.6515 161.907 75.7593C161.468 75.8671 160.972 75.8671 160.477 75.8671H160.642ZM160.366 73.8183C161.852 73.8183 162.678 73.387 163.118 72.3626C163.394 71.7156 163.504 71.0686 163.504 70.3677C163.504 69.7747 163.393 69.1816 163.173 68.5886C162.899 67.9416 162.458 67.5102 161.797 67.2946C161.357 67.1329 160.916 67.1329 160.477 67.1329C159.926 67.1329 159.376 67.4024 158.991 67.8338C158.551 68.3189 158.22 68.912 158.165 69.6129C158.165 70.0443 158.165 70.4756 158.165 70.9069C158.165 71.4461 158.33 71.9313 158.551 72.4165C158.991 73.2792 159.706 73.7644 160.311 73.7105L160.366 73.8183Z" fill="#212121"/>
<path d="M138.133 75.7044C138.133 75.5966 138.133 75.4347 138.133 75.3269C138.133 73.44 138.133 71.5529 138.133 69.6658C138.133 69.1266 138.078 68.5876 137.858 68.1023C137.693 67.6709 137.363 67.4014 136.868 67.2936C136.428 67.1858 136.042 67.1858 135.602 67.2936C134.942 67.4553 134.611 67.9406 134.336 68.4796C134.171 68.8571 134.061 69.2344 133.951 69.6658C133.841 70.0972 133.951 70.5823 133.951 71.0137C133.951 72.4694 133.951 73.9251 133.951 75.3808C133.951 75.4886 133.951 75.5966 133.951 75.7044H131.199V65.3526H133.785V66.7544C133.896 66.6466 133.951 66.6466 134.006 66.5927C134.721 65.7299 135.602 65.2448 136.702 65.137C137.252 65.0831 137.749 65.0831 138.299 65.1909C139.344 65.4604 140.114 65.9996 140.5 66.97C140.83 67.7787 140.94 68.5876 140.94 69.4502C140.94 71.3912 140.94 73.3859 140.94 75.3269C140.94 75.4347 140.94 75.5427 140.94 75.6505H138.188L138.133 75.7044Z" fill="#212121"/>
<path d="M118.539 65.3508H121.291C121.291 65.4586 121.291 65.6204 121.291 65.7282C121.291 67.5614 121.291 69.4484 121.291 71.2815C121.291 71.6589 121.291 72.0363 121.346 72.4137C121.456 73.0607 121.841 73.546 122.446 73.7616C122.556 73.7616 122.722 73.7616 122.887 73.7616C123.217 73.7616 123.492 73.7616 123.822 73.6538C124.428 73.3842 124.813 73.0068 125.088 72.4137C125.418 71.7128 125.473 70.958 125.473 70.2571C125.473 68.7475 125.473 67.184 125.473 65.6743C125.473 65.5665 125.473 65.4586 125.473 65.3508H128.225V75.7026H125.638V74.3008C125.528 74.4086 125.418 74.4625 125.363 74.5164C125.088 74.786 124.758 75.0556 124.428 75.2713C123.877 75.5948 123.327 75.8104 122.722 75.8643C122.061 75.9182 121.346 75.9722 120.685 75.7026C120.025 75.433 119.53 75.0556 119.144 74.4625C118.815 73.9773 118.649 73.3842 118.594 72.8451C118.539 72.4677 118.539 72.0903 118.539 71.7128C118.539 69.6641 118.539 67.6153 118.539 65.5665C118.539 65.5126 118.539 65.4047 118.539 65.2969V65.3508Z" fill="#212121"/>
<path d="M184.58 72.9513C184.58 73.6522 184.58 74.2992 184.58 74.8923C184.58 75.054 184.469 75.1079 184.359 75.2157C183.699 75.5393 183.038 75.7549 182.323 75.8627C181.387 75.9705 180.452 75.9705 179.516 75.8627C178.746 75.7549 178.03 75.4314 177.425 75.0001C176.654 74.4609 176.215 73.76 175.829 72.8974C175.663 72.5199 175.554 72.0887 175.499 71.7112C175.444 71.226 175.499 70.6869 175.499 70.1477C175.499 69.7163 175.554 69.339 175.663 68.9076C175.774 68.4224 175.994 67.9372 176.215 67.5058C176.71 66.5893 177.425 65.9423 178.361 65.5109C178.746 65.3492 179.076 65.2414 179.516 65.2414C179.792 65.2414 180.066 65.1875 180.342 65.1875C181.168 65.1875 181.938 65.2953 182.708 65.6188C183.533 65.9423 184.139 66.4815 184.524 67.2363C184.854 67.7754 185.019 68.4224 185.185 69.0154C185.35 69.7703 185.46 70.579 185.405 71.3878H178.085C177.975 71.7651 178.085 72.1426 178.251 72.4121C178.47 72.8974 178.801 73.2748 179.241 73.5444C179.682 73.8139 180.177 73.9757 180.727 73.9757C181.442 73.9757 182.102 73.9757 182.763 73.7061C183.259 73.5444 183.754 73.2748 184.304 73.0591C184.359 73.0591 184.469 73.0052 184.58 72.9513ZM182.708 69.5007C182.708 69.339 182.654 69.1772 182.654 69.0154C182.599 68.4763 182.378 67.9911 181.993 67.5597C181.663 67.2363 181.223 67.1284 180.837 67.0745C180.232 67.0206 179.626 67.0745 179.076 67.4519C178.691 67.7215 178.416 68.0989 178.251 68.5842C178.14 68.8537 178.03 69.1772 178.03 69.5007H182.708Z" fill="#212121"/>
<path d="M108.028 68.1024C108.028 67.3476 107.973 66.6467 107.918 65.8919C108.193 65.7841 108.468 65.6762 108.743 65.5684C109.238 65.4066 109.734 65.2449 110.229 65.191C110.889 65.1371 111.55 64.9753 112.211 65.0832C112.706 65.191 113.256 65.191 113.697 65.3527C114.852 65.6762 115.567 66.4311 115.897 67.5632C116.062 68.2102 116.173 68.9111 116.173 69.612C116.173 71.0677 116.173 72.5234 116.228 73.9792C116.228 74.5183 116.283 75.1114 116.338 75.6506H113.861C113.861 75.1653 113.806 74.6801 113.751 74.141C113.642 74.2488 113.586 74.3027 113.531 74.3566C113.146 74.9497 112.54 75.381 111.88 75.5967C111.77 75.5967 111.604 75.7045 111.495 75.7045C111.055 75.8662 110.614 75.8123 110.119 75.8123C109.349 75.8123 108.633 75.5428 108.028 75.1653C107.422 74.734 106.982 74.141 106.817 73.3861C106.597 72.3617 106.817 71.4452 107.477 70.6365C107.753 70.259 108.193 69.9895 108.633 69.8277C109.293 69.5581 110.009 69.4503 110.724 69.3425C111.495 69.2347 112.266 69.3425 113.035 69.2886C113.256 69.2886 113.421 69.2886 113.586 69.2886C113.586 69.2347 113.642 69.2347 113.642 69.1807C113.642 68.7494 113.642 68.318 113.366 67.8868C113.201 67.6171 112.981 67.3476 112.595 67.2398C111.495 66.8623 110.449 66.9702 109.348 67.4015C108.908 67.5632 108.468 67.7789 108.083 68.1024C108.083 68.1024 108.083 68.1024 108.028 68.1024ZM113.697 70.9599C113.586 70.9599 113.476 70.9599 113.366 70.9599C112.651 70.9599 111.99 70.9599 111.275 71.0677C111 71.0677 110.779 71.1756 110.559 71.2834C109.844 71.553 109.459 72.0922 109.459 72.847C109.459 73.3322 109.679 73.6557 110.064 73.8174C110.724 74.141 111.44 74.141 112.156 73.8174C112.871 73.494 113.366 72.9548 113.531 72.1461C113.642 71.7686 113.697 71.3913 113.697 70.9599Z" fill="#212121"/>
<path d="M89.8125 61.6328C89.9226 61.6328 90.0326 61.6328 90.0877 61.6328C92.5092 61.6328 94.8757 61.6328 97.2971 61.6328C97.4072 61.6328 97.5172 61.6328 97.6824 61.6328V63.8433H92.5642V67.2939H97.4072C97.4072 67.6714 97.4072 68.0487 97.4072 68.3723C97.4072 68.7496 97.4072 69.0732 97.4072 69.4505C97.4072 69.4505 97.4072 69.4505 97.4072 69.5044C97.132 69.5044 96.8568 69.5044 96.5816 69.5044C95.371 69.5044 94.1602 69.5044 92.9495 69.5044C92.8393 69.5044 92.7293 69.5044 92.6192 69.5044C92.6192 69.6123 92.6192 69.7202 92.6192 69.8819C92.6192 71.661 92.6192 73.4403 92.6192 75.2735C92.6192 75.3813 92.6192 75.4891 92.6192 75.6508C92.6192 75.6508 92.6192 75.6508 92.5642 75.7047C91.6286 75.7047 90.7481 75.7047 89.8125 75.7047C89.8125 75.6508 89.8125 75.5969 89.8125 75.4891C89.8125 70.9601 89.8125 66.4313 89.8125 61.8484C89.8125 61.8484 89.8125 61.7406 89.8125 61.6867C89.8125 61.6867 89.8125 61.6867 89.8675 61.6328H89.8125Z" fill="#212121"/>
<path d="M82.4378 62.9238C80.4566 64.2178 78.4754 65.5657 76.4942 66.8597C75.4486 67.5067 74.403 68.1535 73.3572 68.7466C72.2016 69.4475 71.0458 70.1484 69.8351 70.8493C67.1384 72.413 64.4417 73.9226 61.6351 75.3244C61.4149 75.4322 61.2499 75.54 60.9746 75.6478V72.5208C61.0847 72.5208 61.1398 72.413 61.2499 72.3591C64.4417 70.8493 67.6337 69.2858 70.7707 67.6145C72.1465 66.9136 73.5224 66.1049 74.8983 65.3499C76.4392 64.4873 77.9801 63.5708 79.521 62.6543C80.4566 62.1151 81.3372 61.522 82.2727 60.9289C82.2727 60.9289 82.3828 60.9289 82.4378 60.875C82.4378 60.875 82.4378 60.875 82.4929 60.875C82.4929 61.522 82.4929 62.169 82.4929 62.816C82.4929 62.816 82.4929 62.816 82.4929 62.8699L82.4378 62.9238Z" fill="#212121"/>
<path d="M171.921 67.2882V75.6451H169.169C169.169 72.8415 169.169 70.0918 169.169 67.2882H167.133V65.2933H169.114C169.114 65.1316 169.114 65.0236 169.114 64.9158C169.114 64.4846 169.114 64.0532 169.114 63.6218C169.114 63.2445 169.114 62.867 169.279 62.4897C169.664 61.4652 170.379 60.7104 171.536 60.4409C172.086 60.3331 172.691 60.3331 173.241 60.387C173.627 60.387 174.012 60.4948 174.398 60.5487C174.398 60.8182 174.398 61.0879 174.398 61.3035C174.342 61.5191 174.398 61.7888 174.342 62.0044C174.232 62.22 174.453 62.4897 174.177 62.7053C173.846 62.5975 173.572 62.4897 173.241 62.4358C172.581 62.328 172.086 62.7053 171.921 63.2984C171.921 63.514 171.865 63.7298 171.865 63.9454C171.865 64.3766 171.865 64.7541 171.865 65.1855C171.865 65.1855 171.865 65.2394 171.865 65.2933H174.232V67.2882C173.462 67.2882 172.636 67.2882 171.81 67.2882H171.921Z" fill="#212121"/>
<path d="M82.4929 58.3438C82.4929 58.6673 82.4929 58.9368 82.4929 59.2604C82.4929 59.2604 82.4929 59.2604 82.4929 59.3143C81.7774 59.6916 81.0619 60.123 80.2915 60.5004C78.8056 61.3092 77.2646 62.1179 75.7237 62.9266C74.458 63.5736 73.1371 64.2206 71.8713 64.8676C70.7157 65.4067 69.6149 65.8919 68.4593 66.4311C66.8082 67.1859 65.1022 67.8868 63.4511 68.6416C62.6807 68.9652 61.9102 69.2886 61.0847 69.6121C60.9746 69.2886 60.9746 66.4311 60.9746 65.5146C61.0847 65.5146 61.2499 65.4067 61.3599 65.4067C63.176 64.9754 64.9922 64.544 66.7532 64.0589C69.0646 63.4658 71.376 62.711 73.6324 61.9022C75.2284 61.3631 76.7693 60.77 78.3103 60.123C79.576 59.5838 80.8419 58.9907 82.1077 58.3977C82.1627 58.3977 82.2727 58.3438 82.3278 58.3438C82.3278 58.3438 82.3278 58.3438 82.3828 58.3438H82.4929Z" fill="#212121"/>
<path d="M102.25 67.62C102.415 66.7574 102.966 66.1104 103.626 65.5712C104.066 65.2477 104.562 65.0859 105.112 65.0859C105.387 65.0859 105.662 65.0859 105.938 65.1398V67.8356C105.552 67.7817 105.167 67.7278 104.782 67.6739C104.176 67.62 103.626 67.7817 103.241 68.267C102.911 68.6443 102.746 69.0757 102.636 69.561C102.525 69.9922 102.47 70.4236 102.47 70.8549C102.47 72.3646 102.47 73.8203 102.47 75.3299C102.47 75.4377 102.47 75.5455 102.47 75.6533H99.7188V65.3016H102.14C102.14 66.0565 102.14 66.8652 102.14 67.62H102.25Z" fill="#212121"/>
<path d="M193.496 65.1931C193.496 66.0557 193.496 66.9722 193.496 67.8349C193.496 67.8349 193.386 67.8349 193.331 67.8349C192.945 67.6731 192.561 67.6731 192.12 67.6731C191.349 67.6731 190.854 68.1045 190.525 68.7515C190.249 69.2906 190.084 69.9376 190.084 70.5845C190.084 72.1482 190.084 73.7117 190.084 75.2752C190.084 75.4369 190.084 75.5448 190.084 75.7066H187.332V65.3548C188.103 65.3548 188.928 65.3548 189.754 65.3548C189.754 66.1635 189.754 66.9183 189.754 67.6731C189.754 67.6731 189.754 67.6731 189.754 67.6192C189.864 66.8644 190.304 66.3252 190.854 65.7861C191.404 65.247 192.12 65.0312 192.89 65.0312C193.056 65.0312 193.276 65.0852 193.44 65.1392L193.496 65.1931Z" fill="#212121"/>
<path d="M186.176 84.2766C185.901 85.0853 185.626 85.8401 185.406 86.6488C185.075 87.5654 184.8 88.482 184.47 89.3985C184.249 89.9377 184.47 89.8838 183.754 89.8838C183.48 89.8838 183.204 89.8838 182.929 89.8838C182.268 87.9967 181.663 86.0557 181.003 84.1687V89.8299H179.627V82.8209H181.884C182.434 84.6 183.039 86.3254 183.589 88.1045C183.589 88.1045 183.644 88.1045 183.699 88.1045C183.699 88.0506 183.699 87.9428 183.699 87.8889C183.809 87.5114 183.92 87.188 184.03 86.8105C184.195 86.2175 184.415 85.6784 184.58 85.0853C184.8 84.4383 185.02 83.7913 185.185 83.1443C185.185 83.0365 185.185 82.8748 185.295 82.8209C185.406 82.7669 185.571 82.8209 185.68 82.8209C186.231 82.8209 186.726 82.8209 187.276 82.8209C187.387 82.8209 187.497 82.8209 187.607 82.8209V89.8299H186.231C186.231 87.9428 186.231 86.1096 186.231 84.2227V84.0609C186.231 84.0609 186.231 84.1687 186.176 84.2227V84.2766Z" fill="#212121"/>
<path d="M82.4929 56.3984V57.4229C75.6687 60.5499 68.4593 62.7065 60.9746 64.0005V61.6283C61.1397 61.6283 61.3049 61.6283 61.525 61.5744C61.8552 61.5744 62.1854 61.5744 62.5156 61.4665C63.066 61.4126 63.6713 61.3586 64.2217 61.3047C64.772 61.2508 65.3223 61.143 65.9277 61.0891C66.2028 61.0891 66.4781 61.0352 66.7532 60.9813C67.0284 60.9813 67.3036 60.8735 67.5787 60.8195C68.3492 60.6577 69.1196 60.496 69.8351 60.3343C71.211 60.0647 72.5868 59.6873 73.9627 59.3099C75.3384 58.9325 76.6593 58.5011 78.0351 58.0699C79.521 57.5846 80.9519 56.9915 82.3828 56.3984C82.3828 56.3984 82.3828 56.3984 82.4378 56.3984H82.4929Z" fill="#212121"/>
<path d="M82.4934 63.5156C82.4934 63.7853 82.4934 64.1087 82.4934 64.3784C82.4934 64.5401 82.4934 64.6479 82.3283 64.7557C81.888 65.0793 81.4477 65.4566 80.9524 65.7802C79.9618 66.4811 79.0263 67.182 78.0357 67.8829C75.8893 69.4464 73.6879 70.956 71.3766 72.3039C69.6155 73.3822 67.7993 74.4605 66.0382 75.5389C65.9282 75.5928 65.8181 75.6467 65.7081 75.6467C64.8826 75.6467 64.057 75.6467 63.1765 75.6467C63.1765 75.6467 63.1214 75.6467 63.0664 75.6467C63.1765 75.5928 63.2866 75.5389 63.3416 75.4849C65.8181 74.0831 68.3497 72.6813 70.7711 71.1716C73.0275 69.7698 75.284 68.3141 77.4852 66.8584C79.0263 65.8341 80.5122 64.7557 82.0531 63.6775C82.1631 63.6235 82.2181 63.5696 82.3283 63.5156H82.4383H82.4934Z" fill="#212121"/>
<path d="M177.535 89.9427C177.48 89.9427 177.425 89.9427 177.369 89.9427C176.874 89.9427 176.378 89.9427 175.883 89.9427C175.883 89.9427 175.828 89.9427 175.773 89.9427C175.499 89.8349 175.223 89.8888 174.947 89.7809C174.013 89.4035 173.242 88.8104 172.911 87.7861C172.801 87.4626 172.801 87.1391 172.746 86.8156C172.692 86.1686 172.746 85.5216 172.966 84.8746C173.352 83.8502 174.068 83.1493 175.168 82.8798C175.608 82.7719 176.049 82.718 176.433 82.6641C176.93 82.6641 177.809 82.7719 178.25 82.9876C178.25 83.365 178.14 83.6885 178.085 84.1198C177.975 84.1198 177.809 84.012 177.699 84.012C176.874 83.6885 176.049 83.7424 175.278 84.1198C174.728 84.3894 174.397 84.8746 174.232 85.4677C174.068 86.0607 174.068 86.7077 174.232 87.3008C174.342 87.7322 174.618 88.0556 174.947 88.3791C175.553 88.8643 176.214 88.9722 176.984 88.8643C177.369 88.8104 177.699 88.7565 178.085 88.7026C178.085 88.7026 178.085 88.7026 178.14 88.7026C178.14 89.0261 178.14 89.4035 178.195 89.7809C177.92 89.7809 177.645 89.8888 177.425 89.9427H177.535Z" fill="#212121"/>
<path d="M186.176 84.2712C186.176 84.2712 186.176 84.1633 186.231 84.1094V84.2712H186.121H186.176Z" fill="#212121"/>
<path d="M146.606 66.6469C146.606 66.6469 146.551 66.6469 146.496 66.6469C146.496 66.6469 146.496 66.593 146.496 66.5391C146.496 66.5391 146.551 66.5391 146.606 66.593V66.6469Z" fill="#212121"/>
<path d="M178.25 88.6945C178.25 88.6945 178.25 88.6945 178.195 88.6945C178.195 88.6945 178.195 88.6945 178.195 88.6406C178.195 88.6406 178.195 88.6945 178.195 88.7484L178.25 88.6945Z" fill="#212121"/>
<path d="M82.4909 63.5154H82.3809C82.3809 63.4615 82.4909 63.4076 82.4909 63.5154Z" fill="#212121"/>
<path d="M82.4909 65.5717C82.4909 65.5717 82.4359 65.5717 82.3809 65.5717C82.4359 65.5178 82.4359 65.5178 82.4909 65.5717Z" fill="#212121"/>
<path d="M189.863 67.6172C189.863 67.6172 189.863 67.6172 189.863 67.6711C189.863 67.6711 189.863 67.6711 189.918 67.6711L189.863 67.6172Z" fill="#212121"/>
<path d="M92.5625 75.7025C92.5625 75.7025 92.5625 75.7025 92.6175 75.6484C92.6175 75.6484 92.6175 75.6484 92.5625 75.7025Z" fill="#212121"/>
<path d="M153.432 75.7025C153.432 75.7025 153.432 75.7025 153.487 75.6484C153.487 75.6484 153.487 75.6484 153.432 75.7025Z" fill="#212121"/>
<path d="M89.8128 61.6328C89.8128 61.6328 89.8128 61.6328 89.7578 61.6867C89.7578 61.6867 89.7578 61.6867 89.8128 61.6328Z" fill="#212121"/>
<path d="M146.497 60.6633C146.497 60.6633 146.497 60.6633 146.441 60.6094C146.441 60.6094 146.441 60.6094 146.497 60.6633Z" fill="#212121"/>
<path d="M146.441 75.7025C146.441 75.7025 146.441 75.7025 146.497 75.6484C146.497 75.6484 146.497 75.6484 146.441 75.7025Z" fill="#212121"/>
</g>
</g>
<defs>
<clipPath id="clip0_10264_27704">
<rect width="253.54" height="143.3" fill="white" transform="translate(0.939453 0.109375)"/>
</clipPath>
<clipPath id="clip1_10264_27704">
<rect width="253.54" height="143.3" fill="white" transform="translate(0.939453 0.109375)"/>
</clipPath>
</defs>
</svg>
