<svg width="254" height="144" viewBox="0 0 254 144" fill="none" xmlns="http://www.w3.org/2000/svg">
<g clip-path="url(#clip0_10264_27771)">
<g clip-path="url(#clip1_10264_27771)">
<path d="M79.364 50.6818C81.2253 50.5455 83.0528 50.7498 84.8463 51.2604C86.843 51.805 88.738 52.5879 90.4977 53.6431C92.4606 54.8005 94.1526 56.2983 95.6416 57.9662C97.3337 59.8384 98.6197 61.9828 99.5334 64.3316C100.346 66.374 100.819 68.4844 100.989 70.697C101.225 73.8627 100.785 76.9603 99.6688 79.9217C98.7888 82.2364 97.5706 84.3128 95.9801 86.185C94.288 88.1933 92.2913 89.8612 90.0241 91.1548C87.7905 92.4143 85.4216 93.2652 82.9174 93.6737C81.8007 93.8439 80.65 93.9801 79.5333 93.9801C76.8598 93.9801 74.254 93.5715 71.7498 92.6184C69.3809 91.7334 67.2489 90.508 65.3199 88.8741C63.188 87.07 61.4282 84.9596 60.1085 82.4747C59.127 80.6025 58.3826 78.6282 57.9764 76.5518C57.7395 75.2242 57.638 73.8627 57.5703 72.5011C57.5703 72.2629 57.6718 72.1266 57.9087 72.1266C58.5855 72.1266 59.2285 72.1266 59.9054 72.1266C60.2099 72.1266 60.2776 72.3309 60.2776 72.6032C60.3114 74.2371 60.5483 75.8369 60.9883 77.3687C61.8681 80.4663 63.4249 83.1895 65.6922 85.5382C67.858 87.7508 70.3961 89.3166 73.2727 90.3378C75.9799 91.2909 78.7549 91.5293 81.5976 91.1888C84.3387 90.8825 86.8768 89.9975 89.2457 88.5678C91.4454 87.2062 93.3066 85.5382 94.8295 83.4278C96.3862 81.2833 97.4691 78.9005 98.0105 76.3135C98.7211 72.9436 98.552 69.6078 97.4691 66.3059C96.6908 63.9232 95.4724 61.8126 93.8819 59.9065C92.9005 58.715 91.7161 57.6939 90.4301 56.7748C88.7719 55.5835 86.9783 54.6984 85.0494 54.0856C83.6957 53.6431 82.3082 53.3709 80.8869 53.3028C80.4131 53.3028 79.9055 53.2347 79.4317 53.2347C76.183 53.2347 73.0696 53.9836 70.2269 55.5835C69.7532 55.8558 69.7193 55.8217 69.4147 55.3792C69.144 54.9367 68.9071 54.4942 68.6363 54.0517C68.3995 53.6772 68.4334 53.507 68.8394 53.3028C70.2269 52.5539 71.6483 51.9412 73.1711 51.4987C75.2015 50.8179 77.2659 50.5455 79.364 50.6818Z" fill="#212121"/>
<path d="M79.1611 86.4886C82.8498 86.4886 85.997 85.3312 88.6706 83.0165C89.7873 82.0634 90.7348 80.9741 91.4794 79.7148C91.6486 79.4084 91.8178 79.2721 92.1561 79.5105C92.6299 79.8168 93.1714 80.0891 93.679 80.3955C93.9497 80.5316 93.9835 80.7359 93.8143 81.0082C92.0884 83.8335 89.7535 86.0121 86.7754 87.4416C84.8803 88.3607 82.8498 88.9395 80.7178 89.1097C76.0816 89.45 71.9529 88.1225 68.4335 85.161C65.2185 82.4719 63.2558 78.9658 62.6466 74.779C62.1051 71.341 62.6466 68.005 64.1356 64.8735C64.8463 63.4097 65.7939 62.0822 66.8768 60.8568C68.5351 59.0187 70.4978 57.6231 72.799 56.6699C74.4572 55.9891 76.217 55.5466 78.0106 55.4104C80.7178 55.2062 83.3236 55.6147 85.8278 56.6359C88.6029 57.7592 90.8702 59.5292 92.6976 61.912C93.1037 62.4226 93.4422 62.9332 93.7805 63.4779C94.0174 63.8522 93.9497 63.9885 93.5775 64.1926C93.0699 64.4649 92.5622 64.7373 92.0546 65.0437C91.8178 65.1798 91.7163 65.1458 91.5809 64.9075C90.5317 63.1715 89.1781 61.7418 87.5199 60.5845C85.7601 59.3591 83.8312 58.5421 81.6993 58.2017C79.2965 57.7933 76.9277 57.9635 74.6264 58.7803C72.8667 59.3931 71.2762 60.3462 69.8548 61.5716C67.9936 63.1715 66.7415 65.1458 65.8954 67.4264C65.3877 68.754 65.1509 70.1496 65.0833 71.6133C64.9817 73.928 65.3877 76.1406 66.3692 78.251C66.9106 79.4424 67.6213 80.5316 68.4674 81.5188C69.7533 83.0506 71.31 84.2079 73.1036 85.093C75.0664 86.046 77.1306 86.5226 79.1611 86.4886Z" fill="#212121"/>
<path d="M74.7268 72.3973C73.3393 72.3973 71.9517 72.3973 70.5643 72.3973C70.192 72.3973 70.0566 72.5335 70.0566 72.9079C70.0566 73.3844 70.0905 73.827 70.192 74.2695C70.3274 75.1204 71.0719 75.6651 72.0871 75.7331C73.3393 75.8352 74.5914 75.8693 75.8435 75.7331C76.4527 75.6651 77.0618 75.5289 77.4679 74.9843C77.5694 74.8481 77.7048 74.8141 77.874 74.8141C78.1447 74.8141 78.4492 74.8141 78.72 74.8141C79.1599 74.8141 79.2615 74.9502 79.0584 75.3927C78.5508 76.5161 77.6033 77.0267 76.4527 77.1969C75.0313 77.4011 73.6099 77.299 72.1886 77.2649C71.6134 77.2649 71.0042 77.1628 70.4627 76.9245C69.2783 76.414 68.703 75.4609 68.5676 74.2014C68.3984 72.7037 68.3984 71.2399 68.6691 69.7422C68.8722 68.6189 69.9889 67.5296 71.1396 67.3934C72.8655 67.1552 74.5576 67.1893 76.2835 67.3254C77.4679 67.3934 78.4154 67.87 79.0246 68.9593C79.1938 69.2656 79.3292 69.572 79.363 69.9124C79.4645 70.5251 79.4984 71.1719 79.5322 71.8187C79.5322 72.3632 79.4984 72.3973 78.9569 72.3973C77.5694 72.3973 76.1819 72.3973 74.7945 72.3973H74.7268ZM73.9484 70.8996C75.0989 70.8996 76.2835 70.8996 77.434 70.8996C77.6033 70.8996 77.874 70.9676 77.8063 70.6953C77.7386 70.2188 77.6371 69.7081 77.231 69.3338C76.791 68.9593 76.2835 68.8913 75.7758 68.8231C74.5576 68.6529 73.3392 68.687 72.1548 68.8231C70.9704 68.9593 70.3612 69.4699 70.1581 70.491C70.0905 70.8315 70.1581 70.9335 70.4966 70.9335C71.6472 70.9335 72.7978 70.9335 73.9484 70.9335V70.8996Z" fill="#212121"/>
<path d="M192.529 77.1974C191.243 77.1974 189.991 77.1974 188.772 77.0613C187.418 76.8911 186.708 76.1763 186.573 74.8487C186.404 72.9765 186.37 71.1043 186.674 69.2322C186.844 68.245 187.588 67.6664 188.772 67.5302C190.498 67.326 192.258 67.2919 193.984 67.36C194.695 67.36 195.405 67.428 196.116 67.5982C196.962 67.8025 197.537 68.4152 197.673 69.3002C197.707 69.6747 197.774 70.0151 197.74 70.3895C197.74 70.6278 197.606 70.764 197.369 70.764C197.3 70.764 197.267 70.764 197.199 70.764C196.319 70.764 196.218 70.8661 196.252 69.8789C196.252 69.3343 196.082 69.1641 195.541 68.9598C194.931 68.7556 194.323 68.7556 193.713 68.7216C192.698 68.6535 191.682 68.6195 190.667 68.7216C190.194 68.7896 189.72 68.7896 189.246 68.8237C188.468 68.9259 188.164 69.1641 188.062 69.9129C187.892 71.2065 187.961 72.4999 187.994 73.7935C187.994 73.9977 187.994 74.2019 188.028 74.4062C188.095 75.2232 188.468 75.6316 189.28 75.6657C191.175 75.8018 193.105 75.7677 195 75.6657C196.015 75.5975 196.319 75.2912 196.319 74.236C196.319 73.6573 196.353 73.6233 196.929 73.6233C197.808 73.6233 197.774 73.6232 197.808 74.4743C197.808 74.8146 197.774 75.121 197.707 75.4614C197.571 76.2784 197.063 76.7549 196.285 76.9251C195.033 77.2315 193.713 77.0953 192.495 77.1293L192.529 77.1974Z" fill="#212121"/>
<path d="M112.764 77.1984C111.411 77.1984 110.125 77.1984 108.839 77.0623C107.451 76.8921 106.943 76.1432 106.774 74.9858C106.504 73.1818 106.571 71.3777 106.774 69.6076C106.91 68.3481 107.688 67.6674 109.042 67.4972C110.734 67.327 112.426 67.2929 114.084 67.361C114.828 67.361 115.606 67.429 116.352 67.5993C117.231 67.8035 117.807 68.4844 117.908 69.4034C117.908 69.7437 117.975 70.0501 117.975 70.3905C117.975 70.6969 117.84 70.833 117.536 70.7991C117.536 70.7991 117.536 70.7991 117.501 70.7991C116.893 70.7991 116.554 70.5153 116.487 69.948C116.419 69.3694 116.216 69.131 115.675 68.9949C115.065 68.8247 114.457 68.8247 113.813 68.7907C112.459 68.6885 111.106 68.7567 109.752 68.8928C108.466 69.0289 108.365 69.131 108.196 70.6288C108.06 71.9904 108.162 73.352 108.263 74.6795C108.331 75.3603 108.737 75.7348 109.482 75.7687C111.377 75.9049 113.306 75.8709 115.201 75.7687C115.404 75.7687 115.641 75.7007 115.843 75.6326C116.419 75.4624 116.453 74.9519 116.52 74.4753C116.52 74.237 116.385 73.8966 116.723 73.7945C117.062 73.6583 117.468 73.6924 117.84 73.7945C117.942 73.7945 118.01 73.9306 118.01 73.9987C118.01 74.9519 118.111 75.9049 117.299 76.6539C116.859 77.0623 116.283 77.0964 115.742 77.1644C114.727 77.3005 113.678 77.2325 112.73 77.2325L112.764 77.1984Z" fill="#212121"/>
<path d="M171.547 72.2248C171.547 70.7612 171.547 69.3315 171.547 67.8677C171.547 67.3913 171.615 67.3231 172.088 67.3231C172.698 67.3231 173.002 67.6181 173.002 68.2081C173.002 69.1272 173.002 70.0463 173.002 70.9653C173.002 71.3739 173.138 71.4759 173.51 71.4759C174.187 71.51 174.761 71.3398 175.371 70.9314C177.029 69.774 178.721 68.6847 180.379 67.5614C180.65 67.3572 180.955 67.2891 181.293 67.2891C181.767 67.2891 182.274 67.2891 182.748 67.2891C182.884 67.2891 183.019 67.2891 183.053 67.4252C183.121 67.5954 182.951 67.6635 182.85 67.7316C181.666 68.5145 180.481 69.2633 179.331 70.0463C178.383 70.659 177.436 71.3057 176.488 71.9184C176.217 72.0887 176.184 72.1907 176.488 72.395C177.436 72.9737 178.349 73.6204 179.263 74.2331C180.582 75.0842 181.869 75.9351 183.188 76.7862C183.29 76.8542 183.459 76.9223 183.425 77.0925C183.391 77.2967 183.188 77.2287 183.053 77.2287C182.511 77.2287 181.936 77.2287 181.395 77.2287C181.158 77.2287 180.989 77.1265 180.786 77.0244C178.857 75.7308 176.928 74.4715 174.998 73.1779C174.423 72.7695 173.814 72.9056 173.205 72.9397C172.968 72.9397 173.002 73.1779 173.002 73.3481C173.002 74.4374 173.002 75.4926 173.002 76.5819C173.002 77.2287 173.002 77.2287 172.359 77.2287C171.818 77.2287 171.547 76.9563 171.547 76.4117C171.547 75.0161 171.547 73.6545 171.547 72.2589V72.2248Z" fill="#212121"/>
<path d="M124.203 73.7258C124.203 72.7728 124.203 71.7856 124.203 70.8325C124.203 70.3218 124.27 70.2538 124.744 70.2538C125.083 70.2538 125.489 70.1177 125.523 70.6963C125.523 70.8325 125.691 70.7644 125.76 70.6963C126.234 70.2879 126.775 70.2538 127.35 70.1857C128.23 70.1177 129.11 70.1517 129.99 70.2879C130.531 70.3559 131.005 70.5602 131.377 70.9686C131.479 71.1047 131.613 71.1388 131.749 70.9686C132.324 70.2197 133.204 70.2197 134.017 70.1517C134.93 70.0836 135.81 70.1517 136.724 70.2879C137.57 70.4581 138.348 71.1729 138.449 72.1601C138.585 73.6918 138.449 75.2236 138.518 76.7554C138.518 76.9936 138.382 77.0958 138.145 77.1298C137.265 77.1979 137.198 77.1298 137.198 76.3129C137.198 75.2576 137.198 74.2364 137.198 73.1812C137.164 71.8196 136.927 71.4792 135.405 71.3772C134.896 71.3772 134.389 71.3431 133.848 71.3772C132.663 71.4792 132.189 71.8537 132.087 73.0451C131.986 74.2364 132.087 75.3938 132.02 76.5852C132.02 77.1298 131.986 77.1298 131.343 77.1298C130.768 77.1298 130.701 77.1298 130.701 76.5511C130.701 75.4278 130.701 74.3385 130.701 73.2153C130.701 73.1471 130.701 73.0451 130.701 72.9769C130.666 71.6835 130.429 71.5813 129.347 71.4111C128.534 71.275 127.689 71.309 126.876 71.4111C126.03 71.5474 125.691 71.9899 125.59 72.8408C125.454 74.0321 125.557 75.2236 125.523 76.415C125.523 77.1298 125.523 77.1298 124.88 77.1298C124.203 77.1298 124.203 77.1298 124.203 76.3809C124.203 75.4618 124.203 74.5768 124.203 73.6578V73.7258Z" fill="#212121"/>
<path d="M147.52 74.4748C147.52 75.2236 147.52 75.9385 147.52 76.6874C147.52 76.9256 147.52 77.1979 147.215 77.1979C146.911 77.1979 146.437 77.4362 146.301 76.8915C146.268 76.7214 146.2 76.6533 146.065 76.7895C145.557 77.3001 144.846 77.266 144.237 77.3001C143.121 77.3342 141.97 77.3681 140.853 77.232C139.601 77.0958 139.059 76.2788 139.127 75.0195C139.161 74.3727 139.296 73.7259 139.939 73.3175C140.21 73.1473 140.515 73.1132 140.786 73.0791C142.342 72.943 143.899 72.9089 145.421 73.1132C145.658 73.1132 145.828 73.2153 146.031 73.3514C146.098 73.3855 146.167 73.5216 146.268 73.4536C146.369 73.3855 146.335 73.2834 146.335 73.1813C146.335 72.0239 145.76 71.4793 144.643 71.4112C143.628 71.3772 142.612 71.3431 141.631 71.4794C141.09 71.5474 140.954 71.6835 140.853 72.2282C140.819 72.4324 140.717 72.5346 140.515 72.5346C140.515 72.5346 140.515 72.5346 140.48 72.5346C140.176 72.5005 139.77 72.7048 139.533 72.3643C139.331 72.0921 139.533 71.3431 139.77 71.0367C140.243 70.424 140.954 70.3219 141.665 70.2539C142.849 70.1177 144.034 70.1517 145.218 70.2539C146.167 70.356 147.012 70.5942 147.418 71.5474C147.52 71.7857 147.587 72.058 147.587 72.3303C147.587 73.0451 147.587 73.76 147.587 74.4407L147.52 74.4748ZM143.052 74.1684C142.478 74.1684 141.834 74.1004 141.191 74.2365C140.752 74.3046 140.48 74.645 140.48 75.1215C140.48 75.564 140.717 75.8363 141.157 75.9385C141.733 76.0747 142.274 75.9725 142.849 76.0406C143.763 76.1427 144.677 76.0406 145.591 75.8704C145.828 75.8363 145.997 75.7002 146.098 75.462C146.335 74.8152 146.031 74.3727 145.253 74.2365C144.542 74.1344 143.865 74.1684 143.086 74.1684H143.052Z" fill="#212121"/>
<path d="M160.921 74.1035C159.871 74.1035 158.823 74.1035 157.739 74.1035C157.266 74.1035 157.164 74.2396 157.266 74.6821C157.469 75.6012 157.706 75.8394 158.653 75.9757C159.905 76.1458 161.192 76.1798 162.443 75.9757C162.85 75.9076 163.154 75.7033 163.221 75.2608C163.29 75.0226 163.425 74.9204 163.661 74.9544C163.73 74.9544 163.764 74.9544 163.831 74.9544C164.677 74.9544 164.812 75.1928 164.474 75.9757C164.135 76.7245 163.493 77.0648 162.749 77.167C161.158 77.4053 159.533 77.3712 157.943 77.133C156.961 76.9968 156.284 76.4182 156.047 75.465C155.743 74.2737 155.709 73.0822 156.115 71.8909C156.487 70.7675 157.401 70.3932 158.484 70.291C159.634 70.1889 160.819 70.223 161.97 70.291C163.391 70.3932 164.508 71.2441 164.575 72.7759C164.575 73.0142 164.644 73.2524 164.644 73.4908C164.644 74.1035 164.644 74.1374 164.034 74.1374C162.986 74.1374 161.936 74.1374 160.921 74.1374V74.1035ZM160.244 72.9801C161.089 72.9801 161.936 72.9801 162.782 72.9801C163.12 72.9801 163.221 72.8781 163.154 72.5717C163.053 72.0611 162.647 71.6186 161.936 71.5505C160.785 71.3803 159.601 71.4143 158.416 71.5505C157.841 71.6186 157.469 71.959 157.299 72.5377C157.198 72.8781 157.266 73.0142 157.638 73.0142C158.484 73.0142 159.33 73.0142 160.177 73.0142L160.244 72.9801Z" fill="#212121"/>
<path d="M84.0321 72.1262C84.0321 71.2411 84.0321 70.3221 84.0321 69.4371C84.0321 69.0286 83.8178 68.8243 83.3891 68.8243C83.1184 68.8243 82.8815 68.8243 82.6107 68.8243C82.3738 68.8243 82.2385 68.6882 82.2385 68.45C82.2385 68.45 82.2385 68.45 82.2385 68.4159C82.1934 67.7124 82.5206 67.3607 83.2199 67.3607C84.0659 67.3607 84.0321 67.4287 84.0321 66.5778C84.0321 66.2033 84.0321 65.8289 84.0321 65.4204C84.0321 65.1481 84.1336 65.0119 84.4382 64.9779C85.4873 64.9099 85.4873 64.9099 85.4873 65.9651C85.4873 66.2714 85.4873 66.5778 85.4873 66.9182C85.4873 67.2246 85.6226 67.3607 85.9272 67.3607C87.1794 67.3607 88.4315 67.3607 89.6497 67.3607C90.2589 67.3607 90.2928 67.3607 90.2928 68.0074C90.2928 68.5521 90.022 68.8243 89.4805 68.8243C88.33 68.8243 87.1455 68.8243 85.9949 68.8243C85.6226 68.8243 85.4873 68.9264 85.4873 69.3009C85.4873 71.071 85.4873 72.841 85.4873 74.6111C85.4873 75.3259 85.9272 75.7344 86.6379 75.7684C87.6869 75.7684 88.7361 75.7684 89.7513 75.7684C90.2251 75.7684 90.2928 75.8365 90.2928 76.3131C90.2928 76.9258 89.9994 77.2322 89.4128 77.2322C88.4992 77.2322 87.5854 77.2322 86.6717 77.2322C85.2843 77.3002 83.8967 76.0068 84.0321 74.5771C84.0997 73.7601 84.0321 72.9431 84.0321 72.1262Z" fill="#212121"/>
<path d="M152.866 71.4056C152.256 71.4056 151.614 71.4056 151.004 71.4056C150.7 71.4056 150.564 71.5077 150.564 71.8481C150.564 72.9033 150.564 73.9585 150.564 75.0139C150.564 75.5244 150.768 75.7968 151.241 75.9669C151.918 76.1712 152.629 76.1371 153.34 76.035C153.711 75.9669 153.983 75.7287 153.983 75.2521C153.983 74.9457 154.05 74.6734 154.05 74.3671C154.05 74.0948 154.151 73.9585 154.422 73.9585C155.302 73.8905 155.472 74.0267 155.336 74.9117C155.235 75.5925 155.235 76.2732 154.625 76.7498C154.185 77.1243 153.644 77.1923 153.103 77.2604C152.256 77.3625 151.411 77.3286 150.598 77.1243C149.684 76.8861 149.244 76.2393 149.21 75.2862C149.21 74.1628 149.21 73.0735 149.21 71.9503C149.21 71.5758 149.109 71.4056 148.703 71.4397C148.466 71.4397 148.229 71.4397 148.026 71.4397C147.552 71.4397 147.586 71.1333 147.586 70.827C147.586 70.5206 147.621 70.2483 148.026 70.2823C148.298 70.2823 148.602 70.2823 148.872 70.2823C149.076 70.2823 149.21 70.1802 149.21 69.942C149.21 69.6696 149.21 69.3632 149.21 69.0909C149.21 68.7846 149.313 68.6484 149.651 68.6484C150.497 68.6484 150.531 68.6484 150.531 69.4654C150.531 70.3504 150.463 70.2823 151.342 70.2823C152.426 70.2823 153.543 70.2823 154.625 70.2823C155.099 70.2823 155.167 70.3504 155.167 70.861C155.167 71.3375 155.099 71.4056 154.659 71.4397C154.05 71.4397 153.441 71.4397 152.832 71.4397L152.866 71.4056Z" fill="#212121"/>
<path d="M185.422 72.2929C185.422 73.7566 185.422 75.1863 185.422 76.6499C185.422 77.0244 185.287 77.1946 184.915 77.1946C183.764 77.1946 183.866 77.2967 183.866 76.1735C183.866 73.4162 183.866 70.693 183.866 67.9358C183.866 67.3231 183.866 67.2891 184.508 67.2891C185.118 67.2891 185.422 67.5954 185.422 68.2081C185.422 69.5697 185.422 70.9314 185.422 72.2929Z" fill="#212121"/>
<path d="M81.8341 72.2639C81.8341 73.7275 81.8341 75.1572 81.8341 76.6208C81.8341 77.1315 81.8002 77.1996 81.2927 77.1996C80.6835 77.1996 80.3789 76.8932 80.3789 76.2805C80.3789 73.5233 80.3789 70.7321 80.3789 67.9748C80.3789 67.3621 80.3789 67.3281 81.0219 67.3281C81.5634 67.3281 81.8341 67.6004 81.8341 68.145C81.8341 69.5067 81.8341 70.9023 81.8341 72.2639Z" fill="#212121"/>
<path d="M119.16 72.2248C119.16 70.7612 119.16 69.3315 119.16 67.8677C119.16 67.3231 119.193 67.2891 119.837 67.2891C120.411 67.2891 120.48 67.3231 120.48 67.8677C120.48 70.7951 120.48 73.7225 120.48 76.616C120.48 77.0925 120.411 77.1605 119.938 77.1605C119.837 77.1605 119.735 77.1605 119.6 77.1605C119.262 77.1605 119.16 77.0244 119.16 76.684C119.16 75.5607 119.16 74.4715 119.16 73.3481C119.16 72.9737 119.16 72.5993 119.16 72.1907V72.2248Z" fill="#212121"/>
<path d="M121.598 73.7262C121.598 72.7392 121.598 71.752 121.598 70.7648C121.598 70.3904 121.733 70.2202 122.105 70.2543C122.24 70.2543 122.376 70.2543 122.512 70.2543C122.816 70.2543 122.917 70.3904 122.917 70.6968C122.917 72.7392 122.917 74.7815 122.917 76.8239C122.917 77.0961 122.782 77.1983 122.512 77.2323C121.632 77.3004 121.598 77.2323 121.598 76.3814C121.598 75.4964 121.598 74.6453 121.598 73.7603V73.7262Z" fill="#212121"/>
<path d="M168.062 74.4013C167.249 74.4013 166.404 74.4013 165.591 74.4013C165.253 74.4013 165.117 74.2651 165.117 73.9247C165.117 72.9375 165.117 72.9375 166.065 72.9375C167.52 72.9375 169.01 72.9375 170.465 72.9375C171.006 72.9375 171.04 72.9716 171.04 73.5161C171.04 74.1062 170.747 74.4013 170.16 74.4013C169.45 74.4013 168.773 74.4013 168.062 74.4013Z" fill="#212121"/>
<path d="M81.8343 65.7294C81.8343 66.2059 81.5748 66.4443 81.0559 66.4443C80.537 66.4443 80.3001 66.1833 80.3453 65.6614C80.3904 65.1394 80.6498 64.9125 81.1236 64.9805C81.5974 65.0486 81.8229 65.2982 81.8004 65.7294H81.8343Z" fill="#212121"/>
<path d="M122.917 68.0709C122.917 68.2071 122.917 68.3432 122.917 68.4453C122.917 68.7517 122.816 68.8878 122.477 68.8878C121.598 68.9219 121.598 68.8878 121.598 68.0369C121.598 67.3901 122.139 67.0497 122.714 67.356C123.019 67.5262 122.85 67.8326 122.917 68.0709Z" fill="#212121"/>
</g>
</g>
<defs>
<clipPath id="clip0_10264_27771">
<rect width="253.54" height="143.3" fill="white" transform="translate(0.46875 0.109375)"/>
</clipPath>
<clipPath id="clip1_10264_27771">
<rect width="253.54" height="143.3" fill="white" transform="translate(0.46875 0.109375)"/>
</clipPath>
</defs>
</svg>
