<svg width="255" height="144" viewBox="0 0 255 144" fill="none" xmlns="http://www.w3.org/2000/svg">
<g clip-path="url(#clip0_10264_27740)">
<g clip-path="url(#clip1_10264_27740)">
<mask id="mask0_10264_27740" style="mask-type:luminance" maskUnits="userSpaceOnUse" x="59" y="49" width="137" height="45">
<path d="M195.713 49.7109H59.125V93.8066H195.713V49.7109Z" fill="white"/>
</mask>
<g mask="url(#mask0_10264_27740)">
<path d="M71.8634 49.7109C74.1769 51.9929 76.0774 54.5669 77.4308 57.5298C78.963 60.8826 79.5656 64.3733 79.0415 68.0389C78.9597 68.6101 78.9151 69.188 78.866 69.7637C78.854 69.9059 78.8912 70.0525 78.9053 70.197C78.9652 70.2056 79.0251 70.2143 79.0851 70.223C79.2954 69.5334 79.5046 68.8448 79.7389 68.078C79.8817 68.2387 79.9798 68.3332 80.0615 68.4418C81.2198 69.9927 82.3849 71.5383 83.5214 73.1045C83.687 73.3325 83.7808 73.6584 83.7906 73.9429C83.8244 74.8585 83.8025 75.7773 83.8025 76.7537C83.0289 76.7537 82.4153 76.7537 81.707 76.7537C80.7742 76.7537 79.8413 76.7668 78.9086 76.7472C78.5184 76.7385 78.3005 76.8026 78.2972 77.2685C78.2939 77.7931 78.197 78.3167 78.1305 78.9249H75.6632C74.323 78.9249 74.3447 78.9249 74.2826 80.2771C74.081 84.5964 73.863 88.9159 73.6451 93.2342C73.6353 93.4254 73.5612 93.6143 73.5166 93.8034H73.2986C73.2605 93.5188 73.1983 93.2342 73.1885 92.9486C73.1296 91.3205 73.0926 89.6925 73.0316 88.0643C72.8006 81.8421 72.563 75.621 72.3254 69.3998C72.321 69.2749 72.2808 69.1511 72.2567 69.0262C72.2099 69.0251 72.1619 69.024 72.1151 69.0229C72.089 69.1684 72.0475 69.3129 72.0399 69.4584C71.8808 72.6581 71.725 75.8577 71.5692 79.0574C71.4383 81.7508 71.3131 84.4455 71.1659 87.1379C71.1529 87.3877 71.0024 87.63 70.9154 87.8754C70.838 87.6169 70.705 87.3606 70.693 87.0989C70.5764 84.5498 70.4816 81.9997 70.3727 79.4505C70.366 79.3007 70.3062 79.0345 70.2451 79.0258C69.8899 78.9792 69.515 78.9455 69.1706 79.0182C69.0649 79.0399 68.9854 79.4082 68.9756 79.621C68.8819 81.6281 68.8088 83.6353 68.7162 85.6424C68.7097 85.7966 68.5975 85.9454 68.5353 86.0964C68.4481 85.9432 68.301 85.7966 68.2814 85.6348C68.0863 83.9992 67.9142 82.3612 67.73 80.7245C67.6657 80.1565 67.5872 79.5896 67.5099 78.9835C67.1437 78.9835 66.8375 78.9835 66.5313 78.9835C65.7155 78.9849 65.2628 78.5766 65.1734 77.7584C65.0677 76.7874 65.0677 76.7928 64.075 76.7863C62.4241 76.7754 60.772 76.757 59.1211 76.7418C59.1243 75.7969 59.1243 74.839 59.1243 73.8897C59.1243 73.6019 59.2235 73.3162 59.4283 73.1132C59.4468 73.0946 59.4644 73.0762 59.4807 73.0556C60.2369 72.1541 60.9845 71.245 61.7364 70.3403C62.3217 69.6365 62.9112 68.9371 63.5508 68.1736C63.8047 68.9197 64.026 69.5692 64.2472 70.2187L64.4607 70.1753C64.4107 69.479 64.3692 68.7829 64.3104 68.0878C64.1644 66.3565 64.0293 64.6296 64.3159 62.8962C65.1833 57.6634 67.7911 53.3787 71.5353 49.7109H71.8634ZM69.188 59.9669C69.1913 61.2116 70.1034 62.2934 71.3305 62.5215C72.9574 62.8234 74.4297 61.5147 74.4221 59.9279C74.4145 58.5171 73.2331 57.3538 71.8056 57.3527C70.3508 57.3506 69.1848 58.5171 69.188 59.9669Z" fill="#212121"/>
<path d="M195.647 85.7991C195.669 86.2183 195.692 86.642 195.713 87.0612C194.397 89.1563 191.986 89.8666 189.715 88.8206C189.568 88.7533 189.408 88.5567 189.389 88.4047C189.342 88.018 189.373 87.6227 189.373 87.2578C190.079 87.4989 190.723 87.8073 191.4 87.9235C191.972 88.0213 192.589 87.9474 193.172 87.8541C193.693 87.7704 194.034 87.4033 194.125 86.8635C194.21 86.3542 194.041 85.898 193.619 85.6276C193.137 85.318 192.592 85.1018 192.075 84.8466C191.524 84.5751 190.931 84.3654 190.429 84.0223C189.048 83.0774 189.037 81.0497 190.417 80.1058C191.827 79.1413 193.375 79.1381 194.947 79.6594C195.063 79.6975 195.196 79.8734 195.208 79.9961C195.241 80.3665 195.22 80.7422 195.22 81.2039C194.322 80.714 193.435 80.5033 192.495 80.6C192.23 80.6271 191.957 80.6891 191.714 80.7933C191.234 80.9975 190.935 81.3689 190.934 81.9457C190.933 82.442 191.228 82.8939 191.669 83.124C192.076 83.3358 192.51 83.4976 192.924 83.6997C193.523 83.9929 194.167 84.234 194.695 84.6251C195.087 84.9161 195.338 85.3962 195.648 85.7991H195.647Z" fill="#212121"/>
<path d="M104.022 57.2922V68.1727C104.022 68.1727 102.596 68.1727 102.606 68.1727V54.9722C103.215 54.9722 103.84 54.956 104.465 54.9875C104.568 54.993 104.697 55.1895 104.756 55.3231C106.244 58.7139 107.726 62.109 109.209 65.5021C109.244 65.5813 109.296 65.653 109.361 65.7638C109.858 64.6397 110.331 63.5503 110.818 62.4664C111.877 60.1095 112.95 57.7592 114 55.3991C114.147 55.0657 114.329 54.931 114.694 54.956C115.144 54.9864 115.598 54.9636 116.119 54.9636V68.2824H114.702V57.3008C114.639 57.2954 114.613 57.29 114.585 57.2846C113.876 58.8757 113.17 60.4669 112.46 62.0569C111.599 63.988 110.735 65.9158 109.878 67.8491C109.777 68.0782 109.684 68.2336 109.38 68.2336C109.07 68.2336 108.934 68.1087 108.817 67.848C107.389 64.6462 105.952 61.4487 104.521 58.248C104.376 57.9243 104.26 57.5887 104.131 57.2585C104.097 57.2705 104.065 57.2813 104.021 57.2933L104.022 57.2922Z" fill="#212121"/>
<path d="M180.412 87.7413V93.4487C179.952 93.4487 179.538 93.4737 179.13 93.4303C179.035 93.4205 178.902 93.1772 178.897 93.0382C178.873 92.3594 178.886 91.6794 178.886 90.9996C178.886 87.3612 178.886 80.2483 178.996 80.2483V79.5803H180.412V81.0291C180.487 81.0466 180.527 81.064 180.569 81.0824C180.668 80.9781 180.776 80.8814 180.863 80.7685C182.592 78.5539 186.075 78.8852 187.187 81.4495C188.077 83.5 187.947 85.5756 186.762 87.5241C185.479 89.6311 181.94 89.8418 180.755 87.9422C180.72 87.8868 180.411 87.7424 180.411 87.7424L180.412 87.7413ZM180.411 84.4515C180.426 84.4536 180.443 84.4547 180.46 84.4569C180.46 84.7099 180.454 84.963 180.46 85.2161C180.493 86.615 181.397 87.7294 182.697 87.9759C184.046 88.2311 185.294 87.5327 185.82 86.1946C186.248 85.1074 186.329 83.9768 186.085 82.8375C185.776 81.4006 184.833 80.5871 183.503 80.5644C182.075 80.5405 180.896 81.4376 180.591 82.8408C180.476 83.3653 180.467 83.9139 180.411 84.4515Z" fill="#212121"/>
<path d="M137.585 77.6188C136.548 77.0236 135.437 76.8173 134.279 76.9216C133.818 76.9628 133.341 77.0638 132.918 77.2452C131.634 77.7915 131.352 79.3903 132.382 80.3265C132.791 80.6979 133.294 80.977 133.778 81.2551C134.641 81.7515 135.556 82.1631 136.39 82.7017C137.95 83.7085 138.507 85.0988 138.077 86.6889C137.737 87.9422 136.819 88.6134 135.648 88.9447C134.017 89.4074 132.388 89.2814 130.776 88.773C130.311 88.6264 130.081 88.3896 130.145 87.8792C130.187 87.5457 130.153 87.2026 130.153 86.7779C130.376 86.8973 130.526 86.9778 130.676 87.0571C131.998 87.7575 133.391 88.0693 134.878 87.7716C135.666 87.6142 136.312 87.2319 136.542 86.3956C136.781 85.5245 136.558 84.7447 135.836 84.218C135.152 83.7206 134.381 83.3437 133.652 82.907C132.892 82.453 132.073 82.0696 131.391 81.5179C129.596 80.068 129.807 77.4874 131.78 76.2917C133.012 75.5454 134.377 75.4412 135.776 75.5542C135.884 75.5629 135.991 75.5835 136.099 75.6019C137.945 75.9159 137.668 75.6943 137.588 77.6166L137.585 77.6188Z" fill="#212121"/>
<path d="M151.489 82.983C151.657 81.1279 150.484 80.1645 148.608 80.6305C147.885 80.8097 147.209 81.1779 146.454 81.4842C146.454 81.1551 146.426 80.7673 146.469 80.3883C146.486 80.247 146.641 80.0755 146.78 80.0026C148.077 79.3174 149.449 79.0947 150.883 79.4455C152.082 79.7387 152.845 80.6348 152.932 81.9425C153.015 83.2023 153.008 84.4699 153.023 85.7341C153.036 86.7799 153.025 87.8259 153.025 88.9218H151.535V87.714C151.472 87.6901 151.47 87.6901 151.408 87.6663C151.284 87.8053 151.158 87.9432 151.034 88.0833C150.019 89.2432 148.095 89.5647 146.767 88.7752C145.751 88.1713 145.452 87.2101 145.551 86.074C145.637 85.0879 146.493 84.0386 147.443 83.753C148.312 83.4924 149.231 83.3729 150.127 83.1936C150.582 83.1025 151.045 83.0514 151.49 82.9841L151.489 82.983ZM151.561 84.3047C151.497 84.2537 151.434 84.2038 151.367 84.1527C150.235 84.3764 149.088 84.5437 147.976 84.8457C147.208 85.0541 146.947 85.6309 146.998 86.516C147.035 87.1992 147.463 87.7108 148.164 87.9138C149.433 88.282 150.824 87.6271 151.245 86.3575C151.46 85.7091 151.462 84.9912 151.56 84.3058L151.561 84.3047Z" fill="#212121"/>
<path d="M112.107 89.2302C108.949 89.2542 107.273 86.8582 107.499 83.8736C107.611 82.3954 108.099 81.0965 109.363 80.1808C110.983 79.009 114.31 78.8971 115.85 80.8684C117.144 82.5246 117.394 86.64 115.018 88.3505C114.141 88.9815 113.169 89.2356 112.107 89.2302ZM115.354 84.2407C115.28 83.7888 115.234 83.2469 115.096 82.7289C114.757 81.4537 113.866 80.6989 112.664 80.6023C111.071 80.4752 109.979 81.0389 109.403 82.3052C108.956 83.2925 108.921 84.3298 109.095 85.3811C109.356 86.9462 110.571 87.9855 112.149 88.0072C113.791 88.0301 114.874 87.1482 115.193 85.5103C115.269 85.1226 115.293 84.7262 115.353 84.2396L115.354 84.2407Z" fill="#212121"/>
<path d="M166.319 63.4075C166.336 64.9585 165.948 66.3671 164.696 67.3804C163.14 68.6415 161.368 68.7566 159.575 68.0126C157.897 67.3153 157.143 65.898 157.049 64.1482C157.007 63.3814 157.042 62.5789 157.227 61.8381C157.765 59.6811 159.521 58.4886 161.919 58.5407C164.739 58.6016 166.309 60.3393 166.319 63.4075ZM164.841 63.5889C164.781 63.0839 164.758 62.6125 164.668 62.1552C164.392 60.7585 163.437 59.8886 162.086 59.7658C160.601 59.6312 159.421 60.2828 158.88 61.584C158.397 62.7472 158.383 63.9528 158.774 65.1366C159.227 66.5072 160.336 67.2186 161.824 67.1817C163.27 67.1459 164.222 66.4399 164.611 65.053C164.747 64.5718 164.77 64.0581 164.841 63.5889Z" fill="#212121"/>
<path d="M147.435 63.4363C147.425 65.3424 146.851 66.9955 145.043 67.9012C143.404 68.7223 141.698 68.7092 140.122 67.7133C138.554 66.7239 138.086 65.1545 138.123 63.4015C138.151 62.108 138.449 60.8926 139.382 59.9194C140.686 58.5586 142.958 58.1101 144.879 58.8899C146.684 59.623 147.307 61.1424 147.434 62.9497C147.445 63.1115 147.435 63.2733 147.435 63.4363ZM146 63.4971C145.898 62.9204 145.854 62.3198 145.682 61.7571C145.327 60.5918 144.504 59.9086 143.285 59.7826C142.051 59.6555 140.934 59.9608 140.278 61.0881C139.379 62.6347 139.337 64.2638 140.235 65.8257C140.95 67.0693 142.167 67.3342 143.49 67.1442C144.667 66.9747 145.398 66.2362 145.714 65.1143C145.86 64.5995 145.904 64.0565 146 63.4971Z" fill="#212121"/>
<path d="M174.636 87.5577C174.448 87.7357 174.361 87.7934 174.307 87.8737C173.342 89.29 171.622 89.4127 170.271 88.9413C169.086 88.5276 168.51 87.5228 168.46 86.364C168.363 84.1212 168.432 81.8709 168.432 79.5781H169.732V81.1095C169.664 82.4117 169.657 83.714 169.668 85.0162C169.672 85.3572 169.703 85.7026 169.764 86.0381C169.983 87.2329 170.581 87.8476 171.632 87.9942C172.725 88.1463 173.811 87.5837 174.24 86.5453C174.442 86.0578 174.553 85.5016 174.566 84.9738C174.608 83.3469 174.581 81.7187 174.583 80.0907C174.583 79.9321 174.601 79.7736 174.613 79.6867H176.054V88.9186H174.636V87.5577Z" fill="#212121"/>
<path d="M104.353 79.5771H106.58C106.58 79.8931 106.567 80.1581 106.584 80.4209C106.602 80.7251 106.474 80.8348 106.173 80.8272C105.584 80.8131 104.996 80.8228 104.349 80.8228V88.9175H103.041V80.7717H101.406V79.4685H102.974C102.974 78.8646 102.945 78.2184 102.98 77.5764C103.079 75.7497 104.657 74.5245 106.477 74.8058C106.902 74.8709 107.085 75.023 107.023 75.4596C106.99 75.6866 107.017 75.9223 107.017 76.1526C106.639 76.1124 106.318 76.0516 105.996 76.0483C105.173 76.0407 104.631 76.4512 104.513 77.2593C104.406 77.9848 104.353 79.5771 104.353 79.5771Z" fill="#212121"/>
<path d="M149.185 66.3342C150.255 67.0368 151.326 67.2769 152.485 67.1628C153.544 67.0586 154.193 66.3418 153.845 65.4838C153.678 65.0677 153.228 64.6919 152.813 64.4618C152.058 64.0403 151.202 63.8003 150.449 63.3778C148.765 62.4329 148.73 60.2053 150.379 59.2017C150.847 58.9172 151.406 58.6707 151.939 58.6282C152.758 58.5642 153.594 58.6783 154.42 58.7466C154.861 58.7836 155.098 59.0193 155.019 59.5092C154.977 59.7655 155.012 60.0348 155.012 60.214C154.151 60.0565 153.348 59.8741 152.535 59.7796C152.214 59.7426 151.854 59.8675 151.538 59.9837C151.064 60.1586 150.762 60.516 150.712 61.034C150.662 61.5705 150.88 62.0082 151.344 62.2656C151.799 62.5198 152.3 62.6957 152.772 62.9227C153.34 63.1964 153.947 63.4223 154.455 63.784C155.813 64.7495 155.812 66.7187 154.432 67.6516C152.859 68.716 151.153 68.6356 149.442 67.9894C149.323 67.9449 149.211 67.7298 149.198 67.5854C149.165 67.2107 149.185 66.8294 149.185 66.3342Z" fill="#212121"/>
<path d="M172.894 58.8045V59.9177C172.503 59.9177 172.121 59.9177 171.738 59.9177C171.056 59.9177 170.715 60.2754 170.715 60.9908C170.715 63.1749 170.715 65.3602 170.715 67.5444C170.715 67.7409 170.715 67.9386 170.715 68.1721H169.19C169.19 67.9375 169.19 67.7257 169.19 67.5139C169.19 65.1798 169.18 62.8459 169.198 60.5129C169.202 60.086 169.082 59.9188 168.636 59.9622C168.291 59.996 167.942 59.9687 167.555 59.9687V58.8034C167.909 58.8034 168.237 58.7774 168.559 58.8099C169.029 58.8566 169.237 58.7143 169.192 58.2071C169.15 57.7531 169.174 57.2905 169.193 56.8332C169.272 54.8739 171.049 53.5325 172.951 54.0115C173.089 54.0462 173.25 54.2602 173.275 54.4112C173.326 54.7121 173.29 55.027 173.29 55.3724C173.012 55.3094 172.784 55.2453 172.553 55.2095C171.682 55.0748 170.92 55.5255 170.769 56.3759C170.646 57.0732 170.658 57.7966 170.656 58.508C170.656 58.6057 170.911 58.7828 171.056 58.7904C171.656 58.8229 172.257 58.8034 172.896 58.8034L172.894 58.8045Z" fill="#212121"/>
<path d="M164.066 79.581H166.464V80.7757H164.23C164.23 80.7757 164.126 80.906 164.125 80.9332C164.119 82.8306 164.083 84.7302 164.127 86.6265C164.152 87.705 164.905 88.1916 165.959 87.9255C166.114 87.8864 166.269 87.8397 166.501 87.7745C166.501 88.0852 166.538 88.3708 166.487 88.6401C166.458 88.7966 166.315 89.0148 166.179 89.054C165.399 89.2776 164.6 89.3255 163.844 88.9692C162.822 88.487 162.634 87.5345 162.614 86.5526C162.581 84.8714 162.604 83.1901 162.649 81.5088V80.7757H161.014V79.4724H162.604C162.604 78.8903 162.621 78.2799 162.598 77.6717C162.586 77.349 162.674 77.1699 163.009 77.0982C163.355 77.0232 163.692 76.8983 164.065 76.7734V79.5799L164.066 79.581Z" fill="#212121"/>
<path d="M144.363 87.7617C144.478 89.0314 144.377 89.1432 143.15 89.1596C141.304 89.1834 140.437 88.3363 140.42 86.4497C140.403 84.7858 140.418 83.1208 140.42 81.4569C140.42 81.2593 140.42 81.1039 140.42 80.8193C140.004 80.8193 139.62 80.7976 139.239 80.8259C138.842 80.8552 138.698 80.7107 138.742 80.3317C138.768 80.1036 138.746 79.869 138.746 79.579H140.42C140.42 78.9404 140.452 78.3572 140.407 77.7794C140.379 77.4329 140.625 77.1223 140.968 77.0604C141.276 77.0039 141.572 76.8909 141.946 76.7812V79.4715H144.234V80.7749H141.946C141.946 81.4373 141.946 82.0293 141.946 82.6212C141.946 83.7247 141.944 84.8282 141.946 85.9316C141.949 87.7649 142.539 88.2211 144.364 87.7649L144.363 87.7617Z" fill="#212121"/>
<path d="M176.423 59.9166C176.423 60.4433 176.423 60.9125 176.423 61.3817C176.424 62.6405 176.41 63.9004 176.43 65.1591C176.448 66.3908 177.437 67.1403 178.605 66.7383C178.653 66.7221 178.704 66.7177 178.82 66.6938C178.82 67.0109 178.854 67.3086 178.806 67.5931C178.783 67.7245 178.62 67.8841 178.483 67.9374C176.623 68.651 174.967 67.5899 174.941 65.6556C174.918 63.9134 174.921 62.1702 174.943 60.427C174.948 60.1175 174.697 59.8786 174.389 59.9068C174.05 59.9383 173.705 59.9133 173.328 59.9133V58.7393C173.563 58.7393 173.773 58.7415 173.984 58.7393C175.153 58.7283 174.874 58.8718 174.923 57.5597C174.933 57.3132 174.938 57.0656 174.914 56.8201C174.887 56.5052 174.98 56.3346 175.291 56.2596C175.634 56.1782 175.967 56.0522 176.38 55.9219V58.7207H178.777V59.9155H176.421L176.423 59.9166Z" fill="#212121"/>
<path d="M130.203 60.2947C129.427 60.1057 128.721 59.8211 128.003 59.7831C126.571 59.706 125.54 60.4174 124.955 61.7164C124.459 62.8188 124.438 63.9711 124.822 65.105C125.466 67.0067 127.625 67.7595 129.541 66.782C129.728 66.6864 129.911 66.5832 130.084 66.4909C130.128 66.5398 130.15 66.5517 130.151 66.5658C130.252 67.8376 130.142 67.9907 128.899 68.2938C125.475 69.1312 122.671 66.6071 123.086 63.1012C123.279 61.4677 123.868 60.0884 125.327 59.2172C126.719 58.3843 128.213 58.3778 129.741 58.7959C130.098 58.8936 130.247 59.0858 130.209 59.4583C130.181 59.7582 130.203 60.0633 130.203 60.2947Z" fill="#212121"/>
<path d="M137.458 60.1729C137.184 60.1044 136.971 60.0295 136.753 60.0001C135.646 59.8546 134.772 60.2663 134.347 61.2677C134.091 61.8705 133.927 62.5449 133.898 63.1944C133.832 64.6693 133.876 66.1496 133.873 67.6278C133.873 67.8027 133.873 67.9787 133.873 68.1764H132.355V58.8359H133.881V60.4943C134.297 60.0078 134.643 59.5191 135.075 59.1171C135.591 58.6381 136.268 58.5546 136.968 58.6219C137.331 58.6567 137.5 58.8087 137.464 59.1791C137.433 59.4951 137.457 59.8155 137.457 60.1718L137.458 60.1729Z" fill="#212121"/>
<path d="M123.939 80.9137C121.941 80.451 120.682 81.4676 120.617 83.5833C120.571 85.131 120.602 86.6799 120.6 88.2286C120.6 88.4415 120.6 88.6554 120.6 88.9205H119.17V79.58H120.586V81.1993C120.642 81.2145 120.636 81.2134 120.693 81.2286C120.805 81.0408 120.916 80.8518 121.03 80.665C121.607 79.7114 122.436 79.2878 123.544 79.4117C123.829 79.4431 123.959 79.5409 123.943 79.8439C123.926 80.1828 123.939 80.526 123.939 80.9137Z" fill="#212121"/>
<path d="M157.175 88.9156H155.785V79.5752H157.202V81.1586C157.278 81.1793 157.27 81.1772 157.346 81.1989C157.43 81.0588 157.519 80.9207 157.599 80.7785C158.167 79.7576 159.025 79.2862 160.212 79.3992C160.543 79.4306 160.715 79.5241 160.685 79.8868C160.66 80.2073 160.68 80.5319 160.68 80.8654C160.605 80.8784 160.55 80.9066 160.51 80.8914C158.98 80.2985 157.829 81.1902 157.418 82.6402C157.281 83.119 157.224 83.6318 157.215 84.1303C157.188 85.6062 157.206 87.0833 157.204 88.5593C157.204 88.6636 157.187 88.7668 157.175 88.9156Z" fill="#212121"/>
<path d="M120.695 68.1764H119.387V58.8359H120.695V68.1764Z" fill="#212121"/>
<path d="M90.9448 53.8594V89.5616C90.5971 89.1392 90.596 54.2927 90.9448 53.8594Z" fill="#212121"/>
<path d="M120.08 54.3516C120.588 54.3592 121.046 54.8251 121.04 55.3302C121.035 55.8667 120.567 56.2968 120.007 56.2805C119.465 56.2642 119.095 55.857 119.108 55.2889C119.12 54.7546 119.547 54.3429 120.08 54.3516Z" fill="#212121"/>
</g>
</g>
</g>
<defs>
<clipPath id="clip0_10264_27740">
<rect width="253.55" height="143.3" fill="white" transform="translate(0.699219 0.109375)"/>
</clipPath>
<clipPath id="clip1_10264_27740">
<rect width="253.55" height="143.3" fill="white" transform="translate(0.699219 0.109375)"/>
</clipPath>
</defs>
</svg>
