<svg width="254" height="144" viewBox="0 0 254 144" fill="none" xmlns="http://www.w3.org/2000/svg">
<g clip-path="url(#clip0_10264_27699)">
<g clip-path="url(#clip1_10264_27699)">
<path d="M100.932 93.9596H92.8806V58.6528H85.0382C85.0068 58.6216 84.965 58.6008 84.9336 58.5696V50.6588H117.035V86.0801H126.164C126.174 85.924 126.216 85.7262 126.206 85.5284C126.185 83.2801 126.132 81.0318 126.132 78.7731C126.132 75.411 126.185 72.0489 126.206 68.687C126.206 67.7397 126.132 66.7822 126.132 65.8349C126.143 62.6082 126.185 59.3918 126.206 56.1651C126.216 54.3227 126.227 52.4908 126.237 50.6484H168.587V93.9492C165.941 93.9492 163.285 93.9492 160.639 93.9492C160.628 93.7098 160.598 93.4704 160.598 93.2206C160.598 81.927 160.598 70.6334 160.598 59.3398V58.684H151.427C151.427 58.9443 151.427 59.1629 151.427 59.3918C151.427 70.6542 151.427 81.9062 151.427 93.1686C151.427 93.3975 151.427 93.6161 151.417 93.8451C151.385 93.8763 151.364 93.918 151.333 93.9492H143.491L143.407 93.8451C143.407 93.6161 143.397 93.3975 143.397 93.1686C143.397 81.8957 143.397 70.6125 143.397 59.3398V58.684H134.226C134.226 58.9651 134.226 59.2044 134.226 59.4439C134.226 70.7167 134.226 81.9999 134.226 93.2726C134.226 93.5016 134.205 93.7202 134.194 93.9492H108.994V58.684H100.995C100.995 58.9443 100.995 59.1837 100.995 59.423C100.995 70.6959 100.995 81.9686 100.995 93.2414C100.995 93.4807 100.964 93.7202 100.943 93.9596H100.932Z" fill="#212121"/>
</g>
</g>
<defs>
<clipPath id="clip0_10264_27699">
<rect width="253.55" height="143.3" fill="white" transform="translate(0.167969 0.109375)"/>
</clipPath>
<clipPath id="clip1_10264_27699">
<rect width="253.55" height="143.3" fill="white" transform="translate(0.167969 0.109375)"/>
</clipPath>
</defs>
</svg>
