<svg width="254" height="144" viewBox="0 0 254 144" fill="none" xmlns="http://www.w3.org/2000/svg">
<g clip-path="url(#clip0_10264_27793)">
<g clip-path="url(#clip1_10264_27793)">
<path d="M123.712 87.6334C123.634 87.7202 123.548 87.8033 123.476 87.8956C122.133 89.564 120.79 91.2342 119.446 92.9043C119.424 92.9333 119.402 92.9622 119.38 92.9911C119.151 93.2694 119.109 93.2713 118.89 92.9965C117.81 91.6463 116.731 90.296 115.652 88.9457C115.332 88.5462 115.013 88.1468 114.693 87.7491C114.663 87.7112 114.627 87.6786 114.595 87.6461C114.487 87.6859 114.53 87.7708 114.53 87.8304C114.526 88.5535 114.528 89.2766 114.53 89.9996C114.53 92.3964 114.53 94.7933 114.53 97.1919C114.53 97.3003 114.532 97.4088 114.53 97.5173C114.519 97.821 114.478 97.8589 114.15 97.8697C114.114 97.8697 114.077 97.8697 114.039 97.8697C112.962 97.8697 111.884 97.8697 110.807 97.8697C110.72 97.8697 110.633 97.8697 110.547 97.8607C110.391 97.8426 110.337 97.7885 110.324 97.6257C110.317 97.5299 110.319 97.4323 110.319 97.3365C110.319 92.1922 110.319 87.0496 110.319 81.9052C110.319 81.7842 110.322 81.6649 110.332 81.5456C110.339 81.4479 110.406 81.3937 110.5 81.381C110.586 81.3684 110.674 81.3648 110.758 81.3648C111.849 81.3648 112.938 81.3702 114.028 81.3594C114.29 81.3575 114.465 81.4443 114.621 81.6486C115.338 82.5849 116.066 83.514 116.792 84.4449C117.496 85.3469 118.201 86.2471 118.904 87.1491C118.949 87.2068 118.992 87.2666 119.042 87.3207C119.128 87.4165 119.202 87.4184 119.285 87.3135C119.616 86.9086 119.945 86.5001 120.272 86.0916C121.46 84.6112 122.648 83.129 123.836 81.6468C123.882 81.5907 123.928 81.5329 123.976 81.4787C124.036 81.4118 124.112 81.3739 124.202 81.3702C124.301 81.3648 124.402 81.3629 124.5 81.3629C125.479 81.3629 126.455 81.3629 127.434 81.3629C127.973 81.3629 127.976 81.3648 127.976 81.8817C127.976 85.9542 127.976 90.0249 127.976 94.0973C127.976 95.1692 127.976 96.2411 127.976 97.313C127.976 97.4341 127.976 97.5534 127.962 97.6746C127.951 97.7902 127.892 97.8426 127.771 97.8589C127.686 97.8697 127.599 97.8716 127.51 97.8716C126.42 97.8716 125.332 97.8733 124.242 97.8716C123.788 97.8716 123.771 97.8535 123.771 97.3926C123.771 94.4534 123.771 91.5143 123.771 88.5752C123.771 88.3221 123.771 88.0691 123.771 87.816C123.771 87.76 123.793 87.695 123.712 87.6389V87.6334Z" fill="#212121"/>
<path d="M130.481 69.7028C130.436 69.7192 130.432 69.7571 130.432 69.7914C130.43 69.9125 130.428 70.0318 130.428 70.1529C130.428 73.1752 130.428 76.1992 130.428 79.2215C130.428 79.3535 130.432 79.4872 130.422 79.6192C130.41 79.8198 130.363 79.8614 130.146 79.8758C130.085 79.8795 130.021 79.8795 129.961 79.8795C128.871 79.8795 127.781 79.8795 126.693 79.8795C126.229 79.8795 126.217 79.8668 126.217 79.4113C126.217 75.8214 126.217 72.2335 126.217 68.6436C126.217 67.0656 126.217 65.4876 126.217 63.9096C126.217 63.7903 126.222 63.6691 126.232 63.5498C126.238 63.4685 126.293 63.4161 126.371 63.3998C126.455 63.3836 126.542 63.3727 126.628 63.3727C127.729 63.3727 128.831 63.3763 129.933 63.3673C130.199 63.3655 130.37 63.4739 130.522 63.6728C131.294 64.6742 132.073 65.6719 132.851 66.6697C133.516 67.5229 134.185 68.3761 134.852 69.2293C134.896 69.2871 134.944 69.3431 134.994 69.3956C135.034 69.4353 135.083 69.4443 135.126 69.4046C135.17 69.363 135.208 69.3142 135.248 69.2672C136.07 68.2423 136.893 67.2174 137.714 66.1907C138.385 65.3557 139.059 64.5241 139.72 63.6818C139.895 63.4594 140.094 63.3636 140.381 63.3673C141.385 63.3781 142.388 63.3709 143.389 63.3709C144.39 63.3709 143.464 63.3709 143.5 63.3709C143.836 63.3836 143.872 63.4198 143.879 63.7595C143.879 63.8318 143.879 63.9042 143.879 63.9765C143.879 69.0721 143.879 74.1658 143.879 79.2612C143.879 79.3932 143.882 79.527 143.87 79.659C143.859 79.8017 143.805 79.8542 143.665 79.8687C143.567 79.8795 143.469 79.8795 143.369 79.8795C142.304 79.8795 141.24 79.8795 140.175 79.8795C140.077 79.8795 139.977 79.8795 139.878 79.8668C139.761 79.8542 139.703 79.7981 139.69 79.6788C139.677 79.5469 139.676 79.4149 139.676 79.283C139.676 76.2246 139.676 73.1644 139.676 70.1059C139.676 69.9975 139.676 69.889 139.67 69.7806C139.67 69.7463 139.663 69.6974 139.616 69.6992C139.584 69.6992 139.546 69.7227 139.525 69.748C139.224 70.1149 138.922 70.4819 138.624 70.8507C137.55 72.1883 136.479 73.5295 135.405 74.8671C135.329 74.961 135.251 75.0551 135.167 75.1436C135.069 75.2484 134.993 75.2449 134.887 75.1364C134.844 75.093 134.807 75.0443 134.768 74.9972C133.767 73.741 132.765 72.4847 131.762 71.2302C131.384 70.7549 130.999 70.2813 130.618 69.8077C130.581 69.7625 130.552 69.7046 130.482 69.7011L130.481 69.7028Z" fill="#212121"/>
<path d="M90.8387 73.045C90.8442 72.8751 90.8498 72.7467 90.8498 72.6166C90.8498 69.7262 90.8498 66.836 90.8498 63.9456C90.8498 63.8137 90.8553 63.6817 90.8628 63.5497C90.8684 63.4684 90.9204 63.4143 91.0003 63.3997C91.0839 63.3835 91.1712 63.3726 91.2566 63.3726C92.3452 63.3708 93.4356 63.3691 94.5241 63.3726C94.9087 63.3726 94.9495 63.4197 94.9607 63.7865C94.9607 63.8462 94.9607 63.9077 94.9607 63.9673C94.9607 69.0737 94.9607 74.1801 94.9607 79.2865C94.9607 79.4076 94.9625 79.5287 94.9495 79.6481C94.9329 79.8072 94.8733 79.8595 94.7155 79.874C94.63 79.8812 94.5427 79.8794 94.4554 79.8794C93.3668 79.8794 92.2764 79.8794 91.1879 79.8794C91.1136 79.8794 91.0392 79.8758 90.9649 79.8758C90.8442 79.8758 90.7514 79.827 90.6826 79.7293C90.6269 79.6498 90.5693 79.5721 90.5155 79.4908C88.9588 77.1861 87.404 74.8814 85.8473 72.575C85.277 71.729 84.7066 70.8831 84.1345 70.039C84.1011 69.9884 84.0658 69.9395 84.0287 69.8907C84.0064 69.8601 83.9729 69.8311 83.9395 69.8547C83.9154 69.8726 83.9005 69.9124 83.8968 69.9449C83.8893 69.992 83.8912 70.0407 83.8912 70.0896C83.8912 70.1854 83.8912 70.283 83.8912 70.3788C83.8912 73.3287 83.8912 76.2805 83.8912 79.2305C83.8912 79.3624 83.895 79.4962 83.8819 79.6281C83.8652 79.8107 83.8095 79.8613 83.6293 79.874C83.5178 79.8812 83.4064 79.8794 83.2949 79.8794C82.3048 79.8794 81.3147 79.8794 80.3246 79.8794C79.7561 79.8758 79.7246 79.921 79.7246 79.3064C79.7265 76.548 79.7246 73.7896 79.7246 71.0331C79.7246 68.6851 79.7246 66.337 79.7246 63.9872C79.7246 63.8552 79.7246 63.7215 79.7376 63.5895C79.7506 63.4612 79.8174 63.3997 79.953 63.3816C80.0516 63.3691 80.15 63.3672 80.2485 63.3672C81.4243 63.3672 82.6002 63.3672 83.776 63.3672C83.8503 63.3672 83.9246 63.3708 83.9989 63.3726C84.1458 63.3762 84.2608 63.4377 84.3408 63.557C84.4225 63.6782 84.5005 63.801 84.5822 63.9204C85.8639 65.8092 87.1476 67.6982 88.4293 69.5871C89.1519 70.6518 89.8727 71.7182 90.5972 72.7828C90.6511 72.8624 90.6901 72.9546 90.8331 73.0413L90.8387 73.045Z" fill="#212121"/>
<path d="M106.723 55.0438C106.781 54.9046 106.76 54.7853 106.76 54.6697C106.76 53.5978 106.76 52.5258 106.76 51.454C106.76 49.6356 106.76 47.8171 106.76 45.9987C106.76 45.8667 106.764 45.733 106.775 45.6028C106.783 45.5089 106.844 45.4474 106.941 45.4366C107.039 45.4257 107.138 45.4221 107.236 45.4221C108.287 45.4221 109.341 45.4221 110.392 45.4221C110.86 45.4221 110.877 45.4383 110.877 45.8848C110.877 47.4864 110.877 49.0878 110.877 50.6894C110.877 54.2178 110.877 57.7461 110.877 61.2745C110.877 61.4192 110.875 61.5637 110.864 61.7083C110.856 61.8168 110.786 61.8855 110.675 61.8999C110.578 61.9143 110.477 61.9216 110.379 61.9216C109.291 61.9216 108.2 61.9216 107.112 61.9216C107.074 61.9216 107.037 61.9199 107 61.9216C106.794 61.9324 106.653 61.8475 106.541 61.6776C106.255 61.2401 105.954 60.8136 105.663 60.3797C104.862 59.1922 104.063 58.0028 103.263 56.8152C102.224 55.2752 101.184 53.7352 100.146 52.1951C100.064 52.0757 99.9783 51.9583 99.9022 51.8516C99.8112 51.8498 99.8093 51.9022 99.8074 51.9474C99.8037 52.0794 99.8037 52.2132 99.8037 52.3451C99.8037 55.3077 99.8037 58.2703 99.8037 61.233C99.8037 61.3776 99.8055 61.5221 99.7944 61.6667C99.7814 61.8385 99.722 61.8927 99.5381 61.9162C99.4768 61.9234 99.4155 61.9253 99.3523 61.9253C98.2749 61.9253 97.1994 61.9253 96.1219 61.9253C96.0717 61.9253 96.0234 61.9253 95.9733 61.9216C95.7411 61.9018 95.6928 61.8547 95.6798 61.636C95.6742 61.5402 95.6761 61.4426 95.6761 61.3468C95.6761 56.2278 95.6761 51.1106 95.6761 45.9915C95.6761 45.8704 95.6761 45.7511 95.6872 45.6299C95.7002 45.4926 95.756 45.4437 95.9027 45.4312C95.9882 45.4221 96.0755 45.4239 96.1628 45.4239C97.3516 45.4239 98.5387 45.4239 99.7276 45.4239C99.7777 45.4239 99.826 45.4275 99.8762 45.4239C100.069 45.4076 100.203 45.4908 100.307 45.648C100.528 45.9825 100.759 46.3114 100.983 46.6423C101.637 47.6074 102.291 48.5727 102.945 49.5379C104.11 51.257 105.273 52.9777 106.439 54.6968C106.517 54.8124 106.58 54.9426 106.72 55.0456L106.723 55.0438Z" fill="#212121"/>
<path d="M159.305 71.6103C159.305 69.0688 159.305 66.5291 159.305 63.9877C159.305 63.8432 159.312 63.6985 159.327 63.5558C159.336 63.4635 159.4 63.4021 159.496 63.3894C159.594 63.3768 159.693 63.3696 159.791 63.3696C162.218 63.3696 164.643 63.3623 167.069 63.3731C168.118 63.3786 169.139 63.5412 170.112 63.9407C171.125 64.3564 171.987 64.962 172.642 65.8297C173.105 66.4424 173.403 67.1275 173.552 67.8668C173.721 68.7019 173.723 69.5442 173.533 70.3775C173.203 71.8092 172.386 72.9189 171.144 73.736C170.831 73.9402 170.83 73.9367 170.998 74.2385C171.578 75.2761 172.156 76.3118 172.733 77.3493C173.135 78.0688 173.534 78.7899 173.935 79.5094C173.965 79.5618 173.997 79.6142 174.021 79.6702C174.071 79.7841 174.024 79.8583 173.898 79.8691C173.813 79.8764 173.726 79.8764 173.638 79.8764C172.364 79.8764 171.088 79.8764 169.813 79.8764C169.38 79.8764 169.377 79.8763 169.189 79.5057C168.87 78.8803 168.56 78.2513 168.241 77.6241C167.837 76.8252 167.428 76.028 167.021 75.229C166.999 75.1857 166.975 75.1441 166.95 75.1026C166.898 75.0103 166.817 74.9616 166.709 74.9597C166.548 74.9579 166.388 74.956 166.226 74.956C165.546 74.956 164.865 74.956 164.184 74.956C164.097 74.956 164.012 74.9543 163.924 74.956C163.666 74.9651 163.631 74.9977 163.625 75.258C163.62 75.6303 163.623 76.0045 163.623 76.3787C163.623 77.3655 163.623 78.3543 163.623 79.3412C163.623 79.8727 163.622 79.8727 163.059 79.8745C162.007 79.8745 160.954 79.8745 159.903 79.8745C159.344 79.8745 159.301 79.9306 159.301 79.3033C159.303 76.7384 159.301 74.1735 159.301 71.6084L159.305 71.6103ZM163.625 69.1881C163.625 69.7286 163.625 70.2709 163.625 70.8113C163.625 70.9072 163.623 71.0047 163.631 71.1005C163.642 71.2415 163.696 71.2904 163.839 71.3066C163.877 71.3102 163.913 71.312 163.951 71.312C164.976 71.3102 166.003 71.3102 167.029 71.3048C167.315 71.3048 167.595 71.2452 167.863 71.1494C168.203 71.0282 168.507 70.8547 168.747 70.5781C169.273 69.9726 169.355 69.2749 169.189 68.5392C169.035 67.8595 168.571 67.4366 167.899 67.2143C167.557 67.1004 167.204 67.0588 166.841 67.0588C165.914 67.0588 164.987 67.0588 164.06 67.0588C163.986 67.0588 163.912 67.0588 163.837 67.066C163.698 67.0823 163.644 67.1347 163.631 67.2757C163.622 67.3715 163.625 67.4673 163.625 67.565C163.625 68.1053 163.625 68.6476 163.625 69.1881Z" fill="#212121"/>
<path d="M140.405 53.6626C140.405 51.1211 140.405 48.5815 140.405 46.04C140.405 45.9082 140.404 45.7743 140.413 45.6424C140.424 45.4996 140.476 45.4471 140.617 45.4327C140.703 45.4237 140.79 45.4237 140.877 45.4237C143.415 45.4237 145.95 45.4165 148.488 45.4309C149.776 45.4381 150.985 45.7599 152.09 46.4106C153.382 47.1697 154.237 48.2615 154.587 49.6859C155.023 51.4718 154.703 53.1275 153.539 54.6007C153.166 55.0724 152.71 55.4611 152.194 55.7793C151.908 55.9564 151.918 55.96 152.067 56.2239C152.679 57.3247 153.288 58.4273 153.901 59.5282C154.266 60.1843 154.635 60.8386 154.998 61.4966C155.202 61.8671 155.169 61.9214 154.73 61.9233C153.456 61.9268 152.181 61.9233 150.905 61.9233C150.88 61.9233 150.855 61.9233 150.831 61.9233C150.579 61.9358 150.421 61.8346 150.308 61.6051C149.985 60.9417 149.642 60.2873 149.306 59.6294C148.916 58.863 148.523 58.0984 148.133 57.332C148.111 57.2886 148.085 57.247 148.067 57.2018C148.003 57.05 147.897 56.9921 147.721 56.9939C146.967 57.0048 146.211 57.0029 145.457 57.0029C145.271 57.0029 145.085 56.9904 144.901 56.9867C144.757 56.9831 144.7 57.0391 144.706 57.1837C144.711 57.3519 144.73 57.52 144.73 57.6881C144.732 58.8919 144.73 60.0957 144.73 61.2996C144.73 61.4316 144.727 61.5653 144.708 61.6955C144.689 61.8329 144.63 61.8871 144.494 61.9052C144.409 61.9177 144.321 61.9196 144.236 61.9196C143.122 61.9196 142.009 61.9196 140.895 61.9196C140.857 61.9196 140.82 61.9196 140.782 61.9196C140.445 61.9052 140.405 61.8725 140.404 61.5328C140.4 60.8947 140.404 60.2567 140.404 59.6186C140.404 57.632 140.404 55.6455 140.404 53.659L140.405 53.6626ZM146.609 53.3318C146.991 53.3318 147.376 53.3336 147.758 53.3318C147.955 53.3318 148.154 53.33 148.35 53.3083C148.8 53.2595 149.222 53.1257 149.577 52.842C150.44 52.1551 150.576 50.888 150.039 50.0203C149.731 49.5232 149.244 49.2793 148.678 49.1654C148.388 49.1075 148.092 49.0731 147.794 49.075C146.891 49.0786 145.988 49.075 145.085 49.0731C145.023 49.0731 144.96 49.0731 144.9 49.0786C144.754 49.0931 144.7 49.1473 144.705 49.2883C144.71 49.5161 144.729 49.7438 144.73 49.9733C144.735 50.5752 144.73 51.1771 144.73 51.7773C144.73 52.0539 144.734 52.3304 144.7 52.6069C144.686 52.7371 144.689 52.8709 144.693 53.0028C144.7 53.2866 144.74 53.3227 145.046 53.3336C145.12 53.3354 145.194 53.3336 145.269 53.3336C145.715 53.3336 146.159 53.3336 146.604 53.3336L146.609 53.3318Z" fill="#212121"/>
<path d="M110.316 71.6242C110.316 69.0701 110.316 66.5159 110.316 63.9619C110.316 63.83 110.32 63.6961 110.328 63.5642C110.333 63.4684 110.394 63.407 110.489 63.3907C110.586 63.3745 110.686 63.3691 110.784 63.3691C111.912 63.3691 113.037 63.3672 114.165 63.3691C114.615 63.3691 114.65 63.4033 114.652 63.8444C114.654 65.567 114.652 67.2896 114.652 69.0123C114.652 69.1442 114.656 69.278 114.669 69.4081C114.678 69.5021 114.741 69.5617 114.838 69.5744C114.924 69.5871 115.011 69.5907 115.096 69.5907C116.705 69.5907 118.316 69.5925 119.924 69.5907C120.334 69.5907 120.353 69.569 120.353 69.1497C120.353 67.427 120.353 65.7044 120.353 63.9818C120.353 63.8607 120.351 63.7413 120.358 63.6203C120.369 63.4468 120.427 63.3925 120.613 63.3745C120.687 63.3672 120.762 63.3672 120.836 63.3672C121.963 63.3672 123.089 63.3672 124.217 63.3672C124.67 63.3672 124.694 63.3925 124.694 63.8427C124.694 67.324 124.694 70.8054 124.694 74.2868C124.694 75.9371 124.694 77.5874 124.694 79.2376C124.694 79.3461 124.697 79.4546 124.691 79.5631C124.675 79.8161 124.632 79.8595 124.384 79.8722C124.323 79.8758 124.26 79.874 124.198 79.874C123.084 79.874 121.969 79.874 120.854 79.874C120.756 79.874 120.656 79.874 120.557 79.8632C120.434 79.8505 120.377 79.7962 120.366 79.6806C120.353 79.5612 120.353 79.4402 120.353 79.319C120.353 77.5964 120.353 75.8738 120.353 74.1512C120.353 74.0427 120.355 73.9343 120.35 73.8258C120.339 73.6234 120.293 73.5818 120.076 73.5692C120.002 73.5655 119.927 73.5674 119.854 73.5674C118.293 73.5674 116.733 73.5674 115.172 73.5674C114.654 73.5674 114.65 73.5692 114.65 74.0662C114.65 75.8123 114.65 77.5603 114.65 79.3064C114.65 79.4383 114.645 79.5721 114.628 79.7022C114.617 79.7926 114.553 79.8541 114.455 79.8632C114.357 79.8703 114.258 79.874 114.157 79.874C113.043 79.874 111.928 79.874 110.814 79.874C110.703 79.874 110.591 79.8686 110.482 79.8559C110.402 79.8468 110.344 79.7926 110.335 79.7131C110.322 79.5938 110.316 79.4727 110.316 79.3534C110.316 78.0646 110.316 76.7758 110.316 75.487C110.316 74.1982 110.316 72.9094 110.316 71.6206V71.6242Z" fill="#212121"/>
<path d="M96.4507 71.6279C96.4507 69.0864 96.4507 66.5449 96.4507 64.0017C96.4507 63.8571 96.4562 63.7125 96.4692 63.5697C96.4784 63.4593 96.5527 63.3962 96.6642 63.3835C96.7626 63.3726 96.8612 63.3672 96.9596 63.3672C100.736 63.3672 104.513 63.3672 108.289 63.3672C108.388 63.3672 108.488 63.3726 108.584 63.3853C108.696 63.3997 108.763 63.4666 108.776 63.5751C108.787 63.6709 108.791 63.7667 108.791 63.8625C108.791 64.7789 108.791 65.6936 108.791 66.61C108.791 67.098 108.765 67.1251 108.271 67.1251C106.116 67.1251 103.961 67.1251 101.808 67.1251C101.548 67.1251 101.288 67.1215 101.028 67.1324C100.844 67.1396 100.788 67.1957 100.782 67.38C100.775 67.6928 100.779 68.0073 100.777 68.32C100.777 68.6942 100.773 69.0664 100.781 69.4407C100.784 69.6685 100.829 69.7064 101.07 69.7154C101.182 69.7208 101.293 69.7172 101.405 69.7172C103.658 69.7172 105.911 69.7172 108.165 69.7172C108.289 69.7172 108.414 69.7154 108.536 69.7245C108.711 69.7371 108.768 69.7985 108.785 69.9757C108.791 70.0353 108.791 70.0968 108.791 70.1565C108.791 71.1091 108.791 72.0599 108.791 73.0125C108.791 73.0721 108.791 73.1335 108.783 73.1931C108.763 73.3722 108.709 73.4245 108.527 73.4372C108.404 73.4445 108.28 73.4426 108.155 73.4426C105.878 73.4426 103.599 73.4426 101.321 73.4426C101.197 73.4426 101.074 73.4426 100.95 73.4535C100.848 73.4626 100.797 73.5168 100.784 73.6161C100.777 73.6884 100.775 73.7608 100.775 73.8331C100.775 74.4711 100.775 75.1092 100.775 75.7491C100.775 75.7726 100.775 75.7979 100.775 75.8213C100.784 76.1197 100.809 76.145 101.122 76.1522C101.295 76.1558 101.47 76.1522 101.643 76.1522C103.809 76.1522 105.976 76.1522 108.142 76.1522C108.267 76.1522 108.389 76.1485 108.514 76.1576C108.713 76.1702 108.767 76.2263 108.783 76.4288C108.789 76.5011 108.787 76.5734 108.787 76.6456C108.787 77.5621 108.787 78.4767 108.787 79.3932C108.787 79.4058 108.787 79.4167 108.787 79.4294C108.78 79.8522 108.759 79.8776 108.321 79.8776C105.064 79.8776 101.808 79.8776 98.5516 79.8776C97.9813 79.8776 97.4128 79.8794 96.8426 79.8776C96.4933 79.8758 96.458 79.8378 96.445 79.5088C96.4413 79.413 96.445 79.3155 96.445 79.2197C96.445 76.689 96.445 74.1603 96.445 71.6296L96.4507 71.6279Z" fill="#212121"/>
<path d="M145.4 71.6098C145.4 69.0557 145.4 66.5034 145.4 63.9493C145.4 63.8283 145.4 63.709 145.409 63.5878C145.42 63.4559 145.484 63.3945 145.621 63.3782C145.72 63.3673 145.818 63.3673 145.919 63.3673C146.364 63.3673 146.81 63.3673 147.256 63.3673C150.523 63.3673 153.791 63.3673 157.06 63.3673C157.196 63.3673 157.334 63.3655 157.469 63.3745C157.655 63.389 157.712 63.4432 157.735 63.6149C157.744 63.6854 157.744 63.7596 157.744 63.8319C157.744 64.7718 157.746 65.7099 157.744 66.6498C157.744 67.0909 157.709 67.1253 157.259 67.1253C154.957 67.1271 152.654 67.1253 150.352 67.1253C150.228 67.1253 150.105 67.1234 149.981 67.1325C149.801 67.1469 149.753 67.2011 149.736 67.3837C149.736 67.3964 149.734 67.4073 149.734 67.4198C149.734 68.0941 149.734 68.7683 149.734 69.4425C149.734 69.4787 149.739 69.5148 149.745 69.551C149.761 69.6468 149.823 69.6993 149.921 69.7064C150.033 69.7137 150.144 69.7155 150.256 69.7155C152.521 69.7155 154.786 69.7155 157.05 69.7155C157.187 69.7155 157.324 69.7119 157.459 69.7209C157.659 69.7335 157.716 69.7914 157.736 69.9884C157.746 70.0715 157.744 70.1565 157.744 70.2415C157.744 71.1453 157.746 72.0472 157.744 72.9511C157.744 73.4247 157.727 73.4373 157.244 73.4373C154.916 73.4373 152.589 73.4373 150.263 73.4373C150.138 73.4373 150.016 73.4391 149.892 73.4499C149.81 73.4572 149.76 73.5132 149.745 73.5909C149.736 73.6506 149.731 73.7102 149.731 73.7698C149.731 74.4441 149.731 75.1183 149.731 75.7925C149.731 75.8523 149.734 75.9137 149.743 75.9733C149.756 76.0691 149.815 76.127 149.914 76.1341C150.037 76.1432 150.162 76.1451 150.285 76.1451C152.563 76.1451 154.84 76.1451 157.118 76.1451C157.253 76.1451 157.391 76.1451 157.527 76.1577C157.644 76.1685 157.703 76.2245 157.723 76.3403C157.741 76.4342 157.746 76.5319 157.746 76.6277C157.746 77.5549 157.749 78.4822 157.746 79.4096C157.746 79.8524 157.723 79.8705 157.256 79.8705C153.481 79.8705 149.704 79.8705 145.93 79.8705C145.411 79.8705 145.406 79.8668 145.406 79.3715C145.406 76.7814 145.406 74.1928 145.406 71.6027L145.4 71.6098Z" fill="#212121"/>
<path d="M126.586 53.677C126.586 51.1229 126.586 48.5706 126.586 46.0165C126.586 45.8845 126.586 45.7508 126.597 45.6189C126.608 45.4996 126.664 45.4454 126.782 45.4327C126.882 45.4219 126.98 45.4219 127.08 45.4219C130.844 45.4219 134.607 45.4219 138.371 45.4219C138.878 45.4219 138.887 45.4327 138.889 45.928C138.889 46.8426 138.889 47.7591 138.889 48.6737C138.889 49.1256 138.868 49.1454 138.411 49.1454C136.096 49.1454 133.783 49.1454 131.465 49.1454C131.33 49.1454 131.193 49.1454 131.057 49.1545C130.933 49.1635 130.887 49.216 130.873 49.3407C130.866 49.413 130.866 49.4853 130.866 49.5576C130.866 50.136 130.866 50.7145 130.866 51.291C130.866 51.3398 130.866 51.3868 130.866 51.4356C130.877 51.6797 130.917 51.7176 131.182 51.7284C131.293 51.7321 131.405 51.7303 131.516 51.7303C133.769 51.7303 136.023 51.7303 138.276 51.7303C138.411 51.7303 138.549 51.7321 138.683 51.7465C138.805 51.7592 138.861 51.8188 138.876 51.9309C138.887 52.0267 138.887 52.1225 138.887 52.2201C138.887 53.1474 138.887 54.0747 138.887 55.002C138.887 55.4756 138.87 55.4937 138.391 55.4937C136.077 55.4937 133.762 55.4937 131.445 55.4937C131.321 55.4937 131.199 55.4937 131.074 55.5027C130.933 55.5135 130.882 55.5696 130.87 55.7124C130.863 55.772 130.863 55.8335 130.863 55.8932C130.863 56.5185 130.863 57.1458 130.863 57.7712C130.863 57.8308 130.863 57.8923 130.87 57.952C130.884 58.0911 130.936 58.1453 131.079 58.1563C131.202 58.1671 131.326 58.1653 131.451 58.1653C133.691 58.1653 135.931 58.1653 138.173 58.1653C138.298 58.1653 138.42 58.1617 138.545 58.1688C138.816 58.1851 138.87 58.2375 138.886 58.4924C138.889 58.5412 138.887 58.5882 138.887 58.637C138.887 59.5769 138.887 60.515 138.887 61.4551C138.887 61.8725 138.846 61.9087 138.425 61.9177C138.363 61.9177 138.3 61.9177 138.238 61.9177C134.562 61.9177 130.887 61.9177 127.208 61.9177C127.072 61.9177 126.936 61.9177 126.801 61.9033C126.658 61.8871 126.605 61.831 126.594 61.6936C126.584 61.5743 126.586 61.4532 126.586 61.3321C126.586 58.778 126.586 56.2258 126.586 53.6716V53.677Z" fill="#212121"/>
<path d="M90.3167 54.955C90.4188 55.0653 90.5415 55.096 90.6492 55.1447C91.2362 55.4159 91.7712 55.7612 92.2355 56.2004C93.0362 56.9577 93.5582 57.8778 93.8629 58.9154C94.1173 59.7794 94.1805 60.667 94.1563 61.5635C94.1563 61.6123 94.1526 61.6593 94.1452 61.7081C94.1303 61.8148 94.0672 61.8852 93.9557 61.9015C93.8573 61.9142 93.7588 61.9214 93.6604 61.9214C92.5216 61.9214 91.3829 61.925 90.2424 61.9214C89.791 61.9214 89.7593 61.8834 89.7538 61.4478C89.7501 61.2073 89.7631 60.9651 89.7427 60.7247C89.6684 59.8571 89.2969 59.154 88.5111 58.6949C88.1768 58.4997 87.8108 58.3929 87.4281 58.3388C87.3668 58.3298 87.3037 58.3279 87.2424 58.3298C87.1012 58.3333 87.038 58.3858 87.0231 58.5231C87.012 58.6297 87.0138 58.7401 87.0138 58.8484C87.0138 59.7269 87.0138 60.6073 87.0138 61.4857C87.0138 61.5707 87.0138 61.6538 87.0138 61.7388C87.0027 62.0985 86.9469 62.1582 86.568 62.1401C85.3698 62.0804 84.2088 61.869 83.1277 61.3375C81.8516 60.7103 80.9283 59.7541 80.3507 58.4852C80.0162 57.7513 79.8453 56.9795 79.7766 56.1806C79.7284 55.6383 79.7246 55.0978 79.7246 54.5573C79.7246 51.714 79.7246 48.8707 79.7246 46.0292C79.7246 45.8845 79.7284 45.74 79.745 45.5972C79.7561 45.505 79.8174 45.4417 79.9177 45.4345C80.0032 45.4273 80.0905 45.4219 80.1778 45.4219C81.3426 45.4219 82.5054 45.4219 83.6702 45.4219C83.7445 45.4219 83.8188 45.4219 83.8931 45.4273C84.0528 45.4417 84.1086 45.4942 84.1215 45.6568C84.1327 45.7887 84.1309 45.9207 84.1309 46.0545C84.1309 49.1617 84.1309 52.2707 84.1309 55.378C84.1309 55.7666 84.1699 56.148 84.2944 56.5168C84.5989 57.4115 85.2603 57.9176 86.1742 58.1417C86.3303 58.1797 86.49 58.1996 86.6497 58.214C86.843 58.2303 86.9005 58.1779 86.9135 57.9989C86.9191 57.9031 86.9173 57.8056 86.9173 57.7097C86.9173 56.7698 86.9173 55.8299 86.9173 54.8917C86.9173 54.7833 86.9228 54.6748 86.9339 54.5682C86.9433 54.4886 86.999 54.4344 87.077 54.4218C87.1736 54.4072 87.2739 54.4018 87.3723 54.4037C87.9928 54.4218 88.6039 54.5103 89.2077 54.6495C89.3154 54.6748 89.4231 54.7056 89.5328 54.7254C89.6739 54.7525 89.739 54.7019 89.7501 54.5538C89.7593 54.4344 89.7575 54.3133 89.7575 54.1922C89.7575 51.47 89.7575 48.7478 89.7575 46.0255C89.7575 45.881 89.7631 45.7364 89.7799 45.5935C89.791 45.5032 89.8542 45.4417 89.9526 45.4327C90.038 45.4255 90.1253 45.4219 90.2127 45.4219C91.3773 45.4219 92.5402 45.4219 93.7049 45.4219C93.7291 45.4219 93.7551 45.4219 93.7792 45.4219C94.1192 45.4309 94.1507 45.4616 94.1601 45.8051C94.162 45.8774 94.1601 45.9497 94.1601 46.022C94.1601 48.7803 94.1601 51.5387 94.1601 54.297C94.1601 54.429 94.1582 54.5628 94.1471 54.6947C94.1377 54.8031 94.0728 54.8754 93.9613 54.8881C93.8387 54.9025 93.7143 54.9098 93.5916 54.9098C92.6257 54.9098 91.6598 54.9098 90.6937 54.9116C90.5768 54.9116 90.4542 54.8863 90.3185 54.955H90.3167Z" fill="#212121"/>
<path d="M108.792 86.7932C108.792 88.3459 108.792 89.9004 108.792 91.4531C108.792 92.1672 108.701 92.8703 108.505 93.5589C108.191 94.649 107.631 95.6016 106.777 96.377C106.01 97.0747 105.092 97.5085 104.087 97.7778C102.902 98.0959 101.7 98.1575 100.481 98.0327C99.6753 97.9514 98.897 97.7706 98.1502 97.4652C96.835 96.9246 95.8393 96.0444 95.1762 94.8098C94.7285 93.9746 94.5 93.0836 94.4183 92.1491C94.3755 91.6555 94.3718 91.1639 94.3718 90.6704C94.3718 87.8037 94.3718 84.9387 94.3718 82.0718C94.3718 81.9398 94.3682 81.8061 94.3774 81.6742C94.3942 81.4301 94.448 81.3777 94.6895 81.3633C94.7638 81.3579 94.8381 81.3596 94.9124 81.3596C96.0269 81.3596 97.1397 81.3596 98.2542 81.3596C98.7539 81.3596 98.765 81.3705 98.765 81.8748C98.765 84.9585 98.765 88.0405 98.765 91.1242C98.765 91.5472 98.7837 91.9647 98.897 92.3768C99.0828 93.042 99.4933 93.5301 100.103 93.868C100.331 93.9946 100.58 94.0669 100.838 94.1085C101.343 94.1916 101.849 94.2043 102.35 94.094C103.524 93.8355 104.28 92.9968 104.384 91.7731C104.401 91.5688 104.397 91.3645 104.397 91.1585C104.397 88.1001 104.397 85.0399 104.397 81.9814C104.397 81.8494 104.396 81.7157 104.407 81.5838C104.42 81.432 104.485 81.3777 104.646 81.365C104.732 81.3579 104.819 81.3596 104.906 81.3596C106.032 81.3596 107.16 81.3596 108.285 81.3596C108.384 81.3596 108.484 81.3597 108.583 81.3705C108.701 81.3849 108.765 81.4391 108.778 81.5549C108.791 81.6742 108.792 81.7953 108.792 81.9146C108.792 83.5396 108.792 85.1664 108.792 86.7914V86.7932Z" fill="#212121"/>
<path d="M84.3222 91.4258C84.3222 89.4736 84.3222 87.5233 84.3222 85.5711C84.3222 85.2385 84.1526 85.0722 83.8132 85.0722C82.6244 85.0722 81.4355 85.0722 80.2485 85.0722C79.7396 85.0722 79.7266 85.0595 79.7266 84.566C79.7266 83.6623 79.7266 82.7585 79.7266 81.8566C79.7266 81.3775 79.7432 81.3594 80.2188 81.3594C84.2665 81.3594 88.3161 81.3594 92.3638 81.3594C92.4623 81.3594 92.5626 81.3613 92.661 81.3703C92.7725 81.3793 92.845 81.4426 92.8617 81.551C92.8765 81.645 92.8839 81.7427 92.8839 81.8385C92.8839 82.753 92.8839 83.6695 92.8839 84.5841C92.8839 84.6077 92.8839 84.6329 92.8839 84.6564C92.8709 85.0215 92.8283 85.0686 92.4456 85.0704C91.3069 85.074 90.1682 85.0704 89.0294 85.0722C88.918 85.0722 88.8065 85.0704 88.6951 85.0722C88.3997 85.0812 88.3645 85.1156 88.3551 85.4174C88.3515 85.5259 88.3551 85.6343 88.3551 85.7428C88.3551 89.5604 88.3551 93.3797 88.3551 97.1973C88.3551 97.342 88.3551 97.4866 88.3421 97.6312C88.3254 97.7848 88.2604 97.8409 88.1043 97.859C88.03 97.8661 87.9557 97.8661 87.8814 97.8661C86.8542 97.8661 85.827 97.8661 84.7997 97.8661C84.3482 97.8661 84.3278 97.8445 84.3278 97.389C84.3278 95.4006 84.3278 93.4141 84.3278 91.4258H84.3222Z" fill="#212121"/>
<path d="M118.732 45.422C120.713 45.422 122.693 45.422 124.675 45.422C124.8 45.422 124.922 45.4202 125.047 45.4293C125.207 45.4401 125.261 45.4961 125.277 45.657C125.286 45.7402 125.285 45.8252 125.285 45.91C125.285 46.8139 125.285 47.7159 125.285 48.6196C125.285 49.1095 125.258 49.1366 124.766 49.1366C123.615 49.1384 122.465 49.1366 121.313 49.1366C120.941 49.1366 120.755 49.3137 120.754 49.668C120.754 53.5217 120.754 57.3755 120.754 61.2311C120.754 61.3757 120.755 61.5202 120.746 61.6649C120.733 61.8366 120.672 61.8926 120.489 61.9143C120.405 61.9251 120.317 61.9251 120.23 61.9251C119.239 61.9251 118.249 61.9251 117.259 61.9251C117.148 61.9251 117.037 61.918 116.926 61.9053C116.814 61.8926 116.749 61.8185 116.741 61.7118C116.73 61.5673 116.728 61.4227 116.728 61.278C116.728 57.4351 116.728 53.594 116.728 49.7512C116.728 49.6193 116.73 49.4854 116.719 49.3535C116.708 49.2161 116.649 49.1601 116.509 49.1474C116.397 49.1366 116.286 49.1384 116.175 49.1384C115.012 49.1384 113.848 49.1384 112.684 49.1384C112.562 49.1384 112.438 49.133 112.314 49.1186C112.237 49.1076 112.184 49.0534 112.177 48.9703C112.173 48.9106 112.172 48.8491 112.172 48.7895C112.172 47.8261 112.172 46.8626 112.172 45.8992C112.172 45.4311 112.177 45.4257 112.679 45.4257C114.696 45.4257 116.714 45.4257 118.732 45.4257V45.422Z" fill="#212121"/>
</g>
</g>
<defs>
<clipPath id="clip0_10264_27793">
<rect width="253.55" height="143.3" fill="white" transform="translate(0.230469 0.109375)"/>
</clipPath>
<clipPath id="clip1_10264_27793">
<rect width="253.55" height="143.3" fill="white" transform="translate(0.230469 0.109375)"/>
</clipPath>
</defs>
</svg>
